<svg id="Layer_1" data-name="Layer 1" xmlns="http://www.w3.org/2000/svg" viewBox="0 0 492.63 506.27"><defs><style>.cls-1{fill:#d86f3a;}</style></defs><path class="cls-1" d="M437.73,79.93c7.72-1.68,11.37-6.33,12.85-13.07.82-3.77-.17-7-3.59-8.83-8.4-4.52-15.15-4.4-22.39,2-8.35,7.45-12.73,16.78-13.5,28.13-.7,10.27,1.88,19.07,8.73,26.69,1.46,1.61,2.74,3.38,4.26,5.27,1.88-3.19,3.38-5.85,5-8.45a21.66,21.66,0,0,1,2.56-3.25c3.69-3.92,6.62-3.39,8.57,1.58,1.66,4.25,2.88,8.7,4.84,12.79,5.83,12.17,15.74,19.34,28.66,22.62l2.95.74c-1.32,1-2,1.87-2.87,2.13-11.89,3.66-22.75.37-33.39-4.9A104.82,104.82,0,0,1,415,126.1c-7.73-7.26-14.57-15.44-17.64-25.82-4.69-15.86-3.44-31.35,6.42-45,8.33-11.51,20-18.18,34.38-20,10.37-1.29,19.43,1,26.83,8.45,10.93,11.08,10.72,28.77-.44,38.39-4.15,3.58-9.07,6.14-14.66,5.29-3.44-.52-6.73-2.38-9.93-3.95C439.05,83.05,438.67,81.49,437.73,79.93Z"/><path class="cls-1" d="M67,120.4c1.49-1.61,2.65-2.84,3.78-4.09,6.7-7.42,10.5-16,10.07-26.13-.57-13.1-5.65-24.12-16.34-32.08C59,54,53,53.74,46.87,56.71c-3.72,1.81-6.22,4.83-6,8.95.25,4.43,1.67,8.72,6,11.17a37.35,37.35,0,0,0,5,2.17c2,.78,2.31,1.83.92,3.46-3.54,4.12-11.43,6.18-16.63,4.43C27.4,84,21.8,78.12,19.52,69.22c-3.74-14.63,8.34-32.15,23.37-33.8C66,32.89,90.37,47.06,95.61,73.78c3.18,16.24-.35,31.56-11,44C71.47,133.2,54.93,144.31,34.78,149a31.5,31.5,0,0,1-16.41-.15c-.81-.24-1.46-1.07-2.18-1.63a7.78,7.78,0,0,1,2.09-1.43c14.65-4.1,24.71-13.29,30.36-27.33,1.28-3.19,2.19-6.53,3.44-9.74s3.29-3.75,6-1.67a21.42,21.42,0,0,1,7.53,10C66,118,66.36,118.93,67,120.4Z"/><path class="cls-1" d="M251.58,170.74c7.94-34.24,28.47-58.63,59.36-74.63a88.05,88.05,0,0,1,36.38-10c8.21-.4,16.4-.35,24.29,2.58a2.43,2.43,0,0,0,2.18-.51c.31-.34.08-1.57-.32-2.1C363.7,73,350.23,66.56,334.3,65.38c-15-1.11-27.81,4.84-39.34,13.89C280,91,269.43,106.32,260,122.53c-2.62,4.48-5.31,8.91-8,13.36l-.72-.16a10.68,10.68,0,0,1-.88-2.84c-.07-5.26,0-10.53,0-15.79a144,144,0,0,1,5.39-39.34c2.35-8.35,4.52-16.9,5.34-25.5,1.6-16.82-4.05-31.93-13.18-45.85-1.31-2-2.37-2-3.65.06-1.18,1.9-2.19,3.91-3.28,5.87-9,16.21-12.64,33.26-8.12,51.59,2,8.27,4.38,16.48,6.17,24.8,3.19,14.82,2.87,29.89,2.63,44.93a16.58,16.58,0,0,1-.57,2.74c-.79-1.07-1.29-1.66-1.69-2.3-1.56-2.49-3.11-5-4.61-7.5-10.75-18-22-35.65-39-48.61-9-6.87-19.17-11.38-30.48-12.54-15-1.53-28,3.54-39.54,12.89a56.52,56.52,0,0,0-6.9,7.34c-.55.65-.44,1.84-.64,2.78a13,13,0,0,0,2.64.05c1.09-.18,2.12-.71,3.2-1a74,74,0,0,1,35.88.93c32.86,8.85,56.85,28.8,72.27,59,4.4,8.61,8,17.58,9.16,27.29.39,3.37,5.14,23.26,5.14,23.26S250.61,175,251.58,170.74Z"/><path class="cls-1" d="M116.15,388.68c-7.26-10.61-10.86-22.3-9.56-35.17,1.55-15.27,7.68-29,15.84-41.69s19.49-22.34,32.19-30.37c2.6-1.65,2.59-1.92-.14-3.45-7.24-4-14.91-4.27-22.84-2.78-12.8,2.42-22.45,9.07-28,21A85.91,85.91,0,0,0,96,326.9c-.38,5.55-.06,11.15-.06,16.73l-1,.09c-.24-.7-.54-1.39-.72-2.11A121,121,0,0,1,90.73,309c.22-10.45.76-20.91,1.54-31.34.56-7.47,1.65-14.91,2.7-22.34.46-3.26,0-4-3.26-3.22-7.07,1.62-11.58,6.38-14.49,12.64-5.33,11.41-4.82,23.47-3.37,35.57a29,29,0,0,1,0,3.49A72.5,72.5,0,0,1,69.13,297c-7.36-10.71-16.36-19.2-29.77-21.52-7.15-1.24-14.26-1.65-21,2-2.58,1.39-2.55,1.63-.42,3.57,11.88,10.84,23.6,21.87,35.66,32.5a126.09,126.09,0,0,1,27.19,33.05c.71,1.27,1.24,2.63,1.85,3.95l-.66.34a2.87,2.87,0,0,1-.57-.46A60.22,60.22,0,0,0,52.3,328.45c-15.82-5.76-31-5.23-44.83,5.42a2.81,2.81,0,0,0-1.09,2.22,3.08,3.08,0,0,0,1.88,1.85c12.24,3.28,24.31,7,35.8,12.47,21.26,10.16,41.16,22.24,57.43,39.6.69.74,19.74,11.39,24.34,13C125.83,403,118.19,391.67,116.15,388.68Z"/><path class="cls-1" d="M376.48,388.68c7.26-10.61,10.86-22.3,9.56-35.17-1.55-15.27-7.68-29-15.84-41.69S350.71,289.48,338,281.45c-2.6-1.65-2.59-1.92.14-3.45,7.24-4,14.91-4.27,22.84-2.78,12.8,2.42,22.45,9.07,28,21a85.91,85.91,0,0,1,7.64,30.69c.38,5.55.07,11.15.07,16.73l1,.09c.24-.7.54-1.39.72-2.11A121,121,0,0,0,401.9,309c-.22-10.45-.76-20.91-1.54-31.34-.56-7.47-1.65-14.91-2.7-22.34-.46-3.26,0-4,3.26-3.22,7.07,1.62,11.58,6.38,14.49,12.64,5.33,11.41,4.82,23.47,3.37,35.57a29,29,0,0,0,0,3.49A72.5,72.5,0,0,0,423.5,297c7.36-10.71,16.36-19.2,29.77-21.52,7.15-1.24,14.26-1.65,21,2,2.58,1.39,2.55,1.63.42,3.57-11.88,10.84-23.6,21.87-35.66,32.5a126.09,126.09,0,0,0-27.19,33.05c-.71,1.27-1.24,2.63-1.85,3.95l.66.34a2.87,2.87,0,0,0,.57-.46,60.22,60.22,0,0,1,29.15-21.92c15.82-5.76,31-5.23,44.83,5.42a2.81,2.81,0,0,1,1.09,2.22,3.08,3.08,0,0,1-1.88,1.85c-12.24,3.28-24.31,7-35.8,12.47-21.26,10.16-41.16,22.24-57.43,39.6-.69.74-19.74,11.39-24.34,13C366.8,403,374.44,391.67,376.48,388.68Z"/><path class="cls-1" d="M197.4,436.29c13.42,13.92,29.49,23.82,47.44,30.78a4.18,4.18,0,0,0,2.89-.14c17.52-7.52,33.92-16.81,47-31,15.18-16.47,24.11-35.09,24.56-56.48-19.24,15-57,42.81-73.33,42.81-17.06,0-56.15-30.46-73.65-44.84a83.3,83.3,0,0,0,.61,9.12C175.3,405.83,184,422.33,197.4,436.29Z"/><path class="cls-1" d="M269.83,293.41h0l0,0Z"/></svg>