<svg id="Layer_1" data-name="Layer 1" xmlns="http://www.w3.org/2000/svg" viewBox="0 0 566.93 566.93"><defs><style>.cls-1{fill:#e9bad2;}</style></defs><path class="cls-1" d="M376.44,275c-11.78-8.83-25.12-11-39.11-7.92-17.75,3.92-30,15.25-38.41,31h0a90.28,90.28,0,0,0-7.75,17.47,145.54,145.54,0,0,0-7.24,29.93c-.65-.12-.71-.61-.76-1.06a143.45,143.45,0,0,0-6.16-26.7c-2.52-8-5.31-15.9-10.07-22.91a58.87,58.87,0,0,0-12.31-14.71c-11.91-10.27-25.36-15.58-41.29-13.75-10.49,1.2-19.51,5.18-26.93,12.88-10.53,10.95-11.77,26.69-2.82,38.94,5.64,7.71,16.41,11.1,25,8,6.19-2.24,10.94-9.24,9.31-14.57-3.07,6-6.74,8.41-12.4,8.06-4.92-.3-9.69-4.44-11.59-10-2.7-8,.61-17.55,7.74-22.52a32.4,32.4,0,0,1,18.18-6c6.71-.17,13,1,18.85,4.39,3.24,1.89,6,4.4,9,6.54h0l0,0h0l6,7h0a77,77,0,0,1,9.44,19.69c3,9.67,3.5,111.92,3.22,121.94a3,3,0,0,0,1.74,3.13,38.19,38.19,0,0,1,10.11,8.07c2.19,2.45,3.72,5.34,5.75,8.09.26-.47.42-.72.56-1,3.63-6.86,8.63-12.39,15.68-15.88a1.9,1.9,0,0,0,1.17-2c0-4.27-.05-100.85.34-105.13a89.09,89.09,0,0,1,3.3-17.67,77.82,77.82,0,0,1,10-20.19c.48-.5,1-1,1.43-1.51,8.75-10.44,19.16-17.09,33.54-15.51,7.8.86,14.39,3.78,19.67,9.63,6.05,6.7,6.38,17.82.58,24.47-3.07,3.52-7,5.18-11.64,4.23a11,11,0,0,1-8.86-8.4c-.84,7.09,2.79,12.73,9.63,15,8.94,3,19.24-.8,25-9.17C393.34,303.77,389.83,285,376.44,275Z"/></svg>