<svg width="125" height="222" viewBox="0 0 125 222" fill="none" xmlns="http://www.w3.org/2000/svg">
<path d="M47.3491 107.324C47.3491 107.324 98.7078 159.687 91.1273 174.515C88.4898 179.363 84.3008 183.189 79.2295 185.381C79.2295 185.381 81.0604 177.39 79.517 171.973C78.705 169.138 77.9031 165.931 73.5555 158.756C62.5807 140.666 41.2262 112.027 41.2262 112.027L47.3491 107.324Z" fill="#9AC552"/>
<path d="M54.864 185.286C54.864 185.286 3.53048 132.922 11.0958 118.11C13.7321 113.262 17.9192 109.437 22.9886 107.244C22.9886 107.244 21.1527 115.235 22.7011 120.652C23.5081 123.487 24.3151 126.694 28.6626 133.869C39.6324 151.959 60.9869 180.598 60.9869 180.598L54.864 185.286Z" fill="#9AC552"/>
<path d="M66.3331 36.3223C66.3331 36.3223 117.687 88.6855 110.111 103.518C107.473 108.367 103.282 112.193 98.2085 114.384C98.2085 114.384 100.044 106.388 98.496 100.971C97.689 98.1411 96.8821 94.9288 92.5345 87.754C81.5647 69.6686 60.2102 41.0299 60.2102 41.0299L66.3331 36.3223Z" fill="#9AC552"/>
<path d="M73.8481 114.293C73.8481 114.293 22.4894 61.9301 30.0699 47.1123C32.7082 42.2663 36.8972 38.4426 41.9677 36.252C41.9677 36.252 40.1368 44.2424 41.6802 49.66C42.4922 52.4896 43.2941 55.7019 47.6467 62.8766C58.6165 80.9671 79.971 109.601 79.971 109.601L73.8481 114.293Z" fill="#9AC552"/>
</svg>
