<svg width="125" height="222" viewBox="0 0 125 222" fill="none" xmlns="http://www.w3.org/2000/svg">
<path d="M47.3491 107.324C47.3491 107.324 98.7028 159.708 91.1273 174.515C91.1273 174.515 87.6624 181.786 79.2295 185.381C79.2295 185.381 81.0654 177.39 79.517 171.973C78.71 169.143 77.903 165.926 73.5555 158.756C62.5857 140.666 41.2312 112.032 41.2312 112.032L47.3491 107.324Z" fill="#233565"/>
<path d="M54.864 185.301C54.864 185.301 3.51034 132.917 11.0858 118.11C11.0858 118.11 14.5507 110.839 22.9836 107.244C22.9836 107.244 21.1477 115.235 22.6961 120.652C23.5031 123.482 24.3101 126.699 28.6576 133.869C39.6274 151.959 60.9819 180.593 60.9819 180.593L54.864 185.301Z" fill="#233565"/>
<path d="M66.3331 36.3223C66.3331 36.3223 117.687 88.7056 110.111 103.513C110.111 103.513 106.646 110.784 98.2135 114.379C98.2135 114.379 100.049 106.388 98.501 100.971C97.694 98.1411 96.8871 94.9238 92.5395 87.754C81.5697 69.6635 60.2152 41.0299 60.2152 41.0299L66.3331 36.3223Z" fill="#233565"/>
<path d="M73.8481 114.303C73.8481 114.303 22.4944 61.9192 30.0698 47.1115C30.0698 47.1115 33.5347 39.841 41.9676 36.2461C41.9676 36.2461 40.1317 44.2365 41.6801 49.6541C42.4871 52.4837 43.2941 55.7011 47.6416 62.8708C58.6114 80.9613 79.9659 109.595 79.9659 109.595L73.8481 114.303Z" fill="#233565"/>
</svg>
