<svg width="125" height="222" viewBox="0 0 125 222" fill="none" xmlns="http://www.w3.org/2000/svg">
<path d="M47.349 107.324C47.349 107.324 98.7077 159.687 91.1272 174.515C88.4897 179.363 84.3007 183.189 79.2294 185.381C79.2294 185.381 81.0602 177.39 79.5169 171.973C78.7049 169.138 77.903 165.931 73.5554 158.756C62.5806 140.666 41.2261 112.027 41.2261 112.027L47.349 107.324Z" fill="#CE433A"/>
<path d="M54.8641 185.286C54.8641 185.286 3.53061 132.922 11.096 118.11C13.7322 113.262 17.9193 109.437 22.9887 107.244C22.9887 107.244 21.1529 115.235 22.7012 120.652C23.5082 123.487 24.3152 126.694 28.6628 133.869C39.6325 151.959 60.987 180.598 60.987 180.598L54.8641 185.286Z" fill="#CE433A"/>
<path d="M66.3331 36.3223C66.3331 36.3223 117.687 88.6855 110.111 103.518C107.473 108.367 103.282 112.193 98.2085 114.384C98.2085 114.384 100.044 106.388 98.496 100.971C97.689 98.1411 96.8821 94.9288 92.5345 87.754C81.5647 69.6686 60.2102 41.0299 60.2102 41.0299L66.3331 36.3223Z" fill="#CE433A"/>
<path d="M73.848 114.293C73.848 114.293 22.4892 61.9301 30.0697 47.1123C32.7081 42.2663 36.897 38.4426 41.9675 36.252C41.9675 36.252 40.1367 44.2424 41.68 49.66C42.4921 52.4896 43.294 55.7019 47.6466 62.8766C58.6164 80.9671 79.9709 109.601 79.9709 109.601L73.848 114.293Z" fill="#CE433A"/>
</svg>
