<svg xmlns="http://www.w3.org/2000/svg" viewBox="0 0 371.66 471.35"><defs><style>.cls-1{fill:#fff;stroke:#000;stroke-miterlimit:10;}.cls-2{fill:#231f20;}</style></defs><g id="Badan"><path class="cls-1" d="M119.86,435.06h133.9S246.13,282,244.89,213.44c-.33-18,8.91-46.3,8.87-79.6,0-23.14-34.72-79.62-34.72-79.62L191.51,48l-33.66-7.1S129.2,82.31,129.26,98C129.51,171.66,119.86,435.06,119.86,435.06Z"/></g><g id="Lengan_panjang" data-name="Lengan panjang"><path class="cls-1" d="M200.7,403.54l3.41,12.77s24.71-5.76,34.09-10.5l-3.45-12.39s-4.65,2.57-16.62,6.3C206.59,403.31,200.7,403.54,200.7,403.54Z"/><circle class="cls-2" cx="208.69" cy="408.7" r="2.49"/><path class="cls-1" d="M207.43,209.67s-2.21,22.92,6.43,61.14c5.87,25.94,19.58,60.78,26.09,86.89,2.47,9.92-7.84,25.86-5.2,35.72a86,86,0,0,1-34.05,10.12c-4.72-9.06-21.2-11-24.87-25-8.28-31.55-31.24-132.07-33.08-152.85-1-11,9.26-84.29,17.84-131,3.58-19.49,8.11-22.09,12.37-25.27C177.43,66,205,56.59,212.43,84.2,222.57,122.09,207.43,209.67,207.43,209.67Z"/></g><g id="Kerah_standar" data-name="Kerah standar"><polygon class="cls-1" points="157.85 40.89 159.25 36.84 217.73 49.05 219.04 54.22 157.85 40.89"/></g></svg>