<svg xmlns="http://www.w3.org/2000/svg" viewBox="0 0 371.66 471.35"><defs><style>.cls-1{fill:#fff;stroke:#000;stroke-miterlimit:10;}.cls-2{fill:#231f20;}</style></defs><g id="Badan"><path class="cls-1" d="M253.76,435.06H119.86s7.63-153.08,8.87-221.62c.33-18-8.91-46.3-8.87-79.6,0-23.14,34.72-79.62,34.72-79.62L182.11,48l33.66-7.1S244.42,82.31,244.36,98C244.11,171.66,253.76,435.06,253.76,435.06Z"/></g><g id="Lengan_panjang" data-name="Lengan panjang"><path class="cls-1" d="M172.92,403.54l-3.41,12.77s-24.71-5.76-34.09-10.5l3.45-12.39s4.65,2.57,16.62,6.3C167,403.31,172.92,403.54,172.92,403.54Z"/><circle class="cls-2" cx="164.93" cy="408.7" r="2.49"/><path class="cls-1" d="M166.19,209.67s2.21,22.92-6.43,61.14c-5.87,25.94-19.58,60.78-26.09,86.89-2.47,9.92,7.84,25.86,5.2,35.72a86,86,0,0,0,34,10.12c4.72-9.06,21.2-11,24.87-25C206.07,347,229,246.47,230.87,225.69c1-11-9.25-84.29-17.84-131-3.58-19.49-8.11-22.09-12.36-25.27C196.2,66,168.58,56.59,161.19,84.2,151.05,122.09,166.19,209.67,166.19,209.67Z"/></g><g id="Kerah_standar" data-name="Kerah standar"><polygon class="cls-1" points="215.77 40.89 214.38 36.84 155.89 49.05 154.58 54.22 215.77 40.89"/></g></svg>