<svg xmlns="http://www.w3.org/2000/svg" viewBox="0 0 371.66 471.35"><defs><style>.cls-1{fill:#707171;}.cls-2{fill:#fff;stroke:#000;stroke-miterlimit:10;}.cls-3{fill:#231f20;}</style></defs><g id="Badan"><path class="cls-1" d="M224,40.89c-1.79,4.36-5.77,6.67-10.13,9.94-4.62,3.46-22.39,11-28,11S168,56.38,160.61,52.37c-4.78-2.59-11.39-6.59-12.93-11.48,13.19,1,23.69,2.32,38.17,2.32S210.83,41.87,224,40.89Z"/><path class="cls-2" d="M293.92,426.91c-3.7-50.68-12.5-117.5-11.11-147.14,1.46-31,3.46-65.48,3.06-70.28-2.74-32.82-9.95-82.92-2.9-144.44-6.83-5.1-45.75-20.43-60.11-25.64-.08,5.14-29.18,20.68-37,22.29v-.05h0v.06l-.39.06-.39-.06v-.06h0v.05c-7.85-1.61-36.94-17.15-37-22.29C133.6,44.62,94.68,60,87.85,65.05c7.05,61.52-.16,111.62-2.9,144.44-.39,4.8,1.6,39.31,3.06,70.28,1.39,29.64-7.4,96.46-11.11,147.14,3.87,1.34,55.77,2,108.09,2h.84C238.15,428.93,290.05,428.25,293.92,426.91Z"/></g><g id="Kancing"><polyline class="cls-2" points="190.78 65.01 190.78 123.53 180.82 123.53 180.82 65.01"/><circle class="cls-3" cx="186.06" cy="75.45" r="2.49"/><circle class="cls-3" cx="186.06" cy="116.99" r="2.49"/></g><g id="Lengan_panjang" data-name="Lengan panjang"><path class="cls-2" d="M28.43,395.05v13.22s25.35.81,35.64-1.35l-.14-12.85s-5.16,1.28-17.68,1.79C34.17,396.35,28.43,395.05,28.43,395.05Z"/><circle class="cls-3" cx="34.81" cy="402.1" r="2.49"/><path class="cls-2" d="M85,209.49s-8,21.57-9.56,60.73c-1,26.57,3.23,63.77,2.78,90.68-.17,10.21-14.24,23-14.24,33.17a85.92,85.92,0,0,1-35.5,1c-2.23-10-17.64-16.12-17.58-30.57.14-32.62,3.9-135.66,7.48-156.2,1.9-10.88,30.69-79.06,51.06-122,8.48-17.91,14.67-18,18.46-21.22,1.35-1.17,2.75,27,2.76,55.57C90.63,159.85,85,209.49,85,209.49Z"/><path class="cls-2" d="M342,395.05v13.22s-25.35.81-35.64-1.35l.14-12.85s5.16,1.28,17.68,1.79C336.29,396.35,342,395.05,342,395.05Z"/><circle class="cls-3" cx="335.64" cy="402.1" r="2.49"/><path class="cls-2" d="M285.5,209.49s8.06,21.57,9.57,60.73c1,26.57-3.23,63.77-2.78,90.68.17,10.21,14.24,23,14.24,33.17a85.91,85.91,0,0,0,35.5,1c2.23-10,17.64-16.12,17.58-30.57-.14-32.62-3.9-135.66-7.48-156.2-1.9-10.88-30.7-79.06-51.06-122-8.48-17.91-14.67-18-18.46-21.22-1.35-1.17-2.75,27-2.76,55.57C279.83,159.85,285.5,209.49,285.5,209.49Z"/></g><g id="Kerah_standar" data-name="Kerah standar"><path class="cls-2" d="M147.18,38.66c0,2.74-.89,1.53.62,4.82,1.64.38.19.71,1.85,1C161.18,46.5,174,47,185.77,47s24.6-.49,36.13-2.51c2-.36.87-.75,2.88-1.27.92-3.13,0-1.82,0-4.55-15.07,1.11-22.5,2.64-39,2.64S162.25,39.77,147.18,38.66Z"/><path class="cls-2" d="M142.49,41s3.23,6.24,19.38,15.89c8.8,5.25,19.4,9.64,24.5,9.64s11.48-.64,27.72-11S230.25,41,230.25,41l-4.48-2.31s-7.39,7.59-14.89,11.87-19.06,9.9-24.51,9.76c-4.23-.11-15.28-5.69-21.82-9.43-6.24-3.58-16.08-8.63-17.37-12.2Z"/></g></svg>