<svg xmlns="http://www.w3.org/2000/svg" viewBox="0 0 371.66 471.35"><defs><style>.cls-1{fill:#fff;stroke:#000;stroke-miterlimit:10;}.cls-2{fill:#231f20;}</style></defs><g id="Badan"><path class="cls-1" d="M293.92,426.91c-3.7-50.68-12.5-117.5-11.11-147.14,1.46-31,3.46-65.48,3.06-70.28-2.74-32.82-9.95-82.92-2.9-144.44-6.83-5.1-45.75-20.43-60.11-25.64-4.17,2-58.33,3.42-74.9,0C133.6,44.62,94.68,60,87.85,65.05c7.05,61.52-.16,111.62-2.9,144.44-.39,4.8,1.6,39.31,3.06,70.28,1.39,29.64-7.4,96.46-11.11,147.14,3.87,1.34,55.77,2,108.09,2h.84C238.15,428.93,290.05,428.25,293.92,426.91Z"/></g><g id="Lengan_panjang" data-name="Lengan panjang"><path class="cls-1" d="M28.43,395.05v13.22s25.35.81,35.64-1.35l-.14-12.85s-5.16,1.28-17.68,1.79C34.17,396.35,28.43,395.05,28.43,395.05Z"/><circle class="cls-2" cx="34.81" cy="402.1" r="2.49"/><path class="cls-1" d="M85,209.49s-8,21.57-9.56,60.73c-1,26.57,3.23,63.77,2.78,90.68-.17,10.21-14.24,23-14.24,33.17a85.92,85.92,0,0,1-35.5,1c-2.23-10-17.64-16.12-17.58-30.57.14-32.62,3.9-135.66,7.48-156.2,1.9-10.88,30.69-79.06,51.06-122,8.48-17.91,14.67-18,18.46-21.22,1.35-1.17,2.75,27,2.76,55.57C90.63,159.85,85,209.49,85,209.49Z"/><path class="cls-1" d="M342,395.05v13.22s-25.35.81-35.64-1.35l.14-12.85s5.16,1.28,17.68,1.79C336.29,396.35,342,395.05,342,395.05Z"/><circle class="cls-2" cx="335.64" cy="402.1" r="2.49"/><path class="cls-1" d="M285.5,209.49s8.06,21.57,9.57,60.73c1,26.57-3.23,63.77-2.78,90.68.17,10.21,14.24,23,14.24,33.17a85.91,85.91,0,0,0,35.5,1c2.23-10,17.64-16.12,17.58-30.57-.14-32.62-3.9-135.66-7.48-156.2-1.9-10.88-30.7-79.06-51.06-122-8.48-17.91-14.67-18-18.46-21.22-1.35-1.17-2.75,27-2.76,55.57C279.83,159.85,285.5,209.49,285.5,209.49Z"/></g><g id="Kerah_standar" data-name="Kerah standar"><path class="cls-1" d="M146.59,34.5c0,2.74-.88,1.52.61,4.81,1.62.39.18.72,1.83,1,11.41,2,24.13,2.51,35.75,2.51s24.33-.5,35.74-2.51c2-.36.87-.76,2.85-1.27.92-3.14,0-1.83,0-4.55-14.9,1.11-22.26,2.64-38.62,2.64S161.5,35.61,146.59,34.5Z"/></g></svg>