<svg width="140" height="187" viewBox="0 0 140 187" fill="none" xmlns="http://www.w3.org/2000/svg">
<path d="M77.1738 69.7953C78.3639 68.5131 79.4998 67.2271 80.7869 65.9914C81.1781 67.0759 81.3596 68.2248 81.3219 69.3769C81.2571 72.3048 80.1805 75.12 78.2748 77.345L78.046 77.6239C77.2397 78.5613 77.2436 78.5536 76.1387 78.0733C75.3887 77.7332 74.5779 77.5474 73.7545 77.5271C71.5254 77.5038 69.2963 77.5271 67.071 77.5038C65.8649 77.5121 64.6776 77.8041 63.6053 78.356C63.521 78.4214 63.4148 78.4519 63.3087 78.4411C63.2025 78.4302 63.1047 78.379 63.0354 78.2979C59.9999 75.4082 58.1275 70.7288 59.4998 66.2587C59.5231 66.1851 59.558 66.1153 59.589 66.034C60.8761 67.1961 62.0429 68.4705 63.299 69.7798C63.5316 68.393 64.117 67.1806 64.621 65.9371C64.9156 65.2128 64.9272 65.2166 65.4351 65.8364C66.3127 66.8623 67.0637 67.9898 67.6719 69.1949C68.2371 67.6954 68.9487 66.2552 69.7964 64.8951C70.06 64.469 70.1841 64.3916 70.4709 64.8951C71.3546 66.2495 72.0669 67.708 72.5915 69.2375C73.2505 67.9011 74.1732 66.8746 75.0377 65.7977C75.3789 65.3716 75.5145 65.4839 75.6812 65.9178C76.1775 67.1922 76.7861 68.4279 77.1738 69.7953Z" fill="#80CCE8"/>
<path d="M77.1738 117.298C78.3639 118.58 79.4998 119.862 80.7869 121.102C81.1784 120.016 81.3599 118.866 81.3219 117.712C81.2562 114.786 80.1796 111.972 78.2748 109.748C78.1972 109.655 78.1236 109.558 78.046 109.469C77.2397 108.532 77.2436 108.539 76.1387 109.016C75.3896 109.359 74.5784 109.546 73.7545 109.566C71.5254 109.589 69.2963 109.566 67.071 109.589C65.8649 109.581 64.6776 109.289 63.6053 108.737C63.521 108.672 63.4148 108.641 63.3087 108.652C63.2025 108.663 63.1047 108.714 63.0354 108.795C59.9999 111.685 58.1275 116.364 59.4998 120.834C59.5231 120.908 59.558 120.978 59.589 121.055C60.8761 119.893 62.0429 118.622 63.299 117.313C63.5316 118.7 64.117 119.912 64.621 121.152C64.9156 121.88 64.9272 121.876 65.4351 121.257C66.3127 120.231 67.0637 119.103 67.6719 117.898C68.2371 119.398 68.9487 120.838 69.7964 122.198C70.06 122.624 70.1841 122.701 70.4709 122.198C71.3546 120.843 72.0669 119.385 72.5915 117.855C73.2505 119.192 74.1732 120.218 75.0377 121.295C75.3789 121.718 75.5145 121.609 75.6812 121.175C76.1775 119.901 76.7861 118.665 77.1738 117.298Z" fill="#80CCE8"/>
<path d="M27.4394 81.0714C34.5299 83.2833 41.446 82.8649 48.7381 81.8152C41.9732 89.5934 40.1047 98.8592 39.1743 108.454C37.1506 106.905 35.1812 100.893 34.8788 95.3806C29.9166 96.1941 24.9932 95.8222 19.9031 95.0436C23.6273 92.2417 27.6251 89.8226 31.8356 87.8232C30.2772 85.6501 28.7342 83.6009 27.4394 81.0714Z" fill="#80CCE8"/>
<path d="M112.859 105.363C105.765 103.151 98.8486 103.569 91.5371 104.619C98.302 96.841 100.171 87.5752 101.101 77.9802C103.125 79.5297 105.094 85.5416 105.396 91.0538C110.359 90.2403 115.282 90.616 120.372 91.3908C116.648 94.1927 112.65 96.6118 108.44 98.6112C110.017 100.773 111.56 102.826 112.859 105.363Z" fill="#80CCE8"/>
<path d="M104.307 139.838C107.517 139.931 110.587 140.009 113.658 140.121C114.181 140.141 114.344 140.04 114.305 139.478C114.193 137.793 114.15 136.1 114.084 134.411C114.034 133.017 113.991 131.622 113.945 130.178C123.532 135.341 133.328 131.254 136.767 124.658C136.519 124.553 136.306 124.7 136.092 124.762C134.622 125.245 133.123 125.633 131.603 125.924C126.273 126.767 120.813 125.968 115.949 123.635C115.806 123.589 115.684 123.494 115.605 123.366C115.527 123.238 115.498 123.086 115.522 122.938C115.662 119.064 115.522 115.221 115.522 111.363C115.522 110.898 115.398 110.771 114.937 110.778C105.381 110.864 95.8287 110.747 86.2765 110.709C84.8421 110.709 84.8576 110.709 84.8498 112.177C84.7801 121.632 84.8266 131.088 84.877 140.543C84.877 141.45 84.877 141.442 85.8074 141.43L96.9568 141.31C97.1778 141.31 97.3678 141.241 97.5306 141.554C99.7943 145.825 100.776 150.658 100.357 155.472C100.105 157.991 99.497 160.461 98.5502 162.809C100.799 161.817 103.881 158.66 105.09 155.964C107.54 150.506 107.35 145.134 104.307 139.838ZM108.102 134.745C102.716 134.675 97.3303 134.627 91.9442 134.601C91.6457 134.601 91.5294 134.574 91.5333 134.241C91.5876 130.697 91.6264 127.156 91.669 123.573C94.5339 124.313 97.2825 125.359 100.318 125.87C99.4457 123.004 98.62 120.288 97.7671 117.491L103.815 117.472C105.338 117.472 106.866 117.472 108.389 117.437C108.684 117.437 108.777 117.437 108.777 117.786C108.813 123.17 108.862 128.552 108.924 133.931C108.936 134.582 108.742 134.756 108.102 134.748V134.745Z" fill="#80CCE8"/>
<path d="M35.6929 47.4173C32.483 47.3243 29.4126 47.2468 26.3423 47.1345C25.8189 47.1151 25.6561 47.2158 25.6949 47.7775C25.8073 49.4625 25.8499 51.1553 25.912 52.8442C25.9662 54.2387 26.0089 55.6333 26.0554 57.0781C16.4683 51.9146 6.67181 56.0013 3.23315 62.5981C3.48126 62.7026 3.69448 62.5554 3.9077 62.4935C5.37751 62.0099 6.87705 61.6217 8.39695 61.3314C13.7235 60.4985 19.1777 61.3037 24.0356 63.6401C24.1788 63.6856 24.3007 63.7811 24.3791 63.9092C24.4574 64.0373 24.4869 64.1893 24.4621 64.3373C24.3225 68.211 24.4621 72.0536 24.4621 75.9118C24.4621 76.3766 24.59 76.5044 25.0513 76.4967C34.6036 76.4115 44.1597 76.5277 53.7119 76.5664C55.1463 76.5664 55.1269 76.5664 55.1386 75.0983C55.2083 65.6427 55.1618 56.1872 55.1075 46.7316C55.1075 45.8252 55.1075 45.8329 54.181 45.8446L43.0316 45.9646C42.8106 45.9646 42.6206 46.0344 42.4578 45.7206C40.1925 41.4506 39.211 36.6172 39.6317 31.8026C39.8832 29.2839 40.4914 26.8137 41.4382 24.4659C39.1859 25.4576 36.1 28.6146 34.8905 31.3107C32.4598 36.7531 32.6497 42.1259 35.6929 47.4173ZM31.8937 52.5111C37.2824 52.5808 42.6684 52.6286 48.0519 52.6544C48.3543 52.6544 48.4706 52.6815 48.4667 53.0147C48.4125 56.5591 48.3737 60.0996 48.331 63.6827C45.4661 62.9428 42.7176 61.8931 39.6821 61.3856C40.5543 64.2521 41.3801 66.9675 42.233 69.7643L36.1853 69.7837C34.6578 69.7837 33.1343 69.7837 31.6107 69.8185C31.3161 69.8185 31.2231 69.8185 31.2231 69.4699C31.1921 64.0855 31.143 58.7038 31.0758 53.3246C31.0719 52.6815 31.258 52.5034 31.8937 52.5111Z" fill="#80CCE8"/>
</svg>
