<svg width="140" height="187" viewBox="0 0 140 187" fill="none" xmlns="http://www.w3.org/2000/svg">
<path d="M77.1739 69.7953C78.3641 68.5131 79.4999 67.2271 80.787 65.9914C81.1782 67.0759 81.3597 68.2248 81.322 69.3769C81.2572 72.3048 80.1806 75.12 78.2749 77.345L78.0462 77.6239C77.2398 78.5613 77.2437 78.5536 76.1388 78.0733C75.3888 77.7332 74.578 77.5474 73.7546 77.5271C71.5255 77.5038 69.2964 77.5271 67.0712 77.5038C65.865 77.5121 64.6777 77.8041 63.6054 78.356C63.5211 78.4214 63.4149 78.4519 63.3088 78.4411C63.2027 78.4302 63.1048 78.379 63.0355 78.2979C60 75.4082 58.1276 70.7288 59.4999 66.2587C59.5232 66.1851 59.5581 66.1153 59.5891 66.034C60.8762 67.1961 62.0431 68.4705 63.2991 69.7798C63.5317 68.393 64.1171 67.1806 64.6211 65.9371C64.9157 65.2128 64.9273 65.2166 65.4352 65.8364C66.3128 66.8623 67.0639 67.9898 67.6721 69.1949C68.2372 67.6954 68.9488 66.2552 69.7965 64.8951C70.0601 64.469 70.1842 64.3916 70.4711 64.8951C71.3547 66.2495 72.067 67.708 72.5916 69.2375C73.2507 67.9011 74.1733 66.8746 75.0378 65.7977C75.379 65.3716 75.5147 65.4839 75.6814 65.9178C76.1776 67.1922 76.7862 68.4279 77.1739 69.7953Z" fill="#BE986A"/>
<path d="M77.1739 117.298C78.3641 118.58 79.4999 119.862 80.787 121.102C81.1785 120.016 81.36 118.866 81.322 117.712C81.2563 114.786 80.1797 111.972 78.2749 109.748C78.1974 109.655 78.1237 109.558 78.0462 109.469C77.2398 108.532 77.2437 108.54 76.1388 109.016C75.3897 109.359 74.5785 109.546 73.7546 109.566C71.5255 109.589 69.2964 109.566 67.0712 109.589C65.865 109.581 64.6777 109.289 63.6054 108.737C63.5211 108.672 63.4149 108.641 63.3088 108.652C63.2027 108.663 63.1048 108.714 63.0355 108.795C60 111.685 58.1276 116.364 59.4999 120.834C59.5232 120.908 59.5581 120.978 59.5891 121.055C60.8762 119.893 62.0431 118.623 63.2991 117.313C63.5317 118.7 64.1171 119.913 64.6211 121.152C64.9157 121.88 64.9273 121.876 65.4352 121.257C66.3128 120.231 67.0639 119.103 67.6721 117.898C68.2372 119.398 68.9488 120.838 69.7965 122.198C70.0601 122.624 70.1842 122.702 70.4711 122.198C71.3547 120.844 72.067 119.385 72.5916 117.856C73.2507 119.192 74.1733 120.219 75.0378 121.295C75.379 121.718 75.5147 121.609 75.6814 121.175C76.1776 119.901 76.7862 118.665 77.1739 117.298Z" fill="#BE986A"/>
<path d="M27.4394 81.0715C34.5299 83.2834 41.446 82.865 48.7381 81.8153C41.9732 89.5935 40.1047 98.8593 39.1743 108.454C37.1506 106.905 35.1812 100.893 34.8788 95.3808C29.9166 96.1942 24.9932 95.8224 19.9031 95.0438C23.6273 92.2419 27.6251 89.8228 31.8356 87.8233C30.2772 85.6502 28.7342 83.601 27.4394 81.0715Z" fill="#BE986A"/>
<path d="M112.859 105.363C105.765 103.151 98.8486 103.569 91.5371 104.619C98.302 96.841 100.171 87.5752 101.101 77.9802C103.125 79.5297 105.094 85.5416 105.396 91.0538C110.359 90.2403 115.282 90.616 120.372 91.3908C116.648 94.1927 112.65 96.6118 108.44 98.6112C110.017 100.773 111.56 102.826 112.859 105.363Z" fill="#BE986A"/>
<path d="M104.307 139.839C107.517 139.931 110.587 140.009 113.658 140.121C114.181 140.141 114.344 140.04 114.305 139.478C114.193 137.793 114.15 136.1 114.084 134.412C114.034 133.017 113.991 131.623 113.945 130.178C123.532 135.341 133.328 131.255 136.767 124.658C136.519 124.553 136.305 124.7 136.092 124.762C134.622 125.245 133.123 125.634 131.603 125.924C126.273 126.767 120.813 125.969 115.949 123.635C115.806 123.59 115.684 123.494 115.605 123.366C115.527 123.238 115.498 123.086 115.522 122.938C115.662 119.064 115.522 115.222 115.522 111.363C115.522 110.899 115.398 110.771 114.937 110.778C105.381 110.864 95.8286 110.747 86.2764 110.709C84.842 110.709 84.8575 110.709 84.8497 112.177C84.7799 121.632 84.8265 131.088 84.8769 140.544C84.8769 141.45 84.8769 141.442 85.8073 141.431L96.9567 141.311C97.1777 141.311 97.3677 141.241 97.5305 141.555C99.7941 145.825 100.775 150.658 100.357 155.473C100.105 157.991 99.4969 160.461 98.5501 162.809C100.799 161.818 103.881 158.661 105.09 155.964C107.54 150.507 107.35 145.134 104.307 139.839ZM108.102 134.745C102.716 134.675 97.3302 134.627 91.9441 134.601C91.6456 134.601 91.5293 134.574 91.5332 134.241C91.5875 130.697 91.6262 127.156 91.6689 123.573C94.5338 124.313 97.2824 125.359 100.318 125.87C99.4456 123.004 98.6198 120.288 97.767 117.491L103.815 117.472C105.338 117.472 106.866 117.472 108.389 117.437C108.684 117.437 108.777 117.437 108.777 117.786C108.813 123.17 108.862 128.552 108.924 133.931C108.936 134.582 108.742 134.756 108.102 134.749V134.745Z" fill="#BE986A"/>
<path d="M35.6929 47.4171C32.483 47.3242 29.4126 47.2467 26.3423 47.1344C25.8189 47.115 25.6561 47.2157 25.6949 47.7774C25.8073 49.4624 25.8499 51.1552 25.912 52.8441C25.9662 54.2386 26.0089 55.6331 26.0554 57.078C16.4683 51.9144 6.67181 56.0011 3.23315 62.5979C3.48126 62.7025 3.69448 62.5553 3.9077 62.4933C5.37751 62.0098 6.87705 61.6216 8.39695 61.3313C13.7235 60.4984 19.1777 61.3036 24.0356 63.6399C24.1788 63.6854 24.3007 63.781 24.3791 63.9091C24.4574 64.0371 24.4869 64.1892 24.4621 64.3372C24.3225 68.2108 24.4621 72.0535 24.4621 75.9116C24.4621 76.3765 24.59 76.5043 25.0513 76.4966C34.6036 76.4113 44.1597 76.5275 53.7119 76.5663C55.1463 76.5663 55.1269 76.5663 55.1386 75.0982C55.2083 65.6426 55.1618 56.1871 55.1075 46.7315C55.1075 45.8251 55.1075 45.8328 54.181 45.8444L43.0316 45.9645C42.8106 45.9645 42.6206 46.0343 42.4578 45.7205C40.1925 41.4505 39.211 36.6171 39.6317 31.8025C39.8832 29.2838 40.4914 26.8136 41.4382 24.4658C39.1859 25.4575 36.1 28.6145 34.8905 31.3105C32.4598 36.753 32.6497 42.1257 35.6929 47.4171ZM31.8937 52.511C37.2824 52.5807 42.6684 52.6285 48.0519 52.6543C48.3543 52.6543 48.4706 52.6814 48.4667 53.0146C48.4125 56.5589 48.3737 60.0994 48.331 63.6826C45.4661 62.9427 42.7176 61.8929 39.6821 61.3855C40.5543 64.252 41.3801 66.9674 42.233 69.7642L36.1853 69.7835C34.6578 69.7835 33.1343 69.7835 31.6107 69.8184C31.3161 69.8184 31.2231 69.8184 31.2231 69.4698C31.1921 64.0854 31.143 58.7036 31.0758 53.3244C31.0719 52.6814 31.258 52.5032 31.8937 52.511Z" fill="#BE986A"/>
</svg>
