<svg width="85" height="114" viewBox="0 0 85 114" fill="none" xmlns="http://www.w3.org/2000/svg">
<path d="M46.8556 42.549C47.5782 41.7674 48.2678 40.9834 49.0492 40.2301C49.2867 40.8912 49.397 41.5916 49.3741 42.294C49.3347 44.0789 48.6811 45.7951 47.524 47.1515L47.3852 47.3216C46.8956 47.893 46.8979 47.8883 46.2271 47.5955C45.7718 47.3882 45.2795 47.2749 44.7796 47.2625C43.4262 47.2484 42.0728 47.2625 40.7218 47.2484C39.9894 47.2534 39.2686 47.4314 38.6176 47.7679C38.5664 47.8078 38.5019 47.8263 38.4375 47.8197C38.373 47.8131 38.3136 47.7819 38.2716 47.7325C36.4286 45.9708 35.2917 43.1182 36.125 40.393C36.1391 40.3481 36.1603 40.3056 36.1791 40.256C36.9605 40.9645 37.669 41.7414 38.4316 42.5396C38.5728 41.6942 38.9282 40.955 39.2342 40.197C39.4131 39.7554 39.4202 39.7578 39.7285 40.1356C40.2614 40.761 40.7173 41.4484 41.0866 42.183C41.4297 41.2689 41.8618 40.3909 42.3764 39.5618C42.5365 39.302 42.6118 39.2548 42.786 39.5618C43.3225 40.3874 43.755 41.2766 44.0735 42.209C44.4736 41.3943 45.0338 40.7685 45.5587 40.112C45.7658 39.8522 45.8482 39.9207 45.9494 40.1852C46.2507 40.9621 46.6202 41.7154 46.8556 42.549Z" fill="#BE986A"/>
<path d="M46.8556 71.5076C47.5782 72.2892 48.2678 73.0709 49.0492 73.8265C49.2869 73.1646 49.3972 72.4634 49.3741 71.7603C49.3342 69.9762 48.6806 68.2609 47.524 66.9051C47.477 66.8484 47.4322 66.7894 47.3852 66.7351C46.8956 66.1636 46.8979 66.1683 46.2271 66.4588C45.7723 66.6679 45.2798 66.782 44.7796 66.7941C43.4262 66.8083 42.0728 66.7941 40.7218 66.8083C39.9894 66.8032 39.2686 66.6252 38.6176 66.2887C38.5664 66.2489 38.5019 66.2303 38.4375 66.2369C38.373 66.2435 38.3136 66.2747 38.2716 66.3242C36.4286 68.0858 35.2917 70.9385 36.125 73.6636C36.1391 73.7085 36.1603 73.751 36.1791 73.7982C36.9605 73.0898 37.669 72.3152 38.4316 71.517C38.5728 72.3624 38.9282 73.1016 39.2342 73.8572C39.4131 74.3012 39.4202 74.2988 39.7285 73.921C40.2614 73.2956 40.7173 72.6082 41.0866 71.8736C41.4297 72.7877 41.8618 73.6657 42.3764 74.4948C42.5365 74.7546 42.6118 74.8018 42.786 74.4948C43.3225 73.6692 43.755 72.78 44.0735 71.8476C44.4736 72.6623 45.0338 73.2881 45.5587 73.9446C45.7658 74.202 45.8482 74.1359 45.9494 73.8714C46.2507 73.0945 46.6202 72.3412 46.8556 71.5076Z" fill="#BE986A"/>
<path d="M16.6596 49.4233C20.9646 50.7717 25.1636 50.5167 29.591 49.8767C25.4837 54.6186 24.3492 60.2672 23.7843 66.1166C22.5557 65.172 21.36 61.507 21.1764 58.1466C18.1637 58.6425 15.1744 58.4158 12.084 57.9412C14.3451 56.2331 16.7723 54.7583 19.3287 53.5394C18.3825 52.2146 17.4458 50.9654 16.6596 49.4233Z" fill="#BE986A"/>
<path d="M68.5215 64.2321C64.2142 62.8837 60.0152 63.1387 55.576 63.7787C59.6833 59.0368 60.8178 53.3882 61.3827 47.5388C62.6113 48.4834 63.807 52.1484 63.9906 55.5088C67.0034 55.0129 69.9926 55.2419 73.083 55.7142C70.8219 57.4223 68.3947 58.8971 65.8383 60.116C66.7962 61.4337 67.733 62.6853 68.5215 64.2321Z" fill="#BE986A"/>
<path d="M63.3292 85.249C65.2781 85.3057 67.1422 85.3529 69.0064 85.4214C69.3241 85.4332 69.423 85.3718 69.3995 85.0294C69.3312 84.0021 69.3053 82.9702 69.2653 81.9406C69.2347 81.0904 69.2088 80.2403 69.1806 79.3595C75.0013 82.5073 80.9492 80.016 83.0369 75.9944C82.8863 75.9306 82.7568 76.0204 82.6274 76.0581C81.7349 76.3526 80.8245 76.5893 79.9018 76.7666C76.6659 77.2802 73.3509 76.7935 70.3974 75.371C70.3105 75.3432 70.2365 75.285 70.1889 75.2069C70.1414 75.1288 70.1235 75.0361 70.1385 74.9459C70.2233 72.5844 70.1385 70.2418 70.1385 67.8898C70.1385 67.6064 70.0632 67.5285 69.7831 67.5332C63.9812 67.5852 58.1816 67.5143 52.382 67.4907C51.5112 67.4907 51.5206 67.4907 51.5159 68.3857C51.4735 74.1501 51.5018 79.9144 51.5324 85.6788C51.5324 86.2314 51.5324 86.2266 52.0972 86.2195L58.8666 86.1463C59.0007 86.1463 59.116 86.1038 59.2149 86.2951C60.5893 88.8986 61.1851 91.8449 60.9308 94.7799C60.7781 96.3153 60.4088 97.8213 59.8339 99.2525C61.1991 98.648 63.0703 96.7234 63.8047 95.0798C65.2922 91.7525 65.1769 88.4771 63.3292 85.249ZM65.6335 82.1437C62.3634 82.1011 59.0933 82.072 55.8232 82.0563C55.642 82.0563 55.5713 82.0397 55.5737 81.8367C55.6066 79.6759 55.6302 77.5175 55.6561 75.3332C57.3955 75.7842 59.0643 76.4218 60.9072 76.7335C60.3776 74.986 59.8763 73.3306 59.3585 71.6257L63.0303 71.6139C63.9553 71.6139 64.8827 71.6139 65.8077 71.5926C65.9866 71.5926 66.0431 71.5926 66.0431 71.8051C66.065 75.0876 66.0948 78.3684 66.1325 81.6477C66.1396 82.0445 66.0219 82.1507 65.6335 82.146V82.1437Z" fill="#BE986A"/>
<path d="M21.6707 28.9068C19.7219 28.8501 17.8577 28.8028 15.9936 28.7344C15.6758 28.7226 15.5769 28.784 15.6005 29.1264C15.6687 30.1536 15.6946 31.1856 15.7323 32.2152C15.7652 33.0653 15.7911 33.9154 15.8194 34.7963C9.99862 31.6484 4.05077 34.1398 1.96301 38.1614C2.11365 38.2251 2.24311 38.1354 2.37256 38.0976C3.26494 37.8028 4.17538 37.5662 5.09817 37.3892C8.33217 36.8814 11.6436 37.3723 14.5931 38.7966C14.68 38.8243 14.754 38.8826 14.8016 38.9607C14.8492 39.0387 14.8671 39.1314 14.852 39.2217C14.7673 41.5831 14.852 43.9257 14.852 46.2777C14.852 46.5611 14.9297 46.639 15.2098 46.6343C21.0093 46.5824 26.8113 46.6532 32.6108 46.6768C33.4817 46.6768 33.4699 46.6768 33.477 45.7818C33.5194 40.0175 33.4911 34.2531 33.4582 28.4888C33.4582 27.9362 33.4582 27.9409 32.8956 27.948L26.1263 28.0212C25.9922 28.0212 25.8768 28.0637 25.778 27.8724C24.4026 25.2693 23.8067 22.3227 24.0621 19.3877C24.2148 17.8522 24.5841 16.3463 25.159 14.915C23.7914 15.5196 21.9179 17.4442 21.1835 19.0878C19.7077 22.4056 19.8231 25.681 21.6707 28.9068ZM19.3641 32.0121C22.6358 32.0546 25.9059 32.0837 29.1744 32.0995C29.358 32.0995 29.4286 32.116 29.4263 32.3191C29.3933 34.4798 29.3698 36.6382 29.3439 38.8226C27.6045 38.3715 25.9357 37.7316 24.0927 37.4222C24.6223 39.1697 25.1236 40.8251 25.6415 42.5301L21.9697 42.5419C21.0423 42.5419 20.1173 42.5419 19.1923 42.5631C19.0134 42.5631 18.9569 42.5631 18.9569 42.3506C18.9381 39.0682 18.9083 35.7873 18.8675 32.508C18.8651 32.116 18.9781 32.0074 19.3641 32.0121Z" fill="#BE986A"/>
</svg>
