<svg width="85" height="114" viewBox="0 0 85 114" fill="none" xmlns="http://www.w3.org/2000/svg">
<path d="M46.8555 42.549C47.5781 41.7674 48.2677 40.9834 49.0491 40.2301C49.2866 40.8912 49.3968 41.5916 49.3739 42.294C49.3346 44.0789 48.6809 45.7951 47.5239 47.1515L47.385 47.3216C46.8955 47.893 46.8978 47.8883 46.227 47.5955C45.7717 47.3882 45.2794 47.2749 44.7795 47.2625C43.4261 47.2484 42.0727 47.2625 40.7217 47.2484C39.9893 47.2534 39.2685 47.4314 38.6174 47.7679C38.5663 47.8078 38.5018 47.8263 38.4374 47.8197C38.3729 47.8131 38.3135 47.7819 38.2714 47.7325C36.4285 45.9708 35.2916 43.1182 36.1248 40.393C36.139 40.3481 36.1601 40.3056 36.179 40.256C36.9604 40.9645 37.6689 41.7414 38.4315 42.5396C38.5727 41.6942 38.9281 40.955 39.2341 40.197C39.413 39.7554 39.42 39.7578 39.7284 40.1356C40.2612 40.761 40.7172 41.4484 41.0865 42.183C41.4296 41.2689 41.8616 40.3909 42.3763 39.5618C42.5364 39.302 42.6117 39.2548 42.7859 39.5618C43.3224 40.3874 43.7549 41.2766 44.0734 42.209C44.4735 41.3943 45.0337 40.7685 45.5586 40.112C45.7657 39.8522 45.8481 39.9207 45.9493 40.1852C46.2506 40.9621 46.6201 41.7154 46.8555 42.549Z" fill="#9AC552"/>
<path d="M46.8555 71.5077C47.5781 72.2894 48.2677 73.071 49.0491 73.8267C49.2868 73.1648 49.397 72.4636 49.3739 71.7604C49.334 69.9763 48.6804 68.261 47.5239 66.9052C47.4768 66.8485 47.4321 66.7895 47.385 66.7352C46.8955 66.1637 46.8978 66.1684 46.227 66.4589C45.7722 66.6681 45.2797 66.7822 44.7795 66.7942C43.4261 66.8084 42.0727 66.7942 40.7217 66.8084C39.9893 66.8033 39.2685 66.6253 38.6174 66.2889C38.5663 66.249 38.5018 66.2304 38.4374 66.237C38.3729 66.2436 38.3135 66.2749 38.2714 66.3243C36.4285 68.0859 35.2916 70.9386 36.1248 73.6637C36.139 73.7086 36.1601 73.7511 36.179 73.7983C36.9604 73.0899 37.6689 72.3153 38.4315 71.5172C38.5727 72.3626 38.9281 73.1017 39.2341 73.8574C39.413 74.3013 39.42 74.299 39.7284 73.9211C40.2612 73.2957 40.7172 72.6083 41.0865 71.8737C41.4296 72.7878 41.8616 73.6658 42.3763 74.495C42.5364 74.7547 42.6117 74.802 42.7859 74.495C43.3224 73.6693 43.7549 72.7801 44.0734 71.8478C44.4735 72.6625 45.0337 73.2883 45.5586 73.9447C45.7657 74.2021 45.8481 74.136 45.9493 73.8715C46.2506 73.0946 46.6201 72.3413 46.8555 71.5077Z" fill="#9AC552"/>
<path d="M16.6596 49.4232C20.9646 50.7716 25.1636 50.5166 29.591 49.8766C25.4837 54.6185 24.3492 60.2671 23.7843 66.1165C22.5557 65.1719 21.36 61.5069 21.1764 58.1465C18.1637 58.6424 15.1744 58.4157 12.084 57.941C14.3451 56.2329 16.7723 54.7582 19.3287 53.5393C18.3825 52.2145 17.4458 50.9653 16.6596 49.4232Z" fill="#9AC552"/>
<path d="M68.5216 64.2321C64.2143 62.8837 60.0153 63.1387 55.5762 63.7787C59.6834 59.0368 60.8179 53.3882 61.3828 47.5388C62.6115 48.4834 63.8071 52.1484 63.9907 55.5088C67.0035 55.0129 69.9927 55.2419 73.0832 55.7142C70.822 57.4223 68.3948 58.8971 65.8384 60.116C66.7964 61.4337 67.7332 62.6853 68.5216 64.2321Z" fill="#9AC552"/>
<path d="M63.3292 85.2491C65.2781 85.3058 67.1422 85.353 69.0064 85.4215C69.3241 85.4333 69.423 85.3719 69.3995 85.0295C69.3312 84.0023 69.3053 82.9703 69.2653 81.9407C69.2347 81.0906 69.2088 80.2404 69.1806 79.3596C75.0013 82.5074 80.9492 80.0161 83.0369 75.9945C82.8863 75.9307 82.7568 76.0205 82.6274 76.0583C81.7349 76.3528 80.8245 76.5894 79.9018 76.7667C76.6659 77.2804 73.3509 76.7936 70.3974 75.3711C70.3105 75.3433 70.2365 75.2851 70.1889 75.207C70.1414 75.1289 70.1235 75.0363 70.1385 74.946C70.2233 72.5845 70.1385 70.242 70.1385 67.8899C70.1385 67.6066 70.0632 67.5286 69.7831 67.5334C63.9812 67.5853 58.1816 67.5145 52.382 67.4908C51.5112 67.4908 51.5206 67.4908 51.5159 68.3858C51.4735 74.1502 51.5018 79.9145 51.5324 85.6789C51.5324 86.2315 51.5324 86.2268 52.0972 86.2197L58.8666 86.1465C59.0007 86.1465 59.116 86.104 59.2149 86.2952C60.5893 88.8987 61.1851 91.845 60.9308 94.78C60.7781 96.3155 60.4088 97.8214 59.8339 99.2526C61.1991 98.6481 63.0703 96.7235 63.8047 95.0799C65.2922 91.7526 65.1769 88.4772 63.3292 85.2491ZM65.6335 82.1438C62.3634 82.1013 59.0933 82.0721 55.8232 82.0564C55.642 82.0564 55.5713 82.0399 55.5737 81.8368C55.6066 79.676 55.6302 77.5177 55.6561 75.3333C57.3955 75.7843 59.0643 76.4219 60.9072 76.7336C60.3776 74.9862 59.8763 73.3308 59.3585 71.6258L63.0303 71.614C63.9553 71.614 64.8827 71.614 65.8077 71.5927C65.9866 71.5927 66.0431 71.5927 66.0431 71.8053C66.065 75.0877 66.0948 78.3686 66.1325 81.6479C66.1396 82.0446 66.0219 82.1509 65.6335 82.1461V82.1438Z" fill="#9AC552"/>
<path d="M21.6706 28.9068C19.7217 28.8501 17.8576 28.8028 15.9934 28.7344C15.6757 28.7226 15.5768 28.784 15.6004 29.1264C15.6686 30.1536 15.6945 31.1856 15.7322 32.2152C15.7651 33.0653 15.791 33.9154 15.8193 34.7963C9.9985 31.6484 4.05064 34.1398 1.96289 38.1614C2.11353 38.2251 2.24298 38.1354 2.37244 38.0976C3.26482 37.8028 4.17525 37.5662 5.09805 37.3892C8.33205 36.8814 11.6435 37.3723 14.593 38.7966C14.6799 38.8243 14.7539 38.8826 14.8015 38.9607C14.849 39.0387 14.8669 39.1314 14.8519 39.2217C14.7671 41.5831 14.8519 43.9257 14.8519 46.2777C14.8519 46.5611 14.9296 46.639 15.2096 46.6343C21.0092 46.5824 26.8111 46.6532 32.6107 46.6768C33.4816 46.6768 33.4698 46.6768 33.4769 45.7818C33.5193 40.0175 33.491 34.2531 33.4581 28.4888C33.4581 27.9362 33.4581 27.9409 32.8955 27.948L26.1262 28.0212C25.9921 28.0212 25.8767 28.0637 25.7779 27.8724C24.4025 25.2693 23.8066 22.3227 24.062 19.3877C24.2147 17.8522 24.584 16.3463 25.1588 14.915C23.7913 15.5196 21.9178 17.4442 21.1834 19.0878C19.7076 22.4056 19.8229 25.681 21.6706 28.9068ZM19.364 32.0121C22.6356 32.0546 25.9057 32.0837 29.1743 32.0995C29.3579 32.0995 29.4285 32.116 29.4261 32.3191C29.3932 34.4798 29.3696 36.6382 29.3438 38.8226C27.6043 38.3715 25.9356 37.7316 24.0926 37.4222C24.6222 39.1697 25.1235 40.8251 25.6413 42.5301L21.9695 42.5419C21.0422 42.5419 20.1172 42.5419 19.1921 42.5631C19.0133 42.5631 18.9568 42.5631 18.9568 42.3506C18.9379 39.0682 18.9081 35.7873 18.8673 32.508C18.865 32.116 18.978 32.0074 19.364 32.0121Z" fill="#9AC552"/>
</svg>
