<svg id="Layer_1" data-name="Layer 1" xmlns="http://www.w3.org/2000/svg" viewBox="0 0 361.13 482.75"><defs><style>.cls-1{fill:#aa5c9d;}</style></defs><path class="cls-1" d="M199.07,180.18c3.07-3.31,6-6.63,9.32-9.82a23.51,23.51,0,0,1,1.38,8.74,32.75,32.75,0,0,1-7.86,20.57l-.59.72c-2.08,2.42-2.07,2.4-4.92,1.16a15.83,15.83,0,0,0-6.15-1.41c-5.75-.06-11.5,0-17.24-.06a19.82,19.82,0,0,0-8.94,2.2,1.07,1.07,0,0,1-1.47-.15c-7.83-7.46-12.66-19.54-9.12-31.08.06-.19.15-.37.23-.58,3.32,3,6.33,6.29,9.57,9.67.6-3.58,2.11-6.71,3.41-9.92.76-1.87.79-1.86,2.1-.26a43.46,43.46,0,0,1,5.77,8.67,63,63,0,0,1,5.48-11.1c.68-1.1,1-1.3,1.74,0a50.51,50.51,0,0,1,5.47,11.21c1.7-3.45,4.08-6.1,6.31-8.88.88-1.1,1.23-.81,1.66.31C196.5,173.46,198.07,176.65,199.07,180.18Z"/><path class="cls-1" d="M199.07,302.81c3.07,3.31,6,6.62,9.32,9.82a23.53,23.53,0,0,0,1.38-8.75,32.75,32.75,0,0,0-7.86-20.56c-.2-.24-.39-.49-.59-.72-2.08-2.42-2.07-2.4-4.92-1.17a15.66,15.66,0,0,1-6.15,1.42c-5.75.06-11.5,0-17.24.06a19.82,19.82,0,0,1-8.94-2.2,1.07,1.07,0,0,0-1.47.15c-7.83,7.46-12.66,19.54-9.12,31.08.06.19.15.37.23.57,3.32-3,6.33-6.28,9.57-9.66.6,3.58,2.11,6.71,3.41,9.91.76,1.88.79,1.87,2.1.27a43.46,43.46,0,0,0,5.77-8.67,63,63,0,0,0,5.48,11.1c.68,1.1,1,1.3,1.74,0a50.51,50.51,0,0,0,5.47-11.21c1.7,3.45,4.08,6.1,6.31,8.88.88,1.09,1.23.81,1.66-.31C196.5,309.53,198.07,306.34,199.07,302.81Z"/><path class="cls-1" d="M70.78,209.29c18.29,5.71,36.13,4.63,54.94,1.92-17.45,20.08-22.27,44-24.67,68.77-5.22-4-10.3-19.52-11.08-33.75-12.8,2.1-25.5,1.14-38.63-.87a178.68,178.68,0,0,1,30.78-18.64C78.1,221.11,74.12,215.82,70.78,209.29Z"/><path class="cls-1" d="M291.12,272c-18.3-5.71-36.14-4.63-55-1.92,17.45-20.08,22.27-44,24.67-68.77,5.22,4,10.3,19.52,11.08,33.75,12.8-2.1,25.5-1.13,38.63.87a178.68,178.68,0,0,1-30.78,18.64C283.79,260.15,287.77,265.45,291.12,272Z"/><path class="cls-1" d="M269.06,361c8.28.24,16.2.44,24.12.73,1.35.05,1.77-.21,1.67-1.66-.29-4.35-.4-8.72-.57-13.08-.13-3.6-.24-7.2-.36-10.93,24.73,13.33,50,2.78,58.87-14.25-.64-.27-1.19.11-1.74.27a93.12,93.12,0,0,1-11.58,3,68.55,68.55,0,0,1-40.38-5.91,1.61,1.61,0,0,1-1.1-1.8c.36-10,0-19.92,0-29.88,0-1.2-.32-1.53-1.51-1.51-24.65.22-49.29-.08-73.93-.18-3.7,0-3.66,0-3.68,3.79-.18,24.41-.06,48.82.07,73.23,0,2.34,0,2.32,2.4,2.29l28.76-.31c.57,0,1.06-.18,1.48.63a64.78,64.78,0,0,1,7.29,35.93,69,69,0,0,1-4.66,18.94c5.8-2.56,13.75-10.71,16.87-17.67C277.4,388.54,276.91,374.67,269.06,361Zm9.79-13.15q-20.84-.27-41.68-.37c-.77,0-1.07-.07-1.06-.93.14-9.15.24-18.29.35-27.54,7.39,1.91,14.48,4.61,22.31,5.93-2.25-7.4-4.38-14.41-6.58-21.63l15.6-.05c3.93,0,7.87,0,11.8-.09.76,0,1,0,1,.9q.14,20.85.38,41.68C281,347.43,280.5,347.88,278.85,347.86Z"/><path class="cls-1" d="M92.07,122.41c-8.28-.24-16.2-.44-24.12-.73-1.35-.05-1.77.21-1.67,1.66.29,4.35.4,8.72.56,13.08.14,3.6.25,7.2.37,10.93-24.73-13.33-50-2.78-58.87,14.25.64.27,1.19-.11,1.74-.27a92.68,92.68,0,0,1,11.58-3A68.57,68.57,0,0,1,62,164.29a1.61,1.61,0,0,1,1.1,1.8c-.36,10,0,19.92,0,29.88,0,1.2.33,1.53,1.52,1.51,24.64-.22,49.29.08,73.93.18,3.7,0,3.65,0,3.68-3.79.18-24.41.06-48.82-.08-73.23,0-2.34,0-2.32-2.39-2.29l-28.76.31c-.57,0-1.06.18-1.48-.63a64.7,64.7,0,0,1-7.29-35.93,69,69,0,0,1,4.66-18.94C101.08,65.72,93.12,73.87,90,80.83,83.73,94.88,84.22,108.75,92.07,122.41Zm-9.8,13.15q20.85.27,41.68.37c.78,0,1.08.07,1.07.93-.14,9.15-.24,18.29-.35,27.54-7.39-1.91-14.48-4.62-22.31-5.93,2.25,7.4,4.38,14.41,6.58,21.63l-15.6.05c-3.94,0-7.87,0-11.8.09-.76,0-1,0-1-.9q-.12-20.85-.38-41.68C80.15,136,80.63,135.54,82.27,135.56Z"/></svg>