<svg id="Layer_1" data-name="Layer 1" xmlns="http://www.w3.org/2000/svg" viewBox="0 0 566.93 566.93"><defs><style>.cls-1{fill:#80cce8;}</style></defs><path class="cls-1" d="M321.4,144.45c-.36.05-.71.16-1.07.21C311.73,146,305,150.53,299,156.6c-1.34,1.37-2.79,2.63-4.26,3.86-.45.38-1.09.91-1.71.56-.78-.44-.17-1.13,0-1.71.84-3.25,1.52-6.57,2.58-9.75,5-14.91,7.22-30.11,5.31-45.81-1.68-13.76-6-26.6-13.7-38.18-4-6-4.38-6.17-8.36-.13-13.1,19.9-16.77,41.83-13.41,65.15,1.24,8.6,4.27,16.74,6.51,25.08.49,1.82,1.43,3.67.22,6A41.37,41.37,0,0,1,268.6,158c-6.54-6.58-13.83-11.82-23.33-13.32-5.27-.83-6.34.09-5.27,5.35,0,.18.14.34.17.52,2,12.54,8.68,22.34,18,30.45,9.9,8.61,19.5,17.39,24.75,30,4.67-10,11.5-18,19.23-25.36,4.77-4.53,9.86-8.73,13.95-14,5.23-6.68,8.14-14.37,9.88-22.54C326.82,145.26,325.4,144,321.4,144.45Z"/><path class="cls-1" d="M376.25,371.83a12.25,12.25,0,0,0-3.59-1.16c-12.55-.95-24.82-.18-36.13,6.15h0l-7.27,3.85c1.68-2.94,3-5.33,4.39-7.64,7.38-12,8.55-25.14,6.27-38.68-3.65-21.59-14-40.39-25.29-58.68A373.74,373.74,0,0,0,288,237.52c-3.9-4.85-4.7-5.05-8.63-.22-17.62,21.64-33.42,44.47-44.76,70.13a2.64,2.64,0,0,0-.09.76h0c-4.35,8.21-6.64,17.06-8.13,26.16-2,12.23-1.63,24.15,4.58,35.31h0c1.73,3.45,3.45,6.9,5.45,10.91-6.45-3.72-12.15-7.54-19-8.85-8.2-1.56-16.49-1.43-24.78-1.18-1.46,0-3.21.32-3.92,1.89s.49,2.77,1.52,3.95c7.54,8.7,10,19.2,10.53,30.33.38,8.78-.71,17.52-.09,26.35,1.65,23.19,12,41.41,30.17,55.44,3.38,2.61,7,5,11,7.83A98.42,98.42,0,0,0,283.22,506c22.45,0,41-9.31,41-9.31a114.49,114.49,0,0,0,17.93-13.85c13.86-13.21,22.27-29,23.65-48.39a187.85,187.85,0,0,0,.16-22.13c-.52-11.23,1.19-22,7.15-31.86,1.34-1.69,2.64-3.4,4-5.05S378.1,372.59,376.25,371.83ZM343.19,413.9c-2.42,11.4-6.48,22.13-13.78,31.44-5.7,7.29-12.79,13.15-19.45,19.47-10.78,10.23-20.3,21.43-26.82,35.37-7.32-17.65-20.71-29.89-34.51-41.9-13-11.31-22.37-25-25.12-42.46,0-.25-.18-.48-.23-.73-1.49-7.33,0-8.62,7.35-7.46,13.25,2.09,23.41,9.4,32.53,18.57,1.67,1.68,3,3.68,4.95,5.21,1.69-3.31.38-5.88-.31-8.42-3.12-11.64-7.35-23-9.07-35-4.69-32.52.43-63.11,18.7-90.86,5.54-8.42,6-8.23,11.66.19,10.79,16.15,16.75,34.05,19.1,53.24,2.67,21.89-.46,43.09-7.4,63.88-1.49,4.44-2.43,9.06-3.6,13.61-.2.79-1.05,1.77.05,2.38.85.48,1.75-.26,2.37-.78,2.05-1.73,4.08-3.48,5.95-5.39,8.29-8.46,17.75-14.8,29.74-16.64.5-.08,1-.24,1.5-.3C342.37,406.64,344.35,408.46,343.19,413.9Z"/></svg>