<svg id="Layer_1" data-name="Layer 1" xmlns="http://www.w3.org/2000/svg" viewBox="0 0 566.93 566.93"><defs><style>.cls-1{fill:#233565;}</style></defs><path class="cls-1" d="M302,222.27c3.07-3.31,5.95-6.62,9.32-9.82a23.53,23.53,0,0,1,1.38,8.75,32.75,32.75,0,0,1-7.86,20.56c-.2.24-.39.49-.59.72-2.08,2.42-2.07,2.4-4.92,1.17a16,16,0,0,0-6.15-1.42c-5.75-.06-11.5,0-17.24-.06a20,20,0,0,0-8.94,2.2,1.07,1.07,0,0,1-1.47-.15c-7.83-7.46-12.66-19.54-9.12-31.08.06-.19.15-.37.23-.57,3.32,3,6.34,6.28,9.57,9.66.6-3.58,2.11-6.71,3.41-9.91.76-1.88.79-1.87,2.1-.27a43.46,43.46,0,0,1,5.77,8.67,63,63,0,0,1,5.48-11.1c.68-1.09,1-1.3,1.74,0,2.08,3.51,4.19,7,5.47,11.2,1.7-3.45,4.08-6.1,6.31-8.87.88-1.1,1.23-.82,1.66.3C299.4,215.55,301,218.74,302,222.27Z"/><path class="cls-1" d="M302,344.9c3.07,3.31,5.95,6.63,9.32,9.82a23.51,23.51,0,0,0,1.38-8.74,32.75,32.75,0,0,0-7.86-20.57l-.59-.72c-2.08-2.42-2.07-2.4-4.92-1.16a15.83,15.83,0,0,1-6.15,1.41c-5.75.06-11.5,0-17.24.06a19.82,19.82,0,0,1-8.94-2.2,1.07,1.07,0,0,0-1.47.15c-7.83,7.46-12.66,19.54-9.12,31.08.06.19.15.37.23.58,3.32-3,6.34-6.29,9.57-9.67.6,3.58,2.11,6.71,3.41,9.92.76,1.87.79,1.86,2.1.26a43.46,43.46,0,0,0,5.77-8.67,63,63,0,0,0,5.48,11.1c.68,1.1,1,1.3,1.74,0a50.51,50.51,0,0,0,5.47-11.21c1.7,3.45,4.08,6.1,6.31,8.88.88,1.1,1.23.81,1.66-.31C299.4,351.62,301,348.43,302,344.9Z"/><path class="cls-1" d="M173.68,251.39c18.29,5.7,36.13,4.62,54.94,1.91-17.45,20.09-22.27,44-24.67,68.77-5.22-4-10.3-19.52-11.08-33.75-12.8,2.11-25.5,1.14-38.63-.87A179.69,179.69,0,0,1,185,268.81C181,263.2,177,257.91,173.68,251.39Z"/><path class="cls-1" d="M394,314.06c-18.3-5.71-36.13-4.62-54.95-1.92,17.45-20.08,22.27-44,24.67-68.77,5.22,4,10.3,19.52,11.08,33.75,12.8-2.1,25.5-1.13,38.63.87a178,178,0,0,1-30.78,18.64C386.69,302.24,390.67,307.54,394,314.06Z"/><path class="cls-1" d="M372,403.1c8.28.24,16.2.44,24.12.73,1.35.05,1.77-.21,1.67-1.66-.29-4.35-.4-8.71-.57-13.08-.13-3.59-.24-7.19-.36-10.92,24.73,13.32,50,2.77,58.87-14.26-.64-.27-1.19.11-1.74.27a93.12,93.12,0,0,1-11.58,2.95A68.57,68.57,0,0,1,402,361.22a1.61,1.61,0,0,1-1.1-1.8c.36-10,0-19.92,0-29.88,0-1.2-.32-1.52-1.51-1.51-24.65.22-49.29-.08-73.93-.18-3.7,0-3.65,0-3.68,3.79-.18,24.41-.06,48.82.08,73.23,0,2.34,0,2.32,2.39,2.29l28.76-.31c.57,0,1.06-.18,1.48.63a64.8,64.8,0,0,1,7.29,35.93,69.15,69.15,0,0,1-4.66,18.95c5.8-2.57,13.75-10.71,16.87-17.68C380.3,430.63,379.81,416.76,372,403.1ZM381.75,390q-20.83-.27-41.67-.37c-.78,0-1.08-.06-1.07-.93.14-9.15.24-18.29.35-27.54,7.39,1.91,14.48,4.62,22.31,5.93l-6.58-21.63,15.6-.05c3.93,0,7.87,0,11.8-.09.76,0,1,0,1,.9q.13,20.85.39,41.69C383.88,389.52,383.4,390,381.75,390Z"/><path class="cls-1" d="M195,164.5c-8.28-.24-16.2-.44-24.12-.73-1.35-.05-1.77.21-1.67,1.66.29,4.35.4,8.72.57,13.08.13,3.6.24,7.2.36,10.93-24.73-13.33-50-2.78-58.87,14.25.64.27,1.19-.11,1.74-.26a91.44,91.44,0,0,1,11.58-3,68.57,68.57,0,0,1,40.38,5.91,1.61,1.61,0,0,1,1.1,1.8c-.36,10,0,19.92,0,29.88,0,1.2.33,1.53,1.52,1.52,24.65-.23,49.29.08,73.93.17,3.7,0,3.65,0,3.68-3.79.18-24.41.06-48.82-.08-73.23,0-2.34,0-2.32-2.39-2.29l-28.76.31c-.57,0-1.06.18-1.48-.62a64.75,64.75,0,0,1-7.29-35.94,69,69,0,0,1,4.66-18.94C204,107.81,196,116,192.91,122.92,186.63,137,187.12,150.84,195,164.5Zm-9.8,13.15q20.85.27,41.68.37c.78,0,1.08.07,1.07.93-.14,9.15-.24,18.3-.35,27.54-7.39-1.91-14.48-4.61-22.31-5.93,2.25,7.4,4.38,14.41,6.58,21.63l-15.6.05c-3.93,0-7.87,0-11.8.09-.76,0-1,0-1-.9q-.12-20.84-.38-41.68C183.05,178.08,183.53,177.63,185.17,177.65Z"/></svg>