<svg width="120" height="180" viewBox="0 0 120 180" fill="none" xmlns="http://www.w3.org/2000/svg">
<path d="M17.342 135.511C13.513 128.465 12.1272 121.277 12.9862 113.629C13.5315 108.637 14.9827 103.787 17.269 99.3139C20.1823 93.6017 24.4044 89.0578 29.6232 85.3346C35.5389 81.1142 42.107 78.4622 49.1815 77.0635C56.789 75.5368 64.6405 75.7038 72.1758 77.5526C77.2311 78.7472 82.1372 80.5004 86.8031 82.7797C93.4177 86.0876 99.3082 90.673 104.133 96.2698C107.69 100.312 110.186 104.885 112.087 109.849C112.241 110.253 112.459 110.605 112.107 111.147C110.989 109.74 109.891 108.373 108.809 106.995C101.921 98.2466 93.1523 92.397 82.1921 90.2625C71.7926 88.1791 61.0061 89.2521 51.2237 93.343C45.5956 95.6474 40.3919 98.8717 35.8266 102.883C30.8409 107.192 26.6513 112.339 23.4481 118.092C20.444 123.514 18.3796 129.403 17.342 135.511Z" fill="#80CCE8"/>
<path d="M114.015 94.5278C112.71 90.7613 111.106 87.1046 109.218 83.5926C106.013 77.7045 102.161 72.1913 97.731 67.1554C94.6016 63.5522 91.156 60.2349 87.4352 57.243C80.9522 52.0847 74.0032 47.6338 66.3655 44.2542C60.4579 41.6346 54.3841 39.6052 48.0267 38.5946C39.7488 37.2646 31.5316 37.3818 23.6062 40.6159C23.4911 40.6889 23.3576 40.7277 23.2212 40.7277C23.0849 40.7277 22.9514 40.6889 22.8363 40.6159C26.094 35.9791 29.9028 31.9769 34.846 29.1067C43.1402 24.2556 52.0381 23.4875 61.2682 25.3996C68.8817 26.9681 75.4254 30.7237 81.4425 35.5303C88.1807 40.9393 93.5981 47.5085 98.3711 54.6113C104.044 63.0805 108.602 72.1359 111.544 81.9513C112.668 85.5964 113.576 89.3045 114.263 93.0563C114.329 93.3049 114.341 93.5649 114.299 93.8187C114.256 94.0725 114.159 94.3143 114.015 94.5278Z" fill="#80CCE8"/>
<path d="M78.4076 175.399L71.5154 151.597C69.8379 145.799 68.0592 139.812 64.1491 135.204C58.3549 128.376 48.0308 125.817 39.7042 129.14C35.7293 130.729 32.1353 133.692 30.6564 137.702C28.5616 143.406 31.6451 150.461 37.2366 152.809C42.8282 155.158 50.0324 152.405 52.6337 146.915C52.6337 147.041 55.6037 146.345 57.0462 147.105C58.4887 147.865 59.6678 149.042 60.7861 150.23C67.9579 157.834 77.889 175.015 78.4076 175.399Z" fill="#80CCE8"/>
</svg>
