<svg id="Layer_1" data-name="Layer 1" xmlns="http://www.w3.org/2000/svg" viewBox="0 0 463.35 515.23"><defs><style>.cls-1{fill:#fff;}</style></defs><path class="cls-1" d="M34.6,289.78A71.87,71.87,0,0,1,26,246.28a82.23,82.23,0,0,1,8.5-28.47C40.24,206.45,48.61,197.42,59,190a99.27,99.27,0,0,1,38.8-16.44,104.48,104.48,0,0,1,45.61,1,138.62,138.62,0,0,1,29,10.39,110.7,110.7,0,0,1,34.37,26.82,87.43,87.43,0,0,1,15.78,27c.31.8.74,1.5,0,2.58-2.22-2.8-4.4-5.52-6.54-8.26-13.63-17.39-31.06-29-52.79-33.26a105.37,105.37,0,0,0-61.44,6.12,108.73,108.73,0,0,0-30.56,19,112.11,112.11,0,0,0-24.55,30.24A109.41,109.41,0,0,0,34.6,289.78Z"/><path class="cls-1" d="M241.42,242.44a77.43,77.43,0,0,1,4.16-12.35c3.31-8.42,8.58-15.57,14.62-22.3,15.06-16.79,34-26.55,55.49-32.29a102.3,102.3,0,0,1,30.56-3.82,114.18,114.18,0,0,1,40.67,8.95c11.4,4.87,21.77,11.24,30.19,20.47,9.1,10,14.86,21.73,18.08,34.75,4.37,17.69,2.13,34.83-4.54,51.56-.27.68-.58,1.35-1.06,2.46-.6-2.9-1-5.45-1.67-7.94s-1.35-5-2.2-7.43a116.92,116.92,0,0,0-43.54-56.88,108.9,108.9,0,0,0-44.74-18,111.73,111.73,0,0,0-28.4-.93,82.35,82.35,0,0,0-45.22,18.07,86.91,86.91,0,0,0-21.34,25.19C242.41,242,242.18,242.07,241.42,242.44Z"/><path class="cls-1" d="M221,217.92c-3.49-5.38-6.68-10.53-10.62-15.18a125.52,125.52,0,0,0-21.15-19.8,153,153,0,0,0-63.71-27.49A133.75,133.75,0,0,0,84,154.28C62,157.05,42.18,165,25.1,179.35a84.34,84.34,0,0,0-11.58,11.56,2.45,2.45,0,0,1-2,1.25A48.12,48.12,0,0,1,13.32,181c4-15.56,11.26-29.28,23.21-40.25A78.26,78.26,0,0,1,76.68,121a89.4,89.4,0,0,1,23.62-1.14,124.36,124.36,0,0,1,34.32,8.3,149.69,149.69,0,0,1,42.55,25.42,163.07,163.07,0,0,1,33.26,38.62A88.34,88.34,0,0,1,221,215.56,3.15,3.15,0,0,1,221,217.92Z"/><path class="cls-1" d="M451.65,192.23c-7.33-8-15-15.09-24-20.61A117.19,117.19,0,0,0,390.36,157a146.33,146.33,0,0,0-40.57-2.7,141.28,141.28,0,0,0-52.91,13.79,135.92,135.92,0,0,0-30.37,20.18A125.36,125.36,0,0,0,246,210.51c-1,1.39-1.5,3.1-3.21,4.41.23-3.43,1.8-6.07,3-8.75a133.56,133.56,0,0,1,16.58-28,164.17,164.17,0,0,1,32.36-31.37c15.62-11.35,32.58-19.71,51.42-24.23,19.18-4.59,38.11-4.25,56.55,3.13a79.43,79.43,0,0,1,31.15,22.44c9.4,11,14.77,23.66,17.47,37.66a5.54,5.54,0,0,1,.13,1.4C451.32,188.74,452.27,190.26,451.65,192.23Z"/><path class="cls-1" d="M237.08,208.82c-1.16-2.16-.16-3.87.14-5.44A181.11,181.11,0,0,1,254,153.82a225.65,225.65,0,0,1,27.93-42.46c9.33-11,19.7-20.83,31.93-28.6a84.38,84.38,0,0,1,34.71-12.85c15.93-2.07,31,0,45.21,7.78,9.12,5,16.23,12.18,22.12,20.65.45.64,1.26,1.49.6,2.24s-1.51.23-2.3,0c-11.34-4-23.11-4.89-34.95-4.07A135.21,135.21,0,0,0,337.54,106a186,186,0,0,0-44.47,25.93,142.08,142.08,0,0,0-17.89,16.33,202.44,202.44,0,0,0-25.85,35.22A188.22,188.22,0,0,0,237.08,208.82Z"/><path class="cls-1" d="M226.37,208.3a149,149,0,0,0-9.52-21.74,178.68,178.68,0,0,0-22.79-32.68,158.39,158.39,0,0,0-20.42-19.71,192.62,192.62,0,0,0-41.77-25.83A146.83,146.83,0,0,0,95.49,97.07c-16.42-2.64-32.71-2.37-48.44,4.05a1.45,1.45,0,0,1-1.53,0c6.45-9.23,14-17.21,23.76-22.94,16.46-9.66,34.1-11.18,52.42-7.37C136.81,74,149.82,81.4,161.76,91c13.37,10.75,24.15,23.82,33.58,37.94,11.25,16.83,20.3,34.83,26.13,54.35a193,193,0,0,1,5.36,22.08A3.62,3.62,0,0,1,226.37,208.3Z"/><path class="cls-1" d="M359.5,40.93c-4.95,1.24-9.69,1.91-14.22,3.4a112.76,112.76,0,0,0-35,19.45,200.88,200.88,0,0,0-36.65,39,256.84,256.84,0,0,0-25.14,43.11,202.21,202.21,0,0,0-7.5,19,5.76,5.76,0,0,1-1.48,2.78c.39-4.18.63-8,1.13-11.88,1.5-11.51,2.95-23,5.45-34.38C249.68,105,254.44,88.91,262.41,74c6.73-12.6,15.34-23.65,27.62-31.27,12.92-8,27.07-11.12,42.28-9.91a73.32,73.32,0,0,1,23,5.81C356.64,39.19,357.88,40,359.5,40.93Z"/><path class="cls-1" d="M223.39,167.44c-1.81-4.87-3.29-9.86-5.31-14.66a282.33,282.33,0,0,0-16.27-32.61,213.29,213.29,0,0,0-20-28.89C169.69,76.73,156,64,139.67,54.14A104.92,104.92,0,0,0,103.5,40.42a58.48,58.48,0,0,1,16.13-6.27,74.13,74.13,0,0,1,42.44,2.74A64.41,64.41,0,0,1,188.12,55c14.26,16,21.7,35.29,27,55.59a281.77,281.77,0,0,1,7.41,42.4c.49,4.78,1.14,9.55,1.71,14.32Z"/><path class="cls-1" d="M101.54,282a44.82,44.82,0,0,0,38,13.67c-4,.91-2,7.13,1.1,9.84a57.47,57.47,0,0,0,47.14,13.25c9,54-2.3,114-41,152.78a215.81,215.81,0,0,0,9.39-75.74c-.81-14.64-3.37-29.83-12.06-41.63-17.77-24.12-55.8-27.53-70.95-53.39-8.34-14.24-6.34-36,5.21-48.21,7.28-7.67,8.34-5.85,11.28,3.14C92.91,265.51,94.16,274.08,101.54,282Z"/><path class="cls-1" d="M361.56,282a44.8,44.8,0,0,1-38,13.67c4,.91,2,7.13-1.11,9.84a57.46,57.46,0,0,1-47.14,13.25c-9,54,2.3,114,41,152.78a215.58,215.58,0,0,1-9.39-75.74c.81-14.64,3.37-29.83,12.06-41.63,17.76-24.12,55.8-27.53,70.94-53.39,8.35-14.24,6.34-36-5.21-48.21-7.27-7.67-8.34-5.85-11.27,3.14C370.2,265.51,369,274.08,361.56,282Z"/></svg>