<svg xmlns="http://www.w3.org/2000/svg" viewBox="0 0 471.35 471.35"><defs><style>.cls-1{fill:#707171;}.cls-2{fill:#fff;stroke:#000;stroke-miterlimit:10;}</style></defs><g id="Layer_3" data-name="Layer 3"><path class="cls-1" d="M349.53,129.67c-5.39,13.12-17.35,20.05-30.48,29.89-13.88,10.41-67.36,33-84.35,33S181,176.27,158.77,164.2c-14.37-7.79-34.27-19.83-38.89-34.53,39.67,2.92,71.28,7,114.82,7S309.86,132.59,349.53,129.67Z"/><path class="cls-2" d="M238,1297.1c158.24,0,315.94-2.06,327.63-6.13C554.45,1138.53,549.48,799.74,547,710.5c-2.26-81.42-38.66-296-14.34-508.17C512.11,187,395,140.87,351.82,125.22c-.28,16.05-94.6,65.82-113.86,67.44v-.55l-.07,0v0q-.85.19-1.62.33-.78-.13-1.62-.33v0l-.08,0v.55C215.32,191,121,141.27,120.71,125.22,77.53,140.87-39.57,187-60.12,202.33-35.8,414.47-72.2,629.08-74.46,710.5c-2.49,89.24-7.45,428-18.6,580.47,11.7,4.07,169.4,6.12,327.63,6.13H238Z"/><path class="cls-2" d="M128.07,106.88c.12,7.22,2.67,16.28,6.63,25,4.32,1,.5,1.87,4.88,2.64,30.37,5.31,64.21,6.61,95.12,6.61s64.75-1.3,95.13-6.61c5.38-.95,2.29-2,7.58-3.35a94.59,94.59,0,0,0,3.66-24.24c-39.68,2.93-62.82,7-106.37,7S167.74,109.81,128.07,106.88Z"/><path class="cls-2" d="M341.29,106.88s-27.15,20.36-51.22,32.67c-25.09,12.82-39.51,13.39-48.63,19.68C234.58,164,240,192.55,240,192.55s37.79-12,65.07-25.5c27-13.35,60.1-37.28,60.1-37.28Z"/><path class="cls-2" d="M128.09,106.88s27.15,20.36,51.22,32.67c25.09,12.82,39.51,13.39,48.63,19.68,6.86,4.74,1.46,33.32,1.46,33.32s-37.79-12-65.07-25.5c-27-13.35-60.1-37.28-60.1-37.28Z"/></g></svg>