<svg xmlns="http://www.w3.org/2000/svg" viewBox="0 0 471.35 471.35"><defs><style>.cls-1{fill:#707171;}.cls-2{fill:#fff;stroke:#000;stroke-miterlimit:10;}</style></defs><g id="Layer_3" data-name="Layer 3"><path class="cls-1" d="M349.53,129.67c-5.39,13.12-17.35,20.05-30.48,29.89-13.88,10.41-67.36,33-84.35,33S181,176.27,158.77,164.2c-14.37-7.79-34.27-19.83-38.89-34.53,39.67,2.92,71.28,7,114.82,7S309.86,132.59,349.53,129.67Z"/><path class="cls-2" d="M238,1297.1c158.24,0,315.94-2.06,327.63-6.13C554.45,1138.53,549.48,799.74,547,710.5c-2.26-81.42-38.66-296-14.34-508.17C512.11,187,395,140.87,351.82,125.22c-.28,16.05-94.6,65.82-113.86,67.44v-.55l-.07,0v0q-.85.19-1.62.33-.78-.13-1.62-.33v0l-.08,0v.55C215.32,191,121,141.27,120.71,125.22,77.53,140.87-39.57,187-60.12,202.33-35.8,414.47-72.2,629.08-74.46,710.5c-2.49,89.24-7.45,428-18.6,580.47,11.7,4.07,169.4,6.12,327.63,6.13H238Z"/><path class="cls-2" d="M118.38,123c.14,8.24-2.68,4.58,1.84,14.49,5,1.16.58,2.13,5.58,3,34.7,6.07,73.37,7.55,108.68,7.55s74-1.48,108.68-7.55c6.15-1.08,2.62-2.27,8.66-3.82,2.78-9.43,0-5.49.09-13.68-45.32,3.34-67.68,7.94-117.43,7.94S163.7,126.3,118.38,123Z"/><path class="cls-2" d="M104.25,129.9s9.72,18.76,58.32,47.8c26.46,15.81,58.35,29,73.7,29s34.55-1.92,83.4-33.19,48.61-43.61,48.61-43.61L354.81,123S332.58,145.77,310,158.67,252.66,188.44,236.27,188c-12.72-.33-46-17.13-65.63-28.39-18.79-10.76-48.39-25.94-52.26-36.68Z"/></g></svg>