<svg xmlns="http://www.w3.org/2000/svg" viewBox="0 0 471.35 471.35"><defs><style>.cls-1{fill:#fff;}.cls-1,.cls-2{stroke:#000;stroke-miterlimit:10;}.cls-2{fill:none;}</style></defs><g id="Layer_3" data-name="Layer 3"><path class="cls-1" d="M556.84,785.79c158.23,0,315.94-2.06,327.63-6.13-11.15-152.45-16.11-491.24-18.6-580.47-2.26-81.42-38.66-296-14.34-508.17C831-324.32,713.88-370.45,670.7-386.09c-.28,16-94.61,65.81-113.86,67.43v-.54h-.07c-.57.13-1.11.24-1.63.33q-.76-.13-1.62-.33h-.07v.54C534.2-320.28,439.87-370,439.59-386.09,396.4-370.45,279.3-324.32,258.76-309c24.32,212.14-12.08,426.75-14.34,508.17-2.49,89.23-7.46,428-18.6,580.47,11.69,4.07,169.4,6.12,327.63,6.13h3.39Z"/><path class="cls-1" d="M250.05,125.57,226,278.46l-4.17,29.81s-67.73,4.52-96.52,4.52c-62.12,0-100.47-4.52-100.47-4.52V278.46s21.25-136.18,24.8-156.55c5.7-32.71,92.34-237.82,153.6-367,25.53-53.87,44.13-54,55.55-63.84,4.05-3.51,8.27,81.19,8.3,167.19C267.11-23.78,250.05,125.57,250.05,125.57Z"/><path class="cls-2" d="M227.21,278.46s-122.17,11.9-202.4,0"/></g></svg>