<svg xmlns="http://www.w3.org/2000/svg" viewBox="0 0 471.35 471.35"><defs><style>.cls-1{fill:#fff;stroke:#000;stroke-miterlimit:10;}.cls-2{fill:#231f20;}</style></defs><g id="Layer_3" data-name="Layer 3"><path class="cls-1" d="M567.37,434.41c158.23,0,315.93-2.06,327.62-6.14C883.85,275.83,878.88-63,876.4-152.2c-2.27-81.42-38.67-296-14.34-508.17-20.55-15.33-137.65-61.46-180.84-77.11-.27,16.05-94.6,65.82-113.85,67.44v-.55l-.08,0v0c-.57.13-1.11.24-1.62.34-.51-.1-1-.21-1.62-.34v0l-.08,0v.55c-19.25-1.62-113.58-51.39-113.85-67.44-43.19,15.65-160.29,61.78-180.84,77.11,24.33,212.14-12.07,426.75-14.34,508.17-2.49,89.24-7.45,428-18.59,580.47,11.69,4.08,169.39,6.12,327.62,6.14h3.4Z"/><path class="cls-1" d="M90.51,332.44v39.77s76.28,2.44,107.22-4.07l-.41-38.67s-15.52,3.85-53.2,5.4C107.78,336.35,90.51,332.44,90.51,332.44Z"/><circle class="cls-2" cx="109.73" cy="353.65" r="7.48"/><path class="cls-1" d="M260.57-225.82s-24.22,64.89-28.77,182.7c-3.08,79.94-7.69,191.8-9,272.75-.51,30.74-25.46,69.11-25.45,99.84a258.73,258.73,0,0,1-106.81,3c-6.69-30-35.64-45.77-35.46-89.25.42-98.14-5.69-410.85,5.08-472.66,5.71-32.71,92.35-237.83,153.6-367.06,25.54-53.86,44.14-54,55.55-63.84,4.06-3.5,8.27,81.2,8.31,167.19C277.64-375.17,260.57-225.82,260.57-225.82Z"/></g></svg>