<svg xmlns="http://www.w3.org/2000/svg" viewBox="0 0 371.66 471.35"><defs><style>.cls-1{fill:#707071;}.cls-2{fill:#83516a;stroke:#000;stroke-linecap:round;stroke-linejoin:round;}</style></defs><g id="dalam"><path class="cls-1" d="M233.7,16.28c0,7.12-2.87,25.15-11.07,40.89-7.26,13.94-31.94,45.55-39,45.55S154.11,64.41,150.71,57c-3.15-6.88-12.13-26.16-12.13-40.7,16.43,1.21,29.53,2.88,47.56,2.88S217.27,17.49,233.7,16.28Z"/></g><g id="Kerah_bowling" data-name="Kerah bowling"><path class="cls-2" d="M138.58,9.24a27.69,27.69,0,0,0,2.75,10.33c1.79.42,3.6.78,5.41,1.09,12.58,2.2,66.22,2.2,78.8,0,2.23-.39,4.45-.82,6.65-1.38a39.47,39.47,0,0,0,1.51-10C217.27,10.45,155,10.45,138.58,9.24Z"/><polygon class="cls-2" points="139.09 9.24 160.08 39.27 167.34 61.02 133.8 52.86 128.81 17.97 139.09 9.24"/><polygon class="cls-2" points="143.77 70.09 183.65 102.72 160.08 39.27 143.77 70.09"/><polygon class="cls-2" points="233.2 9.24 212.66 37.45 201.78 62.83 238.49 52.86 243.48 17.97 233.2 9.24"/><polygon class="cls-2" points="228.52 70.09 183.65 102.72 212.2 39.27 228.52 70.09"/></g></svg>