<svg width="85" height="106" viewBox="0 0 85 106" fill="none" xmlns="http://www.w3.org/2000/svg">
<path d="M65.5367 71.5117C66.557 69.6391 67.5134 67.7298 68.9217 66.1024C69.045 65.9603 69.2458 65.7861 69.0746 65.5661C68.9034 65.3461 68.7323 65.534 68.5656 65.5661C67.7393 65.7563 67.1299 66.3133 66.4999 66.829C66.0982 67.1568 65.7216 67.5166 65.3016 67.8902C65.5298 64.2963 64.667 61.0325 62.6173 58.1789C60.0494 54.6033 56.5115 53.0951 52.1176 53.6888C51.8779 53.7208 51.5469 53.918 51.3894 53.6567C51.2319 53.3954 51.4533 53.1455 51.5606 52.9072C52.5033 50.8191 55.2949 49.6204 57.4542 50.3699C58.2394 50.6449 58.6434 51.2592 58.8967 52.0064C58.9675 52.2127 58.9835 52.5267 59.2505 52.5198C59.5632 52.5198 59.5564 52.1737 59.5975 51.9491C60.0859 49.2789 57.6664 46.9639 54.9502 47.4361C51.6337 48.0137 49.8989 50.8741 49.746 53.7759C49.7611 53.9212 49.7231 54.067 49.6392 54.1864C49.5552 54.3057 49.4309 54.3903 49.2895 54.4245C45.6009 55.9716 43.4347 58.7221 43.0672 62.7377C42.8709 64.8877 43.4484 66.8634 45.2562 68.2386C46.854 69.4603 48.6389 69.5543 50.5198 68.9583C50.4832 68.8575 50.4764 68.791 50.4581 68.7887C48.0683 68.367 46.7536 66.7626 46.208 64.5645C45.6785 62.4306 46.5162 60.6038 48.1094 59.169C51.1018 56.4736 56.6028 56.249 59.8531 60.6703C61.5354 62.9624 62.0809 65.5913 62.1357 68.3693C62.1927 71.31 59.2893 80.0862 58.0476 82.8573C61.9234 79.4238 64.263 73.8541 65.5367 71.5117Z" fill="#1C1B1C"/>
<path d="M18.8882 71.5115C17.8679 69.6389 16.9137 67.7296 15.5031 66.1023C15.3822 65.9602 15.1813 65.786 15.3525 65.5659C15.5237 65.3459 15.6949 65.5338 15.8615 65.5659C16.6878 65.7562 17.2972 66.3131 17.9272 66.8288C18.3289 67.1566 18.7055 67.5165 19.1233 67.8901C18.895 64.2961 19.7578 61.0323 21.8075 58.1787C24.3754 54.6031 27.9134 53.0949 32.3073 53.6886C32.5355 53.7207 32.8779 53.9178 33.0331 53.6565C33.1883 53.3952 32.9715 53.1454 32.8642 52.907C31.9215 50.8189 29.1277 49.6202 26.9707 50.3697C26.1832 50.6447 25.7792 51.259 25.5258 52.0062C25.4573 52.2125 25.4414 52.5265 25.1743 52.5196C24.8593 52.5196 24.8684 52.1735 24.8274 51.9489C24.332 49.2787 26.7515 46.9729 29.4701 47.4451C32.7866 48.0227 34.5214 50.8831 34.6743 53.7848C34.6592 53.9302 34.6971 54.076 34.7811 54.1953C34.8651 54.3147 34.9894 54.3993 35.1308 54.4335C38.8171 55.9806 40.9856 58.7311 41.3508 62.7467C41.5493 64.8967 40.9719 66.8724 39.1641 68.2476C37.5663 69.4693 35.7813 69.5632 33.9005 68.9673C33.9347 68.8665 33.9416 68.8 33.9621 68.7977C36.3497 68.376 37.6667 66.7715 38.2122 64.5735C38.7395 62.4396 37.9041 60.6128 36.3086 59.178C33.3185 56.4826 27.8175 56.258 24.5649 60.6793C22.8849 62.9713 22.3394 65.6003 22.2823 68.3783C22.2275 71.3189 25.1309 80.0952 26.3704 82.8663C22.5037 79.4236 20.1641 73.8539 18.8882 71.5115Z" fill="#1C1B1C"/>
<path d="M69.5289 42.311C67.559 42.311 65.5938 42.1299 63.6216 42.0933C62.6949 42.0933 50.7572 42.0933 44.0305 42.0933C43.9697 42.0894 43.9087 42.0894 43.8479 42.0933H43.3914C41.3256 42.0933 39.8625 42.0933 39.5612 42.0933C39.4666 42.0867 39.3716 42.0968 39.2805 42.123C32.5743 42.1483 20.8785 42.162 19.7236 42.1895C18.0497 42.2262 16.3705 42.2697 14.686 42.3202C14.4577 42.3202 14.0651 42.2835 14.2568 42.6915C14.6348 43.5464 14.7986 44.4813 14.7339 45.4144C14.7156 45.8476 14.9119 45.9026 15.2566 45.8568C16.7471 45.662 18.2445 45.7491 19.7418 45.7536C20.7439 45.7536 34.8067 45.7536 40.5131 45.7536C40.5841 45.7642 40.6558 45.7696 40.7276 45.7697C43.4439 45.7697 66.452 45.5932 69.1637 45.8591C69.5015 45.8912 69.5585 45.733 69.554 45.4442C69.554 44.5847 69.554 43.7252 69.9443 42.923C70.1954 42.3729 70.1611 42.3156 69.5289 42.311Z" fill="#1C1B1C"/>
<path d="M70.5309 29.2142C70.5606 28.5839 70.8048 27.9948 70.976 27.3301H60.5858C59.1875 27.2262 57.7845 27.2025 56.3836 27.2591L47.5364 27.2247C47.4581 27.1938 47.3739 27.1805 47.2899 27.1857C47.2294 27.1762 47.1685 27.1701 47.1073 27.1674C44.8887 27.1674 42.6678 27.1238 40.4468 27.1445C39.2371 27.1582 38.0228 27.0918 36.813 27.188H36.7925C36.6658 27.1725 36.5372 27.185 36.4158 27.2247L35.7813 27.2407L28.4474 27.2591C27.1202 27.2113 25.7913 27.2358 24.4667 27.3324L15.1812 27.3691C14.7247 27.3691 14.2682 27.3691 13.8117 27.3324C13.3552 27.2957 13.2753 27.4608 13.426 27.8573C13.8231 28.9139 13.8026 30.0049 13.6542 31.1028C13.5606 31.4512 13.7729 31.4329 14.0149 31.4329C27.1053 31.4604 40.1935 31.5291 53.2748 31.4741C58.8959 31.4512 64.5186 31.4405 70.1428 31.442C70.4624 31.442 70.75 31.4581 70.6108 30.9836C70.4944 30.4083 70.5651 29.8078 70.5309 29.2142Z" fill="#1C1B1C"/>
<path d="M69.5403 25.1667C68.6273 24.4974 67.7143 23.8282 66.8013 23.1681C62.469 20.0761 58.1595 16.9612 54.1559 13.4498C50.1523 9.9384 46.0323 6.50722 42.4122 2.55803C42.2159 2.34487 42.1109 2.32883 41.9077 2.55803C40.2087 4.40581 38.4168 6.16533 36.5392 7.82972C31.0964 12.7705 25.3875 17.4074 19.4383 21.7195C17.8747 22.8655 16.2952 23.9794 14.7248 25.1117C14.5993 25.2011 14.3756 25.2561 14.4304 25.4555C14.4851 25.6549 14.702 25.6114 14.8595 25.6228C15.1818 25.6861 15.5111 25.7062 15.8387 25.6824C15.9609 25.6428 16.0901 25.6303 16.2176 25.6458H26.6215C26.7489 25.6303 26.8782 25.6428 27.0004 25.6824C28.9771 25.4807 30.5566 24.6189 31.5974 22.8311C31.659 22.8927 31.7134 22.9611 31.7595 23.0351C32.4945 24.6395 33.8389 25.2699 35.4869 25.5197C37.2171 25.781 38.9495 25.687 40.6797 25.7145C41.4877 25.7145 41.4786 25.7145 41.4832 24.8917C41.4992 21.6828 41.3645 18.474 41.9397 15.2949C41.9899 15.013 41.9739 14.6967 42.2775 14.4125C42.5271 15.6316 42.6971 16.8658 42.7865 18.1072C42.9737 20.452 42.8869 22.8013 42.8915 25.1484C42.8915 25.577 43.0307 25.7306 43.4622 25.726C45.0873 25.7008 46.7171 25.7764 48.3354 25.5953C50.1341 25.3936 51.7821 24.9077 52.622 23.0535C52.6701 22.973 52.7243 22.8963 52.7841 22.8243C53.2418 23.6603 53.904 24.3655 54.7083 24.8733C55.5323 25.3684 56.4065 25.7099 57.388 25.6756C57.5098 25.634 57.6393 25.6207 57.7669 25.6366H67.623C67.7506 25.6207 67.8801 25.634 68.0019 25.6756C68.4789 25.7329 68.9469 25.6274 69.4193 25.5999C69.5358 25.5999 69.6978 25.6458 69.7572 25.4899C69.8279 25.3042 69.6499 25.2469 69.5403 25.1667ZM58.7484 23.7388C56.6393 22.7555 54.8681 21.3 53.1539 19.746C52.412 19.0584 51.6976 18.3548 50.8234 17.8436C49.8191 17.2546 48.7463 17.0552 47.6278 17.4311C45.4708 18.1531 45.3749 20.6399 46.2263 21.9258C46.6166 22.5148 47.2078 22.7119 47.8971 22.6317C47.9816 22.6317 48.098 22.6157 48.1414 22.5607C48.2373 22.4392 48.098 22.3681 48.0273 22.2994C47.8485 22.1291 47.7152 21.9165 47.6399 21.6809C47.5645 21.4454 47.5493 21.1946 47.5959 20.9517C47.6367 20.6886 47.7565 20.4444 47.9392 20.2515C48.1219 20.0586 48.3589 19.9263 48.6184 19.8721C48.9807 19.8123 49.3526 19.8647 49.6845 20.0224C50.0164 20.18 50.2926 20.4354 50.4764 20.7545C50.6401 21.0425 50.7195 21.3711 50.7053 21.7024C50.6912 22.0337 50.5842 22.3543 50.3965 22.6271C49.5885 23.984 47.6575 24.4608 46.3199 23.6356C45.2631 22.9755 44.5783 22.0312 44.4368 20.7614C44.2976 19.5283 44.3295 18.3021 44.923 17.1767C45.4206 16.2346 46.1556 15.5952 47.2786 15.5401C47.3489 15.5321 47.4179 15.5151 47.484 15.4897C47.4977 15.4897 47.5068 15.4622 47.5502 15.4072C45.6511 13.7524 43.7361 12.125 42.0995 10.1699C40.5245 12.2121 38.5341 13.8142 36.6328 15.547C36.6937 15.5809 36.758 15.6086 36.8245 15.6295C38.6026 15.8587 39.5636 16.732 39.7781 18.5679C39.9105 19.714 40.0543 20.9196 39.5065 22.0266C38.9244 23.2116 37.9817 23.9428 36.6556 24.0299C35.3637 24.1147 34.4164 23.4821 33.8024 22.3681C33.6267 22.0956 33.5435 21.7734 33.5653 21.4495C33.5871 21.1256 33.7127 20.8174 33.9234 20.5712C34.1391 20.281 34.4374 20.0633 34.7789 19.9467C35.1203 19.83 35.4889 19.82 35.8361 19.9179C36.8291 20.1792 37.0801 21.3963 36.3429 22.2237C36.2653 22.3085 36.0872 22.3544 36.158 22.5125C36.2287 22.6707 36.3748 22.6248 36.5004 22.6386C36.8838 22.7094 37.2798 22.6387 37.6153 22.4395C37.9509 22.2403 38.2034 21.9259 38.3264 21.5545C38.7829 20.4245 38.7373 19.3151 37.9543 18.3456C37.0756 17.2661 35.8795 17.0873 34.5807 17.36C33.8229 17.5182 33.2249 17.9651 32.6383 18.435C31.2117 19.581 29.9335 20.8966 28.4521 21.9739C26.9707 23.0512 25.5099 24.0024 23.6884 24.298C23.2067 24.3551 22.7211 24.3712 22.2367 24.3462C22.1842 24.1422 22.3166 24.0986 22.4239 24.0367C25.3387 22.375 27.9362 20.2732 30.5246 18.1554C33.1747 15.9871 35.8361 13.8005 38.3469 11.4603C39.4882 10.4174 40.6135 9.38373 41.7183 8.31564C42.0287 8.01767 42.1748 7.96725 42.5263 8.29501C47.4473 13.0213 52.6456 17.4475 58.0933 21.5499C59.2586 22.434 60.4784 23.2432 61.7454 23.9726C61.8292 24.0005 61.9053 24.0479 61.9675 24.1108C62.0298 24.1737 62.0764 24.2504 62.1038 24.3347C60.9523 24.4413 59.7936 24.2355 58.7484 23.7388Z" fill="#1C1B1C"/>
</svg>
