<svg id="Layer_1" data-name="Layer 1" xmlns="http://www.w3.org/2000/svg" viewBox="0 0 372.39 462.47"><defs><style>.cls-1{fill:#1c1b1c;}</style></defs><path class="cls-1" d="M287.12,312c4.47-8.17,8.66-16.5,14.83-23.6.54-.62,1.42-1.38.67-2.34s-1.5-.14-2.23,0c-3.62.83-6.29,3.26-9.05,5.51-1.76,1.43-3.41,3-5.25,4.63,1-15.68-2.78-29.92-11.76-42.37-11.25-15.6-26.75-22.18-46-19.59-1.05.14-2.5,1-3.19-.14s.28-2.23.75-3.27c4.13-9.11,16.36-14.34,25.82-11.07,3.44,1.2,5.21,3.88,6.32,7.14.31.9.38,2.27,1.55,2.24,1.37,0,1.34-1.51,1.52-2.49,2.14-11.65-8.46-21.75-20.36-19.69-14.53,2.52-22.13,15-22.8,27.66a2.63,2.63,0,0,1-2,2.83c-16.16,6.75-25.65,18.75-27.26,36.27-.86,9.38,1.67,18,9.59,24,7,5.33,14.82,5.74,23.06,3.14-.16-.44-.19-.73-.27-.74-10.47-1.84-16.23-8.84-18.62-18.43-2.32-9.31,1.35-17.28,8.33-23.54,13.11-11.76,37.21-12.74,51.45,6.55,7.37,10,9.76,21.47,10,33.59.25,12.83-12.47,51.12-17.91,63.21C271.29,346.52,281.54,322.22,287.12,312Z"/><path class="cls-1" d="M82.75,312c-4.47-8.17-8.65-16.5-14.83-23.6-.53-.62-1.41-1.38-.66-2.34s1.5-.14,2.23,0c3.62.83,6.29,3.26,9.05,5.51,1.76,1.43,3.41,3,5.24,4.63-1-15.68,2.78-29.92,11.76-42.37,11.25-15.6,26.75-22.18,46-19.59,1,.14,2.5,1,3.18-.14s-.27-2.23-.74-3.27c-4.13-9.11-16.37-14.34-25.82-11.07-3.45,1.2-5.22,3.88-6.33,7.14-.3.9-.37,2.27-1.54,2.24-1.38,0-1.34-1.51-1.52-2.49C106.6,215,117.2,204.94,129.11,207c14.53,2.52,22.13,15,22.8,27.66a2.63,2.63,0,0,0,2,2.83c16.15,6.75,25.65,18.75,27.25,36.27.87,9.38-1.66,18-9.58,24-7,5.33-14.82,5.74-23.06,3.14.15-.44.18-.73.27-.74,10.46-1.84,16.23-8.84,18.62-18.43,2.31-9.31-1.35-17.28-8.34-23.54-13.1-11.76-37.2-12.74-51.45,6.55-7.36,10-9.75,21.47-10,33.59-.24,12.83,12.48,51.12,17.91,63.21C98.59,346.52,88.34,322.22,82.75,312Z"/><path class="cls-1" d="M304.61,184.6c-8.63,0-17.24-.79-25.88-.95-4.06,0-56.36,0-85.83,0a6.29,6.29,0,0,0-.8,0l-2,0c-9.05,0-15.46,0-16.78,0a3.57,3.57,0,0,0-1.23.13c-29.38.11-80.62.17-85.68.29q-11,.24-22.07.57c-1,0-2.72-.16-1.88,1.62a25,25,0,0,1,2.09,11.88c-.08,1.89.78,2.13,2.29,1.93,6.53-.85,13.09-.47,19.65-.45,4.39,0,66,0,91,0a6.45,6.45,0,0,0,.94.07c11.9,0,112.7-.77,124.58.39,1.48.14,1.73-.55,1.71-1.81,0-3.75,0-7.5,1.71-11C307.53,184.87,307.38,184.62,304.61,184.6Z"/><path class="cls-1" d="M309,127.46c.13-2.75,1.2-5.32,1.95-8.22H265.43a161.56,161.56,0,0,0-18.41-.31l-38.76-.15a2.53,2.53,0,0,0-1.08-.17,7.22,7.22,0,0,0-.8-.08c-9.72,0-19.45-.19-29.18-.1-5.3.06-10.62-.23-15.92.19h-.09a3.83,3.83,0,0,0-1.65.16l-2.78.07-32.13.08a161,161,0,0,0-17.44.32l-40.68.16c-2,0-4,0-6-.16s-2.35.56-1.69,2.29c1.74,4.61,1.65,9.37,1,14.16-.41,1.52.52,1.44,1.58,1.44,57.35.12,114.69.42,172,.18q36.94-.15,73.9-.14c1.4,0,2.66.07,2.05-2C308.84,132.67,309.15,130.05,309,127.46Z"/><path class="cls-1" d="M304.66,109.8c-4-2.92-8-5.84-12-8.72C273.68,87.59,254.8,74,237.26,58.68s-35.59-30.29-51.45-47.52c-.86-.93-1.32-1-2.21,0a322.56,322.56,0,0,1-23.52,23,878,878,0,0,1-74.92,60.6c-6.85,5-13.77,9.86-20.65,14.8-.55.39-1.53.63-1.29,1.5s1.19.68,1.88.73a16.25,16.25,0,0,0,4.29.26,3.89,3.89,0,0,1,1.66-.16h45.58a3.89,3.89,0,0,1,1.66.16c8.66-.88,15.58-4.64,20.14-12.44a5,5,0,0,1,.71.89c3.22,7,9.11,9.75,16.33,10.84,7.58,1.14,15.17.73,22.75.85,3.54,0,3.5,0,3.52-3.59.07-14-.52-28,2-41.87.22-1.23.15-2.61,1.48-3.85A124.7,124.7,0,0,1,187.45,79c.82,10.23.44,20.48.46,30.72,0,1.87.61,2.54,2.5,2.52,7.12-.11,14.26.22,21.35-.57,7.88-.88,15.1-3,18.78-11.09a7.91,7.91,0,0,1,.71-1,24.51,24.51,0,0,0,8.43,8.94c3.61,2.16,7.44,3.65,11.74,3.5a3.73,3.73,0,0,1,1.66-.17h43.18a3.73,3.73,0,0,1,1.66.17c2.09.25,4.14-.21,6.21-.33.51,0,1.22.2,1.48-.48C305.92,110.4,305.14,110.15,304.66,109.8Zm-47.28-6.23c-9.24-4.29-17-10.64-24.51-17.42-3.25-3-6.38-6.07-10.21-8.3-4.4-2.57-9.1-3.44-14-1.8-9.45,3.15-9.87,14-6.14,19.61,1.71,2.57,4.3,3.43,7.32,3.08.37,0,.88-.07,1.07-.31.42-.53-.19-.84-.5-1.14a6.43,6.43,0,0,1-1.89-5.88A5.71,5.71,0,0,1,213,86.7a7.92,7.92,0,0,1,8.14,3.85,7.68,7.68,0,0,1-.35,8.17c-3.54,5.92-12,8-17.86,4.4-4.63-2.88-7.63-7-8.25-12.54-.61-5.38-.47-10.73,2.13-15.64,2.18-4.11,5.4-6.9,10.32-7.14a3.7,3.7,0,0,0,.9-.22c.06,0,.1-.12.29-.36C200,60,191.61,52.9,184.44,44.37c-6.9,8.91-15.62,15.9-23.95,23.46a4.54,4.54,0,0,0,.84.36c7.79,1,12,4.81,12.94,12.82.58,5,1.21,10.26-1.19,15.09-2.55,5.17-6.68,8.36-12.49,8.74-5.66.37-9.81-2.39-12.5-7.25a6.56,6.56,0,0,1,.53-7.84A7.82,7.82,0,0,1,157,86.9c4.35,1.14,5.45,6.45,2.22,10.06-.34.37-1.12.57-.81,1.26s.95.49,1.5.55a7.08,7.08,0,0,0,8-4.73c2-4.93,1.8-9.77-1.63-14-3.85-4.71-9.09-5.49-14.78-4.3-3.32.69-5.94,2.64-8.51,4.69-6.25,5-11.85,10.74-18.34,15.44s-12.89,8.85-20.87,10.14a37.72,37.72,0,0,1-6.36.21c-.23-.89.35-1.08.82-1.35,12.77-7.25,24.15-16.42,35.49-25.66C145.34,69.75,157,60.21,168,50c5-4.55,9.93-9.06,14.77-13.72,1.36-1.3,2-1.52,3.54-.09a747.52,747.52,0,0,0,68.2,57.83,151.63,151.63,0,0,0,16,10.57,2.47,2.47,0,0,1,1.57,1.58A28.29,28.29,0,0,1,257.38,103.57Z"/></svg>