<svg width="140" height="191" viewBox="0 0 140 191" fill="none" xmlns="http://www.w3.org/2000/svg">
<path d="M97.8382 164.356C97.3774 164.132 96.9314 163.879 96.503 163.599C93.4785 161.328 90.5143 158.969 87.4402 156.765C83.1656 153.706 81.2922 149.419 80.5591 144.386C80.2934 142.55 80.7893 141.5 82.2696 140.368C84.3308 138.79 86.1157 136.831 87.9113 134.946C88.9454 133.86 88.9383 133.177 88.3292 132.367C87.8086 131.66 86.4628 131.335 85.4959 131.897C82.8469 133.443 79.9287 134.585 77.7542 136.877C77.4284 137.231 76.9927 137.659 76.5855 137.16C76.4876 136.969 76.4365 136.757 76.4365 136.543C76.4365 136.328 76.4876 136.117 76.5855 135.926C77.6267 134.157 79.2097 132.951 81.069 132.102C84.0723 130.73 84.7026 129.626 83.4312 126.337C81.8801 122.315 78.7175 119.854 74.8041 118.297C74.2804 118.126 73.7126 118.147 73.2033 118.357C70.2208 119.658 67.6899 121.81 65.929 124.544C65.0224 125.916 64.8099 127.508 64.7037 129.099C64.6434 130.026 65.2243 130.694 65.9892 131.168C67.2394 131.936 68.5816 132.583 69.7326 133.471C70.7586 134.329 71.6959 135.287 72.5304 136.332C72.7146 136.545 72.5304 137.057 72.5304 137.429C72.1373 137.351 71.5919 137.408 71.3723 137.167C69.9912 135.65 68.2168 134.755 66.4319 133.846C65.3093 133.276 64.2362 132.608 63.1383 131.985C62.0404 131.363 61.0382 131.412 60.3759 132.106C59.8234 132.682 59.6676 133.315 60.1953 133.998C62.6106 137.057 65.1747 139.961 68.7268 141.779C69.2001 142.009 69.6169 142.34 69.9474 142.749C70.278 143.158 70.5142 143.635 70.6393 144.145C71.7327 147.819 73.7936 151.132 76.6067 153.738C79.8933 156.886 83.6614 159.266 87.674 161.335C92.0053 163.567 95.908 166.457 99.57 169.629C100.853 170.716 101.88 172.072 102.578 173.6C103.276 175.129 103.629 176.792 103.611 178.472C103.611 181.047 103.498 183.622 103.441 186.197C103.45 186.365 103.468 186.532 103.494 186.699C104.911 185.135 106.232 183.724 106.773 181.747C107.482 179.151 108.19 176.541 109.911 174.369C111.831 171.935 114.281 170.694 117.444 171.186C117.847 171.253 118.236 171.387 118.595 171.582C121.357 172.997 124.021 171.582 124.378 168.483C124.58 166.736 124.276 165.194 122.675 164.172C120.925 163.054 119.158 163.334 117.522 164.349C115.886 165.364 114.466 166.513 112.918 167.589C112.185 168.105 111.423 168.575 110.673 169.063L110.439 168.904C110.472 168.526 110.529 168.151 110.609 167.779C111.14 165.792 111.919 163.917 113.644 162.672C114.331 162.173 115.209 161.933 116.003 161.586C117.216 161.061 118.186 160.095 118.715 158.884C119.244 157.673 119.293 156.307 118.854 155.061C118.12 152.783 115.17 151.17 112.723 151.693C110.333 152.21 108.725 154.986 109.355 157.653C109.558 158.498 109.485 159.385 109.146 160.186C108.264 162.471 107.443 164.784 106.717 167.125C106.363 168.232 106.299 169.424 106.076 170.574C105.992 170.775 105.872 170.96 105.722 171.118C105.569 170.966 105.367 170.843 105.272 170.662C104.918 169.859 104.624 169.028 104.259 168.229C103.345 166.234 102.488 164.211 101.465 162.276C99.8072 159.128 98.3233 155.909 97.6327 152.411C97.0732 149.564 97.0165 146.752 98.9927 144.276C99.5806 143.548 99.7789 143.537 100.441 144.199C102.18 145.935 104 146.229 106.001 145.093C106.929 144.539 107.649 143.697 108.053 142.696C108.457 141.695 108.523 140.589 108.24 139.547C107.248 135.773 104.156 134.161 100.215 135.363C96.0143 136.647 92.7207 141.185 92.6002 145.543C92.5152 148.747 92.7773 151.87 93.9106 154.873C94.502 156.429 95.2706 157.918 95.9718 159.429C96.4782 160.518 97.0342 161.586 97.5265 162.679C97.7171 163.161 97.8826 163.652 98.0223 164.151L97.8382 164.356Z" fill="#9AC552"/>
<path d="M48.5473 80.5047C49.0073 80.2818 49.4521 80.029 49.8789 79.7478C52.9069 77.4771 55.8676 75.1179 58.9452 72.9144C63.2163 69.8513 65.0897 65.5681 65.8228 60.535C66.092 58.7028 65.5926 57.6523 64.1123 56.5205C62.0546 54.943 60.2662 52.9835 58.4706 51.0983C57.4365 50.0125 57.4471 49.3298 58.0527 48.5199C58.5733 47.8125 59.9191 47.4871 60.8859 48.0495C63.535 49.5951 66.4568 50.7375 68.6277 53.026C68.9571 53.3797 69.3891 53.8112 69.7964 53.3125C69.8943 53.1214 69.9454 52.9099 69.9454 52.6953C69.9454 52.4806 69.8943 52.2691 69.7964 52.0781C68.7587 50.3096 67.1721 49.1035 65.3164 48.2546C62.3096 46.8822 61.6792 45.7787 62.9506 42.4893C64.5054 38.4678 67.668 36.0061 71.5778 34.4498C72.1013 34.2768 72.6696 34.2982 73.1786 34.5099C76.1615 35.8113 78.6933 37.9633 80.4564 40.6961C81.3595 42.0649 81.5755 43.653 81.6747 45.234C81.7349 46.1642 81.1576 46.8327 80.3891 47.3067C79.1425 48.0742 77.7967 48.7215 76.6457 49.6093C75.6206 50.4682 74.6834 51.4267 73.8479 52.4707C73.6638 52.6793 73.8302 53.1781 73.8479 53.5671C74.2446 53.4893 74.7864 53.5459 75.006 53.3054C76.3907 51.788 78.1615 50.8932 79.9641 49.9842C81.0868 49.4147 82.1634 48.7462 83.2577 48.1237C84.3521 47.5012 85.3579 47.5507 86.0237 48.244C86.5726 48.8205 86.732 49.4536 86.2008 50.1363C83.789 53.1957 81.2214 56.0961 77.6692 57.9176C77.1963 58.148 76.7799 58.4794 76.4495 58.8883C76.119 59.2972 75.8825 59.7736 75.7568 60.2838C74.6557 63.9557 72.5874 67.2648 69.7681 69.8655C66.4815 73.0134 62.7134 75.3938 58.7008 77.4594C54.3695 79.6947 50.4668 82.5844 46.8048 85.7571C45.5233 86.8447 44.4972 88.2008 43.7995 89.729C43.1017 91.2572 42.7494 92.92 42.7675 94.5995C42.7675 97.1744 42.8773 99.7494 42.9375 102.324C42.9375 102.43 42.9162 102.536 42.8808 102.827C41.4642 101.26 40.1432 99.8519 39.6014 97.8748C38.8931 95.2786 38.1848 92.6683 36.4671 90.4966C34.5441 88.0632 32.0933 86.8217 28.9343 87.3134C28.5276 87.3832 28.1351 87.5194 27.7727 87.7166C25.0103 89.1314 22.3471 87.7166 21.9894 84.6182C21.7875 82.8709 22.0956 81.3288 23.6964 80.3066C25.4459 79.1889 27.2131 79.4684 28.8458 80.4835C30.4784 81.4986 31.9021 82.6481 33.4498 83.7233C34.1828 84.2362 34.9478 84.7102 35.6951 85.1983L35.9288 85.0391C35.8947 84.6602 35.8391 84.2835 35.7624 83.9108C35.2311 81.9266 34.452 80.052 32.7273 78.807C32.019 78.3082 31.1619 78.0677 30.3651 77.7211C29.1555 77.1911 28.1914 76.2239 27.6659 75.0137C27.1405 73.8034 27.0926 72.4394 27.5319 71.1954C28.265 68.9176 31.215 67.3047 33.6658 67.8282C36.0528 68.3411 37.6606 71.1211 37.0338 73.788C36.828 74.6323 36.9 75.5203 37.2392 76.3205C38.121 78.6053 38.9427 80.9185 39.6722 83.26C40.0264 84.3671 40.0866 85.559 40.3097 86.7085C40.3949 86.9094 40.5148 87.0938 40.6638 87.2532C40.8197 87.1011 41.018 86.9774 41.1172 86.797C41.4713 85.9941 41.7652 85.1629 42.13 84.3635C43.0402 82.3687 43.9008 80.3455 44.9207 78.4108C46.5817 75.2629 48.0621 72.0443 48.7527 68.5462C49.3122 65.7166 49.3724 62.887 47.3963 60.4112C46.8084 59.6825 46.6065 59.6719 45.9478 60.3334C44.2054 62.07 42.385 62.3636 40.3841 61.2282C39.4573 60.6732 38.7375 59.8311 38.3341 58.83C37.9307 57.8289 37.8659 56.7236 38.1494 55.6822C39.1374 51.9083 42.2292 50.2954 46.1709 51.498C50.3747 52.7819 53.6683 57.3163 53.7852 61.6774C53.8702 64.8819 53.6081 68.005 52.4748 71.0079C51.8869 72.5642 51.1184 74.0533 50.4137 75.5635C49.9072 76.6529 49.3512 77.7211 48.8589 78.814C48.6695 79.2956 48.5051 79.7868 48.3667 80.2854L48.5473 80.5047Z" fill="#9AC552"/>
</svg>
