<svg id="Layer_1" data-name="Layer 1" xmlns="http://www.w3.org/2000/svg" viewBox="0 0 372.39 462.47"><defs><style>.cls-1{fill:#80cce8;}</style></defs><path class="cls-1" d="M245.51,330.4c-1.2-7.95-5.59-13.82-12-18.44-9.12-6.59-22.74-6.85-32.06-.5a39,39,0,0,0-16,22.47,8,8,0,0,1-.44-1,37.79,37.79,0,0,0-10.42-17.09c-6.87-6.59-15-9.82-24.48-8.87-8.31.83-15,4.86-20.07,11.52a24,24,0,0,0-4.81,19.71,24.52,24.52,0,0,0,8.49,14.41c5,4.29,10.9,6.33,17.4,4.61,8.52-2.25,12.16-8.9,11.09-17.25-.63-5-3.3-8.46-8.46-9.63-2.84-.64-6.2.67-7.26,2.87a5.74,5.74,0,0,0,2.44,7.91c2,1,1.31,2.59,1.26,4,0,1.12-1.36,1.08-2.14,1.22a10.7,10.7,0,0,1-11.15-6.42c-3.22-8.87,3-20.62,15.21-21.25,6.58-.34,12,2.53,16.16,7.34,6.44,7.52,8.63,16.27,6.07,26-2,7.65-6.66,13.45-12.55,18.42-1.47,1.24-1.6,1.83-.23,3.13,2.8,2.68,5.48,5.49,8,8.43,4,4.71,7.77,9.66,9.93,15.56,2.3,6.31,3.32,12.49-2.52,17.72-1,.89-.89,2,.13,3.14,2.19,2.41,4.51,4.69,6.49,7.28,1.07,1.39,2.29,1.37,3.42.07q3.33-3.79,6.62-7.61a2.19,2.19,0,0,0-.23-3.29c-4.31-3.27-4.57-7.84-3.73-12.49,1.45-8,6.15-14.42,11.38-20.41,2.66-3.06,5.5-6,8.29-8.9.74-.78.8-1.3-.12-2.06-1.49-1.25-2.83-2.67-4.22-4-5.47-5.34-9.08-11.79-9.66-19.39-.84-11.05,3.28-20.09,12.87-26.06,6-3.71,12.24-4.14,18.53-.5s9.82,13.35,6.67,19.55c-2.11,4.15-7.93,6.94-11.89,5.41-.5-.2-1.2-.28-1.21-1,0-1.54-.36-3,1.58-4,2.47-1.23,3.19-3.6,2.82-6.25a5.52,5.52,0,0,0-4.82-4.41,9.22,9.22,0,0,0-8.11,2.76c-3.21,3.31-3.88,7.4-3.27,11.85,1.19,8.84,9.12,13.85,17.27,12.71C238.12,355.9,247.4,342.86,245.51,330.4ZM193.3,374.89a33.94,33.94,0,0,0-7.86,13c-.65-.16-.55-.83-.71-1.25A32.56,32.56,0,0,0,177.4,375c-1.05-1-1.59-2.27-.65-3.48a53.83,53.83,0,0,0,8.66-15.41,41.2,41.2,0,0,0,8.22,14.92C194.82,372.37,194.64,373.49,193.3,374.89Z"/><path class="cls-1" d="M152.81,428.27a2,2,0,0,0-.07-2.48,62,62,0,0,0-21.41-20.88c-8.54-5.15-17.86-7.86-27.29-10.49-7.6-2.13-15-4.76-21.49-9.39a49.87,49.87,0,0,1-18.3-23.5c-1.18-3.2-2.11-6.5-3-9.8-.27-1-1.25-2.43.11-3.19a4.44,4.44,0,0,1,4.26,0l8.54,4.55c10.36,5.51,20.78,10.92,31.08,16.56,5.26,2.88,10.32,6.11,15.29,9.51a116.93,116.93,0,0,1,22.4,20.6,156.3,156.3,0,0,1,16.63,24.14c5.13,8.86,9.65,18,11.79,28.13-2.59-1.28-16.46-10.29-21.34-13.29-7.91-4.84-16.36-7.85-25.75-7.91-9.07-.06-17.78,1.89-26.43,4.32-7.12,2-14.27,3.91-21.78,3.78-6.24-.12-11.67-2-15.32-7.27s-2.28-10.58.58-15.69C65.6,408.28,72.8,405.45,81,404.64c8.45-.84,16.8.44,25,2.14,10.32,2.13,20.44,4.94,29.77,10,4.43,2.42,8.82,4.89,12.61,8.29A17.93,17.93,0,0,0,152.81,428.27Z"/><path class="cls-1" d="M215.82,428.27a2,2,0,0,1,.07-2.48,62.11,62.11,0,0,1,21.41-20.88c8.54-5.15,17.86-7.86,27.29-10.49,7.6-2.13,15-4.76,21.49-9.39a49.87,49.87,0,0,0,18.3-23.5c1.18-3.2,2.11-6.5,3-9.8.27-1,1.25-2.43-.11-3.19a4.44,4.44,0,0,0-4.26,0l-8.54,4.55c-10.36,5.51-20.78,10.92-31.08,16.56-5.26,2.88-10.32,6.11-15.29,9.51a116.93,116.93,0,0,0-22.4,20.6,156.3,156.3,0,0,0-16.63,24.14c-5.13,8.86-9.65,18-11.79,28.13,2.59-1.28,16.46-10.29,21.35-13.29,7.9-4.84,16.35-7.85,25.74-7.91,9.07-.06,17.78,1.89,26.43,4.32,7.13,2,14.27,3.91,21.79,3.78,6.23-.12,11.66-2,15.31-7.27s2.28-10.58-.58-15.69c-4.29-7.68-11.49-10.51-19.67-11.32-8.45-.84-16.8.44-25,2.14-10.32,2.13-20.44,4.94-29.77,10-4.42,2.42-8.82,4.89-12.61,8.29A17.93,17.93,0,0,1,215.82,428.27Z"/><path class="cls-1" d="M14.18,251.81c-5.67-9.4-4.67-21.1-.5-33,4.05-11.57,11.43-21.27,17.47-31.72,7-12.13,14.35-24.11,19.48-37.23.34-.86.45-2.7,2-2.09s.83,2.27.8,3.44A123.32,123.32,0,0,1,42,198.53c-3.93,8.68-8,17.34-9.57,26.88-.91,5.66-.63,11,4.36,15,5.4,4.31,11.19,5.39,17.66,2.62,4.89-2.1,6.69-6.21,7.67-11,.25-1.26-.56-3.34,1.68-3.41,1.73,0,2.18,1.74,2.81,3,6.57,13,1,22.71-9.86,29.56C43,269.85,24.51,266.28,14.18,251.81Z"/><path class="cls-1" d="M358.21,251.81c5.67-9.4,4.67-21.1.5-33-4-11.57-11.43-21.27-17.47-31.72-7-12.13-14.35-24.11-19.48-37.23-.34-.86-.45-2.7-2-2.09s-.83,2.27-.8,3.44a123.32,123.32,0,0,0,11.42,47.34c3.93,8.68,8,17.34,9.57,26.88.91,5.66.63,11-4.36,15-5.4,4.31-11.19,5.39-17.66,2.62-4.89-2.1-6.69-6.21-7.67-11-.25-1.26.56-3.34-1.68-3.41-1.73,0-2.18,1.74-2.81,3-6.57,13-1,22.71,9.86,29.56C329.43,269.85,347.88,266.28,358.21,251.81Z"/><path class="cls-1" d="M309,174.86a33.51,33.51,0,0,1-3.12-21.56,41.22,41.22,0,0,1,2.87-8.3,7.54,7.54,0,0,0-3.42-.13h0c-1.12,0-2.24-.07-3.36-.07-30.64,0-107.09,0-137.74,0-18.8,0-82.55,0-101.35.06-2.13.3-1,1.6-.59,2.39a28.32,28.32,0,0,1,3,11.46,34.42,34.42,0,0,1-3.68,15.92c-1,2.21-.26,2.52,1.65,2.3,4.78-.55,54.54-.28,59.33-.42,4.39-.13,8.79.13,13.17-.43h30.55a45.23,45.23,0,0,0,8.78.34H193.7a25.88,25.88,0,0,0,7.35-.32h0l29.11,0a8.32,8.32,0,0,0,1.39.27c10.12.42,66.07-.21,76.19.62C309.63,177.1,309.72,176.31,309,174.86Zm-122.84-4.07c-.39.75-.7,1.94-1.53,2-1.05,0-1.31-1.29-1.64-2.11A18.88,18.88,0,0,1,182,158c.45-1.6.91-3.21,1.47-4.77.19-.52.28-1.39,1.09-1.37.62,0,.82.71,1,1.22,1.29,3.25,2.58,6.5,2.4,10.23A14.21,14.21,0,0,1,186.14,170.79Zm-63-14.22c2.72-3,6.45-3.68,10.2-4a35.48,35.48,0,0,1,20.34,4.06,30.16,30.16,0,0,0,5.92,2.51c4.79,1.34,7.23.65,12.74-3.21a7.74,7.74,0,0,1-2,6.19c-3.53,4.26-9.54,5.64-15.53,3.41-3.27-1.23-6.42-2.78-9.59-4.27a20.15,20.15,0,0,0-10.4-2.16,6.7,6.7,0,0,0-3.14,1,2.88,2.88,0,0,0-1.4,3.07,2.41,2.41,0,0,0,2.28,2.34c1,.1,1.75.55.64,1.42-2.12,1.66-4.5,2.79-7.31,2.08C120.37,167.58,119,161.21,123.12,156.57Zm117.44,12.58a11.24,11.24,0,0,1-4.33-2,1.25,1.25,0,0,1-.64-1.21c.08-.56.55-.47.92-.48a2.26,2.26,0,0,0,2.42-2.16,3.18,3.18,0,0,0-1.87-3.33c-2.53-1.44-5.26-1.09-7.94-.58-4.28.83-8,3.07-11.89,4.9a19,19,0,0,1-10.42,2.06c-5.21-.6-9.78-5.42-9.52-10.74,5.32,5.74,11,4.68,16.84,1.81,4.3-2.11,8.61-4.21,13.46-4.72a35.18,35.18,0,0,1,13.78.79c3.84,1.12,6,3.83,6.95,7.54C249.46,165.54,245.15,170,240.56,169.15Z"/></svg>