<svg width="85" height="106" viewBox="0 0 85 106" fill="none" xmlns="http://www.w3.org/2000/svg">
<path d="M56.0389 75.7289C55.765 73.9068 54.763 72.5613 53.2999 71.5024C51.2182 69.992 48.1093 69.9324 45.982 71.3878C44.1805 72.6005 42.8818 74.4319 42.3299 76.538C42.2913 76.464 42.2577 76.3874 42.2295 76.3088C41.8017 74.8122 40.9801 73.459 39.8511 72.3917C38.283 70.8813 36.4272 70.1409 34.2634 70.3587C32.3666 70.5489 30.8395 71.4726 29.6823 72.9991C29.1819 73.6259 28.8243 74.3552 28.6346 75.1357C28.4449 75.9162 28.4278 76.7289 28.5844 77.5167C28.8249 78.8117 29.5108 79.9807 30.5223 80.8196C31.6636 81.8028 33.0103 82.2704 34.4939 81.8762C36.4387 81.3605 37.2695 79.8363 37.0253 77.9224C36.8815 76.7764 36.272 75.9834 35.0942 75.7152C34.446 75.5685 33.679 75.8687 33.4371 76.373C33.3516 76.528 33.2981 76.6987 33.2798 76.8749C33.2616 77.0512 33.279 77.2293 33.331 77.3986C33.3831 77.5679 33.4686 77.7249 33.5825 77.8602C33.6965 77.9955 33.8364 78.1063 33.994 78.186C34.4505 78.4152 34.2931 78.7796 34.2816 79.1028C34.2816 79.3595 33.9712 79.3504 33.7932 79.3824C33.2674 79.4475 32.7349 79.3391 32.2758 79.0737C31.8167 78.8083 31.456 78.4002 31.2481 77.911C30.5131 75.8779 31.9329 73.1848 34.7199 73.0404C36.2218 72.9624 37.459 73.6203 38.4085 74.7227C39.8785 76.4463 40.3783 78.4519 39.794 80.682C39.3375 82.4354 38.2738 83.7648 36.9294 84.904C36.5939 85.1882 36.5642 85.3234 36.8769 85.6214C37.516 86.2356 38.1277 86.8797 38.7029 87.5536C39.616 88.6331 40.4765 89.7677 40.9695 91.12C41.4945 92.5663 41.7273 93.9827 40.3943 95.1815C40.1661 95.3855 40.1912 95.6399 40.424 95.9012C40.9239 96.4536 41.4534 96.9762 41.9054 97.5698C42.1496 97.8884 42.4281 97.8838 42.686 97.5858C43.1927 97.0067 43.6964 96.4253 44.1971 95.8416C44.2473 95.7908 44.2862 95.7299 44.3111 95.6628C44.336 95.5957 44.3463 95.524 44.3413 95.4526C44.3363 95.3812 44.3162 95.3116 44.2823 95.2487C44.2483 95.1857 44.2014 95.1307 44.1446 95.0875C43.1608 94.338 43.1014 93.2905 43.2932 92.2247C43.6241 90.3911 44.6969 88.9196 45.8907 87.5467C46.4979 86.8453 47.1461 86.1715 47.7829 85.5068C47.9519 85.328 47.9655 85.2088 47.7556 85.0346C47.4155 84.7481 47.1096 84.4226 46.7923 84.1178C45.5438 82.8939 44.7198 81.4155 44.5874 79.6735C44.3956 77.1408 45.336 75.0688 47.525 73.7005C48.8945 72.8501 50.3189 72.7516 51.7546 73.5859C53.1903 74.4202 53.9961 76.6458 53.277 78.0668C52.7954 79.018 51.467 79.6575 50.5631 79.3068C50.449 79.261 50.2892 79.2426 50.2869 79.0776C50.2869 78.7246 50.2047 78.39 50.6475 78.1608C51.2113 77.8789 51.3757 77.3357 51.2912 76.7283C51.2389 76.4641 51.1039 76.2237 50.906 76.0419C50.7082 75.8601 50.4577 75.7464 50.191 75.7175C49.8545 75.6646 49.5103 75.6946 49.1878 75.8048C48.8654 75.915 48.5744 76.1021 48.3399 76.3501C47.6072 77.1087 47.4543 78.0462 47.5935 79.0661C47.8651 81.0923 49.6752 82.2406 51.5355 81.9793C54.3521 81.5736 56.4703 78.5848 56.0389 75.7289ZM44.1217 85.9262C43.3072 86.7706 42.6938 87.7893 42.3276 88.9059C42.1793 88.8692 42.2021 88.7156 42.1656 88.6194C41.8035 87.6206 41.233 86.711 40.4925 85.9514C40.2528 85.7222 40.1295 85.4311 40.3441 85.1538C41.1923 84.0939 41.8602 82.9004 42.3208 81.6218C42.7021 82.8805 43.3412 84.0453 44.1971 85.0415C44.4687 85.3486 44.4276 85.6053 44.1217 85.9262Z" fill="#E9BAD2"/>
<path d="M34.8797 98.1614C34.9412 98.0787 34.973 97.9775 34.9701 97.8744C34.9672 97.7712 34.9297 97.6721 34.8638 97.593C33.6481 95.6212 31.9703 93.9781 29.9768 92.8072C28.0275 91.6268 25.9002 91.0056 23.7477 90.4028C22.013 89.9146 20.3239 89.3118 18.8425 88.2506C16.9363 86.9244 15.4789 85.0451 14.6654 82.8643C14.3961 82.1309 14.1838 81.3745 13.9807 80.6181C13.919 80.3889 13.6954 80.0612 14.0058 79.887C14.1549 79.8051 14.3221 79.7622 14.492 79.7622C14.6619 79.7622 14.8291 79.8051 14.9781 79.887L16.9274 80.9298C19.2922 82.1927 21.6706 83.4327 24.0216 84.7255C25.2222 85.3856 26.3772 86.1259 27.5116 86.9052C29.4135 88.2487 31.1324 89.836 32.6246 91.6268C34.0597 93.3476 35.3306 95.2001 36.4205 97.1598C37.5914 99.1905 38.6231 101.285 39.1116 103.607C38.5204 103.314 35.3545 101.249 34.2406 100.561C32.4351 99.4518 30.5064 98.7619 28.363 98.7482C26.2928 98.7344 24.3047 99.1814 22.3303 99.7383C20.7051 100.197 19.073 100.635 17.3589 100.605C15.9345 100.577 14.6951 100.146 13.862 98.9384C13.0288 97.7305 13.3416 96.5134 13.9944 95.3422C14.9736 93.5796 16.617 92.931 18.4887 92.7453C20.4175 92.5528 22.3234 92.8462 24.1951 93.2358C26.5507 93.724 28.8606 94.3681 30.9903 95.5278C32.0014 96.0825 33.0035 96.6487 33.8686 97.4279C34.1663 97.7229 34.5073 97.9702 34.8797 98.1614Z" fill="#E9BAD2"/>
<path d="M49.262 98.1614C49.2006 98.0787 49.1687 97.9775 49.1716 97.8744C49.1745 97.7712 49.212 97.6721 49.278 97.593C50.4945 95.6218 52.1721 93.979 54.1649 92.8072C56.1142 91.6268 58.2416 91.0056 60.394 90.4028C62.1288 89.9146 63.8178 89.3118 65.2992 88.2506C67.2055 86.9244 68.6629 85.0451 69.4763 82.8643C69.7456 82.1309 69.9579 81.3745 70.1611 80.6181C70.2227 80.3889 70.4464 80.0612 70.136 79.887C69.9869 79.8051 69.8197 79.7622 69.6498 79.7622C69.4799 79.7622 69.3127 79.8051 69.1636 79.887L67.2143 80.9298C64.8496 82.1927 62.4711 83.4327 60.1201 84.7255C58.9195 85.3856 57.7645 86.1259 56.6301 86.9052C54.7282 88.2487 53.0094 89.836 51.5172 91.6268C50.0821 93.3476 48.8112 95.2001 47.7213 97.1598C46.5503 99.1905 45.5186 101.285 45.0302 103.607C45.6213 103.314 48.7872 101.249 49.9034 100.561C51.7066 99.4518 53.6354 98.7619 55.7787 98.7482C57.849 98.7344 59.8371 99.1814 61.8115 99.7383C63.4389 100.197 65.0687 100.635 66.7852 100.605C68.2072 100.577 69.4466 100.146 70.2798 98.9384C71.1129 97.7305 70.8002 96.5134 70.1474 95.3422C69.1682 93.5819 67.5247 92.9333 65.6576 92.7476C63.7288 92.5551 61.8229 92.8484 59.9512 93.2381C57.5956 93.7263 55.2857 94.3704 53.156 95.5301C52.1472 96.0848 51.1428 96.6509 50.2777 97.4302C49.9784 97.7247 49.6359 97.9713 49.262 98.1614Z" fill="#E9BAD2"/>
<path d="M3.23666 57.7161C1.94245 55.5615 2.17071 52.8798 3.12253 50.1523C4.04697 47.5004 5.73149 45.2771 7.11015 42.882C8.70794 40.1017 10.3856 37.3559 11.5566 34.3487C11.6342 34.1516 11.6593 33.7298 12.0131 33.8697C12.3669 34.0095 12.2025 34.39 12.1957 34.6581C12.0523 38.4116 11.1654 42.0987 9.58672 45.5041C8.68968 47.4936 7.76068 49.4785 7.40232 51.6651C7.19461 52.9624 7.25852 54.1863 8.39751 55.1031C9.63009 56.091 10.9517 56.3385 12.4285 55.7036C13.5447 55.2223 13.9555 54.2803 14.1792 53.1824C14.2363 52.8936 14.0514 52.4169 14.5627 52.4008C14.9576 52.4008 15.0603 52.7996 15.2041 53.0884C16.7037 56.0681 15.4323 58.2936 12.9535 59.8637C9.81498 61.8509 5.59454 61.0326 3.23666 57.7161Z" fill="#E9BAD2"/>
<path d="M81.7634 57.7161C83.0576 55.5615 82.8293 52.8798 81.8775 50.1523C80.9645 47.5004 79.2685 45.2771 77.8899 42.882C76.2921 40.1017 74.6144 37.3559 73.4435 34.3487C73.3659 34.1516 73.3407 33.7298 72.987 33.8697C72.6332 34.0095 72.7975 34.39 72.8043 34.6581C72.9464 38.413 73.8325 42.1017 75.411 45.5086C76.3081 47.4981 77.2371 49.483 77.5954 51.6696C77.8031 52.9669 77.7392 54.1909 76.6002 55.1077C75.3677 56.0956 74.0461 56.3431 72.5692 55.7082C71.4531 55.2269 71.0422 54.2849 70.8185 53.187C70.7615 52.8982 70.9463 52.4214 70.4351 52.4054C70.0402 52.4054 69.9375 52.8042 69.7937 53.093C68.294 56.0727 69.5654 58.2982 72.0443 59.8683C75.1942 61.8509 79.4055 61.0326 81.7634 57.7161Z" fill="#E9BAD2"/>
<path d="M70.5309 40.0786C69.752 38.557 69.5014 36.8178 69.8187 35.1369C69.969 34.4812 70.1886 33.8434 70.4738 33.2346C70.2193 33.1647 69.9522 33.1545 69.6932 33.2048C69.4375 33.2048 69.1819 33.1887 68.9262 33.1887C61.9325 33.1887 44.4824 33.1887 37.4863 33.1887C33.1951 33.1887 18.6439 33.1887 14.3527 33.2025C13.8665 33.2712 14.1244 33.5692 14.218 33.7503C14.6281 34.5676 14.8615 35.4627 14.9028 36.3769C14.9185 37.6433 14.6304 38.8949 14.0628 40.0259C13.8345 40.5324 14.0034 40.6035 14.4394 40.553C15.5305 40.427 26.8884 40.4889 27.9818 40.4568C28.9838 40.427 29.9881 40.4866 30.9879 40.3582H37.9611C38.625 40.4494 39.2962 40.4755 39.9652 40.4361H44.213C44.7729 40.492 45.3378 40.4673 45.8907 40.3628H52.5352C52.639 40.3924 52.7452 40.4131 52.8525 40.4247C55.1624 40.5209 67.9333 40.3765 70.2433 40.5668C70.6747 40.592 70.6952 40.4109 70.5309 40.0786ZM42.492 39.1457C42.403 39.3176 42.3322 39.5904 42.1427 39.6041C41.9031 39.6041 41.8437 39.3085 41.7684 39.1205C41.3606 38.2071 41.2808 37.1801 41.5424 36.2142C41.6451 35.8475 41.7501 35.4785 41.878 35.1209C41.9213 35.0017 41.9419 34.8023 42.1268 34.8069C42.2683 34.8069 42.3139 34.9696 42.355 35.0865C42.6495 35.8314 42.9439 36.5763 42.9028 37.4313C42.9241 38.0303 42.7803 38.6235 42.4874 39.1457H42.492ZM28.1119 35.8864C28.7327 35.1988 29.5841 35.043 30.4401 34.9696C32.0454 34.8085 33.6621 35.1326 35.0828 35.9002C35.5115 36.1398 35.9645 36.3326 36.4341 36.4755C37.5274 36.7826 38.0844 36.6245 39.3421 35.7397C39.373 35.9953 39.3483 36.2546 39.2694 36.4996C39.1906 36.7446 39.0596 36.9695 38.8855 37.1585C38.0798 38.1349 36.708 38.4512 35.3407 37.9401C34.5943 37.6582 33.8753 37.3029 33.1518 36.9614C32.4188 36.5862 31.599 36.4152 30.7779 36.4663C30.5237 36.4816 30.2774 36.5604 30.0612 36.6955C29.941 36.7642 29.8454 36.8691 29.788 36.9954C29.7307 37.1218 29.7144 37.2631 29.7416 37.3992C29.7454 37.5379 29.8011 37.6701 29.8975 37.7694C29.9939 37.8688 30.1241 37.9281 30.2621 37.9355C30.4903 37.9584 30.6615 38.0616 30.4081 38.261C29.9242 38.6415 29.381 38.9005 28.7396 38.7377C27.4751 38.41 27.1623 36.9499 28.1028 35.8864H28.1119ZM54.9182 38.7698C54.5599 38.6898 54.2228 38.5335 53.9298 38.3114C53.8813 38.2845 53.8416 38.2439 53.8156 38.1946C53.7897 38.1454 53.7786 38.0896 53.7838 38.0341C53.802 37.9057 53.9093 37.9264 53.9938 37.9241C54.0626 37.929 54.1318 37.9201 54.1971 37.8977C54.2625 37.8753 54.3227 37.84 54.3742 37.7938C54.4257 37.7477 54.4675 37.6916 54.497 37.6289C54.5266 37.5662 54.5433 37.4983 54.5461 37.429C54.5669 37.2725 54.5365 37.1135 54.4595 36.9759C54.3826 36.8382 54.2632 36.7294 54.1193 36.6657C53.5418 36.3357 52.9187 36.4159 52.307 36.5328C51.33 36.723 50.4809 37.2365 49.593 37.6559C48.861 38.0371 48.036 38.2009 47.2146 38.1281C46.0254 37.9905 44.9822 36.8858 45.0416 35.6664C46.2559 36.982 47.5524 36.7391 48.8854 36.0813C49.8669 35.5976 50.8507 35.1163 51.9577 34.9994C53.0078 34.8506 54.0768 34.9122 55.1031 35.1805C55.9796 35.4372 56.4726 36.0583 56.6895 36.9087C56.9405 37.9424 55.9568 38.9647 54.9091 38.7698H54.9182Z" fill="#E9BAD2"/>
</svg>
