<svg id="Layer_1" data-name="Layer 1" xmlns="http://www.w3.org/2000/svg" viewBox="0 0 566.93 566.93"><defs><style>.cls-1{fill:#233565;}</style></defs><path class="cls-1" d="M385.17,513a16.52,16.52,0,0,0-2.36-4.06c-6.26-9.63-14.72-17.07-23.75-24-14.69-11.24-29.41-22.46-41.09-37.06a72.46,72.46,0,0,1-16.18-40.52c-1-12.47,1.17-24.58,4.56-36.53,2-7,5.3-13.28,9-19.44,1.72-2.87.93-4.2-2.38-4.29a28.2,28.2,0,0,0-17.42,5.64c-11.91,8.51-16.77,20.68-17.3,34.87-.43,11.76,2.69,22.83,7,33.64.41,1,1.74,7.11,1.74,7.11-4.67-1.65-13.31-5.94-22.67-10.87l.14.17c-6-2.88-11.62-6.12-17.39-9-9.1-4.59-18.5-8.51-28.87-8.7-17.55-.33-30.89,7.62-40.82,21.72a16.42,16.42,0,0,0-3.1,12.51c1.33-.52,2.55-.89,3.68-1.46a62.36,62.36,0,0,1,20.73-6.16,96.65,96.65,0,0,1,29.3,1c24.53,4.43,46.79,14.43,67.8,27.51a32.09,32.09,0,0,1,3.28,2.69,15.06,15.06,0,0,1-4.61-1.1A145.09,145.09,0,0,0,260,449.13c-7.86-.63-15.67-.69-23.06,2.15-17.54,6.74-28.64,19-31,38.12a15.17,15.17,0,0,0,.3,3.33,16.64,16.64,0,0,0,3.43-1.34c3.47-2.37,6.72-5.06,10.26-7.31C231,477,243,471.84,256,469.91a101.36,101.36,0,0,1,37.08,1.64c1,.22,2,.5,3,.75-2.28.75-4.47.91-6.57,1.44-18.25,4.55-30.13,18.83-32.71,37.47-.22,1.59.14,3.25.27,5.58a114.21,114.21,0,0,1,20.29-16c17.75-11,36.75-14.42,57.11-9.51,9.81,2.36,18.48,7.28,27,12.51,6.85,4.2,13.8,8.26,20.74,12.31a8.52,8.52,0,0,0,2.6.5C384.92,515.4,385.48,514.05,385.17,513Z"/><path class="cls-1" d="M364.54,337.91h0l0,0Z"/><path class="cls-1" d="M181.76,54A16.71,16.71,0,0,0,184.12,58c6.26,9.63,14.72,17.07,23.75,24,14.69,11.24,29.41,22.46,41.09,37.06a72.46,72.46,0,0,1,16.18,40.52c1,12.47-1.17,24.58-4.56,36.53-2,7-5.3,13.28-9,19.44-1.72,2.87-.93,4.2,2.38,4.29a28.27,28.27,0,0,0,17.42-5.64c11.91-8.51,16.77-20.68,17.3-34.87.43-11.77-2.69-22.83-7-33.64-.41-1-1.74-7.12-1.74-7.12,4.67,1.66,13.31,6,22.67,10.88-.05,0-.09-.11-.14-.17,6,2.88,11.62,6.12,17.39,9,9.1,4.59,18.5,8.51,28.87,8.7,17.54.33,30.89-7.62,40.81-21.72a16.38,16.38,0,0,0,3.11-12.51c-1.33.52-2.55.89-3.68,1.46a62.59,62.59,0,0,1-20.73,6.16,96.65,96.65,0,0,1-29.3-1c-24.53-4.43-46.79-14.44-67.8-27.51a32.09,32.09,0,0,1-3.28-2.69,15.06,15.06,0,0,1,4.61,1.1A145.09,145.09,0,0,0,307,117.8c7.86.63,15.67.69,23.06-2.15,17.54-6.74,28.64-19,31-38.12a15.81,15.81,0,0,0-.3-3.33,16,16,0,0,0-3.44,1.34c-3.46,2.37-6.71,5.06-10.25,7.3C335.94,89.89,324,95.09,311,97a101.8,101.8,0,0,1-37.08-1.64c-1-.22-2-.5-3-.75,2.28-.75,4.47-.91,6.57-1.44,18.25-4.55,30.13-18.83,32.71-37.47.22-1.59-.14-3.25-.27-5.58a114.21,114.21,0,0,1-20.29,16c-17.75,11-36.75,14.42-57.11,9.51-9.81-2.36-18.48-7.28-27-12.51-6.85-4.2-13.8-8.26-20.74-12.31a8.28,8.28,0,0,0-2.6-.5C182,51.53,181.45,52.88,181.76,54Z"/><path class="cls-1" d="M298.65,242.89h0Z"/><path class="cls-1" d="M329.84,291.18h0a55.43,55.43,0,0,0-.61-9.16,50.28,50.28,0,0,0-13.1-27.46,45,45,0,0,0-17.45-11.66c-14.16,23.07-29.32.1-29.39,0l-4.54,1.62a44,44,0,0,0-19.47,17.17,51.3,51.3,0,0,0-8.19,28.21h0V290h0a50,50,0,0,0,.38,5.69c1.5,12.18,7,22.6,15.45,31.41a82,82,0,0,0,29.93,19.42,2.63,2.63,0,0,0,1.83-.09c11.06-4.74,21.41-10.6,29.66-19.57,9.56-10.38,15.19-22.11,15.49-35.58h0v-.06Zm-46.46,13.34c-10.34,0-39.19-14-39.19-14s24.67,6.89,39.28,6.89,39.09-6.89,39.09-6.89S293.72,304.52,283.38,304.52Z"/></svg>