<svg id="badan" xmlns="http://www.w3.org/2000/svg" viewBox="0 0 371.66 471.35"><defs><style>.cls-1{fill:#552e36;stroke:#010101;stroke-miterlimit:10;}</style></defs><path class="cls-1" d="M212.52,208.2s-2.3,22-3.1,29c-.75,6.54-5.48,26.15-5.48,26.15l1,10s-11.17,3.93-20.47,6.17c-20.07,4.85-22.6,3.9-22.6,3.9l-2.33-9.64A100.55,100.55,0,0,1,148,249.31c-3-10-2.75-22.66-2.94-25.6-.7-11,5.72-82.83,15.44-129.37,4-19.39,9.73-23.58,14.56-27.26,6.9-5.27,31.08-7.64,37.8,20.14C222.12,125.35,212.52,208.2,212.52,208.2Z"/><path class="cls-1" d="M203.94,263.35s-17.58,8-44.43,10.39"/></svg>