<svg width="80" height="98" viewBox="0 0 80 98" fill="none" xmlns="http://www.w3.org/2000/svg">
<path d="M22.8484 80.801C21.9622 80.5453 21.1528 80.0753 20.4918 79.4328C18.4426 77.6231 17.8249 75.3398 18.4163 72.7495C18.8964 70.6446 21.1534 68.7326 23.3021 68.4987C24.1413 68.4225 24.9831 68.615 25.7055 69.0483C25.7865 69.0785 25.8554 69.1342 25.9019 69.207C25.9484 69.2798 25.9698 69.3657 25.9631 69.4518C25.9338 69.6564 25.7318 69.6067 25.5943 69.6389C23.7968 70.057 22.4766 71.4749 22.4239 73.0536C22.3566 75.0124 23.5187 76.6846 25.4245 77.1465C28.8671 77.9885 31.8413 77.0442 34.3091 74.5446C35.5892 73.2062 36.585 71.623 37.2365 69.8903C37.5293 70.4253 37.3888 70.9779 37.3888 71.5041C37.3888 74.948 35.8929 77.6172 33.2904 79.8157C31.5808 81.2512 29.596 82.0376 27.5585 82.7568C25.1756 83.6134 23.106 84.8705 21.4813 86.8293C20.4742 88.0367 19.7424 89.3523 19.8185 90.9954C19.9063 92.8693 22.0697 94.4071 23.9169 93.1646C24.2652 92.9307 24.3062 93.0418 24.3325 93.378C24.4496 94.7463 23.1616 96.0765 21.6159 96.1817C19.5989 96.3191 17.6991 95.0854 16.7506 92.9921C15.5416 90.3229 15.9719 87.7941 17.4444 85.3646C18.5334 83.5608 20.2254 82.4411 21.9848 81.412C22.1955 81.2863 22.4034 81.1518 22.6112 81.0173C22.6698 80.9822 22.7196 80.915 22.8484 80.801Z" fill="#9AC552"/>
<path d="M56.8326 80.8009C57.7224 80.5476 58.5352 80.0775 59.1979 79.4327C61.2471 77.623 61.8648 75.3397 61.2734 72.7495C60.7933 70.6445 58.5392 68.7325 56.3876 68.4986C55.5493 68.4226 54.7085 68.6151 53.9871 69.0483C53.9059 69.0784 53.8366 69.1339 53.7896 69.2067C53.7427 69.2794 53.7205 69.3654 53.7266 69.4517C53.7588 69.6564 53.9578 69.6067 54.0954 69.6388C55.8958 70.0569 57.216 71.4748 57.2687 73.0535C57.3361 75.0123 56.171 76.6845 54.2652 77.1465C50.8226 77.9884 47.8513 77.0441 45.3835 74.5445C44.1009 73.2086 43.1022 71.6274 42.4473 69.8961C42.1546 70.4311 42.2951 70.9836 42.2922 71.5099C42.2922 74.9538 43.791 77.623 46.4052 79.8215C48.1118 81.257 50.0966 82.0434 52.1341 82.7626C54.5111 83.6016 56.5808 84.8705 58.2055 86.8205C59.2125 88.0279 59.9415 89.3435 59.8653 90.9865C59.7775 92.8605 57.6171 94.3983 55.767 93.1558C55.4216 92.9219 55.3806 93.033 55.3513 93.3692C55.2371 94.7374 56.5223 96.0676 58.0679 96.1729C60.0878 96.3103 61.9877 95.0765 62.9362 92.9833C64.1452 90.3141 63.7119 87.7852 62.2424 85.3558C61.1534 83.5519 59.4584 82.4322 57.702 81.4031C57.4883 81.2774 57.2805 81.1429 57.0755 81.0085C57.0111 80.9821 56.9614 80.9149 56.8326 80.8009Z" fill="#9AC552"/>
<path d="M77.7576 45.2535C77.8513 46.9375 76.0714 48.3759 74.8302 48.4022C72.7313 48.446 71.4461 46.917 71.4169 45.3003C71.3817 43.3269 72.6844 41.985 74.6751 41.9412C76.3729 41.9031 77.7313 43.3678 77.7576 45.2535Z" fill="#9AC552"/>
<path d="M5.34837 48.3785C3.88467 48.3785 2.23947 46.8144 2.23947 45.4287C2.23947 43.4202 3.59486 41.9204 5.38935 41.9204C5.81285 41.9128 6.2335 41.9909 6.62588 42.1502C7.01826 42.3096 7.37421 42.5467 7.67221 42.8473C7.9702 43.1479 8.20406 43.5057 8.35962 43.8992C8.51519 44.2926 8.58924 44.7135 8.57729 45.1363C8.48947 47.139 7.27167 48.2207 5.34837 48.3785Z" fill="#9AC552"/>
<path d="M75.5913 33.2231C75.415 31.9294 75.1648 30.6468 74.8419 29.3816C74.4086 27.5111 73.8131 25.6819 73.0621 23.9146C70.4115 17.674 66.0641 12.2993 60.5123 8.39933C55.3581 4.72908 49.3152 2.50145 43.0094 1.94708C39.2782 1.63049 35.5204 1.92677 31.8852 2.82414C23.5656 4.80045 16.7867 9.15945 11.5486 15.9011C8.97125 19.2161 7.01911 22.9716 5.78746 26.9843C5.05999 29.2511 4.55604 31.5835 4.28278 33.9482C4.11411 35.0641 4.02411 36.1905 4.01346 37.319C3.95491 37.5149 3.86123 37.7137 4.03395 37.9037H9.62528C9.74823 37.8628 9.71603 37.7546 9.71896 37.6669C9.87465 34.5323 10.4597 31.4337 11.4578 28.4577C13.466 22.4849 16.8296 17.5003 21.8267 13.6208C26.8238 9.74123 32.538 7.97542 38.7412 7.53981C41.5574 7.34101 44.3355 7.74153 47.0843 8.34378C52.2892 9.48104 56.7242 12.0684 60.5708 15.6526C64.1188 18.9592 66.5603 23.02 68.2465 27.5485C68.8203 29.2005 69.3089 30.8808 69.7102 32.5829C69.999 34.2674 70.1945 35.9666 70.2957 37.6727C70.3132 37.9388 70.4684 37.9183 70.644 37.9183C72.3156 37.9183 73.9871 37.9183 75.6587 37.9183C75.9368 37.9183 75.9836 37.8365 75.9865 37.5616C75.9671 36.1074 75.835 34.6569 75.5913 33.2231Z" fill="#9AC552"/>
</svg>
