<svg id="Layer_1" data-name="Layer 1" xmlns="http://www.w3.org/2000/svg" viewBox="0 0 566.93 566.93"><defs><style>.cls-1{fill:#80cce8;}</style></defs><path class="cls-1" d="M248.32,275.29S368.43,398,350.71,432.71a57.77,57.77,0,0,1-27.83,25.45s4.29-18.72.67-31.41c-1.89-6.64-3.77-14.17-13.94-31C283.94,353.4,234,286.32,234,286.32Z"/><path class="cls-1" d="M265.9,458S145.79,335.26,163.51,300.56a57.82,57.82,0,0,1,27.83-25.46s-4.29,18.73-.67,31.42c1.89,6.63,3.77,14.16,14,31C230.28,379.86,280.22,447,280.22,447Z"/><path class="cls-1" d="M292.72,109S412.83,231.67,395.1,266.37a57.76,57.76,0,0,1-27.83,25.46s4.29-18.73.68-31.42c-1.9-6.63-3.78-14.17-13.95-31C328.34,187.07,278.4,120,278.4,120Z"/><path class="cls-1" d="M310.29,291.64S190.18,168.92,207.91,134.22a57.76,57.76,0,0,1,27.83-25.46s-4.29,18.73-.68,31.42c1.89,6.63,3.78,14.17,13.95,31,25.66,42.38,75.6,109.47,75.6,109.47Z"/></svg>