<svg id="Layer_1" data-name="Layer 1" xmlns="http://www.w3.org/2000/svg" viewBox="0 0 297.33 522.01"><defs><style>.cls-1{fill:#be986a;}</style></defs><path class="cls-1" d="M113.52,252.83S233.63,375.55,215.91,410.25a57.82,57.82,0,0,1-27.83,25.46s4.29-18.73.67-31.42c-1.89-6.63-3.78-14.17-13.95-31C149.14,331,99.2,263.86,99.2,263.86Z"/><path class="cls-1" d="M131.1,435.52S11,312.8,28.71,278.1a57.82,57.82,0,0,1,27.83-25.46s-4.29,18.73-.67,31.42c1.89,6.63,3.77,14.17,13.94,31,25.66,42.38,75.61,109.47,75.61,109.47Z"/><path class="cls-1" d="M157.92,86.49S278,209.21,260.3,243.91a57.82,57.82,0,0,1-27.83,25.46s4.29-18.73.67-31.42c-1.89-6.63-3.77-14.16-13.94-31-25.66-42.38-75.6-109.47-75.6-109.47Z"/><path class="cls-1" d="M175.49,269.18S55.38,146.46,73.1,111.76a57.77,57.77,0,0,1,27.84-25.45s-4.29,18.72-.68,31.41c1.89,6.64,3.78,14.17,13.95,31,25.66,42.38,75.6,109.47,75.6,109.47Z"/></svg>