<svg id="Layer_1" data-name="Layer 1" xmlns="http://www.w3.org/2000/svg" viewBox="0 0 247.84 440.92"><defs><style>.cls-1{fill:#9ac552;}</style></defs><path class="cls-1" d="M93.88,213.16s101.83,104,86.8,133.45a49,49,0,0,1-23.59,21.58s3.63-15.87.57-26.63c-1.61-5.63-3.2-12-11.82-26.25-21.76-35.93-64.1-92.81-64.1-92.81Z"/><path class="cls-1" d="M108.78,368S7,264,22,234.58A49,49,0,0,1,45.58,213s-3.64,15.87-.57,26.63c1.6,5.63,3.2,12,11.82,26.25,21.75,35.93,64.09,92.81,64.09,92.81Z"/><path class="cls-1" d="M131.52,72.14s101.82,104,86.8,133.46a49,49,0,0,1-23.6,21.58s3.64-15.88.57-26.64c-1.6-5.62-3.2-12-11.82-26.25-21.75-35.92-64.09-92.8-64.09-92.8Z"/><path class="cls-1" d="M146.42,227S44.59,123,59.62,93.57A49,49,0,0,1,83.21,72s-3.63,15.87-.57,26.63c1.61,5.62,3.2,12,11.83,26.25,21.75,35.93,64.09,92.8,64.09,92.8Z"/></svg>