<?xml version="1.0" encoding="utf-8"?>
<!-- Generator: Adobe Illustrator 25.0.0, SVG Export Plug-In . SVG Version: 6.00 Build 0)  -->
<svg version="1.1" id="Layer_1" xmlns="http://www.w3.org/2000/svg" xmlns:xlink="http://www.w3.org/1999/xlink" x="0px" y="0px"
	 viewBox="0 0 247.84 440.92" enable-background="new 0 0 247.84 440.92" xml:space="preserve">
<path fill="#233565" d="M93.88,213.16c0,0,101.82,104.04,86.8,133.45c0,0-6.87,14.44-23.59,21.58c0,0,3.64-15.87,0.57-26.63
	c-1.6-5.62-3.2-12.01-11.82-26.25c-21.75-35.93-64.09-92.8-64.09-92.8L93.88,213.16z"/>
<path fill="#233565" d="M108.78,368.03c0,0-101.82-104.04-86.8-133.45c0,0,6.87-14.44,23.59-21.58c0,0-3.64,15.87-0.57,26.63
	c1.6,5.62,3.2,12.01,11.82,26.25c21.75,35.93,64.09,92.8,64.09,92.8L108.78,368.03z"/>
<path fill="#233565" d="M131.52,72.14c0,0,101.82,104.04,86.8,133.45c0,0-6.87,14.44-23.59,21.58c0,0,3.64-15.87,0.57-26.63
	c-1.6-5.62-3.2-12.01-11.82-26.25c-21.75-35.93-64.09-92.8-64.09-92.8L131.52,72.14z"/>
<path fill="#233565" d="M146.42,227.02c0,0-101.82-104.04-86.8-133.45c0,0,6.87-14.44,23.59-21.58c0,0-3.64,15.87-0.57,26.63
	c1.6,5.62,3.2,12.01,11.82,26.25c21.75,35.93,64.09,92.8,64.09,92.8L146.42,227.02z"/>
</svg>
