<svg width="75" height="133" viewBox="0 0 75 133" fill="none" xmlns="http://www.w3.org/2000/svg">
<path d="M28.4095 64.2988C28.4095 64.2988 59.2217 95.6817 54.6764 104.553C54.6764 104.553 52.5975 108.909 47.5378 111.062C47.5378 111.062 48.6393 106.275 47.7102 103.03C47.2261 101.334 46.7419 99.4069 44.1333 95.1116C37.5515 84.2736 24.7388 67.1192 24.7388 67.1192L28.4095 64.2988Z" fill="#233565"/>
<path d="M32.9184 111.014C32.9184 111.014 2.10618 79.6307 6.65145 70.7594C6.65145 70.7594 8.73042 66.4037 13.7901 64.25C13.7901 64.25 12.6886 69.0371 13.6176 72.2827C14.1018 73.978 14.586 75.9054 17.1945 80.2008C23.7764 91.0388 36.5891 108.193 36.5891 108.193L32.9184 111.014Z" fill="#233565"/>
<path d="M39.7999 21.7598C39.7999 21.7598 70.6121 53.1426 66.0668 62.0139C66.0668 62.0139 63.9878 66.3696 58.9281 68.5233C58.9281 68.5233 60.0297 63.7363 59.1006 60.4906C58.6164 58.7954 58.1323 56.8679 55.5237 52.5725C48.9419 41.7345 36.1292 24.5801 36.1292 24.5801L39.7999 21.7598Z" fill="#233565"/>
<path d="M44.3088 68.4784C44.3088 68.4784 13.4966 37.0956 18.0418 28.2243C18.0418 28.2243 20.1208 23.8686 25.1805 21.7148C25.1805 21.7148 24.079 26.5019 25.008 29.7476C25.4922 31.4428 25.9764 33.3703 28.5849 37.6657C35.1668 48.5037 47.9795 65.658 47.9795 65.658L44.3088 68.4784Z" fill="#233565"/>
</svg>
