<svg width="75" height="133" viewBox="0 0 75 133" fill="none" xmlns="http://www.w3.org/2000/svg">
<path d="M28.4095 64.2988C28.4095 64.2988 59.2247 95.6696 54.6764 104.553C53.0939 107.457 50.5805 109.749 47.5377 111.062C47.5377 111.062 48.6362 106.275 47.7102 103.03C47.223 101.331 46.7419 99.41 44.1333 95.1116C37.5484 84.2736 24.7357 67.1162 24.7357 67.1162L28.4095 64.2988Z" fill="#D86F3A"/>
<path d="M32.9184 111.005C32.9184 111.005 2.11832 79.6337 6.65753 70.7594C8.23926 67.8556 10.7515 65.5638 13.7932 64.25C13.7932 64.25 12.6917 69.0371 13.6207 72.2827C14.1049 73.981 14.5891 75.9024 17.1976 80.2008C23.7795 91.0388 36.5922 108.196 36.5922 108.196L32.9184 111.005Z" fill="#D86F3A"/>
<path d="M39.7998 21.7598C39.7998 21.7598 70.6121 53.1305 66.0668 62.0169C64.4835 64.9218 61.969 67.2137 58.9251 68.5263C58.9251 68.5263 60.0266 63.7363 59.0976 60.4906C58.6134 58.7954 58.1292 56.8709 55.5207 52.5725C48.9388 41.7375 36.1261 24.5801 36.1261 24.5801L39.7998 21.7598Z" fill="#D86F3A"/>
<path d="M44.3088 68.4733C44.3088 68.4733 13.4936 37.1025 18.0419 28.2252C19.6249 25.3219 22.1383 23.0312 25.1806 21.7188C25.1806 21.7188 24.0821 26.5058 25.0081 29.7515C25.4953 31.4467 25.9764 33.3712 28.588 37.6696C35.1699 48.5076 47.9826 65.662 47.9826 65.662L44.3088 68.4733Z" fill="#D86F3A"/>
</svg>
