<svg width="70" height="105" viewBox="0 0 70 105" fill="none" xmlns="http://www.w3.org/2000/svg">
<path d="M10.1161 79.0487C7.88256 74.9384 7.07421 70.7456 7.57529 66.2839C7.89335 63.3723 8.73992 60.5428 10.0736 57.9337C11.773 54.6016 14.2359 51.951 17.2802 49.7791C20.731 47.3172 24.5624 45.7702 28.6892 44.9543C33.1269 44.0637 37.7069 44.1611 42.1026 45.2396C45.0515 45.9364 47.9134 46.9591 50.6351 48.2887C54.4937 50.2183 57.9298 52.8931 60.7442 56.158C62.8194 58.5161 64.2754 61.1832 65.3839 64.0791C65.4737 64.3149 65.6014 64.52 65.3957 64.836C64.7434 64.0154 64.1028 63.2183 63.4718 62.4142C59.4537 57.3111 54.3389 53.8988 47.9454 52.6537C41.879 51.4384 35.5869 52.0643 29.8805 54.4506C26.5974 55.7949 23.5619 57.6757 20.8988 60.0159C17.9905 62.5291 15.5466 65.5317 13.6781 68.8874C11.9257 72.0502 10.7214 75.4856 10.1161 79.0487Z" fill="#9AC552"/>
<path d="M66.509 55.1408C65.7476 52.9437 64.8118 50.8106 63.7105 48.7619C61.8411 45.3272 59.5937 42.1112 57.0097 39.1736C55.1842 37.0717 53.1743 35.1366 51.0038 33.3914C47.2221 30.3823 43.1685 27.786 38.7132 25.8146C35.2671 24.2865 31.7241 23.1027 28.0156 22.5131C23.1868 21.7373 18.3934 21.8057 13.7702 23.6922C13.7031 23.7348 13.6252 23.7574 13.5457 23.7574C13.4662 23.7574 13.3883 23.7348 13.3212 23.6922C15.2215 20.9874 17.4433 18.6528 20.3268 16.9785C25.1651 14.1487 30.3555 13.7006 35.7398 14.816C40.181 15.731 43.9982 17.9217 47.5081 20.7256C51.4387 23.8809 54.5989 27.7129 57.3832 31.8562C60.6922 36.7966 63.3512 42.0789 65.0672 47.8045C65.723 49.9308 66.2526 52.0939 66.6531 54.2824C66.6919 54.4275 66.6991 54.5791 66.6742 54.7272C66.6494 54.8752 66.593 55.0163 66.509 55.1408Z" fill="#9AC552"/>
<path d="M45.7378 102.317L41.7173 88.4318C40.7388 85.0502 39.7012 81.5577 37.4203 78.8694C34.0404 74.8865 28.018 73.3937 23.1608 75.3322C20.8421 76.2589 18.7456 77.9875 17.8829 80.3268C16.6609 83.6541 18.4596 87.7692 21.7214 89.1393C24.9831 90.5094 29.1856 88.9034 30.703 85.701C30.703 85.7741 32.4355 85.3685 33.277 85.8119C34.1184 86.2552 34.8062 86.9414 35.4585 87.6347C39.6421 92.0705 45.4352 102.093 45.7378 102.317Z" fill="#9AC552"/>
</svg>
