<svg id="Layer_1" data-name="Layer 1" xmlns="http://www.w3.org/2000/svg" viewBox="0 0 296.16 445.26"><defs><style>.cls-1{fill:#e9bad2;}</style></defs><path class="cls-1" d="M42.8,335.21C33.35,317.78,29.93,300,32.05,281.08a102.35,102.35,0,0,1,10.57-35.41c7.19-14.13,17.61-25.37,30.49-34.58,14.6-10.44,30.81-17,48.27-20.46a130.16,130.16,0,0,1,56.75,1.21,172.5,172.5,0,0,1,36.1,12.93A137.94,137.94,0,0,1,257,238.14c8.78,10,14.94,21.31,19.63,33.59.38,1,.92,1.87.05,3.21-2.76-3.48-5.47-6.86-8.14-10.27-17-21.64-38.64-36.11-65.69-41.39a131,131,0,0,0-76.43,7.62,135.09,135.09,0,0,0-38,23.6,139.2,139.2,0,0,0-30.55,37.62A136.06,136.06,0,0,0,42.8,335.21Z"/><path class="cls-1" d="M281.39,233.83a185.42,185.42,0,0,0-11.84-27.05,222.89,222.89,0,0,0-28.35-40.66,198.13,198.13,0,0,0-25.41-24.52c-16-12.76-33.15-23.77-52-32.13-14.58-6.48-29.57-11.5-45.26-14-20.43-3.29-40.71-3-60.27,5a1.77,1.77,0,0,1-1.9,0C64.4,89,73.8,79.1,86,72c20.47-12,42.43-13.9,65.21-9.17C170,66.71,186.15,76,201,87.89c16.63,13.38,30,29.63,41.78,47.2,14,20.95,25.25,43.35,32.51,67.63A240,240,0,0,1,282,230.19,4.46,4.46,0,0,1,281.39,233.83Z"/><path class="cls-1" d="M193.51,433.88,176.5,375c-4.14-14.34-8.53-29.15-18.18-40.55-14.3-16.89-39.78-23.22-60.33-15-9.81,3.93-18.68,11.26-22.33,21.18C70.49,354.74,78.1,372.19,91.9,378s31.58-1,38-14.58c0,.31,7.33-1.41,10.89.47s6.47,4.79,9.23,7.73C167.72,390.43,192.23,432.93,193.51,433.88Z"/></svg>