<svg id="Layer_1" data-name="Layer 1" xmlns="http://www.w3.org/2000/svg" viewBox="0 0 566.93 566.93"><defs><style>.cls-1{fill:#80cce8;}</style></defs><path class="cls-1" d="M371.15,190.52a29,29,0,0,1,1.36,3.63,41.57,41.57,0,0,1-1,22.17,33.35,33.35,0,0,1-6.1,11.87c-5.42,6.43-12.66,9-20.77,8.93-4.21-.05-8.41-1.15-12.6-1.85-2.32-.39-4.61-.9-6.9-1.43-1.08-.25-2.12-.69-3.64-1.2l2-1.76c3.3-2.79,6.84-5.36,9.84-8.45a40.14,40.14,0,0,1,13.41-8.71c8.27-3.53,15.56-8.38,20.42-16.18a66.27,66.27,0,0,0,3.28-6.72Z"/><path class="cls-1" d="M233.22,321.89c-.55-.82-1.43-1.58-1.58-2.47a49.81,49.81,0,0,1-.08-18.38A40.66,40.66,0,0,1,236.25,289c5.28-9.37,13.75-13.07,24-12.59,5.53.27,11,1.77,16.49,2.67,2.08.34,4.18.54,6.85.87-1,1-1.57,1.7-2.29,2.32-3.79,3.25-7.43,6.7-11.44,9.65a66.31,66.31,0,0,1-9.71,5.53c-3.69,1.82-7.67,3.09-11.24,5.09-7.55,4.24-12.83,10.45-15,19Z"/><path class="cls-1" d="M293.91,332.92c1.28-1.64,2.21-2.86,3.18-4.05,2.23-2.72,4.65-5.31,6.7-8.16,3.12-4.36,7.55-7.15,11.64-10.37a84.61,84.61,0,0,0,10.14-8.81c2.43-2.65,4-6.08,6-9.12a14.32,14.32,0,0,1,1.84-1.9c.54.63,1.32,1.18,1.58,1.91,2.7,7.51,4.18,15.13,2.06,23.09-2.66,10-13.81,19.31-25.5,18.78q-7.71-.35-15.41-.77A12.59,12.59,0,0,1,293.91,332.92Z"/><path class="cls-1" d="M270.18,223a28.16,28.16,0,0,1-2.35-3.89,35.56,35.56,0,0,1-.76-23.58c3.29-11.19,15.18-18.39,26.69-16.56,3.48.55,6.93,1.3,10.37,2.05,2.74.59,3.06,1.44,1.3,3.63-3.27,4.05-6.46,8.18-10,12-1.71,1.82-4.18,2.94-6.32,4.35-5.55,3.66-11,7.48-14.56,13.24C273,216.71,271.86,219.54,270.18,223Z"/><path class="cls-1" d="M313.76,265.92c.54-2.93,1.2-6.6,1.9-10.26.09-.45.3-1.07.64-1.24s1,.19,1.21.52c3.48,5.35,7.5,10.46,10.2,16.18s3.65,12,1.31,18.24a24.64,24.64,0,0,1-6.63,10.25c-3.71,3.23-7.42,6.47-11.21,9.6a3.27,3.27,0,0,1-2.54.63c-.52-.15-.94-1.31-1.08-2.07-1-5.49-1.81-11-2.89-16.47a9.65,9.65,0,0,1,.9-5.95C308.23,279.14,310.83,272.89,313.76,265.92Z"/><path class="cls-1" d="M301.93,228c1.08,1.75,2.31,3.57,3.38,5.48,1.69,3,3.26,6.1,4.89,9.15,2.81,5.24,2.53,10.77,1.53,16.35-1.5,8.45-5.72,15.86-9.2,23.54-.75,1.66-2,1.77-3.08.27a35.53,35.53,0,0,1-2.91-4.69c-2-4.07-4.19-8.11-5.89-12.33a23.23,23.23,0,0,1,.5-18.68c2.3-5.16,4.84-10.21,7.36-15.26C299.25,230.4,299.28,228.26,301.93,228Z"/><path class="cls-1" d="M263,324c1.44,1.76,2.59,2.94,3.47,4.29,2,3,3.72,6.16,5.69,9.16A26.48,26.48,0,0,1,276,359.32c-.93,3.59-3.33,6.82-5.17,10.16-1.41,2.57-3,5.06-4.49,7.57-1.26,2.09-2.13,2.27-3.48.23-2.41-3.6-4.65-7.33-6.69-11.15a25.21,25.21,0,0,1-3-7.69,26.23,26.23,0,0,1,2.2-14.59c2.07-4.87,3.94-9.83,5.87-14.76C261.79,327.66,262.22,326.18,263,324Z"/><path class="cls-1" d="M285.16,256.29a11.34,11.34,0,0,1-1.68-1.59c-3.82-5.76-7.85-11.41-10-18.08-1.49-4.62-.67-9.05.86-13.57,2.75-8.14,8.31-13.7,15.45-18a9.73,9.73,0,0,1,2.57-1.26c1.41-.35,2.93-.22,3.23,1.56.69,4.12,1.16,8.28,1.78,12.41,1,6.71-1.86,12.37-4.95,17.91-3.43,6.15-6.31,12.45-6.92,19.57A6.26,6.26,0,0,1,285.16,256.29Z"/><path class="cls-1" d="M249.1,352.68a10,10,0,0,1-2.22-1.35c-2.92-3.32-5.66-6.75-7.13-11-.83-2.42-2.25-4.66-2.86-7.11-2.16-8.65.83-15.93,6.71-22.13A38.32,38.32,0,0,1,258.08,302c3.15-1.2,3.63-.65,3.37,2.69-.4,4.89-.52,9.79-.82,14.69a9.67,9.67,0,0,1-.6,2.76c-3.07,8-6.23,16.05-9.25,24.1A63.29,63.29,0,0,0,249.1,352.68Z"/><path class="cls-1" d="M330.13,331.91c-1.74,6.83-5.85,11.41-10.21,15.81a42.57,42.57,0,0,1-25.48,12.42c-3.34.44-4.08.11-5.91-2.74-3-4.64-6-9.23-9-13.87-1.53-2.42-1.11-3.42,1.72-3.91,5-.87,9.81-2.84,15.13-2.25,5,.57,10.11.53,15.16.6a28.62,28.62,0,0,0,15.89-4.53C328.16,333,328.92,332.59,330.13,331.91Z"/><path class="cls-1" d="M281.36,353.74c1.66,2.74,3.77,5.3,4.89,8.24a101.12,101.12,0,0,1,4.43,15c2.05,9.76-2,17.2-9.81,22.78-4.23,3-8.72,5.73-13.12,8.54a5.67,5.67,0,0,1-1.58.44c-.14-.54-.49-1.13-.39-1.62.45-2,1.31-3.94,1.53-6,.49-4.66.85-9.35,1-14A24.61,24.61,0,0,1,271.87,375c2.46-4.16,4.74-8.45,6.79-12.82.88-1.87,1-4.11,1.45-6.18.16-.69.34-1.38.5-2.07Z"/><path class="cls-1" d="M350,161.08c7.31,5.24,14.1,10.1,17.32,18.37a13,13,0,0,1,.21,8c-2.34,9.58-8.85,15.68-17,20.42-2.27,1.33-4.76,2.28-7.71,3.67-.33-1.08-1-2.28-1-3.44.25-4.6.32-9.29,1.28-13.76.72-3.37,2.56-6.53,4.13-9.68,3.16-6.32,4.68-12.78,2.68-19.8C349.69,163.87,350,162.71,350,161.08Z"/><path class="cls-1" d="M307.25,151.7a10.72,10.72,0,0,0,2.22-.22,27.75,27.75,0,0,1,16.26-.6c4,1.12,8.19,2,12,3.74,6.45,2.92,9.84,9.91,9.35,17.31-.41,6.33-3.36,11.64-6.18,17-.67,1.29-1.34.82-2,0-3.47-4.15-7-8.25-10.35-12.51a20.09,20.09,0,0,1-2.31-4.72c-2.65-6.43-6-12.34-12.36-15.81-1.39-.76-2.89-1.3-4.33-2-.67-.31-1.3-.69-1.95-1Z"/><path class="cls-1" d="M274.33,179.59c.6-1.8.82-3.39,1.61-4.63,4-6.23,8.34-12.05,15.05-15.72,9.81-5.38,25.13-2.74,30.18,10.8.72,1.92,1.69,3.75,2.41,5.68a3.24,3.24,0,0,1,.15,2.37c-.24.44-1.4.5-2.15.5-9.29.09-18.35-1.69-27.46-3.22A25.84,25.84,0,0,0,275.9,179,11.42,11.42,0,0,1,274.33,179.59Z"/><path class="cls-1" d="M357.86,239.23c-2,2.49-3.7,5.22-5.94,7.43a41.59,41.59,0,0,1-24.87,12.25,3.37,3.37,0,0,1-2.67-1.28c-3.67-5.77-7.22-11.62-10.72-17.49-.94-1.58-.37-2.78,1.64-2.83a69.73,69.73,0,0,1,10.72.48c4.35.59,8.63,1.74,13,2.49a31.4,31.4,0,0,0,16.11-1.13c.68-.24,1.38-.4,2.07-.59Z"/><path class="cls-1" d="M246.72,274.28a21.14,21.14,0,0,1,1.36-2.63c7-9.91,16.92-14.93,28.54-17.11a3,3,0,0,1,3.62,1.69c2.93,5.6,6,11.13,9,16.71,1.44,2.67.8,3.91-2.15,3.58-5.89-.67-11.79-1.41-17.6-2.54-6.2-1.2-12.33-1.87-18.54-.29-1,.25-2,.44-3,.62A7.51,7.51,0,0,1,246.72,274.28Z"/><path class="cls-1" d="M222.36,381.36c3.59-8.46,8.39-15.93,16.18-21a31.82,31.82,0,0,1,6.67-2.82c1.69-.61,2.45.88,3,2,2.53,4.9,4.88,9.89,7.36,14.82.77,1.51-.12,1.87-1.24,2-8.93,1.31-17.14,4.69-25.13,8.68-1.71.85-3.32,1.91-5,2.75-.58.29-1.64.51-2,.21a2.92,2.92,0,0,1-.72-2.13A43.46,43.46,0,0,1,222.36,381.36Z"/></svg>