<svg width="80" height="71" viewBox="0 0 80 71" fill="none" xmlns="http://www.w3.org/2000/svg">
<path d="M4.57978 32.6505C4.61553 32.6325 7.0372 29.2888 8.79983 28.7644C8.91401 28.7366 9.01968 28.6812 9.10767 28.6031C9.19566 28.525 9.2633 28.4265 9.30472 28.3162C9.77386 27.2831 10.1983 26.2185 11.016 25.4028C12.0414 24.3741 13.2969 24.0021 14.711 24.1702C15.4527 24.2576 16.1877 24.4257 16.9249 24.5624C18.0956 24.7865 19.2081 24.5265 20.2983 24.1343C22.625 23.3282 24.8693 22.3 27.0003 21.064C27.6236 20.7135 28.1243 20.1791 28.4346 19.5334C29.4823 17.2923 32.1341 16.909 34.0308 18.6235C34.7301 19.2742 35.2627 20.0844 35.5834 20.9856C36.0302 22.1532 35.7688 22.8054 34.7903 23.6883C34.5535 23.9013 34.4686 24.0447 34.5669 24.3472C34.8283 25.1316 34.73 25.916 34.5089 26.6959C34.447 26.8848 34.3457 27.0582 34.2117 27.2046C34.0107 27.4422 33.823 27.4086 33.7135 27.106C33.6465 26.92 33.6018 26.725 33.5304 26.5413C33.4294 26.2461 33.3092 25.9579 33.1707 25.6784C32.7239 24.8784 32.3709 24.8134 31.6247 25.3624C31.77 26.7071 31.7968 28.0316 30.6887 29.0177L30.501 28.9997C30.4557 28.6727 30.3848 28.3497 30.2888 28.0338C30.1307 27.6297 29.9371 27.2404 29.7102 26.8707C29.6858 26.8224 29.6499 26.781 29.6057 26.7501C29.5615 26.7191 29.5103 26.6997 29.4567 26.6935C29.4031 26.6873 29.3489 26.6945 29.2988 26.7144C29.2487 26.7344 29.2043 26.7665 29.1696 26.8079C28.8322 27.0881 28.4614 27.3324 28.1307 27.6215C28.0884 27.6767 28.0575 27.7398 28.0399 27.8071C28.0222 27.8745 28.0182 27.9447 28.028 28.0137C28.1352 28.9594 28.1263 29.8894 27.7197 30.7747C27.608 31.019 27.4963 31.2834 27.2103 31.2229L26.1961 29.0154C25.6845 29.43 25.2377 29.7729 24.8177 30.136C24.7395 30.2054 24.744 30.3937 24.7485 30.5282C24.7708 31.3798 24.8579 32.2426 24.4781 33.0449C24.3405 33.2904 24.182 33.5236 24.0045 33.7419L23.866 33.7015C23.6113 33.0292 23.3567 32.3726 23.064 31.6016C22.5144 32.0118 22.0297 32.3659 21.5538 32.7334C20.5195 33.529 19.5097 34.3559 18.2922 34.8736C17.231 35.3219 16.1274 35.2927 15.0238 35.1762C12.5954 34.9185 10.6831 35.7835 9.28908 37.8431C9.59961 37.7333 9.91461 37.6369 10.2162 37.5092C11.3222 36.9971 12.508 36.6802 13.7214 36.5724C14.3865 36.5075 15.0578 36.579 15.6945 36.7824C16.3312 36.9858 16.9201 37.3169 17.4254 37.7557C18.319 38.5199 19.2126 39.2975 20.2961 39.7928C21.0024 40.1393 21.7774 40.3216 22.5636 40.3262C20.5932 39.2819 19.0294 37.7871 17.6488 36.0345C18.7948 35.7566 19.7755 36.1018 20.7116 36.7068C21.3224 37.1169 21.9564 37.4911 22.6105 37.8274C23.1444 38.0896 23.2182 38.0336 23.4527 37.4688C23.5931 37.0838 23.7139 36.6918 23.8146 36.2945C23.8638 36.1242 23.8995 35.9494 23.9643 35.6894C25.0165 36.4446 25.0456 37.5204 25.1506 38.6028C25.6108 38.6633 26.0822 38.7418 26.558 38.7776C26.6429 38.7776 26.7814 38.6342 26.8283 38.5266C27.0271 37.9663 27.2237 37.4061 27.3712 36.8279C27.4449 36.5365 27.6147 36.4805 27.7778 36.6374C28.0609 36.8842 28.2931 37.1841 28.4614 37.5204C28.6155 37.9777 28.732 38.4469 28.8099 38.9233C29.2209 38.9233 29.6588 38.9412 30.0944 38.9098C30.1994 38.9098 30.3469 38.7462 30.3826 38.6297C30.5837 37.9574 30.7557 37.285 30.9523 36.5769C32.0939 36.9579 32.0492 38.0672 32.391 38.9435C32.5536 38.9691 32.72 38.9373 32.8618 38.8535C33.0036 38.7697 33.112 38.6391 33.1684 38.484C33.3918 38.0134 33.5214 37.5047 33.6979 37.0161C33.7515 36.866 33.8297 36.727 33.8967 36.5813C34.0509 36.6732 34.2497 36.7293 34.3435 36.8615C34.7479 37.4061 34.7233 38.0605 34.7591 38.6992C34.7591 38.809 34.8283 38.9793 34.911 39.0129C35.9945 39.4611 36.028 40.4024 35.6058 41.3011C35.0428 42.527 33.9772 43.1769 32.7261 43.4996C32.0534 43.6673 31.3639 43.7583 30.6708 43.7708C29.107 43.8066 27.5186 43.7282 25.9436 43.7932C24.3083 43.8627 22.7579 44.284 21.4309 45.3238C19.6929 46.6864 19.4695 48.0132 20.5217 49.9943C20.8252 50.5232 21.2012 51.0067 21.6387 51.4308C22.1503 51.9597 22.7356 52.4169 23.2829 52.9144C23.8303 53.4119 24.3642 53.9139 24.8602 54.3711C24.6703 53.4881 24.4446 52.5603 24.2748 51.6235C23.8839 49.4609 25.4053 47.296 27.5209 46.9688C28.5741 46.8277 29.6402 47.1106 30.4862 47.7556C31.3322 48.4006 31.8893 49.3553 32.0358 50.4111C32.1966 51.6011 31.4907 52.7889 30.4385 53.0534C30.1777 53.1167 29.9062 53.1221 29.6432 53.0691C29.5607 53.0364 29.4863 52.9863 29.425 52.9221C29.3636 52.8578 29.3169 52.7811 29.288 52.697C29.2545 52.6074 29.384 52.4034 29.4935 52.3295C30.3424 51.7647 30.3178 50.7249 29.4287 50.2094C29.2371 50.0917 29.0221 50.0176 28.7988 49.9922C28.5755 49.9669 28.3495 49.9909 28.1365 50.0627C27.9235 50.1345 27.7288 50.2523 27.5661 50.4077C27.4033 50.5632 27.2766 50.7525 27.1947 50.9624C26.7769 51.9082 26.8104 52.901 26.9713 53.896C27.2572 55.6037 27.6147 57.3025 27.8269 59.0191C28.0503 60.812 27.7487 62.5623 27.1567 64.2633C26.6786 65.6438 26.1961 67.0236 25.7091 68.4026C25.5907 68.732 25.4276 69.0525 25.0076 69.0368C24.827 69.0335 24.6542 68.9627 24.5229 68.8384C24.3915 68.7141 24.311 68.5451 24.2972 68.3645C24.2083 67.7494 24.1695 67.1281 24.181 66.5066C24.2279 64.9872 24.3508 63.4722 23.8504 61.9864C23.609 61.2398 23.2144 60.5524 22.6918 59.9683C22.1693 59.3843 21.5304 58.9166 20.8166 58.5956C19.2863 57.8583 17.6488 57.475 16.0023 57.1142C14.1391 56.6996 12.9573 55.2429 11.2505 54.2501C9.95482 53.4926 8.40888 51.6594 6.97911 49.6424C5.6119 47.928 -2.09098 41.0747 4.57978 32.6505ZM13.4868 28.2803C13.8979 27.6797 14.4899 27.5117 15.169 27.6753C15.7878 27.8232 16.8289 27.1195 16.1877 26.911C15.6538 26.7362 15.1176 26.483 14.5703 26.4471C13.1964 26.3575 12.4078 27.2091 11.8895 28.3655C11.4628 29.3583 13.1092 28.8294 13.4868 28.2803ZM33.0634 20.5082C33.0251 20.4057 32.9764 20.3073 32.9182 20.2147C32.6646 19.947 32.3456 19.7506 31.9929 19.6449C31.6402 19.5391 31.2661 19.5277 30.9076 19.6118C30.6662 19.6732 30.4449 19.7967 30.2655 19.97C30.0861 20.1433 29.9548 20.3604 29.8844 20.6001C29.8574 20.7036 29.8538 20.8119 29.8739 20.917C29.894 21.0221 29.9373 21.1213 30.0006 21.2075C30.09 21.2926 30.396 21.1918 30.5859 21.1223C31.0327 20.9609 31.4483 20.7234 31.8995 20.6001C32.2837 20.5323 32.6734 20.5015 33.0634 20.5082Z" fill="#80CCE8"/>
<path d="M73.0209 49.6424C71.5911 51.6594 70.0452 53.4926 68.7495 54.2501C67.0516 55.2429 65.8609 56.6884 63.9664 57.1075C62.32 57.4728 60.6824 57.8515 59.1521 58.5888C58.4383 58.9099 57.7995 59.3775 57.2769 59.9616C56.7544 60.5456 56.3597 61.2331 56.1183 61.9796C55.6179 63.4654 55.7408 64.9804 55.7855 66.4999C55.7989 67.1213 55.7608 67.7427 55.6715 68.3577C55.6577 68.5384 55.5772 68.7073 55.4459 68.8316C55.3145 68.956 55.1417 69.0267 54.9611 69.0301C54.5411 69.0458 54.378 68.7253 54.2596 68.3958C53.7726 67.0168 53.2901 65.6371 52.812 64.2565C52.2222 62.5556 51.9184 60.8008 52.1418 59.0124C52.3652 57.2957 52.7115 55.597 52.9974 53.8893C53.1627 52.8942 53.1963 51.9014 52.774 50.9557C52.6918 50.746 52.5649 50.557 52.4021 50.4017C52.2394 50.2465 52.0447 50.1289 51.8319 50.0572C51.619 49.9854 51.393 49.9613 51.1699 49.9864C50.9467 50.0115 50.7317 50.0853 50.54 50.2027C49.6464 50.7181 49.6263 51.758 50.4752 52.3227C50.5847 52.3967 50.712 52.6006 50.6808 52.6903C50.6518 52.7743 50.6051 52.8511 50.5438 52.9153C50.4824 52.9795 50.408 53.0297 50.3255 53.0623C50.0625 53.1154 49.791 53.11 49.5302 53.0466C48.478 52.7822 47.7721 51.5944 47.9329 50.4044C48.0794 49.3486 48.6365 48.3939 49.4825 47.7489C50.3285 47.1039 51.3946 46.821 52.4479 46.962C54.5635 47.2892 56.0848 49.4541 55.6939 51.6168C55.5241 52.5536 55.2985 53.4814 55.1086 54.3644C55.6045 53.9162 56.1407 53.4029 56.6835 52.9077C57.2264 52.4124 57.8162 51.953 58.33 51.4241C58.7668 50.9994 59.1428 50.5159 59.447 49.9875C60.4992 48.0042 60.2758 46.6797 58.5378 45.3171C57.2108 44.2772 55.6604 43.8559 54.0228 43.7864C52.459 43.7214 50.8729 43.7999 49.2979 43.764C48.6048 43.7515 47.9154 43.6605 47.2426 43.4928C45.9916 43.1701 44.9259 42.5202 44.363 41.2943C43.9474 40.3979 43.9743 39.4656 45.0577 39.0062C45.1404 38.9726 45.203 38.8022 45.2097 38.6924C45.2454 38.0537 45.2208 37.3993 45.6252 36.8547C45.7212 36.7225 45.9223 36.6665 46.072 36.5746C46.1463 36.716 46.2134 36.8611 46.2731 37.0094C46.4495 37.4979 46.5836 38.0066 46.8003 38.4773C46.8576 38.6323 46.9664 38.7626 47.1085 38.8464C47.2506 38.9301 47.4171 38.962 47.5799 38.9367C47.9218 38.0604 47.8771 36.9511 49.0187 36.5701C49.2152 37.2895 49.3873 37.9596 49.5883 38.6229C49.6241 38.7395 49.7715 38.8964 49.8765 38.9031C50.3099 38.9345 50.75 38.9165 51.1611 38.9165C51.2389 38.4401 51.3555 37.9709 51.5096 37.5136C51.6779 37.1774 51.9101 36.8774 52.1932 36.6306C52.3563 36.4737 52.5238 36.5298 52.5998 36.8211C52.7472 37.3971 52.9438 37.9596 53.1426 38.5199C53.1806 38.6274 53.3258 38.7776 53.413 38.7709C53.8866 38.735 54.3602 38.6566 54.8204 38.5961C54.9254 37.5046 54.9544 36.4289 56.0066 35.6826C56.0714 35.9426 56.1072 36.1174 56.1563 36.2877C56.256 36.6854 56.3768 37.0774 56.5182 37.4621C56.7416 38.0268 56.8265 38.0828 57.3605 37.8206C58.0143 37.4838 58.6483 37.1097 59.2594 36.7001C60.1954 36.0972 61.1739 35.7521 62.3222 36.0278C60.9505 37.7803 59.3867 39.2751 57.4074 40.3195C58.1965 40.3159 58.9747 40.1335 59.6838 39.7861C60.7696 39.2908 61.6587 38.5131 62.5545 37.7489C63.0594 37.3121 63.6474 36.9826 64.2829 36.7804C64.9185 36.5782 65.5883 36.5074 66.2518 36.5723C67.466 36.68 68.6525 36.9969 69.7592 37.5091C70.0608 37.6369 70.3758 37.7332 70.6841 37.843C69.2923 35.7835 67.38 34.9296 64.9516 35.1762C63.8458 35.2927 62.7444 35.3263 61.6833 34.8736C60.4657 34.3559 59.4493 33.5289 58.4216 32.7334C57.9458 32.3658 57.461 32.0117 56.9114 31.6016C56.6188 32.3725 56.3641 33.0381 56.1094 33.7015L55.9709 33.7419C55.7934 33.5231 55.6343 33.2899 55.4951 33.0449C55.1175 32.2426 55.2046 31.3797 55.227 30.5281C55.227 30.3937 55.227 30.2054 55.1577 30.1359C54.7377 29.7639 54.2909 29.421 53.7793 29.0154C53.4286 29.7774 53.1091 30.4788 52.7629 31.2229C52.4769 31.2811 52.3674 31.0167 52.2557 30.7746C51.8469 29.8782 51.838 28.9594 51.9474 28.0136C51.9572 27.9447 51.9532 27.8745 51.9356 27.8071C51.9179 27.7398 51.887 27.6766 51.8447 27.6214C51.514 27.3323 51.1432 27.0881 50.8059 26.8079C50.7712 26.7665 50.7268 26.7344 50.6767 26.7144C50.6266 26.6944 50.5723 26.6872 50.5187 26.6935C50.4652 26.6997 50.414 26.7191 50.3697 26.75C50.3255 26.781 50.2896 26.8224 50.2652 26.8707C50.0383 27.2404 49.8447 27.6296 49.6866 28.0338C49.5869 28.3493 49.5122 28.6723 49.4632 28.9997L49.2756 29.0176C48.1586 28.0316 48.1943 26.7138 48.3395 25.3624C47.5911 24.8133 47.2225 24.8783 46.7936 25.6784C46.655 25.9578 46.5349 26.246 46.4339 26.5412C46.3624 26.725 46.3177 26.92 46.2507 27.106C46.1412 27.4085 45.9536 27.4421 45.7503 27.2046C45.6177 27.0575 45.5173 26.8842 45.4554 26.6959C45.232 25.9204 45.1359 25.1271 45.3973 24.3472C45.4956 24.0447 45.3973 23.899 45.1739 23.6883C44.1954 22.8053 43.9385 22.1532 44.3808 20.9856C44.7047 20.0833 45.2412 19.2729 45.9447 18.6235C47.8413 16.909 50.4909 17.2788 51.5297 19.5333C51.8472 20.1842 52.3586 20.7198 52.993 21.0662C55.124 22.3022 57.3683 23.3304 59.695 24.1365C60.7852 24.5287 61.8977 24.7842 63.0684 24.5646C63.8056 24.4279 64.5406 24.2598 65.2823 24.1724C66.6964 24.0043 67.9519 24.3763 68.9773 25.405C69.7994 26.2297 70.2194 27.2942 70.6886 28.3184C70.73 28.4287 70.7976 28.5272 70.8856 28.6053C70.9736 28.6834 71.0793 28.7388 71.1935 28.7666C72.9628 29.2955 75.3778 32.6348 75.4135 32.6527C82.091 41.0747 74.3926 47.928 73.0209 49.6424ZM68.1061 28.3655C67.5967 27.2091 66.8081 26.3485 65.4252 26.4471C64.8779 26.483 64.3417 26.7362 63.8078 26.911C63.1667 27.1194 64.2077 27.8231 64.8265 27.6752C65.4967 27.5116 66.0977 27.6752 66.5087 28.2803C66.8908 28.8294 68.5372 29.3583 68.1016 28.3655H68.1061ZM48.0938 20.6001C48.5406 20.7234 48.965 20.9609 49.4074 21.1223C49.5973 21.1917 49.9033 21.2926 49.9927 21.2074C50.056 21.1213 50.0993 21.0221 50.1194 20.917C50.1395 20.8119 50.1359 20.7036 50.1089 20.6001C50.0385 20.3604 49.9072 20.1432 49.7278 19.9699C49.5484 19.7967 49.3271 19.6732 49.0857 19.6118C48.7272 19.5277 48.3531 19.5391 48.0004 19.6448C47.6477 19.7506 47.3287 19.947 47.0751 20.2146C47.016 20.3068 46.9673 20.4053 46.9299 20.5082C47.3199 20.5016 47.7096 20.5324 48.0938 20.6001Z" fill="#80CCE8"/>
</svg>
