<svg width="80" height="71" viewBox="0 0 80 71" fill="none" xmlns="http://www.w3.org/2000/svg">
<path d="M4.57972 32.6505C4.61547 32.6325 7.03714 29.2888 8.79977 28.7644C8.91395 28.7366 9.01962 28.6812 9.10761 28.6031C9.19559 28.525 9.26324 28.4265 9.30466 28.3162C9.7738 27.2831 10.1983 26.2185 11.0159 25.4028C12.0413 24.3741 13.2968 24.0021 14.711 24.1702C15.4527 24.2576 16.1877 24.4257 16.9249 24.5624C18.0955 24.7865 19.208 24.5265 20.2982 24.1343C22.625 23.3282 24.8692 22.3 27.0003 21.064C27.6236 20.7135 28.1243 20.1791 28.4345 19.5334C29.4823 17.2923 32.134 16.909 34.0307 18.6235C34.7301 19.2742 35.2627 20.0844 35.5834 20.9856C36.0302 22.1532 35.7688 22.8054 34.7903 23.6883C34.5535 23.9013 34.4686 24.0447 34.5669 24.3472C34.8283 25.1316 34.73 25.916 34.5088 26.6959C34.447 26.8848 34.3457 27.0582 34.2117 27.2046C34.0106 27.4422 33.823 27.4086 33.7135 27.106C33.6465 26.92 33.6018 26.725 33.5303 26.5413C33.4293 26.2461 33.3092 25.9579 33.1706 25.6784C32.7238 24.8784 32.3708 24.8134 31.6247 25.3624C31.7699 26.7071 31.7967 28.0316 30.6886 29.0177L30.501 28.9997C30.4557 28.6727 30.3847 28.3497 30.2887 28.0338C30.1307 27.6297 29.937 27.2404 29.7101 26.8707C29.6858 26.8224 29.6499 26.781 29.6056 26.7501C29.5614 26.7191 29.5102 26.6997 29.4566 26.6935C29.4031 26.6873 29.3488 26.6945 29.2987 26.7144C29.2486 26.7344 29.2042 26.7665 29.1695 26.8079C28.8322 27.0881 28.4613 27.3324 28.1307 27.6215C28.0884 27.6767 28.0575 27.7398 28.0398 27.8071C28.0222 27.8745 28.0181 27.9447 28.0279 28.0137C28.1352 28.9594 28.1262 29.8894 27.7196 30.7747C27.6079 31.019 27.4962 31.2834 27.2103 31.2229L26.196 29.0154C25.6844 29.43 25.2376 29.7729 24.8176 30.136C24.7395 30.2054 24.7439 30.3937 24.7484 30.5282C24.7707 31.3798 24.8579 32.2426 24.4781 33.0449C24.3404 33.2904 24.182 33.5236 24.0045 33.7419L23.866 33.7015C23.6113 33.0292 23.3566 32.3726 23.0639 31.6016C22.5144 32.0118 22.0296 32.3659 21.5538 32.7334C20.5194 33.529 19.5096 34.3559 18.2921 34.8736C17.2309 35.3219 16.1273 35.2927 15.0237 35.1762C12.5954 34.9185 10.683 35.7835 9.28902 37.8431C9.59955 37.7333 9.91454 37.6369 10.2161 37.5092C11.3222 36.9971 12.5079 36.6802 13.7213 36.5724C14.3864 36.5075 15.0577 36.579 15.6945 36.7824C16.3312 36.9858 16.9201 37.3169 17.4253 37.7557C18.3189 38.5199 19.2125 39.2975 20.296 39.7928C21.0023 40.1393 21.7773 40.3216 22.5635 40.3262C20.5931 39.2819 19.0293 37.7871 17.6487 36.0345C18.7947 35.7566 19.7755 36.1018 20.7115 36.7068C21.3223 37.1169 21.9564 37.4911 22.6104 37.8274C23.1444 38.0896 23.2181 38.0336 23.4527 37.4688C23.5931 37.0838 23.7139 36.6918 23.8146 36.2945C23.8637 36.1242 23.8995 35.9494 23.9643 35.6894C25.0165 36.4446 25.0455 37.5204 25.1505 38.6028C25.6107 38.6633 26.0821 38.7418 26.5579 38.7776C26.6428 38.7776 26.7813 38.6342 26.8283 38.5266C27.0271 37.9663 27.2237 37.4061 27.3711 36.8279C27.4448 36.5365 27.6146 36.4805 27.7777 36.6374C28.0608 36.8842 28.293 37.1841 28.4613 37.5204C28.6154 37.9777 28.732 38.4469 28.8098 38.9233C29.2209 38.9233 29.6588 38.9412 30.0944 38.9098C30.1994 38.9098 30.3468 38.7462 30.3826 38.6297C30.5836 37.9574 30.7557 37.285 30.9522 36.5769C32.0938 36.9579 32.0491 38.0672 32.391 38.9435C32.5535 38.9691 32.7199 38.9373 32.8617 38.8535C33.0035 38.7697 33.1119 38.6391 33.1684 38.484C33.3918 38.0134 33.5214 37.5047 33.6978 37.0161C33.7515 36.866 33.8297 36.727 33.8967 36.5813C34.0508 36.6732 34.2496 36.7293 34.3435 36.8615C34.7478 37.4061 34.7233 38.0605 34.759 38.6992C34.759 38.809 34.8283 38.9793 34.9109 39.0129C35.9944 39.4611 36.0279 40.4024 35.6057 41.3011C35.0427 42.527 33.9771 43.1769 32.7261 43.4996C32.0533 43.6673 31.3638 43.7583 30.6708 43.7708C29.1069 43.8066 27.5186 43.7282 25.9436 43.7932C24.3083 43.8627 22.7579 44.284 21.4309 45.3238C19.6928 46.6864 19.4694 48.0132 20.5216 49.9943C20.8252 50.5232 21.2012 51.0067 21.6386 51.4308C22.1502 51.9597 22.7355 52.4169 23.2829 52.9144C23.8302 53.4119 24.3641 53.9139 24.8601 54.3711C24.6702 53.4881 24.4446 52.5603 24.2748 51.6235C23.8838 49.4609 25.4052 47.296 27.5208 46.9688C28.5741 46.8277 29.6401 47.1106 30.4861 47.7556C31.3321 48.4006 31.8892 49.3553 32.0357 50.4111C32.1966 51.6011 31.4906 52.7889 30.4384 53.0534C30.1776 53.1167 29.9062 53.1221 29.6431 53.0691C29.5607 53.0364 29.4862 52.9863 29.4249 52.9221C29.3636 52.8578 29.3169 52.7811 29.2879 52.697C29.2544 52.6074 29.384 52.4034 29.4934 52.3295C30.3424 51.7647 30.3178 50.7249 29.4286 50.2094C29.237 50.0917 29.022 50.0176 28.7988 49.9922C28.5755 49.9669 28.3494 49.9909 28.1364 50.0627C27.9234 50.1345 27.7287 50.2523 27.566 50.4077C27.4033 50.5632 27.2765 50.7525 27.1946 50.9624C26.7769 51.9082 26.8104 52.901 26.9712 53.896C27.2572 55.6037 27.6146 57.3025 27.8269 59.0191C28.0503 60.812 27.7487 62.5623 27.1567 64.2633C26.6786 65.6438 26.196 67.0236 25.709 68.4026C25.5906 68.732 25.4275 69.0525 25.0075 69.0368C24.827 69.0335 24.6542 68.9627 24.5228 68.8384C24.3914 68.7141 24.311 68.5451 24.2971 68.3645C24.2083 67.7494 24.1694 67.1281 24.1809 66.5066C24.2279 64.9872 24.3507 63.4722 23.8503 61.9864C23.609 61.2398 23.2143 60.5524 22.6917 59.9683C22.1692 59.3843 21.5304 58.9166 20.8165 58.5956C19.2862 57.8583 17.6487 57.475 16.0022 57.1142C14.1391 56.6996 12.9573 55.2429 11.2505 54.2501C9.95476 53.4926 8.40882 51.6594 6.97905 49.6424C5.61184 47.928 -2.09104 41.0747 4.57972 32.6505ZM13.4867 28.2803C13.8978 27.6797 14.4898 27.5117 15.1689 27.6753C15.7878 27.8232 16.8288 27.1195 16.1877 26.911C15.6537 26.7362 15.1176 26.483 14.5702 26.4471C13.1963 26.3575 12.4077 27.2091 11.8894 28.3655C11.4627 29.3583 13.1092 28.8294 13.4867 28.2803ZM33.0634 20.5082C33.025 20.4057 32.9764 20.3073 32.9182 20.2147C32.6645 19.947 32.3455 19.7506 31.9928 19.6449C31.6401 19.5391 31.266 19.5277 30.9076 19.6118C30.6662 19.6732 30.4449 19.7967 30.2654 19.97C30.086 20.1433 29.9547 20.3604 29.8844 20.6001C29.8574 20.7036 29.8538 20.8119 29.8739 20.917C29.894 21.0221 29.9372 21.1213 30.0006 21.2075C30.0899 21.2926 30.396 21.1918 30.5859 21.1223C31.0327 20.9609 31.4482 20.7234 31.8995 20.6001C32.2836 20.5323 32.6734 20.5015 33.0634 20.5082Z" fill="#9AC552"/>
<path d="M73.0209 49.6424C71.5912 51.6594 70.0452 53.4926 68.7495 54.2501C67.0517 55.2429 65.8609 56.6884 63.9665 57.1075C62.32 57.4728 60.6825 57.8515 59.1522 58.5888C58.4383 58.9099 57.7995 59.3775 57.277 59.9616C56.7544 60.5456 56.3597 61.2331 56.1184 61.9796C55.618 63.4654 55.7409 64.9804 55.7855 66.4999C55.799 67.1213 55.7609 67.7427 55.6716 68.3577C55.6577 68.5384 55.5773 68.7073 55.4459 68.8316C55.3146 68.956 55.1417 69.0267 54.9612 69.0301C54.5412 69.0458 54.3781 68.7253 54.2597 68.3958C53.7727 67.0168 53.2901 65.6371 52.8121 64.2565C52.2223 62.5556 51.9185 60.8008 52.1419 59.0124C52.3653 57.2957 52.7115 55.597 52.9975 53.8893C53.1628 52.8942 53.1963 51.9014 52.7741 50.9557C52.6919 50.746 52.565 50.557 52.4022 50.4017C52.2394 50.2465 52.0448 50.1289 51.8319 50.0572C51.619 49.9854 51.3931 49.9613 51.1699 49.9864C50.9468 50.0115 50.7318 50.0853 50.5401 50.2027C49.6465 50.7181 49.6264 51.758 50.4753 52.3227C50.5848 52.3967 50.7121 52.6006 50.6808 52.6903C50.6519 52.7743 50.6051 52.8511 50.5438 52.9153C50.4825 52.9795 50.4081 53.0297 50.3256 53.0623C50.0625 53.1154 49.7911 53.11 49.5303 53.0466C48.4781 52.7822 47.7721 51.5944 47.933 50.4044C48.0795 49.3486 48.6366 48.3939 49.4826 47.7489C50.3286 47.1039 51.3947 46.821 52.4479 46.962C54.5635 47.2892 56.0849 49.4541 55.6939 51.6168C55.5242 52.5536 55.2985 53.4814 55.1086 54.3644C55.6046 53.9162 56.1407 53.4029 56.6836 52.9077C57.2265 52.4124 57.8163 51.953 58.3301 51.4241C58.7669 50.9994 59.1428 50.5159 59.4471 49.9875C60.4993 48.0042 60.2759 46.6797 58.5378 45.3171C57.2108 44.2772 55.6604 43.8559 54.0229 43.7864C52.4591 43.7214 50.8729 43.7999 49.298 43.764C48.6049 43.7515 47.9154 43.6605 47.2427 43.4928C45.9916 43.1701 44.926 42.5202 44.363 41.2943C43.9475 40.3979 43.9743 39.4656 45.0578 39.0062C45.1405 38.9726 45.203 38.8022 45.2097 38.6924C45.2455 38.0537 45.2209 37.3993 45.6252 36.8547C45.7213 36.7225 45.9224 36.6665 46.072 36.5746C46.1463 36.716 46.2134 36.8611 46.2731 37.0094C46.4496 37.4979 46.5836 38.0066 46.8003 38.4773C46.8576 38.6323 46.9665 38.7626 47.1086 38.8464C47.2506 38.9301 47.4172 38.962 47.58 38.9367C47.9218 38.0604 47.8771 36.9511 49.0187 36.5701C49.2153 37.2895 49.3873 37.9596 49.5884 38.6229C49.6241 38.7395 49.7716 38.8964 49.8766 38.9031C50.31 38.9345 50.7501 38.9165 51.1611 38.9165C51.239 38.4401 51.3555 37.9709 51.5096 37.5136C51.6779 37.1774 51.9101 36.8774 52.1932 36.6306C52.3563 36.4737 52.5239 36.5298 52.5998 36.8211C52.7473 37.3971 52.9439 37.9596 53.1427 38.5199C53.1807 38.6274 53.3259 38.7776 53.413 38.7709C53.8866 38.735 54.3602 38.6566 54.8204 38.5961C54.9254 37.5046 54.9545 36.4289 56.0067 35.6826C56.0715 35.9426 56.1072 36.1174 56.1564 36.2877C56.2561 36.6854 56.3769 37.0774 56.5183 37.4621C56.7417 38.0268 56.8266 38.0828 57.3605 37.8206C58.0143 37.4838 58.6483 37.1097 59.2594 36.7001C60.1955 36.0972 61.174 35.7521 62.3223 36.0278C60.9506 37.7803 59.3868 39.2751 57.4074 40.3195C58.1966 40.3159 58.9748 40.1335 59.6839 39.7861C60.7696 39.2908 61.6588 38.5131 62.5546 37.7489C63.0595 37.3121 63.6475 36.9826 64.283 36.7804C64.9185 36.5782 65.5883 36.5074 66.2519 36.5723C67.466 36.68 68.6526 36.9969 69.7593 37.5091C70.0609 37.6369 70.3759 37.7332 70.6842 37.843C69.2924 35.7835 67.3801 34.9296 64.9517 35.1762C63.8459 35.2927 62.7445 35.3263 61.6833 34.8736C60.4658 34.3559 59.4493 33.5289 58.4217 32.7334C57.9458 32.3658 57.461 32.0117 56.9115 31.6016C56.6188 32.3725 56.3641 33.0381 56.1095 33.7015L55.971 33.7419C55.7935 33.5231 55.6343 33.2899 55.4951 33.0449C55.1176 32.2426 55.2047 31.3797 55.227 30.5281C55.227 30.3937 55.227 30.2054 55.1578 30.1359C54.7378 29.7639 54.291 29.421 53.7794 29.0154C53.4287 29.7774 53.1092 30.4788 52.7629 31.2229C52.477 31.2811 52.3675 31.0167 52.2558 30.7746C51.847 29.8782 51.838 28.9594 51.9475 28.0136C51.9573 27.9447 51.9533 27.8745 51.9356 27.8071C51.918 27.7398 51.8871 27.6766 51.8447 27.6214C51.5141 27.3323 51.1433 27.0881 50.8059 26.8079C50.7712 26.7665 50.7268 26.7344 50.6767 26.7144C50.6266 26.6944 50.5723 26.6872 50.5188 26.6935C50.4652 26.6997 50.414 26.7191 50.3698 26.75C50.3256 26.781 50.2897 26.8224 50.2653 26.8707C50.0384 27.2404 49.8448 27.6296 49.6867 28.0338C49.5869 28.3493 49.5122 28.6723 49.4633 28.9997L49.2756 29.0176C48.1586 28.0316 48.1944 26.7138 48.3396 25.3624C47.5912 24.8133 47.2226 24.8783 46.7936 25.6784C46.6551 25.9578 46.5349 26.246 46.434 26.5412C46.3625 26.725 46.3178 26.92 46.2508 27.106C46.1413 27.4085 45.9536 27.4421 45.7504 27.2046C45.6178 27.0575 45.5174 26.8842 45.4555 26.6959C45.2321 25.9204 45.136 25.1271 45.3974 24.3472C45.4957 24.0447 45.3974 23.899 45.174 23.6883C44.1955 22.8053 43.9386 22.1532 44.3809 20.9856C44.7048 20.0833 45.2413 19.2729 45.9447 18.6235C47.8414 16.909 50.4909 17.2788 51.5297 19.5333C51.8473 20.1842 52.3586 20.7198 52.993 21.0662C55.1241 22.3022 57.3683 23.3304 59.6951 24.1365C60.7853 24.5287 61.8978 24.7842 63.0684 24.5646C63.8056 24.4279 64.5406 24.2598 65.2823 24.1724C66.6965 24.0043 67.952 24.3763 68.9774 25.405C69.7995 26.2297 70.2195 27.2942 70.6886 28.3184C70.7301 28.4287 70.7977 28.5272 70.8857 28.6053C70.9737 28.6834 71.0793 28.7388 71.1935 28.7666C72.9629 29.2955 75.3778 32.6348 75.4136 32.6527C82.091 41.0747 74.3926 47.928 73.0209 49.6424ZM68.1061 28.3655C67.5968 27.2091 66.8082 26.3485 65.4253 26.4471C64.878 26.483 64.3418 26.7362 63.8079 26.911C63.1667 27.1194 64.2078 27.8231 64.8266 27.6752C65.4968 27.5116 66.0977 27.6752 66.5088 28.2803C66.8908 28.8294 68.5373 29.3583 68.1016 28.3655H68.1061ZM48.0938 20.6001C48.5406 20.7234 48.9651 20.9609 49.4074 21.1223C49.5973 21.1917 49.9034 21.2926 49.9927 21.2074C50.056 21.1213 50.0993 21.0221 50.1194 20.917C50.1395 20.8119 50.1359 20.7036 50.1089 20.6001C50.0386 20.3604 49.9073 20.1432 49.7278 19.9699C49.5484 19.7967 49.3271 19.6732 49.0857 19.6118C48.7273 19.5277 48.3532 19.5391 48.0005 19.6448C47.6478 19.7506 47.3288 19.947 47.0751 20.2146C47.016 20.3068 46.9673 20.4053 46.9299 20.5082C47.3199 20.5016 47.7097 20.5324 48.0938 20.6001Z" fill="#9AC552"/>
</svg>
