<svg width="80" height="71" viewBox="0 0 80 71" fill="none" xmlns="http://www.w3.org/2000/svg">
<path d="M4.57972 32.6504C4.61547 32.6325 7.03714 29.2888 8.79977 28.7644C8.91395 28.7365 9.01962 28.6812 9.10761 28.603C9.19559 28.5249 9.26324 28.4264 9.30466 28.3161C9.7738 27.283 10.1983 26.2185 11.0159 25.4027C12.0413 24.3741 13.2968 24.002 14.711 24.1701C15.4527 24.2575 16.1877 24.4256 16.9249 24.5623C18.0955 24.7864 19.208 24.5265 20.2982 24.1343C22.625 23.3281 24.8692 22.3 27.0003 21.064C27.6236 20.7134 28.1243 20.179 28.4345 19.5333C29.4823 17.2922 32.134 16.909 34.0307 18.6234C34.7301 19.2741 35.2627 20.0844 35.5834 20.9855C36.0302 22.1531 35.7688 22.8053 34.7903 23.6883C34.5535 23.9012 34.4686 24.0446 34.5669 24.3472C34.8283 25.1316 34.73 25.9159 34.5088 26.6958C34.447 26.8847 34.3457 27.0581 34.2117 27.2046C34.0106 27.4421 33.823 27.4085 33.7135 27.106C33.6465 26.9199 33.6018 26.725 33.5303 26.5412C33.4293 26.246 33.3092 25.9578 33.1706 25.6784C32.7238 24.8783 32.3708 24.8133 31.6247 25.3624C31.7699 26.707 31.7967 28.0315 30.6886 29.0176L30.501 28.9997C30.4557 28.6726 30.3847 28.3496 30.2887 28.0338C30.1307 27.6296 29.937 27.2403 29.7101 26.8706C29.6858 26.8224 29.6499 26.7809 29.6056 26.75C29.5614 26.7191 29.5102 26.6996 29.4566 26.6934C29.4031 26.6872 29.3488 26.6944 29.2987 26.7144C29.2486 26.7344 29.2042 26.7665 29.1695 26.8079C28.8322 27.088 28.4613 27.3323 28.1307 27.6214C28.0884 27.6766 28.0575 27.7397 28.0398 27.8071C28.0222 27.8744 28.0181 27.9447 28.0279 28.0136C28.1352 28.9593 28.1262 29.8894 27.7196 30.7746C27.6079 31.0189 27.4962 31.2833 27.2103 31.2228L26.196 29.0154C25.6844 29.43 25.2376 29.7729 24.8176 30.1359C24.7395 30.2054 24.7439 30.3936 24.7484 30.5281C24.7707 31.3797 24.8579 32.2425 24.4781 33.0448C24.3404 33.2904 24.182 33.5236 24.0045 33.7418L23.866 33.7015C23.6113 33.0292 23.3566 32.3725 23.0639 31.6016C22.5144 32.0117 22.0296 32.3658 21.5538 32.7333C20.5194 33.5289 19.5096 34.3559 18.2921 34.8736C17.2309 35.3218 16.1273 35.2927 15.0237 35.1761C12.5954 34.9184 10.683 35.7835 9.28902 37.843C9.59955 37.7332 9.91454 37.6368 10.2161 37.5091C11.3222 36.9971 12.5079 36.6802 13.7213 36.5723C14.3864 36.5075 15.0577 36.5789 15.6945 36.7823C16.3312 36.9857 16.9201 37.3169 17.4253 37.7556C18.3189 38.5198 19.2125 39.2975 20.296 39.7928C21.0023 40.1392 21.7773 40.3215 22.5635 40.3261C20.5931 39.2818 19.0293 37.787 17.6487 36.0345C18.7947 35.7566 19.7755 36.1017 20.7115 36.7068C21.3223 37.1169 21.9564 37.491 22.6104 37.8273C23.1444 38.0895 23.2181 38.0335 23.4527 37.4688C23.5931 37.0837 23.7139 36.6918 23.8146 36.2944C23.8637 36.1241 23.8995 35.9493 23.9643 35.6893C25.0165 36.4446 25.0455 37.5203 25.1505 38.6027C25.6107 38.6633 26.0821 38.7417 26.5579 38.7776C26.6428 38.7776 26.7813 38.6341 26.8283 38.5266C27.0271 37.9663 27.2237 37.406 27.3711 36.8278C27.4448 36.5365 27.6146 36.4804 27.7777 36.6373C28.0608 36.8841 28.293 37.1841 28.4613 37.5203C28.6154 37.9776 28.732 38.4468 28.8098 38.9232C29.2209 38.9232 29.6588 38.9412 30.0944 38.9098C30.1994 38.9098 30.3468 38.7462 30.3826 38.6296C30.5836 37.9573 30.7557 37.285 30.9522 36.5768C32.0938 36.9578 32.0491 38.0671 32.391 38.9434C32.5535 38.969 32.7199 38.9372 32.8617 38.8534C33.0035 38.7696 33.1119 38.639 33.1684 38.484C33.3918 38.0133 33.5214 37.5046 33.6978 37.0161C33.7515 36.8659 33.8297 36.727 33.8967 36.5813C34.0508 36.6732 34.2496 36.7292 34.3435 36.8614C34.7478 37.406 34.7233 38.0604 34.759 38.6991C34.759 38.8089 34.8283 38.9793 34.9109 39.0129C35.9944 39.4611 36.0279 40.4023 35.6057 41.301C35.0427 42.5269 33.9771 43.1768 32.7261 43.4995C32.0533 43.6672 31.3638 43.7582 30.6708 43.7707C29.1069 43.8066 27.5186 43.7281 25.9436 43.7931C24.3083 43.8626 22.7579 44.2839 21.4309 45.3238C19.6928 46.6864 19.4694 48.0131 20.5216 49.9942C20.8252 50.5231 21.2012 51.0067 21.6386 51.4308C22.1502 51.9597 22.7355 52.4168 23.2829 52.9144C23.8302 53.4119 24.3641 53.9139 24.8601 54.3711C24.6702 53.4881 24.4446 52.5603 24.2748 51.6235C23.8838 49.4608 25.4052 47.2959 27.5208 46.9687C28.5741 46.8277 29.6401 47.1106 30.4861 47.7556C31.3321 48.4006 31.8892 49.3553 32.0357 50.4111C32.1966 51.6011 31.4906 52.7889 30.4384 53.0533C30.1776 53.1167 29.9062 53.122 29.6431 53.069C29.5607 53.0364 29.4862 52.9862 29.4249 52.922C29.3636 52.8578 29.3169 52.781 29.2879 52.697C29.2544 52.6073 29.384 52.4034 29.4934 52.3294C30.3424 51.7647 30.3178 50.7248 29.4286 50.2094C29.237 50.0916 29.022 50.0175 28.7988 49.9922C28.5755 49.9668 28.3494 49.9909 28.1364 50.0627C27.9234 50.1345 27.7287 50.2522 27.566 50.4077C27.4033 50.5631 27.2765 50.7525 27.1946 50.9624C26.7769 51.9081 26.8104 52.9009 26.9712 53.896C27.2572 55.6037 27.6146 57.3024 27.8269 59.0191C28.0503 60.812 27.7487 62.5623 27.1567 64.2632C26.6786 65.6438 26.196 67.0235 25.709 68.4025C25.5906 68.732 25.4275 69.0524 25.0075 69.0368C24.827 69.0334 24.6542 68.9626 24.5228 68.8383C24.3914 68.714 24.311 68.5451 24.2971 68.3644C24.2083 67.7493 24.1694 67.128 24.1809 66.5066C24.2279 64.9871 24.3507 63.4721 23.8503 61.9863C23.609 61.2398 23.2143 60.5523 22.6917 59.9683C22.1692 59.3842 21.5304 58.9166 20.8165 58.5955C19.2862 57.8582 17.6487 57.475 16.0022 57.1142C14.1391 56.6996 12.9573 55.2428 11.2505 54.25C9.95476 53.4926 8.40882 51.6593 6.97905 49.6424C5.61184 47.9279 -2.09104 41.0747 4.57972 32.6504ZM13.4867 28.2803C13.8978 27.6797 14.4898 27.5116 15.1689 27.6752C15.7878 27.8231 16.8288 27.1194 16.1877 26.911C15.6537 26.7362 15.1176 26.4829 14.5702 26.4471C13.1963 26.3574 12.4077 27.209 11.8894 28.3654C11.4627 29.3582 13.1092 28.8294 13.4867 28.2803ZM33.0634 20.5082C33.025 20.4056 32.9764 20.3073 32.9182 20.2146C32.6645 19.947 32.3455 19.7506 31.9928 19.6448C31.6401 19.5391 31.266 19.5277 30.9076 19.6117C30.6662 19.6732 30.4449 19.7966 30.2654 19.9699C30.086 20.1432 29.9547 20.3604 29.8844 20.6001C29.8574 20.7036 29.8538 20.8119 29.8739 20.9169C29.894 21.022 29.9372 21.1213 30.0006 21.2074C30.0899 21.2926 30.396 21.1917 30.5859 21.1222C31.0327 20.9609 31.4482 20.7233 31.8995 20.6001C32.2836 20.5322 32.6734 20.5015 33.0634 20.5082Z" fill="#D86F3A"/>
<path d="M73.0209 49.6425C71.5912 51.6594 70.0452 53.4926 68.7495 54.2501C67.0517 55.2429 65.8609 56.6884 63.9665 57.1075C62.32 57.4728 60.6825 57.8516 59.1522 58.5889C58.4383 58.91 57.7995 59.3776 57.277 59.9616C56.7544 60.5457 56.3597 61.2331 56.1184 61.9797C55.618 63.4655 55.7409 64.9805 55.7855 66.4999C55.799 67.1213 55.7609 67.7428 55.6716 68.3578C55.6577 68.5384 55.5773 68.7074 55.4459 68.8317C55.3146 68.956 55.1417 69.0268 54.9612 69.0301C54.5412 69.0458 54.3781 68.7253 54.2597 68.3959C53.7727 67.0169 53.2901 65.6371 52.8121 64.2566C52.2223 62.5556 51.9185 60.8008 52.1419 59.0125C52.3653 57.2958 52.7115 55.597 52.9975 53.8893C53.1628 52.8943 53.1963 51.9015 52.7741 50.9557C52.6919 50.7461 52.565 50.557 52.4022 50.4018C52.2394 50.2466 52.0448 50.129 51.8319 50.0572C51.619 49.9855 51.3931 49.9613 51.1699 49.9865C50.9468 50.0116 50.7318 50.0854 50.5401 50.2027C49.6465 50.7182 49.6264 51.758 50.4753 52.3228C50.5848 52.3968 50.7121 52.6007 50.6808 52.6903C50.6519 52.7744 50.6051 52.8511 50.5438 52.9154C50.4825 52.9796 50.4081 53.0297 50.3256 53.0624C50.0625 53.1154 49.7911 53.1101 49.5303 53.0467C48.4781 52.7822 47.7721 51.5944 47.933 50.4044C48.0795 49.3486 48.6366 48.3939 49.4826 47.7489C50.3286 47.1039 51.3947 46.8211 52.4479 46.9621C54.5635 47.2893 56.0849 49.4542 55.6939 51.6169C55.5242 52.5536 55.2985 53.4814 55.1086 54.3644C55.6046 53.9162 56.1407 53.403 56.6836 52.9077C57.2265 52.4124 57.8163 51.953 58.3301 51.4241C58.7669 50.9995 59.1428 50.516 59.4471 49.9876C60.4993 48.0042 60.2759 46.6797 58.5378 45.3171C57.2108 44.2773 55.6604 43.856 54.0229 43.7865C52.4591 43.7215 50.8729 43.7999 49.298 43.7641C48.6049 43.7516 47.9154 43.6606 47.2427 43.4929C45.9916 43.1702 44.926 42.5203 44.363 41.2944C43.9475 40.398 43.9743 39.4657 45.0578 39.0062C45.1405 38.9726 45.203 38.8023 45.2097 38.6925C45.2455 38.0538 45.2209 37.3994 45.6252 36.8548C45.7213 36.7226 45.9224 36.6665 46.072 36.5747C46.1463 36.7161 46.2134 36.8612 46.2731 37.0094C46.4496 37.498 46.5836 38.0067 46.8003 38.4773C46.8576 38.6323 46.9665 38.7627 47.1086 38.8464C47.2506 38.9301 47.4172 38.962 47.58 38.9368C47.9218 38.0605 47.8771 36.9512 49.0187 36.5702C49.2153 37.2896 49.3873 37.9596 49.5884 38.623C49.6241 38.7395 49.7716 38.8964 49.8766 38.9031C50.31 38.9345 50.7501 38.9166 51.1611 38.9166C51.239 38.4402 51.3555 37.971 51.5096 37.5137C51.6779 37.1774 51.9101 36.8775 52.1932 36.6307C52.3563 36.4738 52.5239 36.5298 52.5998 36.8212C52.7473 37.3971 52.9439 37.9596 53.1427 38.5199C53.1807 38.6275 53.3259 38.7776 53.413 38.7709C53.8866 38.7351 54.3602 38.6566 54.8204 38.5961C54.9254 37.5047 54.9545 36.429 56.0067 35.6827C56.0715 35.9427 56.1072 36.1175 56.1564 36.2878C56.2561 36.6854 56.3769 37.0774 56.5183 37.4621C56.7417 38.0269 56.8266 38.0829 57.3605 37.8207C58.0143 37.4839 58.6483 37.1098 59.2594 36.7002C60.1955 36.0973 61.174 35.7522 62.3223 36.0278C60.9506 37.7804 59.3868 39.2752 57.4074 40.3195C58.1966 40.3159 58.9748 40.1336 59.6839 39.7861C60.7696 39.2909 61.6588 38.5132 62.5546 37.749C63.0595 37.3122 63.6475 36.9827 64.283 36.7805C64.9185 36.5782 65.5883 36.5074 66.2519 36.5724C67.466 36.68 68.6526 36.9969 69.7593 37.5092C70.0609 37.6369 70.3759 37.7333 70.6842 37.8431C69.2924 35.7835 67.3801 34.9297 64.9517 35.1762C63.8459 35.2927 62.7445 35.3264 61.6833 34.8737C60.4658 34.356 59.4493 33.529 58.4217 32.7334C57.9458 32.3659 57.461 32.0118 56.9115 31.6017C56.6188 32.3726 56.3641 33.0382 56.1095 33.7016L55.971 33.7419C55.7935 33.5231 55.6343 33.29 55.4951 33.0449C55.1176 32.2426 55.2047 31.3798 55.227 30.5282C55.227 30.3937 55.227 30.2055 55.1578 30.136C54.7378 29.764 54.291 29.4211 53.7794 29.0155C53.4287 29.7774 53.1092 30.4789 52.7629 31.2229C52.477 31.2812 52.3675 31.0167 52.2558 30.7747C51.847 29.8783 51.838 28.9594 51.9475 28.0137C51.9573 27.9447 51.9533 27.8745 51.9356 27.8072C51.918 27.7398 51.8871 27.6767 51.8447 27.6215C51.5141 27.3324 51.1433 27.0881 50.8059 26.808C50.7712 26.7666 50.7268 26.7344 50.6767 26.7145C50.6266 26.6945 50.5723 26.6873 50.5188 26.6935C50.4652 26.6997 50.414 26.7192 50.3698 26.7501C50.3256 26.781 50.2897 26.8225 50.2653 26.8707C50.0384 27.2404 49.8448 27.6297 49.6867 28.0339C49.5869 28.3494 49.5122 28.6724 49.4633 28.9998L49.2756 29.0177C48.1586 28.0316 48.1944 26.7139 48.3396 25.3625C47.5912 24.8134 47.2226 24.8784 46.7936 25.6785C46.6551 25.9579 46.5349 26.2461 46.434 26.5413C46.3625 26.7251 46.3178 26.92 46.2508 27.106C46.1413 27.4086 45.9536 27.4422 45.7504 27.2046C45.6178 27.0575 45.5174 26.8843 45.4555 26.6959C45.2321 25.9205 45.136 25.1272 45.3974 24.3473C45.4957 24.0447 45.3974 23.899 45.174 23.6884C44.1955 22.8054 43.9386 22.1532 44.3809 20.9856C44.7048 20.0833 45.2413 19.273 45.9447 18.6235C47.8414 16.9091 50.4909 17.2789 51.5297 19.5334C51.8473 20.1842 52.3586 20.7199 52.993 21.0663C55.1241 22.3023 57.3683 23.3304 59.6951 24.1366C60.7853 24.5288 61.8978 24.7843 63.0684 24.5646C63.8056 24.4279 64.5406 24.2599 65.2823 24.1725C66.6965 24.0044 67.952 24.3764 68.9774 25.4051C69.7995 26.2298 70.2195 27.2943 70.6886 28.3185C70.7301 28.4288 70.7977 28.5273 70.8857 28.6054C70.9737 28.6835 71.0793 28.7389 71.1935 28.7667C72.9629 29.2956 75.3778 32.6348 75.4136 32.6527C82.091 41.0748 74.3926 47.928 73.0209 49.6425ZM68.1061 28.3655C67.5968 27.2091 66.8082 26.3486 65.4253 26.4472C64.878 26.483 64.3418 26.7363 63.8079 26.9111C63.1667 27.1195 64.2078 27.8232 64.8266 27.6753C65.4968 27.5117 66.0977 27.6753 66.5088 28.2804C66.8908 28.8294 68.5373 29.3583 68.1016 28.3655H68.1061ZM48.0938 20.6002C48.5406 20.7234 48.9651 20.961 49.4074 21.1223C49.5973 21.1918 49.9034 21.2927 49.9927 21.2075C50.056 21.1214 50.0993 21.0221 50.1194 20.917C50.1395 20.8119 50.1359 20.7037 50.1089 20.6002C50.0386 20.3605 49.9073 20.1433 49.7278 19.97C49.5484 19.7967 49.3271 19.6733 49.0857 19.6118C48.7273 19.5278 48.3532 19.5392 48.0005 19.6449C47.6478 19.7507 47.3288 19.9471 47.0751 20.2147C47.016 20.3069 46.9673 20.4053 46.9299 20.5083C47.3199 20.5017 47.7097 20.5324 48.0938 20.6002Z" fill="#D86F3A"/>
</svg>
