<svg width="80" height="71" viewBox="0 0 80 71" fill="none" xmlns="http://www.w3.org/2000/svg">
<path d="M4.57978 32.6504C4.61553 32.6325 7.0372 29.2888 8.79983 28.7644C8.91401 28.7365 9.01968 28.6812 9.10767 28.603C9.19566 28.5249 9.2633 28.4264 9.30472 28.3161C9.77386 27.283 10.1983 26.2185 11.016 25.4027C12.0414 24.3741 13.2969 24.002 14.711 24.1701C15.4527 24.2575 16.1877 24.4256 16.9249 24.5623C18.0956 24.7864 19.2081 24.5265 20.2983 24.1343C22.625 23.3281 24.8693 22.3 27.0003 21.064C27.6236 20.7134 28.1243 20.179 28.4346 19.5333C29.4823 17.2922 32.1341 16.909 34.0308 18.6234C34.7301 19.2741 35.2627 20.0844 35.5834 20.9855C36.0302 22.1531 35.7688 22.8053 34.7903 23.6883C34.5535 23.9012 34.4686 24.0446 34.5669 24.3472C34.8283 25.1316 34.73 25.9159 34.5089 26.6958C34.447 26.8847 34.3457 27.0581 34.2117 27.2046C34.0107 27.4421 33.823 27.4085 33.7135 27.106C33.6465 26.9199 33.6018 26.725 33.5304 26.5412C33.4294 26.246 33.3092 25.9578 33.1707 25.6784C32.7239 24.8783 32.3709 24.8133 31.6247 25.3624C31.77 26.707 31.7968 28.0315 30.6887 29.0176L30.501 28.9997C30.4557 28.6726 30.3848 28.3496 30.2888 28.0338C30.1307 27.6296 29.9371 27.2403 29.7102 26.8706C29.6858 26.8224 29.6499 26.7809 29.6057 26.75C29.5615 26.7191 29.5103 26.6996 29.4567 26.6934C29.4031 26.6872 29.3489 26.6944 29.2988 26.7144C29.2487 26.7344 29.2043 26.7665 29.1696 26.8079C28.8322 27.088 28.4614 27.3323 28.1307 27.6214C28.0884 27.6766 28.0575 27.7397 28.0399 27.8071C28.0222 27.8744 28.0182 27.9447 28.028 28.0136C28.1352 28.9593 28.1263 29.8894 27.7197 30.7746C27.608 31.0189 27.4963 31.2833 27.2103 31.2228L26.1961 29.0154C25.6845 29.43 25.2377 29.7729 24.8177 30.1359C24.7395 30.2054 24.744 30.3936 24.7485 30.5281C24.7708 31.3797 24.8579 32.2425 24.4781 33.0448C24.3405 33.2904 24.182 33.5236 24.0045 33.7418L23.866 33.7015C23.6113 33.0292 23.3567 32.3725 23.064 31.6016C22.5144 32.0117 22.0297 32.3658 21.5538 32.7333C20.5195 33.5289 19.5097 34.3559 18.2922 34.8736C17.231 35.3218 16.1274 35.2927 15.0238 35.1761C12.5954 34.9184 10.6831 35.7835 9.28908 37.843C9.59961 37.7332 9.91461 37.6368 10.2162 37.5091C11.3222 36.9971 12.508 36.6802 13.7214 36.5723C14.3865 36.5075 15.0578 36.5789 15.6945 36.7823C16.3312 36.9857 16.9201 37.3169 17.4254 37.7556C18.319 38.5198 19.2126 39.2975 20.2961 39.7928C21.0024 40.1392 21.7774 40.3215 22.5636 40.3261C20.5932 39.2818 19.0294 37.787 17.6488 36.0345C18.7948 35.7566 19.7755 36.1017 20.7116 36.7068C21.3224 37.1169 21.9564 37.491 22.6105 37.8273C23.1444 38.0895 23.2182 38.0335 23.4527 37.4688C23.5931 37.0837 23.7139 36.6918 23.8146 36.2944C23.8638 36.1241 23.8995 35.9493 23.9643 35.6893C25.0165 36.4446 25.0456 37.5203 25.1506 38.6027C25.6108 38.6633 26.0822 38.7417 26.558 38.7776C26.6429 38.7776 26.7814 38.6341 26.8283 38.5266C27.0271 37.9663 27.2237 37.406 27.3712 36.8278C27.4449 36.5365 27.6147 36.4804 27.7778 36.6373C28.0609 36.8841 28.2931 37.1841 28.4614 37.5203C28.6155 37.9776 28.732 38.4468 28.8099 38.9232C29.2209 38.9232 29.6588 38.9412 30.0944 38.9098C30.1994 38.9098 30.3469 38.7462 30.3826 38.6296C30.5837 37.9573 30.7557 37.285 30.9523 36.5768C32.0939 36.9578 32.0492 38.0671 32.391 38.9434C32.5536 38.969 32.72 38.9372 32.8618 38.8534C33.0036 38.7696 33.112 38.639 33.1684 38.484C33.3918 38.0133 33.5214 37.5046 33.6979 37.0161C33.7515 36.8659 33.8297 36.727 33.8967 36.5813C34.0509 36.6732 34.2497 36.7292 34.3435 36.8614C34.7479 37.406 34.7233 38.0604 34.7591 38.6991C34.7591 38.8089 34.8283 38.9793 34.911 39.0129C35.9945 39.4611 36.028 40.4023 35.6058 41.301C35.0428 42.5269 33.9772 43.1768 32.7261 43.4995C32.0534 43.6672 31.3639 43.7582 30.6708 43.7707C29.107 43.8066 27.5186 43.7281 25.9436 43.7931C24.3083 43.8626 22.7579 44.2839 21.4309 45.3238C19.6929 46.6864 19.4695 48.0131 20.5217 49.9942C20.8252 50.5231 21.2012 51.0067 21.6387 51.4308C22.1503 51.9597 22.7356 52.4168 23.2829 52.9144C23.8303 53.4119 24.3642 53.9139 24.8602 54.3711C24.6703 53.4881 24.4446 52.5603 24.2748 51.6235C23.8839 49.4608 25.4053 47.2959 27.5209 46.9687C28.5741 46.8277 29.6402 47.1106 30.4862 47.7556C31.3322 48.4006 31.8893 49.3553 32.0358 50.4111C32.1966 51.6011 31.4907 52.7889 30.4385 53.0533C30.1777 53.1167 29.9062 53.122 29.6432 53.069C29.5607 53.0364 29.4863 52.9862 29.425 52.922C29.3636 52.8578 29.3169 52.781 29.288 52.697C29.2545 52.6073 29.384 52.4034 29.4935 52.3294C30.3424 51.7647 30.3178 50.7248 29.4287 50.2094C29.2371 50.0916 29.0221 50.0175 28.7988 49.9922C28.5755 49.9668 28.3495 49.9909 28.1365 50.0627C27.9235 50.1345 27.7288 50.2522 27.5661 50.4077C27.4033 50.5631 27.2766 50.7525 27.1947 50.9624C26.7769 51.9081 26.8104 52.9009 26.9713 53.896C27.2572 55.6037 27.6147 57.3024 27.8269 59.0191C28.0503 60.812 27.7487 62.5623 27.1567 64.2632C26.6786 65.6438 26.1961 67.0235 25.7091 68.4025C25.5907 68.732 25.4276 69.0524 25.0076 69.0368C24.827 69.0334 24.6542 68.9626 24.5229 68.8383C24.3915 68.714 24.311 68.5451 24.2972 68.3644C24.2083 67.7493 24.1695 67.128 24.181 66.5066C24.2279 64.9871 24.3508 63.4721 23.8504 61.9863C23.609 61.2398 23.2144 60.5523 22.6918 59.9683C22.1693 59.3842 21.5304 58.9166 20.8166 58.5955C19.2863 57.8582 17.6488 57.475 16.0023 57.1142C14.1391 56.6996 12.9573 55.2428 11.2505 54.25C9.95482 53.4926 8.40888 51.6593 6.97911 49.6424C5.6119 47.9279 -2.09098 41.0747 4.57978 32.6504ZM13.4868 28.2803C13.8979 27.6797 14.4899 27.5116 15.169 27.6752C15.7878 27.8231 16.8289 27.1194 16.1877 26.911C15.6538 26.7362 15.1176 26.4829 14.5703 26.4471C13.1964 26.3574 12.4078 27.209 11.8895 28.3654C11.4628 29.3582 13.1092 28.8294 13.4868 28.2803ZM33.0634 20.5082C33.0251 20.4056 32.9764 20.3073 32.9182 20.2146C32.6646 19.947 32.3456 19.7506 31.9929 19.6448C31.6402 19.5391 31.2661 19.5277 30.9076 19.6117C30.6662 19.6732 30.4449 19.7966 30.2655 19.9699C30.0861 20.1432 29.9548 20.3604 29.8844 20.6001C29.8574 20.7036 29.8538 20.8119 29.8739 20.9169C29.894 21.022 29.9373 21.1213 30.0006 21.2074C30.09 21.2926 30.396 21.1917 30.5859 21.1222C31.0327 20.9609 31.4483 20.7233 31.8995 20.6001C32.2837 20.5322 32.6734 20.5015 33.0634 20.5082Z" fill="#E9BAD2"/>
<path d="M73.0209 49.6425C71.5911 51.6594 70.0452 53.4926 68.7495 54.2501C67.0516 55.2429 65.8609 56.6884 63.9664 57.1075C62.32 57.4728 60.6824 57.8516 59.1521 58.5889C58.4383 58.91 57.7995 59.3776 57.2769 59.9616C56.7544 60.5457 56.3597 61.2331 56.1183 61.9797C55.6179 63.4655 55.7408 64.9805 55.7855 66.4999C55.7989 67.1213 55.7608 67.7428 55.6715 68.3578C55.6577 68.5384 55.5772 68.7074 55.4459 68.8317C55.3145 68.956 55.1417 69.0268 54.9611 69.0301C54.5411 69.0458 54.378 68.7253 54.2596 68.3959C53.7726 67.0169 53.2901 65.6371 52.812 64.2566C52.2222 62.5556 51.9184 60.8008 52.1418 59.0125C52.3652 57.2958 52.7115 55.597 52.9974 53.8893C53.1627 52.8943 53.1963 51.9015 52.774 50.9557C52.6918 50.7461 52.5649 50.557 52.4021 50.4018C52.2394 50.2466 52.0447 50.129 51.8319 50.0572C51.619 49.9855 51.393 49.9613 51.1699 49.9865C50.9467 50.0116 50.7317 50.0854 50.54 50.2027C49.6464 50.7182 49.6263 51.758 50.4752 52.3228C50.5847 52.3968 50.712 52.6007 50.6808 52.6903C50.6518 52.7744 50.6051 52.8511 50.5438 52.9154C50.4824 52.9796 50.408 53.0297 50.3255 53.0624C50.0625 53.1154 49.791 53.1101 49.5302 53.0467C48.478 52.7822 47.7721 51.5944 47.9329 50.4044C48.0794 49.3486 48.6365 48.3939 49.4825 47.7489C50.3285 47.1039 51.3946 46.8211 52.4479 46.9621C54.5635 47.2893 56.0848 49.4542 55.6939 51.6169C55.5241 52.5536 55.2985 53.4814 55.1086 54.3644C55.6045 53.9162 56.1407 53.403 56.6835 52.9077C57.2264 52.4124 57.8162 51.953 58.33 51.4241C58.7668 50.9995 59.1428 50.516 59.447 49.9876C60.4992 48.0042 60.2758 46.6797 58.5378 45.3171C57.2108 44.2773 55.6604 43.856 54.0228 43.7865C52.459 43.7215 50.8729 43.7999 49.2979 43.7641C48.6048 43.7516 47.9154 43.6606 47.2426 43.4929C45.9916 43.1702 44.9259 42.5203 44.363 41.2944C43.9474 40.398 43.9743 39.4657 45.0577 39.0062C45.1404 38.9726 45.203 38.8023 45.2097 38.6925C45.2454 38.0538 45.2208 37.3994 45.6252 36.8548C45.7212 36.7226 45.9223 36.6665 46.072 36.5747C46.1463 36.7161 46.2134 36.8612 46.2731 37.0094C46.4495 37.498 46.5836 38.0067 46.8003 38.4773C46.8576 38.6323 46.9664 38.7627 47.1085 38.8464C47.2506 38.9301 47.4171 38.962 47.5799 38.9368C47.9218 38.0605 47.8771 36.9512 49.0187 36.5702C49.2152 37.2896 49.3873 37.9596 49.5883 38.623C49.6241 38.7395 49.7715 38.8964 49.8765 38.9031C50.3099 38.9345 50.75 38.9166 51.1611 38.9166C51.2389 38.4402 51.3555 37.971 51.5096 37.5137C51.6779 37.1774 51.9101 36.8775 52.1932 36.6307C52.3563 36.4738 52.5238 36.5298 52.5998 36.8212C52.7472 37.3971 52.9438 37.9596 53.1426 38.5199C53.1806 38.6275 53.3258 38.7776 53.413 38.7709C53.8866 38.7351 54.3602 38.6566 54.8204 38.5961C54.9254 37.5047 54.9544 36.429 56.0066 35.6827C56.0714 35.9427 56.1072 36.1175 56.1563 36.2878C56.256 36.6854 56.3768 37.0774 56.5182 37.4621C56.7416 38.0269 56.8265 38.0829 57.3605 37.8207C58.0143 37.4839 58.6483 37.1098 59.2594 36.7002C60.1954 36.0973 61.1739 35.7522 62.3222 36.0278C60.9505 37.7804 59.3867 39.2752 57.4074 40.3195C58.1965 40.3159 58.9747 40.1336 59.6838 39.7861C60.7696 39.2909 61.6587 38.5132 62.5545 37.749C63.0594 37.3122 63.6474 36.9827 64.2829 36.7805C64.9185 36.5782 65.5883 36.5074 66.2518 36.5724C67.466 36.68 68.6525 36.9969 69.7592 37.5092C70.0608 37.6369 70.3758 37.7333 70.6841 37.8431C69.2923 35.7835 67.38 34.9297 64.9516 35.1762C63.8458 35.2927 62.7444 35.3264 61.6833 34.8737C60.4657 34.356 59.4493 33.529 58.4216 32.7334C57.9458 32.3659 57.461 32.0118 56.9114 31.6017C56.6188 32.3726 56.3641 33.0382 56.1094 33.7016L55.9709 33.7419C55.7934 33.5231 55.6343 33.29 55.4951 33.0449C55.1175 32.2426 55.2046 31.3798 55.227 30.5282C55.227 30.3937 55.227 30.2055 55.1577 30.136C54.7377 29.764 54.2909 29.4211 53.7793 29.0155C53.4286 29.7774 53.1091 30.4789 52.7629 31.2229C52.4769 31.2812 52.3674 31.0167 52.2557 30.7747C51.8469 29.8783 51.838 28.9594 51.9474 28.0137C51.9572 27.9447 51.9532 27.8745 51.9356 27.8072C51.9179 27.7398 51.887 27.6767 51.8447 27.6215C51.514 27.3324 51.1432 27.0881 50.8059 26.808C50.7712 26.7666 50.7268 26.7344 50.6767 26.7145C50.6266 26.6945 50.5723 26.6873 50.5187 26.6935C50.4652 26.6997 50.414 26.7192 50.3697 26.7501C50.3255 26.781 50.2896 26.8225 50.2652 26.8707C50.0383 27.2404 49.8447 27.6297 49.6866 28.0339C49.5869 28.3494 49.5122 28.6724 49.4632 28.9998L49.2756 29.0177C48.1586 28.0316 48.1943 26.7139 48.3395 25.3625C47.5911 24.8134 47.2225 24.8784 46.7936 25.6785C46.655 25.9579 46.5349 26.2461 46.4339 26.5413C46.3624 26.7251 46.3177 26.92 46.2507 27.106C46.1412 27.4086 45.9536 27.4422 45.7503 27.2046C45.6177 27.0575 45.5173 26.8843 45.4554 26.6959C45.232 25.9205 45.1359 25.1272 45.3973 24.3473C45.4956 24.0447 45.3973 23.899 45.1739 23.6884C44.1954 22.8054 43.9385 22.1532 44.3808 20.9856C44.7047 20.0833 45.2412 19.273 45.9447 18.6235C47.8413 16.9091 50.4909 17.2789 51.5297 19.5334C51.8472 20.1842 52.3586 20.7199 52.993 21.0663C55.124 22.3023 57.3683 23.3304 59.695 24.1366C60.7852 24.5288 61.8977 24.7843 63.0684 24.5646C63.8056 24.4279 64.5406 24.2599 65.2823 24.1725C66.6964 24.0044 67.9519 24.3764 68.9773 25.4051C69.7994 26.2298 70.2194 27.2943 70.6886 28.3185C70.73 28.4288 70.7976 28.5273 70.8856 28.6054C70.9736 28.6835 71.0793 28.7389 71.1935 28.7667C72.9628 29.2956 75.3778 32.6348 75.4135 32.6527C82.091 41.0748 74.3926 47.928 73.0209 49.6425ZM68.1061 28.3655C67.5967 27.2091 66.8081 26.3486 65.4252 26.4472C64.8779 26.483 64.3417 26.7363 63.8078 26.9111C63.1667 27.1195 64.2077 27.8232 64.8265 27.6753C65.4967 27.5117 66.0977 27.6753 66.5087 28.2804C66.8908 28.8294 68.5372 29.3583 68.1016 28.3655H68.1061ZM48.0938 20.6002C48.5406 20.7234 48.965 20.961 49.4074 21.1223C49.5973 21.1918 49.9033 21.2927 49.9927 21.2075C50.056 21.1214 50.0993 21.0221 50.1194 20.917C50.1395 20.8119 50.1359 20.7037 50.1089 20.6002C50.0385 20.3605 49.9072 20.1433 49.7278 19.97C49.5484 19.7967 49.3271 19.6733 49.0857 19.6118C48.7272 19.5278 48.3531 19.5392 48.0004 19.6449C47.6477 19.7507 47.3287 19.9471 47.0751 20.2147C47.016 20.3069 46.9673 20.4053 46.9299 20.5083C47.3199 20.5017 47.7096 20.5324 48.0938 20.6002Z" fill="#E9BAD2"/>
</svg>
