<svg width="140" height="175" viewBox="0 0 140 175" fill="none" xmlns="http://www.w3.org/2000/svg">
<path d="M70.6177 108.541C70.3946 104.716 70.1953 101.002 69.9363 97.2882C69.8845 96.5343 70.1117 96.3069 70.8209 96.3388C76.2761 96.5861 81.7312 96.8095 87.1823 97.0608C88.3777 97.1167 88.4734 97.364 88.2741 98.4131C87.772 101.086 87.1305 103.766 86.9631 106.467C86.6523 111.374 86.6523 116.3 86.5129 121.227C86.4611 123.07 86.3933 124.908 86.2937 126.751C86.2882 126.894 86.2519 127.034 86.1872 127.161C86.1226 127.289 86.0311 127.401 85.9191 127.489C82.4405 129.137 80.0257 131.977 77.6827 134.869C74.4949 138.822 72.1439 143.302 69.9044 147.83C69.7634 148.178 69.5969 148.515 69.4064 148.839C69.1814 149.11 68.932 149.36 68.6612 149.585C68.458 149.226 68.0675 148.855 68.0874 148.504C68.1671 147.08 68.3982 145.66 68.5297 144.235C68.8086 141.248 69.1434 138.252 69.3267 135.264C69.7849 126.321 70.1914 117.381 70.6177 108.541Z" fill="#E9BAD2"/>
<path d="M46.6455 117.438C49.646 117.565 52.6027 117.697 55.5594 117.804C58.5161 117.912 61.3572 118 64.2581 118.108C65.2503 118.144 65.3619 118.307 64.9475 119.213C63.4412 122.512 62.8555 126.05 62.3295 129.584C61.3891 135.943 61.5325 142.329 62.1581 148.692C62.6346 153.482 63.6286 158.206 65.1228 162.781C65.3331 163.393 65.4852 164.023 65.577 164.664C65.5809 164.805 65.5498 164.945 65.4865 165.071C65.4232 165.197 65.3297 165.305 65.2144 165.386C65.0739 165.392 64.934 165.365 64.8059 165.306C64.6778 165.248 64.5653 165.161 64.4773 165.051C60.5842 159.793 55.8503 155.393 50.7179 151.384C48.7017 149.813 46.6694 148.193 45.3824 145.927C43.8403 143.191 43.8522 140.227 44.4938 137.271C45.0397 134.742 45.9123 132.281 46.3785 129.744C47.171 125.817 47.256 121.781 46.6296 117.824C46.6199 117.695 46.6253 117.565 46.6455 117.438Z" fill="#E9BAD2"/>
<path d="M90.4538 57.2825C90.0832 58.7983 89.621 60.1626 89.4297 61.5627C89.083 64.1317 88.8161 66.7166 88.6567 69.3015C88.2582 76.0829 87.9633 82.8643 88.4016 89.6776C88.546 90.8679 88.7629 92.0482 89.0512 93.2119L70.1316 92.3582C70.291 91.4607 70.5101 90.5791 70.5978 89.6816C70.9564 86.0515 71.4386 82.4215 71.5661 78.7835C71.7454 73.6655 71.7534 68.5316 71.6219 63.4136C71.5701 61.3633 71.0003 59.3209 70.5659 57.2944C70.3308 56.2134 70.4026 55.9741 71.5183 56.0339C77.4476 56.3583 83.3756 56.6934 89.3022 57.0391C89.6915 57.092 90.0764 57.1733 90.4538 57.2825Z" fill="#E9BAD2"/>
<path d="M47.8965 79.092C49.6658 78.9484 51.3513 78.7849 53.0408 78.6931C57.2607 78.4219 61.4845 78.1865 65.7083 77.8953C66.6248 77.8355 66.836 78.0748 66.7205 79.0561C66.2742 82.8138 65.8398 86.5795 65.6326 90.3571C65.3617 95.3035 65.1863 100.258 65.2063 105.208C65.2063 108.196 65.6565 111.192 65.9474 114.168C66.055 115.261 65.9474 115.46 64.8755 115.42C59.1455 115.209 53.4154 114.982 47.6853 114.778C47.0318 114.758 46.7888 114.635 46.9482 113.877C47.506 111.18 48.1635 108.479 48.4464 105.743C48.8449 102.049 48.9923 98.3193 49.068 94.6015C49.1358 91.2945 49.0402 87.9796 48.8369 84.6767C48.7293 82.8936 48.2552 81.1304 47.8965 79.092Z" fill="#E9BAD2"/>
<path d="M47.9365 75.1826C48.8998 63.5864 48.0936 51.9109 45.5457 40.5576L64.9514 38.0645C64.8119 39.9553 64.5529 41.6187 64.5967 43.2502C64.792 48.9466 65.1227 54.635 65.3618 60.3314C65.5233 64.4245 66.073 68.493 67.0035 72.482C67.3302 73.8663 67.1589 73.9221 65.7364 74.0099C59.8708 74.3848 54.0212 74.7837 47.9365 75.1826Z" fill="#E9BAD2"/>
<path d="M90.892 54.2521L70.7092 52.9996C71.0177 51.8472 71.2586 50.6777 71.4305 49.4972C71.7891 45.3804 72.1477 41.2717 73.2435 37.2627C76.0846 26.8473 82.1335 19.0168 91.8284 14.1581C93.9283 13.109 96.1598 12.3271 98.3434 11.4575C98.6548 11.409 98.9725 11.4198 99.2798 11.4894C99.2599 11.7726 99.3356 12.1077 99.2081 12.3231C95.319 18.8014 93.4581 25.9976 91.8842 33.2737C90.8083 38.252 90.091 43.2982 90.2185 48.4121C90.2544 49.9719 90.5373 51.5236 90.7166 53.0753C90.7565 53.4543 90.8202 53.7974 90.892 54.2521ZM86.6084 24.6932C86.4212 24.803 86.2426 24.927 86.0744 25.0642C80.6512 30.3178 76.8059 36.4848 75.4909 44.0361C75.2877 45.185 75.2997 46.3737 75.212 47.5425H75.4909C78.1009 39.4088 81.9303 31.8655 86.6084 24.6932Z" fill="#E9BAD2"/>
<path d="M64.6924 35.1358L44.7368 37.7247C44.8085 37.0585 44.952 36.3046 44.9599 35.5467C45.0556 27.2614 44.2188 19.1237 40.9991 11.385C39.9909 8.9596 38.919 6.56617 37.9109 4.14481C37.8198 3.77178 37.7836 3.38744 37.8033 3.00394C38.1554 2.99008 38.5079 3.01281 38.8553 3.07175C44.8831 4.72126 50.5415 7.50615 55.5275 11.2772C60.5961 15.1187 62.9989 20.1449 63.3336 26.328C63.4173 27.8279 63.3933 29.3477 63.6205 30.8236C63.8476 32.2996 64.3338 33.7356 64.6924 35.1358Z" fill="#E9BAD2"/>
<path d="M93.0039 131.687C92.8807 132.045 92.7062 132.384 92.4859 132.692C88.2063 137.02 85.7118 142.438 83.1576 147.851C80.8863 152.638 78.6349 157.484 75.985 162.064C74.3075 164.956 71.8887 167.413 69.8047 170.066C69.4676 170.538 69.1045 170.991 68.7169 171.422C68.4186 171.657 68.0936 171.855 67.7486 172.012C67.5972 171.669 67.3063 171.318 67.3182 170.983C67.4464 167.161 67.9888 163.364 68.936 159.658C70.781 152.45 73.8452 145.856 78.9258 140.343C82.4762 136.49 86.5327 133.311 91.6092 131.663C91.9897 131.563 92.3755 131.484 92.7648 131.428L93.0039 131.687Z" fill="#E9BAD2"/>
</svg>
