<svg width="125" height="222" viewBox="0 0 125 222" fill="none" xmlns="http://www.w3.org/2000/svg">
<path d="M19.9675 85.7394L40.5453 112.419L50.5568 104.726C50.5568 104.726 47.5054 99.5653 43.6925 99.8371C43.6925 99.8371 45.0492 97.4607 43.3142 95.2101C41.5792 92.9594 38.9566 93.0299 38.9566 93.0299C38.9566 93.0299 39.9804 90.8951 38.2959 88.7049C36.6113 86.5198 34.4073 86.696 34.4073 86.696C34.4073 86.696 36.7727 76.6866 28.3953 74.5215C21.8538 72.8298 16.8758 79.7931 19.9675 85.7394Z" fill="#233565"/>
<path d="M84.6262 204.791L64.0484 178.111L54.0369 185.805C54.0369 185.805 57.0882 190.965 60.9012 190.694C60.9012 190.694 59.5445 193.07 61.2794 195.321C63.0144 197.571 65.6371 197.501 65.6371 197.501C65.6371 197.501 64.6132 199.636 66.2978 201.826C67.9824 204.016 70.1864 203.835 70.1864 203.835C70.1864 203.835 67.821 213.844 76.1983 216.009C82.7449 217.696 87.7179 210.738 84.6262 204.791Z" fill="#233565"/>
<path d="M6.47091 117.509C6.47091 117.509 10.2889 100.345 24.7387 100.96C24.7387 100.96 14.1069 95.1493 12.6342 81.6406C12.6342 81.6406 8.03946 90.5776 5.24532 97.7977C1.10455 108.532 6.47091 117.509 6.47091 117.509Z" fill="#233565"/>
<path d="M97.9311 172.789C97.9311 172.789 94.1131 189.953 79.6633 189.339C79.6633 189.339 90.2952 195.149 91.7679 208.658C91.7679 208.658 96.3626 199.721 99.1567 192.501C103.298 181.766 97.9311 172.789 97.9311 172.789Z" fill="#233565"/>
<path d="M30.2009 111.08C30.2009 111.08 36.46 142.503 72.8191 178.11C72.8191 178.11 60.538 135.117 30.2009 111.08Z" fill="#233565"/>
<path d="M38.9515 14.7415L59.5293 41.4215L69.5408 33.7282C69.5408 33.7282 66.4895 28.5674 62.6765 28.8392C62.6765 28.8392 64.0332 26.4628 62.2982 24.2122C60.5633 21.9615 57.9406 22.032 57.9406 22.032C57.9406 22.032 58.9644 19.8972 57.2799 17.707C55.5953 15.5168 53.3913 15.6981 53.3913 15.6981C53.3913 15.6981 55.7567 5.68362 47.3794 3.52363C40.8328 1.8319 35.8598 8.79017 38.9515 14.7415Z" fill="#233565"/>
<path d="M103.61 133.788L83.0324 107.107L73.0209 114.801C73.0209 114.801 76.0723 119.962 79.8852 119.69C79.8852 119.69 78.5285 122.066 80.2635 124.317C81.9985 126.567 84.6211 126.497 84.6211 126.497C84.6211 126.497 83.5973 128.632 85.2818 130.822C86.9664 133.007 89.1704 132.831 89.1704 132.831C89.1704 132.831 86.805 142.84 95.1824 145.005C101.724 146.697 106.702 139.734 103.61 133.788Z" fill="#233565"/>
<path d="M25.4549 46.5133C25.4549 46.5133 29.2729 29.3493 43.7228 29.9635C43.7228 29.9635 33.0909 24.1532 31.6182 10.6445C31.6182 10.6445 27.0235 19.5815 24.2294 26.8016C20.0835 37.531 25.4549 46.5133 25.4549 46.5133Z" fill="#233565"/>
<path d="M116.91 101.791C116.91 101.791 113.092 118.955 98.6423 118.341C98.6423 118.341 109.274 124.151 110.747 137.66C110.747 137.66 115.342 128.723 118.136 121.503C122.282 110.768 116.91 101.791 116.91 101.791Z" fill="#233565"/>
<path d="M49.1849 40.084C49.1849 40.084 55.444 71.507 91.8032 107.114C91.8032 107.109 79.522 64.1207 49.1849 40.084Z" fill="#233565"/>
</svg>
