<svg width="125" height="222" viewBox="0 0 125 222" fill="none" xmlns="http://www.w3.org/2000/svg">
<path d="M19.9675 85.7391L40.5453 112.424L50.5568 104.726C50.5568 104.726 47.5307 99.565 43.6925 99.8369C44.0742 99.1088 44.2412 98.2877 44.1743 97.4687C44.1073 96.6497 43.8091 95.8664 43.3142 95.2098C42.7938 94.5481 42.1333 94.0095 41.3799 93.6326C40.6266 93.2557 39.799 93.0498 38.9566 93.0297C39.2432 92.3155 39.333 91.5378 39.2168 90.7772C39.1006 90.0167 38.7827 89.3011 38.2959 88.7046C37.856 88.0833 37.2734 87.5762 36.5968 87.2258C35.9203 86.8754 35.1695 86.6919 34.4073 86.6907C34.4073 86.6907 36.7727 76.6863 28.3953 74.5162C21.8538 72.8295 16.8758 79.7928 19.9675 85.7391Z" fill="#D86F3A"/>
<path d="M84.6262 204.791L64.0484 178.105L54.0369 185.789C54.0369 185.789 57.063 190.95 60.9062 190.678C60.525 191.405 60.3582 192.225 60.4251 193.043C60.4921 193.861 60.7901 194.644 61.2845 195.3C61.8043 195.961 62.4639 196.5 63.2163 196.878C63.9687 197.255 64.7952 197.463 65.6371 197.485C65.3511 198.199 65.262 198.976 65.3791 199.736C65.4962 200.495 65.8152 201.21 66.3028 201.805C66.7428 202.425 67.3248 202.931 68.0003 203.281C68.6757 203.632 69.4252 203.816 70.1864 203.819C70.1864 203.819 67.821 213.828 76.1983 215.993C82.7449 217.695 87.7179 210.737 84.6262 204.791Z" fill="#D86F3A"/>
<path d="M6.47089 117.51C6.47089 117.51 10.2889 100.351 24.7438 100.96C21.3904 98.8691 18.5577 96.0432 16.4605 92.6969C14.3633 89.3506 13.0565 85.5717 12.6392 81.6465C12.6392 81.6465 8.06971 90.5784 5.25035 97.8036C4.04577 100.988 3.5317 104.391 3.7421 107.788C3.9525 111.185 4.88258 114.499 6.47089 117.51Z" fill="#D86F3A"/>
<path d="M97.9311 172.789C97.9311 172.789 94.1131 189.953 79.6582 189.339C83.0109 191.431 85.8429 194.257 87.94 197.603C90.0371 200.949 91.3444 204.728 91.7628 208.653C91.7628 208.653 96.3575 199.721 99.1517 192.496C100.356 189.312 100.87 185.909 100.66 182.512C100.45 179.115 99.5194 175.801 97.9311 172.789Z" fill="#D86F3A"/>
<path d="M30.2009 111.08C30.2009 111.08 36.465 142.488 72.8191 178.11C72.8191 178.11 60.5229 135.117 30.2009 111.08Z" fill="#D86F3A"/>
<path d="M38.9515 14.7415L59.5293 41.4266L69.5408 33.7332C69.5408 33.7332 66.5147 28.5774 62.6715 28.8493C63.0532 28.1213 63.2202 27.3001 63.1533 26.4811C63.0863 25.6621 62.7881 24.8789 62.2932 24.2222C61.7736 23.5609 61.1139 23.0226 60.3614 22.6457C59.6089 22.2687 58.7823 22.0626 57.9406 22.0421C58.2266 21.3278 58.3162 20.5502 58.2001 19.7898C58.0839 19.0294 57.7662 18.3138 57.2799 17.7171C56.8397 17.096 56.257 16.5892 55.5805 16.2388C54.9041 15.8884 54.1534 15.7048 53.3913 15.7031C53.3913 15.7031 55.7567 5.68362 47.3794 3.52363C40.853 1.8319 35.8598 8.79017 38.9515 14.7415Z" fill="#D86F3A"/>
<path d="M103.61 133.789L83.0324 107.104L73.0209 114.797C73.0209 114.797 76.0723 119.953 79.8852 119.681C79.5035 120.409 79.3365 121.23 79.4034 122.049C79.4704 122.868 79.7686 123.651 80.2635 124.308C80.7839 124.97 81.4444 125.508 82.1978 125.885C82.9511 126.262 83.7787 126.468 84.6211 126.488C84.3351 127.202 84.2455 127.98 84.3617 128.74C84.4779 129.501 84.7955 130.216 85.2818 130.813C85.7217 131.434 86.3044 131.941 86.9809 132.292C87.6575 132.642 88.4083 132.826 89.1704 132.827C89.1704 132.827 86.805 142.841 95.1824 145.001C101.724 146.698 106.702 139.735 103.61 133.789Z" fill="#D86F3A"/>
<path d="M25.4549 46.5133C25.4549 46.5133 29.2527 29.3493 43.7228 29.9635C40.3695 27.8708 37.5371 25.0439 35.4399 21.6968C33.3428 18.3498 32.0359 14.5703 31.6182 10.6445C31.6182 10.6445 27.0235 19.5815 24.2344 26.8066C23.0288 29.9905 22.5143 33.3936 22.7247 36.7908C22.9351 40.1881 23.8657 43.502 25.4549 46.5133Z" fill="#D86F3A"/>
<path d="M116.91 101.791C116.91 101.791 113.092 118.95 98.6423 118.336C101.996 120.429 104.828 123.255 106.925 126.603C109.022 129.95 110.329 133.729 110.747 137.655C110.747 137.655 115.342 128.718 118.131 121.498C119.337 118.314 119.851 114.911 119.641 111.513C119.43 108.116 118.5 104.802 116.91 101.791Z" fill="#D86F3A"/>
<path d="M49.1849 40.084C49.1849 40.084 55.444 71.4969 91.7931 107.109C91.7931 107.109 79.522 64.1207 49.1849 40.084Z" fill="#D86F3A"/>
</svg>
