<svg width="120" height="239" viewBox="0 0 120 239" fill="none" xmlns="http://www.w3.org/2000/svg">
<path d="M66.7114 42.6538C68.8234 41.9697 70.5381 41.3001 72.311 40.8683C75.353 40.1308 78.3563 40.2278 81.2046 41.7562C85.0798 43.8426 86.7655 48.583 84.7891 52.4306C84.2658 53.3261 83.5326 54.0805 82.6529 54.6286C82.4579 54.7765 82.2318 54.8778 81.9917 54.925C81.7517 54.9721 81.504 54.9638 81.2677 54.9006C81.0314 54.8375 80.8125 54.7211 80.6278 54.5605C80.4431 54.3998 80.2974 54.1991 80.2019 53.9736C78.1674 49.6989 74.4133 49.0245 70.4267 49.6504C67.3023 50.1356 64.2458 51.2516 61.2716 52.3772C57.6628 53.7407 54.1703 55.4097 50.5858 56.9672C52.4458 56.9672 54.3011 56.9672 56.1515 57.0594C60.2495 57.2487 63.9019 58.5538 66.8083 61.5475C72.747 67.6513 70.199 76.317 63.65 80.1744C59.7748 82.4306 55.8221 82.8769 51.9421 80.1404C51.0593 79.5521 50.3625 78.7238 49.9334 77.7525C49.5044 76.7813 49.361 75.7077 49.5201 74.6576C49.5923 74.3527 49.7309 74.0676 49.9261 73.8227C50.1212 73.5777 50.368 73.3791 50.6487 73.2409C50.9288 73.1834 51.2185 73.1943 51.4934 73.2729C51.7683 73.3515 52.0203 73.4952 52.2279 73.6921C53.7392 75.3612 54.6111 75.7057 56.1031 74.973C56.8608 74.5646 57.4659 73.9211 57.8275 73.139C58.1891 72.3568 58.2877 71.4783 58.1085 70.6353C57.4206 67.7581 55.2021 66.3122 52.722 65.3515C46.6718 63.0274 40.6798 63.6776 34.93 66.3219C32.1786 67.598 29.6598 69.3884 27.0392 70.9556C26.7998 71.1513 26.5807 71.3708 26.3852 71.6106C27.9886 71.1254 29.2625 70.6111 30.585 70.3054C35.521 69.1555 40.0792 71.4262 41.5324 75.7542C42.259 77.923 42.1282 79.9997 40.4328 81.7464C39.6287 82.5761 38.6696 82.8769 37.8219 81.9259C35.8843 79.7377 33.3412 79.3932 30.6528 79.4466C25.1791 79.5533 20.8243 82.2365 16.8087 85.6086C12.8332 88.9236 9.68225 93.1196 7.6051 97.8648C7.47431 98.1705 7.41134 98.5877 7.17883 98.7527C6.56364 99.1797 5.83705 99.8153 5.24124 99.7522C4.75684 99.6988 3.97211 98.7818 3.94305 98.2044C3.76168 96.2223 3.81371 94.2258 4.09806 92.2559C5.13951 86.7925 8.23482 82.3869 11.6256 78.1171C14.4932 74.5315 17.1913 70.7615 18.3055 66.2249C18.7559 64.4005 18.5961 62.3433 18.4072 60.4607C18.3248 59.6261 17.5885 58.7431 16.954 58.1123C15.462 56.6567 13.9265 56.812 12.483 58.3404C11.3737 59.5145 10.7149 59.369 10.2451 57.7921C9.39253 54.9148 10.3952 52.4888 12.3183 50.4413C13.2599 49.3742 14.4837 48.5957 15.8482 48.1956C17.2128 47.7955 18.6625 47.7902 20.0299 48.1803C21.9412 48.5922 23.6603 49.6318 24.9144 51.1341C26.1685 52.6364 26.8856 54.5152 26.952 56.4723C27.0682 58.5199 26.734 60.5868 26.6032 62.6732C31.2389 58.8353 36.1458 55.1186 38.9457 49.4272C40.0259 47.2293 40.5587 44.9149 39.6238 42.4986C38.9554 40.7567 37.7831 39.6068 35.8455 39.4806C34.155 39.3642 33.1184 40.2569 32.2319 42.353C32.033 42.7582 31.8114 43.1518 31.5683 43.532C30.0327 42.6975 29.5483 41.3583 29.2529 39.9755C28.5795 36.977 30.0327 33.9105 32.881 31.994C37.3859 28.9712 43.9253 29.7718 48.0136 33.8426C49.9317 35.7132 51.1266 38.2037 51.3864 40.8726C51.6462 43.5415 50.9541 46.2163 49.4329 48.4229L48.9485 49.1215L49.1907 49.3981C51.1283 47.797 53.1434 46.2977 54.955 44.5752C59.3824 40.3734 62.5601 35.3904 63.7372 29.3108C64.5413 25.1866 63.9794 21.2905 61.3152 17.928C59.4648 15.6136 56.9556 14.75 54.0492 15.2157C53.1096 15.3142 52.2368 15.7486 51.591 16.4392C50.9451 17.1298 50.5693 18.0305 50.5325 18.9761C50.3775 20.5675 51.2542 21.7465 53.2015 22.5714C54.4319 23.0954 54.6256 23.7844 53.8506 24.9101C52.4894 26.8945 48.7305 27.4913 46.2601 26.1036C41.513 23.4447 39.8999 16.9382 42.4527 11.766C45.7902 4.99743 53.5212 2.42587 60.4626 4.10466C70.2378 6.4967 75.3627 14.8373 73.1442 24.6723C72.9553 25.5117 72.81 26.3608 72.6017 27.4379C74.0016 26.1231 75.2319 24.9101 76.5204 23.7601C79.7708 20.8489 83.0744 17.9959 87.3564 16.7005C92.6848 15.0896 97.7371 15.5845 102.019 19.3011C108.869 25.2497 104.926 33.7601 99.1903 35.8562C96.623 36.7926 94.1138 36.6665 91.9243 34.8178C91.5141 34.423 91.185 33.9516 90.9555 33.4302C90.6261 32.7557 90.7957 32.2608 91.6046 32.0279C93.581 31.4554 94.3172 30.6839 94.3076 29.306C94.2979 27.928 92.8544 26.4627 91.1251 26.0357C88.8629 25.4874 86.7655 26.1036 84.7407 27.0061C80.5846 28.879 77.1259 31.7465 73.9483 34.9343C71.5215 37.3603 69.269 39.9173 66.7114 42.6538Z" fill="#BE986A"/>
<path d="M53.2839 196.341C51.1767 197.025 49.462 197.7 47.6842 198.131C44.6422 198.864 41.6438 198.767 38.7907 197.239C34.9155 195.157 33.2346 190.417 35.211 186.564C35.7355 185.672 36.4686 184.921 37.3472 184.376C37.5419 184.227 37.768 184.125 38.0083 184.077C38.2485 184.03 38.4965 184.038 38.7332 184.101C38.9698 184.164 39.1889 184.281 39.3735 184.442C39.5581 184.603 39.7034 184.805 39.7982 185.031C41.8327 189.301 45.611 189.98 49.5734 189.354C52.6929 188.869 55.7543 187.753 58.7285 186.627C62.3373 185.264 65.8298 183.595 69.4143 182.037C67.5494 182.008 65.699 182.037 63.8486 181.945C59.7506 181.756 56.0982 180.451 53.1918 177.457C47.2531 171.353 49.801 162.683 56.3501 158.83C60.2011 156.574 64.1731 156.128 68.058 158.859C68.9363 159.45 69.628 160.28 70.0519 161.251C70.4758 162.223 70.6142 163.295 70.4509 164.342C70.3813 164.649 70.2437 164.936 70.0483 165.182C69.853 165.428 69.6048 165.627 69.3223 165.764C69.043 165.82 68.7543 165.808 68.4804 165.73C68.2064 165.651 67.9553 165.508 67.748 165.312C66.2367 163.643 65.3648 163.294 63.8728 164.027C63.1161 164.437 62.5123 165.082 62.1517 165.865C61.7911 166.647 61.6931 167.526 61.8722 168.369C62.5601 171.246 64.7786 172.687 67.2588 173.648C73.3089 175.977 79.3009 175.327 85.0459 172.678C87.8021 171.402 90.321 169.611 92.9367 168.044C93.1755 167.846 93.396 167.627 93.5955 167.389C91.9921 167.874 90.6891 168.359 89.3958 168.694C84.4597 169.844 79.9015 167.573 78.4483 163.245C77.7217 161.072 77.8525 159 79.5479 157.253C80.352 156.419 81.3111 156.123 82.1588 157.074C84.0964 159.262 86.6395 159.606 89.3231 159.553C94.8016 159.446 99.1564 156.763 103.172 153.386C107.149 150.075 110.3 145.88 112.376 141.135C112.511 140.829 112.574 140.407 112.807 140.242C113.422 139.815 114.144 139.18 114.744 139.272C115.229 139.32 116.013 140.242 116.043 140.815C116.225 142.797 116.171 144.794 115.883 146.763C114.88 152.241 111.775 156.647 108.379 160.897C105.512 164.488 102.814 168.258 101.695 172.794C101.244 174.619 101.404 176.652 101.598 178.558C101.68 179.388 102.416 180.271 103.051 180.907C104.543 182.362 106.078 182.202 107.522 180.674C108.631 179.505 109.29 179.645 109.76 181.227C110.608 184.099 109.605 186.53 107.687 188.578C106.744 189.644 105.521 190.422 104.156 190.822C102.792 191.222 101.343 191.228 99.975 190.839C95.9642 189.844 93.2952 186.753 93.053 182.542C92.9367 180.499 93.2709 178.427 93.4017 176.341C88.766 180.179 83.8591 183.9 81.0593 189.592C79.9742 191.751 79.4414 194.08 80.3714 196.506C81.0447 198.248 82.2412 199.417 84.1691 199.538C85.8645 199.65 86.9011 198.762 87.7875 196.666C87.9865 196.262 88.2064 195.868 88.4463 195.487C89.9722 196.307 90.442 197.656 90.7472 199.044C91.4012 202.042 89.9722 205.109 87.1191 207.02C82.6142 210.043 76.0748 209.242 71.9865 205.172C70.0666 203.302 68.8705 200.811 68.6107 198.142C68.3508 195.472 69.044 192.797 70.5672 190.591L71.0274 189.893L70.7803 189.621C68.8427 191.222 66.8325 192.721 65.0208 194.444C60.5934 198.646 57.4158 203.624 56.2338 209.708C55.4346 213.828 55.9965 217.729 58.6849 221.091C60.5353 223.405 63.0445 224.264 65.9509 223.803C66.8901 223.704 67.7623 223.269 68.408 222.579C69.0537 221.888 69.4298 220.988 69.4676 220.043C69.6178 218.452 68.7459 217.273 66.7986 216.448C65.5682 215.924 65.3744 215.235 66.1495 214.109C67.5106 212.12 71.2696 211.528 73.74 212.911C78.4823 215.569 80.1001 222.081 77.5425 227.253C74.205 234.017 66.474 236.617 59.5326 234.914C49.7574 232.518 44.6277 224.182 46.8559 214.342C47.0448 213.507 47.1901 212.658 47.3984 211.576C45.9985 212.896 44.7681 214.104 43.4796 215.254C40.2245 218.165 36.9209 221.018 32.6436 222.319C27.3153 223.929 22.263 223.435 17.9809 219.718C11.1412 213.75 15.0745 205.24 20.8292 203.143C23.3965 202.202 25.9057 202.333 28.0951 204.182C28.5062 204.576 28.8355 205.047 29.0639 205.569C29.3933 206.239 29.2238 206.739 28.4148 206.972C26.4385 207.539 25.7022 208.311 25.7119 209.694C25.7216 211.077 27.1651 212.537 28.8944 212.959C31.1565 213.507 33.254 212.891 35.2788 211.989C39.4349 210.121 42.8887 207.253 46.0712 204.061C48.4786 201.639 50.7359 199.078 53.2839 196.341Z" fill="#BE986A"/>
</svg>
