<svg width="120" height="239" viewBox="0 0 120 239" fill="none" xmlns="http://www.w3.org/2000/svg">
<path d="M66.7113 42.6538C68.8232 41.9697 70.538 41.3001 72.3109 40.8683C75.3529 40.1308 78.3562 40.2278 81.2045 41.7562C85.0796 43.8426 86.7653 48.583 84.789 52.4306C84.2657 53.3261 83.5325 54.0805 82.6528 54.6286C82.4578 54.7765 82.2316 54.8778 81.9916 54.925C81.7515 54.9721 81.5039 54.9638 81.2676 54.9006C81.0312 54.8375 80.8124 54.7211 80.6277 54.5605C80.443 54.3998 80.2973 54.1991 80.2018 53.9736C78.1673 49.6989 74.4132 49.0245 70.4266 49.6504C67.3022 50.1356 64.2457 51.2516 61.2715 52.3772C57.6627 53.7407 54.1702 55.4097 50.5856 56.9672C52.4457 56.9672 54.301 56.9672 56.1514 57.0594C60.2494 57.2487 63.9017 58.5538 66.8081 61.5475C72.7469 67.6513 70.1989 76.317 63.6499 80.1744C59.7747 82.4306 55.822 82.8769 51.942 80.1404C51.0592 79.5521 50.3624 78.7238 49.9333 77.7525C49.5043 76.7813 49.3609 75.7077 49.52 74.6576C49.5922 74.3527 49.7308 74.0676 49.9259 73.8227C50.1211 73.5777 50.3678 73.3791 50.6486 73.2409C50.9287 73.1834 51.2184 73.1943 51.4933 73.2729C51.7682 73.3515 52.0201 73.4952 52.2277 73.6921C53.7391 75.3612 54.611 75.7057 56.1029 74.973C56.8607 74.5646 57.4658 73.9211 57.8274 73.139C58.189 72.3568 58.2876 71.4783 58.1083 70.6353C57.4205 67.7581 55.202 66.3122 52.7218 65.3515C46.6717 63.0274 40.6797 63.6776 34.9299 66.3219C32.1785 67.598 29.6596 69.3884 27.039 70.9556C26.7996 71.1513 26.5805 71.3708 26.3851 71.6106C27.9885 71.1254 29.2624 70.6111 30.5848 70.3054C35.5209 69.1555 40.079 71.4262 41.5322 75.7542C42.2588 77.923 42.128 79.9997 40.4326 81.7464C39.6285 82.5761 38.6694 82.8769 37.8217 81.9259C35.8841 79.7377 33.3411 79.3932 30.6526 79.4466C25.1789 79.5533 20.8242 82.2365 16.8085 85.6086C12.8331 88.9236 9.68212 93.1196 7.60498 97.8648C7.47419 98.1705 7.41122 98.5877 7.17871 98.7527C6.56352 99.1797 5.83692 99.8153 5.24111 99.7522C4.75672 99.6988 3.97199 98.7818 3.94293 98.2044C3.76156 96.2223 3.81358 94.2258 4.09793 92.2559C5.13939 86.7925 8.2347 82.3869 11.6255 78.1171C14.4931 74.5315 17.1912 70.7615 18.3053 66.2249C18.7558 64.4005 18.596 62.3433 18.4071 60.4607C18.3247 59.6261 17.5884 58.7431 16.9539 58.1123C15.4619 56.6567 13.9264 56.812 12.4829 58.3404C11.3736 59.5145 10.7148 59.369 10.2449 57.7921C9.39241 54.9148 10.3951 52.4888 12.3182 50.4413C13.2598 49.3742 14.4836 48.5957 15.8481 48.1956C17.2127 47.7955 18.6624 47.7902 20.0298 48.1803C21.9411 48.5922 23.6602 49.6318 24.9143 51.1341C26.1683 52.6364 26.8855 54.5152 26.9518 56.4723C27.0681 58.5199 26.7339 60.5868 26.6031 62.6732C31.2388 58.8353 36.1457 55.1186 38.9455 49.4272C40.0258 47.2293 40.5586 44.9149 39.6237 42.4986C38.9552 40.7567 37.783 39.6068 35.8454 39.4806C34.1548 39.3642 33.1182 40.2569 32.2318 42.353C32.0329 42.7582 31.8113 43.1518 31.5682 43.532C30.0326 42.6975 29.5482 41.3583 29.2527 39.9755C28.5794 36.977 30.0326 33.9105 32.8809 31.994C37.3858 28.9712 43.9252 29.7718 48.0135 33.8426C49.9316 35.7132 51.1265 38.2037 51.3863 40.8726C51.6461 43.5415 50.954 46.2163 49.4328 48.4229L48.9484 49.1215L49.1906 49.3981C51.1282 47.797 53.1433 46.2977 54.9549 44.5752C59.3823 40.3734 62.56 35.3904 63.7371 29.3108C64.5412 25.1866 63.9793 21.2905 61.3151 17.928C59.4647 15.6136 56.9555 14.75 54.0491 15.2157C53.1095 15.3142 52.2367 15.7486 51.5908 16.4392C50.9449 17.1298 50.5692 18.0305 50.5324 18.9761C50.3773 20.5675 51.2541 21.7465 53.2014 22.5714C54.4318 23.0954 54.6255 23.7844 53.8505 24.9101C52.4893 26.8945 48.7304 27.4913 46.26 26.1036C41.5129 23.4447 39.8998 16.9382 42.4526 11.766C45.7901 4.99743 53.5211 2.42587 60.4625 4.10466C70.2377 6.4967 75.3626 14.8373 73.1441 24.6723C72.9552 25.5117 72.8098 26.3608 72.6015 27.4379C74.0015 26.1231 75.2318 24.9101 76.5203 23.7601C79.7706 20.8489 83.0742 17.9959 87.3563 16.7005C92.6847 15.0896 97.737 15.5845 102.019 19.3011C108.868 25.2497 104.925 33.7601 99.1902 35.8562C96.6229 36.7926 94.1137 36.6665 91.9242 34.8178C91.514 34.423 91.1848 33.9516 90.9554 33.4302C90.626 32.7557 90.7955 32.2608 91.6045 32.0279C93.5808 31.4554 94.3171 30.6839 94.3074 29.306C94.2977 27.928 92.8542 26.4627 91.1249 26.0357C88.8628 25.4874 86.7654 26.1036 84.7406 27.0061C80.5844 28.879 77.1258 31.7465 73.9482 34.9343C71.5213 37.3603 69.2689 39.9173 66.7113 42.6538Z" fill="#9AC552"/>
<path d="M53.2837 196.341C51.1766 197.025 49.4618 197.7 47.6841 198.131C44.6421 198.864 41.6436 198.767 38.7905 197.239C34.9154 195.157 33.2345 190.417 35.2108 186.564C35.7354 185.672 36.4685 184.921 37.347 184.376C37.5417 184.227 37.7679 184.125 38.0082 184.077C38.2484 184.03 38.4964 184.038 38.733 184.101C38.9697 184.164 39.1887 184.281 39.3734 184.442C39.558 184.603 39.7033 184.805 39.7981 185.031C41.8326 189.301 45.6109 189.98 49.5732 189.354C52.6928 188.869 55.7542 187.753 58.7284 186.627C62.3371 185.264 65.8297 183.595 69.4142 182.037C67.5493 182.008 65.6989 182.037 63.8485 181.945C59.7505 181.756 56.0981 180.451 53.1917 177.457C47.253 171.353 49.8009 162.683 56.35 158.83C60.2009 156.574 64.173 156.128 68.0579 158.859C68.9362 159.45 69.6279 160.28 70.0518 161.251C70.4756 162.223 70.6141 163.295 70.4508 164.342C70.3812 164.649 70.2436 164.936 70.0482 165.182C69.8528 165.428 69.6047 165.627 69.3222 165.764C69.0429 165.82 68.7541 165.808 68.4802 165.73C68.2063 165.651 67.9552 165.508 67.7479 165.312C66.2365 163.643 65.3646 163.294 63.8727 164.027C63.116 164.437 62.5122 165.082 62.1516 165.865C61.791 166.647 61.693 167.526 61.8721 168.369C62.56 171.246 64.7785 172.687 67.2586 173.648C73.3088 175.977 79.3008 175.327 85.0457 172.678C87.802 171.402 90.3208 169.611 92.9366 168.044C93.1754 167.846 93.3959 167.627 93.5954 167.389C91.992 167.874 90.689 168.359 89.3956 168.694C84.4596 169.844 79.9014 167.573 78.4482 163.245C77.7216 161.072 77.8524 159 79.5478 157.253C80.3519 156.419 81.311 156.123 82.1587 157.074C84.0963 159.262 86.6394 159.606 89.323 159.553C94.8015 159.446 99.1563 156.763 103.172 153.386C107.149 150.075 110.3 145.88 112.375 141.135C112.511 140.829 112.574 140.407 112.807 140.242C113.422 139.815 114.144 139.18 114.744 139.272C115.229 139.32 116.013 140.242 116.042 140.815C116.225 142.797 116.171 144.794 115.883 146.763C114.88 152.241 111.775 156.647 108.379 160.897C105.512 164.488 102.813 168.258 101.695 172.794C101.244 174.619 101.404 176.652 101.598 178.558C101.68 179.388 102.416 180.271 103.051 180.907C104.543 182.362 106.078 182.202 107.522 180.674C108.631 179.505 109.29 179.645 109.76 181.227C110.607 184.099 109.605 186.53 107.687 188.578C106.744 189.644 105.52 190.422 104.156 190.822C102.792 191.222 101.342 191.228 99.9749 190.839C95.9641 189.844 93.295 186.753 93.0528 182.542C92.9366 180.499 93.2708 178.427 93.4016 176.341C88.7659 180.179 83.859 183.9 81.0591 189.592C79.9741 191.751 79.4412 194.08 80.3713 196.506C81.0446 198.248 82.2411 199.417 84.169 199.538C85.8644 199.65 86.901 198.762 87.7874 196.666C87.9864 196.262 88.2063 195.868 88.4462 195.487C89.9721 196.307 90.4419 197.656 90.7471 199.044C91.401 202.042 89.9721 205.109 87.119 207.02C82.6141 210.043 76.0747 209.242 71.9864 205.172C70.0665 203.302 68.8704 200.811 68.6106 198.142C68.3507 195.472 69.0439 192.797 70.5671 190.591L71.0272 189.893L70.7802 189.621C68.8426 191.222 66.8324 192.721 65.0207 194.444C60.5933 198.646 57.4157 203.624 56.2337 209.708C55.4345 213.828 55.9964 217.729 58.6848 221.091C60.5352 223.405 63.0444 224.264 65.9508 223.803C66.89 223.704 67.7622 223.269 68.4079 222.579C69.0536 221.888 69.4297 220.988 69.4675 220.043C69.6177 218.452 68.7457 217.273 66.7984 216.448C65.5681 215.924 65.3743 215.235 66.1494 214.109C67.5105 212.12 71.2694 211.528 73.7399 212.911C78.4821 215.569 80.1 222.081 77.5424 227.253C74.2049 234.017 66.4739 236.617 59.5325 234.914C49.7573 232.518 44.6275 224.182 46.8558 214.342C47.0447 213.507 47.19 212.658 47.3983 211.576C45.9984 212.896 44.768 214.104 43.4795 215.254C40.2244 218.165 36.9208 221.018 32.6435 222.319C27.3151 223.929 22.2629 223.435 17.9808 219.718C11.1411 213.75 15.0744 205.24 20.829 203.143C23.3964 202.202 25.9055 202.333 28.095 204.182C28.5061 204.576 28.8354 205.047 29.0638 205.569C29.3932 206.239 29.2237 206.739 28.4147 206.972C26.4384 207.539 25.7021 208.311 25.7118 209.694C25.7215 211.077 27.165 212.537 28.8943 212.959C31.1564 213.507 33.2539 212.891 35.2786 211.989C39.4348 210.121 42.8885 207.253 46.071 204.061C48.4785 201.639 50.7358 199.078 53.2837 196.341Z" fill="#9AC552"/>
</svg>
