<svg width="120" height="239" viewBox="0 0 120 239" fill="none" xmlns="http://www.w3.org/2000/svg">
<path d="M66.7114 42.6541C68.8234 41.9699 70.5381 41.3004 72.311 40.8685C75.353 40.131 78.3563 40.2281 81.2046 41.7564C85.0798 43.8428 86.7655 48.5832 84.7891 52.4309C84.2658 53.3264 83.5326 54.0808 82.6529 54.6288C82.4579 54.7767 82.2318 54.8781 81.9917 54.9252C81.7517 54.9724 81.504 54.964 81.2677 54.9009C81.0314 54.8377 80.8125 54.7214 80.6278 54.5607C80.4431 54.4001 80.2974 54.1993 80.2019 53.9738C78.1674 49.6992 74.4133 49.0248 70.4267 49.6507C67.3023 50.1359 64.2458 51.2518 61.2716 52.3775C57.6628 53.7409 54.1703 55.41 50.5858 56.9675C52.4458 56.9675 54.3011 56.9675 56.1515 57.0597C60.2495 57.2489 63.9019 58.5541 66.8083 61.5478C72.747 67.6516 70.199 76.3173 63.65 80.1746C59.7748 82.4308 55.8221 82.8772 51.9421 80.1407C51.0593 79.5524 50.3625 78.724 49.9334 77.7528C49.5044 76.7816 49.361 75.7079 49.5201 74.6579C49.5923 74.353 49.7309 74.0679 49.9261 73.8229C50.1212 73.578 50.368 73.3793 50.6487 73.2411C50.9288 73.1836 51.2185 73.1946 51.4934 73.2731C51.7683 73.3517 52.0203 73.4955 52.2279 73.6923C53.7392 75.3614 54.6111 75.7059 56.1031 74.9733C56.8608 74.5649 57.4659 73.9213 57.8275 73.1392C58.1891 72.3571 58.2877 71.4786 58.1085 70.6356C57.4206 67.7583 55.2021 66.3124 52.722 65.3517C46.6718 63.0276 40.6798 63.6778 34.93 66.3221C32.1786 67.5982 29.6598 69.3886 27.0392 70.9558C26.7998 71.1516 26.5807 71.371 26.3852 71.6108C27.9886 71.1256 29.2625 70.6113 30.585 70.3056C35.521 69.1557 40.0792 71.4265 41.5324 75.7544C42.259 77.9233 42.1282 79.9999 40.4328 81.7467C39.6287 82.5764 38.6696 82.8772 37.8219 81.9262C35.8843 79.7379 33.3412 79.3934 30.6528 79.4468C25.1791 79.5536 20.8243 82.2367 16.8087 85.6089C12.8332 88.9238 9.68225 93.1198 7.6051 97.865C7.47431 98.1707 7.41134 98.588 7.17883 98.7529C6.56364 99.1799 5.83705 99.8155 5.24124 99.7524C4.75684 99.6991 3.97211 98.782 3.94305 98.2047C3.76168 96.2226 3.81371 94.226 4.09806 92.2561C5.13951 86.7927 8.23482 82.3871 11.6256 78.1174C14.4932 74.5317 17.1913 70.7617 18.3055 66.2251C18.7559 64.4008 18.5961 62.3435 18.4072 60.4609C18.3248 59.6264 17.5885 58.7433 16.954 58.1126C15.462 56.657 13.9265 56.8122 12.483 58.3406C11.3737 59.5148 10.7149 59.3692 10.2451 57.7923C9.39253 54.9151 10.3952 52.4891 12.3183 50.4415C13.2599 49.3745 14.4837 48.596 15.8482 48.1959C17.2128 47.7958 18.6625 47.7905 20.0299 48.1805C21.9412 48.5924 23.6603 49.6321 24.9144 51.1343C26.1685 52.6366 26.8856 54.5155 26.952 56.4726C27.0682 58.5201 26.734 60.5871 26.6032 62.6734C31.2389 58.8355 36.1458 55.1189 38.9457 49.4275C40.0259 47.2295 40.5587 44.9151 39.6238 42.4988C38.9554 40.7569 37.7831 39.607 35.8455 39.4809C34.155 39.3644 33.1184 40.2572 32.2319 42.3532C32.033 42.7584 31.8114 43.1521 31.5683 43.5323C30.0327 42.6977 29.5483 41.3586 29.2529 39.9758C28.5795 36.9772 30.0327 33.9108 32.881 31.9942C37.3859 28.9714 43.9253 29.772 48.0136 33.8428C49.9317 35.7135 51.1266 38.204 51.3864 40.8729C51.6462 43.5418 50.9541 46.2166 49.4329 48.4231L48.9485 49.1218L49.1907 49.3984C51.1283 47.7972 53.1434 46.2979 54.955 44.5755C59.3824 40.3736 62.5601 35.3906 63.7372 29.3111C64.5413 25.1869 63.9794 21.2907 61.3152 17.9283C59.4648 15.6139 56.9556 14.7502 54.0492 15.216C53.1096 15.3145 52.2368 15.7488 51.591 16.4394C50.9451 17.1301 50.5693 18.0307 50.5325 18.9763C50.3775 20.5678 51.2542 21.7468 53.2015 22.5716C54.4319 23.0956 54.6256 23.7846 53.8506 24.9103C52.4894 26.8948 48.7305 27.4916 46.2601 26.1039C41.513 23.445 39.8999 16.9385 42.4527 11.7662C45.7902 4.99767 53.5212 2.42611 60.4626 4.1049C70.2378 6.49694 75.3627 14.8375 73.1442 24.6725C72.9553 25.5119 72.81 26.361 72.6017 27.4382C74.0016 26.1233 75.2319 24.9103 76.5204 23.7604C79.7708 20.8492 83.0744 17.9962 87.3564 16.7007C92.6848 15.0898 97.7371 15.5847 102.019 19.3014C108.869 25.2499 104.926 33.7603 99.1903 35.8564C96.623 36.7929 94.1138 36.6667 91.9243 34.8181C91.5141 34.4233 91.185 33.9519 90.9555 33.4304C90.6261 32.756 90.7957 32.2611 91.6046 32.0282C93.581 31.4556 94.3172 30.6842 94.3076 29.3062C94.2979 27.9282 92.8544 26.4629 91.1251 26.036C88.8629 25.4877 86.7655 26.1039 84.7407 27.0064C80.5846 28.8792 77.1259 31.7468 73.9483 34.9345C71.5215 37.3605 69.269 39.9175 66.7114 42.6541Z" fill="#233565"/>
<path d="M53.2839 196.341C51.1767 197.025 49.462 197.7 47.6842 198.132C44.6422 198.864 41.6438 198.767 38.7907 197.239C34.9155 195.157 33.2346 190.417 35.211 186.564C35.7355 185.672 36.4686 184.921 37.3472 184.376C37.5419 184.227 37.768 184.125 38.0083 184.077C38.2485 184.03 38.4965 184.038 38.7332 184.101C38.9698 184.164 39.1889 184.281 39.3735 184.442C39.5581 184.604 39.7034 184.805 39.7982 185.031C41.8327 189.301 45.611 189.98 49.5734 189.354C52.6929 188.869 55.7543 187.753 58.7285 186.628C62.3373 185.264 65.8298 183.595 69.4143 182.038C67.5494 182.008 65.699 182.038 63.8486 181.945C59.7506 181.756 56.0982 180.451 53.1918 177.457C47.2531 171.353 49.801 162.683 56.3501 158.83C60.2011 156.574 64.1731 156.128 68.058 158.859C68.9363 159.451 69.628 160.281 70.0519 161.252C70.4758 162.223 70.6142 163.295 70.4509 164.342C70.3813 164.649 70.2437 164.936 70.0483 165.182C69.853 165.428 69.6048 165.627 69.3223 165.764C69.043 165.82 68.7543 165.809 68.4804 165.73C68.2064 165.652 67.9553 165.508 67.748 165.313C66.2367 163.644 65.3648 163.294 63.8728 164.027C63.1161 164.437 62.5123 165.082 62.1517 165.865C61.7911 166.648 61.6931 167.526 61.8722 168.369C62.5601 171.247 64.7786 172.688 67.2588 173.648C73.3089 175.977 79.3009 175.327 85.0459 172.678C87.8021 171.402 90.321 169.612 92.9367 168.044C93.1755 167.846 93.396 167.627 93.5955 167.389C91.9921 167.875 90.6891 168.36 89.3958 168.694C84.4597 169.844 79.9015 167.574 78.4483 163.246C77.7217 161.072 77.8525 159 79.5479 157.253C80.352 156.419 81.3111 156.123 82.1588 157.074C84.0964 159.262 86.6395 159.607 89.3231 159.553C94.8016 159.447 99.1564 156.763 103.172 153.386C107.149 150.075 110.3 145.88 112.376 141.135C112.511 140.829 112.574 140.407 112.807 140.242C113.422 139.815 114.144 139.18 114.744 139.272C115.229 139.32 116.013 140.242 116.043 140.815C116.225 142.797 116.171 144.794 115.883 146.763C114.88 152.241 111.775 156.647 108.379 160.897C105.512 164.488 102.814 168.258 101.695 172.794C101.244 174.619 101.404 176.652 101.598 178.559C101.68 179.388 102.416 180.271 103.051 180.907C104.543 182.363 106.078 182.202 107.522 180.674C108.631 179.505 109.29 179.645 109.76 181.227C110.608 184.1 109.605 186.53 107.687 188.578C106.744 189.644 105.521 190.422 104.156 190.822C102.792 191.222 101.343 191.228 99.975 190.839C95.9642 189.844 93.2952 186.754 93.053 182.542C92.9367 180.499 93.2709 178.428 93.4017 176.341C88.766 180.179 83.8591 183.901 81.0593 189.592C79.9742 191.751 79.4414 194.08 80.3714 196.506C81.0447 198.248 82.2412 199.417 84.1691 199.539C85.8645 199.65 86.9011 198.762 87.7875 196.666C87.9865 196.262 88.2064 195.869 88.4463 195.487C89.9722 196.307 90.442 197.656 90.7472 199.044C91.4012 202.042 89.9722 205.109 87.1191 207.02C82.6142 210.043 76.0748 209.243 71.9865 205.172C70.0666 203.302 68.8705 200.812 68.6107 198.142C68.3508 195.473 69.044 192.797 70.5672 190.592L71.0274 189.893L70.7803 189.621C68.8427 191.222 66.8325 192.722 65.0208 194.444C60.5934 198.646 57.4158 203.624 56.2338 209.708C55.4346 213.828 55.9965 217.729 58.6849 221.091C60.5353 223.406 63.0445 224.265 65.9509 223.804C66.8901 223.704 67.7623 223.269 68.408 222.579C69.0537 221.889 69.4298 220.989 69.4676 220.043C69.6178 218.452 68.7459 217.273 66.7986 216.448C65.5682 215.924 65.3744 215.235 66.1495 214.109C67.5106 212.12 71.2696 211.528 73.74 212.911C78.4823 215.57 80.1001 222.081 77.5425 227.253C74.205 234.017 66.474 236.618 59.5326 234.915C49.7574 232.518 44.6277 224.182 46.8559 214.342C47.0448 213.508 47.1901 212.659 47.3984 211.577C45.9985 212.896 44.7681 214.104 43.4796 215.254C40.2245 218.166 36.9209 221.019 32.6436 222.319C27.3153 223.93 22.263 223.435 17.9809 219.718C11.1412 213.75 15.0745 205.24 20.8292 203.144C23.3965 202.202 25.9057 202.333 28.0951 204.182C28.5062 204.576 28.8355 205.048 29.0639 205.57C29.3933 206.239 29.2238 206.739 28.4148 206.972C26.4385 207.54 25.7022 208.311 25.7119 209.694C25.7216 211.077 27.1651 212.537 28.8944 212.959C31.1565 213.508 33.254 212.891 35.2788 211.989C39.4349 210.121 42.8887 207.253 46.0712 204.061C48.4786 201.64 50.7359 199.078 53.2839 196.341Z" fill="#233565"/>
</svg>
