<svg width="120" height="239" viewBox="0 0 120 239" fill="none" xmlns="http://www.w3.org/2000/svg">
<path d="M66.7113 42.6541C68.8232 41.9699 70.538 41.3004 72.3109 40.8685C75.3529 40.131 78.3562 40.2281 81.2045 41.7564C85.0796 43.8428 86.7653 48.5832 84.789 52.4309C84.2657 53.3264 83.5325 54.0808 82.6528 54.6288C82.4578 54.7767 82.2316 54.8781 81.9916 54.9252C81.7515 54.9724 81.5039 54.964 81.2676 54.9009C81.0312 54.8377 80.8124 54.7214 80.6277 54.5607C80.443 54.4001 80.2973 54.1993 80.2018 53.9738C78.1673 49.6992 74.4132 49.0248 70.4266 49.6507C67.3022 50.1359 64.2457 51.2518 61.2715 52.3775C57.6627 53.7409 54.1702 55.41 50.5856 56.9675C52.4457 56.9675 54.301 56.9675 56.1514 57.0597C60.2494 57.2489 63.9017 58.5541 66.8081 61.5478C72.7469 67.6516 70.1989 76.3173 63.6499 80.1746C59.7747 82.4308 55.822 82.8772 51.942 80.1407C51.0592 79.5524 50.3624 78.724 49.9333 77.7528C49.5043 76.7816 49.3609 75.7079 49.52 74.6579C49.5922 74.353 49.7308 74.0679 49.9259 73.8229C50.1211 73.578 50.3678 73.3793 50.6486 73.2411C50.9287 73.1836 51.2184 73.1946 51.4933 73.2731C51.7682 73.3517 52.0201 73.4955 52.2277 73.6923C53.7391 75.3614 54.611 75.7059 56.1029 74.9733C56.8607 74.5649 57.4658 73.9213 57.8274 73.1392C58.189 72.3571 58.2876 71.4786 58.1083 70.6356C57.4205 67.7583 55.202 66.3124 52.7218 65.3517C46.6717 63.0276 40.6797 63.6778 34.9299 66.3221C32.1785 67.5982 29.6596 69.3886 27.039 70.9558C26.7996 71.1516 26.5805 71.371 26.3851 71.6108C27.9885 71.1256 29.2624 70.6113 30.5848 70.3056C35.5209 69.1557 40.079 71.4265 41.5322 75.7544C42.2588 77.9233 42.128 79.9999 40.4326 81.7467C39.6285 82.5764 38.6694 82.8772 37.8217 81.9262C35.8841 79.7379 33.3411 79.3934 30.6526 79.4468C25.1789 79.5536 20.8242 82.2367 16.8085 85.6089C12.8331 88.9238 9.68212 93.1198 7.60498 97.865C7.47419 98.1707 7.41122 98.588 7.17871 98.7529C6.56352 99.1799 5.83692 99.8155 5.24111 99.7524C4.75672 99.6991 3.97199 98.782 3.94293 98.2047C3.76156 96.2226 3.81358 94.226 4.09793 92.2561C5.13939 86.7927 8.2347 82.3871 11.6255 78.1174C14.4931 74.5317 17.1912 70.7617 18.3053 66.2251C18.7558 64.4008 18.596 62.3435 18.4071 60.4609C18.3247 59.6264 17.5884 58.7433 16.9539 58.1126C15.4619 56.657 13.9264 56.8122 12.4829 58.3406C11.3736 59.5148 10.7148 59.3692 10.2449 57.7923C9.39241 54.9151 10.3951 52.4891 12.3182 50.4415C13.2598 49.3745 14.4836 48.596 15.8481 48.1959C17.2127 47.7958 18.6624 47.7905 20.0298 48.1805C21.9411 48.5924 23.6602 49.6321 24.9143 51.1343C26.1683 52.6366 26.8855 54.5155 26.9518 56.4726C27.0681 58.5201 26.7339 60.5871 26.6031 62.6734C31.2388 58.8355 36.1457 55.1189 38.9455 49.4275C40.0258 47.2295 40.5586 44.9151 39.6237 42.4988C38.9552 40.7569 37.783 39.607 35.8454 39.4809C34.1548 39.3644 33.1182 40.2572 32.2318 42.3532C32.0329 42.7584 31.8113 43.1521 31.5682 43.5323C30.0326 42.6977 29.5482 41.3586 29.2527 39.9758C28.5794 36.9772 30.0326 33.9108 32.8809 31.9942C37.3858 28.9714 43.9252 29.772 48.0135 33.8428C49.9316 35.7135 51.1265 38.204 51.3863 40.8729C51.6461 43.5418 50.954 46.2166 49.4328 48.4231L48.9484 49.1218L49.1906 49.3984C51.1282 47.7972 53.1433 46.2979 54.9549 44.5755C59.3823 40.3736 62.56 35.3906 63.7371 29.3111C64.5412 25.1869 63.9793 21.2907 61.3151 17.9283C59.4647 15.6139 56.9555 14.7502 54.0491 15.216C53.1095 15.3145 52.2367 15.7488 51.5908 16.4394C50.9449 17.1301 50.5692 18.0307 50.5324 18.9763C50.3773 20.5678 51.2541 21.7468 53.2014 22.5716C54.4318 23.0956 54.6255 23.7846 53.8505 24.9103C52.4893 26.8948 48.7304 27.4916 46.26 26.1039C41.5129 23.445 39.8998 16.9385 42.4526 11.7662C45.7901 4.99767 53.5211 2.42611 60.4625 4.1049C70.2377 6.49694 75.3626 14.8375 73.1441 24.6725C72.9552 25.5119 72.8098 26.361 72.6015 27.4382C74.0015 26.1233 75.2318 24.9103 76.5203 23.7604C79.7706 20.8492 83.0742 17.9962 87.3563 16.7007C92.6847 15.0898 97.737 15.5847 102.019 19.3014C108.868 25.2499 104.925 33.7603 99.1902 35.8564C96.6229 36.7929 94.1137 36.6667 91.9242 34.8181C91.514 34.4233 91.1848 33.9519 90.9554 33.4304C90.626 32.756 90.7955 32.2611 91.6045 32.0282C93.5808 31.4556 94.3171 30.6842 94.3074 29.3062C94.2977 27.9282 92.8542 26.4629 91.1249 26.036C88.8628 25.4877 86.7654 26.1039 84.7406 27.0064C80.5844 28.8792 77.1258 31.7468 73.9482 34.9345C71.5213 37.3605 69.2689 39.9175 66.7113 42.6541Z" fill="#E9BAD2"/>
<path d="M53.2837 196.341C51.1766 197.025 49.4618 197.7 47.6841 198.132C44.6421 198.864 41.6436 198.767 38.7905 197.239C34.9154 195.157 33.2345 190.417 35.2108 186.564C35.7354 185.672 36.4685 184.921 37.347 184.376C37.5417 184.227 37.7679 184.125 38.0082 184.077C38.2484 184.03 38.4964 184.038 38.733 184.101C38.9697 184.164 39.1887 184.281 39.3734 184.442C39.558 184.604 39.7033 184.805 39.7981 185.031C41.8326 189.301 45.6109 189.98 49.5732 189.354C52.6928 188.869 55.7542 187.753 58.7284 186.628C62.3371 185.264 65.8297 183.595 69.4142 182.038C67.5493 182.008 65.6989 182.038 63.8485 181.945C59.7505 181.756 56.0981 180.451 53.1917 177.457C47.253 171.353 49.8009 162.683 56.35 158.83C60.2009 156.574 64.173 156.128 68.0579 158.859C68.9362 159.451 69.6279 160.281 70.0518 161.252C70.4756 162.223 70.6141 163.295 70.4508 164.342C70.3812 164.649 70.2436 164.936 70.0482 165.182C69.8528 165.428 69.6047 165.627 69.3222 165.764C69.0429 165.82 68.7541 165.809 68.4802 165.73C68.2063 165.652 67.9552 165.508 67.7479 165.313C66.2365 163.644 65.3646 163.294 63.8727 164.027C63.116 164.437 62.5122 165.082 62.1516 165.865C61.791 166.648 61.693 167.526 61.8721 168.369C62.56 171.247 64.7785 172.688 67.2586 173.648C73.3088 175.977 79.3008 175.327 85.0457 172.678C87.802 171.402 90.3208 169.612 92.9366 168.044C93.1754 167.846 93.3959 167.627 93.5954 167.389C91.992 167.875 90.689 168.36 89.3956 168.694C84.4596 169.844 79.9014 167.574 78.4482 163.246C77.7216 161.072 77.8524 159 79.5478 157.253C80.3519 156.419 81.311 156.123 82.1587 157.074C84.0963 159.262 86.6394 159.607 89.323 159.553C94.8015 159.447 99.1563 156.763 103.172 153.386C107.149 150.075 110.3 145.88 112.375 141.135C112.511 140.829 112.574 140.407 112.807 140.242C113.422 139.815 114.144 139.18 114.744 139.272C115.229 139.32 116.013 140.242 116.042 140.815C116.225 142.797 116.171 144.794 115.883 146.763C114.88 152.241 111.775 156.647 108.379 160.897C105.512 164.488 102.813 168.258 101.695 172.794C101.244 174.619 101.404 176.652 101.598 178.559C101.68 179.388 102.416 180.271 103.051 180.907C104.543 182.363 106.078 182.202 107.522 180.674C108.631 179.505 109.29 179.645 109.76 181.227C110.607 184.1 109.605 186.53 107.687 188.578C106.744 189.644 105.52 190.422 104.156 190.822C102.792 191.222 101.342 191.228 99.9749 190.839C95.9641 189.844 93.295 186.754 93.0528 182.542C92.9366 180.499 93.2708 178.428 93.4016 176.341C88.7659 180.179 83.859 183.901 81.0591 189.592C79.9741 191.751 79.4412 194.08 80.3713 196.506C81.0446 198.248 82.2411 199.417 84.169 199.539C85.8644 199.65 86.901 198.762 87.7874 196.666C87.9864 196.262 88.2063 195.869 88.4462 195.487C89.9721 196.307 90.4419 197.656 90.7471 199.044C91.401 202.042 89.9721 205.109 87.119 207.02C82.6141 210.043 76.0747 209.243 71.9864 205.172C70.0665 203.302 68.8704 200.812 68.6106 198.142C68.3507 195.473 69.0439 192.797 70.5671 190.592L71.0272 189.893L70.7802 189.621C68.8426 191.222 66.8324 192.722 65.0207 194.444C60.5933 198.646 57.4157 203.624 56.2337 209.708C55.4345 213.828 55.9964 217.729 58.6848 221.091C60.5352 223.406 63.0444 224.265 65.9508 223.804C66.89 223.704 67.7622 223.269 68.4079 222.579C69.0536 221.889 69.4297 220.989 69.4675 220.043C69.6177 218.452 68.7457 217.273 66.7984 216.448C65.5681 215.924 65.3743 215.235 66.1494 214.109C67.5105 212.12 71.2694 211.528 73.7399 212.911C78.4821 215.57 80.1 222.081 77.5424 227.253C74.2049 234.017 66.4739 236.618 59.5325 234.915C49.7573 232.518 44.6275 224.182 46.8558 214.342C47.0447 213.508 47.19 212.659 47.3983 211.577C45.9984 212.896 44.768 214.104 43.4795 215.254C40.2244 218.166 36.9208 221.019 32.6435 222.319C27.3151 223.93 22.2629 223.435 17.9808 219.718C11.1411 213.75 15.0744 205.24 20.829 203.144C23.3964 202.202 25.9055 202.333 28.095 204.182C28.5061 204.576 28.8354 205.048 29.0638 205.57C29.3932 206.239 29.2237 206.739 28.4147 206.972C26.4384 207.54 25.7021 208.311 25.7118 209.694C25.7215 211.077 27.165 212.537 28.8943 212.959C31.1564 213.508 33.2539 212.891 35.2786 211.989C39.4348 210.121 42.8885 207.253 46.071 204.061C48.4785 201.64 50.7358 199.078 53.2837 196.341Z" fill="#E9BAD2"/>
</svg>
