<svg id="Layer_1" data-name="Layer 1" xmlns="http://www.w3.org/2000/svg" viewBox="0 0 595.28 566.93"><defs><style>.cls-1{fill:#9ac552;}</style></defs><path class="cls-1" d="M232.44,331.55h0a3.31,3.31,0,0,0-1.87-3c-.72-.27-.84.77-1.1,1.33Q226.7,339,223.93,348h0a9.18,9.18,0,0,0-.52,1c-8.63,20.37-22.29,36.26-41.94,46.71-7.41,3.94-15.44,6.13-23.64,7.76l-14.38,0h0a3.94,3.94,0,0,0-1.07-.45c-19.5-2.51-33.65-12.61-42.68-30-.47-.89-.7-2-1.93-2.53a6.21,6.21,0,0,0-1.51,3.59c-.49.06-.49.47-.64.82-3,7-3.05,14.28-1.61,21.64h0c4.11,14.51,14,23.23,28,27.62,3.43,1.07,7,1.67,11,2.59-2.46,2.38-4.62,4.38-6.68,6.46-10.7,10.84-15.52,23.75-13,38.9,1.65,9.75,6.24,18,14.43,23.94a28.38,28.38,0,0,0,13.28,5.58c1.08.13,2.76.5,1.63-1.53-2.09-3.76-3.1-7.9-4.57-11.89a34.75,34.75,0,0,1,2.34-21h0c4.55-8.23,11.24-14.32,19-19.5,6.73-4.5,13.86-8.29,20.84-12.35,16.44-9.56,30.14-22,40-38.37,6.73-11.25,10.47-23.55,12.51-36.42a3,3,0,0,1-.12-.43c0,.15.07.29.12.43.36-3.37.85-6.73,1.07-10.11C234.26,344.14,234.39,337.76,232.44,331.55Z"/><path class="cls-1" d="M345.86,178.65h0c-1.31-7.3-5.17-13.15-10.46-18.15-.61-.58-1.07-1.79-2.38-1-2.82,1.76-6.1,2.41-9.09,3.75a57.3,57.3,0,0,1-5.8.6c-14.07,0-28.15,0-42.22,0h0c-4.63-1-9.37-1.55-13.63-3.8-1.06-.56-1.38.35-1.92.79a30.75,30.75,0,0,0-10.88,17.81,41.8,41.8,0,0,0,0,16h0c4.63,16.87,14.58,28.28,32.41,31.61,10.58.4,21.16.38,31.74,0h0a20.53,20.53,0,0,0,7.56-2c12.44-6.3,21.05-15.81,24.44-29.61C347.08,189.33,346.78,184,345.86,178.65Z"/><path class="cls-1" d="M233.59,225a68.83,68.83,0,0,0-1.51-12.79h0c-.16-1-.26-1.94-.47-2.89-6.21-28-22.15-49.07-46.27-64.16-11.05-6.92-23-12.45-33.15-20.79-13.78-11.3-19.35-25.52-11.32-43,.71-1.56,2.84-3.51,1.53-4.82s-3.73.06-5.53.68C124.33,81.5,117.39,90.81,114,103.22a44.68,44.68,0,0,0-1.15,15.28h0c1.58,13.86,9.33,24.23,19.56,33.56-9.05,1.57-17.38,3.62-24.23,9.22S96,173.34,94,182.18A41.49,41.49,0,0,0,94,198.72h0a24.61,24.61,0,0,0,4.31,9.6c.69-1.39,1.25-2.52,1.83-3.64,7.45-14.37,19.16-23.54,34.54-28.23a63.71,63.71,0,0,1,24.56-1.29h0a1.27,1.27,0,0,0,1.24.42c4.21.53,8.15,2.13,12.24,3.13a6.59,6.59,0,0,0,1,.55c22.37,8.43,38,24,47.74,45.57a162.54,162.54,0,0,1,7.94,21.86c.21.73.27,1.78,1,1.94,1.09.23,1.24-1,1.74-1.68a3.46,3.46,0,0,0,.55-1.34A56.32,56.32,0,0,0,233.59,225Zm-.39,0c0-.4,0-.79,0-1.19,0,.45.09.89.1,1.34C233.28,225.11,233.19,225,233.2,225Z"/><path class="cls-1" d="M501.33,182.25h0c-3.78-14.61-13.23-23.64-27.51-27.82-3.49-1-7.08-1.69-11-2.62a86.73,86.73,0,0,0,10.77-11.55c11-14.78,12.15-34.32,2.57-48.73-4.92-7.41-11.28-13.17-20.31-15.23-1.06-.24-2.44-.6-3.12.07-1,.92.35,1.89.78,2.78,4.82,10.12,6.5,20.4,1.28,30.88-4.71,9.43-12.53,15.82-21.34,21.17-11.81,7.17-24,13.71-34.84,22.44-16.82,13.58-28.9,30.16-33.7,51.56-.18,1.46-.94,2.82-.76,4.36a1.36,1.36,0,0,0-.44,1.48c-.21,1.75-.93,3.44-.73,5.25h0a1.25,1.25,0,0,0-.4,1.26,122.18,122.18,0,0,0-.61,22.3h0c.49,3.14.38,6.5,3.48,9.23,1.67-5.23,3.21-10.08,4.76-14.92h0c.56-1.31,1.13-2.62,1.7-3.94,9.47-22,23.61-39.67,46.19-49.46a89.75,89.75,0,0,1,22.62-6.15,87.45,87.45,0,0,1,14.65.51,6.38,6.38,0,0,0,1.33.56,53.54,53.54,0,0,1,18.19,6.72c9.59,5.57,16.4,13.67,21.25,23.55.28.56.34,1.51,1.12,1.57.94.09,1.13-.89,1.48-1.53a29.61,29.61,0,0,0,3.16-9.61A41.41,41.41,0,0,0,501.33,182.25Z"/><path class="cls-1" d="M348.22,118.56h0c-1.14-10-5.86-17.76-13.85-23.77-2.71-2-6.18-2.18-8.84-4.16a13.36,13.36,0,0,0-4.79-1h0a1.06,1.06,0,0,0-1.19-.39c-5.66,0-11.32-.18-17-.14-9.26.06-18.53-.3-27.79.23h0c-1.25.24-2.51.39-3.73.72-18.67,5-29.48,27.59-21.51,45.49,4.84,10.87,13.43,17.16,25.28,18.86l46.31,0h0c13.1-2.26,21.58-9.86,25.85-22.33A36.2,36.2,0,0,0,348.22,118.56Z"/><path class="cls-1" d="M325.91,264.07l-4.62,1.26-7.94,1.57-4.49.19h0a11.14,11.14,0,0,0-4.7.33c-1.26,1-.58,2.36-.59,3.52-.35,67.71.69,135.41-.64,203.11a3.6,3.6,0,0,0-.47,2.56c-.36,2.58-.78,5.15-1.08,7.74-.58,5.12-2.4,10-3.19,15-.46-.32-.52,1.82-1,.24-.9-2.78-1.55-5.64-2.3-8.47q-1-6.33-2-12.67h0a1.49,1.49,0,0,0-.37-1.45q-.12-4.38-.22-8.74h0a19.61,19.61,0,0,0-.36-5.87c0-2.94,0-5.88,0-8.82q0-91.19-.09-182.37c0-1.28.63-2.73-.53-3.88h0c-1.33-.76-2.74-.34-4.13-.31l-6.81-.18a2.47,2.47,0,0,0-2-.41l-5.21-.71a1.28,1.28,0,0,0-1.38-.45c-1.68-.87-2.1-.47-2.1,1.5q.09,90.18,0,180.35a129.7,129.7,0,0,0,4.08,34.2h0c.42,1.59.8,3.19,1.27,4.77,4.13,14,9.84,27.51,14.71,41.28,2.78,7.86,8.08,23.82,8.08,23.82,3.37-12,4.59-13.62,7.25-21.45,3.18-9.36,6.76-18.57,10.17-27.84a162.85,162.85,0,0,0,5.59-18.17h0a90.22,90.22,0,0,0,3.91-17.18,194.19,194.19,0,0,0,1.24-20.46q0-79.93,0-159.89Zm-4.62,1.26a6.08,6.08,0,0,1,1.21,0Z"/><path class="cls-1" d="M499.8,375.14h0a2.69,2.69,0,0,0-.15-.87c-.73-1.21-.82-3.35-2.24-3.44-1.24-.08-1.54,2-2.17,3.13-6.2,11.27-14.65,20.13-26.66,25.31-5,2.17-10.39,3-15.65,4.28h0l-13.73-.07c-1.13-.82-2.48-.35-3.71-.6-20.41-4.24-37.17-14.3-50.27-30.67a88.9,88.9,0,0,1-15.08-28c-.73-2.62-1.45-5.24-2.18-7.86h0v-.06c-.48-2.17-.7-4.41-1.85-6.39h0l.09,0c-.35-1.57-.94-2.21-2.08-.52a6,6,0,0,0-1.26,2.88.45.45,0,0,0-.29.67c-1.41,8.81-.92,17.62,0,26.42h0c.41,2.5.74,5,1.25,7.49,5.93,29,22.08,50.68,47,66.2,8.83,5.51,18.34,9.87,26.9,15.84,12.33,8.59,21.67,18.93,20.23,35.41h0A53,53,0,0,1,454,497.82h0a6.22,6.22,0,0,0-.55,1c-.3.88-1.51,1.65-.91,2.58.71,1.11,1.91.36,3,.21A26.49,26.49,0,0,0,470.27,494c14.92-14.39,16.43-37.61,3.72-55.21-3.32-4.61-7.43-8.48-11.71-12.88,20.34-2.14,34.73-11.07,39.6-31.67C502.58,387.71,502.74,381.26,499.8,375.14ZM458.25,484.28a.4.4,0,0,0,.21-.09h0l0,.09h-.18Z"/></svg>