<svg width="70" height="139" viewBox="0 0 70 139" fill="none" xmlns="http://www.w3.org/2000/svg">
<path d="M38.915 24.8072C40.147 24.4093 41.1472 24.0199 42.1814 23.7687C43.9559 23.3398 45.7078 23.3962 47.3693 24.2851C49.6299 25.4985 50.6132 28.2555 49.4603 30.4933C49.155 31.0141 48.7273 31.4528 48.2142 31.7716C48.1004 31.8576 47.9685 31.9165 47.8285 31.944C47.6885 31.9714 47.544 31.9665 47.4062 31.9298C47.2683 31.8931 47.1406 31.8254 47.0329 31.732C46.9251 31.6385 46.8402 31.5218 46.7844 31.3906C45.5976 28.9045 43.4078 28.5123 41.0822 28.8763C39.2597 29.1585 37.4767 29.8075 35.7417 30.4622C33.6366 31.2552 31.5993 32.2259 29.5084 33.1317C30.5934 33.1317 31.6756 33.1317 32.755 33.1853C35.1455 33.2954 37.2761 34.0545 38.9715 35.7956C42.4357 39.3455 40.9494 44.3854 37.1291 46.6288C34.8686 47.9409 32.5629 48.2005 30.2995 46.609C29.7846 46.2669 29.3781 45.7851 29.1278 45.2202C28.8776 44.6554 28.7939 44.031 28.8867 43.4203C28.9288 43.243 29.0097 43.0771 29.1235 42.9347C29.2373 42.7922 29.3813 42.6767 29.5451 42.5963C29.7084 42.5628 29.8775 42.5692 30.0378 42.6149C30.1982 42.6606 30.3451 42.7442 30.4662 42.8587C31.3479 43.8295 31.8565 44.0298 32.7268 43.6037C33.1688 43.3662 33.5218 42.9919 33.7327 42.537C33.9436 42.0822 34.0011 41.5712 33.8966 41.0809C33.4954 39.4076 32.2012 38.5667 30.7545 38.0079C27.2252 36.6562 23.7299 37.0344 20.3758 38.5723C18.7709 39.3145 17.3015 40.3557 15.7728 41.2672C15.6332 41.381 15.5054 41.5087 15.3914 41.6481C16.3267 41.366 17.0698 41.0668 17.8412 40.8891C20.7206 40.2203 23.3795 41.5409 24.2272 44.058C24.651 45.3194 24.5748 46.5272 23.5858 47.543C23.1167 48.0256 22.5572 48.2005 22.0627 47.6475C20.9325 46.3748 19.449 46.1744 17.8808 46.2055C14.6878 46.2676 12.1475 47.8281 9.80505 49.7893C7.48601 51.7172 5.64797 54.1576 4.4363 56.9173C4.36001 57.0951 4.32327 57.3378 4.18764 57.4337C3.82878 57.682 3.40493 58.0517 3.05738 58.015C2.77481 57.984 2.31706 57.4507 2.3001 57.1148C2.1943 55.9621 2.22465 54.8009 2.39052 53.6552C2.99804 50.4778 4.80363 47.9155 6.78159 45.4323C8.45438 43.3469 10.0283 41.1543 10.6782 38.5159C10.941 37.4548 10.8477 36.2584 10.7375 35.1635C10.6895 34.6781 10.26 34.1645 9.88982 33.7977C9.01951 32.9511 8.12378 33.0414 7.28173 33.9303C6.63466 34.6132 6.25037 34.5285 5.97628 33.6114C5.47897 31.9381 6.06388 30.5271 7.18566 29.3363C7.73495 28.7157 8.4488 28.2629 9.24479 28.0302C10.0408 27.7976 10.8864 27.7945 11.6841 28.0213C12.799 28.2609 13.8018 28.8655 14.5334 29.7392C15.2649 30.6129 15.6833 31.7056 15.722 32.8439C15.7898 34.0347 15.5948 35.2368 15.5185 36.4502C18.2227 34.2181 21.0851 32.0566 22.7183 28.7465C23.3484 27.4682 23.6592 26.1222 23.1139 24.7169C22.7239 23.7038 22.0401 23.035 20.9099 22.9617C19.9237 22.894 19.319 23.4132 18.8019 24.6322C18.6859 24.8679 18.5567 25.0968 18.4148 25.3179C17.5191 24.8326 17.2365 24.0537 17.0642 23.2495C16.6714 21.5056 17.5191 19.7222 19.1806 18.6075C21.8084 16.8495 25.6231 17.3151 28.0079 19.6827C29.1268 20.7706 29.8239 22.2191 29.9754 23.7713C30.1269 25.3234 29.7232 26.8791 28.8358 28.1624L28.5533 28.5687L28.6946 28.7296C29.8248 27.7984 31.0003 26.9264 32.0571 25.9246C34.6397 23.4809 36.4934 20.5828 37.18 17.047C37.6491 14.6484 37.3213 12.3825 35.7672 10.4269C34.6878 9.08086 33.2241 8.57857 31.5287 8.84947C30.9806 8.90674 30.4715 9.15935 30.0947 9.56101C29.7179 9.96267 29.4987 10.4865 29.4773 11.0364C29.3868 11.962 29.8983 12.6477 31.0342 13.1274C31.7519 13.4322 31.8649 13.8329 31.4128 14.4876C30.6188 15.6417 28.4261 15.9888 26.985 15.1818C24.2159 13.6354 23.275 9.85124 24.7641 6.84312C26.7109 2.9066 31.2207 1.411 35.2699 2.38737C40.972 3.77856 43.9616 8.62936 42.6674 14.3493C42.5572 14.8375 42.4725 15.3313 42.351 15.9578C43.1676 15.193 43.8853 14.4876 44.6369 13.8188C46.5329 12.1257 48.46 10.4664 50.9579 9.71296C54.0661 8.7761 57.0133 9.06393 59.5112 11.2255C63.5067 14.6851 61.2066 19.6347 57.861 20.8537C56.3634 21.3984 54.8997 21.325 53.6225 20.2499C53.3832 20.0202 53.1912 19.7461 53.0574 19.4428C52.8652 19.0506 52.9641 18.7627 53.436 18.6273C54.5889 18.2943 55.0184 17.8456 55.0127 17.0442C55.0071 16.2428 54.165 15.3906 53.1563 15.1423C51.8367 14.8234 50.6132 15.1818 49.4321 15.7066C47.0076 16.7959 44.9901 18.4636 43.1365 20.3176C41.7208 21.7285 40.4069 23.2156 38.915 24.8072Z" fill="#80CCE8"/>
<path d="M31.0823 114.19C29.8531 114.588 28.8528 114.98 27.8158 115.231C26.0413 115.657 24.2922 115.601 22.6279 114.712C20.3674 113.502 19.3869 110.745 20.5397 108.504C20.8457 107.985 21.2734 107.548 21.7858 107.231C21.8994 107.145 22.0314 107.085 22.1715 107.058C22.3117 107.03 22.4563 107.035 22.5944 107.071C22.7324 107.108 22.8602 107.176 22.9679 107.27C23.0756 107.364 23.1603 107.481 23.2156 107.612C24.4024 110.096 26.6064 110.491 28.9178 110.127C30.7375 109.844 32.5233 109.195 34.2583 108.541C36.3634 107.748 38.4007 106.777 40.4917 105.871C39.4038 105.854 38.3244 105.871 37.245 105.818C34.8545 105.707 32.724 104.948 31.0286 103.207C27.5643 99.6574 29.0506 94.6147 32.8709 92.3741C35.1173 91.0619 37.4343 90.8023 39.7005 92.3911C40.2129 92.7349 40.6164 93.2175 40.8636 93.7823C41.1109 94.3472 41.1916 94.9707 41.0964 95.5798C41.0558 95.7581 40.9755 95.925 40.8615 96.0681C40.7476 96.2112 40.6028 96.3269 40.438 96.4066C40.2751 96.4393 40.1067 96.4326 39.9469 96.3869C39.7871 96.3412 39.6406 96.258 39.5197 96.1441C38.6381 95.1734 38.1295 94.9702 37.2591 95.3963C36.8177 95.6351 36.4655 96.0101 36.2552 96.4654C36.0448 96.9206 35.9876 97.4316 36.0922 97.9219C36.4934 99.5953 37.7875 100.433 39.2343 100.992C42.7635 102.347 46.2589 101.969 49.6101 100.428C51.2179 99.6856 52.6872 98.6443 54.2131 97.7329C54.3524 97.6177 54.481 97.4902 54.5974 97.3519C53.6621 97.6341 52.902 97.9163 52.1475 98.111C49.2682 98.7798 46.6092 97.4591 45.7615 94.942C45.3377 93.6778 45.414 92.4729 46.403 91.457C46.872 90.9716 47.4315 90.7995 47.926 91.3526C49.0563 92.6253 50.5397 92.8256 52.1051 92.7946C55.301 92.7325 57.8412 91.172 60.1837 89.208C62.5037 87.2821 64.3419 84.8424 65.5525 82.0827C65.6316 81.905 65.6683 81.6595 65.8039 81.5635C66.1628 81.3152 66.5838 80.9455 66.9342 80.9991C67.2168 81.0274 67.6745 81.5635 67.6915 81.8965C67.7978 83.0493 67.7665 84.2107 67.5982 85.3561C67.0133 88.542 65.2021 91.1043 63.2213 93.5762C61.5485 95.6644 59.9746 97.857 59.3219 100.495C59.0591 101.557 59.1523 102.739 59.2654 103.848C59.3134 104.33 59.7429 104.844 60.1131 105.214C60.9834 106.06 61.8791 105.967 62.7211 105.078C63.3682 104.398 63.7525 104.48 64.0266 105.4C64.5211 107.07 63.9362 108.484 62.8172 109.675C62.2675 110.295 61.5536 110.747 60.7578 110.98C59.962 111.213 59.1165 111.216 58.3188 110.99C55.9791 110.412 54.4222 108.614 54.2809 106.165C54.2131 104.977 54.4081 103.772 54.4844 102.558C51.7802 104.79 48.9178 106.955 47.2846 110.265C46.6516 111.521 46.3408 112.875 46.8833 114.286C47.2761 115.299 47.974 115.979 49.0986 116.05C50.0876 116.115 50.6923 115.598 51.2094 114.379C51.3255 114.144 51.4538 113.915 51.5937 113.693C52.4838 114.17 52.7579 114.955 52.9359 115.762C53.3174 117.506 52.4838 119.289 50.8195 120.401C48.1916 122.159 44.377 121.693 41.9921 119.326C40.8722 118.239 40.1745 116.79 40.0229 115.237C39.8713 113.685 40.2757 112.129 41.1642 110.846L41.4326 110.44L41.2885 110.282C40.1583 111.213 38.9856 112.085 37.9288 113.087C35.3462 115.53 33.4925 118.426 32.8031 121.964C32.3369 124.36 32.6646 126.629 34.2329 128.584C35.3123 129.93 36.776 130.43 38.4714 130.162C39.0192 130.104 39.528 129.851 39.9047 129.45C40.2813 129.048 40.5007 128.525 40.5228 127.975C40.6104 127.049 40.1018 126.364 38.9658 125.884C38.2481 125.579 38.1351 125.178 38.5872 124.524C39.3812 123.367 41.5739 123.023 43.015 123.827C45.7813 125.373 46.7251 129.16 45.2332 132.168C43.2863 136.102 38.7765 137.614 34.7274 136.624C29.0252 135.23 26.0328 130.382 27.3326 124.659C27.4428 124.174 27.5276 123.68 27.6491 123.051C26.8325 123.818 26.1148 124.521 25.3631 125.19C23.4643 126.883 21.5372 128.542 19.0421 129.298C15.9339 130.235 12.9868 129.947 10.4889 127.786C6.49904 124.315 8.79348 119.365 12.1504 118.146C13.648 117.599 15.1116 117.675 16.3888 118.75C16.6287 118.979 16.8207 119.254 16.954 119.557C17.1461 119.947 17.0472 120.237 16.5753 120.373C15.4225 120.703 14.993 121.152 14.9986 121.956C15.0043 122.76 15.8463 123.609 16.8551 123.855C18.1747 124.174 19.3982 123.815 20.5793 123.291C23.0037 122.204 25.0184 120.536 26.8749 118.68C28.2792 117.272 29.596 115.782 31.0823 114.19Z" fill="#80CCE8"/>
</svg>
