<svg width="70" height="139" viewBox="0 0 70 139" fill="none" xmlns="http://www.w3.org/2000/svg">
<path d="M38.915 24.8069C40.147 24.4091 41.1472 24.0196 42.1814 23.7685C43.9559 23.3396 45.7078 23.396 47.3693 24.2849C49.6299 25.4983 50.6132 28.2553 49.4603 30.493C49.155 31.0138 48.7273 31.4526 48.2142 31.7713C48.1004 31.8573 47.9685 31.9163 47.8285 31.9437C47.6885 31.9711 47.544 31.9663 47.4062 31.9296C47.2683 31.8928 47.1406 31.8252 47.0329 31.7317C46.9251 31.6383 46.8402 31.5216 46.7844 31.3904C45.5976 28.9043 43.4078 28.5121 41.0822 28.8761C39.2597 29.1583 37.4767 29.8073 35.7417 30.462C33.6366 31.2549 31.5993 32.2257 29.5084 33.1315C30.5934 33.1315 31.6756 33.1315 32.755 33.1851C35.1455 33.2951 37.2761 34.0542 38.9715 35.7953C42.4357 39.3452 40.9494 44.3851 37.1291 46.6285C34.8686 47.9407 32.5629 48.2003 30.2995 46.6088C29.7846 46.2666 29.3781 45.7848 29.1278 45.22C28.8776 44.6552 28.7939 44.0307 28.8867 43.42C28.9288 43.2427 29.0097 43.0769 29.1235 42.9344C29.2373 42.792 29.3813 42.6764 29.5451 42.596C29.7084 42.5626 29.8775 42.569 30.0378 42.6147C30.1982 42.6604 30.3451 42.744 30.4662 42.8585C31.3479 43.8292 31.8565 44.0296 32.7268 43.6035C33.1688 43.366 33.5218 42.9917 33.7327 42.5368C33.9436 42.0819 34.0011 41.571 33.8966 41.0807C33.4954 39.4073 32.2012 38.5664 30.7545 38.0077C27.2252 36.656 23.7299 37.0341 20.3758 38.5721C18.7709 39.3142 17.3015 40.3555 15.7728 41.2669C15.6332 41.3808 15.5054 41.5084 15.3914 41.6479C16.3267 41.3657 17.0698 41.0666 17.8412 40.8888C20.7206 40.22 23.3795 41.5407 24.2272 44.0578C24.651 45.3192 24.5748 46.5269 23.5858 47.5428C23.1167 48.0253 22.5572 48.2003 22.0627 47.6472C20.9325 46.3745 19.449 46.1742 17.8808 46.2052C14.6878 46.2673 12.1475 47.8278 9.80505 49.789C7.48601 51.717 5.64797 54.1573 4.4363 56.9171C4.36001 57.0949 4.32327 57.3375 4.18764 57.4335C3.82878 57.6818 3.40493 58.0515 3.05738 58.0148C2.77481 57.9837 2.31706 57.4504 2.3001 57.1146C2.1943 55.9618 2.22465 54.8007 2.39052 53.655C2.99804 50.4776 4.80363 47.9153 6.78159 45.432C8.45438 43.3467 10.0283 41.1541 10.6782 38.5156C10.941 37.4546 10.8477 36.2581 10.7375 35.1632C10.6895 34.6779 10.26 34.1643 9.88982 33.7974C9.01951 32.9509 8.12378 33.0412 7.28173 33.9301C6.63466 34.613 6.25037 34.5283 5.97628 33.6112C5.47897 31.9378 6.06388 30.5269 7.18566 29.336C7.73495 28.7155 8.4488 28.2627 9.24479 28.03C10.0408 27.7973 10.8864 27.7942 11.6841 28.0211C12.799 28.2606 13.8018 28.8653 14.5334 29.739C15.2649 30.6127 15.6833 31.7054 15.722 32.8436C15.7898 34.0345 15.5948 35.2366 15.5185 36.45C18.2227 34.2179 21.0851 32.0563 22.7183 28.7463C23.3484 27.468 23.6592 26.1219 23.1139 24.7166C22.7239 23.7036 22.0401 23.0348 20.9099 22.9614C19.9237 22.8937 19.319 23.4129 18.8019 24.632C18.6859 24.8676 18.5567 25.0966 18.4148 25.3177C17.5191 24.8323 17.2365 24.0535 17.0642 23.2493C16.6714 21.5053 17.5191 19.7219 19.1806 18.6073C21.8084 16.8492 25.6231 17.3149 28.0079 19.6824C29.1268 20.7703 29.8239 22.2188 29.9754 23.771C30.1269 25.3232 29.7232 26.8789 28.8358 28.1622L28.5533 28.5685L28.6946 28.7293C29.8248 27.7981 31.0003 26.9262 32.0571 25.9244C34.6397 23.4807 36.4934 20.5826 37.18 17.0468C37.6491 14.6482 37.3213 12.3822 35.7672 10.4267C34.6878 9.08062 33.2241 8.57833 31.5287 8.84923C30.9806 8.90649 30.4715 9.1591 30.0947 9.56076C29.7179 9.96242 29.4987 10.4862 29.4773 11.0362C29.3868 11.9618 29.8983 12.6475 31.0342 13.1272C31.7519 13.432 31.8649 13.8327 31.4128 14.4873C30.6188 15.6415 28.4261 15.9886 26.985 15.1815C24.2159 13.6351 23.275 9.85099 24.7641 6.84287C26.7109 2.90635 31.2207 1.41076 35.2699 2.38713C40.972 3.77831 43.9616 8.62912 42.6674 14.3491C42.5572 14.8372 42.4725 15.3311 42.351 15.9575C43.1676 15.1928 43.8853 14.4873 44.6369 13.8186C46.5329 12.1254 48.46 10.4662 50.9579 9.71272C54.0661 8.77586 57.0133 9.06369 59.5112 11.2252C63.5067 14.6849 61.2066 19.6344 57.861 20.8535C56.3634 21.3981 54.8997 21.3247 53.6225 20.2496C53.3832 20.02 53.1912 19.7458 53.0574 19.4426C52.8652 19.0503 52.9641 18.7625 53.436 18.627C54.5889 18.294 55.0184 17.8454 55.0127 17.044C55.0071 16.2425 54.165 15.3903 53.1563 15.142C51.8367 14.8231 50.6132 15.1815 49.4321 15.7064C47.0076 16.7956 44.9901 18.4634 43.1365 20.3173C41.7208 21.7283 40.4069 23.2154 38.915 24.8069Z" fill="#BE986A"/>
<path d="M31.0823 114.19C29.8531 114.588 28.8528 114.98 27.8158 115.232C26.0413 115.658 24.2922 115.601 22.6279 114.712C20.3674 113.502 19.3869 110.745 20.5397 108.504C20.8457 107.985 21.2734 107.549 21.7858 107.232C21.8994 107.145 22.0314 107.086 22.1715 107.058C22.3117 107.03 22.4563 107.035 22.5944 107.072C22.7324 107.108 22.8602 107.176 22.9679 107.27C23.0756 107.364 23.1603 107.481 23.2156 107.612C24.4024 110.096 26.6064 110.491 28.9178 110.127C30.7375 109.845 32.5233 109.196 34.2583 108.541C36.3634 107.748 38.4007 106.777 40.4917 105.871C39.4038 105.854 38.3244 105.871 37.245 105.818C34.8545 105.708 32.724 104.949 31.0286 103.208C27.5643 99.6576 29.0506 94.6149 32.8709 92.3744C35.1173 91.0622 37.4343 90.8026 39.7005 92.3913C40.2129 92.7351 40.6164 93.2177 40.8636 93.7826C41.1109 94.3474 41.1916 94.971 41.0964 95.58C41.0558 95.7583 40.9755 95.9252 40.8615 96.0683C40.7476 96.2115 40.6028 96.3272 40.438 96.4068C40.2751 96.4396 40.1067 96.4328 39.9469 96.3871C39.7871 96.3415 39.6406 96.2582 39.5197 96.1444C38.6381 95.1737 38.1295 94.9705 37.2591 95.3966C36.8177 95.6354 36.4655 96.0104 36.2552 96.4656C36.0448 96.9208 35.9876 97.4318 36.0922 97.9222C36.4934 99.5955 37.7875 100.434 39.2343 100.992C42.7635 102.347 46.2589 101.969 49.6101 100.428C51.2179 99.6859 52.6872 98.6446 54.2131 97.7331C54.3524 97.6179 54.481 97.4904 54.5974 97.3522C53.6621 97.6343 52.902 97.9165 52.1475 98.1112C49.2682 98.78 46.6092 97.4594 45.7615 94.9423C45.3377 93.6781 45.414 92.4731 46.403 91.4573C46.872 90.9719 47.4315 90.7998 47.926 91.3528C49.0563 92.6255 50.5397 92.8259 52.1051 92.7948C55.301 92.7327 57.8412 91.1722 60.1837 89.2082C62.5037 87.2823 64.3419 84.8426 65.5525 82.083C65.6316 81.9052 65.6683 81.6597 65.8039 81.5638C66.1628 81.3154 66.5838 80.9458 66.9342 80.9994C67.2168 81.0276 67.6745 81.5638 67.6915 81.8967C67.7978 83.0496 67.7665 84.2109 67.5982 85.3564C67.0133 88.5423 65.2021 91.1045 63.2213 93.5765C61.5485 95.6647 59.9746 97.8573 59.3219 100.496C59.0591 101.557 59.1523 102.739 59.2654 103.848C59.3134 104.331 59.7429 104.844 60.1131 105.214C60.9834 106.06 61.8791 105.967 62.7211 105.078C63.3682 104.398 63.7525 104.48 64.0266 105.4C64.5211 107.071 63.9362 108.484 62.8172 109.675C62.2675 110.295 61.5536 110.748 60.7578 110.98C59.962 111.213 59.1165 111.216 58.3188 110.99C55.9791 110.412 54.4222 108.614 54.2809 106.165C54.2131 104.977 54.4081 103.772 54.4844 102.559C51.7802 104.791 48.9178 106.955 47.2846 110.265C46.6516 111.521 46.3408 112.875 46.8833 114.286C47.2761 115.299 47.974 115.979 49.0986 116.05C50.0876 116.115 50.6923 115.598 51.2094 114.379C51.3255 114.144 51.4538 113.915 51.5937 113.694C52.4838 114.171 52.7579 114.955 52.9359 115.762C53.3174 117.506 52.4838 119.289 50.8195 120.401C48.1916 122.159 44.377 121.694 41.9921 119.326C40.8722 118.239 40.1745 116.79 40.0229 115.238C39.8713 113.685 40.2757 112.129 41.1642 110.846L41.4326 110.44L41.2885 110.282C40.1583 111.213 38.9856 112.085 37.9288 113.087C35.3462 115.531 33.4925 118.426 32.8031 121.965C32.3369 124.36 32.6646 126.629 34.2329 128.585C35.3123 129.931 36.776 130.43 38.4714 130.162C39.0192 130.104 39.528 129.851 39.9047 129.45C40.2813 129.048 40.5007 128.525 40.5228 127.975C40.6104 127.05 40.1018 126.364 38.9658 125.884C38.2481 125.579 38.1351 125.179 38.5872 124.524C39.3812 123.367 41.5739 123.023 43.015 123.827C45.7813 125.373 46.7251 129.16 45.2332 132.168C43.2863 136.102 38.7765 137.615 34.7274 136.624C29.0252 135.23 26.0328 130.382 27.3326 124.659C27.4428 124.174 27.5276 123.68 27.6491 123.051C26.8325 123.819 26.1148 124.521 25.3631 125.19C23.4643 126.883 21.5372 128.542 19.0421 129.299C15.9339 130.235 12.9868 129.948 10.4889 127.786C6.49904 124.315 8.79348 119.366 12.1504 118.147C13.648 117.599 15.1116 117.675 16.3888 118.75C16.6287 118.98 16.8207 119.254 16.954 119.557C17.1461 119.947 17.0472 120.238 16.5753 120.373C15.4225 120.703 14.993 121.152 14.9986 121.956C15.0043 122.76 15.8463 123.61 16.8551 123.855C18.1747 124.174 19.3982 123.816 20.5793 123.291C23.0037 122.204 25.0184 120.537 26.8749 118.68C28.2792 117.272 29.596 115.782 31.0823 114.19Z" fill="#BE986A"/>
</svg>
