<svg width="70" height="139" viewBox="0 0 70 139" fill="none" xmlns="http://www.w3.org/2000/svg">
<path d="M38.9148 24.8069C40.1468 24.4091 41.1471 24.0196 42.1813 23.7685C43.9558 23.3396 45.7077 23.396 47.3692 24.2849C49.6297 25.4983 50.6131 28.2553 49.4602 30.493C49.1549 31.0138 48.7272 31.4526 48.2141 31.7713C48.1003 31.8573 47.9684 31.9163 47.8284 31.9437C47.6883 31.9711 47.5439 31.9663 47.406 31.9296C47.2682 31.8928 47.1405 31.8252 47.0328 31.7317C46.925 31.6383 46.84 31.5216 46.7843 31.3904C45.5975 28.9043 43.4076 28.5121 41.0821 28.8761C39.2596 29.1583 37.4766 29.8073 35.7416 30.462C33.6365 31.2549 31.5992 32.2257 29.5082 33.1315C30.5933 33.1315 31.6755 33.1315 32.7549 33.1851C35.1454 33.2951 37.276 34.0542 38.9714 35.7953C42.4356 39.3452 40.9493 44.3851 37.129 46.6285C34.8685 47.9407 32.5628 48.2003 30.2994 46.6088C29.7845 46.2666 29.378 45.7848 29.1277 45.22C28.8774 44.6552 28.7938 44.0307 28.8866 43.42C28.9287 43.2427 29.0096 43.0769 29.1234 42.9344C29.2372 42.792 29.3812 42.6764 29.545 42.596C29.7083 42.5626 29.8773 42.569 30.0377 42.6147C30.1981 42.6604 30.345 42.744 30.4661 42.8585C31.3477 43.8292 31.8563 44.0296 32.7267 43.6035C33.1687 43.366 33.5217 42.9917 33.7326 42.5368C33.9435 42.0819 34.001 41.571 33.8965 41.0807C33.4952 39.4073 32.2011 38.5664 30.7543 38.0077C27.2251 36.656 23.7298 37.0341 20.3757 38.5721C18.7707 39.3142 17.3014 40.3555 15.7727 41.2669C15.6331 41.3808 15.5053 41.5084 15.3912 41.6479C16.3265 41.3657 17.0697 41.0666 17.8411 40.8888C20.7204 40.22 23.3794 41.5407 24.2271 44.0578C24.6509 45.3192 24.5746 46.5269 23.5857 47.5428C23.1166 48.0253 22.5571 48.2003 22.0626 47.6472C20.9324 46.3745 19.4489 46.1742 17.8807 46.2052C14.6877 46.2673 12.1474 47.8278 9.80492 49.789C7.48589 51.717 5.64784 54.1573 4.43618 56.9171C4.35988 57.0949 4.32315 57.3375 4.18752 57.4335C3.82866 57.6818 3.40481 58.0515 3.05726 58.0148C2.77469 57.9837 2.31693 57.4504 2.29998 57.1146C2.19418 55.9618 2.22453 54.8007 2.3904 53.655C2.99792 50.4776 4.80351 47.9153 6.78147 45.432C8.45426 43.3467 10.0282 41.1541 10.6781 38.5156C10.9408 37.4546 10.8476 36.2581 10.7374 35.1632C10.6894 34.6779 10.2599 34.1643 9.88969 33.7974C9.01939 32.9509 8.12366 33.0412 7.28161 33.9301C6.63454 34.613 6.25025 34.5283 5.97616 33.6112C5.47884 31.9378 6.06375 30.5269 7.18554 29.336C7.73483 28.7155 8.44868 28.2627 9.24467 28.03C10.0407 27.7973 10.8863 27.7942 11.684 28.0211C12.7989 28.2606 13.8017 28.8653 14.5333 29.739C15.2648 30.6127 15.6831 31.7054 15.7218 32.8436C15.7897 34.0345 15.5947 35.2366 15.5184 36.45C18.2226 34.2179 21.0849 32.0563 22.7182 28.7463C23.3483 27.468 23.6591 26.1219 23.1138 24.7166C22.7238 23.7036 22.04 23.0348 20.9098 22.9614C19.9236 22.8937 19.3189 23.4129 18.8018 24.632C18.6858 24.8676 18.5565 25.0966 18.4147 25.3177C17.519 24.8323 17.2364 24.0535 17.064 23.2493C16.6713 21.5053 17.519 19.7219 19.1805 18.6073C21.8083 16.8492 25.623 17.3149 28.0078 19.6824C29.1267 20.7703 29.8237 22.2188 29.9753 23.771C30.1268 25.3232 29.7231 26.8789 28.8357 28.1622L28.5532 28.5685L28.6944 28.7293C29.8247 27.7981 31.0002 26.9262 32.057 25.9244C34.6396 23.4807 36.4933 20.5826 37.1799 17.0468C37.6489 14.6482 37.3212 12.3822 35.7671 10.4267C34.6877 9.08062 33.224 8.57833 31.5286 8.84923C30.9805 8.90649 30.4714 9.1591 30.0946 9.56076C29.7178 9.96242 29.4986 10.4862 29.4771 11.0362C29.3867 11.9618 29.8982 12.6475 31.0341 13.1272C31.7518 13.432 31.8648 13.8327 31.4127 14.4873C30.6187 15.6415 28.426 15.9886 26.9849 15.1815C24.2158 13.6351 23.2748 9.85099 24.764 6.84287C26.7108 2.90635 31.2206 1.41076 35.2697 2.38713C40.9719 3.77831 43.9615 8.62912 42.6673 14.3491C42.5571 14.8372 42.4723 15.3311 42.3508 15.9575C43.1675 15.1928 43.8852 14.4873 44.6368 13.8186C46.5328 12.1254 48.4599 10.4662 50.9578 9.71272C54.066 8.77586 57.0132 9.06369 59.5111 11.2252C63.5065 14.6849 61.2064 19.6344 57.8609 20.8535C56.3633 21.3981 54.8996 21.3247 53.6224 20.2496C53.3831 20.02 53.1911 19.7458 53.0573 19.4426C52.8651 19.0503 52.964 18.7625 53.4359 18.627C54.5888 18.294 55.0183 17.8454 55.0126 17.044C55.007 16.2425 54.1649 15.3903 53.1562 15.142C51.8366 14.8231 50.6131 15.1815 49.4319 15.7064C47.0075 16.7956 44.99 18.4634 43.1364 20.3173C41.7207 21.7283 40.4068 23.2154 38.9148 24.8069Z" fill="#9AC552"/>
<path d="M31.0821 114.19C29.853 114.588 28.8527 114.98 27.8157 115.232C26.0412 115.658 24.2921 115.601 22.6278 114.712C20.3672 113.502 19.3867 110.745 20.5396 108.504C20.8456 107.985 21.2733 107.549 21.7857 107.232C21.8993 107.145 22.0312 107.086 22.1714 107.058C22.3115 107.03 22.4562 107.035 22.5942 107.072C22.7323 107.108 22.8601 107.176 22.9678 107.27C23.0754 107.364 23.1602 107.481 23.2155 107.612C24.4023 110.096 26.6063 110.491 28.9177 110.127C30.7374 109.845 32.5232 109.196 34.2582 108.541C36.3633 107.748 38.4006 106.777 40.4916 105.871C39.4037 105.854 38.3243 105.871 37.2449 105.818C34.8544 105.708 32.7238 104.949 31.0285 103.208C27.5642 99.6576 29.0505 94.6149 32.8708 92.3744C35.1172 91.0622 37.4342 90.8026 39.7004 92.3913C40.2127 92.7351 40.6162 93.2177 40.8635 93.7826C41.1108 94.3474 41.1915 94.971 41.0963 95.58C41.0557 95.7583 40.9754 95.9252 40.8614 96.0683C40.7474 96.2115 40.6027 96.3272 40.4379 96.4068C40.275 96.4396 40.1065 96.4328 39.9468 96.3871C39.787 96.3415 39.6405 96.2582 39.5196 96.1444C38.6379 95.1737 38.1293 94.9705 37.259 95.3966C36.8176 95.6354 36.4654 96.0104 36.2551 96.4656C36.0447 96.9208 35.9875 97.4318 36.092 97.9222C36.4933 99.5955 37.7874 100.434 39.2342 100.992C42.7634 102.347 46.2587 101.969 49.61 100.428C51.2178 99.6859 52.6871 98.6446 54.213 97.7331C54.3523 97.6179 54.4809 97.4904 54.5973 97.3522C53.662 97.6343 52.9019 97.9165 52.1474 98.1112C49.2681 98.78 46.6091 97.4594 45.7614 94.9423C45.3376 93.6781 45.4139 92.4731 46.4029 91.4573C46.8719 90.9719 47.4314 90.7998 47.9259 91.3528C49.0561 92.6255 50.5396 92.8259 52.105 92.7948C55.3008 92.7327 57.8411 91.1722 60.1836 89.2082C62.5036 87.2823 64.3418 84.8426 65.5523 82.083C65.6314 81.9052 65.6682 81.6597 65.8038 81.5638C66.1627 81.3154 66.5837 80.9458 66.9341 80.9994C67.2166 81.0276 67.6744 81.5638 67.6914 81.8967C67.7977 83.0496 67.7664 84.2109 67.5981 85.3564C67.0132 88.5423 65.2019 91.1045 63.2212 93.5765C61.5484 95.6647 59.9745 97.8573 59.3218 100.496C59.059 101.557 59.1522 102.739 59.2652 103.848C59.3133 104.331 59.7428 104.844 60.1129 105.214C60.9832 106.06 61.879 105.967 62.721 105.078C63.3681 104.398 63.7524 104.48 64.0265 105.4C64.521 107.071 63.9361 108.484 62.8171 109.675C62.2674 110.295 61.5535 110.748 60.7577 110.98C59.9618 111.213 59.1164 111.216 58.3186 110.99C55.979 110.412 54.4221 108.614 54.2808 106.165C54.213 104.977 54.4079 103.772 54.4842 102.559C51.7801 104.791 48.9177 106.955 47.2845 110.265C46.6515 111.521 46.3407 112.875 46.8832 114.286C47.276 115.299 47.9739 115.979 49.0985 116.05C50.0875 116.115 50.6922 115.598 51.2093 114.379C51.3254 114.144 51.4536 113.915 51.5936 113.694C52.4837 114.171 52.7578 114.955 52.9358 115.762C53.3172 117.506 52.4837 119.289 50.8194 120.401C48.1915 122.159 44.3769 121.694 41.992 119.326C40.8721 118.239 40.1744 116.79 40.0228 115.238C39.8712 113.685 40.2756 112.129 41.1641 110.846L41.4325 110.44L41.2884 110.282C40.1581 111.213 38.9855 112.085 37.9287 113.087C35.3461 115.531 33.4924 118.426 32.803 121.965C32.3367 124.36 32.6645 126.629 34.2327 128.585C35.3121 129.931 36.7758 130.43 38.4712 130.162C39.0191 130.104 39.5279 129.851 39.9045 129.45C40.2812 129.048 40.5006 128.525 40.5227 127.975C40.6103 127.05 40.1016 126.364 38.9657 125.884C38.248 125.579 38.135 125.179 38.5871 124.524C39.3811 123.367 41.5738 123.023 43.0149 123.827C45.7812 125.373 46.725 129.16 45.233 132.168C43.2862 136.102 38.7764 137.615 34.7272 136.624C29.0251 135.23 26.0327 130.382 27.3325 124.659C27.4427 124.174 27.5275 123.68 27.649 123.051C26.8324 123.819 26.1146 124.521 25.363 125.19C23.4642 126.883 21.5371 128.542 19.042 129.299C15.9338 130.235 12.9866 129.948 10.4887 127.786C6.49892 124.315 8.79336 119.366 12.1502 118.147C13.6478 117.599 15.1115 117.675 16.3887 118.75C16.6285 118.98 16.8206 119.254 16.9539 119.557C17.146 119.947 17.0471 120.238 16.5752 120.373C15.4223 120.703 14.9928 121.152 14.9985 121.956C15.0042 122.76 15.8462 123.61 16.855 123.855C18.1745 124.174 19.398 123.816 20.5792 123.291C23.0036 122.204 25.0183 120.537 26.8747 118.68C28.2791 117.272 29.5958 115.782 31.0821 114.19Z" fill="#9AC552"/>
</svg>
