<svg id="Layer_1" data-name="Layer 1" xmlns="http://www.w3.org/2000/svg" viewBox="0 0 247.73 492.58"><defs><style>.cls-1{fill:#233565;}</style></defs><path class="cls-1" d="M137.72,87.91c4.36-1.41,7.9-2.79,11.56-3.68,6.28-1.52,12.48-1.32,18.36,1.83,8,4.3,11.48,14.07,7.4,22a13.17,13.17,0,0,1-4.41,4.53,3.32,3.32,0,0,1-5.06-1.35c-4.2-8.81-11.95-10.2-20.18-8.91-6.45,1-12.76,3.3-18.9,5.62-7.45,2.81-14.66,6.25-22.06,9.46,3.84,0,7.67,0,11.49.19,8.46.39,16,3.08,22,9.25,12.26,12.58,7,30.44-6.52,38.39-8,4.65-16.16,5.57-24.17-.07a11.5,11.5,0,0,1-5-11.3,4.38,4.38,0,0,1,2.33-2.92,3.67,3.67,0,0,1,3.26.93c3.12,3.44,4.92,4.15,8,2.64a8.21,8.21,0,0,0,4.14-8.94c-1.42-5.93-6-8.91-11.12-10.89-12.49-4.79-24.86-3.45-36.73,2-5.68,2.63-10.88,6.32-16.29,9.55a9.49,9.49,0,0,0-1.35,1.35c3.31-1,5.94-2.06,8.67-2.69,10.19-2.37,19.6,2.31,22.6,11.23,1.5,4.47,1.23,8.75-2.27,12.35-1.66,1.71-3.64,2.33-5.39.37-4-4.51-9.25-5.22-14.8-5.11-11.3.22-20.29,5.75-28.58,12.7a68.83,68.83,0,0,0-19,25.26c-.27.63-.4,1.49-.88,1.83-1.27.88-2.77,2.19-4,2.06-1-.11-2.62-2-2.68-3.19a52.31,52.31,0,0,1,.32-12.26C10.61,178.88,17,169.8,24,161c5.92-7.39,11.49-15.16,13.79-24.51.93-3.76.6-8,.21-11.88-.17-1.72-1.69-3.54-3-4.84-3.08-3-6.25-2.68-9.23.47-2.29,2.42-3.65,2.12-4.62-1.13-1.76-5.93.31-10.93,4.28-15.15a15.56,15.56,0,0,1,15.92-4.66,18.11,18.11,0,0,1,14.29,17.09c.24,4.22-.45,8.48-.72,12.78,9.57-7.91,19.7-15.57,25.48-27.3,2.23-4.53,3.33-9.3,1.4-14.28C80.42,84,78,81.63,74,81.37c-3.49-.24-5.63,1.6-7.46,5.92a24.77,24.77,0,0,1-1.37,2.43C62,88,61,85.24,60.39,82.39,59,76.21,62,69.89,67.88,65.94c9.3-6.23,22.8-4.58,31.24,3.81a23.39,23.39,0,0,1,2.93,30.05l-1,1.44.5.57c4-3.3,8.16-6.39,11.9-9.94,9.14-8.66,15.7-18.93,18.13-31.46,1.66-8.5.5-16.53-5-23.46-3.82-4.77-9-6.55-15-5.59a8.11,8.11,0,0,0-7.26,7.75c-.32,3.28,1.49,5.71,5.51,7.41,2.54,1.08,2.94,2.5,1.34,4.82-2.81,4.09-10.57,5.32-15.67,2.46-9.8-5.48-13.13-18.89-7.86-29.55C94.53,10.3,110.49,5,124.82,8.46,145,13.39,155.58,30.58,151,50.85c-.39,1.73-.69,3.48-1.12,5.7,2.89-2.71,5.43-5.21,8.09-7.58,6.71-6,13.53-11.88,22.37-14.55,11-3.32,21.43-2.3,30.27,5.36,14.14,12.26,6,29.8-5.84,34.12-5.3,1.93-10.48,1.67-15-2.14a9,9,0,0,1-2-2.86c-.68-1.39-.33-2.41,1.34-2.89,4.08-1.18,5.6-2.77,5.58-5.61s-3-5.86-6.57-6.74c-4.67-1.13-9,.14-13.18,2-8.58,3.86-15.72,9.77-22.28,16.34C147.65,77,143,82.27,137.72,87.91Z"/><path class="cls-1" d="M110,404.66c-4.35,1.41-7.89,2.8-11.56,3.69-6.28,1.51-12.47,1.31-18.36-1.84-8-4.29-11.47-14.06-7.39-22A13.17,13.17,0,0,1,77.1,380a3.31,3.31,0,0,1,5.06,1.35c4.2,8.8,12,10.2,20.18,8.91,6.44-1,12.76-3.3,18.9-5.62,7.45-2.81,14.66-6.25,22.06-9.46-3.85-.06-7.67,0-11.49-.19-8.46-.39-16-3.08-22-9.25-12.26-12.58-7-30.45,6.52-38.39,7.95-4.65,16.15-5.57,24.17.06a11.48,11.48,0,0,1,4.94,11.3,4.32,4.32,0,0,1-2.33,2.93,3.68,3.68,0,0,1-3.25-.93c-3.12-3.44-4.92-4.16-8-2.65a8.23,8.23,0,0,0-4.13,8.95c1.42,5.93,6,8.9,11.12,10.88,12.49,4.8,24.86,3.46,36.72-2,5.69-2.63,10.89-6.32,16.29-9.55a10.63,10.63,0,0,0,1.36-1.35c-3.31,1-6,2-8.67,2.69-10.19,2.37-19.6-2.31-22.6-11.23-1.5-4.48-1.23-8.75,2.27-12.35,1.66-1.72,3.64-2.33,5.39-.37,4,4.51,9.25,5.22,14.79,5.11,11.31-.22,20.3-5.75,28.59-12.71a68.66,68.66,0,0,0,19-25.25c.28-.63.41-1.5.89-1.84,1.27-.88,2.76-2.19,4-2,1,.1,2.62,2,2.68,3.18a51.75,51.75,0,0,1-.33,12.26c-2.07,11.29-8.48,20.37-15.49,29.13-5.92,7.4-11.49,15.17-13.8,24.52-.93,3.76-.6,7.95-.2,11.88.17,1.71,1.69,3.53,3,4.84,3.08,3,6.25,2.67,9.23-.48,2.29-2.41,3.65-2.12,4.62,1.14,1.75,5.92-.32,10.93-4.28,15.15a15.58,15.58,0,0,1-15.92,4.66c-8.28-2.05-13.79-8.42-14.29-17.1-.24-4.21.45-8.48.72-12.78-9.57,7.91-19.7,15.58-25.48,27.31C165.1,395.2,164,400,165.92,405c1.39,3.59,3.86,6,7.84,6.25,3.5.23,5.64-1.6,7.47-5.92a26.73,26.73,0,0,1,1.36-2.43c3.15,1.69,4.12,4.47,4.75,7.33,1.35,6.18-1.6,12.5-7.49,16.44-9.3,6.23-22.8,4.58-31.24-3.81a23.37,23.37,0,0,1-2.93-30.05l.95-1.44-.51-.56c-4,3.3-8.15,6.39-11.89,9.94-9.14,8.66-15.7,18.92-18.14,31.46-1.65,8.49-.49,16.53,5.06,23.46,3.82,4.77,9,6.54,15,5.59a8.12,8.12,0,0,0,7.26-7.75c.31-3.28-1.49-5.71-5.51-7.41-2.54-1.08-2.94-2.5-1.34-4.82,2.81-4.1,10.57-5.32,15.67-2.47,9.79,5.48,13.13,18.9,7.85,29.56-6.89,13.94-22.85,19.3-37.18,15.79-20.18-4.94-30.77-22.12-26.17-42.4.39-1.72.69-3.47,1.12-5.7-2.89,2.72-5.43,5.21-8.09,7.58-6.72,6-13.54,11.88-22.37,14.56-11,3.32-21.43,2.3-30.27-5.36C23,440.54,31.12,423,43,418.68c5.3-1.94,10.48-1.67,15,2.14a8.91,8.91,0,0,1,2,2.86c.68,1.38.33,2.41-1.34,2.89-4.08,1.17-5.6,2.76-5.58,5.61s3,5.86,6.57,6.73c4.67,1.13,9-.14,13.18-2,8.58-3.85,15.71-9.76,22.28-16.34C100.08,415.58,104.74,410.3,110,404.66Z"/></svg>