<svg width="70" height="139" viewBox="0 0 70 139" fill="none" xmlns="http://www.w3.org/2000/svg">
<path d="M38.9148 24.8072C40.1468 24.4093 41.1471 24.0199 42.1813 23.7687C43.9558 23.3398 45.7077 23.3962 47.3692 24.2851C49.6297 25.4985 50.6131 28.2555 49.4602 30.4933C49.1549 31.0141 48.7272 31.4528 48.2141 31.7716C48.1003 31.8576 47.9684 31.9165 47.8284 31.944C47.6883 31.9714 47.5439 31.9665 47.406 31.9298C47.2682 31.8931 47.1405 31.8254 47.0328 31.732C46.925 31.6385 46.84 31.5218 46.7843 31.3906C45.5975 28.9045 43.4076 28.5123 41.0821 28.8763C39.2596 29.1585 37.4766 29.8075 35.7416 30.4622C33.6365 31.2552 31.5992 32.2259 29.5082 33.1317C30.5933 33.1317 31.6755 33.1317 32.7549 33.1853C35.1454 33.2954 37.276 34.0545 38.9714 35.7956C42.4356 39.3455 40.9493 44.3854 37.129 46.6288C34.8685 47.9409 32.5628 48.2005 30.2994 46.609C29.7845 46.2669 29.378 45.7851 29.1277 45.2202C28.8774 44.6554 28.7938 44.031 28.8866 43.4203C28.9287 43.243 29.0096 43.0771 29.1234 42.9347C29.2372 42.7922 29.3812 42.6767 29.545 42.5963C29.7083 42.5628 29.8773 42.5692 30.0377 42.6149C30.1981 42.6606 30.345 42.7442 30.4661 42.8587C31.3477 43.8295 31.8563 44.0298 32.7267 43.6037C33.1687 43.3662 33.5217 42.9919 33.7326 42.537C33.9435 42.0822 34.001 41.5712 33.8965 41.0809C33.4952 39.4076 32.2011 38.5667 30.7543 38.0079C27.2251 36.6562 23.7298 37.0344 20.3757 38.5723C18.7707 39.3145 17.3014 40.3557 15.7727 41.2672C15.6331 41.381 15.5053 41.5087 15.3912 41.6481C16.3265 41.366 17.0697 41.0668 17.8411 40.8891C20.7204 40.2203 23.3794 41.5409 24.2271 44.058C24.6509 45.3194 24.5746 46.5272 23.5857 47.543C23.1166 48.0256 22.5571 48.2005 22.0626 47.6475C20.9324 46.3748 19.4489 46.1744 17.8807 46.2055C14.6877 46.2676 12.1474 47.8281 9.80492 49.7893C7.48589 51.7172 5.64784 54.1576 4.43618 56.9173C4.35988 57.0951 4.32315 57.3378 4.18752 57.4337C3.82866 57.682 3.40481 58.0517 3.05726 58.015C2.77469 57.984 2.31693 57.4507 2.29998 57.1148C2.19418 55.9621 2.22453 54.8009 2.3904 53.6552C2.99792 50.4778 4.80351 47.9155 6.78147 45.4323C8.45426 43.3469 10.0282 41.1543 10.6781 38.5159C10.9408 37.4548 10.8476 36.2584 10.7374 35.1635C10.6894 34.6781 10.2599 34.1645 9.88969 33.7977C9.01939 32.9511 8.12366 33.0414 7.28161 33.9303C6.63454 34.6132 6.25025 34.5285 5.97616 33.6114C5.47884 31.9381 6.06375 30.5271 7.18554 29.3363C7.73483 28.7157 8.44868 28.2629 9.24467 28.0302C10.0407 27.7976 10.8863 27.7945 11.684 28.0213C12.7989 28.2609 13.8017 28.8655 14.5333 29.7392C15.2648 30.6129 15.6831 31.7056 15.7218 32.8439C15.7897 34.0347 15.5947 35.2368 15.5184 36.4502C18.2226 34.2181 21.0849 32.0566 22.7182 28.7465C23.3483 27.4682 23.6591 26.1222 23.1138 24.7169C22.7238 23.7038 22.04 23.035 20.9098 22.9617C19.9236 22.894 19.3189 23.4132 18.8018 24.6322C18.6858 24.8679 18.5565 25.0968 18.4147 25.3179C17.519 24.8326 17.2364 24.0537 17.064 23.2495C16.6713 21.5056 17.519 19.7222 19.1805 18.6075C21.8083 16.8495 25.623 17.3151 28.0078 19.6827C29.1267 20.7706 29.8237 22.2191 29.9753 23.7713C30.1268 25.3234 29.7231 26.8791 28.8357 28.1624L28.5532 28.5687L28.6944 28.7296C29.8247 27.7984 31.0002 26.9264 32.057 25.9246C34.6396 23.4809 36.4933 20.5828 37.1799 17.047C37.6489 14.6484 37.3212 12.3825 35.7671 10.4269C34.6877 9.08086 33.224 8.57857 31.5286 8.84947C30.9805 8.90674 30.4714 9.15935 30.0946 9.56101C29.7178 9.96267 29.4986 10.4865 29.4771 11.0364C29.3867 11.962 29.8982 12.6477 31.0341 13.1274C31.7518 13.4322 31.8648 13.8329 31.4127 14.4876C30.6187 15.6417 28.426 15.9888 26.9849 15.1818C24.2158 13.6354 23.2748 9.85124 24.764 6.84312C26.7108 2.9066 31.2206 1.411 35.2697 2.38737C40.9719 3.77856 43.9615 8.62936 42.6673 14.3493C42.5571 14.8375 42.4723 15.3313 42.3508 15.9578C43.1675 15.193 43.8852 14.4876 44.6368 13.8188C46.5328 12.1257 48.4599 10.4664 50.9578 9.71296C54.066 8.7761 57.0132 9.06393 59.5111 11.2255C63.5065 14.6851 61.2064 19.6347 57.8609 20.8537C56.3633 21.3984 54.8996 21.325 53.6224 20.2499C53.3831 20.0202 53.1911 19.7461 53.0573 19.4428C52.8651 19.0506 52.964 18.7627 53.4359 18.6273C54.5888 18.2943 55.0183 17.8456 55.0126 17.0442C55.007 16.2428 54.1649 15.3906 53.1562 15.1423C51.8366 14.8234 50.6131 15.1818 49.4319 15.7066C47.0075 16.7959 44.99 18.4636 43.1364 20.3176C41.7207 21.7285 40.4068 23.2156 38.9148 24.8072Z" fill="#AA5C9D"/>
<path d="M31.0821 114.19C29.853 114.588 28.8527 114.98 27.8157 115.231C26.0412 115.657 24.2921 115.601 22.6278 114.712C20.3672 113.502 19.3867 110.745 20.5396 108.504C20.8456 107.985 21.2733 107.548 21.7857 107.231C21.8993 107.145 22.0312 107.085 22.1714 107.058C22.3115 107.03 22.4562 107.035 22.5942 107.071C22.7323 107.108 22.8601 107.176 22.9678 107.27C23.0754 107.364 23.1602 107.481 23.2155 107.612C24.4023 110.096 26.6063 110.491 28.9177 110.127C30.7374 109.844 32.5232 109.195 34.2582 108.541C36.3633 107.748 38.4006 106.777 40.4916 105.871C39.4037 105.854 38.3243 105.871 37.2449 105.818C34.8544 105.707 32.7238 104.948 31.0285 103.207C27.5642 99.6574 29.0505 94.6147 32.8708 92.3741C35.1172 91.0619 37.4342 90.8023 39.7004 92.3911C40.2127 92.7349 40.6162 93.2175 40.8635 93.7823C41.1108 94.3472 41.1915 94.9707 41.0963 95.5798C41.0557 95.7581 40.9754 95.925 40.8614 96.0681C40.7474 96.2112 40.6027 96.3269 40.4379 96.4066C40.275 96.4393 40.1065 96.4326 39.9468 96.3869C39.787 96.3412 39.6405 96.258 39.5196 96.1441C38.6379 95.1734 38.1293 94.9702 37.259 95.3963C36.8176 95.6351 36.4654 96.0101 36.2551 96.4654C36.0447 96.9206 35.9875 97.4316 36.092 97.9219C36.4933 99.5953 37.7874 100.433 39.2342 100.992C42.7634 102.347 46.2587 101.969 49.61 100.428C51.2178 99.6856 52.6871 98.6443 54.213 97.7329C54.3523 97.6177 54.4809 97.4902 54.5973 97.3519C53.662 97.6341 52.9019 97.9163 52.1474 98.111C49.2681 98.7798 46.6091 97.4591 45.7614 94.942C45.3376 93.6778 45.4139 92.4729 46.4029 91.457C46.8719 90.9716 47.4314 90.7995 47.9259 91.3526C49.0561 92.6253 50.5396 92.8256 52.105 92.7946C55.3008 92.7325 57.8411 91.172 60.1836 89.208C62.5036 87.2821 64.3418 84.8424 65.5523 82.0827C65.6314 81.905 65.6682 81.6595 65.8038 81.5635C66.1627 81.3152 66.5837 80.9455 66.9341 80.9991C67.2166 81.0274 67.6744 81.5635 67.6914 81.8965C67.7977 83.0493 67.7664 84.2107 67.5981 85.3561C67.0132 88.542 65.2019 91.1043 63.2212 93.5762C61.5484 95.6644 59.9745 97.857 59.3218 100.495C59.059 101.557 59.1522 102.739 59.2652 103.848C59.3133 104.33 59.7428 104.844 60.1129 105.214C60.9832 106.06 61.879 105.967 62.721 105.078C63.3681 104.398 63.7524 104.48 64.0265 105.4C64.521 107.07 63.9361 108.484 62.8171 109.675C62.2674 110.295 61.5535 110.747 60.7577 110.98C59.9618 111.213 59.1164 111.216 58.3186 110.99C55.979 110.412 54.4221 108.614 54.2808 106.165C54.213 104.977 54.4079 103.772 54.4842 102.558C51.7801 104.79 48.9177 106.955 47.2845 110.265C46.6515 111.521 46.3407 112.875 46.8832 114.286C47.276 115.299 47.9739 115.979 49.0985 116.05C50.0875 116.115 50.6922 115.598 51.2093 114.379C51.3254 114.144 51.4536 113.915 51.5936 113.693C52.4837 114.17 52.7578 114.955 52.9358 115.762C53.3172 117.506 52.4837 119.289 50.8194 120.401C48.1915 122.159 44.3769 121.693 41.992 119.326C40.8721 118.239 40.1744 116.79 40.0228 115.237C39.8712 113.685 40.2756 112.129 41.1641 110.846L41.4325 110.44L41.2884 110.282C40.1581 111.213 38.9855 112.085 37.9287 113.087C35.3461 115.53 33.4924 118.426 32.803 121.964C32.3367 124.36 32.6645 126.629 34.2327 128.584C35.3121 129.93 36.7758 130.43 38.4712 130.162C39.0191 130.104 39.5279 129.851 39.9045 129.45C40.2812 129.048 40.5006 128.525 40.5227 127.975C40.6103 127.049 40.1016 126.364 38.9657 125.884C38.248 125.579 38.135 125.178 38.5871 124.524C39.3811 123.367 41.5738 123.023 43.0149 123.827C45.7812 125.373 46.725 129.16 45.233 132.168C43.2862 136.102 38.7764 137.614 34.7272 136.624C29.0251 135.23 26.0327 130.382 27.3325 124.659C27.4427 124.174 27.5275 123.68 27.649 123.051C26.8324 123.818 26.1146 124.521 25.363 125.19C23.4642 126.883 21.5371 128.542 19.042 129.298C15.9338 130.235 12.9866 129.947 10.4887 127.786C6.49892 124.315 8.79336 119.365 12.1502 118.146C13.6478 117.599 15.1115 117.675 16.3887 118.75C16.6285 118.979 16.8206 119.254 16.9539 119.557C17.146 119.947 17.0471 120.237 16.5752 120.373C15.4223 120.703 14.9928 121.152 14.9985 121.956C15.0042 122.76 15.8462 123.609 16.855 123.855C18.1745 124.174 19.398 123.815 20.5792 123.291C23.0036 122.204 25.0183 120.536 26.8747 118.68C28.2791 117.272 29.5958 115.782 31.0821 114.19Z" fill="#AA5C9D"/>
</svg>
