<svg width="40" height="112" viewBox="0 0 40 112" fill="none" xmlns="http://www.w3.org/2000/svg">
<path d="M34.8764 33.3291C35.1705 33.6469 35.443 33.9838 35.6923 34.3378C37.0099 36.4979 37.7145 38.9754 37.7305 41.5049C37.8058 43.0072 37.5781 44.5092 37.0609 45.9219C36.0191 48.5472 33.9915 50.1399 31.3978 50.9654C30.0532 51.4007 28.5995 51.4963 27.1884 51.7246C26.4124 51.8467 25.6258 51.9316 24.8419 52.0059C24.4698 52.0405 24.0925 52.0059 23.553 52.0059C23.7709 51.637 23.8905 51.4326 24.0128 51.2308C24.7648 49.9885 25.6072 48.7967 26.2424 47.4933C27.0396 45.821 28.2248 44.5018 29.5828 43.294C31.8363 41.2845 33.6381 38.9672 34.3662 35.9676C34.5187 35.1441 34.6269 34.3129 34.6904 33.4778L34.8764 33.3291Z" fill="#E9BAD2"/>
<path d="M25.493 86.8592C25.7295 86.2009 25.8916 85.7151 26.0749 85.2346C26.4948 84.1304 26.9891 83.05 27.3346 81.9219C27.8661 80.2044 28.9769 78.8453 29.9336 77.3827C30.7574 76.1245 31.6131 74.8636 32.2216 73.4992C32.7133 72.3976 32.8461 71.1394 33.165 69.9555C33.2673 69.6787 33.3954 69.412 33.5477 69.1592C33.8062 69.2658 34.0451 69.4147 34.2546 69.5998C35.9155 71.6995 37.2017 73.9664 37.3771 76.7218C37.595 80.1726 35.0438 84.3374 31.2649 85.4151C29.6049 85.8912 27.9422 86.3584 26.2769 86.8167C26.0175 86.855 25.755 86.8692 25.493 86.8592Z" fill="#E9BAD2"/>
<path d="M6.19452 54.4303C5.78081 54.1327 5.39159 53.8025 5.03056 53.4429C3.22083 51.306 2.37311 48.763 2.26947 46.0104C2.12596 42.1136 5.13686 38.554 8.99548 37.9089C10.1621 37.7151 11.342 37.5851 12.5193 37.4523C13.4547 37.3488 13.646 37.5851 13.3165 38.4717C12.7106 40.1095 12.1339 41.7632 11.4058 43.3453C11.055 44.1071 10.388 44.7256 9.8565 45.4025C8.48525 47.1571 7.17513 48.9515 6.64363 51.1653C6.40712 52.1395 6.36194 53.1588 6.19452 54.4303Z" fill="#E9BAD2"/>
<path d="M24.6585 63.4421C24.5177 62.452 24.3343 61.215 24.1669 59.978C24.1299 59.82 24.1546 59.6539 24.236 59.5135C24.3068 59.4826 24.3842 59.4698 24.4613 59.4763C24.5383 59.4827 24.6125 59.5083 24.6771 59.5506C26.3593 60.8779 28.185 62.075 29.6545 63.6093C31.1241 65.1436 32.0994 67.0362 32.0223 69.266C31.9718 70.6516 31.7247 72.0107 31.0045 73.2344C30.1674 74.6572 29.333 76.0853 28.4613 77.4816C28.3767 77.6065 28.2671 77.7127 28.1396 77.7936C28.012 77.8744 27.8692 77.9281 27.7199 77.9514C27.5365 77.9514 27.2814 77.6355 27.1539 77.4205C26.2503 75.7827 25.4026 74.1157 24.4725 72.4938C24.1467 71.8844 24.0255 71.1864 24.127 70.503C24.3104 68.2201 24.4698 65.9665 24.6585 63.4421Z" fill="#E9BAD2"/>
<path d="M16.8429 52.6514C17.3744 53.0894 17.9617 53.538 18.5039 54.0317C19.3649 54.8121 20.194 55.6244 21.0391 56.4207C22.4927 57.7878 22.9949 59.5769 23.2766 61.4642C23.6992 64.3124 23.1464 67.1182 22.8594 69.932C22.7983 70.5398 22.413 70.7071 21.9054 70.3461C21.3999 69.9907 20.9236 69.5957 20.481 69.1648C19.3941 68.103 18.278 67.0412 17.2921 65.8759C16.5875 65.0576 16.0605 64.1022 15.7444 63.07C15.4284 62.0379 15.3301 60.9515 15.4558 59.8795C15.6365 57.9948 15.9075 56.1181 16.1706 54.2414C16.2424 53.6866 16.0218 53.0018 16.8429 52.6514Z" fill="#E9BAD2"/>
<path d="M14.523 63.4254C14.2772 63.3411 14.0411 63.2307 13.8188 63.0963C11.9878 61.6735 10.0983 60.3064 8.70051 58.4138C7.73319 57.1051 7.5206 55.608 7.52591 54.0074C7.52591 51.1246 8.71114 48.7648 10.5262 46.6412C10.7193 46.385 10.9484 46.1579 11.2065 45.967C11.621 45.7015 12.118 45.5847 12.405 46.1209C13.064 47.3579 13.6567 48.6294 14.2971 49.8743C15.3388 51.9024 15.0279 54.0073 14.6346 56.0991C14.1988 58.4217 13.9569 60.7311 14.5203 63.0644C14.5324 63.1844 14.5333 63.3052 14.523 63.4254Z" fill="#E9BAD2"/>
<path d="M25.0013 26.2207C27.8873 27.11 30.582 27.9302 32.4794 30.2183C33.0441 30.9412 33.3659 31.8237 33.3989 32.7401C33.6646 36.0369 32.2562 38.6728 30.1807 41.0459C29.5987 41.7095 28.9078 42.2802 28.1185 43.0368C27.898 42.7262 27.5419 42.4209 27.4382 42.0466C27.0263 40.5575 26.5453 39.0604 26.3752 37.534C26.245 36.3847 26.4948 35.1822 26.6596 34.0169C26.9891 31.6677 26.7818 29.4485 25.3946 27.4311C25.1953 27.1445 25.1634 26.7436 25.0013 26.2207Z" fill="#E9BAD2"/>
<path d="M10.3827 27.803C10.6197 27.7256 10.8477 27.6233 11.063 27.4977C12.5373 26.3595 14.319 25.6883 16.1786 25.5706C17.5817 25.4962 19.0035 25.3423 20.388 25.483C22.7558 25.7219 24.5788 27.5853 25.2166 29.9956C25.7481 32.0501 25.3893 34.0569 25.0704 36.077C24.9934 36.5574 24.7303 36.4804 24.4379 36.3026C22.8887 35.3523 21.3261 34.4259 19.8087 33.4278C19.3416 33.0674 18.9251 32.646 18.5703 32.1749C17.0369 30.4123 15.3548 28.8833 12.9418 28.4586C12.4103 28.3684 11.8788 28.3551 11.3473 28.2967C11.1002 28.2702 10.8584 28.2144 10.6139 28.172L10.3827 27.803Z" fill="#E9BAD2"/>
<path d="M2.87802 40.1886C2.87802 39.5488 2.7797 39.0206 2.89663 38.5428C3.4919 36.1538 4.26787 33.8205 6.00851 31.9358C8.557 29.1778 13.7151 28.3842 16.7712 32.1508C17.207 32.6817 17.7119 33.1648 18.1478 33.6984C18.3376 33.8987 18.4448 34.1632 18.448 34.439C18.4162 34.6036 18.0547 34.7443 17.8156 34.8265C14.8685 35.8485 11.7938 36.2493 8.72708 36.7325C6.60252 37.0555 4.67358 38.1546 3.31385 39.8169C3.17695 39.9503 3.03136 40.0745 2.87802 40.1886Z" fill="#E9BAD2"/>
<path d="M35.8491 50.2414C35.4876 51.2421 35.2272 52.2933 34.7489 53.2383C33.282 56.1423 31.1108 58.388 28.1398 59.7869C27.977 59.8431 27.8035 59.8614 27.6326 59.8402C27.4617 59.819 27.2979 59.759 27.1539 59.6648C25.3681 58.2234 23.6141 56.7448 21.8709 55.2451C21.4005 54.8442 21.4563 54.4036 22.0914 54.1833C23.2147 53.7618 24.37 53.4307 25.5461 53.1932C26.9944 52.9277 28.4693 52.8242 29.9389 52.6012C31.7607 52.3546 33.4864 51.6373 34.9455 50.5201C35.1342 50.3715 35.3441 50.2547 35.5435 50.1113L35.8491 50.2414Z" fill="#E9BAD2"/>
<path d="M4.20409 73.2471C4.23394 72.9167 4.28543 72.5886 4.35823 72.2649C5.52219 68.3682 8.14776 65.7137 11.6157 63.7706C11.8162 63.6267 12.0628 63.562 12.3081 63.589C12.5535 63.616 12.7801 63.7327 12.9445 63.9166C14.4778 65.3898 16.0484 66.818 17.595 68.2726C18.3364 68.9707 18.2647 69.4326 17.2921 69.6423C15.3468 70.0591 13.3883 70.4519 11.4164 70.7041C9.31438 70.9828 7.29206 71.4235 5.48499 72.5861C5.19267 72.7746 4.89237 72.9418 4.58942 73.117C4.46505 73.1716 4.33611 73.2151 4.20409 73.2471Z" fill="#E9BAD2"/>
<path d="M18.0973 71.0654C18.0973 71.0654 5.63114 72.1113 4.95615 74.6543C4.28116 77.1972 13.4387 88.2558 15.4079 88.1921C17.3771 88.1284 11.1613 74.503 18.0973 71.0654Z" fill="#E9BAD2"/>
</svg>
