<svg width="50" height="92" viewBox="0 0 50 92" fill="none" xmlns="http://www.w3.org/2000/svg">
<path d="M16.4377 10.6393V33.3976H7.84933C7.84933 33.3976 7.34918 29.3803 9.51774 27.9525C9.51774 27.9525 7.80081 27.2405 7.80081 25.3218C7.80081 23.4031 9.24154 22.3613 9.24154 22.3613C9.24154 22.3613 7.80081 21.6381 7.80081 19.7756C7.80081 17.9131 9.05864 17.0999 9.05864 17.0999C9.05864 17.0999 3.62419 12.7116 7.23721 8.10601C10.0589 4.50096 15.6315 6.17982 16.4377 10.6393Z" fill="#233565"/>
<path d="M9.58123 33.3975C9.58123 33.3975 3.68395 82.5903 13.9184 87.402C13.9184 87.402 18.8041 89.8716 24.8395 88.3239C24.8395 88.3239 20.5323 84.7975 19.1139 81.2599C18.3712 79.4087 17.4716 77.3588 16.8334 71.7264C15.2284 57.5236 14.8328 33.3975 14.8328 33.3975H9.58123Z" fill="#233565"/>
<path d="M33.2375 10.6393V33.3976H41.8259C41.8259 33.3976 42.3261 29.3803 40.1575 27.9525C40.1575 27.9525 41.8745 27.2405 41.8745 25.3218C41.8745 23.4031 40.4337 22.3613 40.4337 22.3613C40.4337 22.3613 41.8745 21.6381 41.8745 19.7756C41.8745 17.9131 40.6166 17.0999 40.6166 17.0999C40.6166 17.0999 46.0511 12.7116 42.4381 8.10601C39.6126 4.50096 34.0438 6.17982 33.2375 10.6393Z" fill="#233565"/>
<path d="M40.094 33.3975C40.094 33.3975 45.9913 82.5903 35.7569 87.402C35.7569 87.402 30.8711 89.8716 24.8358 88.3239C24.8358 88.3239 29.143 84.7975 30.5613 81.2599C31.3041 79.4087 32.2036 77.3588 32.8419 71.7264C34.4468 57.5236 34.8425 33.3975 34.8425 33.3975H40.094Z" fill="#233565"/>
</svg>
