<svg width="50" height="92" viewBox="0 0 50 92" fill="none" xmlns="http://www.w3.org/2000/svg">
<path d="M16.4228 10.639V33.3973H7.83813C7.83813 33.3973 7.34918 29.38 9.51774 27.9522C9.01352 27.7231 8.58448 27.3549 8.28054 26.8905C7.97659 26.4261 7.81023 25.8846 7.80081 25.329C7.80695 24.7589 7.93904 24.1974 8.18754 23.6848C8.43604 23.1722 8.79475 22.7213 9.2378 22.3648C8.78958 22.1025 8.41976 21.7241 8.16697 21.2693C7.91419 20.8144 7.78773 20.2997 7.80081 19.779C7.78117 19.2639 7.88519 18.7515 8.1041 18.2852C8.32302 17.8189 8.6504 17.4123 9.05864 17.0996C9.05864 17.0996 3.62419 12.7151 7.23721 8.1057C10.0776 4.49691 15.6315 6.17951 16.4228 10.639Z" fill="#E9BAD2"/>
<path d="M9.58116 33.3975C9.58116 33.3975 3.68015 82.5865 13.9145 87.402C17.3536 88.9122 21.1944 89.2351 24.8357 88.3202C24.8357 88.3202 20.5285 84.7938 19.1139 81.2562C18.3674 79.4087 17.4678 77.3551 16.8333 71.7264C15.2284 57.5236 14.8327 33.3975 14.8327 33.3975H9.58116Z" fill="#E9BAD2"/>
<path d="M33.2375 10.639V33.3973H41.8222C41.8222 33.3973 42.3223 29.38 40.1538 27.9522C40.658 27.7231 41.087 27.3549 41.391 26.8905C41.6949 26.4261 41.8613 25.8846 41.8707 25.329C41.8644 24.7586 41.7318 24.1967 41.4827 23.6841C41.2335 23.1714 40.8739 22.7208 40.43 22.3648C40.8789 22.103 41.2495 21.7248 41.5029 21.2699C41.7564 20.815 41.8834 20.3001 41.8707 19.779C41.8904 19.2639 41.7863 18.7515 41.5674 18.2852C41.3485 17.8189 41.0211 17.4123 40.6129 17.0996C40.6129 17.0996 46.0436 12.7151 42.4306 8.1057C39.6126 4.49691 34.0438 6.17951 33.2375 10.639Z" fill="#E9BAD2"/>
<path d="M40.0941 33.3975C40.0941 33.3975 45.9951 82.5865 35.7607 87.402C32.3204 88.9125 28.4784 89.2354 24.8358 88.3201C24.8358 88.3201 29.1431 84.7938 30.5614 81.2562C31.3079 79.4087 32.2037 77.3551 32.8419 71.7264C34.4469 57.5236 34.8425 33.3975 34.8425 33.3975H40.0941Z" fill="#E9BAD2"/>
</svg>
