<svg id="Layer_2" data-name="Layer 2" xmlns="http://www.w3.org/2000/svg" viewBox="0 0 566.93 566.93"><defs><style>.cls-1{fill:#094e92;}.cls-2{fill:#c19560;}</style></defs><path class="cls-1" d="M236.24,246.26c2.39-3.47,5.82-4.44,9.76-3.5,3.59.85,9.63-3.21,5.91-4.42-3.1-1-6.21-2.47-9.38-2.68-8-.52-12.55,4.4-15.51,11.1C224.5,252.48,234.05,249.44,236.24,246.26Zm-24.11,90a16.22,16.22,0,0,0-1.16-1.54c-3.66-3.88-7.65-7.5-10.95-11.67-8.57-10.83-9.81-22.8-4.43-35.44a69.8,69.8,0,0,1,3.77-6.66c-11.26,6.3-15.75,22-11.6,34C192.14,327.62,205.22,337.09,212.13,336.27Zm13.4,8.9c11.85,8.06,32.63,1.82,40-12.14C253.44,341.81,240.58,346.38,225.53,345.17ZM349.84,201.32a10.21,10.21,0,0,0-.85-1.7c-2.45-3-8-4.64-11.65-3.48a8.3,8.3,0,0,0-5.93,5.71,4.15,4.15,0,0,0,.67,3.51c.52.49,2.29-.09,3.4-.49,2.56-.94,5-2.31,7.61-3C345.1,201.3,347.3,201.49,349.84,201.32ZM184.57,271.53c.21-.1,14.21-19.42,24.48-22.47a4.19,4.19,0,0,0,2.94-2.57c2.71-6,5.15-12.13,9.92-16.9,6-5.94,13.23-8.1,21.43-7.13,4.31.51,8.57,1.48,12.84,2.28,6.79,1.27,13.25-.21,19.57-2.48,13.47-4.83,26.59-10.43,38.92-17.75a20.19,20.19,0,0,0,8.32-8.86c6.09-13,21.46-15.17,32.46-5.26a34.34,34.34,0,0,1,9,13.66c2.57,6.75,1.08,10.53-4.6,15.63-1.37,1.23-1.87,2.06-1.29,3.81,1.51,4.54.95,9.1-.34,13.59a8.28,8.28,0,0,1-1.72,2.94c-1.17,1.37-2.25,1.18-2.89-.57-.39-1.08-.66-2.21-1.07-3.28a39.66,39.66,0,0,0-2.09-5c-2.53-4.62-4.63-5-9-1.83.84,7.82,1,15.44-5.43,21.13l-1.09-.1a36.68,36.68,0,0,0-1.23-5.58,41.43,41.43,0,0,0-3.36-6.73c-.68-1.11-1.86-1.43-3.14-.36-2,1.63-4.1,3-6,4.7a3,3,0,0,0-.59,2.28c.62,5.46.57,10.84-1.79,16-.65,1.42-1.29,2.94-3,2.6-2-4.3-3.86-8.36-5.89-12.76-3,2.4-5.56,4.38-8,6.53-.45.4-.43,1.49-.41,2.26.13,4.93.64,9.92-1.55,14.57a29.87,29.87,0,0,1-2.76,4l-.8-.23c-1.48-3.84-2.95-7.69-4.65-12.14-3.19,2.37-6,4.42-8.76,6.54-6,4.6-11.86,9.38-18.93,12.38-6.15,2.61-12.55,2.42-18.95,1.75-14.09-1.49-25.18,3.5-33.26,15.42,1.79-.64,3.62-1.19,5.37-1.94,6.52-2.78,13.13-4.94,20.34-5.42,8.17-.54,15.24,1.53,21.45,6.81,5.2,4.42,10.36,8.92,16.65,11.79a30.27,30.27,0,0,0,13.2,3.07c-11.44-6-20.51-14.67-28.46-24.81,6.65-1.6,12.34.39,17.77,3.87a108.43,108.43,0,0,0,11,6.45c3.1,1.51,3.53,1.2,4.88-2.07a65.85,65.85,0,0,0,2.1-6.79c.29-1,.5-2,.87-3.51,6.11,4.38,6.27,10.59,6.88,16.9,2.68.36,5.42.81,8.17,1,.5,0,1.35-.84,1.57-1.46,1.15-3.24,2.29-6.5,3.15-9.82.43-1.69,1.41-2,2.36-1.1a16.5,16.5,0,0,1,4,5.11c1,2.43,1.33,5.19,2,8.11,2.39,0,4.93.11,7.45-.08.61,0,1.47-1,1.67-1.62,1.17-3.83,2.17-7.72,3.31-11.88,6.62,2.22,6.37,8.62,8.34,13.69a4.14,4.14,0,0,0,4.53-2.66c1.26-2.71,2-5.65,3.06-8.49.31-.86.77-1.67,1.16-2.51.89.53,2.05.85,2.61,1.62,2.35,3.15,2.21,6.93,2.41,10.63,0,.63.4,1.61.88,1.81,6.28,2.65,6.44,8,4,13.24-3.27,7.08-9.45,10.84-16.71,12.71a52.58,52.58,0,0,1-11.92,1.56c-9.14.22-18.3-.25-27.42.14-9.5.4-18.48,2.84-26.18,8.85-10.09,7.88-33.13,20.24-50.78,23.71C211.85,372.44,145.88,320.24,184.57,271.53Z"/><path class="cls-2" d="M297.32,125.09c4.36-1.41,7.9-2.8,11.56-3.68,6.29-1.52,12.48-1.32,18.37,1.83,8,4.29,11.47,14.07,7.39,22a13.08,13.08,0,0,1-4.41,4.53,3.3,3.3,0,0,1-5.06-1.35c-4.2-8.8-11.95-10.2-20.18-8.9-6.44,1-12.76,3.29-18.9,5.61-7.45,2.81-14.66,6.26-22.06,9.46,3.84.06,7.67,0,11.49.2,8.46.38,16,3.08,22,9.25,12.26,12.57,7.05,30.44-6.52,38.38-8,4.65-16.16,5.57-24.17-.06a11.48,11.48,0,0,1-4.94-11.3,4.38,4.38,0,0,1,2.32-2.93,3.68,3.68,0,0,1,3.26.94c3.12,3.43,4.92,4.15,8,2.64a8.22,8.22,0,0,0,4.14-9c-1.42-5.93-6-8.9-11.12-10.88-12.49-4.8-24.86-3.46-36.73,2-5.68,2.63-10.88,6.32-16.29,9.55a10.78,10.78,0,0,0-1.35,1.35c3.31-1,5.95-2.05,8.67-2.68,10.19-2.38,19.6,2.3,22.6,11.23,1.5,4.47,1.23,8.74-2.27,12.35-1.66,1.71-3.64,2.33-5.39.37-4-4.51-9.25-5.22-14.8-5.12-11.3.23-20.29,5.76-28.58,12.71a68.66,68.66,0,0,0-19,25.25c-.28.63-.41,1.5-.89,1.84-1.27.88-2.77,2.19-4,2.06-1-.11-2.62-2-2.68-3.19a52.28,52.28,0,0,1,.32-12.26c2.07-11.28,8.49-20.36,15.5-29.13,5.92-7.4,11.49-15.16,13.79-24.51.93-3.77.61-7.95.21-11.88-.17-1.72-1.69-3.54-3-4.85-3.08-3-6.25-2.67-9.23.48-2.29,2.41-3.65,2.12-4.62-1.14-1.75-5.92.31-10.92,4.28-15.15A15.58,15.58,0,0,1,201,136.5a18.12,18.12,0,0,1,14.29,17.1c.24,4.21-.45,8.48-.72,12.78,9.57-7.91,19.7-15.57,25.48-27.31,2.23-4.52,3.33-9.29,1.4-14.27-1.38-3.59-3.85-6-7.84-6.26-3.49-.23-5.63,1.61-7.46,5.92a26.78,26.78,0,0,1-1.36,2.44c-3.15-1.69-4.12-4.48-4.75-7.34-1.36-6.17,1.6-12.49,7.49-16.44,9.3-6.23,22.8-4.58,31.24,3.81a23.37,23.37,0,0,1,2.93,30l-.95,1.44.51.56c4-3.3,8.15-6.39,11.89-9.94,9.14-8.66,15.7-18.92,18.13-31.46,1.66-8.49.5-16.52-5.05-23.45-3.82-4.78-9-6.55-15-5.6a8.12,8.12,0,0,0-7.26,7.76c-.32,3.28,1.49,5.7,5.51,7.41,2.54,1.07,2.94,2.49,1.34,4.81-2.81,4.1-10.57,5.32-15.67,2.47-9.79-5.48-13.13-18.9-7.86-29.55,6.9-14,22.86-19.31,37.19-15.8,20.18,4.94,30.77,22.13,26.17,42.4-.39,1.73-.69,3.47-1.12,5.7,2.89-2.72,5.43-5.21,8.09-7.58,6.71-6,13.53-11.88,22.37-14.56,11-3.31,21.43-2.3,30.27,5.37,14.14,12.25,6,29.8-5.84,34.12-5.3,1.93-10.48,1.66-15-2.15a8.91,8.91,0,0,1-2-2.86c-.68-1.38-.33-2.41,1.34-2.89,4.08-1.17,5.6-2.76,5.58-5.61s-2.95-5.86-6.57-6.73c-4.67-1.13-9,.14-13.18,2-8.58,3.86-15.72,9.76-22.28,16.34C307.25,114.17,302.59,119.45,297.32,125.09Z"/><path class="cls-2" d="M269.6,441.84c-4.35,1.41-7.89,2.8-11.56,3.68-6.28,1.52-12.47,1.32-18.36-1.83-8-4.29-11.47-14.07-7.39-22a13.08,13.08,0,0,1,4.41-4.53,3.31,3.31,0,0,1,5.06,1.34c4.2,8.81,12,10.21,20.18,8.91,6.44-1,12.76-3.3,18.9-5.61,7.45-2.82,14.66-6.26,22.06-9.46-3.84-.06-7.67,0-11.49-.2-8.46-.39-16-3.08-22-9.25-12.26-12.57-7.05-30.44,6.52-38.38,7.95-4.65,16.15-5.57,24.17.06A11.47,11.47,0,0,1,305,375.9a4.38,4.38,0,0,1-2.32,2.93,3.68,3.68,0,0,1-3.26-.94c-3.12-3.44-4.92-4.15-8-2.64a8.23,8.23,0,0,0-4.13,8.95c1.42,5.93,6,8.9,11.12,10.88,12.49,4.8,24.86,3.45,36.72-2,5.69-2.63,10.89-6.32,16.3-9.55a10.39,10.39,0,0,0,1.35-1.36c-3.31,1-5.95,2.06-8.67,2.69-10.19,2.37-19.6-2.3-22.6-11.23-1.5-4.47-1.23-8.75,2.27-12.35,1.66-1.71,3.64-2.33,5.39-.37,4,4.51,9.25,5.22,14.79,5.11,11.31-.22,20.3-5.75,28.59-12.7a68.66,68.66,0,0,0,19-25.25c.28-.63.41-1.5.89-1.84,1.27-.88,2.77-2.19,4-2.06,1,.11,2.62,2,2.68,3.19a51.75,51.75,0,0,1-.33,12.26c-2.07,11.28-8.48,20.36-15.49,29.13-5.92,7.4-11.49,15.16-13.8,24.51-.93,3.77-.6,7.95-.2,11.88.17,1.72,1.69,3.54,3,4.85,3.08,3,6.25,2.67,9.23-.48,2.29-2.42,3.65-2.12,4.62,1.14,1.75,5.92-.31,10.92-4.28,15.15A15.58,15.58,0,0,1,366,430.43c-8.28-2.05-13.79-8.42-14.29-17.1-.24-4.21.45-8.48.72-12.78-9.57,7.91-19.7,15.57-25.48,27.31-2.23,4.52-3.33,9.29-1.4,14.27,1.38,3.59,3.85,6,7.84,6.25,3.49.24,5.63-1.6,7.46-5.91a25.51,25.51,0,0,1,1.36-2.44c3.15,1.69,4.12,4.48,4.75,7.34,1.35,6.17-1.6,12.49-7.49,16.44-9.3,6.23-22.8,4.58-31.24-3.81A23.37,23.37,0,0,1,305.28,430l1-1.44-.51-.56c-4,3.29-8.15,6.39-11.89,9.94-9.14,8.65-15.7,18.92-18.14,31.46-1.65,8.49-.49,16.52,5.06,23.45,3.82,4.78,9,6.55,15,5.6a8.12,8.12,0,0,0,7.26-7.76c.31-3.28-1.49-5.7-5.51-7.41-2.54-1.07-2.94-2.49-1.34-4.82,2.81-4.09,10.57-5.31,15.67-2.46,9.79,5.48,13.13,18.9,7.86,29.55-6.9,14-22.86,19.3-37.19,15.8-20.18-4.94-30.77-22.13-26.17-42.4.39-1.73.69-3.48,1.12-5.7-2.89,2.72-5.43,5.21-8.09,7.58-6.72,6-13.54,11.88-22.37,14.55-11,3.32-21.43,2.31-30.27-5.36-14.14-12.25-6-29.8,5.84-34.12,5.3-1.93,10.48-1.66,15,2.14a9.06,9.06,0,0,1,2,2.87c.68,1.38.33,2.4-1.34,2.89-4.08,1.17-5.6,2.76-5.58,5.6s2.95,5.87,6.57,6.74c4.67,1.13,9-.14,13.18-2,8.58-3.86,15.71-9.76,22.28-16.34C259.68,452.76,264.34,447.48,269.6,441.84Z"/></svg>