<svg id="Layer_2" data-name="Layer 2" xmlns="http://www.w3.org/2000/svg" viewBox="0 0 595.28 566.93"><defs><style>.cls-1{fill:#094e92;}.cls-2{fill:#c19560;}</style></defs><path class="cls-1" d="M95.12,231.4c.23-.11,15.35-21,26.44-24.27a4.51,4.51,0,0,0,3.17-2.77c2.94-6.45,5.57-13.1,10.72-18.25,6.42-6.43,14.29-8.76,23.15-7.71,4.65.55,9.25,1.6,13.87,2.46,7.34,1.37,14.31-.23,21.14-2.67,14.54-5.22,28.72-11.27,42-19.18a21.81,21.81,0,0,0,9-9.57c6.58-14.07,23.18-16.39,35.07-5.68a37.19,37.19,0,0,1,9.72,14.75c2.78,7.29,1.17,11.37-5,16.89-1.47,1.32-2,2.22-1.39,4.11,1.63,4.9,1,9.83-.36,14.68a9,9,0,0,1-1.86,3.17c-1.27,1.49-2.44,1.28-3.13-.61-.42-1.17-.7-2.38-1.15-3.54a43.9,43.9,0,0,0-2.25-5.38c-2.74-5-5-5.41-9.68-2,.9,8.44,1.07,16.67-5.87,22.82l-1.18-.11a38.74,38.74,0,0,0-1.33-6,45.19,45.19,0,0,0-3.62-7.27c-.74-1.2-2-1.54-3.4-.39-2.11,1.76-4.43,3.28-6.5,5.08a3.22,3.22,0,0,0-.64,2.46c.67,5.9.62,11.71-1.93,17.24-.71,1.53-1.4,3.17-3.19,2.81-2.15-4.65-4.16-9-6.36-13.78-3.21,2.58-6,4.72-8.64,7.05-.49.43-.46,1.61-.44,2.44.14,5.33.69,10.71-1.68,15.73a31.34,31.34,0,0,1-3,4.35L216,238l-5-13.12c-3.44,2.56-6.48,4.77-9.46,7.06-6.48,5-12.81,10.14-20.44,13.38-6.65,2.82-13.55,2.61-20.47,1.88-15.22-1.61-27.2,3.79-35.93,16.66,1.93-.69,3.91-1.29,5.8-2.09,7.05-3,14.18-5.34,22-5.85,8.83-.59,16.47,1.64,23.17,7.35,5.62,4.77,11.19,9.63,18,12.73a32.77,32.77,0,0,0,14.26,3.32c-12.36-6.52-22.15-15.85-30.75-26.8,7.19-1.73,13.33.42,19.19,4.18a119.2,119.2,0,0,0,11.9,7c3.35,1.64,3.82,1.3,5.27-2.23a70.85,70.85,0,0,0,2.27-7.34c.32-1.07.54-2.16.94-3.78,6.6,4.72,6.78,11.44,7.43,18.25,2.9.39,5.85.88,8.82,1.1.54,0,1.46-.91,1.7-1.57,1.25-3.5,2.48-7,3.4-10.61.47-1.83,1.52-2.17,2.55-1.19a17.76,17.76,0,0,1,4.28,5.52c1.12,2.63,1.44,5.6,2.18,8.76,2.59,0,5.33.11,8-.09.66,0,1.59-1,1.81-1.75,1.26-4.14,2.34-8.33,3.57-12.83,7.15,2.39,6.88,9.32,9,14.79a4.45,4.45,0,0,0,4.88-2.87c1.37-2.93,2.2-6.11,3.31-9.17.34-.93.83-1.81,1.26-2.71.95.57,2.21.92,2.82,1.74,2.53,3.41,2.38,7.49,2.6,11.48,0,.69.44,1.75.95,2,6.79,2.87,6.95,8.68,4.36,14.3-3.53,7.65-10.21,11.71-18,13.73a57.58,57.58,0,0,1-12.88,1.69c-9.87.23-19.76-.27-29.62.14-10.26.43-20,3.07-28.28,9.57-10.9,8.5-12.29,16.77-5.7,29.16a40.94,40.94,0,0,0,7,9c3.21,3.31,6.88,6.17,10.31,9.27s6.77,6.24,9.87,9.1c-1.19-5.52-2.6-11.31-3.66-17.16-2.46-13.51,7.08-27,20.34-29.07,13.43-2.06,26.44,7.83,28.29,21.49,1,7.44-3.42,14.86-10,16.51a11.47,11.47,0,0,1-5,.1,3.88,3.88,0,0,1-2.23-2.32c-.2-.56.61-1.84,1.29-2.29,5.33-3.54,5.16-10-.41-13.26-5.26-3.05-11.47-1-14,4.71-2.61,5.91-2.4,12.11-1.36,18.32,1.79,10.67,4,21.28,5.36,32,1.38,11.16-.5,22.12-4.19,32.74q-4.5,12.94-9.08,25.86c-.73,2.06-1.75,4.06-4.38,4a4.55,4.55,0,0,1-4.46-4.24,71.51,71.51,0,0,1-.72-11.6c.29-9.49,1.06-19-2.07-28.24-3.32-9.86-9.77-16.74-19-21.17-9.59-4.6-19.85-7-30.16-9.25-11.88-2.62-19.34-11.65-30-17.85-8.12-4.73-17.8-16.18-26.76-28.78C101.59,326.83,53.33,284,95.12,231.4Zm55.81-27.29c2.58-3.75,6.28-4.8,10.55-3.78,3.87.92,10.4-3.47,6.37-4.78-3.35-1.08-6.7-2.66-10.13-2.89-8.6-.57-13.55,4.75-16.75,12C138.25,210.82,148.57,207.54,150.93,204.11ZM131.19,309.75c-.65-.71-1-1.17-1.4-1.54-4.32-3.81-9-7.31-12.93-11.46-10.3-10.81-12.81-23.56-8.27-37.69a73.9,73.9,0,0,1,3.4-7.54c-11.49,7.9-14.77,25.27-9.12,37.75C108.83,302.42,123.83,311.32,131.19,309.75Zm95.33,91c-5.27-18.91-23.89-34.37-41.38-34.45C201.94,374.65,216.21,385.36,226.52,400.77Zm-91.44-69.71c2.76,21.18,20.52,32.1,34.25,29.66C154.33,355.37,143.19,345.49,135.08,331.06Zm10.11-21.67c9.33,12.35,32.75,13.16,45.07,1.42C174.91,315.62,160.17,315.84,145.19,309.39ZM273.63,155.57a10.8,10.8,0,0,0-.91-1.84c-2.66-3.22-8.62-5-12.59-3.76-3.13,1-5.52,3-6.41,6.16a4.54,4.54,0,0,0,.72,3.8c.57.53,2.48-.09,3.68-.53,2.77-1,5.39-2.5,8.22-3.27C268.51,155.54,270.89,155.75,273.63,155.57ZM162.74,335.09c6.43,10.38,16.08,14.65,23.26,10.22C177.19,344,169.82,339.93,162.74,335.09Z"/><path class="cls-1" d="M484.89,337.54c-9,12.6-18.65,24-26.76,28.78-10.64,6.2-18.1,15.23-30,17.85-10.32,2.27-20.58,4.65-30.17,9.25-9.25,4.43-15.69,11.31-19,21.17-3.13,9.28-2.36,18.75-2.08,28.24a70.4,70.4,0,0,1-.72,11.6,4.54,4.54,0,0,1-4.46,4.24c-2.62.1-3.65-1.9-4.38-4q-4.59-12.91-9.08-25.86c-3.69-10.62-5.57-21.58-4.19-32.74,1.33-10.73,3.58-21.34,5.36-32,1-6.21,1.25-12.41-1.36-18.32a9.64,9.64,0,0,0-14-4.71c-5.57,3.23-5.73,9.72-.41,13.26.69.45,1.49,1.73,1.29,2.29a3.85,3.85,0,0,1-2.23,2.32,11.47,11.47,0,0,1-5-.1c-6.59-1.65-11-9.07-10-16.51,1.85-13.66,14.87-23.55,28.3-21.49,13.25,2,22.79,15.56,20.34,29.07-1.06,5.85-2.48,11.64-3.67,17.16,3.1-2.86,6.46-6,9.88-9.1s7.09-6,10.31-9.27a40.59,40.59,0,0,0,7-9c6.59-12.39,5.2-20.66-5.7-29.16-8.31-6.5-18-9.14-28.28-9.57-9.85-.41-19.75.09-29.62-.14a57.42,57.42,0,0,1-12.87-1.69c-7.84-2-14.52-6.08-18.05-13.73-2.59-5.62-2.42-11.43,4.36-14.3.52-.21.92-1.27,1-2,.21-4,.06-8.07,2.59-11.48.62-.82,1.87-1.17,2.83-1.74.42.9.91,1.78,1.25,2.71,1.11,3.06,1.94,6.24,3.31,9.17a4.45,4.45,0,0,0,4.88,2.87c2.14-5.47,1.86-12.4,9-14.79,1.23,4.5,2.32,8.69,3.58,12.83.22.73,1.14,1.71,1.8,1.75,2.72.2,5.47.09,8.05.09.74-3.16,1.06-6.13,2.18-8.76a17.91,17.91,0,0,1,4.28-5.52c1-1,2.08-.64,2.55,1.19.92,3.59,2.16,7.11,3.4,10.61.24.66,1.16,1.61,1.7,1.57,3-.22,5.93-.71,8.82-1.1.66-6.81.83-13.53,7.43-18.25.4,1.62.63,2.71.94,3.78a73.36,73.36,0,0,0,2.27,7.34c1.46,3.53,1.92,3.87,5.28,2.23a120.19,120.19,0,0,0,11.89-7c5.86-3.76,12-5.91,19.19-4.18-8.59,11-18.39,20.28-30.75,26.8A32.77,32.77,0,0,0,401.43,276c6.8-3.1,12.38-8,18-12.73,6.7-5.71,14.35-7.94,23.17-7.35,7.79.51,14.93,2.84,22,5.85,1.89.8,3.87,1.4,5.8,2.09-8.72-12.87-20.71-18.27-35.93-16.66-6.91.73-13.82.94-20.47-1.88-7.63-3.24-14-8.41-20.44-13.38-3-2.29-6-4.5-9.46-7.06L379,238l-.87.24a31.34,31.34,0,0,1-3-4.35c-2.37-5-1.82-10.4-1.68-15.73,0-.83.05-2-.44-2.44-2.63-2.33-5.42-4.47-8.64-7.05l-6.36,13.78c-1.79.36-2.48-1.28-3.19-2.81-2.55-5.53-2.6-11.34-1.93-17.24a3.22,3.22,0,0,0-.64-2.46c-2.07-1.8-4.39-3.32-6.5-5.08-1.39-1.15-2.66-.81-3.39.39a44.43,44.43,0,0,0-3.63,7.27,38.74,38.74,0,0,0-1.33,6l-1.18.11c-6.94-6.15-6.77-14.38-5.86-22.82-4.68-3.44-6.95-3-9.68,2a44,44,0,0,0-2.26,5.38c-.44,1.16-.73,2.37-1.15,3.54-.69,1.89-1.86,2.1-3.13.61a8.93,8.93,0,0,1-1.85-3.17c-1.39-4.85-2-9.78-.37-14.68.63-1.89.08-2.79-1.39-4.11-6.14-5.52-7.74-9.6-5-16.89a37.11,37.11,0,0,1,9.73-14.75c11.88-10.71,28.49-8.39,35.06,5.68a21.81,21.81,0,0,0,9,9.57c13.32,7.91,27.5,14,42.05,19.18,6.82,2.44,13.8,4,21.13,2.67,4.62-.86,9.22-1.91,13.88-2.46,8.85-1.05,16.72,1.28,23.14,7.71,5.15,5.15,7.78,11.8,10.72,18.25a4.53,4.53,0,0,0,3.17,2.77c11.09,3.3,26.21,24.16,26.44,24.27C541.71,284,493.45,326.83,484.89,337.54Zm-30.82-132.9c-3.19-7.23-8.14-12.55-16.75-12-3.43.23-6.78,1.81-10.13,2.89-4,1.31,2.51,5.7,6.38,4.78,4.26-1,8,0,10.54,3.78C446.47,207.54,456.79,210.82,454.07,204.64Zm38.1,84.63c5.65-12.48,2.38-29.85-9.12-37.75a73.9,73.9,0,0,1,3.4,7.54c4.54,14.13,2,26.88-8.27,37.69-4,4.15-8.6,7.65-12.93,11.46-.41.37-.75.83-1.4,1.54C471.21,311.32,486.21,302.42,492.17,289.27ZM409.9,366.32c-17.49.08-36.1,15.54-41.37,34.45C378.83,385.36,393.1,374.65,409.9,366.32Zm15.81-5.6c13.73,2.44,31.49-8.48,34.26-29.66C451.85,345.49,440.71,355.37,425.71,360.72Zm-20.93-49.91c12.33,11.74,35.74,10.93,45.07-1.42C434.88,315.84,420.14,315.62,404.78,310.81ZM328.7,156.13c2.83.77,5.45,2.26,8.23,3.27,1.19.44,3.1,1.06,3.67.53a4.51,4.51,0,0,0,.72-3.8,9,9,0,0,0-6.4-6.16c-4-1.26-9.94.54-12.59,3.76a10.73,10.73,0,0,0-.92,1.84C324.15,155.75,326.54,155.54,328.7,156.13ZM409,345.31c7.19,4.43,16.83.16,23.27-10.22C425.22,339.93,417.85,344,409,345.31Z"/><path class="cls-2" d="M174.1,95.62c6.19-8.9,9.45-18.5,6.77-29.47a21,21,0,0,1-.59-5c0-2.89,1.56-4,4.35-3.29,5.23,1.3,8.88,6.36,9,12.71.05,1.72-.21,3.45-.32,5.09,4.4-4,8.55-8.27,13.19-11.91,10.76-8.47,22.93-12,36.43-8.37,11.45,3,21.06,15,22.16,26.76,1.2,12.88-9.61,26.9-22.43,28.59a25.64,25.64,0,0,1-10.69-.66c-7.3-2.28-10.31-11.21-6.33-17.68a7.54,7.54,0,0,1,3.58-2.92,3.68,3.68,0,0,1,3.32,1c3,4,4.33,5,7,3.93,2.91-1.09,4.79-5.2,4.13-9a13.05,13.05,0,0,0-11.88-10.84,26,26,0,0,0-16.55,3.85c-10.94,6.75-19.9,15.74-28.36,25.27-1.4,1.59-2.85,3.13-4,4.41,4.64-.29,9.51-.94,14.36-.84,8.21.18,15.35,6.72,17.06,15.06a18,18,0,0,1-9,19.15c-5.71,2.94-13.1,2.34-17-1.5-.7-.69-1.49-1.82-1.36-2.62.09-.61,1.51-1.24,2.43-1.45,3.9-.89,5.52-2.09,5.76-4.56a7.64,7.64,0,0,0-5.13-7.63c-4.87-1.8-9.75-1.25-14.68-.11-8.87,2.06-16.35,6.78-23.87,12a58.91,58.91,0,0,1,5.93,1c6.54,1.76,10.14,7.15,9.54,14.09A13.79,13.79,0,0,1,155.3,163c-3.22.39-4.23-.9-3-3.84,1.53-3.7.22-6.95-3.49-8.53-5-2.14-10.09-1.44-15.11.09-9.71,3-17.56,8.84-24.48,16-4,4.13-7.55,8.67-11.64,13.4,3.84-.54,6.94-1.28,10.06-1.35,6.22-.14,10.63,3.88,11,9.59.21,3.26-.89,4.54-4.1,4.23-12-1.14-21.36,3.86-29.35,12.25a74.16,74.16,0,0,0-19.08,35.7,3.52,3.52,0,0,1-.29,1c-.66,1.12-1.37,2.21-2.07,3.32-1.12-1-2.81-1.8-3.26-3a28.14,28.14,0,0,1-2.08-9c-.1-7.28.42-14.56.58-21.84.17-7.71.42-15.43.21-23.13-.07-2.25-1.69-4.42-2.39-6.69-.37-1.17-.83-3-.26-3.62a5.41,5.41,0,0,1,4-1.39c4,.5,7.42,2.39,8.69,6.45,1.09,3.48,1.57,7.15,2.35,10.87,1.54-4,3.2-8.16,4.7-12.34,3.47-9.63,6.57-19.34,6.53-29.75a15.35,15.35,0,0,0-3.39-9.86c-3.6-4.49-8.6-5-13-1.35-2.19,1.79-4,1.41-5.38-1.16-2.87-5.19-.28-13.56,5.38-17.37,8.21-5.53,20.69-3.47,27.48,4.49,6.26,7.36,7.07,15.81,5,24.82-.58,2.56-1.38,5.07-1.79,7.8,4.94-7.1,10-14.1,14.78-21.32,5.28-8,9.92-16.37,12.64-25.68,2.39-8.21,2.94-16.38.36-24.64-2.94-9.42-12.77-14.94-21.57-12.09-6.4,2.08-9.25,7.48-7.25,13.82.64,2,1.83,3.65,4.18,4s4.15-.56,5-2.95c.6-1.69,1.79-1.4,3-.84,4.1,1.83,6,7.09,4.4,11.87-1.8,5.2-6.84,8.52-13.37,8.81-12.44.57-23.88-9-26.23-21.25-2.71-14.06,8.1-29.28,21.85-34.24,19.46-7,39.95,4.27,45.78,23.17,5.89,19.08,3,37.37-8.39,54.07a1.67,1.67,0,0,0-.31,1.23,26.15,26.15,0,0,0,2.53-1.86c6.66-6.27,13.67-12.22,19.81-19a27,27,0,0,0,7-23.67,6.27,6.27,0,0,0-5.51-5.61c-3.54-.69-4.37-2.19-3.32-5.66,2.1-7,11.66-9.09,17.6-3.81,5,4.44,5.91,10.3,5.22,16.56A58.07,58.07,0,0,1,174.1,95.62Z"/><path class="cls-2" d="M497.3,157.59c-.57-4.93-1.75-10.42-1.74-15.91,0-12.4,8.76-21.73,21-23.2,10.1-1.22,19.7,7.33,18.83,16.94a10.43,10.43,0,0,1-1.9,4.8c-1,1.41-2.66,1.61-4.27.53-7.76-5.25-15.36-1.67-16.75,7.8-.93,6.3.06,12.48,1.83,18.41,2.6,8.7,5.83,17.21,8.92,26.18.81-3.7,1.27-6.87,2.2-9.89,1.24-4,4.25-6.29,8.32-7a8.48,8.48,0,0,1,3.9.33,2,2,0,0,1,1.18,3.18c-4.43,7.09-3.86,15-3.6,22.77.31,9.67,1,19.33,1.16,29,.06,2.95-.84,5.94-1.44,8.89a5.9,5.9,0,0,1-1.29,2.86,4.22,4.22,0,0,1-2.82,1.43c-.62,0-1.38-1.38-1.7-2.28-2-5.85-3.46-12-6-17.56-5.2-11.32-12.7-20.94-23.37-27.76a29.15,29.15,0,0,0-18-4.6c-5.47.35-7.19-2.46-4.74-7.5s8.68-7.61,15.1-6a20.23,20.23,0,0,0,4.95.9c-2.65-3.22-5.15-6.58-8-9.62-7.55-8.11-15.78-15.4-26.3-19.54a26.88,26.88,0,0,0-13.53-2c-7.57,1-9.66,6.88-5,11.47a2.49,2.49,0,0,1,.37.68c-1.72,2.26-3.86,2.85-7.05,2-6.37-1.78-10.56-8.28-9.84-15.26.69-6.6,5.73-11.17,12.81-11.57.86-.05,1.72,0,3.37,0-6.06-4.51-11.63-8.26-18-10.8a33.07,33.07,0,0,0-16.09-2.63,12.47,12.47,0,0,0-7.94,3.91,5.71,5.71,0,0,0-1.53,5.86c.7,2.3,2.55,3,4.64,3.45a22,22,0,0,1,3,1.11c-.65,1.17-1,2.65-2,3.47-5.31,4.62-14.73,3.6-20.36-2.06a18,18,0,0,1-3.83-19.5c3.08-7.18,8.68-11.33,16.46-11.52,5-.12,10.09.93,14.55,1.39-8.26-9.34-17-19.4-28-27.17-6.18-4.39-12.77-7.65-20.72-7-7.47.62-13.69,7-12.91,13.86a9,9,0,0,0,2.39,4.82c2.73,2.82,6.59,2,8.33-1.57,1.54-3.1,4.45-3.54,6.73-.88,2.5,2.93,2.9,6.45,2.05,10.05-1.51,6.37-6.49,10.29-13,10.54-11,.42-18.61-5.08-24-14s-4.91-18,.17-26.82c4.94-8.61,12.2-14.43,22.07-16.07a39.55,39.55,0,0,1,29.88,6.8c4,2.78,7.5,6.24,11.15,9.48,1.44,1.28,2.67,2.8,4.58,4.82,0-2.59-.17-4.5,0-6.37.48-4.57,2.42-8.43,6.61-10.59,1.39-.72,3.79-1.09,4.88-.35s1.48,3.07,1.37,4.66c-.24,3.52-1.36,7-1.44,10.51-.18,8.33,3,15.63,7.75,22.37-.45-2.14-1.06-4.26-1.34-6.42-1-8.14,2.17-16.48,10-18.69,5-1.39,10.57.83,12.73,5.24,1.75,3.57.68,6-3.12,7.05-4.31,1.2-5.91,3.25-6.11,7.67-.39,8.52,2.65,15.87,7.93,22.31,6.44,7.86,14.48,14,22,19.85-2.22-4.54-5.07-9.33-7-14.47a65.6,65.6,0,0,1-3.05-36.66c2.83-13.74,15.1-26.11,28-28.37C496,50.6,510.22,56.65,517.93,69c9.63,15.46,2.68,34.75-14.52,39.77-6.8,2-13.45,1.67-18.7-4-3.9-4.24-3.89-10.56-.15-14.25,2.47-2.43,3.6-2.19,5.75.34.88,1,2.87,2,4,1.72a7,7,0,0,0,4.12-3.19c3.19-6.48-1.59-14-9.22-14.84-9.35-1.05-16.74,4-19.43,13.29-3.39,11.69-.76,22.71,4,33.34,5.39,12.08,13.16,22.72,21.13,33.19C495.89,155.62,496.81,156.92,497.3,157.59Z"/><path class="cls-1" d="M120.54,421.45c-2.43-3.34-4.62-6-6.42-8.86-3.07-4.95-4.64-10.31-3.61-16.24,1.41-8.09,8.81-13.8,16.73-12.54a11.8,11.8,0,0,1,5.12,2.5,3,3,0,0,1,.28,4.71c-6.36,6.09-5.37,13.12-1.93,19.8,2.68,5.23,6.42,10,10.14,14.6,4.51,5.58,9.49,10.78,14.33,16.22-1-3.31-2.15-6.58-3.08-9.9-2.06-7.35-1.89-14.59,1.7-21.48,7.31-14.05,24.08-14.63,34.71-5.26,6.23,5.5,9.33,12.27,6.77,20.72a10.36,10.36,0,0,1-8.28,7.42,3.9,3.9,0,0,1-3.16-1.16,3.35,3.35,0,0,1-.13-3.06c2.07-3.64,2.17-5.38,0-7.61a7.4,7.4,0,0,0-8.82-1c-4.68,2.89-5.94,7.63-6.18,12.6-.59,12,4,22.26,12.1,30.87,3.86,4.13,8.49,7.54,12.78,11.25a9.21,9.21,0,0,0,1.54.78c-1.82-2.54-3.44-4.51-4.75-6.67-4.91-8.05-3.56-17.43,3.24-22.51,3.4-2.55,7.14-3.53,11.21-1.55,1.94.94,3,2.46,1.84,4.51-2.73,4.71-1.86,9.4-.2,14.11,3.38,9.62,10.65,15.76,18.95,20.89a61.87,61.87,0,0,0,27,9.13c.62.06,1.4-.08,1.82.24,1.12.84,2.66,1.75,2.91,2.88.2.92-1,2.81-2,3.2a47.44,47.44,0,0,1-10.59,3.18c-10.24,1.41-19.83-1.52-29.31-5.05-8-3-16.23-5.55-24.89-4.89-3.48.27-7,1.73-10.23,3.18-1.42.63-2.55,2.44-3.29,4-1.67,3.47-.52,6.11,3,7.77,2.72,1.27,2.85,2.53.34,4.27-4.58,3.18-9.45,2.82-14.19.61a14,14,0,0,1-8.48-12.31,16.32,16.32,0,0,1,10.61-17.06c3.54-1.4,7.39-2,11.15-3-9.48-6-18.9-12.48-30.58-14.11-4.51-.63-8.9-.23-12.62,2.82-2.69,2.2-4,5-3.14,8.48.78,3.06,3,4.38,7.17,4.72.76.07,1.51.29,2.47.48-.56,3.17-2.67,4.79-4.94,6.14-4.91,2.9-11.15,2.15-16.2-1.78-8-6.2-10.36-18.23-5.55-27.82a21.08,21.08,0,0,1,24.91-11l1.49.4.35-.59c-3.95-2.47-7.78-5.18-11.87-7.38-10-5.38-20.64-8.1-32.06-6.64-7.74,1-14.29,4.24-18.66,10.94C77,450,77,454.93,79.5,459.8a7.29,7.29,0,0,0,8.68,4c2.9-.65,4.47-2.88,4.79-6.81.21-2.47,1.31-3.21,3.75-2.5,4.3,1.25,7.54,7.55,6.54,12.72-1.93,9.93-12.48,16.57-23.09,15.07-13.89-2-23-14.12-24-27.39-1.46-18.67,10.27-32.58,28.92-34.37,1.59-.15,3.17-.39,5.2-.65-3.14-1.71-6-3.18-8.77-4.79-7-4.06-14-8.24-18.78-15.05-5.94-8.45-8-17.7-4-27.43,6.51-15.57,23.83-13.56,30.87-4.63,3.15,4,4.38,8.5,2.4,13.45A7.85,7.85,0,0,1,90.14,384c-1,1-2,1-2.85-.33-2.16-3.16-4-4-6.38-3.19S76.73,384.65,77,388c.35,4.32,2.66,7.67,5.45,10.72,5.72,6.26,12.79,10.7,20.28,14.47C108.39,416,114.23,418.53,120.54,421.45Z"/><path class="cls-1" d="M451.85,449c5.51-1.41,10.94-1.89,16.2.49,8.54,3.85,12.87,10.77,13.24,19.94.35,8.63-3,15.66-10.88,19.87-4.66,2.5-9.63,2.67-14.16-.38-1.78-1.2-3-3.16-4.53-4.77l.5-1a31,31,0,0,1,3.17-.57c6.13-.44,8.85-5.91,5.44-11-2.18-3.28-5.4-4.76-9.2-5.12-7.17-.67-13.71,1.69-19.9,4.83-5.59,2.84-10.87,6.29-16.58,9.64a75,75,0,0,1,8.76,1.22c10.29,2.71,15.92,11.91,13.33,21.44s-15.2,14.31-22.77,8.81c-2.39-1.74-2.43-3.21.2-4.12,3.79-1.3,5.13-5,2.44-9.42-2.44-4-6.42-5.38-10.86-5.71-9.2-.67-17.68,2.29-26.15,5.25-7.22,2.52-14.49,4.75-22.2,5.13a37.33,37.33,0,0,1-16.45-2.47c-1.86-.77-4.15-1.56-3.69-4.18s2.69-2.88,4.92-3.15c16.75-2.09,31.28-8.5,41.81-22.22,4-5.26,6.49-11.21,5.3-18.09a12.06,12.06,0,0,0-1.16-3.22c-1.22-2.39-.75-4.45,1.81-5.25a12,12,0,0,1,6.19-.46A14.61,14.61,0,0,1,406.86,463c-1.54,4.57-4.35,8.7-6.73,13.32,4.71-4.17,9.66-8,14-12.5a41.83,41.83,0,0,0,12.27-26.78c.34-4.95-.05-9.78-3-14-2.77-4-7.62-5.09-11.17-2.61-2.89,2-3.42,4.72-1.89,7.93.53,1.12,1,3.3.43,3.72a5.2,5.2,0,0,1-4,.63c-6-1.54-8.41-9.3-7.68-14.28,1.65-11.26,12.65-20.1,24.29-19.72,10.92.35,19.86,9.39,21,21,.68,7.06-1.45,13.49-4,19.86a10.21,10.21,0,0,0-.9,2.83c1.38-1.64,2.77-3.26,4.13-4.91,6-7.18,12-14.27,17.8-21.6a24,24,0,0,0,5.34-15.31,12.29,12.29,0,0,0-3.68-9.1c-2.23-2.19-2.09-4,.35-6,2.82-2.32,6.14-2.31,9.38-1.53,8.63,2.08,13.43,10.69,11.33,20a33.6,33.6,0,0,1-8.43,15.2,2.29,2.29,0,0,0-.69,1.64c4.58-2,9.22-3.88,13.75-6,9.15-4.28,17.68-9.49,24.57-17,2.95-3.23,5.16-6.81,4.66-11.46-.31-3-2-5.34-4.28-5.86a4.58,4.58,0,0,0-5.29,2.08c-.6.91-1.89,2.22-2.53,2.06a4.8,4.8,0,0,1-2.7-2.49c-2.67-5.95.09-13.42,6.29-17.57,11.77-7.86,26-1.33,28.22,13,1.68,10.59-1.73,19.4-9.38,26.71-6.43,6.14-14.19,10.31-21.88,14.58-.44.24-.86.5-1.39.81,4.14.81,8.18,1.23,12,2.42,22.48,7,25.64,30.11,18.61,44.92-4.67,9.85-12.67,15.38-23.87,15.41-9.67,0-18-6.48-19.73-15.13-.89-4.51,1.29-10,4.87-12.16,3-1.88,4.68-1.11,5.05,2.34a7.28,7.28,0,0,0,4.67,6.25,7.17,7.17,0,0,0,7.79-2.72c4-5.08,3.38-13.28-1.55-18.6-6-6.48-13.89-8.3-22.29-8.3-13,0-24.38,4.84-34.82,12.22Z"/><path class="cls-2" d="M288.57,451.79c-5.71-.94-7.25-3.11-6.53-8.92.6-4.85,1.49-5.66,6.42-5.67q10,0,20,0c3.17,0,4.68,2.23,4.74,6.84.06,5.29-1.18,7.3-4.6,7.45l-3.44.16c1.75,3.6,3.13,6.91,4.89,10a19.47,19.47,0,0,0,13.23,9.87c7.13,1.55,14.8-4.5,14.86-11.52,0-5-5.13-9.72-10.53-6.55-2.25-2-2.71-4.1-1.57-7.14,2.2-5.87,9.2-8.9,15.71-6.78,12.72,4.14,21.42,21.58,9.17,35.94-5,5.83-11.48,9.54-19.15,9.86-10.84.45-20.37-2.65-26.4-12.65a1.26,1.26,0,0,0-1.14-.55c.71,1.7,1.41,3.41,2.15,5.1,5,11.38,1.81,21.42-7.05,29.22-1.53,1.35-2.67,1.14-4.11-.18-9.83-9-11.84-19.84-5.81-31.8a5.85,5.85,0,0,0,.76-2.92,9.45,9.45,0,0,0-1.21,1.33c-5,8.35-12.88,11.75-22,12.38-11.53.8-20.41-4.17-26.06-14.14-7.24-12.75.43-29.32,14.55-32.14a11.71,11.71,0,0,1,13.91,9.64,7.53,7.53,0,0,1-.94,3.72c-.85,1.94-2.12.64-3.32.29-4-1.15-7.94,2.06-8.36,6.68-.65,7.2,7.29,13.81,14.9,12.3,6.62-1.31,11.57-4.75,13.89-11.39C286.48,457.44,287.53,454.64,288.57,451.79Z"/><path class="cls-2" d="M303,409.26c1-2.6,1.91-5.26,3.07-7.79,2.9-6.29,7-11.44,13.47-14.51,10.68-5.06,22,3,23.63,13,1.34,8.21-1.76,15.12-8.52,19.17a4.77,4.77,0,0,1-1.91.9c-1.52.11-3.06,0-4.59,0a18.68,18.68,0,0,1,.67-4c1.69-4.25-.55-7.72-5.16-7.8-4.18-.08-7,2.3-9.37,5.3-3.1,3.88-4.86,8.42-6.23,13.14-1.43,4.89-1.48,4.89-6.61,5-3.83.05-7.65,0-11.47.12-1.79.07-2.44-.59-2.83-2.28a42.06,42.06,0,0,0-7.28-16.15c-2.09-2.77-4.63-5-8.35-5.07-4.55-.13-7,3.64-5.13,7.76.22.48.53.93.73,1.42.87,2.25.23,3.31-2.16,3.09-6-.57-9.54-4.4-11.83-9.52A18.2,18.2,0,0,1,266,385.73c6.74-1.34,12.05,2,16.64,6.53,4.25,4.23,6.63,9.59,8.82,15.05.26.65.51,1.31.81,1.94,0,.11.3.13,1,.38-1-3.24-1.66-6.22-2.74-9.06-1.67-4.38-3.43-8.76-5.48-13-5-10.22-4.17-20.24,1.28-29.84,2.64-4.67,6.25-8.79,9.46-13.13,1.26-1.71,2.54-1.59,3.86,0,4.84,5.94,9.27,12.08,11.85,19.44a28.3,28.3,0,0,1-1.24,22.49C306.76,393.78,303.75,401.13,303,409.26Z"/></svg>