<svg id="Layer_2" data-name="Layer 2" xmlns="http://www.w3.org/2000/svg" viewBox="0 0 566.93 566.93"><defs><style>.cls-1{fill:#094e92;}.cls-2{fill:#c19560;}</style></defs><path class="cls-1" d="M124.91,270.74c.17-.07,11-15,18.89-17.33a3.24,3.24,0,0,0,2.27-2c2.1-4.61,4-9.36,7.66-13a19.06,19.06,0,0,1,16.53-5.51c3.33.4,6.61,1.14,9.91,1.76,5.24,1,10.23-.16,15.1-1.91a172.78,172.78,0,0,0,30-13.7,15.59,15.59,0,0,0,6.41-6.84c4.7-10.05,16.56-11.7,25-4.05a26.55,26.55,0,0,1,7,10.54c2,5.2.84,8.12-3.55,12.06-1.05.94-1.44,1.59-1,2.93,1.16,3.51.73,7-.26,10.49a6.53,6.53,0,0,1-1.33,2.27c-.9,1.06-1.74.91-2.23-.44-.3-.83-.51-1.7-.83-2.53a30.82,30.82,0,0,0-1.61-3.84c-1.95-3.57-3.57-3.87-6.91-1.41.64,6,.77,11.91-4.19,16.3l-.84-.07a29.1,29.1,0,0,0-.95-4.32,31.76,31.76,0,0,0-2.6-5.18,1.46,1.46,0,0,0-2.42-.28c-1.51,1.25-3.17,2.34-4.64,3.62a2.27,2.27,0,0,0-.46,1.76c.48,4.22.44,8.37-1.38,12.32-.51,1.09-1,2.26-2.28,2-1.53-3.32-3-6.45-4.54-9.85-2.3,1.85-4.3,3.37-6.18,5-.35.31-.32,1.16-.31,1.75.1,3.81.5,7.65-1.2,11.24a22.85,22.85,0,0,1-2.13,3.11l-.62-.18c-1.13-3-2.27-5.94-3.59-9.37-2.46,1.83-4.63,3.41-6.76,5-4.62,3.56-9.15,7.25-14.6,9.56-4.75,2-9.68,1.87-14.62,1.35-10.87-1.15-19.43,2.7-25.67,11.9,1.38-.5,2.8-.92,4.14-1.5a48.06,48.06,0,0,1,15.7-4.18,22.14,22.14,0,0,1,16.55,5.25c4,3.42,8,6.89,12.85,9.1A23.48,23.48,0,0,0,205.46,305c-8.83-4.65-15.83-11.32-22-19.14,5.14-1.24,9.53.3,13.72,3a86,86,0,0,0,8.49,5c2.4,1.17,2.73.92,3.77-1.6a48.92,48.92,0,0,0,1.62-5.24c.23-.76.39-1.55.67-2.7,4.72,3.37,4.84,8.17,5.31,13,2.07.27,4.18.62,6.3.78.39,0,1-.65,1.22-1.12.89-2.5,1.77-5,2.42-7.58.34-1.31,1.09-1.55,1.83-.85a12.72,12.72,0,0,1,3,3.94,38.44,38.44,0,0,1,1.56,6.26c1.85,0,3.81.08,5.75-.06.47,0,1.13-.73,1.29-1.25.9-3,1.68-6,2.56-9.17,5.1,1.71,4.91,6.66,6.43,10.57a3.19,3.19,0,0,0,3.49-2.05c1-2.1,1.57-4.37,2.36-6.55.24-.67.6-1.3.9-1.94.68.4,1.58.65,2,1.24,1.8,2.44,1.7,5.36,1.85,8.2a1.91,1.91,0,0,0,.68,1.41c4.85,2,5,6.19,3.12,10.21-2.52,5.46-7.3,8.37-12.89,9.81a40.71,40.71,0,0,1-9.2,1.2c-7.05.17-14.12-.19-21.16.11-7.33.31-14.26,2.19-20.2,6.83-7.79,6.08-8.78,12-4.08,20.84a29.66,29.66,0,0,0,5,6.4c2.3,2.37,4.92,4.41,7.37,6.63s4.84,4.45,7.05,6.5c-.85-3.94-1.86-8.08-2.62-12.26-1.75-9.65,5.07-19.32,14.54-20.77A18,18,0,0,1,247.94,350c.72,5.32-2.45,10.62-7.16,11.8a8.22,8.22,0,0,1-3.56.07,2.78,2.78,0,0,1-1.59-1.66c-.14-.4.43-1.31.92-1.64,3.81-2.52,3.69-7.16-.29-9.47a6.89,6.89,0,0,0-10,3.36c-1.87,4.23-1.72,8.66-1,13.09,1.27,7.63,2.88,15.21,3.83,22.87,1,8-.36,15.81-3,23.39q-3.21,9.26-6.48,18.48c-.52,1.47-1.25,2.9-3.13,2.83a3.26,3.26,0,0,1-3.19-3,51.14,51.14,0,0,1-.51-8.29c.2-6.78.75-13.54-1.48-20.18a25.08,25.08,0,0,0-13.59-15.12c-6.85-3.29-14.18-5-21.55-6.61-8.48-1.87-13.81-8.32-21.41-12.75-5.8-3.38-12.71-11.56-19.11-20.56C129.54,338.92,95.06,308.33,124.91,270.74Zm39.87-19.49c1.85-2.68,4.49-3.43,7.54-2.7,2.76.66,7.43-2.48,4.55-3.42-2.39-.77-4.79-1.9-7.23-2.06-6.15-.41-9.69,3.39-12,8.56C155.72,256,163.1,253.7,164.78,251.25Zm87.66-34.68a7.93,7.93,0,0,0-.65-1.31,9.44,9.44,0,0,0-9-2.69,6.41,6.41,0,0,0-4.57,4.4,3.22,3.22,0,0,0,.51,2.71c.41.39,1.77-.06,2.63-.37,2-.73,3.85-1.79,5.87-2.34A28.37,28.37,0,0,1,252.44,216.57Z"/><path class="cls-1" d="M431.27,346.57c-6.4,9-13.31,17.18-19.11,20.56-7.6,4.43-12.93,10.88-21.41,12.75-7.37,1.63-14.7,3.32-21.55,6.61a25.08,25.08,0,0,0-13.59,15.12c-2.23,6.64-1.68,13.4-1.48,20.18a50,50,0,0,1-.52,8.29,3.25,3.25,0,0,1-3.18,3c-1.88.07-2.61-1.36-3.13-2.83q-3.29-9.22-6.48-18.48c-2.64-7.58-4-15.41-3-23.39.95-7.66,2.55-15.24,3.83-22.87.74-4.43.89-8.86-1-13.09a6.89,6.89,0,0,0-10-3.36c-4,2.31-4.1,7-.29,9.47.49.33,1.06,1.24.92,1.64a2.78,2.78,0,0,1-1.59,1.66,8.22,8.22,0,0,1-3.56-.07c-4.71-1.18-7.88-6.48-7.16-11.8a18,18,0,0,1,20.21-15.35c9.47,1.45,16.29,11.12,14.53,20.77-.75,4.18-1.76,8.32-2.61,12.26,2.21-2.05,4.61-4.3,7.05-6.5s5.07-4.26,7.37-6.63a29.66,29.66,0,0,0,5-6.4c4.7-8.85,3.71-14.76-4.08-20.84-5.94-4.64-12.87-6.52-20.2-6.83-7-.3-14.11.06-21.16-.11a40.71,40.71,0,0,1-9.2-1.2c-5.6-1.44-10.37-4.35-12.89-9.81-1.85-4-1.73-8.17,3.11-10.21a1.88,1.88,0,0,0,.69-1.41c.15-2.84.05-5.76,1.85-8.2.44-.59,1.33-.84,2-1.24.3.64.65,1.27.9,1.94.79,2.18,1.38,4.45,2.36,6.55a3.19,3.19,0,0,0,3.49,2.05c1.52-3.91,1.33-8.86,6.43-10.57.88,3.21,1.66,6.21,2.56,9.17a2,2,0,0,0,1.29,1.25c1.94.14,3.9.06,5.75.06a38.44,38.44,0,0,1,1.56-6.26,12.72,12.72,0,0,1,3-3.94c.74-.7,1.49-.46,1.82.85.66,2.56,1.54,5.08,2.43,7.58.17.47.83,1.15,1.22,1.12,2.12-.16,4.23-.51,6.3-.78.47-4.87.59-9.67,5.31-13,.28,1.15.44,1.94.67,2.7a48.92,48.92,0,0,0,1.62,5.24c1,2.52,1.37,2.77,3.77,1.6a86,86,0,0,0,8.49-5c4.19-2.68,8.58-4.22,13.71-3-6.13,7.82-13.13,14.49-22,19.14a23.41,23.41,0,0,0,10.18-2.37c4.86-2.21,8.84-5.68,12.85-9.1a22.16,22.16,0,0,1,16.56-5.25,47.93,47.93,0,0,1,15.69,4.18c1.35.58,2.77,1,4.15,1.5-6.24-9.2-14.8-13.05-25.67-11.9-4.94.52-9.87.67-14.62-1.35-5.45-2.31-10-6-14.61-9.56-2.12-1.63-4.29-3.21-6.75-5-1.32,3.43-2.46,6.4-3.59,9.37l-.62.18a22.85,22.85,0,0,1-2.13-3.11c-1.7-3.59-1.3-7.43-1.2-11.24,0-.59,0-1.44-.31-1.75-1.88-1.66-3.88-3.18-6.18-5l-4.54,9.85c-1.28.25-1.77-.92-2.28-2-1.82-3.95-1.86-8.1-1.38-12.32a2.27,2.27,0,0,0-.46-1.76c-1.48-1.28-3.13-2.37-4.64-3.62a1.47,1.47,0,0,0-2.43.28,32.53,32.53,0,0,0-2.59,5.18,29.1,29.1,0,0,0-.95,4.32l-.84.07c-5-4.39-4.83-10.27-4.19-16.3-3.34-2.46-5-2.16-6.91,1.41a29.38,29.38,0,0,0-1.61,3.84c-.32.83-.53,1.7-.83,2.53-.49,1.35-1.33,1.5-2.23.44a6.53,6.53,0,0,1-1.33-2.27c-1-3.46-1.42-7-.26-10.49.45-1.34.06-2-1-2.93-4.39-3.94-5.53-6.86-3.55-12.06a26.55,26.55,0,0,1,7-10.54c8.49-7.65,20.35-6,25,4.05a15.59,15.59,0,0,0,6.41,6.84,172.78,172.78,0,0,0,30,13.7c4.87,1.75,9.86,2.89,15.1,1.91,3.3-.62,6.58-1.36,9.91-1.76a19.08,19.08,0,0,1,16.53,5.51c3.68,3.68,5.56,8.43,7.66,13a3.23,3.23,0,0,0,2.26,2c7.93,2.35,18.73,17.26,18.89,17.33C471.87,308.33,437.39,338.92,431.27,346.57Zm-22-94.94c-2.28-5.17-5.82-9-12-8.56-2.45.16-4.84,1.29-7.23,2.06-2.88.94,1.79,4.08,4.55,3.42,3.05-.73,5.69,0,7.54,2.7C403.83,253.7,411.21,256,409.26,251.63ZM319.7,217c2,.55,3.89,1.61,5.87,2.34.85.31,2.22.76,2.63.37a3.22,3.22,0,0,0,.51-2.71,6.41,6.41,0,0,0-4.57-4.4,9.44,9.44,0,0,0-9,2.69,7.93,7.93,0,0,0-.65,1.31A28.37,28.37,0,0,1,319.7,217Z"/><path class="cls-2" d="M278.3,375.81c-4.44-.72-5.63-2.41-5.07-6.92.47-3.76,1.16-4.39,5-4.4q7.75,0,15.53,0c2.46,0,3.64,1.73,3.68,5.32.05,4.1-.92,5.67-3.57,5.78l-2.67.12c1.35,2.8,2.43,5.37,3.8,7.78a15.1,15.1,0,0,0,10.27,7.66c5.54,1.2,11.49-3.49,11.53-8.95,0-3.85-4-7.54-8.17-5.09-1.75-1.54-2.11-3.17-1.22-5.53,1.71-4.56,7.15-6.91,12.2-5.27,9.88,3.21,16.63,16.76,7.12,27.9a20.46,20.46,0,0,1-14.87,7.66c-8.42.35-15.81-2.06-20.5-9.82a1,1,0,0,0-.88-.43c.55,1.32,1.09,2.65,1.66,4,3.86,8.83,1.41,16.63-5.47,22.69-1.18,1-2.07.89-3.19-.14-7.63-7-9.19-15.4-4.51-24.69a4.54,4.54,0,0,0,.59-2.27,7.68,7.68,0,0,0-.94,1c-3.87,6.48-10,9.12-17.11,9.61-8.95.62-15.85-3.24-20.24-11-5.62-9.9.33-22.77,11.3-25a9.1,9.1,0,0,1,10.8,7.49,5.79,5.79,0,0,1-.73,2.88c-.66,1.51-1.65.5-2.57.23-3.08-.89-6.17,1.6-6.49,5.19-.51,5.59,5.65,10.72,11.56,9.55,5.14-1,9-3.69,10.78-8.84C276.68,380.2,277.49,378,278.3,375.81Z"/><path class="cls-2" d="M289.56,186.05c.8-2.06,1.51-4.17,2.43-6.18,2.3-5,5.54-9.07,10.68-11.5,8.47-4,17.43,2.34,18.73,10.31,1.07,6.52-1.39,12-6.75,15.21a3.86,3.86,0,0,1-1.51.71c-1.21.09-2.43,0-3.64,0a14.38,14.38,0,0,1,.53-3.18c1.34-3.37-.44-6.12-4.1-6.18-3.31-.06-5.53,1.83-7.42,4.2a29.46,29.46,0,0,0-4.95,10.42c-1.12,3.88-1.16,3.88-5.24,3.93-3,0-6.06,0-9.09.1-1.42,0-1.93-.47-2.24-1.81a33.16,33.16,0,0,0-5.78-12.8c-1.65-2.2-3.66-3.94-6.62-4-3.6-.1-5.56,2.89-4.06,6.16.17.38.42.73.57,1.13.7,1.78.19,2.62-1.71,2.44-4.74-.45-7.56-3.49-9.37-7.54a14.44,14.44,0,0,1,10.2-20c5.34-1.06,9.56,1.57,13.19,5.18,3.37,3.35,5.26,7.61,7,11.93.2.52.4,1,.64,1.55,0,.08.24.09.8.3-.77-2.57-1.31-4.94-2.17-7.18-1.33-3.48-2.72-6.95-4.35-10.3-3.93-8.11-3.31-16.05,1-23.66,2.1-3.7,5-7,7.5-10.41,1-1.36,2-1.26,3.07,0,3.84,4.71,7.35,9.58,9.4,15.42a22.48,22.48,0,0,1-1,17.83C292.58,173.78,290.19,179.6,289.56,186.05Z"/></svg>