<svg width="80" height="79" viewBox="0 0 80 79" fill="none" xmlns="http://www.w3.org/2000/svg">
<path d="M68.4266 74.08C66.6281 71.4568 65.7423 68.5611 66.0638 65.3773C66.446 61.5967 67.9635 58.2012 69.9801 55.0578C71.9966 51.9145 74.7933 49.53 77.934 47.544C78.5769 47.1364 78.5724 47.0666 77.898 46.6906C76.1107 45.6909 74.2133 45.6323 72.2552 46.0016C69.092 46.6006 66.7068 48.2533 65.3264 51.1962C64.2332 53.5897 63.5937 56.1658 63.4402 58.7934C63.3458 60.1669 63.4245 61.5517 63.4245 62.9319L63.1862 62.9545C63.1255 62.7811 63.0535 62.61 63.0086 62.4321C62.3562 59.7946 62.0657 57.0804 62.1453 54.3643C62.1992 51.7772 62.3341 49.1855 62.5275 46.6096C62.6646 44.7587 62.9344 42.9168 63.2019 41.0794C63.3143 40.2711 63.2019 40.0977 62.3971 40.2824C60.6503 40.6831 59.5352 41.8585 58.8158 43.4099C57.5006 46.2335 57.6243 49.217 57.984 52.214C58.0009 52.5012 58.0009 52.7892 57.984 53.0764C57.5602 52.5366 57.1691 51.9719 56.8127 51.3854C54.994 48.7374 52.7661 46.6343 49.4568 46.0601C47.6898 45.7539 45.934 45.6526 44.2861 46.5465C43.6499 46.891 43.6566 46.9496 44.1827 47.4314C47.1187 50.1132 50.0121 52.8354 52.9931 55.4721C55.6827 57.7949 57.9554 60.5616 59.7128 63.6525C59.8882 63.9655 60.0186 64.3032 60.1624 64.632L59.9983 64.713C59.9466 64.6816 59.8997 64.643 59.8589 64.5982C58.0767 62.0904 55.564 60.1958 52.6649 59.1739C48.7576 57.7508 45.0212 57.8814 41.5883 60.5249C41.5044 60.5892 41.4364 60.6721 41.3897 60.7669C41.3429 60.8618 41.3185 60.9662 41.3185 61.0721C41.3579 61.1767 41.4198 61.2713 41.4998 61.3491C41.5799 61.4269 41.6761 61.4861 41.7817 61.5224C44.8077 62.3353 47.7909 63.2517 50.6303 64.6117C55.882 67.1246 60.7987 70.1148 64.8183 74.411C64.9712 74.5956 69.6923 77.2323 70.8164 77.6354C70.8164 77.6354 68.9324 74.823 68.4266 74.08Z" fill="#BE986A"/>
<path d="M29.9789 35.2296C31.7774 32.6042 32.6609 29.7108 32.3394 26.5247C31.9595 22.7419 30.442 19.3486 28.4254 16.212C26.4089 13.0754 23.6054 10.6796 20.4715 8.69141C19.8286 8.28385 19.8331 8.2163 20.5075 7.83802C22.306 6.83828 24.1922 6.77974 26.1503 7.15126C29.3134 7.74796 31.6987 9.40294 33.0768 12.3459C34.171 14.7382 34.8107 17.3138 34.963 19.9408C35.0597 21.3143 34.981 22.7013 34.981 24.0793L35.2193 24.1019C35.28 23.9285 35.3519 23.7596 35.3969 23.5817C36.0493 20.9443 36.3398 18.23 36.2602 15.514C36.2062 12.9268 36.0714 10.3351 35.878 7.75696C35.7409 5.90834 35.4711 4.06647 35.2036 2.2291C35.0889 1.42075 35.2036 1.24737 36.0084 1.43201C37.7552 1.83281 38.8703 3.00818 39.5897 4.55958C40.9049 7.38318 40.779 10.3667 40.4215 13.3636C40.4046 13.6508 40.4046 13.9388 40.4215 14.226C40.8427 13.6849 41.233 13.1203 41.5905 12.535C43.407 9.88479 45.6372 7.78398 48.9464 7.20981C50.7112 6.90358 52.4693 6.80225 54.1172 7.69391C54.7556 8.03842 54.7489 8.09696 54.2206 8.57882C51.2867 11.2606 48.3912 13.9828 45.4101 16.6218C42.7219 18.9444 40.4501 21.7103 38.6927 24.7999C38.5173 25.1151 38.3869 25.4529 38.2431 25.7794L38.4049 25.8627C38.4561 25.8306 38.503 25.792 38.5443 25.7478C40.3263 23.2398 42.8391 21.3452 45.7383 20.3236C49.6479 18.8982 53.382 19.0288 56.8172 21.6746C56.9006 21.7398 56.9682 21.8231 57.015 21.9183C57.0617 22.0134 57.0863 22.1179 57.0869 22.224C57.0471 22.3286 56.9848 22.4232 56.9044 22.5011C56.8239 22.5789 56.7274 22.638 56.6216 22.6743C53.5978 23.4872 50.6146 24.4036 47.7752 25.7614C42.5235 28.2765 37.6068 31.2644 33.5849 35.5629C33.4163 35.7453 28.7087 38.382 27.5711 38.785C27.5869 38.7828 29.4731 35.9704 29.9789 35.2296Z" fill="#BE986A"/>
</svg>
