<svg width="85" height="114" viewBox="0 0 85 114" fill="none" xmlns="http://www.w3.org/2000/svg">
<path d="M48.5808 59.6602C48.4075 58.7832 47.9509 57.9881 47.2816 57.3979C47.2063 57.3271 47.1498 57.1759 46.9874 57.2775C46.622 57.4607 46.2445 57.6185 45.8576 57.7498C45.6222 57.7734 45.3868 57.823 45.1373 57.823C43.3885 57.823 41.6397 57.823 39.8932 57.823C39.3189 57.7025 38.7305 57.6293 38.2009 57.3507C38.0691 57.2822 38.0291 57.3955 37.9655 57.4498C37.2703 58.0085 36.7922 58.794 36.6145 59.6696C36.4862 60.3262 36.4862 61.0014 36.6145 61.658C37.1888 63.7621 38.4269 65.1837 40.6417 65.5993C41.9551 65.6489 43.2708 65.6465 44.5842 65.5993C44.911 65.5764 45.2305 65.4914 45.5257 65.349C47.0721 64.5626 48.1407 63.3771 48.562 61.658C48.7172 61.0019 48.7236 60.3191 48.5808 59.6602Z" fill="#BE986A"/>
<path d="M10.8272 80.349C12.7807 82.616 15.2522 83.3906 18.1543 82.8758C18.8604 82.7506 19.5665 82.5522 20.3362 82.3728C19.9466 83.3453 19.6464 84.3515 19.4394 85.3789C18.7851 88.9825 20.3009 92.5625 23.2666 94.2817C24.7941 95.1672 26.4276 95.6324 28.2094 95.2026C28.4189 95.1507 28.6943 95.094 28.7578 94.9145C28.8425 94.6666 28.5224 94.6076 28.3742 94.4871C26.63 93.1127 25.4273 91.4314 25.4344 89.103C25.4344 87.0083 26.2652 85.1806 27.3573 83.452C28.8237 81.133 30.4172 78.8943 31.5682 76.3841C33.3593 72.4829 34.0466 68.4637 33.0157 64.232C32.9192 63.9557 32.9357 63.6463 32.7803 63.3889C32.8027 63.3391 32.8098 63.2837 32.8006 63.2298C32.7913 63.176 32.7662 63.1261 32.7285 63.0866C32.6109 62.756 32.592 62.3924 32.3967 62.0854C32.4142 62.0429 32.4197 61.9965 32.4127 61.951C32.4056 61.9056 32.3862 61.8631 32.3567 61.828C31.8622 60.4361 31.2422 59.0923 30.5043 57.8135C30.1418 57.2987 29.8664 56.6918 29.0756 56.4792C29.2403 57.5561 29.391 58.555 29.5463 59.5492L29.5887 60.3993C29.8452 65.1553 28.8826 69.5453 25.7403 73.2811C24.7217 74.4592 23.5538 75.4984 22.2662 76.3723C21.4193 76.8456 20.5344 77.2469 19.6207 77.5719C19.5253 77.5663 19.4296 77.5726 19.3359 77.5908C18.0985 77.9583 16.8049 78.0968 15.5181 77.9993C13.3268 77.8506 11.4038 77.0099 9.67618 75.678C9.57733 75.6024 9.48318 75.4419 9.3396 75.4962C9.19602 75.5505 9.21721 75.7559 9.2125 75.9C9.19174 76.5749 9.28729 77.2484 9.49495 77.8907C9.79678 78.78 10.2473 79.6113 10.8272 80.349Z" fill="#BE986A"/>
<path d="M74.3565 33.2967C72.4029 31.0297 69.9315 30.2552 67.0293 30.77C66.3232 30.8975 65.6171 31.0935 64.8474 31.2753C65.237 30.302 65.5372 29.295 65.7442 28.2668C66.3985 24.6632 64.8827 21.0856 61.917 19.3641C60.3895 18.4785 58.756 18.0133 56.9742 18.4431C56.7647 18.495 56.4894 18.5517 56.4258 18.7312C56.3411 18.9673 56.6612 19.0382 56.8095 19.1586C58.5559 20.5354 59.7563 22.2285 59.7516 24.5428C59.7516 26.6374 58.9184 28.4652 57.8263 30.1938C56.3599 32.5127 54.7664 34.7514 53.6155 37.264C51.8243 41.1628 51.137 45.182 52.1679 49.4138C52.2644 49.6901 52.2479 50.0018 52.4151 50.2568C52.3926 50.3066 52.3856 50.362 52.3948 50.4159C52.4041 50.4698 52.4291 50.5196 52.4668 50.5591C52.5845 50.8897 52.6034 51.2557 52.7987 51.5604C52.7812 51.6028 52.7757 51.6493 52.7827 51.6947C52.7898 51.7401 52.8092 51.7827 52.8387 51.8178C53.3325 53.2137 53.9526 54.5614 54.6911 55.8441C55.0536 56.3589 55.329 56.9658 56.1198 57.1807C55.9574 56.1015 55.8044 55.1026 55.6491 54.1107C55.6326 53.8274 55.6185 53.544 55.6044 53.2606C55.3502 48.5046 56.3105 44.1146 59.4527 40.3788C60.4713 39.2007 61.6393 38.1615 62.9268 37.2876C63.7737 36.8143 64.6586 36.413 65.5724 36.088C65.6677 36.0936 65.7634 36.0873 65.8572 36.0691C67.0928 35.7013 68.3849 35.5621 69.6702 35.6582C71.8615 35.8046 73.7845 36.6453 75.5121 37.9772C75.611 38.0527 75.7051 38.2133 75.8487 38.159C75.9923 38.1047 75.9711 37.8992 75.9758 37.7552C75.9966 37.0803 75.901 36.4068 75.6934 35.7645C75.3911 34.8715 74.9389 34.0369 74.3565 33.2967Z" fill="#BE986A"/>
<path d="M48.8751 52.1696C48.8147 51.5816 48.63 51.0133 48.3333 50.5027C48.0366 49.992 47.6347 49.5508 47.1545 49.2083C46.8179 48.9532 46.3872 48.9367 46.0553 48.6888C45.8663 48.6099 45.6645 48.5667 45.4599 48.5612C45.444 48.5385 45.4211 48.5216 45.3948 48.5131C45.3684 48.5045 45.3401 48.5049 45.3139 48.514C44.6078 48.514 43.9017 48.4904 43.1956 48.4951C42.0446 48.4951 40.8936 48.4573 39.7427 48.5235C39.5897 48.5542 39.432 48.5731 39.2719 48.6132C36.9511 49.2366 35.6095 52.0515 36.5981 54.2807C36.8615 54.9216 37.2925 55.4793 37.8455 55.895C38.3986 56.3106 39.0532 56.5687 39.7403 56.6422H45.4928C47.1192 56.3612 48.1737 55.4142 48.7033 53.8604C48.8674 53.3129 48.9257 52.739 48.8751 52.1696Z" fill="#BE986A"/>
<path d="M46.1047 75.3168L45.5304 75.4726L44.5442 75.671L43.9863 75.6922C43.7909 75.666 43.5922 75.6805 43.4026 75.7348C43.2449 75.8575 43.3296 76.0299 43.3296 76.174C43.2849 84.6115 43.4144 93.0514 43.2473 101.489C43.1904 101.585 43.1703 101.698 43.1908 101.808C43.146 102.129 43.0943 102.45 43.0566 102.774C42.9836 103.411 42.7577 104.016 42.6588 104.649C42.6023 104.608 42.5953 104.885 42.5317 104.679C42.4211 104.332 42.3387 103.971 42.2469 103.624C42.1622 103.097 42.0798 102.571 41.9951 102.044C42.0047 102.012 42.0055 101.978 41.9971 101.946C41.9888 101.914 41.9718 101.885 41.948 101.862C41.948 101.501 41.9315 101.137 41.9221 100.773C41.9437 100.529 41.9286 100.282 41.8774 100.041C41.8774 99.6753 41.8774 99.3093 41.8774 98.9433C41.8774 91.3645 41.8735 83.7874 41.8656 76.2118C41.8656 76.0536 41.9433 75.8717 41.7997 75.7277C41.6359 75.6657 41.4577 75.6526 41.2866 75.6899L40.4416 75.6686C40.4058 75.6424 40.3647 75.6243 40.3213 75.6153C40.2779 75.6063 40.233 75.6068 40.1898 75.6167L39.5425 75.5293C39.5232 75.5032 39.4964 75.4835 39.4657 75.473C39.4351 75.4624 39.4019 75.4615 39.3707 75.4703C39.1612 75.364 39.1094 75.4136 39.1118 75.6592C39.1118 83.1529 39.1118 90.6459 39.1118 98.138C39.0913 99.5751 39.2614 101.008 39.6178 102.4C39.6696 102.599 39.719 102.8 39.7755 102.996C40.2886 104.745 40.9994 106.424 41.6044 108.141C41.9503 109.121 42.607 111.11 42.607 111.11C43.026 109.615 43.1766 109.412 43.5085 108.436C43.9039 107.27 44.3488 106.122 44.7725 104.967C45.0471 104.227 45.279 103.47 45.4668 102.703C45.6976 102.006 45.86 101.289 45.9517 100.561C46.0482 99.7141 46.1 98.8628 46.107 98.0105C46.107 91.3685 46.107 84.7257 46.107 78.0821L46.1047 75.3168ZM45.5304 75.4726C45.5805 75.4691 45.6309 75.4691 45.681 75.4726H45.5304Z" fill="#BE986A"/>
<path d="M46.1048 35.9156C46.1048 29.272 46.1048 22.6292 46.1048 15.9871C46.0977 15.1356 46.0459 14.2851 45.9494 13.4391C45.8578 12.711 45.6954 11.9936 45.4646 11.2973C45.2771 10.5295 45.0452 9.77335 44.7702 9.03261C44.3465 7.87549 43.9017 6.72781 43.5063 5.56125C43.1744 4.58596 43.0237 4.38051 42.6048 2.88806C42.6048 2.88806 41.9481 4.87642 41.6021 5.85879C40.9972 7.57322 40.2864 9.25459 39.7733 11.0021C39.7168 11.2004 39.6673 11.3988 39.6156 11.5972C39.2604 12.9854 39.0902 14.4147 39.1095 15.8478C39.1095 23.3431 39.1095 30.8369 39.1095 38.329C39.1095 38.5652 39.1589 38.6242 39.3684 38.5156C39.3994 38.5246 39.4324 38.524 39.4631 38.5139C39.4937 38.5038 39.5206 38.4846 39.5402 38.4589L40.1875 38.3715C40.2308 38.3814 40.2756 38.3819 40.319 38.3729C40.3625 38.3639 40.4035 38.3458 40.4394 38.3196L41.2843 38.296C41.4554 38.3332 41.6336 38.3201 41.7975 38.2582C41.941 38.1141 41.8634 37.9347 41.8634 37.7741C41.8634 30.1985 41.8673 22.6221 41.8751 15.0449C41.8751 14.6765 41.8751 14.3105 41.8751 13.9445C41.9264 13.7041 41.9415 13.4573 41.9199 13.2124C41.9199 12.8511 41.9387 12.4874 41.9457 12.1238C41.9694 12.1012 41.9863 12.0724 41.9946 12.0407C42.0029 12.009 42.0023 11.9757 41.9928 11.9443C42.0776 11.4177 42.1599 10.8911 42.2447 10.3645C42.3365 10.0103 42.4188 9.65604 42.5295 9.30654C42.593 9.11054 42.6001 9.37738 42.6566 9.3396C42.7554 9.97011 42.9814 10.577 43.0543 11.2146C43.092 11.5358 43.1438 11.8569 43.1885 12.1781C43.1676 12.2877 43.1877 12.4012 43.245 12.4969C43.4121 20.9368 43.2827 29.3743 43.3274 37.8119C43.3274 37.9583 43.2426 38.1283 43.4003 38.2534C43.5899 38.3081 43.7889 38.3218 43.9841 38.2936L44.5419 38.3172L45.5281 38.5132L46.1024 38.6691L46.1048 35.9156ZM45.6811 38.5132C45.631 38.5179 45.5806 38.5179 45.5305 38.5132H45.6811Z" fill="#BE986A"/>
</svg>
