<svg id="Layer_1" data-name="Layer 1" xmlns="http://www.w3.org/2000/svg" viewBox="0 0 361.13 482.75"><defs><style>.cls-1{fill:#9ac552;}</style></defs><path class="cls-1" d="M206.4,252.64h0a17.21,17.21,0,0,0-5.52-9.58c-.32-.3-.56-.94-1.25-.51a37.91,37.91,0,0,1-4.8,2c-1,.1-2,.31-3.06.31-7.43,0-14.86,0-22.28,0h0c-2.44-.51-4.94-.82-7.19-2-.56-.29-.73.19-1,.42a16.18,16.18,0,0,0-5.74,9.4,21.89,21.89,0,0,0,0,8.42h0c2.44,8.91,7.7,14.93,17.11,16.69,5.58.21,11.17.2,16.75,0h0a11,11,0,0,0,4-1.06c6.57-3.33,11.11-8.35,12.9-15.63A19.08,19.08,0,0,0,206.4,252.64Z"/><path class="cls-1" d="M46,340.25h0c8.3,9.6,18.8,12.88,31.13,10.7,3-.53,6-1.37,9.27-2.13a72.83,72.83,0,0,0-3.81,12.73c-2.78,15.26,3.66,30.42,16.26,37.7,6.49,3.75,13.43,5.72,21,3.9.89-.22,2.06-.46,2.33-1.22.36-1.05-1-1.3-1.63-1.81-7.41-5.82-12.52-12.94-12.49-22.8,0-8.87,3.53-16.61,8.17-23.93,6.23-9.82,13-19.3,17.89-29.93,7.61-16.52,10.53-33.54,6.15-51.46-.41-1.17-.34-2.48-1-3.57a1.16,1.16,0,0,0-.22-1.28c-.5-1.4-.58-2.94-1.41-4.24h0a1.06,1.06,0,0,0-.17-1.09,102.84,102.84,0,0,0-7.87-17h0c-1.54-2.18-2.71-4.75-6.07-5.65.7,4.56,1.34,8.79,2,13h0l.18,3.6c1.09,20.14-3,38.73-16.35,54.55a75.68,75.68,0,0,1-14.76,13.09,73.69,73.69,0,0,1-11.24,5.08,4.87,4.87,0,0,0-1.21.08,45.16,45.16,0,0,1-16.22,1.73c-9.31-.63-17.48-4.19-24.82-9.83-.42-.32-.82-1-1.43-.77s-.52,1.1-.54,1.71a24.84,24.84,0,0,0,1.2,8.43A35.06,35.06,0,0,0,46,340.25Z"/><path class="cls-1" d="M315.91,141h0c-8.3-9.6-18.8-12.88-31.13-10.7-3,.54-6,1.37-9.27,2.14a72.93,72.93,0,0,0,3.81-12.74c2.78-15.26-3.66-30.41-16.26-37.7-6.49-3.75-13.43-5.72-21-3.9-.89.22-2.06.46-2.33,1.22-.36,1,1,1.3,1.63,1.81,7.42,5.83,12.52,13,12.5,22.8,0,8.87-3.54,16.61-8.18,23.93-6.23,9.82-13,19.3-17.89,29.94-7.61,16.51-10.53,33.53-6.15,51.45.41,1.17.34,2.49,1.05,3.57a1.16,1.16,0,0,0,.22,1.28c.5,1.4.58,2.95,1.41,4.24h0a1.06,1.06,0,0,0,.17,1.09,102.84,102.84,0,0,0,7.87,17.05h0c1.54,2.18,2.71,4.75,6.07,5.66-.69-4.57-1.34-8.8-2-13h0c-.07-1.2-.13-2.4-.19-3.6-1.08-20.14,3-38.73,16.35-54.55a75.68,75.68,0,0,1,14.76-13.09,73.69,73.69,0,0,1,11.24-5.08,4.87,4.87,0,0,0,1.21-.08A45.16,45.16,0,0,1,296,151c9.31.62,17.48,4.18,24.82,9.82.42.32.82,1,1.43.77s.52-1.1.54-1.71a24.84,24.84,0,0,0-1.2-8.43A35.06,35.06,0,0,0,315.91,141Z"/><path class="cls-1" d="M207.65,220.92h0a17.6,17.6,0,0,0-7.31-12.54c-1.43-1.08-3.26-1.15-4.67-2.2a7.08,7.08,0,0,0-2.53-.54h0a.54.54,0,0,0-.62-.2c-3,0-6-.1-9-.08-4.89,0-9.78-.16-14.67.12h0c-.65.13-1.32.21-2,.38-9.86,2.64-15.56,14.56-11.36,24a16.31,16.31,0,0,0,13.35,10l24.44,0h0c6.91-1.19,11.39-5.2,13.64-11.78A19,19,0,0,0,207.65,220.92Z"/><path class="cls-1" d="M195.88,318.94l-2.44.66-4.19.84-2.37.09h0a6.09,6.09,0,0,0-2.48.18c-.67.52-.31,1.25-.31,1.86-.19,35.73.36,71.47-.35,107.2a1.94,1.94,0,0,0-.24,1.35c-.19,1.36-.41,2.72-.57,4.09-.31,2.7-1.27,5.26-1.69,7.94-.24-.17-.27,1-.54.13-.47-1.47-.82-3-1.21-4.47-.36-2.23-.71-4.46-1.07-6.69h0a.76.76,0,0,0-.2-.77c0-1.53-.07-3.07-.11-4.61h0a10.43,10.43,0,0,0-.19-3.1c0-1.55,0-3.1,0-4.65q0-48.14-.05-96.26c0-.67.33-1.44-.28-2.05h0a3.86,3.86,0,0,0-2.18-.16l-3.59-.09a1.32,1.32,0,0,0-1.07-.22l-2.75-.37a.68.68,0,0,0-.73-.25c-.89-.45-1.11-.24-1.1.8q0,47.6,0,95.19a68.61,68.61,0,0,0,2.15,18.05h0c.22.84.43,1.69.67,2.52,2.18,7.41,5.2,14.52,7.77,21.79,1.47,4.15,4.26,12.57,4.26,12.57,1.78-6.33,2.42-7.19,3.83-11.32,1.68-4.94,3.57-9.8,5.37-14.69a87,87,0,0,0,2.95-9.59h0a47.67,47.67,0,0,0,2.06-9.07,102.47,102.47,0,0,0,.66-10.8q0-42.19,0-84.39Zm-2.44.66a4.54,4.54,0,0,1,.64,0Z"/><path class="cls-1" d="M195.88,152.09q0-42.2,0-84.39a102.44,102.44,0,0,0-.66-10.79,47.67,47.67,0,0,0-2.06-9.07h0a86.35,86.35,0,0,0-2.95-9.59c-1.8-4.9-3.69-9.76-5.37-14.7-1.41-4.13-2.05-5-3.83-11.32,0,0-2.79,8.42-4.26,12.58-2.57,7.26-5.59,14.38-7.77,21.78-.24.84-.45,1.68-.67,2.52h0a68.66,68.66,0,0,0-2.15,18q0,47.61,0,95.2c0,1,.21,1.25,1.1.79a.68.68,0,0,0,.73-.24l2.75-.37a1.32,1.32,0,0,0,1.07-.22l3.59-.1a3.86,3.86,0,0,0,2.18-.16h0c.61-.61.28-1.37.28-2.05q0-48.12.05-96.25c0-1.56,0-3.11,0-4.66a10.41,10.41,0,0,0,.19-3.1h0c0-1.53.08-3.07.11-4.61a.75.75,0,0,0,.2-.76h0c.36-2.23.71-4.46,1.07-6.69.39-1.5.74-3,1.21-4.48.27-.83.3.3.54.14.42,2.67,1.38,5.24,1.69,7.94.16,1.36.38,2.72.57,4.08a1.92,1.92,0,0,0,.24,1.35c.71,35.74.16,71.47.35,107.2,0,.62-.36,1.34.31,1.87a5.92,5.92,0,0,0,2.48.17h0l2.37.1,4.19.83,2.44.66Zm-1.8,11a3.41,3.41,0,0,1-.64,0Z"/></svg>