<svg width="75" height="115" viewBox="0 0 75 115" fill="none" xmlns="http://www.w3.org/2000/svg">
<path d="M19.8074 31.4843C19.7154 30.8072 19.6134 30.13 19.5288 29.4503C19.28 27.3763 19.0063 25.3023 18.7823 23.2258C18.4987 20.727 18.2001 18.2482 17.2348 15.9218C16.7969 14.8598 16.0355 14.0002 14.8438 13.6529C14.3461 13.5104 13.8908 13.5254 13.4977 13.8578C13.1046 14.1901 13.1967 14.6074 13.2962 15.0347C13.3312 15.179 13.3778 15.3202 13.4355 15.457C13.8286 16.4016 13.4355 17.0113 12.4055 16.9813C10.838 16.9388 9.70342 16.1417 8.95701 14.7923C8.00657 13.0432 8.4594 10.5818 9.98457 9.06006C11.7262 7.33339 13.8112 6.50378 16.2744 6.91859C17.2369 7.07501 18.1551 7.43617 18.9673 7.97787C19.7796 8.51957 20.4673 9.22932 20.9843 10.0596C22.1885 11.8862 22.5219 13.9677 22.5816 16.1042C22.6115 17.1962 22.5816 18.2881 22.5816 19.3826C22.6289 19.3826 22.6836 19.3826 22.6886 19.3551C23.6365 17.0412 24.6318 14.7423 25.0249 12.2435C25.2463 10.8292 25.4031 9.3999 24.9154 7.99557C24.7382 7.43235 24.4367 6.91652 24.0335 6.48649C23.6303 6.05645 23.1357 5.72328 22.5866 5.51176C21.5914 5.11195 21.3426 4.35981 21.9621 3.46774C23.1837 1.68609 24.9652 1.21881 26.978 1.46869C30.3543 1.871 31.7053 4.49724 31.5411 7.68322C31.5411 7.86064 31.5212 8.03555 31.5063 8.30792C32.4344 7.46146 33.503 6.78488 34.6636 6.30888C37.8583 4.92704 40.8838 6.59124 42.2746 9.13003C43.1628 10.7568 42.7349 13.1281 41.3615 14.4175C41.048 14.7099 40.6847 14.6899 40.5678 14.3026C40.1548 12.9432 37.9727 12.1236 36.7237 12.4634C35.5412 12.7722 34.3835 13.1698 33.2603 13.6529C29.889 15.1521 27.5801 17.8334 25.5474 20.8044C25.374 21.0724 25.2501 21.3695 25.1816 21.6815C25.5499 21.2717 25.9081 20.8519 26.2888 20.4546C28.1101 18.558 30.3195 17.456 32.9543 17.4061C35.0393 17.3636 37.9155 19.1877 37.51 22.2088C37.428 22.7478 37.2344 23.2636 36.9417 23.7228C36.649 24.182 36.2637 24.5746 35.8106 24.875C35.7294 24.9462 35.6345 24.9998 35.5318 25.0325C35.4291 25.0652 35.3207 25.0762 35.2136 25.065C35.1064 25.0537 35.0027 25.0204 34.9089 24.9671C34.8151 24.9137 34.7333 24.8416 34.6686 24.7551C33.4917 23.1508 31.8994 23.3307 30.2946 23.7555C28.237 24.2853 26.9407 25.7771 25.928 27.5387C24.6218 29.8101 23.9376 32.2515 24.3506 34.8777C24.5621 36.2121 25.0224 37.5065 25.3757 38.8183C25.3906 38.8708 25.4628 38.9108 25.4678 38.9158C25.4877 38.1661 25.4031 37.359 25.5474 36.6094C25.7738 35.425 26.2241 34.3005 27.3462 33.6458C28.1598 33.1735 29.0033 33.221 29.4984 33.6958C29.9935 34.1706 30.2 35.27 29.8442 36.0072C28.9498 37.8568 28.6959 39.9533 29.1227 41.9643C29.4586 43.651 30.0333 45.2927 30.5583 46.9344C30.7424 47.5117 30.7176 47.934 30.2622 48.3588C29.5432 49.0434 28.849 49.7331 27.9036 50.1254C27.4682 50.3053 27.2567 50.1754 27.0004 49.8431C26.1669 48.7736 25.3583 47.6791 24.4477 46.6771C22.8727 44.9454 21.0938 43.4286 18.8868 42.5765C17.6653 42.1452 16.4018 41.8445 15.1174 41.6795C14.1819 41.537 13.3186 41.9443 12.5921 42.559C11.9477 43.1038 11.7934 43.9359 12.1616 44.808C12.2935 45.1253 12.4652 45.4901 12.1119 45.695C11.8241 45.8562 11.4863 45.9017 11.1664 45.8225C10.1712 45.4876 9.11375 45.2128 8.48925 44.2257C8.06751 43.6114 7.82136 42.8928 7.7775 42.1479C7.73363 41.403 7.89374 40.6602 8.24045 40.0003C9.16103 38.0537 10.7957 37.0892 12.7662 36.7118C13.6445 36.5444 14.6323 36.7118 15.518 36.9217C16.5285 37.1905 17.507 37.5684 18.4365 38.0487C19.1207 38.391 19.7104 38.9258 20.3349 39.3681C20.3522 39.3062 20.3451 39.2399 20.315 39.1832C19.3695 37.6839 18.4788 36.1296 17.4463 34.6853C16.4961 33.3615 15.4622 32.1003 14.3511 30.9096C13.2075 29.6365 11.6462 28.8188 9.95223 28.6057C8.36734 28.4083 7.29747 29.8101 7.15565 30.7772C7.06359 31.4094 7.28006 31.7767 7.80752 32.104C8.01403 32.234 8.26533 32.5163 8.2504 32.7087C8.2224 32.8438 8.16476 32.9708 8.08169 33.0806C7.99862 33.1904 7.89221 33.2802 7.7702 33.3434C6.22761 34.0456 3.83161 33.5184 2.57763 31.7367C-0.121915 27.9011 2.28404 23.3632 5.6255 22.1788C8.28523 21.2392 10.6812 21.679 13.0573 22.9609C15.2244 24.1329 16.6028 26.0494 17.8493 28.071C18.4639 29.0705 18.9167 30.16 19.4442 31.207C19.5014 31.3169 19.5611 31.4269 19.6208 31.5343L19.8074 31.4843Z" fill="#1C1B1C"/>
<path d="M41.5207 100.832C41.8342 100.971 42.1253 101.081 42.4089 101.229C44.2924 102.143 45.9395 103.378 46.9347 105.252C47.9822 107.228 47.9548 110.212 46.3177 112.181C45.9935 112.595 45.5851 112.934 45.1197 113.176C44.6544 113.419 44.1429 113.558 43.6194 113.586C43.096 113.614 42.5727 113.529 42.0846 113.337C41.5965 113.145 41.1548 112.851 40.7892 112.473C40.4983 112.225 40.2429 111.937 40.0304 111.619C39.7119 111.047 40.0304 110.552 40.6822 110.517C41.7347 110.459 42.4239 109.665 42.389 108.603C42.3442 106.831 41.5108 105.454 40.3115 104.245C38.3211 102.246 35.8604 101.194 33.1882 100.554C31.8397 100.232 30.4688 99.9894 29.1003 99.752C28.5306 99.6521 28.5729 99.1473 28.6027 98.875C28.7146 97.913 28.9018 96.9613 29.1625 96.0288C29.2247 95.8014 29.6253 95.564 29.9089 95.5166C32.2776 95.0993 34.6362 94.6195 36.761 93.4476C37.6794 92.9197 38.5531 92.3171 39.3735 91.6459C39.8214 91.2911 40.1199 90.7438 40.5429 90.3515C41.0405 89.9017 41.5978 89.6269 42.2845 89.9892C42.9712 90.3515 43.2922 90.9213 43.3196 91.7184C43.3693 93.1802 42.3915 94.0248 41.4784 94.8869C41.0629 95.2767 40.4981 95.5116 39.9856 95.8114C39.7813 95.9042 39.6028 96.0457 39.4656 96.2237C40.0179 96.1188 40.5703 96.0138 41.1226 95.9039C42.9513 95.5415 44.7477 95.0493 46.1908 93.8049C48.3305 91.9608 50.1468 89.8493 50.729 86.9706C50.8907 86.1648 50.8798 85.3335 50.6971 84.5322C50.5143 83.7309 50.1639 82.9777 49.6691 82.3229C49.1964 81.6582 48.4251 81.4533 47.7035 81.1859C47.0641 80.936 46.9123 80.7461 47.0218 80.0764C47.2706 78.6022 47.9722 77.4652 49.4128 76.903C50.8534 76.3407 52.1273 76.738 53.329 77.5951C55.205 78.937 55.7026 80.9061 55.8171 83.0475C55.9088 84.6146 55.5924 86.1786 54.899 87.5854C54.8776 87.6359 54.8706 87.6915 54.879 87.7458C54.8873 87.8001 54.9106 87.851 54.9463 87.8927C55.1951 87.4804 55.4687 87.0806 55.6927 86.6558C57.29 83.5873 58.3648 80.3813 58.2081 76.858C58.1335 75.1963 57.8299 73.6095 56.6207 72.3426C55.8743 71.5705 55.1453 70.8659 53.9461 71.0683C53.5928 71.1282 53.4161 70.7859 53.5604 70.4311C54.9189 67.0552 57.7603 66.5804 60.527 67.8198C62.8956 68.8768 64.0501 70.8334 64.0102 73.4446C63.9928 74.3667 63.8386 75.2837 63.744 76.2233C64.264 75.9384 64.789 75.6211 65.3414 75.3562C68.0384 74.0668 70.9793 75.1238 72.2606 77.84C72.9424 79.2868 73.3007 80.7711 72.4647 82.2704C72.2162 82.6572 71.8814 82.9806 71.4869 83.2149C71.1286 83.4448 70.7529 83.2574 70.4518 82.9651C69.2302 81.8081 67.802 81.7781 66.3042 82.2304C65.1722 82.5728 64.2192 83.2599 63.224 83.8821C61.4227 85.0066 60.3329 86.8032 58.9023 88.275C58.5627 88.6145 58.2789 89.0058 58.0613 89.4345C58.1632 89.3921 58.2628 89.3445 58.3599 89.292C60.5842 87.9577 62.8757 86.7932 65.4832 86.4209C68.332 86.0211 71.5491 87.7128 72.8802 90.2791C74.2859 92.9903 73.5047 96.8035 71.2032 98.4776C70.4337 99.0707 69.4875 99.3856 68.5177 99.3716C67.5478 99.3575 66.611 99.0153 65.8589 98.4002C65.4316 98.0261 65.0918 97.5619 64.8637 97.0408C64.5327 96.3287 64.896 95.8189 65.6623 95.7589C65.8614 95.7523 66.0591 95.7238 66.252 95.674C67.3169 95.3292 67.5557 94.1472 66.7123 93.4026C66.3405 93.0637 65.9039 92.8043 65.4291 92.6402C64.9543 92.4761 64.4513 92.4107 63.9505 92.448C62.4826 92.523 61.1017 92.9303 59.7208 93.3851C58.2782 93.8234 56.8654 94.3551 55.4911 94.9768C53.421 95.99 51.2535 96.7887 49.0222 97.3607C48.9202 97.3882 48.8431 97.5056 48.7535 97.5806L48.8182 97.7005C49.174 97.6655 49.5298 97.6131 49.8855 97.6006C52.7068 97.4752 55.524 97.9275 58.1658 98.9299C60.0896 99.6415 61.7001 101.015 62.7115 102.806C64.1073 105.237 64.1496 107.816 62.6742 110.245C61.2211 112.631 58.7804 113.573 56.0858 112.926C54.3317 112.503 53.2071 111.297 52.9309 109.442C52.9122 109.296 52.9247 109.148 52.9676 109.007C53.0105 108.866 53.0829 108.736 53.1797 108.625C53.329 108.493 53.7346 108.55 53.9734 108.65C54.8343 109.013 55.0607 108.998 55.6106 108.263C56.4665 107.116 56.6058 106.164 55.8843 104.917C54.9587 103.318 53.4783 102.588 51.8436 102.121C49.052 101.321 46.1759 101.009 43.2872 100.817C42.7398 100.782 42.195 100.732 41.6501 100.692C41.6327 100.702 41.6078 100.747 41.5207 100.832Z" fill="#1C1B1C"/>
</svg>
