<svg id="Layer_1" data-name="Layer 1" xmlns="http://www.w3.org/2000/svg" viewBox="0 0 301.44 460.22"><defs><style>.cls-1{fill:#233565;}</style></defs><path class="cls-1" d="M79.61,126c-.37-2.71-.78-5.42-1.12-8.14-1-8.3-2.1-16.6-3-24.91-1.14-10-2.34-19.92-6.22-29.23-1.76-4.25-4.82-7.69-9.61-9.08-2-.57-3.83-.51-5.41.82s-1.21,3-.81,4.71A11,11,0,0,0,54,61.86c1.58,3.78,0,6.22-4.14,6.1C43.56,67.79,39,64.6,36,59.2c-3.82-7-2-16.85,4.13-22.94,7-6.91,15.38-10.23,25.28-8.57A27.51,27.51,0,0,1,84.34,40.26c4.84,7.31,6.18,15.64,6.42,24.19.12,4.37,0,8.74,0,13.12.19,0,.41,0,.43-.11C95,68.2,99,59,100.58,49c.89-5.66,1.52-11.38-.44-17a15.72,15.72,0,0,0-9.36-9.94c-4-1.6-5-4.61-2.51-8.18,4.91-7.13,12.07-9,20.16-8C122,7.49,127.43,18,126.77,30.75c0,.71-.08,1.41-.14,2.5a43.13,43.13,0,0,1,12.69-8c12.84-5.53,25,1.13,30.59,11.29,3.57,6.51,1.85,16-3.67,21.16-1.26,1.17-2.72,1.09-3.19-.46-1.66-5.44-10.43-8.72-15.45-7.36a98,98,0,0,0-13.92,4.76c-13.55,6-22.83,16.73-31,28.62a10.64,10.64,0,0,0-1.47,3.51c1.48-1.64,2.92-3.32,4.45-4.91,7.32-7.59,16.2-12,26.79-12.2,8.38-.17,19.94,7.13,18.31,19.22a15.61,15.61,0,0,1-6.83,10.67,3.15,3.15,0,0,1-4.59-.48c-4.73-6.42-11.13-5.7-17.58-4-8.27,2.12-13.48,8.09-17.55,15.14-5.25,9.09-8,18.86-6.34,29.37.85,5.34,2.7,10.52,4.12,15.77.06.21.35.37.37.39.08-3-.26-6.23.32-9.23.91-4.74,2.72-9.24,7.23-11.86,3.27-1.89,6.66-1.7,8.65.2s2.82,6.3,1.39,9.25a36.94,36.94,0,0,0-2.9,23.84c1.35,6.75,3.66,13.32,5.77,19.89.74,2.31.64,4-1.19,5.7-2.89,2.74-5.68,5.5-9.48,7.07-1.75.72-2.6.2-3.63-1.13-3.35-4.28-6.6-8.66-10.26-12.67-6.33-6.93-13.48-13-22.35-16.41a74,74,0,0,0-15.15-3.59c-3.76-.57-7.23,1.06-10.15,3.52-2.59,2.18-3.21,5.51-1.73,9,.53,1.27,1.22,2.73-.2,3.55a5.23,5.23,0,0,1-3.8.51c-4-1.34-8.25-2.44-10.76-6.39a16.35,16.35,0,0,1-1-16.91c3.7-7.79,10.27-11.65,18.19-13.16,3.53-.67,7.5,0,11.06.84a58.23,58.23,0,0,1,11.73,4.51c2.75,1.37,5.12,3.51,7.63,5.28a1,1,0,0,0-.08-.74c-3.8-6-7.38-12.22-11.53-18A152.53,152.53,0,0,0,57.68,123.7,28.6,28.6,0,0,0,40,114.48c-6.37-.79-10.67,4.82-11.24,8.69-.37,2.53.5,4,2.62,5.31.83.52,1.84,1.65,1.78,2.42a3.71,3.71,0,0,1-1.93,2.54c-6.2,2.81-15.83.7-20.87-6.43C-.49,111.66,9.18,93.5,22.61,88.76c10.69-3.76,20.32-2,29.87,3.13,8.71,4.69,14.25,12.36,19.26,20.45,2.47,4,4.29,8.36,6.41,12.55.23.44.47.88.71,1.31Z"/><path class="cls-1" d="M166.88,403.52c1.26.56,2.43,1,3.57,1.59,7.57,3.66,14.19,8.6,18.19,16.1,4.21,7.91,4.1,19.85-2.48,27.73a14.79,14.79,0,0,1-22.22,1.17,16.67,16.67,0,0,1-3.05-3.42c-1.28-2.29,0-4.27,2.62-4.41,4.23-.23,7-3.41,6.86-7.66-.18-7.09-3.53-12.6-8.35-17.44-8-8-17.89-12.21-28.63-14.77-5.42-1.29-10.93-2.26-16.43-3.21-2.29-.4-2.12-2.42-2-3.51a73.78,73.78,0,0,1,2.25-11.39c.25-.91,1.86-1.86,3-2.05,9.52-1.67,19-3.59,27.54-8.28a77.85,77.85,0,0,0,10.5-7.21c1.8-1.42,3-3.61,4.7-5.18,2-1.8,4.24-2.9,7-1.45s4.05,3.73,4.16,6.92c.2,5.85-3.73,9.23-7.4,12.68-1.67,1.56-3.94,2.5-6,3.7a5.52,5.52,0,0,0-2.09,1.65c2.22-.42,4.44-.84,6.66-1.28,7.35-1.45,14.57-3.42,20.37-8.4,8.6-7.38,15.9-15.83,18.24-27.35a23.19,23.19,0,0,0-4.26-18.6c-1.9-2.66-5-3.48-7.9-4.55-2.57-1-3.18-1.76-2.74-4.44,1-5.9,3.82-10.45,9.61-12.7s10.91-.66,15.74,2.77c7.54,5.37,9.54,13.25,10,21.82a36.15,36.15,0,0,1-3.69,18.16,1.18,1.18,0,0,0,.19,1.23c1-1.65,2.1-3.25,3-4.95,6.42-12.28,10.74-25.11,10.11-39.21-.3-6.65-1.52-13-6.38-18.07-3-3.09-5.93-5.91-10.75-5.1-1.42.24-2.13-1.13-1.55-2.55,5.46-13.51,16.88-15.41,28-10.45,9.52,4.23,14.16,12.06,14,22.51-.07,3.69-.69,7.36-1.07,11.12,2.09-1.14,4.2-2.41,6.42-3.47,10.84-5.16,22.66-.93,27.81,9.94,2.74,5.79,4.18,11.73.82,17.73a11.86,11.86,0,0,1-3.93,3.78c-1.44.92-2.95.17-4.16-1-4.91-4.63-10.65-4.75-16.67-2.94-4.55,1.37-8.38,4.12-12.38,6.61-7.24,4.5-11.62,11.69-17.37,17.58a18.23,18.23,0,0,0-3.38,4.64,13.17,13.17,0,0,0,1.2-.57c8.94-5.34,18.15-10,28.63-11.49,11.45-1.6,24.38,5.17,29.73,15.44,5.65,10.85,2.51,26.11-6.74,32.81a17.32,17.32,0,0,1-21.48-.31,15.49,15.49,0,0,1-4-5.44c-1.33-2.85.13-4.89,3.21-5.13a11,11,0,0,0,2.37-.34c4.28-1.38,5.24-6.11,1.85-9.09a14.88,14.88,0,0,0-11.1-3.82c-5.9.3-11.45,1.93-17,3.75a140.31,140.31,0,0,0-17,6.37,136.29,136.29,0,0,1-26,9.54c-.41.11-.72.58-1.08.88l.26.48c1.43-.14,2.86-.35,4.29-.4a83.69,83.69,0,0,1,33.28,5.32,34.85,34.85,0,0,1,18.27,15.51c5.61,9.73,5.78,20.05-.15,29.77-5.84,9.55-15.65,13.32-26.48,10.73-7.05-1.69-11.57-6.52-12.68-13.94a4.15,4.15,0,0,1,1-3.27c.6-.53,2.23-.3,3.19.1,3.46,1.45,4.37,1.39,6.58-1.55,3.44-4.59,4-8.4,1.1-13.39-3.72-6.4-9.67-9.32-16.24-11.19-11.22-3.2-22.78-4.45-34.39-5.22-2.2-.14-4.39-.34-6.58-.5C167.33,403,167.23,403.18,166.88,403.52Z"/></svg>