<svg id="Layer_1" data-name="Layer 1" xmlns="http://www.w3.org/2000/svg" viewBox="0 0 274.76 402.05"><defs><style>.cls-1{fill:#9ac552;}</style></defs><path class="cls-1" d="M163.66,257.82c-.35-6-.66-11.82-1.07-17.64-.08-1.18.28-1.54,1.39-1.49,8.56.39,17.12.74,25.68,1.13,1.9.09,2,.48,1.72,2.12a105.5,105.5,0,0,0-2.07,12.63c-.48,7.7-.48,15.42-.7,23.13q-.12,4.33-.34,8.66a1.6,1.6,0,0,1-.59,1.16c-5.46,2.58-9.26,7-12.93,11.57-5,6.2-8.69,13.22-12.21,20.32a11.6,11.6,0,0,1-.78,1.58,8.62,8.62,0,0,1-1.17,1.17c-.32-.56-.94-1.15-.9-1.69.12-2.24.49-4.46.7-6.7.43-4.68,1-9.37,1.21-14.06C162.35,285.7,163,271.68,163.66,257.82Z"/><path class="cls-1" d="M126,271.77c4.72.2,9.36.4,14,.58s9.1.3,13.65.47c1.56.06,1.73.31,1.08,1.73-2.36,5.18-3.29,10.72-4.11,16.28a121.12,121.12,0,0,0-.27,30A104.57,104.57,0,0,0,155,342.88a16.68,16.68,0,0,1,.71,2.95,1.33,1.33,0,0,1-.57,1.13c-.29.11-.92-.21-1.16-.52A112.08,112.08,0,0,0,132.43,325c-3.17-2.47-6.36-5-8.38-8.56-2.42-4.29-2.4-8.93-1.39-13.57.85-4,2.23-7.82,3-11.81a52.81,52.81,0,0,0,.39-18.68A2.61,2.61,0,0,1,126,271.77Z"/><path class="cls-1" d="M194.1,179a65.5,65.5,0,0,0-1.61,6.71c-.55,4-1,8.08-1.21,12.13a254.2,254.2,0,0,0-.41,32,46.64,46.64,0,0,0,1,5.54L162.2,234c.26-1.41.6-2.79.74-4.19.56-5.7,1.31-11.39,1.51-17.09.29-8,.3-16.07.09-24.1-.08-3.21-1-6.42-1.66-9.59-.36-1.7-.25-2.08,1.5-2q14,.75,27.91,1.57A13.52,13.52,0,0,1,194.1,179Z"/><path class="cls-1" d="M128,211.65c2.77-.23,5.42-.48,8.07-.65,6.63-.43,13.26-.8,19.88-1.23,1.45-.09,1.77.28,1.59,1.82-.7,5.89-1.38,11.8-1.7,17.72-.43,7.75-.7,15.52-.67,23.28,0,4.69.71,9.38,1.16,14,.17,1.72,0,2-1.68,2q-13.5-.51-27-1c-1,0-1.41-.23-1.16-1.41a127.1,127.1,0,0,0,2.35-12.76c.6-5.79.86-11.63,1-17.46.1-5.19-.05-10.39-.36-15.56A82.27,82.27,0,0,0,128,211.65Z"/><path class="cls-1" d="M127.39,207.07a179.77,179.77,0,0,0-3.72-54.29l30.4-3.91a78.67,78.67,0,0,0-.56,8.16c.31,8.93.83,17.86,1.21,26.79a101,101,0,0,0,2.57,19c.52,2.18.24,2.26-2,2.4C146.12,205.82,136.94,206.45,127.39,207.07Z"/><path class="cls-1" d="M162.78,171.62c.46-2.41,1.09-4.8,1.34-7.23a100.9,100.9,0,0,0-.78-23.87c-1.58-11.57-3.63-23-8.93-33.63-.17-.35,0-.87,0-1.31a3.77,3.77,0,0,1,1.47.06c3.31,1.62,6.71,3.11,9.86,5,14.59,8.76,23.11,21.73,26.3,38.36,1.23,6.4,1.29,12.86,1.36,19.34a46.14,46.14,0,0,0,.71,5.57l-31.74-.49C162.52,172.74,162.67,172.18,162.78,171.62Z"/><path class="cls-1" d="M153.69,144.29l-31.32,4.05c.11-1,.34-2.23.35-3.41.15-13-1.16-25.75-6.22-37.89-1.58-3.8-3.26-7.55-4.85-11.35a5.83,5.83,0,0,1-.16-1.79,8.18,8.18,0,0,1,1.65.11,77.34,77.34,0,0,1,26.17,12.87c7.95,6,11.73,13.9,12.25,23.62.13,2.35.09,4.73.45,7.05S153.13,142.09,153.69,144.29Z"/></svg>