<svg id="Layer_1" data-name="Layer 1" xmlns="http://www.w3.org/2000/svg" viewBox="0 0 566.93 566.93"><defs><style>.cls-1{fill:#d86f3a;}</style></defs><path class="cls-1" d="M309.75,340.26c-.36-6-.66-11.82-1.07-17.64-.09-1.18.27-1.54,1.39-1.49,8.56.39,17.12.74,25.68,1.13,1.89.09,2,.48,1.71,2.12A105.47,105.47,0,0,0,335.4,337c-.48,7.7-.48,15.42-.7,23.13-.09,2.89-.19,5.78-.35,8.66a1.53,1.53,0,0,1-.59,1.16c-5.46,2.58-9.25,7-12.93,11.57-5,6.2-8.69,13.22-12.2,20.32a11.65,11.65,0,0,1-.79,1.58,8.09,8.09,0,0,1-1.17,1.17c-.31-.56-.93-1.14-.9-1.69.13-2.24.49-4.46.7-6.69.44-4.69,1-9.37,1.22-14.07C308.44,368.14,309.08,354.12,309.75,340.26Z"/><path class="cls-1" d="M272.12,354.21c4.71.2,9.35.41,14,.58s9.1.3,13.65.47c1.56.06,1.74.31,1.09,1.73-2.37,5.18-3.29,10.72-4.11,16.28a121.12,121.12,0,0,0-.27,30,103.94,103.94,0,0,0,4.66,22.09,16.68,16.68,0,0,1,.71,2.95,1.32,1.32,0,0,1-.58,1.13c-.28.11-.92-.21-1.15-.52-6.11-8.25-13.54-15.14-21.6-21.43-3.16-2.47-6.35-5-8.37-8.56-2.42-4.29-2.4-8.93-1.4-13.57.86-4,2.23-7.82,3-11.8a52.63,52.63,0,0,0,.39-18.69A3.34,3.34,0,0,1,272.12,354.21Z"/><path class="cls-1" d="M340.18,261.45a68.24,68.24,0,0,0-1.61,6.71c-.54,4-1,8.08-1.21,12.13a256.1,256.1,0,0,0-.4,31.95,46.64,46.64,0,0,0,1,5.54l-29.69-1.34c.25-1.41.59-2.79.73-4.19.56-5.69,1.32-11.38,1.52-17.09.28-8,.29-16.07.09-24.1a53.79,53.79,0,0,0-1.66-9.59c-.37-1.7-.25-2.07,1.5-2q13.95.76,27.91,1.58A11.65,11.65,0,0,1,340.18,261.45Z"/><path class="cls-1" d="M274.09,294.09c2.77-.23,5.42-.48,8.07-.65,6.62-.43,13.25-.79,19.88-1.23,1.44-.09,1.77.28,1.59,1.82-.7,5.89-1.38,11.8-1.71,17.72-.42,7.75-.7,15.52-.67,23.29,0,4.68.71,9.37,1.17,14,.16,1.71,0,2-1.69,2-9-.33-18-.69-27-1-1,0-1.41-.22-1.17-1.41.88-4.23,1.91-8.47,2.36-12.75.59-5.8.86-11.64,1-17.47.11-5.19,0-10.39-.36-15.56A82.53,82.53,0,0,0,274.09,294.09Z"/><path class="cls-1" d="M273.47,289.51a179.45,179.45,0,0,0-3.72-54.29l30.41-3.91a78.86,78.86,0,0,0-.56,8.16c.31,8.94.83,17.86,1.21,26.79a100.33,100.33,0,0,0,2.57,19.05c.51,2.17.24,2.26-2,2.39C292.21,288.26,283,288.89,273.47,289.51Z"/><path class="cls-1" d="M308.86,254.06c.47-2.41,1.1-4.8,1.35-7.23a100.9,100.9,0,0,0-.78-23.87c-1.59-11.56-3.63-23-8.93-33.63-.18-.35,0-.87,0-1.31a3.71,3.71,0,0,1,1.46.06c3.32,1.62,6.72,3.11,9.87,5,14.59,8.76,23.11,21.74,26.3,38.36,1.22,6.4,1.29,12.86,1.36,19.34a46.08,46.08,0,0,0,.7,5.57l-31.73-.48C308.61,255.18,308.76,254.62,308.86,254.06Z"/><path class="cls-1" d="M299.78,226.73l-31.33,4.05a34,34,0,0,0,.36-3.41c.14-13-1.17-25.75-6.22-37.89-1.58-3.79-3.27-7.55-4.85-11.35a6.12,6.12,0,0,1-.17-1.79,9,9,0,0,1,1.66.11,77.2,77.2,0,0,1,26.16,12.87c7.95,6,11.73,13.9,12.26,23.62a69,69,0,0,0,.45,7.05A67.72,67.72,0,0,0,299.78,226.73Z"/></svg>