<svg width="60" height="88" viewBox="0 0 60 88" fill="none" xmlns="http://www.w3.org/2000/svg">
<path d="M35.7388 56.4313C35.6624 55.118 35.5947 53.8441 35.5051 52.5703C35.4877 52.312 35.5663 52.2332 35.8087 52.2441C37.6779 52.3295 39.5472 52.4061 41.4165 52.4915C41.8314 52.5112 41.8532 52.5965 41.7921 52.9555C41.5857 53.867 41.4348 54.7901 41.3401 55.7199C41.2352 57.4053 41.2352 59.095 41.1872 60.7826C41.1697 61.4144 41.145 62.0462 41.1129 62.6781C41.1104 62.7271 41.0976 62.775 41.0754 62.8187C41.0532 62.8625 41.0221 62.9011 40.9841 62.932C39.7918 63.4967 38.962 64.4641 38.1606 65.4644C37.0687 66.8214 36.2629 68.358 35.4942 69.912C35.4463 70.0314 35.3893 70.147 35.3239 70.2578C35.2471 70.3512 35.1616 70.437 35.0684 70.5139C34.9985 70.3913 34.8631 70.2622 34.8719 70.144C34.8981 69.6537 34.9789 69.1678 35.0247 68.6775C35.1186 67.6532 35.2431 66.6266 35.289 65.6001C35.4527 62.5336 35.5947 59.4649 35.7388 56.4313Z" fill="#AA5C9D"/>
<path d="M27.5149 59.4844C28.5456 59.5282 29.5589 59.5719 30.5721 59.6113C31.5854 59.6507 32.5593 59.677 33.5529 59.7142C33.8936 59.7273 33.9307 59.782 33.7888 60.0929C33.2734 61.2266 33.0703 62.4392 32.8912 63.6562C32.6002 65.8341 32.5804 68.0398 32.8323 70.2225C32.9963 71.8633 33.3368 73.4814 33.8477 75.0488C33.9189 75.2589 33.9708 75.475 34.0028 75.6945C34.0041 75.7428 33.9935 75.7908 33.9718 75.834C33.95 75.8771 33.9179 75.9142 33.8783 75.9418C33.815 75.9659 33.6774 75.8959 33.625 75.828C32.2762 74.0568 30.693 72.4781 28.919 71.1353C28.2268 70.5946 27.5302 70.0409 27.0891 69.2617C26.5606 68.3227 26.565 67.3071 26.7855 66.2915C26.9712 65.416 27.2725 64.5799 27.4407 63.7065C27.7113 62.3596 27.7401 60.975 27.5258 59.6179C27.517 59.574 27.5133 59.5292 27.5149 59.4844Z" fill="#AA5C9D"/>
<path d="M42.3861 39.1795C42.2432 39.6625 42.1259 40.1527 42.0345 40.6481C41.9144 41.5236 41.8161 42.4167 41.7703 43.3031C41.5937 45.6336 41.5638 47.973 41.6807 50.3072C41.7291 50.7155 41.802 51.1204 41.8991 51.5198L35.42 51.2178C35.4768 50.9091 35.551 50.6071 35.5816 50.3007C35.7039 49.0531 35.8676 47.8076 35.9113 46.56C35.9746 44.809 35.9768 43.0427 35.931 41.2851C35.9135 40.5825 35.7126 39.8799 35.5685 39.186C35.4899 38.8139 35.5139 38.7308 35.896 38.7483C37.9342 38.8577 39.9658 38.9723 41.9908 39.0919C42.1244 39.112 42.2565 39.1412 42.3861 39.1795Z" fill="#AA5C9D"/>
<path d="M27.9517 46.3254C28.5566 46.275 29.1353 46.2203 29.7139 46.1831C31.1618 46.089 32.6096 46.008 34.0552 45.9139C34.3718 45.8942 34.4417 45.9752 34.4024 46.3122C34.2495 47.6014 34.101 48.895 34.0312 50.1908C33.9373 51.8871 33.8783 53.5878 33.8849 55.2863C33.8849 56.3128 34.0399 57.3393 34.1382 58.3506C34.1753 58.727 34.1382 58.7883 33.7713 58.7883C31.806 58.7139 29.8406 58.6409 27.8753 58.5694C27.6569 58.5694 27.5673 58.5191 27.6219 58.2608C27.8403 57.3392 28.0116 56.407 28.1351 55.4679C28.2661 54.2006 28.3229 52.9224 28.3535 51.6463C28.3753 50.5103 28.3426 49.3722 28.2749 48.2406C28.2016 47.5968 28.0937 46.9575 27.9517 46.3254Z" fill="#AA5C9D"/>
<path d="M27.8184 45.3227C28.1508 41.3434 27.8769 37.3365 27.0061 33.4398L33.6446 32.584C33.573 33.1768 33.5322 33.773 33.5223 34.37C33.59 36.3246 33.7036 38.2792 33.7866 40.2338C33.8416 41.6347 34.0296 43.0272 34.3478 44.3925C34.4613 44.8696 34.4002 44.8871 33.911 44.9178C31.9086 45.0491 29.9039 45.187 27.8184 45.3227Z" fill="#AA5C9D"/>
<path d="M35.5467 37.5643C35.6471 37.0368 35.7847 36.5137 35.8393 35.9818C35.9891 34.2396 35.9319 32.4858 35.669 30.7572C35.3239 28.2248 34.8763 25.723 33.7189 23.3963C33.6818 23.3197 33.7189 23.2059 33.7189 23.1096C33.8257 23.0928 33.9348 23.0972 34.0399 23.1227C34.7627 23.4773 35.5052 23.8034 36.1931 24.2171C39.3791 26.1345 41.2396 28.9733 41.9362 32.6133C42.2048 34.0141 42.2179 35.428 42.2332 36.8464C42.2602 37.2555 42.3119 37.6627 42.3883 38.0655L35.4571 37.9583C35.4899 37.8094 35.5226 37.6869 35.5467 37.5643Z" fill="#AA5C9D"/>
<path d="M33.5617 31.5821L26.7223 32.4686C26.7463 32.2497 26.7965 31.9805 26.7987 31.7222C26.8314 28.8768 26.5454 26.0861 25.4404 23.4289C25.0954 22.5972 24.7285 21.7764 24.3813 20.9446C24.3495 20.8166 24.3377 20.6845 24.3464 20.5528C24.467 20.5486 24.5877 20.5567 24.7067 20.5769C26.7726 21.1442 28.712 22.1001 30.4215 23.3939C32.1575 24.7071 32.983 26.4363 33.0965 28.5638C33.1249 29.0781 33.1162 29.5991 33.1948 30.1069C33.2734 30.6147 33.4394 31.1006 33.5617 31.5821Z" fill="#AA5C9D"/>
</svg>
