<svg xmlns="http://www.w3.org/2000/svg" viewBox="0 0 371.66 471.35"><defs><style>.cls-1{fill:#fff;stroke:#1c1c1d;stroke-linecap:round;stroke-linejoin:round;}</style></defs><g id="Layer_14" data-name="Layer 14"><path class="cls-1" d="M346,140.22C339,102.08,328.09,71.61,326.85,67c-2.28-8.46-25.37-20.27-33.75-24.3v-.1L291.72,42l-1.63-.76,0,.08c-10.73-4.37-47-19.12-60.79-24.61-.11,6.76-36.93,28-43.34,28h-.2c-6.41,0-43.23-21.21-43.34-28C126.09,23.23,78.56,42.6,78.56,42.6v.23C70,47,47.34,58.63,45.08,67,43.85,71.61,33,102.08,25.9,140.22c-9.54,51.53-15.71,113.72-15.71,113.72l8,208.17H66.89L75,223.94l3.59-16.54V450.49H293.1V206l.12.66L297,223.94,305,462.11h48.71l8-208.17S355.57,191.75,346,140.22Z"/></g></svg>