<svg xmlns="http://www.w3.org/2000/svg" viewBox="0 0 371.66 471.35"><defs><style>.cls-1{fill:#fff;stroke:#1c1c1d;stroke-linecap:round;stroke-linejoin:round;}</style></defs><g id="Layer_14" data-name="Layer 14"><path class="cls-1" d="M362.59,207.41s-2.61-17.35-12.15-68.88c-7.06-38.14-23-66.92-24.25-71.53C324,58.75,302,47.32,293.1,43V42.6s-47.53-19.37-63.83-25.85c-.11,6.76-36.93,28-43.34,28h-.2c-6.41,0-43.23-21.21-43.34-28C126.09,23.23,78.56,42.6,78.56,42.6v.23C70,47,47.34,58.63,45.08,67c-1.23,4.61-17.19,33.39-24.24,71.53C11.3,190.06,8.68,207.41,8.68,207.41L75,223.94l3.59-16.54V450.49H293.1V209.17l3.21,14.77Z"/></g></svg>