<svg width="140" height="175" viewBox="0 0 140 175" fill="none" xmlns="http://www.w3.org/2000/svg">
<path d="M70.6176 108.541C70.3945 104.716 70.1952 101.002 69.9362 97.2882C69.8844 96.5343 70.1115 96.3069 70.8208 96.3388C76.2759 96.5861 81.731 96.8095 87.1822 97.0608C88.3776 97.1167 88.4732 97.364 88.274 98.4131C87.7719 101.086 87.1304 103.766 86.963 106.467C86.6522 111.374 86.6522 116.3 86.5127 121.227C86.4609 123.07 86.3932 124.908 86.2936 126.751C86.2881 126.894 86.2518 127.034 86.1871 127.161C86.1224 127.289 86.031 127.401 85.919 127.489C82.4403 129.137 80.0256 131.977 77.6825 134.869C74.4948 138.822 72.1438 143.302 69.9043 147.83C69.7633 148.178 69.5968 148.515 69.4062 148.839C69.1813 149.11 68.9319 149.36 68.6611 149.585C68.4579 149.226 68.0674 148.855 68.0873 148.504C68.167 147.08 68.3981 145.66 68.5296 144.235C68.8085 141.248 69.1432 138.252 69.3265 135.264C69.7848 126.321 70.1912 117.381 70.6176 108.541Z" fill="#1C1B1C"/>
<path d="M46.6454 117.438C49.6459 117.565 52.6026 117.697 55.5593 117.804C58.516 117.912 61.3571 118 64.258 118.108C65.2502 118.144 65.3617 118.307 64.9473 119.213C63.4411 122.512 62.8553 126.05 62.3294 129.584C61.389 135.943 61.5324 142.329 62.158 148.692C62.6344 153.482 63.6285 158.206 65.1227 162.781C65.3329 163.393 65.485 164.023 65.5769 164.664C65.5808 164.805 65.5496 164.945 65.4864 165.071C65.4231 165.197 65.3296 165.305 65.2143 165.386C65.0738 165.392 64.9338 165.365 64.8058 165.306C64.6777 165.248 64.5651 165.161 64.4771 165.051C60.584 159.793 55.8502 155.393 50.7178 151.384C48.7015 149.813 46.6693 148.193 45.3822 145.927C43.8401 143.191 43.8521 140.227 44.4936 137.271C45.0396 134.742 45.9122 132.281 46.3784 129.744C47.1708 125.817 47.2558 121.781 46.6295 117.824C46.6198 117.695 46.6251 117.565 46.6454 117.438Z" fill="#1C1B1C"/>
<path d="M90.4537 57.2825C90.0831 58.7983 89.6208 60.1626 89.4296 61.5627C89.0829 64.1317 88.8159 66.7166 88.6565 69.3015C88.2581 76.0829 87.9632 82.8643 88.4015 89.6776C88.5458 90.8679 88.7627 92.0482 89.051 93.2119L70.1315 92.3582C70.2909 91.4607 70.51 90.5791 70.5977 89.6816C70.9563 86.0515 71.4385 82.4215 71.566 78.7835C71.7453 73.6655 71.7533 68.5316 71.6218 63.4136C71.57 61.3633 71.0001 59.3209 70.5658 57.2944C70.3307 56.2134 70.4024 55.9741 71.5182 56.0339C77.4475 56.3583 83.3754 56.6934 89.3021 57.0391C89.6914 57.092 90.0762 57.1733 90.4537 57.2825Z" fill="#1C1B1C"/>
<path d="M47.8967 79.092C49.6659 78.9484 51.3514 78.7849 53.041 78.6931C57.2608 78.4219 61.4846 78.1865 65.7085 77.8953C66.6249 77.8355 66.8361 78.0748 66.7206 79.0561C66.2743 82.8138 65.84 86.5795 65.6328 90.3571C65.3618 95.3035 65.1865 100.258 65.2064 105.208C65.2064 108.196 65.6567 111.192 65.9475 114.168C66.0551 115.261 65.9475 115.46 64.8756 115.42C59.1456 115.209 53.4155 114.982 47.6855 114.778C47.032 114.758 46.7889 114.635 46.9483 113.877C47.5061 111.18 48.1636 108.479 48.4465 105.743C48.845 102.049 48.9925 98.3193 49.0682 94.6015C49.1359 91.2945 49.0403 87.9796 48.8371 84.6767C48.7295 82.8936 48.2553 81.1304 47.8967 79.092Z" fill="#1C1B1C"/>
<path d="M47.9365 75.1826C48.8998 63.5864 48.0936 51.9109 45.5457 40.5576L64.9514 38.0645C64.8119 39.9553 64.5529 41.6187 64.5967 43.2502C64.792 48.9466 65.1227 54.635 65.3618 60.3314C65.5233 64.4245 66.073 68.493 67.0035 72.482C67.3302 73.8663 67.1589 73.9221 65.7364 74.0099C59.8708 74.3848 54.0212 74.7837 47.9365 75.1826Z" fill="#1C1B1C"/>
<path d="M90.892 54.2521L70.7092 52.9996C71.0177 51.8472 71.2586 50.6777 71.4305 49.4972C71.7891 45.3804 72.1477 41.2717 73.2435 37.2627C76.0846 26.8473 82.1335 19.0168 91.8284 14.1581C93.9283 13.109 96.1598 12.3271 98.3434 11.4575C98.6548 11.409 98.9725 11.4198 99.2798 11.4894C99.2599 11.7726 99.3356 12.1077 99.2081 12.3231C95.319 18.8014 93.4581 25.9976 91.8842 33.2737C90.8083 38.252 90.091 43.2982 90.2185 48.4121C90.2544 49.9719 90.5373 51.5236 90.7166 53.0753C90.7565 53.4543 90.8202 53.7974 90.892 54.2521ZM86.6084 24.6932C86.4212 24.803 86.2426 24.927 86.0744 25.0642C80.6512 30.3178 76.8059 36.4848 75.4909 44.0361C75.2877 45.185 75.2997 46.3737 75.212 47.5425H75.4909C78.1009 39.4088 81.9303 31.8655 86.6084 24.6932Z" fill="#1C1B1C"/>
<path d="M64.6924 35.1358L44.7368 37.7247C44.8085 37.0585 44.952 36.3046 44.9599 35.5467C45.0556 27.2614 44.2188 19.1237 40.9991 11.385C39.9909 8.9596 38.919 6.56617 37.9109 4.14481C37.8198 3.77178 37.7836 3.38744 37.8033 3.00394C38.1554 2.99008 38.5079 3.01281 38.8553 3.07175C44.8831 4.72126 50.5415 7.50615 55.5275 11.2772C60.5961 15.1187 62.9989 20.1449 63.3336 26.328C63.4173 27.8279 63.3933 29.3477 63.6205 30.8236C63.8476 32.2996 64.3338 33.7356 64.6924 35.1358Z" fill="#1C1B1C"/>
<path d="M93.0039 131.687C92.8807 132.045 92.7062 132.384 92.4859 132.692C88.2063 137.02 85.7118 142.438 83.1576 147.851C80.8863 152.638 78.6349 157.484 75.985 162.064C74.3075 164.956 71.8887 167.413 69.8047 170.066C69.4676 170.538 69.1045 170.991 68.7169 171.422C68.4186 171.657 68.0936 171.855 67.7486 172.012C67.5972 171.669 67.3063 171.318 67.3182 170.983C67.4464 167.161 67.9888 163.364 68.936 159.658C70.781 152.45 73.8452 145.856 78.9258 140.343C82.4762 136.49 86.5327 133.311 91.6092 131.663C91.9897 131.563 92.3755 131.484 92.7648 131.428L93.0039 131.687Z" fill="#1C1B1C"/>
</svg>
