<svg width="140" height="175" viewBox="0 0 140 175" fill="none" xmlns="http://www.w3.org/2000/svg">
<path d="M25.2274 124.061C20.7366 124.136 16.4092 124.563 12.2332 125.88C10.2727 126.494 8.41578 127.443 6.51107 128.245C6.30387 128.333 6.1126 128.472 5.91336 128.568C5.37144 128.832 5.11641 128.68 5.18017 128.07C5.21238 127.698 5.28316 127.33 5.39136 126.973C6.58049 122.888 8.99376 119.268 12.3049 116.601C14.6243 114.705 17.5887 113.783 20.5732 114.032C25.7255 114.359 30.3398 116.19 34.5198 119.218C35.6316 120.016 36.7473 120.814 37.9706 121.536C37.1099 120.339 36.2532 119.142 35.3885 117.921C32.906 114.479 29.8099 111.675 26.4866 109.058C21.7555 105.261 17.8489 100.537 15.0065 95.1758C13.4485 92.3077 12.1176 89.3558 10.6433 86.4837C10.1731 85.5662 9.53549 84.7365 8.99357 83.8509C8.89623 83.639 8.82272 83.4169 8.77441 83.1887C8.98362 83.142 9.19766 83.1206 9.41197 83.1249C13.7729 83.7009 17.8215 85.7035 20.9279 88.8213C22.2668 90.1217 23.5698 91.466 24.9126 92.8103C24.6098 91.8131 24.3428 90.7639 23.9722 89.7507C21.9771 84.1912 19.4594 78.8338 16.453 73.7506C15.5126 72.155 14.2853 70.7748 13.1855 69.2948C13.053 69.164 12.9329 69.0211 12.8269 68.868C12.7273 68.6606 12.5878 68.3853 12.6555 68.2098C12.7233 68.0343 13.054 67.9944 13.2732 68.0143C15.8923 68.287 18.4218 69.1224 20.6888 70.4636C25.7295 73.4315 28.9292 77.8952 30.7981 83.3124C31.6986 85.9372 32.1768 88.7096 32.8462 91.4141C32.8676 91.5644 32.9359 91.7041 33.0415 91.8131C33.0415 91.5857 33.0415 91.3623 33.0415 91.1349C33.0415 88.7215 33.0933 86.3002 32.9618 83.8908C32.7047 79.3081 31.4146 74.8431 29.1883 70.8306C28.5188 69.598 27.7219 68.4372 27.0006 67.2405C26.9283 67.049 26.8892 66.8467 26.8851 66.6421C27.075 66.6205 27.2673 66.6367 27.4509 66.69C36.034 71.2774 41.6406 78.2782 44.0832 87.6924C44.9917 91.2067 44.7766 94.8208 43.892 98.383C43.0711 101.69 41.4493 104.642 40.0586 107.705C37.9826 112.273 37.8909 116.816 40.8556 121.105C42.3259 123.235 45.4261 127.391 45.4261 127.391C45.4028 128.099 45.3296 128.804 45.2069 129.502C45.0087 130.109 44.7759 130.704 44.5096 131.285C44.5096 131.285 41.4214 128.772 39.6123 127.794C37.6341 126.657 35.3149 126.265 33.0734 126.689C32.0668 126.854 31.1305 127.311 30.3797 128.002C29.9684 128.411 29.6962 128.94 29.6018 129.512C29.5074 130.085 29.5955 130.673 29.8537 131.193C30.0837 131.697 30.4755 132.108 30.9666 132.363C31.4577 132.617 32.0199 132.7 32.5633 132.597C32.8897 132.594 33.2155 132.625 33.5356 132.689C33.3798 132.996 33.1753 133.277 32.9299 133.519C29.1763 136.127 24.3428 134.967 22.5218 130.292C21.689 128.161 22.6732 125.612 24.6337 124.384C24.7891 124.296 24.9525 124.208 25.2274 124.061ZM32.6749 108.188L32.8941 108.136C32.8941 108.017 32.8941 107.893 32.8941 107.773C32.6869 106.054 32.4557 104.335 32.2605 102.615C31.5273 96.1571 30.0808 89.9023 26.9767 84.1221C26.6659 83.5437 26.3232 82.9813 25.9965 82.4108C26.2196 83.2805 26.5583 84.0783 26.8213 84.9C28.2917 89.5313 29.4871 94.2424 30.4992 98.9894C31.1687 102.069 31.9537 105.121 32.6749 108.188ZM37.9188 85.7178C37.7993 86.6991 37.6598 87.6804 37.5602 88.6657C37.3729 90.5565 37.2773 92.4633 37.0183 94.3461C36.5999 97.4217 36.0579 100.481 35.6156 103.557C35.4403 104.785 35.4005 106.034 35.3008 107.275L35.5599 107.299C37.4566 100.234 38.9867 93.1294 37.9308 85.7178H37.9188ZM18.5769 92.6268C22.2189 97.8485 26.1997 102.815 30.0968 107.841C27.4629 101.857 23.4104 96.935 18.5769 92.6268ZM30.025 121.807C27.0126 118.875 18.4294 118.54 14.5961 121.208C19.8161 120.207 24.9086 120.65 30.025 121.807Z" fill="#E9BAD2"/>
<path d="M108.022 37.3456C108.552 36.1129 109.094 34.8843 109.616 33.6477C111.664 28.809 114.633 24.6364 118.825 21.4531C123.085 18.21 127.874 16.4469 133.318 16.8538C133.613 16.919 133.9 17.0208 134.17 17.1569C134.011 17.4242 133.919 17.7712 133.692 17.9547C131.69 19.4396 129.858 21.1413 128.229 23.0288C126.041 25.6895 123.89 28.3901 121.806 31.1346C120.379 33.0055 119.048 34.9561 117.753 36.9227C117.143 37.9119 116.64 38.9629 116.251 40.0581C116.801 39.6233 117.335 39.1685 117.905 38.7617C121.28 36.3682 124.81 34.2261 128.99 33.5998C130.763 33.3365 132.576 33.4243 134.401 33.3685C134.549 33.3685 134.832 33.52 134.824 33.5639C134.796 33.7659 134.713 33.9564 134.585 34.1144C133.138 35.7499 131.636 37.3376 130.233 39.005C128.831 40.6724 127.671 42.3837 126.3 43.9913C121.519 49.576 115.992 54.1993 109.222 57.243C104.42 59.405 100.412 62.696 96.7137 66.3899C96.6061 66.4976 96.5105 66.6173 96.4109 66.7329C98.22 65.9351 99.9972 65.1174 101.838 64.3953C105.528 62.9571 109.479 62.3129 113.434 62.5045C117.869 62.688 121.642 64.2757 124.432 67.9177C125.921 69.9106 127.066 72.1395 127.819 74.5116C128.48 76.366 128.791 78.3274 128.735 80.2957C128.691 80.6411 128.626 80.9834 128.54 81.3209C122.87 76.2588 116.243 73.7018 109.154 72.1461L108.951 72.3735C109.152 72.4544 109.342 72.5603 109.517 72.6886C111.306 74.4159 111.649 77.4755 110.13 79.47C106.907 83.6745 101.806 83.5708 98.6264 79.9886C98.4308 79.734 98.2511 79.4676 98.0885 79.1908C98.367 79.1396 98.6503 79.1195 98.9332 79.1309C99.3317 79.1948 99.6824 79.3703 100.065 79.4221C100.608 79.5121 101.165 79.4269 101.657 79.1788C102.148 78.9307 102.548 78.5325 102.798 78.0419C103.102 77.5422 103.235 76.9571 103.178 76.375C103.12 75.7929 102.875 75.2453 102.48 74.8148C101.201 73.3628 99.515 72.7086 97.6581 72.4213C94.7811 72.0224 92.2149 72.9838 89.6886 74.2124C89.7325 72.6168 89.589 70.1715 89.9397 68.895C91.9679 67.2555 94.4105 65.0256 95.7414 62.7399C97.3654 60.0815 97.97 56.9233 97.4429 53.8523C96.9369 51.0041 96.2475 48.1878 95.7096 45.3476C94.287 37.7684 96.0443 30.987 100.718 24.9077C104.412 20.1208 108.919 16.3392 114.553 14.0175C115.996 13.4232 117.498 12.9724 118.984 12.4897C119.242 12.4461 119.504 12.4461 119.761 12.4897C119.683 12.7556 119.56 13.0065 119.399 13.2317C116.086 16.5412 113.354 20.386 111.318 24.6045C109.78 27.72 109.074 31.0907 108.425 34.4734C108.246 35.4109 108.074 36.3483 107.899 37.2897L108.022 37.3456ZM117.948 28.6893C117.713 28.8848 117.598 28.9645 117.498 29.0643C115.428 31.166 113.601 33.4943 112.051 36.0052C109.182 40.6485 107.19 45.6827 105.408 50.8126C105.01 52.0093 104.611 53.1701 104.213 54.3509C104.284 54.3345 104.35 54.3023 104.406 54.2567C104.463 54.2111 104.509 54.1533 104.54 54.0876C105.496 52.2287 106.496 50.3898 107.393 48.5029C110.182 42.5991 112.971 36.6674 116.275 31.0309C116.753 30.257 117.327 29.5629 117.948 28.6893ZM101.93 52.5199C102.89 48.7941 102.727 44.9806 103.03 41.207C103.332 37.4333 103.791 33.6277 104.177 29.8701H103.962C101.468 37.2378 101.464 44.8649 101.93 52.5199ZM107.349 54.3629C109.66 52.8391 122.184 41.9569 122.615 41.0993C117.917 43.4169 108.935 51.2195 107.349 54.3629ZM120.714 71.5158C118.063 69.2652 114.771 67.9073 111.306 67.6345C108.901 67.5309 106.497 67.8689 104.213 68.6317C107.002 68.8352 109.792 68.9469 112.549 69.266C115.307 69.5851 117.948 70.4228 120.714 71.5078V71.5158Z" fill="#E9BAD2"/>
</svg>
