<svg width="50" height="67" viewBox="0 0 50 67" fill="none" xmlns="http://www.w3.org/2000/svg">
<path d="M39.6369 27.4827C39.6362 27.7364 39.5845 27.9874 39.4848 28.2208C39.3852 28.4543 39.2396 28.6656 39.0568 28.8422C38.8739 29.0188 38.6573 29.1571 38.4199 29.2491C38.1825 29.341 37.929 29.3847 37.6744 29.3775C37.1528 29.3759 36.6533 29.1679 36.2856 28.7994C35.918 28.4309 35.7124 27.9321 35.714 27.4126C35.7156 26.8931 35.9244 26.3955 36.2944 26.0293C36.6644 25.6631 37.1653 25.4583 37.6868 25.46C37.9502 25.4586 38.2111 25.5106 38.4537 25.6128C38.6962 25.715 38.9154 25.8652 39.0978 26.0544C39.2802 26.2436 39.422 26.4678 39.5147 26.7134C39.6074 26.9589 39.649 27.2206 39.6369 27.4827Z" fill="#233565"/>
<path d="M32.4577 17.6682C32.9791 17.6604 33.4828 17.857 33.86 18.2158C34.2372 18.5745 34.4577 19.0665 34.474 19.5857C34.5009 20.6022 33.5445 21.5672 32.4991 21.5816C31.4536 21.596 30.5242 20.6641 30.5014 19.6084C30.4807 18.594 31.3936 17.6888 32.4577 17.6682Z" fill="#233565"/>
<path d="M19.5235 19.6452C19.5267 19.9034 19.4774 20.1596 19.3786 20.3984C19.2799 20.6371 19.1337 20.8535 18.9488 21.0346C18.764 21.2156 18.5442 21.3575 18.3029 21.4519C18.0616 21.5462 17.8036 21.5909 17.5444 21.5834C17.0212 21.5766 16.5221 21.363 16.157 20.9896C15.7919 20.6163 15.5906 20.1138 15.5975 19.5927C15.6043 19.0715 15.8188 18.5745 16.1936 18.2108C16.5684 17.8471 17.0729 17.6467 17.5962 17.6535C18.1167 17.6638 18.6119 17.8792 18.9732 18.2526C19.3344 18.626 19.5323 19.1268 19.5235 19.6452Z" fill="#233565"/>
<path d="M40.9887 38.0103C40.7298 38.0166 40.4724 37.9702 40.2321 37.8741C39.9918 37.7779 39.7738 37.634 39.5913 37.451C39.4088 37.2681 39.2656 37.05 39.1706 36.8101C39.0756 36.5701 39.0307 36.3134 39.0386 36.0557C39.0356 35.8019 39.0831 35.5501 39.1783 35.3147C39.2735 35.0794 39.4146 34.8651 39.5934 34.6844C39.7722 34.5036 39.9852 34.3599 40.2201 34.2615C40.4549 34.1632 40.707 34.1121 40.9618 34.1113C41.4907 34.1161 41.9966 34.3271 42.3712 34.699C42.7458 35.071 42.9592 35.5743 42.9657 36.101C42.9495 36.6126 42.7342 37.098 42.3653 37.4543C41.9963 37.8106 41.5026 38.01 40.9887 38.0103Z" fill="#233565"/>
<path d="M25.0363 14.8452C24.5142 14.8301 24.0185 14.6131 23.6544 14.2401C23.2903 13.8671 23.0865 13.3675 23.0862 12.8472C23.0986 11.8369 24.0488 10.9256 25.0818 10.9297C25.602 10.9487 26.0951 11.1659 26.4592 11.5366C26.8232 11.9072 27.0305 12.403 27.0381 12.9215C27.0357 13.1793 26.9818 13.4342 26.8794 13.6711C26.7771 13.908 26.6284 14.1223 26.4421 14.3013C26.2558 14.4804 26.0355 14.6207 25.7941 14.7141C25.5527 14.8075 25.2951 14.852 25.0363 14.8452Z" fill="#233565"/>
<path d="M9.10857 43.3858C9.63101 43.3825 10.1337 43.5846 10.5073 43.9483C10.881 44.3119 11.0955 44.8078 11.1042 45.3281C11.0928 45.8395 10.8848 46.3271 10.5232 46.6904C10.1615 47.0537 9.67372 47.2649 9.16033 47.2806C8.90157 47.2842 8.64471 47.2363 8.4048 47.1397C8.16489 47.0431 7.94675 46.8997 7.7632 46.7181C7.57964 46.5364 7.43434 46.32 7.33584 46.0817C7.23734 45.8434 7.1876 45.5878 7.18956 45.3301C7.18516 45.0764 7.23155 44.8243 7.32602 44.5885C7.42048 44.3528 7.56114 44.1382 7.73978 43.9572C7.91841 43.7762 8.13145 43.6325 8.36646 43.5344C8.60148 43.4363 8.85375 43.3857 9.10857 43.3858Z" fill="#233565"/>
<path d="M8.22466 34.295C8.88296 33.8826 9.97599 34.1589 10.4894 34.7465C10.7717 35.0418 10.95 35.4205 10.9974 35.8255C11.0448 36.2304 10.9588 36.6398 10.7523 36.9919C10.3714 37.3568 10.0505 37.7754 9.46674 37.8908C9.03049 37.9895 8.5734 37.9348 8.17305 37.736C7.77269 37.5372 7.45374 37.2065 7.27033 36.8001C7.09621 36.3946 7.0709 35.941 7.19883 35.5188C7.32676 35.0966 7.59977 34.7327 7.97003 34.4908C8.06643 34.4419 8.15279 34.3755 8.22466 34.295Z" fill="#233565"/>
<path d="M14.2591 27.5257C14.275 27.576 14.2777 27.6296 14.2668 27.6812C14.256 27.7328 14.2319 27.7808 14.197 27.8205C13.99 28.2329 13.8182 28.6576 13.4497 28.9607C12.5761 29.5958 11.5866 29.4968 10.8454 28.7009C10.1809 27.9855 10.1934 26.9071 10.8744 26.1257C10.9655 26.1046 11.0483 26.0572 11.1125 25.9896C12.307 24.9215 14.0231 25.8246 14.1784 27.171C14.169 27.2946 14.1971 27.4182 14.2591 27.5257Z" fill="#233565"/>
<path d="M39.7632 46.8373C38.782 46.1672 38.753 44.4971 39.8108 43.7878C40.3366 43.5569 40.8562 43.3198 41.4669 43.5095C42.1728 43.7301 42.6469 44.161 42.8001 44.9012C42.8914 45.2732 42.8635 45.6644 42.7202 46.0198C42.5768 46.3752 42.3254 46.6769 42.001 46.8827C41.7359 47.0761 41.4213 47.1909 41.0935 47.2139C40.7656 47.2369 40.438 47.1671 40.1483 47.0126C40.0267 46.9404 39.8976 46.8816 39.7632 46.8373Z" fill="#233565"/>
</svg>
