<svg id="Layer_1" data-name="Layer 1" xmlns="http://www.w3.org/2000/svg" viewBox="0 0 223.89 324.95"><defs><style>.cls-1{fill:#aa5c9d;}</style></defs><path class="cls-1" d="M182.65,133.29a9.22,9.22,0,0,1-9.48,9.19,9.49,9.49,0,0,1,.06-19A9.38,9.38,0,0,1,182.65,133.29Z"/><path class="cls-1" d="M148,85.69a9.6,9.6,0,0,1,9.74,9.3c.13,4.93-4.49,9.61-9.54,9.68s-9.54-4.45-9.65-9.57C138.42,90.18,142.83,85.79,148,85.69Z"/><path class="cls-1" d="M85.49,95.28a9.29,9.29,0,0,1-9.56,9.4,9.53,9.53,0,0,1,.2-19.06A9.5,9.5,0,0,1,85.49,95.28Z"/><path class="cls-1" d="M189.2,184.35a9.2,9.2,0,0,1-9.42-9.48,9.32,9.32,0,0,1,9.29-9.43,9.77,9.77,0,0,1,9.68,9.65A9.56,9.56,0,0,1,189.2,184.35Z"/><path class="cls-1" d="M112.12,72a9.7,9.7,0,0,1-9.42-9.69c.06-4.9,4.65-9.32,9.64-9.3a9.81,9.81,0,0,1,9.45,9.66A9.42,9.42,0,0,1,112.12,72Z"/><path class="cls-1" d="M35.19,210.42a9.58,9.58,0,0,1,9.64,9.42,9.69,9.69,0,0,1-9.39,9.47,9.39,9.39,0,0,1-9.52-9.46A9.27,9.27,0,0,1,35.19,210.42Z"/><path class="cls-1" d="M30.91,166.33c3.18-2,8.46-.66,10.94,2.19a9.12,9.12,0,0,1,1.27,10.89c-1.84,1.77-3.39,3.8-6.21,4.36a9.36,9.36,0,0,1-10.61-5.29,9.11,9.11,0,0,1,3.38-11.2A4.19,4.19,0,0,0,30.91,166.33Z"/><path class="cls-1" d="M60.06,133.5a1.49,1.49,0,0,1-.3,1.43c-1,2-1.83,4.06-3.61,5.53-4.22,3.08-9,2.6-12.58-1.26-3.21-3.47-3.15-8.7.14-12.49a2.3,2.3,0,0,0,1.15-.66c5.77-5.18,14.06-.8,14.81,5.73A3,3,0,0,0,60.06,133.5Z"/><path class="cls-1" d="M183.26,227.16c-4.74-3.25-4.88-11.35.23-14.79,2.54-1.12,5-2.27,8-1.35,3.41,1.07,5.7,3.16,6.44,6.75a8.89,8.89,0,0,1-3.86,9.61,8.42,8.42,0,0,1-8.95.63A9.42,9.42,0,0,0,183.26,227.16Z"/></svg>