<svg id="Layer_2" data-name="Layer 2" xmlns="http://www.w3.org/2000/svg" viewBox="0 0 595.28 566.93"><defs><style>.cls-1{fill:#094e92;}.cls-2{fill:#c19560;}</style></defs><path class="cls-1" d="M235.75,85.16v131H187s-2.84-23.14,9.47-31.35c0,0-9.75-4.1-9.75-15.15a22.24,22.24,0,0,1,8.17-17.05,16.78,16.78,0,0,1-8.17-14.9c0-10.74,7.15-15.42,7.15-15.42S163,97.06,183.5,70.54C199.53,49.82,231.17,59.49,235.75,85.16Z"/><path class="cls-1" d="M196.8,216.19s-33.51,283.22,24.62,310.92c0,0,27.75,14.21,62.05,5.3,0,0-24.47-20.3-32.52-40.66-4.21-10.65-9.33-22.47-12.95-54.88-9.12-81.78-11.37-220.68-11.37-220.68Z"/><path class="cls-1" d="M331.18,85.16v131H380s2.84-23.14-9.48-31.35c0,0,9.76-4.1,9.76-15.15a22.23,22.23,0,0,0-8.18-17.05,16.78,16.78,0,0,0,8.18-14.9c0-10.74-7.15-15.42-7.15-15.42S404,97.06,383.44,70.54C367.41,49.82,335.76,59.49,331.18,85.16Z"/><path class="cls-1" d="M370.14,216.19s33.51,283.22-24.63,310.92c0,0-27.75,14.21-62,5.3,0,0,24.47-20.3,32.52-40.66,4.21-10.65,9.33-22.47,12.95-54.88,9.12-81.78,11.36-220.68,11.36-220.68Z"/><path class="cls-1" d="M176.45,122.4s-19.67-17.12-13.26-44.14c8.53-35.9-40.57-35-42.69-3.69C118.71,101,132.41,130.53,176.45,122.4Z"/><path class="cls-2" d="M219,50.68s34.81,8.42,38.37,41.37S283.47,498.7,283.47,498.7V92.05S256.68,50.68,219,50.68Z"/><path class="cls-2" d="M347.91,50.68S313.1,59.1,309.55,92.05,283.47,498.7,283.47,498.7V92.05S310.26,50.68,347.91,50.68Z"/><path class="cls-2" d="M176.45,129.27s-42.84,11.37-60.2-22.42c0,0,1.58,30.31-32.84,38.21,0,0,43.1,4.26,42.78,25.73,0,0,13.23-13.93,23.21-20C167.79,139.69,176.45,129.27,176.45,129.27Z"/><path class="cls-2" d="M176.45,138s-31.91,248.5,0,351.51c0,0-61.78-53-25.63-298.15,0,0-34.89,8.69-32.36,62.37,0,0-17.68-43,4.1-67.57S158,159.58,176.45,138Z"/><path class="cls-1" d="M70.46,156.34c23.32-9,47.46.87,44.84,19.11-7.58,52.81-54,45.7-73.88,99.24C41.42,274.69,13.87,178.12,70.46,156.34Z"/><path class="cls-1" d="M126,274.69S72.67,319,54.2,309.72c0,0,47.75,117,83.12,141.38C137.32,451.1,103.65,339.78,126,274.69Z"/><path class="cls-2" d="M111.69,255.25s-15.1-21.31-8.7-34.33c0,0-14.08,9.32-24.16,17.17-21.9,17-34.61,44.62-34.61,44.62l6.9,18.72s16.62,3.21,37.7-10.29,30-23.44,30-23.44Z"/><path class="cls-1" d="M390.48,122.4s19.68-17.12,13.26-44.14c-8.52-35.9,40.58-35,42.7-3.69C448.22,101,434.53,130.53,390.48,122.4Z"/><path class="cls-2" d="M390.48,129.27s42.84,11.37,60.21-22.42c0,0-1.58,30.31,32.84,38.21,0,0-43.1,4.26-42.79,25.73,0,0-13.23-13.93-23.21-20C399.14,139.69,390.48,129.27,390.48,129.27Z"/><path class="cls-2" d="M390.48,138s31.92,248.5,0,351.51c0,0,61.79-53,25.63-298.15,0,0,34.89,8.69,32.37,62.37,0,0,17.68-43-4.11-67.57S408.9,159.58,390.48,138Z"/><path class="cls-1" d="M496.47,156.34c-23.32-9-47.45.87-44.83,19.11,7.57,52.81,54,45.7,73.88,99.24C525.52,274.69,553.07,178.12,496.47,156.34Z"/><path class="cls-1" d="M441,274.69s53.28,44.27,71.75,35c0,0-47.74,117-83.12,141.38C429.61,451.1,463.28,339.78,441,274.69Z"/><path class="cls-2" d="M455.25,255.25s15.09-21.31,8.7-34.33c0,0,14.07,9.32,24.15,17.17,21.91,17,34.62,44.62,34.62,44.62l-6.91,18.72s-16.62,3.21-37.69-10.29-30-23.44-30-23.44Z"/></svg>