<svg id="Layer_1" data-name="Layer 1" xmlns="http://www.w3.org/2000/svg" viewBox="0 0 472.97 481.49"><defs><style>.cls-1{fill:#be986a;}</style></defs><path class="cls-1" d="M186.37,301.87c-1.64-1.52-2.88-2.69-4.15-3.84-7.53-6.79-16.27-10.64-26.49-10.2-13.29.57-24.46,5.72-32.53,16.56-4.12,5.54-4.43,11.64-1.41,17.84,1.83,3.77,4.89,6.31,9.07,6.06,4.49-.25,8.84-1.7,11.32-6a39.05,39.05,0,0,0,2.21-5c.79-2,1.86-2.35,3.51-.93,4.18,3.59,6.26,11.59,4.49,16.86-3,8.83-8.89,14.51-17.92,16.82-14.83,3.79-32.6-8.45-34.27-23.69-2.56-23.45,11.8-48.15,38.89-53.46,16.47-3.23,32,.35,44.61,11.12,15.64,13.35,26.91,30.13,31.69,50.56a32,32,0,0,1-.15,16.63,8.15,8.15,0,0,1-1.66,2.22,7.67,7.67,0,0,1-1.45-2.13c-4.16-14.85-13.47-25-27.71-30.77-3.24-1.31-6.63-2.23-9.88-3.5s-3.8-3.33-1.69-6.1A21.65,21.65,0,0,1,183,303.21C184,302.88,184.87,302.47,186.37,301.87Z"/><path class="cls-1" d="M317.57,295.19Z"/><path class="cls-1" d="M465.83,260.67c-.2-.59-.24-1.38-.65-1.75-4.74-4.27-9.23-8.89-14.37-12.63C436.34,235.74,420,229.68,402.32,227c-19.81-3-39.28-1.83-58.26,5.12a105.85,105.85,0,0,0-32.34,19,104.18,104.18,0,0,0-23.55,27.63c-9,15.79-12.67,33-13.76,51-.77,12.72-1.61,44.3,13.38,68.06,29.58,46.89,66.68,61.67,66.68,61.67-14.68-18.68-21.25-26.13-24.6-40-4.8-19.85,5.12-37.48,13.54-45.74,10.26-10.07,37-16.51,40.22-17.82-.77-.7-1.14-1.28-1.65-1.46-3.29-1.14-6.53-2.69-9.93-3.2-18.34-2.72-38,7.34-47.32,23.4-5.79,9.93-6.57,20.5-5.7,31.48.4,5,1,10.08,1.47,15.5-.68-.54-1-.78-1.36-1.07a69.51,69.51,0,0,1-15.2-19.91c-2.74-5.41-6-11.11-6.6-16.93-1.57-14.79,4.46-26.85,16.56-35.57,9.42-6.78,20.32-9.07,31.71-9.55,1.21-.05,2.41-.32,4.28-.58-1.86-1.87-2.94-3.4-4.4-4.36-12.56-8.19-26.1-9.9-40.46-5.87a13.59,13.59,0,0,1-1.93.27,1.5,1.5,0,0,1,.72-1.11c.37-.25.74-.48,1.09-.73a84.09,84.09,0,0,1,48-16.22c7.94-.19,15.91.7,23.87,1a13,13,0,0,0,3-.55c-.38-1-.5-2.27-1.21-2.93-2.92-2.76-5.77-5.69-9.08-7.9-14-9.3-29.52-12.35-46.08-10.92a9.24,9.24,0,0,0-1.81.51c.12-1,.19-1.2.33-1.26.63-.29,1.28-.55,1.93-.81,17.81-7,36.37-9.47,55.38-8.54a193.92,193.92,0,0,1,37.62,5.7c1.07.27,2.3-.09,4-.2-3.26-5.55-7.6-8.9-11.8-12.23-14.35-11.41-31.29-15.34-49.49-16.2.46-.45.6-.71.8-.78,2.16-.73,4.3-1.49,6.48-2.12,15.88-4.6,32.14-5.27,48.48-4.26,16.88,1.05,33.35,4,48.44,12.29C464.27,261.08,465.13,260.73,465.83,260.67Z"/><path class="cls-1" d="M286.61,179.62c1.63,1.52,2.88,2.69,4.15,3.84,7.52,6.79,16.27,10.65,26.49,10.2,13.28-.57,24.46-5.72,32.53-16.56,4.12-5.53,4.43-11.63,1.41-17.84-1.83-3.77-4.9-6.3-9.08-6.06-4.49.26-8.84,1.7-11.32,6.05a37,37,0,0,0-2.2,5c-.8,2-1.86,2.35-3.51.93-4.18-3.58-6.26-11.59-4.49-16.86,3-8.83,8.89-14.51,17.92-16.82,14.83-3.79,32.6,8.46,34.26,23.7,2.57,23.45-11.79,48.14-38.88,53.45-16.47,3.23-32-.35-44.61-11.12-15.65-13.35-26.91-30.12-31.69-50.56a31.91,31.91,0,0,1,.15-16.63c.25-.83,1.09-1.48,1.65-2.22a8.26,8.26,0,0,1,1.46,2.13c4.15,14.85,13.47,25.05,27.71,30.78,3.24,1.3,6.62,2.22,9.88,3.49s3.79,3.33,1.68,6.1A21.61,21.61,0,0,1,290,178.28C289,178.62,288.1,179,286.61,179.62Z"/><path class="cls-1" d="M7.14,220.82c.21.6.24,1.38.65,1.75,4.74,4.27,9.24,8.89,14.37,12.63,14.47,10.55,30.86,16.61,48.5,19.3,19.81,3,39.28,1.83,58.25-5.12a105.58,105.58,0,0,0,32.35-19,104.36,104.36,0,0,0,23.55-27.63c9-15.78,12.66-33,13.75-50.95.78-12.73,1.61-44.31-13.37-68.06C155.61,36.81,118.51,22,118.51,22c14.68,18.69,21.24,26.14,24.6,40,4.8,19.86-5.12,37.48-13.55,45.74-10.25,10.07-37,16.51-40.22,17.83.78.69,1.15,1.27,1.65,1.45,3.29,1.14,6.54,2.7,9.93,3.2,18.34,2.72,38-7.34,47.33-23.4C154,97,154.81,86.37,154,75.39c-.4-5-1-10.08-1.48-15.49.69.53,1.05.77,1.36,1.06A69.45,69.45,0,0,1,169,80.88c2.73,5.4,6,11.1,6.59,16.92,1.57,14.8-4.46,26.86-16.56,35.57-9.42,6.78-20.31,9.08-31.7,9.55-1.21.05-2.41.32-4.29.58,1.86,1.87,3,3.41,4.41,4.36,12.56,8.19,26.1,9.91,40.46,5.87a15.3,15.3,0,0,1,1.92-.27,1.52,1.52,0,0,1-.72,1.12c-.36.24-.73.47-1.09.72a84,84,0,0,1-48,16.22c-7.94.19-15.91-.7-23.86-1a13.57,13.57,0,0,0-3,.55c.39,1,.51,2.27,1.21,2.94,2.92,2.75,5.77,5.69,9.09,7.89,14,9.3,29.51,12.35,46.07,10.93a9.8,9.8,0,0,0,1.81-.52c-.12,1-.19,1.2-.32,1.26-.64.29-1.29.55-1.93.81-17.82,7-36.37,9.47-55.39,8.54a193.28,193.28,0,0,1-37.62-5.7c-1.07-.27-2.29.1-4,.2,3.27,5.55,7.61,8.9,11.8,12.24C78.27,221,95.21,225,113.41,225.82c-.45.45-.59.71-.8.78-2.15.73-4.3,1.49-6.48,2.13C90.26,233.32,74,234,57.66,233c-16.88-1-33.35-4-48.44-12.29C8.71,220.41,7.84,220.77,7.14,220.82Z"/><path class="cls-1" d="M251.67,200.17h0Z"/></svg>