<svg width="95" height="97" viewBox="0 0 95 97" fill="none" xmlns="http://www.w3.org/2000/svg">
<path d="M37.4339 60.8143C37.1045 60.5081 36.8555 60.2724 36.6004 60.0407C35.0879 58.6728 33.3324 57.8972 31.2796 57.9858C28.6102 58.1007 26.3666 59.1382 24.7457 61.322C23.9182 62.4381 23.8559 63.667 24.4625 64.916C24.8301 65.6755 25.4447 66.1872 26.2843 66.1368C27.1862 66.0865 28.0599 65.7944 28.558 64.9281C28.7293 64.6031 28.8776 64.2666 29.0019 63.9208C29.1606 63.5179 29.3755 63.4474 29.7069 63.7334C30.5465 64.4567 30.9643 66.0683 30.6088 67.13C30.0062 68.9089 28.8231 70.0532 27.0094 70.5186C24.0307 71.2821 20.4614 68.8162 20.126 65.746C19.6118 61.0218 22.4961 56.0458 27.9374 54.9761C31.2455 54.3254 34.3648 55.0466 36.8977 57.2163C40.0391 59.9057 42.3028 63.2862 43.2629 67.402C43.5474 68.5019 43.537 69.6577 43.2327 70.7522C43.1479 70.9193 43.0351 71.0706 42.8993 71.1995C42.7788 71.0739 42.6803 70.9289 42.6081 70.7704C41.7725 67.7787 39.9025 65.7339 37.0423 64.5715C36.3915 64.3076 35.7106 64.1223 35.0578 63.8664C34.405 63.6106 34.2945 63.1956 34.7183 62.6375C35.2271 61.9263 35.9375 61.3851 36.7571 61.0843C36.9579 61.0178 37.1327 60.9352 37.4339 60.8143Z" fill="#D86F3A"/>
<path d="M93.5658 52.5139C93.5257 52.3951 93.5176 52.2359 93.4353 52.1614C92.4832 51.3012 91.5814 50.3704 90.5489 49.617C87.6425 47.4916 84.3605 46.2708 80.8093 45.7308C76.8303 45.1265 72.9196 45.3622 69.1073 46.7623C66.7321 47.6402 64.5323 48.9364 62.6115 50.59C60.7221 52.1535 59.1211 54.0375 57.8813 56.1563C56.0736 59.3373 55.3365 62.8044 55.1175 66.4307C54.9629 68.9932 54.7941 75.3552 57.805 80.1419C63.7464 89.5882 71.1982 92.5658 71.1982 92.5658C68.2496 88.8026 66.93 87.3017 66.2571 84.5075C65.293 80.5085 67.2855 76.9568 68.9767 75.2928C71.0376 73.2641 76.4085 71.9667 77.0553 71.7028C76.9006 71.5618 76.8263 71.4449 76.7239 71.4087C76.063 71.179 75.4122 70.8668 74.7293 70.764C71.0456 70.2161 67.0967 72.2427 65.2247 75.4781C64.0617 77.4786 63.9051 79.608 64.0798 81.82C64.1602 82.8273 64.2807 83.8507 64.3751 84.9426C64.2385 84.8338 64.1742 84.7855 64.1019 84.7271C62.8505 83.5865 61.816 82.2275 61.0489 80.716C60.4985 79.6262 59.8437 78.4778 59.7232 77.3054C59.4079 74.3258 60.619 71.8962 63.0494 70.1395C64.9415 68.7736 67.1309 68.3123 69.4186 68.2156C69.6617 68.2055 69.9027 68.1511 70.2783 68.0987C69.9047 67.722 69.6878 67.4138 69.3945 67.2204C66.8717 65.5704 64.1521 65.2259 61.2678 66.0378C61.14 66.0652 61.0105 66.0834 60.8801 66.0922C60.8856 66.0463 60.9015 66.0023 60.9265 65.9635C60.9516 65.9248 60.9852 65.8923 61.0248 65.8686C61.0991 65.8182 61.1734 65.7719 61.2437 65.7215C64.0461 63.664 67.4127 62.523 70.8849 62.4539C72.4797 62.4156 74.0806 62.5949 75.6794 62.6553C75.8839 62.6422 76.0861 62.605 76.282 62.5445C76.2056 62.3431 76.1815 62.0872 76.0389 61.9543C75.4524 61.3982 74.88 60.808 74.2151 60.3627C71.4031 58.4892 68.2858 57.8747 64.9596 58.1628C64.8352 58.1846 64.7134 58.219 64.596 58.2656C64.6201 58.0641 64.6342 58.0238 64.6623 58.0117C64.7888 57.9533 64.9194 57.9009 65.05 57.8485C68.6272 56.4383 72.3552 55.9407 76.1735 56.1281C78.7237 56.2615 81.2546 56.6461 83.7298 57.2764C83.9447 57.3308 84.1918 57.2583 84.5332 57.2361C83.8784 56.118 83.0067 55.4431 82.1631 54.7723C79.2808 52.4736 75.8782 51.6819 72.2226 51.5087C72.315 51.418 72.3431 51.3656 72.3833 51.3515C72.8172 51.2045 73.247 51.0514 73.6849 50.9244C76.8745 49.9977 80.1405 49.8627 83.4225 50.0662C86.813 50.2778 90.1211 50.8721 93.1521 52.5421C93.2525 52.5965 93.4252 52.526 93.5658 52.5139Z" fill="#D86F3A"/>
<path d="M57.568 36.1861C57.8954 36.4923 58.1465 36.728 58.4016 36.9597C59.912 38.3276 61.6695 39.1052 63.7223 39.0146C66.3897 38.8998 68.6353 37.8623 70.2562 35.6784C71.0838 34.5644 71.146 33.3355 70.5395 32.0844C70.1719 31.3249 69.5552 30.8153 68.7157 30.8636C67.8138 30.916 66.9401 31.2061 66.4419 32.0824C66.2701 32.4068 66.1224 32.7435 66 33.0897C65.8394 33.4926 65.6265 33.5631 65.295 33.2771C64.4554 32.5558 64.0377 30.9422 64.3932 29.8805C64.9958 28.1016 66.1788 26.9573 67.9926 26.492C70.9713 25.7284 74.5405 28.1963 74.874 31.2665C75.3902 35.9907 72.5059 40.9647 67.0646 42.0344C63.7565 42.6852 60.6371 41.9639 58.1043 39.7942C54.9609 37.1048 52.6992 33.7263 51.7391 29.6085C51.4537 28.5087 51.4641 27.3527 51.7692 26.2583C51.8194 26.0911 51.9882 25.9601 52.1006 25.811C52.2202 25.9378 52.3192 26.0826 52.3939 26.2401C53.2275 29.2318 55.0995 31.2867 57.9597 32.441C58.6105 32.7029 59.2894 32.8883 59.9442 33.1441C60.599 33.4 60.7054 33.815 60.2816 34.373C59.7733 35.0799 59.0652 35.6174 58.2489 35.9162C58.0481 35.9847 57.8673 36.0612 57.568 36.1861Z" fill="#D86F3A"/>
<path d="M1.43408 44.486C1.47626 44.6069 1.48229 44.764 1.56464 44.8386C2.51671 45.6988 3.42057 46.6295 4.45098 47.383C7.3574 49.5084 10.6495 50.7292 14.1926 51.2711C18.1716 51.8755 22.0823 51.6398 25.8926 50.2396C28.269 49.363 30.4697 48.0667 32.3904 46.4119C34.2792 44.848 35.8802 42.964 37.1206 40.8457C38.9283 37.6667 39.6635 34.1975 39.8824 30.5814C40.0391 28.0168 40.2058 21.6548 37.1969 16.8701C31.2555 7.41572 23.8037 4.43213 23.8037 4.43213C26.7523 8.19738 28.0699 9.69824 28.7448 12.4904C29.7089 16.4914 27.7164 20.0411 26.0232 21.7051C23.9644 23.7338 18.5914 25.0312 17.9446 25.2971C18.1013 25.4361 18.1756 25.553 18.2761 25.5892C18.9369 25.8189 19.5897 26.1332 20.2706 26.2339C23.9543 26.7819 27.9032 24.7552 29.7772 21.5198C30.9321 19.5415 31.0948 17.4 30.9321 15.188C30.8518 14.1807 30.7313 13.1573 30.6349 12.0674C30.7735 12.1742 30.8458 12.2225 30.908 12.2809C32.1541 13.4233 33.1831 14.783 33.945 16.294C34.4934 17.3818 35.1502 18.5302 35.2687 19.7026C35.584 22.6842 34.3729 25.1138 31.9425 26.8685C30.0504 28.2344 27.863 28.6977 25.5753 28.7924C25.3322 28.8025 25.0912 28.8569 24.7136 28.9093C25.0872 29.286 25.3161 29.5962 25.5994 29.7876C28.1221 31.4376 30.8418 31.7841 33.7261 30.9702C33.8534 30.9439 33.9822 30.9257 34.1117 30.9158C34.1063 30.9619 34.0904 31.0062 34.0654 31.0453C34.0403 31.0844 34.0067 31.1173 33.9671 31.1414C33.8948 31.1898 33.8205 31.2361 33.7482 31.2865C30.9464 33.345 27.5794 34.4862 24.107 34.5541C22.5122 34.5924 20.9113 34.4131 19.3145 34.3527C19.1101 34.3668 18.908 34.4039 18.7119 34.4635C18.7903 34.6649 18.8144 34.9208 18.955 35.0558C19.5415 35.6098 20.1139 36.2021 20.7808 36.6453C23.5928 38.5188 26.7081 39.1333 30.0343 38.8472C30.1586 38.8241 30.2803 38.789 30.3979 38.7424C30.3738 38.9439 30.3597 38.9842 30.3336 38.9963C30.205 39.0547 30.0745 39.1071 29.9459 39.1595C26.3666 40.5697 22.6407 41.0673 18.8204 40.8799C16.2701 40.7473 13.7391 40.3627 11.2641 39.7316C11.0492 39.6772 10.8041 39.7517 10.4607 39.7719C11.1175 40.89 11.9892 41.5649 12.8308 42.2377C15.7211 44.5223 19.1237 45.3281 22.7793 45.4933C22.6889 45.584 22.6608 45.6363 22.6186 45.6504C22.1868 45.7975 21.7549 45.9506 21.3171 46.0795C18.1294 47.0042 14.8635 47.1412 11.5814 46.9398C8.19096 46.7383 4.88282 46.1339 1.85187 44.4638C1.74943 44.4034 1.57468 44.4759 1.43408 44.486Z" fill="#D86F3A"/>
</svg>
