<svg id="Layer_2" data-name="Layer 2" xmlns="http://www.w3.org/2000/svg" viewBox="0 0 595.28 566.93"><defs><style>.cls-1{fill:#c19560;}.cls-2{fill:#094e92;}</style></defs><path class="cls-1" d="M489.45,347.24c7.66,6.11,15.14,12.14,24.36,15.57,7.51,2.78,15.07,4.35,23.08,2.36,2.79-.69,4.94.81,5.92,3.58a17.7,17.7,0,0,1-15.92,23.57c-5.78.33-11.06-1.28-16.24-3.44-1.59-.66-2.93-1.93-4.64-3.1a4.15,4.15,0,0,0,.17,1.38c8.54,15.68,13.92,32.56,19.13,49.54,2.1,6.85,4.92,13.5,7.64,20.15,1.84,4.51,5.63,7.1,10.08,8.63a10.62,10.62,0,0,0,4.43.14c3.41-.36,4.93.47,5.57,3.72,2.22,11.27-3,20.16-14.66,23.12-8,2-14.26-.44-19.72-6.29-6.89-7.38-10-16.41-12.11-26-.22-1-.45-2-.67-3h-.77c0,2.55.17,5.11,0,7.63-1.37,17.17-8.58,31.53-21.16,43.2-10.17,9.43-21.7,16.77-35.19,20.22-12.48,3.2-25.45,3.91-37.77,0-22.14-7-38.82-20.13-43.35-44.41-2.73-14.63,1.06-27.59,11-39.05,8.82-10.17,19.92-14.18,32.7-13.44,17,1,29.67,13.6,28.76,30.15a18.63,18.63,0,0,1-22.26,17.65c-7.07-1.52-12.43-8.13-5.9-16.65l1.06-1.35c-5.06-1.39-8.83.69-12.33,3.31-4.21,3.15-5.07,7.74-4.24,12.56,2.14,12.37,10.27,20.23,22.73,22.1,16.77,2.53,31.08-2.26,42.88-14.53,12.84-13.35,19.3-29.75,22.8-47.55a94.17,94.17,0,0,0,.12-37.1c-3.63-18.08-10.86-34.5-22.74-48.75-1-1.23-2-2.53-3-3.76a.82.82,0,0,0-.53-.2c1.34,5.49,3,11,4,16.71,2.11,12.43,1.48,24.92-6.4,35.13-8.14,10.57-18.34,18.8-32.85,19.66-11.64.7-20.66-3.66-27.06-13-4.38-6.37-6.2-13.67-3.52-21.41a15.3,15.3,0,0,1,7.77-9.07c3.67-1.82,6.65-.77,8.46,2.86,1.51,3,3.15,5.9,6.37,7.43,4.42,2.1,9.64,1,13.59-2.74a17.83,17.83,0,0,0,5.71-11.78c.56-7.35,1.5-14.76-1.19-22-4.82-12.88-21.63-25-36-21.56a21.21,21.21,0,0,0-4.23,1.59c-2.84,1.35-5.38.32-6-2.74-2.06-9.61,1.47-16.05,10.67-20.76,7.64-3.91,15.73-3.41,23.71-2.45,11.29,1.36,21.67,6,32.22,10,12.16,4.6,24.29,9.21,37.75,8.47a37.72,37.72,0,0,0,25.61-11.43,14.88,14.88,0,0,0,4-9.52c.09-.95.1-1.9.15-2.85.4-7.7,6-9.33,11.79-6.63,5.55,2.59,8.3,7.73,10.31,13.13,6.81,18.34-3.1,37.84-23.4,42.42-9.88,2.23-19.88,3-29.82,0C490.11,346.8,489.93,347,489.45,347.24Z"/><path class="cls-2" d="M146,220.75c-1.7-3.11-3.43-6.19-5.09-9.32-5.06-9.55-10.16-19.08-15.12-28.68-5.94-11.49-12-23-20.92-32.43-4.08-4.31-9.35-7.06-15.77-6.53-2.68.22-4.86,1.13-6.16,3.46s-.06,4.22,1.19,6.06a14.41,14.41,0,0,0,1.46,1.75c3.65,3.84,2.9,7.5-2.19,9.27-7.66,2.67-14.65.93-20.68-4.24-7.82-6.69-10.21-19.4-5.55-29.58,5.28-11.57,13.87-19.42,26.58-22,10.42-2.09,20,.35,28.59,6.5,9.19,6.6,14.63,16,18.84,26.25,2.15,5.22,4.05,10.53,6.07,15.82.21-.14.47-.23.47-.33.29-12.91.93-25.86-1.76-38.6-1.52-7.24-3.39-14.43-8.34-20.33a20.3,20.3,0,0,0-15.86-7.7c-5.57-.1-8.12-3.29-6.79-8.73,2.65-10.86,10.44-16.39,20.64-19,17.16-4.3,28.53,5.94,33.57,21.6.28.87.56,1.74,1,3.08A55.89,55.89,0,0,1,171.8,71.71c13-12.57,30.73-10.12,42.12-.41,7.29,6.22,9.59,18.5,5.28,27.23-1,2-2.78,2.56-4.06.91-4.51-5.8-16.6-5.74-22-1.79a124.94,124.94,0,0,0-14.61,12.14c-13.62,13.44-19.88,30.68-24.27,48.77a13.89,13.89,0,0,0-.17,4.92c1-2.66,2-5.35,3.13-8,5.34-12.52,14-21.9,26.73-27,10-4,27.34-.55,30.93,14.8,1.33,5.66-.13,11.17-3.34,16-1.28,1.91-3.55,3-5.77,1.53-8.65-5.58-16-1.77-23.07,3.19-9,6.36-12.56,16-14.24,26.34-2.17,13.38-1,26.44,5.84,38.36,3.48,6,8.08,11.46,12.21,17.15.16.23.58.28.63.3-1.32-3.72-3.17-7.4-3.86-11.28-1.08-6.15-1-12.42,3.28-17.64,3.08-3.79,7.26-5.12,10.54-3.74s6.3,6.31,5.92,10.53a47.87,47.87,0,0,0,7.45,30.12c4.73,7.52,10.53,14.39,16.1,21.35,2,2.45,2.59,4.47,1.17,7.42-2.22,4.65-4.33,9.26-8.19,12.89-1.78,1.67-3,1.44-4.9.32-6-3.64-12-7.43-18.21-10.59-10.82-5.47-22.25-9.54-34.5-9.55-6.66,0-13.4,1.22-19.94,2.62-4.8,1-8.25,4.6-10.65,8.91-2.12,3.82-1.33,8.13,2.06,11.69,1.23,1.29,2.72,2.73,1.39,4.37A6.75,6.75,0,0,1,130.4,306c-5.46.22-11.07.83-15.92-2.78-6.69-5-9.66-11.49-9-19.94.88-11.11,7-18.79,15.92-24.25,4-2.42,9-3.48,13.73-4.07a74.64,74.64,0,0,1,16.23.07c4,.38,7.79,1.88,11.64,2.87a1.32,1.32,0,0,0-.43-.86c-7.36-5.53-14.53-11.36-22.19-16.43a196.84,196.84,0,0,0-22-12.54,37,37,0,0,0-25.6-3c-8.06,2-10.68,10.72-9.58,15.66.71,3.21,2.42,4.54,5.6,5.19,1.24.26,3,1.16,3.26,2.12a4.81,4.81,0,0,1-1.17,4c-6.18,6.24-18.79,8.11-28.14,1.82C42.69,240.2,46,213.83,60.07,201.94c11.17-9.46,23.6-11.74,37.48-9.93,12.68,1.65,22.89,8.37,32.65,15.84,4.8,3.67,9,8.11,13.5,12.2.47.43,1,.84,1.45,1.26Z"/><path class="cls-2" d="M431.71,258.34c1.7-.52,3.25-1,4.82-1.47,10.48-2.85,21.13-3.65,31.37.27,10.81,4.14,20.83,15.88,21.09,29.13.25,12-9,20.68-20.67,20a21.1,21.1,0,0,1-5.87-.75c-3.18-1.14-3.6-4.17-1.18-6.52,3.93-3.8,3.9-9.22.19-13.28-6.18-6.75-14.12-9.29-22.91-9.91-14.52-1-27.79,3.26-40.42,9.86-6.39,3.34-12.57,7.07-18.74,10.8-2.57,1.55-4.11-.57-4.91-1.73a97.54,97.54,0,0,1-7.47-13c-.52-1.1.25-3.39,1.17-4.53,7.86-9.69,15.46-19.57,19.83-31.4a100.83,100.83,0,0,0,4.11-15.92c.56-2.92-.15-6.06.19-9,.39-3.41,1.68-6.42,5.62-7.37s7.11.22,9.92,3.23c5.15,5.53,4.19,12.16,3.52,18.63-.3,2.94-1.7,5.78-2.65,8.64a6.93,6.93,0,0,0-.64,3.39c1.8-2.3,3.62-4.59,5.41-6.9,5.93-7.64,11.29-15.68,12.73-25.44,2.13-14.48,2.08-28.9-5.4-42.12-4.36-7.7-11.3-12.46-19.91-14.52-4.11-1-7.85.87-11.57,2.26-3.31,1.24-4.58,1-6.42-2-4.07-6.57-5.14-13.43-1.4-20.52s10.07-9.89,17.68-10.63c11.9-1.17,20.54,4.82,28.24,12.79a46.79,46.79,0,0,1,11.79,20.82c.11.43.41.8,1.23,1-.42-2.45-.71-4.94-1.29-7.36C435,137.35,428.36,121.17,415.8,108c-5.93-6.23-12.48-11.36-21.53-12.2-5.51-.51-10.79-.74-14.8,4.14-1.18,1.43-3,.7-3.68-1.17-6.12-17.8,3.4-29.33,18.46-33.94,12.87-3.94,24-.25,32.69,10.11,3.05,3.65,5.57,7.75,8.38,11.73,1.08-2.87,2.05-5.91,3.32-8.81,6.19-14.21,21.3-20.11,35.53-13.88,7.58,3.31,14,7.89,15.81,16.58a15.19,15.19,0,0,1-.62,7c-.61,2.11-2.72,2.66-4.87,2.57-8.71-.34-14.4,4.41-18.74,11.27-3.28,5.19-4.67,11.11-6.46,16.92-3.24,10.53-1.43,21.25-2,31.86a23.75,23.75,0,0,0,.64,7.39c.23-.52.51-1,.69-1.57,4.19-12.78,9.2-25.15,18.17-35.46,9.8-11.26,28.14-15.63,42.06-10.15,14.7,5.79,24.57,23.32,21.23,37.69-2.4,10.33-10.6,17.48-21.2,17.9a20,20,0,0,1-8.49-1.92c-3.71-1.65-4-4.87-1.23-7.72a13.7,13.7,0,0,0,2-2.35c3-5-.07-10.38-5.9-10.42a19.25,19.25,0,0,0-14.05,5.68c-5.5,5.29-9.54,11.59-13.36,18-4,6.72-8.09,13.46-11.16,20.61a176.18,176.18,0,0,1-17.28,31.36,4.51,4.51,0,0,0-.31,1.77l.66.25c1.27-1.35,2.49-2.76,3.84-4a108.1,108.1,0,0,1,37-23,44.93,44.93,0,0,1,30.94-.36c13.72,4.72,22.64,14.63,25.08,29.14,2.41,14.25-4,26.24-16.71,32.89-8.3,4.33-16.8,3.46-24.17-2.85a5.34,5.34,0,0,1-1.82-4c.15-1,1.92-2.18,3.2-2.6,4.6-1.53,5.44-2.35,5.1-7.09-.53-7.39-3.21-11.58-10.28-14-9.05-3.09-17.32-.89-25.31,2.85-13.65,6.39-26,15-37.94,24.07-2.26,1.71-4.56,3.38-6.83,5.09C431.7,257.44,431.76,257.72,431.71,258.34Z"/><path class="cls-1" d="M134.9,347.29c-5.67,9.28-11.58,18.42-17,27.87-6.16,10.83-8.69,22.77-9.68,35.12a105.49,105.49,0,0,0,7.69,49c5.71,13.92,14.65,25.41,27.5,33.64,12,7.71,24.89,9,38.14,4.45,9.13-3.11,17-11.9,16.77-22.5-.15-6.93-3.3-13.53-11.93-13.66-2,0-3.92-.39-6.71-.69,1.22,1.13,1.78,1.7,2.4,2.2,4.47,3.62,4.64,9,.39,13-5,4.66-13.89,4.75-20,.2-5.91-4.43-8.92-13.68-7.3-20.93,2.91-13,10.95-21.28,23.85-23.29,13.75-2.15,26.41,1.35,36.53,11.68,9.11,9.3,12.95,20.74,12.49,33.43a51.86,51.86,0,0,1-11.4,30.69c-8.35,10.67-19.52,16.52-32.2,20.25-12.34,3.63-24.93,4.48-37.12.82C124.64,521.77,106.13,509,95.3,487a56.7,56.7,0,0,1-5.64-23.93c0-1.61-.17-3.21-.29-4.81,0-.11-.28-.2-.28-.19-2,5.64-3.58,11.46-6,17-3,6.93-7.51,12.78-14.44,16.31-11.64,5.94-27.36-1.55-26.94-16.13.06-2.07.4-4.13.56-6.19.21-2.8,2-3.62,4.36-3.18,6.23,1.19,10.39-1.85,13.86-6.41,3.88-5.09,5.49-11.17,7.5-17.11q8.11-24,16.63-47.79c1.09-3,3.25-5.68,5.29-9.14a24.15,24.15,0,0,0-2.33,1.1,31.41,31.41,0,0,1-20,5.22c-10.15-.68-15.13-7.08-16.1-16a23.06,23.06,0,0,1,.66-7c.72-3.53,2.79-4.59,6.25-3.72,7.29,1.85,14.3.44,21.25-1.87,8.22-2.74,14.73-8.18,21.42-13.35l4-3.09a72.27,72.27,0,0,1-7.83,1.39c-12.19.71-24,0-34.68-7.22S48.91,323.41,50,311.37a28.2,28.2,0,0,1,6.87-15.69,14.27,14.27,0,0,1,11.7-5.47A5.17,5.17,0,0,1,73.91,295c.19,1.21.43,2.41.71,3.61,2.85,12.07,12.12,20.44,24.45,22.47,12.1,2,23.53-.07,34.85-4.45,11.92-4.6,23.93-9.09,36.17-12.74a41.17,41.17,0,0,1,25.26.66c9.61,3.32,15.24,11.33,12.13,22.42-.77,2.73-3.48,3.42-6.83,2.31-2.93-1-6-2.06-9-2.09-16.91-.16-31.67,14.56-31.78,31.51a95,95,0,0,0,.63,13.07c.75,5.73,3.55,10.36,8.85,13.16,6.73,3.57,13.52,1,16.28-6,1.8-4.61,6.07-5.66,10-2.46,6,4.91,7.49,11.23,6.39,18.67-1.72,11.58-13,21.75-24.92,23.37-13.52,1.84-24.35-3.53-33.26-13.13A45,45,0,0,1,132.32,384a58,58,0,0,1,.36-23.47c.74-3.62,1.85-7.15,2.79-10.73l.54-2.08Z"/><path class="cls-2" d="M282.78,85c-.66-3.59-1.51-7.16-1.94-10.78a50.27,50.27,0,0,1,5.61-30.28c.22-.42.49-.82.74-1.22,5.28-8.49,13.7-9.16,19.33-1a43.81,43.81,0,0,1,7.73,31.08c-.47,3.72-1.39,7.38-2.26,11.85.78-1.15,1.18-1.68,1.51-2.26,4.68-8.18,10.68-14.81,20.39-16.85a17,17,0,0,1,13.58,2.77,9,9,0,0,1,4,9.16c-.56,3.6-3.53,4.9-6.64,5.85-3.69,1.12-7.64,1.77-11,3.49a44.59,44.59,0,0,0-18.7,17.86,21.92,21.92,0,0,1-1.69,2.64c-2.4,3-5,5.24-9.36,4.77-5.94-.64-11.93-.77-17.89-1.27-3.42-.28-5.42-2.7-7.45-5.2-4.06-5-8.18-10-12.55-14.67-3.5-3.79-8.22-5.68-13.12-7.06-.91-.26-1.79-.59-2.68-.91-4.92-1.8-6.61-3.84-6.48-7.78s3.56-8.16,7.37-9.2c7.68-2.09,14.5-.26,20.42,4.85,4.27,3.67,8.09,7.77,9.92,13.31a4.32,4.32,0,0,0,.77,1.07Z"/><path class="cls-2" d="M283.52,438.93c.37,1.25,1,2.12.75,2.71-4,11-3.83,22.77-6.14,34.09-4,19.55-14.7,34.14-31.79,44-4.51,2.6-9.75,4-14.72,5.74a3.8,3.8,0,0,1-5.07-2c-1.07-2.28.07-3.94,1.74-5.49,3.88-3.6,8.05-7,11.43-11,7.06-8.41,10.4-18.7,12.88-29.16,2.81-11.86,8.7-21.5,18.36-28.9C275,445.84,279,442.57,283.52,438.93Z"/><path class="cls-1" d="M354.51,155.12a38.33,38.33,0,0,1,3.14,3.88,53.66,53.66,0,0,1,7.84,27.58,43.22,43.22,0,0,1-2.58,17c-4,10.1-11.81,16.24-21.77,19.46C336,224.76,330.37,225.14,325,226c-3,.48-6,.8-9,1.08-1.43.14-2.88,0-4.95,0,.84-1.42,1.29-2.21,1.76-3,2.89-4.79,6.17-9.38,8.58-14.4,3.09-6.44,7.62-11.52,12.84-16.17,8.67-7.73,15.6-16.66,18.35-28.21a89.28,89.28,0,0,0,1.26-9.58Z"/><path class="cls-1" d="M239.59,372.65c-1-.78-2.4-1.36-3-2.38A64.35,64.35,0,0,1,229,347.81a52.48,52.48,0,0,1,.79-16.69c2.62-13.64,11.46-21.65,24.23-25.28,6.87-1.95,14.18-2.35,21.29-3.51,2.68-.44,5.33-1.06,8.74-1.74-.76,1.57-1.23,2.72-1.85,3.77-3.3,5.54-6.35,11.26-10.05,16.52a83.62,83.62,0,0,1-9.62,10.76c-3.75,3.75-8.11,6.93-11.66,10.86-7.51,8.29-11.42,18.06-10.56,29.48Z"/><path class="cls-2" d="M340.78,438.47c2.73,6.85,2.77,13.73,2,20.64a67.77,67.77,0,0,0,7,38.87,66.42,66.42,0,0,0,17.88,21.83,3.22,3.22,0,0,1-1.21,5.74,8.69,8.69,0,0,1-3.93.14c-15.38-3-26.67-11.78-34.86-24.88a52.68,52.68,0,0,1-7.29-19.26c-1.45-8.5,1.59-15.29,7.1-21.59S338.61,447.23,340.78,438.47Z"/><path class="cls-1" d="M318.43,361.21c.9-2.53,1.53-4.41,2.23-6.25,1.62-4.26,3.51-8.42,4.85-12.76,2-6.61,6.31-11.84,10-17.48,3.17-4.84,6.46-9.7,8.8-15,1.89-4.24,2.4-9.09,3.63-13.64a18.07,18.07,0,0,1,1.47-3.08c.92.55,2.09.9,2.71,1.69,6.39,8.08,11.35,16.81,12,27.42.84,13.32-9,29.32-23.51,33.47q-9.58,2.75-19.19,5.4A16.52,16.52,0,0,1,318.43,361.21Z"/><path class="cls-1" d="M244.21,236.35a36,36,0,0,1-4.48-3.8c-7-8.22-10.21-18-10.61-28.56-.58-15.05,11-28.76,25.86-31.24,4.49-.75,9-1.25,13.55-1.76,3.59-.4,4.34.51,3.07,3.92-2.33,6.3-4.54,12.67-7.34,18.76-1.35,2.94-3.92,5.32-6,7.93-5.28,6.76-10.37,13.66-12.39,22.19C245,227.54,244.85,231.45,244.21,236.35Z"/><path class="cls-1" d="M315.21,271c-.54-3.81-1.24-8.57-1.88-13.34a2.42,2.42,0,0,1,.26-1.78,1.81,1.81,0,0,1,1.7.14c6.46,5.12,13.48,9.72,19.14,15.62s9.4,13.2,9.1,21.79c-.19,5.33-1.14,10.56-3.91,15.27-3.22,5.48-6.42,11-9.78,16.37A4.18,4.18,0,0,1,327,326.9c-.7,0-1.69-1.21-2.18-2.09-3.47-6.3-6.73-12.73-10.31-19a12.45,12.45,0,0,1-1.33-7.66C313.87,289.48,314.49,280.77,315.21,271Z"/><path class="cls-1" d="M285.16,229.5c2,1.69,4.3,3.42,6.39,5.32,3.31,3,6.5,6.14,9.75,9.2,5.59,5.26,7.52,12.15,8.6,19.39,1.63,11-.5,21.76-1.6,32.6-.24,2.34-1.72,3-3.67,1.59a44.17,44.17,0,0,1-5.48-4.54c-4.18-4.15-8.47-8.21-12.28-12.67a30,30,0,0,1-7.06-23.09c.69-7.26,1.73-14.48,2.74-21.7C282.84,233.5,282,230.85,285.16,229.5Z"/><path class="cls-1" d="M276.86,363a70.58,70.58,0,0,1,6,3.82c3.64,2.88,7.08,6,10.73,8.88,8.23,6.45,13,14.94,13.74,25.2.34,4.78-1.28,9.72-2.15,14.56-.68,3.73-1.56,7.42-2.39,11.12-.69,3.08-1.67,3.65-4.17,1.72-4.42-3.43-8.71-7.07-12.78-10.91a33.25,33.25,0,0,1-6.83-8.18c-3-5.8-3.82-12.19-3.3-18.78.54-6.81.79-13.65,1.12-20.48C276.94,368,276.86,366,276.86,363Z"/><path class="cls-1" d="M276.24,271a13.78,13.78,0,0,1-2.71-1.27c-7-5.48-14.31-10.74-19.68-18-3.72-5-4.54-10.81-4.53-17,0-11.1,4.56-20.19,11.54-28.36a12.65,12.65,0,0,1,2.63-2.59c1.58-1,3.5-1.47,4.6.59,2.53,4.76,4.82,9.65,7.28,14.45,4,7.8,2.8,15.91,1.3,24-1.68,8.94-2.61,17.84-.44,26.82A7.63,7.63,0,0,1,276.24,271Z"/><path class="cls-1" d="M271.68,403.83a12.74,12.74,0,0,1-3.27-.76c-4.94-2.85-9.7-5.93-13.26-10.58-2-2.61-4.67-4.77-6.43-7.53-6.19-9.7-5.53-19.85-.87-29.85,3.18-6.81,8.22-12.3,14-17.05,3.36-2.75,4.18-2.28,5.22,1.92,1.53,6.14,3.39,12.2,5,18.32a12.3,12.3,0,0,1,.4,3.63c-.46,11.1-1,22.2-1.43,33.31C271,397.87,271.44,400.51,271.68,403.83Z"/><path class="cls-1" d="M362.36,345.11c.69,9.07-2.47,16.37-6,23.54a55,55,0,0,1-26.09,25.68c-3.91,1.9-4.95,1.82-8.37-.93-5.55-4.46-11.18-8.82-16.71-13.29-2.88-2.32-2.77-3.72.49-5.49,5.79-3.13,10.85-7.51,17.61-9,6.37-1.37,12.59-3.51,18.81-5.5a37,37,0,0,0,17.59-12.07C360.4,347.23,361.17,346.43,362.36,345.11Z"/><path class="cls-1" d="M311.62,391.87c3.16,2.66,6.8,4.94,9.37,8.08a131.65,131.65,0,0,1,11.57,16.49c6.53,11.11,4.58,21.89-2.65,31.93-3.93,5.46-8.32,10.6-12.55,15.84a7.35,7.35,0,0,1-1.76,1.19c-.39-.6-1.07-1.18-1.13-1.82-.28-2.64,0-5.37-.59-7.93-1.31-5.91-2.8-11.79-4.55-17.58a31.54,31.54,0,0,1-.59-16.25c1.31-6.1,2.34-12.29,3.06-18.49.3-2.65-.49-5.43-.77-8.16-.09-.91-.16-1.82-.24-2.73Z"/><path class="cls-1" d="M316.53,127.75c11.1,3.42,21.42,6.58,28.76,15.39,2.35,2.81,3.23,6.12,3.54,9.71,1.07,12.69-4.39,22.84-12.38,32-2.24,2.56-4.9,4.76-7.93,7.67-.85-1.19-2.21-2.37-2.61-3.81-1.59-5.74-3.43-11.5-4.1-17.38-.51-4.42.46-9.05,1.09-13.54,1.27-9,.47-17.58-4.87-25.35C317.27,131.31,317.15,129.76,316.53,127.75Z"/><path class="cls-1" d="M260.31,133.84a13,13,0,0,0,2.63-1.18,35.92,35.92,0,0,1,19.66-7.42c5.4-.28,10.86-.87,16.2-.33,9.09.92,16.11,8.09,18.56,17.35,2.09,7.91.66,15.63-.56,23.41-.29,1.85-1.31,1.56-2.43.87-6-3.66-12-7.22-17.81-11.06a25.35,25.35,0,0,1-4.76-4.83c-5.9-6.78-12.37-12.67-21.64-14.29-2-.35-4.08-.39-6.11-.62-.95-.11-1.88-.32-2.82-.48Z"/><path class="cls-1" d="M231.46,181.52c0-2.46-.39-4.5.06-6.33,2.29-9.25,5.28-18.18,12-25.44,9.8-10.62,29.65-13.67,41.39.83,1.68,2.06,3.62,3.9,5.29,6a4.2,4.2,0,0,1,1.16,2.85c-.12.63-1.51,1.18-2.43,1.49-11.34,3.93-23.16,5.48-34.95,7.34a33.4,33.4,0,0,0-20.82,11.89A14.66,14.66,0,0,1,231.46,181.52Z"/><path class="cls-1" d="M358.25,220.22c-1.39,3.86-2.39,7.91-4.23,11.54C348.38,243,340,251.59,328.61,257a4.37,4.37,0,0,1-3.8-.47c-6.87-5.56-13.61-11.26-20.32-17-1.8-1.55-1.59-3.25.85-4.14a87.32,87.32,0,0,1,13.33-3.81c5.57-1.07,11.27-1.42,16.89-2.28a40.55,40.55,0,0,0,19.26-8c.73-.57,1.53-1,2.29-1.57Z"/><path class="cls-1" d="M236.55,308.81a31.37,31.37,0,0,1,.59-3.79c4.49-15,14.58-25.22,27.92-32.67,1.81-1,3.41-1.07,5.12.58,5.89,5.66,11.93,11.16,17.88,16.76,2.85,2.69,2.58,4.47-1.16,5.27-7.49,1.61-15,3.12-22.6,4.13-8.08,1.08-15.86,2.77-22.82,7.25-1.11.72-2.27,1.37-3.43,2A9.73,9.73,0,0,1,236.55,308.81Z"/><path class="cls-1" d="M250.72,449.92c.92-11.83,3.73-22.95,11.18-32.38,1.9-2.41,4.56-4.26,7-6.2,1.82-1.44,3.36.08,4.48,1.17,5.11,5,10,10.12,15.1,15.12,1.56,1.55.62,2.35-.68,3-10.4,5.27-19.06,12.78-27.21,21-1.74,1.74-3.28,3.7-5,5.44-.6.59-1.8,1.3-2.32,1.06a3.72,3.72,0,0,1-1.75-2.32A56,56,0,0,1,250.72,449.92Z"/></svg>