<svg width="125" height="191" viewBox="0 0 125 191" fill="none" xmlns="http://www.w3.org/2000/svg">
<path d="M98.863 56.9277C99.083 57.4154 99.27 57.9173 99.4228 58.4301C100.12 61.4794 99.9768 64.6611 99.0081 67.6352C98.5049 69.4302 97.6461 71.1055 96.4827 72.5615C94.231 75.2301 91.2288 76.2967 87.8658 76.2635C86.1241 76.2635 84.3783 75.7903 82.6408 75.4998C81.6829 75.338 80.7292 75.1263 79.7837 74.9064C79.3317 74.7985 78.9046 74.6158 78.2743 74.4042L79.1036 73.6779C80.4679 72.5158 81.94 71.4534 83.1841 70.171C84.7737 68.6032 86.6638 67.3736 88.7407 66.5562C92.1701 65.087 95.1889 63.0783 97.2084 59.8412C97.7098 58.9343 98.1638 58.002 98.5685 57.0481L98.863 56.9277Z" fill="#80CCE8"/>
<path d="M41.6625 111.449C41.4386 111.109 41.0737 110.789 41.0073 110.42C40.5236 107.903 40.5124 105.317 40.9742 102.796C41.3518 101.036 42.0083 99.3474 42.919 97.7949C45.1085 93.9061 48.6208 92.3706 52.8712 92.5698C55.1644 92.6777 57.4327 93.3044 59.7092 93.6779C60.5718 93.819 61.4426 93.8978 62.5498 94.0389C62.1558 94.454 61.8987 94.7403 61.6002 94.9976C60.0327 96.3506 58.5191 97.7783 56.8563 99.0026C55.5825 99.882 54.2354 100.65 52.8298 101.298C51.3038 102.057 49.6533 102.584 48.1688 103.414C45.038 105.174 42.8485 107.751 41.9487 111.3L41.6625 111.449Z" fill="#80CCE8"/>
<path d="M66.8292 116.024C67.3642 115.343 67.7457 114.837 68.1479 114.363C69.0726 113.235 70.0761 112.16 70.9262 110.973C72.2242 109.167 74.057 108.01 75.7531 106.669C77.2502 105.565 78.6564 104.342 79.9579 103.013C80.9655 101.917 81.6166 100.494 82.4459 99.2319C82.6747 98.9441 82.9317 98.6799 83.2131 98.4434C83.4329 98.7048 83.7563 98.9289 83.8641 99.2319C84.9837 102.349 85.6016 105.515 84.7184 108.819C83.6153 112.969 78.9958 116.829 74.1483 116.609C72.0168 116.512 69.8854 116.407 67.7539 116.293C67.4388 116.229 67.1295 116.139 66.8292 116.024Z" fill="#80CCE8"/>
<path d="M56.9931 70.3995C56.6247 69.8889 56.2988 69.349 56.0186 68.7851C54.7996 65.6534 54.6884 62.1985 55.7034 58.9948C57.0636 54.3673 61.9941 51.3626 66.7628 52.1262C68.2059 52.3545 69.6366 52.6657 71.0672 52.9562C72.1993 53.2011 72.3361 53.5539 71.6021 54.4669C70.2503 56.1477 68.9275 57.8618 67.4554 59.4471C66.7421 60.2025 65.7179 60.6631 64.8305 61.2525C62.5332 62.7714 60.269 64.3527 58.7928 66.7473C58.1417 67.7973 57.6856 68.9718 56.9931 70.3995Z" fill="#80CCE8"/>
<path d="M75.0564 88.2206C75.2803 87.0004 75.554 85.4814 75.8443 83.9625C75.8614 83.7623 75.955 83.5765 76.1055 83.4437C76.2133 83.3897 76.5202 83.5267 76.6073 83.6636C78.0545 85.884 79.7215 88.0006 80.8411 90.3787C81.9607 92.7567 82.3547 95.3589 81.3843 97.9444C80.8409 99.5717 79.8951 101.035 78.635 102.198C77.0924 103.539 75.5581 104.884 73.9824 106.187C73.8352 106.301 73.6658 106.382 73.4851 106.427C73.3044 106.471 73.1164 106.477 72.9332 106.444C72.7135 106.386 72.5186 105.905 72.4812 105.585C72.0666 103.311 71.7348 101.02 71.2828 98.7537C71.1397 97.9114 71.272 97.0454 71.6602 96.2844C72.7715 93.703 73.8455 91.1132 75.0564 88.2206Z" fill="#80CCE8"/>
<path d="M70.155 72.5C70.6028 73.2221 71.117 73.9775 71.5566 74.7702C72.2574 76.0152 72.9084 77.3059 73.5843 78.5717C74.7496 80.7464 74.6335 83.0415 74.2229 85.3573C73.5968 88.8642 71.8468 91.9353 70.4038 95.1268C70.0928 95.8116 69.5744 95.8573 69.1266 95.2347C68.6726 94.6204 68.2703 93.9693 67.924 93.2883C67.0739 91.5992 66.1824 89.9225 65.4774 88.1753C64.9733 86.9383 64.7318 85.61 64.7682 84.2747C64.8046 82.9393 65.1182 81.6261 65.6889 80.4186C66.6385 78.2812 67.6959 76.1854 68.7409 74.0895C69.0436 73.4794 69.0561 72.5872 70.155 72.5Z" fill="#80CCE8"/>
<path d="M53.995 112.316C54.5922 113.051 55.069 113.537 55.4339 114.097C56.2633 115.342 56.9765 116.658 57.7976 117.903C58.7081 119.211 59.3236 120.702 59.6014 122.272C59.8793 123.842 59.8128 125.454 59.4065 126.996C59.0168 128.486 58.0215 129.826 57.2627 131.208C56.6738 132.275 56.0186 133.312 55.4008 134.354C54.8741 135.221 54.5175 135.296 53.9536 134.449C52.9583 132.955 52.0253 131.407 51.1794 129.822C50.5958 128.832 50.1757 127.754 49.9353 126.63C49.6567 124.565 49.9732 122.463 50.8476 120.571C51.7102 118.55 52.4856 116.496 53.2818 114.445C53.4933 113.844 53.6882 113.229 53.995 112.316Z" fill="#80CCE8"/>
<path d="M63.205 84.2241C62.9488 84.0294 62.7152 83.8066 62.5083 83.5601C60.9243 81.1737 59.2531 78.8247 58.3616 76.0607C57.7437 74.1433 58.0837 72.3048 58.7182 70.4248C59.8585 67.0465 62.1683 64.7431 65.1291 62.9544C65.4553 62.7298 65.8131 62.555 66.1906 62.4356C66.7753 62.2904 67.4098 62.3443 67.53 63.0831C67.8162 64.7929 68.0111 66.5153 68.2723 68.2293C68.687 71.0182 67.501 73.3631 66.2197 75.6623C64.7973 78.2147 63.6031 80.8293 63.346 83.7884C63.3138 83.938 63.2666 84.084 63.205 84.2241Z" fill="#80CCE8"/>
<path d="M48.2476 124.227C47.9182 124.081 47.61 123.891 47.3311 123.662C46.1161 122.289 44.9799 120.861 44.3703 119.097C44.0303 118.093 43.4415 117.163 43.1844 116.146C42.2928 112.556 43.5285 109.531 45.971 106.962C47.6632 105.271 49.716 103.985 51.9755 103.202C53.2776 102.704 53.4808 102.932 53.3688 104.318C53.2071 106.344 53.1532 108.381 53.0288 110.411C53.007 110.805 52.9231 111.193 52.78 111.56C51.5069 114.881 50.2007 118.201 48.9442 121.562C48.6675 122.438 48.435 123.327 48.2476 124.227Z" fill="#80CCE8"/>
<path d="M81.8488 115.607C81.1314 118.442 79.423 120.343 77.615 122.169C74.7858 125.044 71.0586 126.863 67.0532 127.323C65.6681 127.502 65.3571 127.369 64.5983 126.182C63.3543 124.256 62.1102 122.356 60.8662 120.426C60.2276 119.426 60.4018 119.011 61.5753 118.807C63.6487 118.442 65.6474 117.624 67.8535 117.873C69.9269 118.106 72.0417 118.089 74.14 118.122C76.4717 118.155 78.7616 117.501 80.725 116.242C81.0319 116.051 81.3512 115.89 81.8488 115.607Z" fill="#80CCE8"/>
<path d="M61.625 124.668C62.3134 125.801 63.1925 126.868 63.6528 128.088C64.4234 130.106 65.0376 132.18 65.4898 134.292C66.3192 138.347 64.6605 141.431 61.4218 143.751C59.6678 144.996 57.8059 146.129 55.9813 147.295C55.7729 147.387 55.5522 147.449 55.3261 147.477C55.268 147.249 55.1229 147.008 55.1685 146.805C55.3551 145.975 55.7117 145.145 55.7988 144.315C56.0062 142.381 56.1513 140.439 56.2135 138.505C56.2638 136.735 56.774 135.008 57.6939 133.495C58.7182 131.773 59.6595 129.993 60.5137 128.179C60.8786 127.399 60.9284 126.473 61.115 125.614C61.1772 125.328 61.2518 125.041 61.3182 124.755L61.625 124.668Z" fill="#80CCE8"/>
<path d="M90.0966 44.7051C93.1279 46.8839 95.9436 48.9009 97.2788 52.3331C97.6577 53.4028 97.6882 54.5652 97.3659 55.6533C96.3956 59.6292 93.696 62.1649 90.3164 64.128C89.371 64.6799 88.3384 65.0784 87.1193 65.6552C86.9824 65.2029 86.7046 64.709 86.7046 64.2276C86.8041 62.3143 86.8331 60.372 87.2312 58.5128C87.5298 57.1183 88.2969 55.8027 88.948 54.4995C90.2542 51.8766 90.8845 49.1914 90.0552 46.2821C89.9598 45.8671 90.0842 45.3816 90.0966 44.7051Z" fill="#80CCE8"/>
<path d="M72.3651 40.8166C72.6729 40.8181 72.9801 40.7875 73.2815 40.7253C75.4564 39.9699 77.8072 39.8817 80.0325 40.4722C81.6912 40.9411 83.4245 41.3022 85.0086 42.0285C87.6833 43.2362 89.0849 46.1372 88.8858 49.2125C88.7117 51.8354 87.4884 54.0433 86.3231 56.2678C86.0453 56.8032 85.7633 56.6081 85.4938 56.2678C84.0548 54.5455 82.591 52.8439 81.206 51.0801C80.8008 50.4728 80.4786 49.814 80.2481 49.1212C79.1451 46.4526 77.76 43.9957 75.1186 42.5556C74.5422 42.2443 73.9202 42.0202 73.323 41.7255C73.0452 41.5969 72.7839 41.4392 72.5144 41.3105L72.3651 40.8166Z" fill="#80CCE8"/>
<path d="M58.7098 52.3922C58.9628 51.6451 59.054 50.9811 59.3775 50.4706C61.0362 47.8851 62.84 45.4904 65.6183 43.9424C69.6863 41.7096 76.0392 42.8094 78.1333 48.4246C78.4318 49.2256 78.8341 49.9851 79.1368 50.786C79.2782 51.0951 79.2989 51.446 79.1948 51.7696C79.0953 51.9522 78.6143 51.973 78.3033 51.9771C74.4509 52.0145 70.694 51.2758 66.9163 50.6366C64.3007 50.1834 61.6101 50.7173 59.365 52.1348C59.1523 52.2345 58.9335 52.3205 58.7098 52.3922Z" fill="#80CCE8"/>
<path d="M93.3519 77.1441C92.5849 78.2208 91.7541 79.2505 90.8638 80.2277C88.1089 83.0537 84.4686 84.8483 80.5508 85.3116C80.3388 85.3124 80.1294 85.2649 79.9383 85.1729C79.7472 85.0809 79.5795 84.9467 79.4478 84.7804C77.9218 82.3858 76.4538 79.9579 74.9983 77.5176C74.6085 76.866 74.849 76.368 75.6784 76.3472C77.1645 76.2951 78.6524 76.3617 80.1279 76.5464C81.9317 76.7913 83.7024 77.2686 85.5187 77.5798C87.7471 78.0098 90.0493 77.8466 92.1949 77.1067C92.4769 77.0113 92.7713 76.9449 93.0575 76.866L93.3519 77.1441Z" fill="#80CCE8"/>
<path d="M47.2731 91.6909C47.4396 91.315 47.6279 90.9492 47.837 90.5953C50.7398 86.4866 54.8534 84.4032 59.6719 83.4984C59.964 83.4102 60.2783 83.4325 60.5551 83.561C60.8319 83.6896 61.0518 83.9154 61.173 84.1957C62.388 86.5239 63.6611 88.819 64.9051 91.1348C65.4981 92.2429 65.2327 92.7575 64.0135 92.6206C61.5711 92.3425 59.1245 92.0354 56.7111 91.5664C54.1401 91.0684 51.6023 90.7903 49.0272 91.4419C48.6125 91.5498 48.1978 91.6245 47.7831 91.7034C47.613 91.713 47.4425 91.7088 47.2731 91.6909Z" fill="#80CCE8"/>
<path d="M37.1591 136.126C38.6478 132.615 40.6383 129.515 43.8686 127.411C44.7429 126.915 45.6709 126.521 46.6345 126.236C47.3394 125.983 47.6504 126.606 47.8785 127.066C48.9235 129.1 49.898 131.171 50.9264 133.213C51.2457 133.844 50.8808 133.993 50.4122 134.043C46.7091 134.586 43.3046 135.989 39.9914 137.645C39.2823 138.002 38.6146 138.438 37.918 138.791C37.6733 138.907 37.2379 139.002 37.0886 138.878C36.9829 138.758 36.9024 138.617 36.8518 138.466C36.8012 138.314 36.7817 138.153 36.7942 137.994C36.8815 137.365 37.0033 136.741 37.1591 136.126Z" fill="#80CCE8"/>
</svg>
