<svg id="Layer_1" data-name="Layer 1" xmlns="http://www.w3.org/2000/svg" viewBox="0 0 566.93 566.93"><defs><style>.cls-1{fill:#aa5c9d;}</style></defs><path class="cls-1" d="M224.88,392.24a19,19,0,0,1-8.09-4.68c-7-6.19-9.11-14-7.09-22.86,1.64-7.2,9.34-13.74,16.69-14.54a13.54,13.54,0,0,1,8.2,1.88,1.37,1.37,0,0,1,.89,1.38c-.11.7-.79.53-1.26.64-6.15,1.43-10.66,6.28-10.84,11.68-.23,6.7,3.75,12.42,10.26,14,11.76,2.88,21.91-.35,30.35-8.9a47.05,47.05,0,0,0,10-15.92c1,1.83.52,3.72.53,5.52,0,11.79-5.12,20.91-14.05,28.43-5.83,4.91-12.61,7.6-19.57,10.06-8.12,2.87-15.19,7.21-20.74,13.88-3.44,4.13-5.93,8.63-5.67,14.25.3,6.41,7.68,11.67,14,7.42,1.18-.8,1.32-.42,1.42.73.39,4.69-4,9.23-9.28,9.59-6.9.47-13.39-3.74-16.63-10.91-4.13-9.13-2.65-17.78,2.37-26.09,3.72-6.17,9.51-10,15.51-13.52.73-.43,1.44-.89,2.14-1.35C224.26,392.82,224.43,392.63,224.88,392.24Z"/><path class="cls-1" d="M341,392.24a19.17,19.17,0,0,0,8.09-4.68c7-6.19,9.11-14,7.09-22.86-1.64-7.2-9.35-13.74-16.69-14.54a13.56,13.56,0,0,0-8.21,1.88,1.36,1.36,0,0,0-.88,1.38c.11.7.79.53,1.26.64,6.14,1.43,10.65,6.28,10.84,11.68.22,6.7-3.75,12.42-10.26,14-11.76,2.88-21.92-.35-30.35-8.9a46.94,46.94,0,0,1-10.05-15.92c-1,1.83-.52,3.72-.52,5.52,0,11.79,5.12,20.91,14,28.43,5.84,4.91,12.62,7.6,19.58,10.06,8.12,2.87,15.19,7.21,20.73,13.88,3.44,4.13,5.94,8.63,5.68,14.25-.3,6.41-7.69,11.67-14,7.42-1.19-.8-1.33-.42-1.42.73-.4,4.69,4,9.23,9.28,9.59,6.89.47,13.38-3.74,16.62-10.91,4.13-9.13,2.66-17.78-2.37-26.09-3.72-6.17-9.5-10-15.51-13.52-.72-.43-1.43-.89-2.14-1.35A9.75,9.75,0,0,1,341,392.24Z"/><path class="cls-1" d="M412.44,270.65c.32,5.76-5.76,10.68-10,10.77-7.17.16-11.56-5.08-11.66-10.6-.12-6.76,4.33-11.35,11.14-11.5C407.72,259.19,412.35,264.2,412.44,270.65Z"/><path class="cls-1" d="M165.09,281.34c-5,0-10.62-5.35-10.61-10.09,0-6.87,4.62-12,10.76-12.05a10.71,10.71,0,0,1,10.89,11C175.85,277.1,171.66,280.8,165.09,281.34Z"/><path class="cls-1" d="M405.05,229.5a117.25,117.25,0,0,0-2.56-13.14h0a113.12,113.12,0,0,0-6.08-18.7,124.17,124.17,0,0,0-42.88-53.06,121.16,121.16,0,0,0-59.78-22.08,117.12,117.12,0,0,0-38,3q-42.66,10.16-69.5,44.75a118.17,118.17,0,0,0-19.67,37.91A125.83,125.83,0,0,0,161.45,232a81,81,0,0,0-.91,11.53h0c-.21.67-.53,1.35.06,2h19.11c.42-.14.3-.5.32-.8A117.11,117.11,0,0,1,186,213.19c6.81-20.42,18.35-37.47,35.43-50.74s36.59-19.31,57.78-20.8c9.62-.68,19.1.69,28.5,2.75,17.77,3.89,32.92,12.74,46.07,25,12.11,11.31,20.46,25.2,26.21,40.69a174.78,174.78,0,0,1,5,17.22,161.27,161.27,0,0,1,2,17.41c.05.91.59.84,1.18.84,5.71,0,11.42,0,17.13,0,1,0,1.12-.28,1.12-1.22A95.13,95.13,0,0,0,405.05,229.5Z"/></svg>