<svg width="50" height="60" viewBox="0 0 50 60" fill="none" xmlns="http://www.w3.org/2000/svg">
<path d="M28.9739 36.6233C28.6512 36.467 28.3391 36.2899 28.0394 36.0931C25.9207 34.4993 23.8452 32.8436 21.6904 31.298C18.6975 29.1517 17.3878 26.1448 16.8715 22.6181C16.6839 21.3307 17.0332 20.5957 18.0762 19.8005C19.5184 18.6938 20.7714 17.3255 22.0346 15.9985C22.7575 15.2343 22.7523 14.7661 22.3255 14.1895C21.9623 13.6955 21.0192 13.4632 20.3445 13.8573C18.4875 14.9434 16.4429 15.7506 14.9198 17.3513C14.6909 17.5923 14.3863 17.9004 14.1023 17.551C13.956 17.3788 13.9646 16.9072 14.1023 16.6904C14.832 15.4391 15.9421 14.6043 17.2432 14.0088C19.3481 13.0449 19.7904 12.2704 18.9006 9.96405C17.8112 7.14133 15.5962 5.41499 12.8562 4.32377C12.4888 4.20223 12.0899 4.21689 11.7324 4.36508C9.63727 5.27435 7.8577 6.78278 6.61743 8.70071C5.98408 9.66112 5.83435 10.7661 5.7569 11.8849C5.7156 12.5372 6.12177 13.0054 6.65874 13.3358C7.53819 13.8763 8.47961 14.3272 9.29367 14.952C10.0286 15.52 10.643 16.2515 11.2557 16.9589C11.383 17.1069 11.2677 17.4752 11.2643 17.73C10.9872 17.6732 10.6068 17.7128 10.4537 17.5458C9.4847 16.4804 8.2421 15.8539 6.99262 15.2171C6.20438 14.816 5.45228 14.3565 4.68469 13.9107C3.9171 13.4649 3.21491 13.5079 2.74851 13.995C2.35266 14.3995 2.23735 14.8436 2.61426 15.3186C4.30606 17.4649 6.10284 19.5011 8.59148 20.7678C8.92272 20.9292 9.21439 21.1615 9.44579 21.4483C9.6772 21.735 9.84266 22.0692 9.93046 22.427C10.6963 25.0553 12.13 27.2549 14.1126 29.1568C16.4137 31.3651 19.0538 33.0346 21.866 34.4924C24.9002 36.0587 27.6332 38.0862 30.1993 40.31C31.0989 41.0741 31.8189 42.0273 32.3079 43.1016C32.797 44.1759 33.0431 45.3448 33.0287 46.5251C33.0373 48.3307 32.9512 50.1396 32.9099 51.9434C32.9161 52.0622 32.9287 52.1805 32.9478 52.298C33.9374 51.1981 34.8651 50.2085 35.2454 48.8264C35.7445 47.0036 36.2419 45.1723 37.4415 43.6491C38.7873 41.9417 40.5049 41.0673 42.7199 41.4116C43.0024 41.4599 43.275 41.5541 43.5271 41.6904C45.4616 42.6938 47.3289 41.6904 47.5785 39.5183C47.7196 38.2911 47.5045 37.2102 46.3841 36.4924C45.1587 35.7093 43.9212 35.9038 42.7698 36.6164C41.658 37.3048 40.6289 38.1362 39.5549 38.89C39.0386 39.2498 38.5068 39.5785 37.9819 39.9227L37.8184 39.8126C37.8424 39.5467 37.8815 39.2823 37.9354 39.0208C38.3072 37.6267 38.8545 36.3134 40.0626 35.4391C40.5445 35.0949 41.1589 34.9227 41.7166 34.6766C43.4806 33.9055 44.3188 31.9847 43.713 30.0983C43.1967 28.5028 41.1314 27.3651 39.4104 27.7369C37.7358 28.0983 36.6119 30.0467 37.0508 31.9176C37.1939 32.5099 37.1433 33.1325 36.9062 33.6938C36.2866 35.298 35.7135 36.921 35.2024 38.563C34.9597 39.3393 34.9115 40.1758 34.7549 40.9813C34.7291 41.119 34.6 41.236 34.5191 41.3634C34.4107 41.2584 34.2592 41.1723 34.2024 41.0432C33.9512 40.4804 33.7481 39.8969 33.4934 39.3375C32.8549 37.9382 32.2525 36.52 31.5365 35.1603C30.3748 32.952 29.337 30.6973 28.8534 28.2412C28.5798 26.8556 28.7983 24.7678 28.7983 24.7678C28.7983 24.7678 28.1478 24.6955 26.8897 23.6938C26.4026 23.3048 25.4561 22.3169 25.4561 22.3169C25.3864 22.6799 25.3433 23.0475 25.327 23.4167C25.2667 25.6542 25.4492 27.8556 26.2443 29.9572C26.6574 31.0484 27.196 32.0931 27.6883 33.1534C28.0428 33.9176 28.43 34.668 28.7777 35.4356C28.9103 35.7737 29.0252 36.1184 29.1219 36.4684L28.9739 36.6233Z" fill="white"/>
</svg>
