<svg id="Layer_1" data-name="Layer 1" xmlns="http://www.w3.org/2000/svg" viewBox="0 0 290.52 348.6"><defs><style>.cls-1{fill:#fff;}</style></defs><path class="cls-1" d="M168.35,212.78a48.11,48.11,0,0,1-5.43-3.08c-12.31-9.26-24.37-18.88-36.89-27.86-17.39-12.47-25-29.94-28-50.43-1.09-7.48.94-11.75,7-16.37,8.38-6.43,15.66-14.38,23-22.09,4.2-4.44,4.17-7.16,1.69-10.51-2.11-2.87-7.59-4.22-11.51-1.93-10.79,6.31-22.67,11-31.52,20.3-1.33,1.4-3.1,3.19-4.75,1.16-.85-1-.8-3.74,0-5,4.24-7.27,10.69-12.12,18.25-15.58,12.23-5.6,14.8-10.1,9.63-23.5-6.33-16.4-19.2-26.43-35.12-32.77a9.37,9.37,0,0,0-6.53.24A67.3,67.3,0,0,0,38.45,50.55c-3.68,5.58-4.55,12-5,18.5-.24,3.79,2.12,6.51,5.24,8.43C43.8,80.62,49.27,83.24,54,86.87c4.27,3.3,7.84,7.55,11.4,11.66.74.86.07,3,.05,4.48-1.61-.33-3.82-.1-4.71-1.07-5.63-6.19-12.85-9.83-20.11-13.53-4.58-2.33-8.95-5-13.41-7.59s-8.54-2.34-11.25.49C13.67,83.66,13,86.24,15.19,89c9.83,12.47,20.27,24.3,34.73,31.66a14.59,14.59,0,0,1,7.78,9.64c4.45,15.27,12.78,28.05,24.3,39.1,13.37,12.83,28.71,22.53,45.05,31,17.63,9.1,33.51,20.88,48.42,33.8a46.63,46.63,0,0,1,16.44,36.11c.05,10.49-.45,21-.69,31.48a19,19,0,0,0,.22,2.06c5.75-6.39,11.14-12.14,13.35-20.17,2.9-10.59,5.79-21.23,12.76-30.08,7.82-9.92,17.8-15,30.67-13a15.29,15.29,0,0,1,4.69,1.62c11.24,5.83,22.09,0,23.54-12.62.82-7.13-.43-13.41-6.94-17.58-7.12-4.55-14.31-3.42-21,.72-6.46,4-12.44,8.83-18.68,13.21-3,2.09-6.09,4-9.14,6l-.95-.64a41.1,41.1,0,0,1,.68-4.6c2.16-8.1,5.34-15.73,12.36-20.81,2.8-2,6.37-3,9.61-4.43,10.25-4.48,15.12-15.64,11.6-26.6-3-9.27-15-15.88-25-13.72-9.73,2.1-16.26,13.42-13.71,24.29a16.54,16.54,0,0,1-.84,10.32c-3.6,9.32-6.93,18.75-9.9,28.29-1.41,4.51-1.69,9.37-2.6,14.05-.15.8-.9,1.48-1.37,2.22-.63-.61-1.51-1.11-1.84-1.86-1.46-3.27-2.64-6.66-4.12-9.91-3.71-8.13-7.21-16.37-11.37-24.27-6.75-12.83-12.78-25.93-15.59-40.2-1.59-8.05-.32-20.18-.32-20.18s-3.78-.42-11.09-6.24c-2.83-2.26-8.33-8-8.33-8a44.23,44.23,0,0,0-.75,6.39c-.35,13,.71,25.79,5.33,38,2.4,6.34,5.53,12.41,8.39,18.57,2.06,4.44,4.31,8.8,6.33,13.26a60.83,60.83,0,0,1,2,6Z"/></svg>