<svg id="Layer_1" data-name="Layer 1" xmlns="http://www.w3.org/2000/svg" viewBox="0 0 371.66 471.35"><defs><style>.cls-1{fill:#9ac550;stroke:#010101;stroke-miterlimit:10;}</style></defs><path class="cls-1" d="M293.92,426.91c-3.7-50.68-12.5-117.5-11.11-147.14,1.46-31,3.46-65.48,3.06-70.28-2.74-32.82-9.95-82.92-2.9-144.44-6.83-5.1-45.75-20.43-60.11-25.64-4.17,2-58.33,3.42-74.9,0C133.6,44.62,94.68,60,87.85,65.05c7.05,61.52-.16,111.62-2.9,144.44-.39,4.8,1.6,39.31,3.06,70.28,1.39,29.64-7.4,96.46-11.11,147.14,3.87,1.34,55.77,2,108.09,2h.84C238.15,428.93,290.05,428.25,293.92,426.91Z"/></svg>