<svg width="125" height="167" viewBox="0 0 125 167" fill="none" xmlns="http://www.w3.org/2000/svg">
<path d="M83.0161 63.7114C83.0161 51.0624 82.9856 38.41 83.0161 25.7576C83.0161 24.7061 82.6773 24.1482 81.7017 23.7492C79.138 22.6871 76.4987 21.8169 73.8056 21.1457C73.5753 21.0882 73.2873 20.8245 73.0299 21.1457C73.0028 21.6867 72.9554 22.2276 72.9554 22.7686C72.9554 44.859 72.9554 66.9494 72.9554 89.0398C72.9554 94.4734 72.7928 99.9069 73.0638 105.341C73.052 105.498 73.052 105.656 73.0638 105.814C73.7108 111.562 75.5569 116.999 77.6639 122.351C77.8022 122.809 78.1082 123.198 78.5209 123.44C79.3102 121.266 80.0588 119.17 80.8312 117.08C82.1556 113.499 83.1007 109.875 83.0804 105.99C82.9923 91.8902 83.0195 77.8008 83.0161 63.7114Z" fill="#233565"/>
<path d="M51.9092 27.1235C52.1091 25.247 52.0108 23.3636 52.0074 21.4803C52.0074 21.0374 51.8042 20.8311 51.3299 20.9731C48.4741 21.7826 45.6755 22.7811 42.9528 23.9621C42.5192 24.1616 42.0755 24.3881 42.0755 24.9765C42.0755 25.2943 42.028 25.6121 42.028 25.93C42.028 50.3827 42.028 74.8399 42.028 99.3016C42.028 102.784 41.9027 106.27 42.0958 109.749C42.0923 109.975 42.1048 110.201 42.133 110.426C42.7014 113.27 43.5257 116.057 44.5957 118.754C45.1851 120.285 45.5544 121.918 46.5198 123.311C46.9229 123.095 47.0245 122.71 47.1803 122.378C48.3277 120.029 49.2564 117.58 49.9546 115.061C50.6999 112.235 51.6111 109.442 51.8414 106.5C51.8923 104.935 51.9939 103.369 51.9939 101.807C51.9939 86.2807 51.9747 70.7532 51.9363 55.2245L51.9092 27.1235Z" fill="#233565"/>
<path d="M67.6574 106.571C67.6574 106.331 67.6574 106.091 67.6574 105.855L67.6099 103.778C67.6099 80.3243 67.6099 56.8691 67.6099 33.4127C67.6099 29.2572 67.6099 25.1017 67.6099 20.9462C67.6099 20.4796 67.7082 19.8474 67.0273 19.8304C63.9549 19.7594 60.8825 19.5904 57.8134 19.9657C57.39 20.0198 57.3832 20.2531 57.4476 20.5675C57.2884 22.9919 57.3595 25.4195 57.3595 27.8472C57.3595 41.4261 57.3595 55.006 57.3595 68.5871C57.3595 78.6799 57.4341 101.185 57.3324 106.382C57.3174 107.114 57.4251 107.843 57.6508 108.539L62.4407 123.291L67.3084 108.8C67.5512 108.082 67.6692 107.328 67.6574 106.571Z" fill="#233565"/>
</svg>
