<svg id="Layer_1" data-name="Layer 1" xmlns="http://www.w3.org/2000/svg" viewBox="0 0 516.94 503.43"><defs><style>.cls-1{fill:#1c1b1c;}</style></defs><path class="cls-1" d="M193.09,19.57S227.9,28,231.45,60.94s26.08,406.65,26.08,406.65V60.94S230.74,19.57,193.09,19.57Z"/><path class="cls-1" d="M322,19.57S287.16,28,283.61,60.94s-26.08,406.65-26.08,406.65V60.94S284.32,19.57,322,19.57Z"/><path class="cls-1" d="M150.52,98.16s-42.84,11.37-60.21-22.42c0,0,1.58,30.32-32.84,38.21,0,0,43.1,4.26,42.79,25.73,0,0,13.22-13.93,23.2-20C141.86,108.58,150.52,98.16,150.52,98.16Z"/><path class="cls-1" d="M150.52,106.84s-31.92,248.5,0,351.51c0,0-61.79-53-25.64-298.14,0,0-34.89,8.68-32.36,62.36,0,0-17.68-42.95,4.1-67.57S132.1,128.47,150.52,106.84Z"/><path class="cls-1" d="M85.75,224.15s-15.1-21.32-8.7-34.34c0,0-14.07,9.32-24.16,17.17C31,224,18.28,251.6,18.28,251.6l6.91,18.72S41.81,273.53,62.88,260s30-23.44,30-23.44Z"/><path class="cls-1" d="M364.55,98.16s42.83,11.37,60.2-22.42c0,0-1.58,30.32,32.84,38.21,0,0-43.1,4.26-42.79,25.73,0,0-13.22-13.93-23.2-20C373.21,108.58,364.55,98.16,364.55,98.16Z"/><path class="cls-1" d="M364.55,106.84s31.91,248.5,0,351.51c0,0,61.78-53,25.63-298.14,0,0,34.89,8.68,32.36,62.36,0,0,17.68-42.95-4.1-67.57S383,128.47,364.55,106.84Z"/><path class="cls-1" d="M429.31,224.15s15.1-21.32,8.7-34.34c0,0,14.07,9.32,24.16,17.17,21.9,17.05,34.61,44.62,34.61,44.62l-6.91,18.72s-16.61,3.21-37.69-10.29-30-23.44-30-23.44Z"/></svg>