<?xml version="1.0" encoding="utf-8"?>
<!-- Generator: Adobe Illustrator 25.0.0, SVG Export Plug-In . SVG Version: 6.00 Build 0)  -->
<svg version="1.1" id="Layer_1" xmlns="http://www.w3.org/2000/svg" xmlns:xlink="http://www.w3.org/1999/xlink" x="0px" y="0px"
	 viewBox="0 0 516.94 517.89" enable-background="new 0 0 516.94 517.89" xml:space="preserve">
<path fill="#233565" d="M193.09,18.41c0,0,34.81,8.42,38.36,41.38s26.08,406.64,26.08,406.64V59.79
	C257.53,59.79,230.74,18.41,193.09,18.41z"/>
<path fill="#233565" d="M321.97,18.41c0,0-34.81,8.42-38.36,41.38s-26.08,406.64-26.08,406.64V59.79
	C257.53,59.79,284.32,18.41,321.97,18.41z"/>
<path fill="#233565" d="M150.52,97.01c0,0-42.84,11.37-60.21-22.42c0,0,1.58,30.31-32.84,38.21c0,0,43.1,4.26,42.78,25.73
	c0,0,13.23-13.93,23.21-19.97C141.86,107.43,150.52,97.01,150.52,97.01z"/>
<path fill="#233565" d="M150.52,105.69c0,0-31.91,248.49,0,351.51c0,0-61.78-53.05-25.63-298.14c0,0-34.89,8.68-32.36,62.36
	c0,0-17.68-42.94,4.1-67.57S132.1,127.32,150.52,105.69z"/>
<path fill="#233565" d="M85.75,222.99c0,0-15.1-21.31-8.7-34.34c0,0-14.07,9.32-24.15,17.17c-21.91,17.05-34.62,44.63-34.62,44.63
	l6.91,18.72c0,0,16.62,3.21,37.69-10.29c21.08-13.5,30.03-23.44,30.03-23.44L85.75,222.99z"/>
<path fill="#233565" d="M364.55,97.01c0,0,42.84,11.37,60.21-22.42c0,0-1.58,30.31,32.84,38.21c0,0-43.1,4.26-42.78,25.73
	c0,0-13.23-13.93-23.21-19.97C373.21,107.43,364.55,97.01,364.55,97.01z"/>
<path fill="#233565" d="M364.55,105.69c0,0,31.91,248.49,0,351.51c0,0,61.78-53.05,25.63-298.14c0,0,34.89,8.68,32.36,62.36
	c0,0,17.68-42.94-4.1-67.57C396.65,129.21,382.96,127.32,364.55,105.69z"/>
<path fill="#233565" d="M429.31,222.99c0,0,15.1-21.31,8.7-34.34c0,0,14.07,9.32,24.15,17.17c21.91,17.05,34.62,44.63,34.62,44.63
	l-6.91,18.72c0,0-16.62,3.21-37.69-10.29c-21.08-13.5-30.03-23.44-30.03-23.44L429.31,222.99z"/>
</svg>
