<svg id="Layer_1" data-name="Layer 1" xmlns="http://www.w3.org/2000/svg" viewBox="0 0 595.28 566.93"><defs><style>.cls-1{fill:#d86f3a;}</style></defs><path class="cls-1" d="M219,50.68s34.81,8.42,38.37,41.37S283.47,498.7,283.47,498.7V92.05S256.68,50.68,219,50.68Z"/><path class="cls-1" d="M347.91,50.68S313.1,59.1,309.55,92.05,283.47,498.7,283.47,498.7V92.05S310.26,50.68,347.91,50.68Z"/><path class="cls-1" d="M176.45,129.27s-42.84,11.37-60.2-22.42c0,0,1.58,30.31-32.84,38.21,0,0,43.1,4.26,42.78,25.73,0,0,13.23-13.93,23.21-20C167.79,139.69,176.45,129.27,176.45,129.27Z"/><path class="cls-1" d="M176.45,138s-31.91,248.5,0,351.51c0,0-61.78-53-25.63-298.15,0,0-34.89,8.69-32.36,62.37,0,0-17.68-43,4.1-67.57S158,159.58,176.45,138Z"/><path class="cls-1" d="M111.69,255.25s-15.1-21.31-8.7-34.33c0,0-14.08,9.32-24.16,17.17-21.9,17-34.61,44.62-34.61,44.62l6.9,18.72s16.62,3.21,37.7-10.29,30-23.44,30-23.44Z"/><path class="cls-1" d="M390.48,129.27s42.84,11.37,60.21-22.42c0,0-1.58,30.31,32.84,38.21,0,0-43.1,4.26-42.79,25.73,0,0-13.23-13.93-23.21-20C399.14,139.69,390.48,129.27,390.48,129.27Z"/><path class="cls-1" d="M390.48,138s31.92,248.5,0,351.51c0,0,61.79-53,25.63-298.15,0,0,34.89,8.69,32.37,62.37,0,0,17.68-43-4.11-67.57S408.9,159.58,390.48,138Z"/><path class="cls-1" d="M455.25,255.25s15.09-21.31,8.7-34.33c0,0,14.07,9.32,24.15,17.17,21.91,17,34.62,44.62,34.62,44.62l-6.91,18.72s-16.62,3.21-37.69-10.29-30-23.44-30-23.44Z"/></svg>