<svg id="Layer_1" data-name="Layer 1" xmlns="http://www.w3.org/2000/svg" viewBox="0 0 516.94 517.89"><defs><style>.cls-1{fill:#ce433a;}</style></defs><path class="cls-1" d="M193.09,18.41s34.81,8.43,38.36,41.38,26.08,406.64,26.08,406.64V59.79S230.74,18.41,193.09,18.41Z"/><path class="cls-1" d="M322,18.41s-34.81,8.43-38.36,41.38-26.08,406.64-26.08,406.64V59.79S284.32,18.41,322,18.41Z"/><path class="cls-1" d="M150.52,97s-42.84,11.36-60.21-22.42c0,0,1.58,30.31-32.84,38.21,0,0,43.1,4.26,42.79,25.73,0,0,13.22-13.93,23.2-20C141.86,107.43,150.52,97,150.52,97Z"/><path class="cls-1" d="M150.52,105.69s-31.92,248.49,0,351.51c0,0-61.79-53.05-25.64-298.15,0,0-34.89,8.69-32.36,62.36,0,0-17.68-42.94,4.1-67.57S132.1,127.32,150.52,105.69Z"/><path class="cls-1" d="M85.75,223s-15.1-21.31-8.7-34.34c0,0-14.07,9.32-24.16,17.17C31,222.87,18.28,250.45,18.28,250.45l6.91,18.72s16.62,3.21,37.69-10.29,30-23.44,30-23.44Z"/><path class="cls-1" d="M364.55,97s42.83,11.36,60.2-22.42c0,0-1.58,30.31,32.84,38.21,0,0-43.1,4.26-42.79,25.73,0,0-13.22-13.93-23.2-20C373.21,107.43,364.55,97,364.55,97Z"/><path class="cls-1" d="M364.55,105.69s31.91,248.49,0,351.51c0,0,61.78-53.05,25.63-298.15,0,0,34.89,8.69,32.36,62.36,0,0,17.68-42.94-4.1-67.57S383,127.32,364.55,105.69Z"/><path class="cls-1" d="M429.31,223s15.1-21.31,8.7-34.34c0,0,14.07,9.32,24.16,17.17,21.9,17.05,34.61,44.63,34.61,44.63l-6.91,18.72s-16.61,3.21-37.69-10.29-30-23.44-30-23.44Z"/></svg>