<svg width="140" height="174" viewBox="0 0 140 174" fill="none" xmlns="http://www.w3.org/2000/svg">
<path d="M107.943 117.387C109.623 114.313 111.198 111.179 113.518 108.508C113.721 108.274 114.052 107.988 113.77 107.627C113.488 107.266 113.206 107.575 112.932 107.627C111.571 107.94 110.567 108.854 109.529 109.7C108.868 110.238 108.247 110.829 107.555 111.442C107.931 105.543 106.51 100.185 103.134 95.5011C98.9049 89.6317 93.0777 87.1561 85.8406 88.1305C85.4459 88.1832 84.9007 88.5068 84.6413 88.0778C84.3819 87.6489 84.7466 87.2388 84.9233 86.8475C86.476 83.42 91.0738 81.4522 94.6303 82.6825C95.9236 83.134 96.589 84.1424 97.0063 85.3689C97.1229 85.7075 97.1492 86.223 97.5891 86.2117C98.1041 86.2117 98.0928 85.6436 98.1605 85.2748C98.965 80.8916 94.98 77.0916 90.5062 77.8667C85.0436 78.8148 82.1864 83.5103 81.9345 88.2735C81.9594 88.512 81.8969 88.7515 81.7586 88.9473C81.6203 89.1432 81.4156 89.2821 81.1826 89.3382C75.1073 91.8779 71.5395 96.3928 70.9342 102.984C70.6109 106.514 71.562 109.757 74.5396 112.014C77.1712 114.02 80.1111 114.174 83.209 113.196C83.1488 113.03 83.1375 112.921 83.1075 112.917C79.1713 112.225 77.0058 109.591 76.1073 105.983C75.2351 102.48 76.6148 99.4817 79.2389 97.1264C84.1676 92.7018 93.228 92.3331 98.5816 99.5908C101.352 103.353 102.251 107.669 102.341 112.229C102.435 117.056 97.653 131.462 95.6078 136.011C101.991 130.375 105.845 121.232 107.943 117.387Z" fill="#1C1B1C"/>
<path d="M31.1099 117.387C29.4294 114.313 27.8579 111.179 25.5346 108.508C25.3353 108.274 25.0045 107.988 25.2864 107.627C25.5684 107.266 25.8504 107.575 26.1248 107.627C27.4857 107.94 28.4895 108.854 29.5272 109.7C30.1888 110.238 30.8091 110.829 31.4971 111.442C31.1212 105.543 32.5423 100.185 35.9183 95.501C40.1477 89.6316 45.975 87.156 53.212 88.1304C53.588 88.1831 54.1519 88.5067 54.4075 88.0778C54.6632 87.6489 54.306 87.2388 54.1293 86.8475C52.5766 83.4199 47.975 81.4522 44.4223 82.6825C43.1253 83.134 42.4598 84.1423 42.0425 85.3688C41.9297 85.7075 41.9034 86.2229 41.4636 86.2116C40.9448 86.2116 40.9598 85.6435 40.8921 85.2748C40.0763 80.8916 44.0614 77.1066 48.5389 77.8817C54.0015 78.8298 56.8587 83.5253 57.1106 88.2885C57.0857 88.527 57.1482 88.7665 57.2865 88.9623C57.4249 89.1582 57.6295 89.2971 57.8625 89.3532C63.9341 91.8929 67.5056 96.4077 68.1071 102.999C68.4342 106.529 67.4831 109.772 64.5055 112.029C61.8739 114.035 58.934 114.189 55.8361 113.211C55.8925 113.045 55.9038 112.936 55.9376 112.932C59.8701 112.24 62.0393 109.606 62.9378 105.998C63.8063 102.495 62.4303 99.4967 59.8024 97.1414C54.8775 92.7168 45.8171 92.3481 40.4598 99.6058C37.6928 103.368 36.7943 107.684 36.7003 112.244C36.6101 117.071 41.3921 131.477 43.4335 136.026C37.065 130.375 33.2115 121.232 31.1099 117.387Z" fill="#1C1B1C"/>
<path d="M114.518 69.454C111.274 69.454 108.037 69.1568 104.789 69.0966C103.262 69.0966 83.6 69.0966 72.5208 69.0966C72.4206 69.0902 72.3201 69.0902 72.22 69.0966H71.4681C68.0658 69.0966 65.6559 69.0966 65.1597 69.0966C65.0038 69.0858 64.8474 69.1024 64.6972 69.1455C53.6518 69.1869 34.3882 69.2095 32.4858 69.2546C29.7289 69.3148 26.9631 69.3863 24.1886 69.4691C23.8127 69.4691 23.166 69.4089 23.4818 70.0786C24.1044 71.482 24.3741 73.0166 24.2676 74.5483C24.2375 75.2594 24.5608 75.3497 25.1285 75.2745C27.5835 74.9547 30.0497 75.0976 32.5159 75.1052C34.1663 75.1052 57.3286 75.1052 66.7274 75.1052C66.8444 75.1225 66.9625 75.1313 67.0808 75.1315C71.5546 75.1315 109.45 74.8418 113.917 75.2782C114.473 75.3309 114.567 75.0713 114.559 74.5972C114.559 73.1863 114.559 71.7754 115.202 70.4586C115.616 69.5556 115.56 69.4615 114.518 69.454Z" fill="#1C1B1C"/>
<path d="M116.168 47.9559C116.217 46.9212 116.62 45.9543 116.902 44.8632H99.7883C97.4853 44.6926 95.1745 44.6537 92.8671 44.7465L78.2953 44.6901C78.1662 44.6394 78.0276 44.6176 77.8892 44.6261C77.7896 44.6105 77.6892 44.6005 77.5885 44.596C73.9343 44.596 70.2763 44.5245 66.6183 44.5584C64.6257 44.581 62.6257 44.4719 60.6332 44.6299H60.5993C60.3906 44.6044 60.1789 44.6249 59.979 44.6901L58.9339 44.7164L46.8546 44.7465C44.6685 44.6681 42.4798 44.7082 40.298 44.8669L25.0044 44.9271C24.2525 44.9271 23.5006 44.9271 22.7487 44.8669C21.9968 44.8067 21.8652 45.0776 22.1133 45.7285C22.7675 47.463 22.7336 49.2539 22.4893 51.0561C22.3351 51.628 22.6848 51.5979 23.0833 51.5979C44.644 51.643 66.201 51.7559 87.7467 51.6656C97.005 51.628 106.266 51.6104 115.529 51.6129C116.056 51.6129 116.529 51.6393 116.3 50.8604C116.108 49.9161 116.225 48.9303 116.168 47.9559Z" fill="#1C1B1C"/>
<path d="M114.537 41.311C113.033 40.2124 111.529 39.1138 110.025 38.0302C102.89 32.9547 95.792 27.8416 89.1978 22.0776C82.6037 16.3136 75.8178 10.6813 69.8552 4.19866C69.5319 3.84876 69.359 3.82242 69.0244 4.19866C66.2259 7.23181 63.2746 10.1201 60.182 12.8522C51.2174 20.9625 41.8145 28.574 32.0159 35.6524C29.4406 37.5336 26.839 39.3621 24.2525 41.2207C24.0457 41.3675 23.6773 41.4578 23.7675 41.7851C23.8577 42.1124 24.2149 42.0409 24.4743 42.0598C25.0052 42.1637 25.5476 42.1966 26.0871 42.1576C26.2884 42.0926 26.5013 42.0721 26.7112 42.0974H43.847C44.0569 42.0721 44.2698 42.0926 44.4711 42.1576C47.7268 41.8265 50.3284 40.4118 52.0427 37.4771C52.1441 37.5782 52.2337 37.6906 52.3096 37.812C53.5202 40.4457 55.7345 41.4803 58.4489 41.8904C61.2986 42.3194 64.1521 42.1651 67.0018 42.2103C68.3326 42.2103 68.3176 42.2103 68.3251 40.8596C68.3514 35.5922 68.1296 30.3248 69.077 25.1064C69.1597 24.6436 69.1334 24.1244 69.6334 23.6578C70.0445 25.6591 70.3246 27.6851 70.4718 29.7228C70.78 33.5718 70.6372 37.4282 70.6447 41.2809C70.6447 41.9845 70.874 42.2366 71.5846 42.2291C74.2613 42.1877 76.9456 42.3118 79.6111 42.0146C82.5736 41.6835 85.288 40.8859 86.6714 37.8421C86.7506 37.71 86.8398 37.5842 86.9384 37.4659C87.6923 38.8382 88.783 39.9958 90.1076 40.8295C91.4648 41.6421 92.9047 42.2027 94.5213 42.1463C94.7218 42.0781 94.9352 42.0562 95.1454 42.0823H111.379C111.589 42.0562 111.802 42.0781 112.003 42.1463C112.789 42.2404 113.559 42.0673 114.338 42.0221C114.529 42.0221 114.796 42.0974 114.894 41.8415C115.011 41.5368 114.717 41.4427 114.537 41.311ZM96.7619 38.9671C93.2882 37.353 90.3708 34.9639 87.5474 32.4129C86.3256 31.2842 85.1489 30.1292 83.709 29.2902C82.0548 28.3232 80.2878 27.9959 78.4457 28.6129C74.8929 29.7981 74.735 33.8803 76.1373 35.991C76.7802 36.9579 77.7539 37.2815 78.8893 37.1498C79.0284 37.1498 79.2201 37.1235 79.2916 37.0332C79.4495 36.8338 79.2201 36.7171 79.1036 36.6043C78.8091 36.3248 78.5897 35.9757 78.4655 35.5891C78.3413 35.2025 78.3164 34.7908 78.393 34.392C78.4604 33.9602 78.6577 33.5593 78.9586 33.2427C79.2595 32.926 79.6498 32.7088 80.0773 32.6199C80.674 32.5218 81.2865 32.6078 81.8331 32.8666C82.3798 33.1253 82.8348 33.5445 83.1375 34.0684C83.4071 34.5412 83.5378 35.0805 83.5145 35.6243C83.4912 36.1682 83.3149 36.6943 83.0059 37.1423C81.6751 39.3696 78.4945 40.1522 76.2915 38.7978C74.5508 37.7142 73.423 36.1641 73.1899 34.0797C72.9606 32.0555 73.0132 30.0426 73.9907 28.1953C74.8102 26.6489 76.0208 25.5992 77.8705 25.5089C77.9863 25.4956 78.0999 25.4678 78.2088 25.4262C78.2314 25.4262 78.2464 25.381 78.3178 25.2907C75.1899 22.5743 72.0357 19.9029 69.3402 16.6936C66.7461 20.0459 63.4678 22.6758 60.3362 25.5202C60.4366 25.5759 60.5424 25.6213 60.652 25.6557C63.5806 26.0319 65.1634 27.4654 65.5168 30.4791C65.7348 32.3603 65.9716 34.3393 65.0694 36.1565C64.1107 38.1017 62.558 39.3019 60.3738 39.4449C58.2459 39.5841 56.6857 38.5457 55.6744 36.7171C55.3849 36.2698 55.2479 35.7408 55.2839 35.2091C55.3198 34.6774 55.5267 34.1717 55.8736 33.7674C56.229 33.2911 56.7203 32.9337 57.2827 32.7423C57.8451 32.5508 58.4522 32.5344 59.0241 32.6951C60.6595 33.124 61.073 35.1219 59.8587 36.4801C59.7309 36.6193 59.4376 36.6946 59.5542 36.9542C59.6707 37.2138 59.9113 37.1385 60.1181 37.1611C60.7496 37.2774 61.4018 37.1613 61.9545 36.8343C62.5072 36.5072 62.9232 35.9913 63.1257 35.3815C63.8776 33.5266 63.8024 31.7056 62.5129 30.1141C61.0655 28.342 59.0955 28.0486 56.9564 28.4963C55.7082 28.7559 54.7232 29.4896 53.757 30.2609C51.4074 32.1421 49.302 34.3017 46.8621 36.07C44.4222 37.8383 42.0161 39.3997 39.016 39.8851C38.2227 39.9788 37.4228 40.0052 36.625 39.9641C36.5385 39.6292 36.7566 39.5578 36.9333 39.4562C41.7342 36.7284 46.0125 33.2783 50.2757 29.8018C54.6405 26.2426 59.0241 22.6533 63.1595 18.8118C65.0393 17.1 66.8927 15.4031 68.7123 13.6498C69.2236 13.1607 69.4642 13.0779 70.0432 13.616C78.1483 21.3742 86.7102 28.6398 95.683 35.374C97.6022 36.8253 99.6113 38.1535 101.698 39.3508C101.836 39.3967 101.962 39.4744 102.064 39.5777C102.167 39.6809 102.243 39.8069 102.288 39.9453C100.392 40.1203 98.4834 39.7824 96.7619 38.9671Z" fill="#1C1B1C"/>
</svg>
