<svg width="140" height="174" viewBox="0 0 140 174" fill="none" xmlns="http://www.w3.org/2000/svg">
<path d="M107.943 117.387C109.623 114.313 111.199 111.179 113.518 108.508C113.721 108.274 114.052 107.988 113.77 107.627C113.488 107.266 113.206 107.575 112.932 107.627C111.571 107.94 110.567 108.854 109.529 109.7C108.868 110.238 108.247 110.829 107.556 111.442C107.932 105.543 106.51 100.185 103.134 95.5011C98.905 89.6317 93.0778 87.1561 85.8407 88.1305C85.446 88.1832 84.9009 88.5068 84.6415 88.0778C84.3821 87.6489 84.7467 87.2388 84.9234 86.8475C86.4761 83.42 91.074 81.4522 94.6305 82.6825C95.9237 83.134 96.5892 84.1424 97.0065 85.3689C97.123 85.7075 97.1493 86.223 97.5892 86.2117C98.1042 86.2117 98.093 85.6436 98.1606 85.2748C98.9652 80.8916 94.9801 77.0916 90.5063 77.8667C85.0437 78.8148 82.1865 83.5103 81.9346 88.2735C81.9595 88.512 81.897 88.7515 81.7587 88.9473C81.6204 89.1432 81.4157 89.2821 81.1827 89.3382C75.1074 91.8779 71.5396 96.3928 70.9343 102.984C70.611 106.514 71.5622 109.757 74.5397 112.014C77.1713 114.02 80.1113 114.174 83.2091 113.196C83.1489 113.03 83.1377 112.921 83.1076 112.917C79.1714 112.225 77.0059 109.591 76.1074 105.983C75.2352 102.48 76.6149 99.4817 79.2391 97.1264C84.1678 92.7018 93.2282 92.3331 98.5817 99.5908C101.352 103.353 102.251 107.669 102.341 112.229C102.435 117.056 97.6531 131.462 95.6079 136.011C101.992 130.375 105.845 121.232 107.943 117.387Z" fill="#AA5C9D"/>
<path d="M31.1098 117.387C29.4293 114.313 27.8578 111.179 25.5344 108.508C25.3352 108.274 25.0044 107.988 25.2863 107.627C25.5683 107.266 25.8502 107.575 26.1247 107.627C27.4856 107.94 28.4894 108.854 29.527 109.7C30.1887 110.238 30.809 110.829 31.497 111.442C31.1211 105.543 32.5422 100.185 35.9182 95.501C40.1476 89.6316 45.9748 87.156 53.2119 88.1304C53.5878 88.1831 54.1518 88.5067 54.4074 88.0778C54.663 87.6489 54.3059 87.2388 54.1292 86.8475C52.5765 83.4199 47.9749 81.4522 44.4222 82.6825C43.1251 83.134 42.4597 84.1423 42.0424 85.3688C41.9296 85.7075 41.9033 86.2229 41.4634 86.2116C40.9446 86.2116 40.9597 85.6435 40.892 85.2748C40.0762 80.8916 44.0613 77.1066 48.5388 77.8817C54.0014 78.8298 56.8586 83.5253 57.1105 88.2885C57.0856 88.527 57.1481 88.7665 57.2864 88.9623C57.4247 89.1582 57.6294 89.2971 57.8624 89.3532C63.934 91.8929 67.5055 96.4077 68.107 102.999C68.4341 106.529 67.4829 109.772 64.5054 112.029C61.8738 114.035 58.9338 114.189 55.836 113.211C55.8924 113.045 55.9037 112.936 55.9375 112.932C59.87 112.24 62.0392 109.606 62.9377 105.998C63.8062 102.495 62.4302 99.4967 59.8023 97.1414C54.8773 92.7168 45.8169 92.3481 40.4597 99.6058C37.6927 103.368 36.7941 107.684 36.7002 112.244C36.6099 117.071 41.392 131.477 43.4334 136.026C37.0648 130.375 33.2113 121.232 31.1098 117.387Z" fill="#AA5C9D"/>
<path d="M114.518 69.454C111.274 69.454 108.037 69.1568 104.788 69.0966C103.262 69.0966 83.5999 69.0966 72.5206 69.0966C72.4205 69.0902 72.32 69.0902 72.2199 69.0966H71.468C68.0656 69.0966 65.6558 69.0966 65.1595 69.0966C65.0037 69.0858 64.8472 69.1024 64.6971 69.1455C53.6517 69.1869 34.388 69.2095 32.4857 69.2546C29.7288 69.3148 26.963 69.3863 24.1885 69.4691C23.8126 69.4691 23.1659 69.4089 23.4817 70.0786C24.1043 71.482 24.374 73.0166 24.2675 74.5483C24.2374 75.2594 24.5607 75.3497 25.1284 75.2745C27.5833 74.9547 30.0496 75.0976 32.5158 75.1052C34.1662 75.1052 57.3285 75.1052 66.7272 75.1052C66.8442 75.1225 66.9624 75.1313 67.0806 75.1315C71.5544 75.1315 109.45 74.8418 113.916 75.2782C114.473 75.3309 114.567 75.0713 114.559 74.5972C114.559 73.1863 114.559 71.7754 115.202 70.4586C115.616 69.5556 115.559 69.4615 114.518 69.454Z" fill="#AA5C9D"/>
<path d="M116.168 47.9559C116.217 46.9212 116.62 45.9543 116.902 44.8632H99.7883C97.4853 44.6926 95.1745 44.6537 92.8671 44.7465L78.2953 44.6901C78.1662 44.6394 78.0276 44.6176 77.8892 44.6261C77.7896 44.6105 77.6892 44.6005 77.5885 44.596C73.9343 44.596 70.2763 44.5245 66.6183 44.5584C64.6257 44.581 62.6257 44.4719 60.6332 44.6299H60.5993C60.3906 44.6044 60.1789 44.6249 59.979 44.6901L58.9339 44.7164L46.8546 44.7465C44.6685 44.6681 42.4798 44.7082 40.298 44.8669L25.0044 44.9271C24.2525 44.9271 23.5006 44.9271 22.7487 44.8669C21.9968 44.8067 21.8652 45.0776 22.1133 45.7285C22.7675 47.463 22.7336 49.2539 22.4893 51.0561C22.3351 51.628 22.6848 51.5979 23.0833 51.5979C44.644 51.643 66.201 51.7559 87.7467 51.6656C97.005 51.628 106.266 51.6104 115.529 51.6129C116.056 51.6129 116.529 51.6393 116.3 50.8604C116.108 49.9161 116.225 48.9303 116.168 47.9559Z" fill="#AA5C9D"/>
<path d="M114.537 41.311C113.033 40.2124 111.529 39.1138 110.026 38.0302C102.89 32.9547 95.7921 27.8416 89.198 22.0776C82.6038 16.3136 75.8179 10.6813 69.8553 4.19866C69.532 3.84876 69.3591 3.82242 69.0245 4.19866C66.226 7.23181 63.2747 10.1201 60.1821 12.8522C51.2175 20.9625 41.8147 28.574 32.016 35.6524C29.4407 37.5336 26.8391 39.3621 24.2526 41.2207C24.0458 41.3675 23.6774 41.4578 23.7676 41.7851C23.8579 42.1124 24.215 42.0409 24.4744 42.0598C25.0053 42.1637 25.5477 42.1966 26.0872 42.1576C26.2885 42.0926 26.5014 42.0721 26.7113 42.0974H43.8471C44.057 42.0721 44.27 42.0926 44.4712 42.1576C47.7269 41.8265 50.3285 40.4118 52.0428 37.4771C52.1442 37.5782 52.2338 37.6906 52.3098 37.812C53.5203 40.4457 55.7347 41.4803 58.449 41.8904C61.2987 42.3194 64.1522 42.1651 67.0019 42.2103C68.3327 42.2103 68.3177 42.2103 68.3252 40.8596C68.3515 35.5922 68.1297 30.3248 69.0771 25.1064C69.1598 24.6436 69.1335 24.1244 69.6335 23.6578C70.0446 25.6591 70.3247 27.6851 70.4719 29.7228C70.7802 33.5718 70.6373 37.4282 70.6448 41.2809C70.6448 41.9845 70.8742 42.2366 71.5847 42.2291C74.2615 42.1877 76.9457 42.3118 79.6112 42.0146C82.5737 41.6835 85.2881 40.8859 86.6716 37.8421C86.7507 37.71 86.8399 37.5842 86.9385 37.4659C87.6924 38.8382 88.7831 39.9958 90.1078 40.8295C91.4649 41.6421 92.9048 42.2027 94.5214 42.1463C94.7219 42.0781 94.9353 42.0562 95.1455 42.0823H111.379C111.589 42.0562 111.803 42.0781 112.003 42.1463C112.789 42.2404 113.56 42.0673 114.338 42.0221C114.529 42.0221 114.796 42.0974 114.894 41.8415C115.011 41.5368 114.717 41.4427 114.537 41.311ZM96.7621 38.9671C93.2883 37.353 90.3709 34.9639 87.5475 32.4129C86.3257 31.2842 85.149 30.1292 83.7091 29.2902C82.0549 28.3232 80.2879 27.9959 78.4458 28.6129C74.8931 29.7981 74.7352 33.8803 76.1375 35.991C76.7803 36.9579 77.754 37.2815 78.8894 37.1498C79.0285 37.1498 79.2202 37.1235 79.2917 37.0332C79.4496 36.8338 79.2202 36.7171 79.1037 36.6043C78.8092 36.3248 78.5898 35.9757 78.4656 35.5891C78.3415 35.2025 78.3165 34.7908 78.3932 34.392C78.4605 33.9602 78.6578 33.5593 78.9587 33.2427C79.2596 32.926 79.6499 32.7088 80.0774 32.6199C80.6741 32.5218 81.2866 32.6078 81.8332 32.8666C82.3799 33.1253 82.8349 33.5445 83.1376 34.0684C83.4072 34.5412 83.5379 35.0805 83.5146 35.6243C83.4914 36.1682 83.3151 36.6943 83.0061 37.1423C81.6752 39.3696 78.4947 40.1522 76.2916 38.7978C74.5509 37.7142 73.4231 36.1641 73.19 34.0797C72.9607 32.0555 73.0133 30.0426 73.9908 28.1953C74.8103 26.6489 76.0209 25.5992 77.8706 25.5089C77.9864 25.4956 78.1001 25.4678 78.2089 25.4262C78.2315 25.4262 78.2465 25.381 78.318 25.2907C75.1901 22.5743 72.0358 19.9029 69.3403 16.6936C66.7462 20.0459 63.4679 22.6758 60.3363 25.5202C60.4367 25.5759 60.5425 25.6213 60.6521 25.6557C63.5807 26.0319 65.1635 27.4654 65.5169 30.4791C65.7349 32.3603 65.9718 34.3393 65.0695 36.1565C64.1108 38.1017 62.5581 39.3019 60.3739 39.4449C58.246 39.5841 56.6858 38.5457 55.6745 36.7171C55.3851 36.2698 55.2481 35.7408 55.284 35.2091C55.3199 34.6774 55.5268 34.1717 55.8738 33.7674C56.2292 33.2911 56.7204 32.9337 57.2828 32.7423C57.8452 32.5508 58.4523 32.5344 59.0242 32.6951C60.6596 33.124 61.0731 35.1219 59.8588 36.4801C59.731 36.6193 59.4378 36.6946 59.5543 36.9542C59.6709 37.2138 59.9115 37.1385 60.1182 37.1611C60.7497 37.2774 61.4019 37.1613 61.9546 36.8343C62.5074 36.5072 62.9233 35.9913 63.1258 35.3815C63.8777 33.5266 63.8025 31.7056 62.513 30.1141C61.0656 28.342 59.0956 28.0486 56.9565 28.4963C55.7083 28.7559 54.7234 29.4896 53.7572 30.2609C51.4075 32.1421 49.3022 34.3017 46.8622 36.07C44.4223 37.8383 42.0162 39.3997 39.0162 39.8851C38.2228 39.9788 37.4229 40.0052 36.6251 39.9641C36.5387 39.6292 36.7567 39.5578 36.9334 39.4562C41.7343 36.7284 46.0126 33.2783 50.2759 29.8018C54.6406 26.2426 59.0242 22.6533 63.1597 18.8118C65.0394 17.1 66.8928 15.4031 68.7124 13.6498C69.2237 13.1607 69.4643 13.0779 70.0433 13.616C78.1484 21.3742 86.7103 28.6398 95.6831 35.374C97.6023 36.8253 99.6114 38.1535 101.698 39.3508C101.836 39.3967 101.962 39.4744 102.064 39.5777C102.167 39.6809 102.244 39.8069 102.289 39.9453C100.392 40.1203 98.4835 39.7824 96.7621 38.9671Z" fill="#AA5C9D"/>
</svg>
