<svg width="75" height="115" viewBox="0 0 75 115" fill="none" xmlns="http://www.w3.org/2000/svg">
<path d="M59.3178 34.2754C59.4498 34.569 59.5621 34.8712 59.6537 35.18C60.0721 37.0159 59.9861 38.9316 59.4049 40.7223C59.103 41.8031 58.5877 42.8118 57.8897 43.6884C56.5386 45.2951 54.7373 45.9373 52.7195 45.9173C51.6745 45.9173 50.627 45.6325 49.5845 45.4575C49.0098 45.3601 48.4375 45.2327 47.8703 45.1002C47.5991 45.0352 47.3428 44.9253 46.9646 44.7979L47.4622 44.3606C48.2808 43.6609 49.164 43.0212 49.9105 42.2491C50.8642 41.3051 51.9983 40.5648 53.2445 40.0726C55.3021 39.188 57.1134 37.9786 58.3251 36.0296C58.6259 35.4835 58.8983 34.9222 59.1412 34.3479L59.3178 34.2754Z" fill="#80CCE8"/>
<path d="M24.9975 67.1019C24.8632 66.897 24.6442 66.7046 24.6044 66.4822C24.3142 64.9666 24.3074 63.41 24.5845 61.8919C24.8111 60.8322 25.205 59.8156 25.7514 58.8809C27.0651 56.5395 29.1725 55.6149 31.7227 55.7349C33.0986 55.7998 34.4596 56.1772 35.8255 56.4021C36.3431 56.487 36.8656 56.5345 37.5299 56.6194C37.2935 56.8693 37.1392 57.0417 36.9601 57.1967C36.0196 58.0113 35.1115 58.8709 34.1138 59.608C33.3495 60.1375 32.5412 60.5998 31.6979 60.9899C30.7823 61.4471 29.792 61.7645 28.9013 62.2642C27.0228 63.3237 25.7091 64.8755 25.1692 67.012L24.9975 67.1019Z" fill="#80CCE8"/>
<path d="M40.0975 69.8564C40.4185 69.4466 40.6474 69.1418 40.8887 68.8569C41.4436 68.1772 42.0457 67.53 42.5557 66.8154C43.3345 65.7284 44.4342 65.0312 45.4518 64.2241C46.3501 63.5593 47.1938 62.8232 47.9747 62.0227C48.5793 61.363 48.9699 60.5059 49.4676 59.7463C49.6048 59.573 49.759 59.4139 49.9278 59.2715C50.0597 59.4289 50.2538 59.5638 50.3185 59.7463C50.9902 61.6229 51.361 63.5295 50.831 65.5185C50.1692 68.0173 47.3975 70.3412 44.489 70.2088C43.2101 70.1504 41.9312 70.0871 40.6524 70.0188C40.4633 69.9802 40.2777 69.9259 40.0975 69.8564Z" fill="#80CCE8"/>
<path d="M34.1959 42.388C33.9749 42.0806 33.7793 41.7555 33.6112 41.4159C32.8798 39.5304 32.8131 37.4502 33.4221 35.5213C34.2382 32.7351 37.1965 30.926 40.0577 31.3857C40.9236 31.5232 41.782 31.7106 42.6403 31.8855C43.3196 32.0329 43.4017 32.2453 42.9613 32.7951C42.1502 33.8071 41.3565 34.8391 40.4732 35.7936C40.0453 36.2484 39.4307 36.5258 38.8983 36.8806C37.5199 37.7952 36.1614 38.7472 35.2757 40.189C34.8851 40.8212 34.6114 41.5284 34.1959 42.388Z" fill="#80CCE8"/>
<path d="M45.0338 53.1178C45.1681 52.3831 45.3323 51.4685 45.5065 50.554C45.5168 50.4335 45.5729 50.3216 45.6633 50.2416C45.7279 50.2091 45.9121 50.2916 45.9643 50.3741C46.8326 51.7109 47.8328 52.9853 48.5046 54.4171C49.1764 55.8489 49.4128 57.4157 48.8306 58.9725C48.5045 59.9522 47.937 60.8333 47.181 61.5337C46.2554 62.3408 45.3348 63.1505 44.3894 63.9351C44.3011 64.0036 44.1994 64.0529 44.091 64.0796C43.9826 64.1062 43.8698 64.1098 43.7599 64.09C43.628 64.055 43.5111 63.7652 43.4887 63.5728C43.2399 62.2034 43.0408 60.8241 42.7696 59.4597C42.6838 58.9526 42.7632 58.4311 42.9961 57.9729C43.6629 56.4187 44.3073 54.8594 45.0338 53.1178Z" fill="#80CCE8"/>
<path d="M42.093 43.6523C42.3617 44.0871 42.6702 44.5419 42.9339 45.0192C43.3544 45.7688 43.745 46.546 44.1506 47.3081C44.8497 48.6175 44.7801 49.9993 44.5337 51.3936C44.158 53.5051 43.1081 55.3542 42.2422 57.2758C42.0556 57.6881 41.7446 57.7156 41.4759 57.3408C41.2035 56.9709 40.9622 56.5789 40.7544 56.1689C40.2443 55.1518 39.7094 54.1423 39.2864 53.0903C38.984 52.3456 38.8391 51.5458 38.8609 50.7418C38.8828 49.9378 39.0709 49.1471 39.4133 48.4201C39.9831 47.1332 40.6175 45.8713 41.2445 44.6094C41.4262 44.2421 41.4336 43.7048 42.093 43.6523Z" fill="#80CCE8"/>
<path d="M32.397 67.625C32.7553 68.0673 33.0414 68.3597 33.2604 68.697C33.758 69.4466 34.1859 70.2387 34.6786 70.9884C35.2249 71.7762 35.5942 72.6739 35.7609 73.6192C35.9276 74.5645 35.8877 75.535 35.6439 76.4633C35.4101 77.3603 34.8129 78.1675 34.3576 78.9996C34.0043 79.6418 33.6112 80.2665 33.2405 80.8937C32.9245 81.4159 32.7105 81.4609 32.3721 80.9511C31.775 80.0516 31.2152 79.1195 30.7076 78.165C30.3575 77.5689 30.1054 76.9201 29.9612 76.2434C29.794 74.9998 29.9839 73.734 30.5086 72.5951C31.0261 71.3782 31.4914 70.1413 31.9691 68.9069C32.096 68.5446 32.2129 68.1747 32.397 67.625Z" fill="#80CCE8"/>
<path d="M37.923 50.7103C37.7693 50.593 37.6291 50.4589 37.505 50.3105C36.5545 48.8737 35.5518 47.4594 35.0169 45.7952C34.6462 44.6407 34.8502 43.5338 35.2309 42.4018C35.9151 40.3678 37.3009 38.9809 39.0774 37.9039C39.2732 37.7687 39.4878 37.6635 39.7144 37.5916C40.0652 37.5041 40.4458 37.5366 40.518 37.9814C40.6897 39.0109 40.8066 40.0479 40.9634 41.0799C41.2122 42.7591 40.5006 44.1709 39.7318 45.5553C38.8784 47.0921 38.1618 48.6663 38.0075 50.4479C37.9883 50.5381 37.9599 50.626 37.923 50.7103Z" fill="#80CCE8"/>
<path d="M28.9486 74.7962C28.751 74.7082 28.566 74.5939 28.3987 74.4564C27.6697 73.6293 26.988 72.7697 26.6223 71.7077C26.4182 71.103 26.0649 70.5432 25.9107 69.931C25.3757 67.7696 26.1172 65.9479 27.5826 64.4012C28.598 63.383 29.8297 62.609 31.1853 62.1373C31.9666 61.8374 32.0885 61.9748 32.0213 62.8094C31.9243 64.0289 31.892 65.2558 31.8173 66.4777C31.8043 66.7149 31.7539 66.9485 31.668 67.1699C30.9042 69.1689 30.1205 71.1679 29.3666 73.192C29.2006 73.7193 29.061 74.2548 28.9486 74.7962Z" fill="#80CCE8"/>
<path d="M49.1093 69.6074C48.6789 71.3141 47.6538 72.4586 46.569 73.558C44.8715 75.289 42.6352 76.3842 40.2319 76.6616C39.4009 76.769 39.2143 76.689 38.759 75.9744C38.0126 74.8149 37.2661 73.6705 36.5197 72.5085C36.1366 71.9063 36.2411 71.6564 36.9452 71.534C38.1892 71.3141 39.3884 70.8218 40.7121 70.9718C41.9561 71.1117 43.225 71.1017 44.484 71.1217C45.883 71.1414 47.2569 70.7478 48.435 69.9897C48.6191 69.8748 48.8107 69.7773 49.1093 69.6074Z" fill="#80CCE8"/>
<path d="M36.975 75.0625C37.388 75.7447 37.9155 76.3869 38.1916 77.1215C38.654 78.3365 39.0225 79.5854 39.2938 80.8572C39.7914 83.2986 38.7962 85.1552 36.8531 86.552C35.8006 87.3016 34.6835 87.9838 33.5887 88.686C33.4637 88.7416 33.3313 88.7786 33.1956 88.7959C33.1608 88.6585 33.0737 88.5136 33.1011 88.3911C33.213 87.8914 33.427 87.3916 33.4792 86.8918C33.6037 85.7274 33.6907 84.558 33.7281 83.3935C33.7582 82.3277 34.0644 81.2882 34.6163 80.3775C35.2308 79.3405 35.7956 78.2685 36.3082 77.1765C36.5271 76.7067 36.557 76.1495 36.6689 75.6322C36.7063 75.4598 36.751 75.2874 36.7909 75.115L36.975 75.0625Z" fill="#80CCE8"/>
<path d="M54.0581 26.918C55.8768 28.2298 57.5662 29.4443 58.3674 31.5108C58.5947 32.1548 58.613 32.8547 58.4196 33.5098C57.8374 35.9037 56.2177 37.4304 54.1899 38.6124C53.6226 38.9447 53.0031 39.1846 52.2716 39.5319C52.1895 39.2596 52.0228 38.9622 52.0228 38.6723C52.0825 37.5204 52.1 36.351 52.3388 35.2315C52.518 34.3919 52.9782 33.5998 53.3689 32.8151C54.1526 31.2359 54.5308 29.6192 54.0332 27.8675C53.976 27.6176 54.0506 27.3253 54.0581 26.918Z" fill="#80CCE8"/>
<path d="M43.4191 24.5767C43.6038 24.5776 43.788 24.5591 43.9689 24.5217C45.2739 24.0668 46.6843 24.0138 48.0195 24.3693C49.0147 24.6516 50.0547 24.869 51.0052 25.3063C52.61 26.0335 53.4509 27.7801 53.3315 29.6318C53.227 31.211 52.493 32.5404 51.7939 33.8797C51.6272 34.2021 51.458 34.0846 51.2963 33.8797C50.4329 32.8427 49.5546 31.8182 48.7236 30.7562C48.4805 30.3906 48.2872 29.9939 48.1489 29.5768C47.487 27.9701 46.656 26.4908 45.0711 25.6237C44.7253 25.4363 44.3521 25.3013 43.9938 25.1239C43.8271 25.0464 43.6704 24.9515 43.5086 24.874L43.4191 24.5767Z" fill="#80CCE8"/>
<path d="M35.226 31.5451C35.3777 31.0953 35.4325 30.6955 35.6265 30.3882C36.6218 28.8314 37.7041 27.3896 39.3711 26.4575C41.8118 25.1132 45.6235 25.7754 46.88 29.1562C47.0592 29.6385 47.3005 30.0958 47.4821 30.5781C47.567 30.7642 47.5794 30.9754 47.517 31.1703C47.4572 31.2802 47.1686 31.2927 46.982 31.2952C44.6706 31.3177 42.4164 30.8729 40.1498 30.4881C38.5805 30.2152 36.9661 30.5367 35.6191 31.3902C35.4915 31.4502 35.3601 31.5019 35.226 31.5451Z" fill="#80CCE8"/>
<path d="M56.0111 46.4471C55.5509 47.0954 55.0524 47.7154 54.5183 48.3037C52.8653 50.0053 50.6811 51.0858 48.3305 51.3648C48.2033 51.3652 48.0776 51.3367 47.963 51.2813C47.8483 51.2259 47.7477 51.1451 47.6687 51.0449C46.7531 49.6031 45.8723 48.1413 44.999 46.672C44.7651 46.2797 44.9094 45.9799 45.407 45.9674C46.2987 45.936 47.1914 45.9761 48.0767 46.0873C49.159 46.2347 50.2214 46.5221 51.3112 46.7095C52.6483 46.9684 54.0296 46.8701 55.317 46.4246C55.4862 46.3672 55.6628 46.3272 55.8345 46.2797L56.0111 46.4471Z" fill="#80CCE8"/>
<path d="M28.3639 55.2068C28.4638 54.9805 28.5768 54.7602 28.7023 54.5471C30.4439 52.0733 32.9121 50.8189 35.8032 50.2742C35.9784 50.221 36.167 50.2344 36.3331 50.3118C36.4992 50.3892 36.6311 50.5252 36.7039 50.694C37.4329 52.0958 38.1967 53.4776 38.9431 54.872C39.2989 55.5392 39.1397 55.849 38.4082 55.7665C36.9427 55.5991 35.4748 55.4142 34.0267 55.1319C32.4841 54.832 30.9614 54.6646 29.4163 55.0569C29.1675 55.1219 28.9187 55.1668 28.6699 55.2143C28.5679 55.2201 28.4655 55.2176 28.3639 55.2068Z" fill="#80CCE8"/>
<path d="M22.2955 81.9606C23.1887 79.8466 24.383 77.98 26.3212 76.7131C26.8458 76.4147 27.4026 76.1775 27.9807 76.0059C28.4037 75.8535 28.5903 76.2283 28.7271 76.5057C29.3541 77.7301 29.9388 78.977 30.5559 80.2064C30.7474 80.5862 30.5285 80.6762 30.2473 80.7062C28.0255 81.0335 25.9828 81.8781 23.9948 82.8751C23.5694 83.09 23.1688 83.3524 22.7508 83.5648C22.604 83.6348 22.3428 83.6923 22.2532 83.6173C22.1898 83.545 22.1415 83.4606 22.1111 83.3692C22.0808 83.2777 22.069 83.1811 22.0766 83.085C22.1289 82.7065 22.202 82.3311 22.2955 81.9606Z" fill="#80CCE8"/>
</svg>
