<svg id="Layer_1" data-name="Layer 1" xmlns="http://www.w3.org/2000/svg" viewBox="0 0 301.44 460.22"><defs><style>.cls-1{fill:#fff;}</style></defs><path class="cls-1" d="M238.41,137.17a28.75,28.75,0,0,1,1.35,3.62,41.61,41.61,0,0,1-1,22.18,33.49,33.49,0,0,1-6.09,11.87c-5.43,6.43-12.67,9-20.78,8.92-4.2,0-8.41-1.14-12.6-1.84-2.31-.39-4.61-.9-6.89-1.43-1.09-.26-2.12-.7-3.64-1.21l2-1.75c3.29-2.8,6.84-5.36,9.84-8.45A39.89,39.89,0,0,1,214,160.37c8.27-3.54,15.55-8.38,20.42-16.18a72.16,72.16,0,0,0,3.28-6.73Z"/><path class="cls-1" d="M100.47,268.54c-.54-.82-1.42-1.59-1.58-2.48a49.76,49.76,0,0,1-.08-18.37,40.66,40.66,0,0,1,4.69-12.05c5.28-9.37,13.75-13.07,24-12.59,5.53.26,11,1.77,16.49,2.67,2.08.34,4.18.53,6.85.87-.95,1-1.57,1.69-2.29,2.31-3.78,3.26-7.43,6.7-11.44,9.65a64.91,64.91,0,0,1-9.71,5.53c-3.68,1.83-7.66,3.1-11.24,5.1-7.55,4.24-12.83,10.45-15,19Z"/><path class="cls-1" d="M161.16,279.56c1.29-1.64,2.21-2.86,3.18-4,2.23-2.72,4.65-5.31,6.7-8.17,3.13-4.35,7.55-7.14,11.64-10.37a83.73,83.73,0,0,0,10.14-8.81c2.43-2.64,4-6.07,6-9.11a13.27,13.27,0,0,1,1.85-1.9c.53.63,1.31,1.17,1.57,1.9,2.7,7.51,4.19,15.14,2.06,23.1-2.66,10-13.8,19.3-25.49,18.77q-7.71-.35-15.42-.76A14,14,0,0,1,161.16,279.56Z"/><path class="cls-1" d="M137.44,169.63a27.77,27.77,0,0,1-2.35-3.89,35.46,35.46,0,0,1-.76-23.59C137.61,131,149.5,123.76,161,125.6c3.48.55,6.93,1.3,10.38,2,2.73.59,3.06,1.44,1.29,3.64-3.26,4.05-6.45,8.18-10,12-1.72,1.82-4.19,2.93-6.33,4.35-5.54,3.66-11,7.47-14.56,13.24C140.21,163.36,139.11,166.19,137.44,169.63Z"/><path class="cls-1" d="M181,212.57c.54-2.94,1.2-6.6,1.9-10.26a1.88,1.88,0,0,1,.63-1.25c.26-.13,1,.2,1.21.53,3.49,5.35,7.51,10.45,10.21,16.18s3.65,12,1.31,18.23a24.52,24.52,0,0,1-6.63,10.25c-3.72,3.23-7.42,6.47-11.22,9.61a3.21,3.21,0,0,1-2.53.62c-.53-.14-1-1.3-1.09-2.07-1-5.48-1.8-11-2.89-16.46a9.56,9.56,0,0,1,.91-5.95C175.49,225.78,178.08,219.54,181,212.57Z"/><path class="cls-1" d="M169.18,174.69c1.08,1.74,2.32,3.56,3.38,5.47,1.69,3,3.26,6.11,4.89,9.16,2.81,5.24,2.53,10.77,1.54,16.35-1.51,8.45-5.73,15.85-9.21,23.54-.75,1.65-2,1.76-3.08.26a33.26,33.26,0,0,1-2.9-4.69c-2.05-4.07-4.2-8.11-5.9-12.32a23.21,23.21,0,0,1,.51-18.69c2.29-5.15,4.84-10.2,7.36-15.25C166.5,177.05,166.53,174.9,169.18,174.69Z"/><path class="cls-1" d="M130.21,270.63c1.44,1.77,2.59,2.94,3.47,4.29,2,3,3.72,6.17,5.7,9.17A26.51,26.51,0,0,1,143.26,306c-.94,3.59-3.34,6.82-5.17,10.15-1.42,2.57-3,5.07-4.49,7.58-1.27,2.09-2.13,2.27-3.49.23-2.4-3.6-4.65-7.33-6.69-11.15a25.73,25.73,0,0,1-3-7.69,26.37,26.37,0,0,1,2.2-14.6c2.08-4.87,3.95-9.82,5.87-14.76C129,274.31,129.47,272.83,130.21,270.63Z"/><path class="cls-1" d="M152.42,202.94a10.45,10.45,0,0,1-1.68-1.6c-3.82-5.75-7.85-11.41-10-18.07-1.49-4.62-.67-9.05.86-13.58,2.75-8.14,8.32-13.69,15.46-18a9.64,9.64,0,0,1,2.56-1.25c1.41-.35,2.94-.22,3.23,1.56.69,4.12,1.16,8.27,1.79,12.4,1,6.72-1.86,12.37-4.95,17.91-3.43,6.15-6.31,12.45-6.93,19.58A5.44,5.44,0,0,1,152.42,202.94Z"/><path class="cls-1" d="M116.35,299.33a9.7,9.7,0,0,1-2.21-1.36c-2.93-3.31-5.67-6.75-7.14-11-.82-2.42-2.24-4.66-2.86-7.11-2.15-8.65.83-15.94,6.72-22.13a38.19,38.19,0,0,1,14.48-9.06c3.14-1.2,3.63-.65,3.36,2.69-.39,4.88-.52,9.79-.82,14.68a9,9,0,0,1-.6,2.77c-3.07,8-6.22,16-9.25,24.1A66,66,0,0,0,116.35,299.33Z"/><path class="cls-1" d="M197.38,278.56c-1.73,6.83-5.85,11.41-10.21,15.81a42.57,42.57,0,0,1-25.47,12.42c-3.34.43-4.09.11-5.92-2.75-3-4.64-6-9.22-9-13.87-1.54-2.41-1.12-3.41,1.71-3.9,5-.88,9.82-2.85,15.14-2.25,5,.56,10.1.52,15.16.6a28.69,28.69,0,0,0,15.88-4.53C195.41,279.63,196.18,279.24,197.38,278.56Z"/><path class="cls-1" d="M148.61,300.39c1.66,2.73,3.78,5.3,4.89,8.24a101.36,101.36,0,0,1,4.43,14.95c2,9.77-2,17.2-9.81,22.79-4.23,3-8.72,5.73-13.12,8.54a5.67,5.67,0,0,1-1.58.44c-.14-.55-.49-1.13-.38-1.62.45-2,1.31-4,1.52-6,.5-4.66.85-9.34,1-14a24.56,24.56,0,0,1,3.57-12.07c2.47-4.15,4.74-8.44,6.8-12.81.88-1.88,1-4.11,1.45-6.18.15-.69.33-1.38.49-2.07Z"/><path class="cls-1" d="M217.27,107.72c7.31,5.25,14.1,10.11,17.32,18.38a12.94,12.94,0,0,1,.21,8c-2.34,9.58-8.85,15.69-17,20.42-2.28,1.33-4.77,2.29-7.71,3.68-.33-1.09-1-2.28-1-3.44.24-4.61.31-9.29,1.27-13.77.72-3.36,2.57-6.53,4.14-9.67,3.15-6.32,4.67-12.79,2.67-19.8C216.94,110.52,217.24,109.35,217.27,107.72Z"/><path class="cls-1" d="M174.51,98.35a10.69,10.69,0,0,0,2.21-.22A27.87,27.87,0,0,1,193,97.52c4,1.13,8.18,2,12,3.75,6.45,2.91,9.83,9.9,9.35,17.31-.42,6.32-3.37,11.64-6.18,17-.67,1.29-1.35.82-2,0-3.47-4.15-7-8.25-10.34-12.5a19.71,19.71,0,0,1-2.31-4.72c-2.66-6.43-6-12.35-12.37-15.82-1.39-.75-2.89-1.29-4.33-2-.67-.31-1.3-.69-1.95-1Z"/><path class="cls-1" d="M141.58,126.24c.61-1.8.83-3.4,1.61-4.63,4-6.23,8.35-12,15.05-15.73,9.81-5.38,25.13-2.73,30.18,10.8.72,1.93,1.69,3.76,2.42,5.69a3.28,3.28,0,0,1,.14,2.37c-.24.44-1.4.49-2.15.5-9.29.09-18.35-1.69-27.46-3.23a25.86,25.86,0,0,0-18.21,3.61A13.26,13.26,0,0,1,141.58,126.24Z"/><path class="cls-1" d="M225.12,185.88a79.65,79.65,0,0,1-6,7.43,41.56,41.56,0,0,1-24.87,12.25,3.38,3.38,0,0,1-2.66-1.28c-3.68-5.77-7.22-11.62-10.73-17.5-.94-1.57-.36-2.77,1.64-2.82a67.43,67.43,0,0,1,10.73.48c4.35.59,8.62,1.74,13,2.49a31.26,31.26,0,0,0,16.1-1.14c.68-.23,1.39-.39,2.08-.58Z"/><path class="cls-1" d="M114,220.93a25.46,25.46,0,0,1,1.36-2.64c7-9.9,16.92-14.92,28.54-17.1a3,3,0,0,1,3.62,1.68c2.93,5.61,6,11.14,9,16.72,1.43,2.67.79,3.91-2.15,3.58-5.89-.67-11.79-1.41-17.61-2.54-6.2-1.2-12.32-1.87-18.53-.3-1,.26-2,.44-3,.63A7.63,7.63,0,0,1,114,220.93Z"/><path class="cls-1" d="M89.61,328c3.59-8.46,8.39-15.93,16.18-21a31.85,31.85,0,0,1,6.67-2.83c1.7-.61,2.45.89,3,2,2.52,4.9,4.87,9.89,7.35,14.81.77,1.52-.11,1.88-1.24,2-8.93,1.31-17.14,4.69-25.13,8.68-1.71.86-3.32,1.91-5,2.76-.59.28-1.64.51-2,.21a2.88,2.88,0,0,1-.71-2.13A41.59,41.59,0,0,1,89.61,328Z"/></svg>