<svg width="75" height="115" viewBox="0 0 75 115" fill="none" xmlns="http://www.w3.org/2000/svg">
<path d="M59.3178 34.2754C59.4498 34.569 59.5621 34.8712 59.6537 35.18C60.0721 37.0159 59.9861 38.9316 59.4049 40.7223C59.103 41.8031 58.5877 42.8118 57.8897 43.6884C56.5386 45.2951 54.7373 45.9373 52.7195 45.9173C51.6745 45.9173 50.627 45.6325 49.5845 45.4575C49.0098 45.3601 48.4375 45.2327 47.8703 45.1002C47.5991 45.0352 47.3428 44.9253 46.9646 44.7979L47.4622 44.3606C48.2808 43.6609 49.164 43.0212 49.9105 42.2491C50.8642 41.3051 51.9983 40.5648 53.2445 40.0726C55.3021 39.188 57.1134 37.9786 58.3251 36.0296C58.6259 35.4835 58.8983 34.9222 59.1412 34.3479L59.3178 34.2754Z" fill="white"/>
<path d="M24.9975 67.1019C24.8632 66.897 24.6442 66.7046 24.6044 66.4822C24.3142 64.9666 24.3074 63.41 24.5845 61.8919C24.8111 60.8322 25.205 59.8156 25.7514 58.8809C27.0651 56.5395 29.1725 55.6149 31.7227 55.7349C33.0986 55.7998 34.4596 56.1772 35.8255 56.4021C36.3431 56.487 36.8656 56.5345 37.5299 56.6194C37.2935 56.8693 37.1392 57.0417 36.9601 57.1967C36.0196 58.0113 35.1115 58.8709 34.1138 59.608C33.3495 60.1375 32.5412 60.5998 31.6979 60.9899C30.7823 61.4471 29.792 61.7645 28.9013 62.2642C27.0228 63.3237 25.7091 64.8755 25.1692 67.012L24.9975 67.1019Z" fill="white"/>
<path d="M40.0977 69.8564C40.4186 69.4466 40.6475 69.1418 40.8889 68.8569C41.4437 68.1772 42.0458 67.53 42.5559 66.8154C43.3346 65.7284 44.4343 65.0312 45.452 64.2241C46.3503 63.5593 47.1939 62.8232 47.9748 62.0227C48.5794 61.363 48.9701 60.5059 49.4677 59.7463C49.6049 59.573 49.7591 59.4139 49.928 59.2715C50.0598 59.4289 50.2539 59.5638 50.3186 59.7463C50.9904 61.6229 51.3611 63.5295 50.8311 65.5185C50.1693 68.0173 47.3976 70.3412 44.4891 70.2088C43.2102 70.1504 41.9314 70.0871 40.6525 70.0188C40.4634 69.9802 40.2778 69.9259 40.0977 69.8564Z" fill="white"/>
<path d="M34.1957 42.388C33.9747 42.0806 33.7792 41.7555 33.6111 41.4159C32.8797 39.5304 32.8129 37.4502 33.422 35.5213C34.238 32.7351 37.1963 30.926 40.0576 31.3857C40.9235 31.5232 41.7818 31.7106 42.6402 31.8855C43.3195 32.0329 43.4016 32.2453 42.9612 32.7951C42.1501 33.8071 41.3564 34.8391 40.4731 35.7936C40.0452 36.2484 39.4306 36.5258 38.8982 36.8806C37.5198 37.7952 36.1613 38.7472 35.2756 40.189C34.8849 40.8212 34.6113 41.5284 34.1957 42.388Z" fill="white"/>
<path d="M45.0339 53.1178C45.1683 52.3831 45.3325 51.4685 45.5066 50.554C45.5169 50.4335 45.573 50.3216 45.6634 50.2416C45.7281 50.2091 45.9122 50.2916 45.9644 50.3741C46.8328 51.7109 47.833 52.9853 48.5047 54.4171C49.1765 55.8489 49.4129 57.4157 48.8307 58.9725C48.5046 59.9522 47.9372 60.8333 47.1811 61.5337C46.2555 62.3408 45.335 63.1505 44.3895 63.9351C44.3012 64.0036 44.1995 64.0529 44.0911 64.0796C43.9827 64.1062 43.8699 64.1098 43.76 64.09C43.6282 64.055 43.5112 63.7652 43.4888 63.5728C43.24 62.2034 43.041 60.8241 42.7698 59.4597C42.6839 58.9526 42.7633 58.4311 42.9962 57.9729C43.663 56.4187 44.3074 54.8594 45.0339 53.1178Z" fill="white"/>
<path d="M42.0931 43.6523C42.3618 44.0871 42.6703 44.5419 42.934 45.0192C43.3545 45.7688 43.7451 46.546 44.1507 47.3081C44.8498 48.6175 44.7802 49.9993 44.5339 51.3936C44.1582 53.5051 43.1082 55.3542 42.2424 57.2758C42.0558 57.6881 41.7447 57.7156 41.476 57.3408C41.2036 56.9709 40.9623 56.5789 40.7545 56.1689C40.2444 55.1518 39.7095 54.1423 39.2865 53.0903C38.9841 52.3456 38.8392 51.5458 38.861 50.7418C38.8829 49.9378 39.071 49.1471 39.4134 48.4201C39.9832 47.1332 40.6177 45.8713 41.2446 44.6094C41.4263 44.2421 41.4337 43.7048 42.0931 43.6523Z" fill="white"/>
<path d="M32.3969 67.625C32.7552 68.0673 33.0413 68.3597 33.2602 68.697C33.7579 69.4466 34.1858 70.2387 34.6784 70.9884C35.2248 71.7762 35.5941 72.6739 35.7607 73.6192C35.9274 74.5645 35.8875 75.535 35.6438 76.4633C35.4099 77.3603 34.8128 78.1675 34.3575 78.9996C34.0042 79.6418 33.6111 80.2665 33.2403 80.8937C32.9244 81.4159 32.7104 81.4609 32.372 80.9511C31.7749 80.0516 31.2151 79.1195 30.7075 78.165C30.3573 77.5689 30.1053 76.9201 29.9611 76.2434C29.7939 74.9998 29.9838 73.734 30.5085 72.5951C31.026 71.3782 31.4912 70.1413 31.9689 68.9069C32.0958 68.5446 32.2128 68.1747 32.3969 67.625Z" fill="white"/>
<path d="M37.923 50.7103C37.7693 50.593 37.6291 50.4589 37.505 50.3105C36.5545 48.8737 35.5518 47.4594 35.0169 45.7952C34.6462 44.6407 34.8502 43.5338 35.2309 42.4018C35.9151 40.3678 37.3009 38.9809 39.0774 37.9039C39.2732 37.7687 39.4878 37.6635 39.7144 37.5916C40.0652 37.5041 40.4458 37.5366 40.518 37.9814C40.6897 39.0109 40.8066 40.0479 40.9634 41.0799C41.2122 42.7591 40.5006 44.1709 39.7318 45.5553C38.8784 47.0921 38.1618 48.6663 38.0075 50.4479C37.9883 50.5381 37.9599 50.626 37.923 50.7103Z" fill="white"/>
<path d="M28.9486 74.7962C28.751 74.7082 28.566 74.5939 28.3987 74.4564C27.6697 73.6293 26.988 72.7697 26.6223 71.7077C26.4182 71.103 26.0649 70.5432 25.9107 69.931C25.3757 67.7696 26.1172 65.9479 27.5826 64.4012C28.598 63.383 29.8297 62.609 31.1853 62.1373C31.9666 61.8374 32.0885 61.9748 32.0213 62.8094C31.9243 64.0289 31.892 65.2558 31.8173 66.4777C31.8043 66.7149 31.7539 66.9485 31.668 67.1699C30.9042 69.1689 30.1205 71.1679 29.3666 73.192C29.2006 73.7193 29.061 74.2548 28.9486 74.7962Z" fill="white"/>
<path d="M49.1093 69.6074C48.6789 71.3141 47.6538 72.4586 46.569 73.558C44.8715 75.289 42.6352 76.3842 40.2319 76.6616C39.4009 76.769 39.2143 76.689 38.759 75.9744C38.0126 74.8149 37.2661 73.6705 36.5197 72.5085C36.1366 71.9063 36.2411 71.6564 36.9452 71.534C38.1892 71.3141 39.3884 70.8218 40.7121 70.9718C41.9561 71.1117 43.225 71.1017 44.484 71.1217C45.883 71.1414 47.2569 70.7478 48.435 69.9897C48.6191 69.8748 48.8107 69.7773 49.1093 69.6074Z" fill="white"/>
<path d="M36.9751 75.0625C37.3881 75.7447 37.9156 76.3869 38.1918 77.1215C38.6541 78.3365 39.0226 79.5854 39.294 80.8572C39.7916 83.2986 38.7963 85.1552 36.8532 86.552C35.8007 87.3016 34.6836 87.9838 33.5888 88.686C33.4638 88.7416 33.3314 88.7786 33.1957 88.7959C33.1609 88.6585 33.0738 88.5136 33.1012 88.3911C33.2131 87.8914 33.4271 87.3916 33.4794 86.8918C33.6038 85.7274 33.6909 84.558 33.7282 83.3935C33.7584 82.3277 34.0645 81.2882 34.6164 80.3775C35.231 79.3405 35.7958 78.2685 36.3083 77.1765C36.5272 76.7067 36.5571 76.1495 36.6691 75.6322C36.7064 75.4598 36.7512 75.2874 36.791 75.115L36.9751 75.0625Z" fill="white"/>
<path d="M54.0579 26.918C55.8767 28.2298 57.5661 29.4443 58.3673 31.5108C58.5945 32.1548 58.6128 32.8547 58.4195 33.5098C57.8373 35.9037 56.2176 37.4304 54.1898 38.6124C53.6225 38.9447 53.003 39.1846 52.2715 39.5319C52.1894 39.2596 52.0227 38.9622 52.0227 38.6723C52.0824 37.5204 52.0998 36.351 52.3387 35.2315C52.5178 34.3919 52.9781 33.5998 53.3687 32.8151C54.1525 31.2359 54.5307 29.6192 54.0331 27.8675C53.9758 27.6176 54.0505 27.3253 54.0579 26.918Z" fill="white"/>
<path d="M43.4192 24.5767C43.6039 24.5776 43.7882 24.5591 43.9691 24.5217C45.274 24.0668 46.6844 24.0138 48.0196 24.3693C49.0148 24.6516 50.0548 24.869 51.0053 25.3063C52.6101 26.0335 53.451 27.7801 53.3316 29.6318C53.2271 31.211 52.4931 32.5404 51.794 33.8797C51.6273 34.2021 51.4581 34.0846 51.2964 33.8797C50.433 32.8427 49.5547 31.8182 48.7237 30.7562C48.4806 30.3906 48.2873 29.9939 48.149 29.5768C47.4872 27.9701 46.6562 26.4908 45.0713 25.6237C44.7254 25.4363 44.3522 25.3013 43.9939 25.1239C43.8272 25.0464 43.6705 24.9515 43.5088 24.874L43.4192 24.5767Z" fill="white"/>
<path d="M35.2258 31.5451C35.3776 31.0953 35.4323 30.6955 35.6264 30.3882C36.6216 28.8314 37.7039 27.3896 39.3709 26.4575C41.8117 25.1132 45.6234 25.7754 46.8799 29.1562C47.059 29.6385 47.3004 30.0958 47.482 30.5781C47.5668 30.7642 47.5793 30.9754 47.5168 31.1703C47.4571 31.2802 47.1685 31.2927 46.9819 31.2952C44.6705 31.3177 42.4163 30.8729 40.1497 30.4881C38.5803 30.2152 36.966 30.5367 35.6189 31.3902C35.4913 31.4502 35.36 31.5019 35.2258 31.5451Z" fill="white"/>
<path d="M56.0113 46.4471C55.5511 47.0954 55.0526 47.7154 54.5184 48.3037C52.8655 50.0053 50.6813 51.0858 48.3306 51.3648C48.2034 51.3652 48.0777 51.3367 47.9631 51.2813C47.8485 51.2259 47.7478 51.1451 47.6688 51.0449C46.7532 49.6031 45.8724 48.1413 44.9991 46.672C44.7652 46.2797 44.9095 45.9799 45.4072 45.9674C46.2988 45.936 47.1915 45.9761 48.0768 46.0873C49.1591 46.2347 50.2215 46.5221 51.3113 46.7095C52.6484 46.9684 54.0297 46.8701 55.3171 46.4246C55.4863 46.3672 55.6629 46.3272 55.8346 46.2797L56.0113 46.4471Z" fill="white"/>
<path d="M28.3638 55.2068C28.4637 54.9805 28.5767 54.7602 28.7021 54.5471C30.4438 52.0733 32.9119 50.8189 35.8031 50.2742C35.9783 50.221 36.1669 50.2344 36.333 50.3118C36.499 50.3892 36.631 50.5252 36.7037 50.694C37.4327 52.0958 38.1966 53.4776 38.943 54.872C39.2988 55.5392 39.1395 55.849 38.4081 55.7665C36.9426 55.5991 35.4746 55.4142 34.0266 55.1319C32.484 54.832 30.9613 54.6646 29.4162 55.0569C29.1674 55.1219 28.9186 55.1668 28.6698 55.2143C28.5678 55.2201 28.4654 55.2176 28.3638 55.2068Z" fill="white"/>
<path d="M22.2954 81.9606C23.1886 79.8466 24.3829 77.98 26.3211 76.7131C26.8457 76.4147 27.4024 76.1775 27.9806 76.0059C28.4036 75.8535 28.5902 76.2283 28.727 76.5057C29.354 77.7301 29.9387 78.977 30.5557 80.2064C30.7473 80.5862 30.5284 80.6762 30.2472 80.7062C28.0254 81.0335 25.9827 81.8781 23.9947 82.8751C23.5693 83.09 23.1687 83.3524 22.7507 83.5648C22.6039 83.6348 22.3427 83.6923 22.2531 83.6173C22.1897 83.545 22.1413 83.4606 22.111 83.3692C22.0806 83.2777 22.0689 83.1811 22.0764 83.085C22.1288 82.7065 22.2019 82.3311 22.2954 81.9606Z" fill="white"/>
</svg>
