<svg id="Layer_1" data-name="Layer 1" xmlns="http://www.w3.org/2000/svg" viewBox="0 0 369.01 493.91"><defs><style>.cls-1{fill:#aa5c9d;}</style></defs><path class="cls-1" d="M305.92,68.06c3.79-3.17,8-4.57,12.42-5.55,13.26-3,24.27,1.15,33,11.12,7.1,8.07,8.25,22.74,2.93,32.09a19.78,19.78,0,0,1-9.21,8.09,2,2,0,0,1-2.39-.13c-.73-.73.05-1.4.32-2,3.56-8.47,1.67-17.93-4.55-22.75-7.72-6-17.86-6.17-25.29.16-13.43,11.43-18.27,26.17-15.37,43.41,1.52,9,6,19.61,10.24,25.44-3-.37-4.85-2.56-7-4.09-13.92-10-20.32-23.87-21.58-40.81-.83-11.08,1.78-21.38,4.81-31.69,3.53-12,4.43-24.08,1.28-36.31-1.94-7.59-5.12-14.37-12-18.85-7.82-5.11-20.34-.88-20.7,10.2-.06,2.09-.63,1.92-2.07,1.06-5.87-3.53-7.51-12.56-3.41-19.14C252.75,9.73,263.26,5.67,274.48,8c14.3,2.9,23.25,12,28.79,25,4.1,9.66,3.66,19.73,2.74,29.85-.12,1.22-.18,2.44-.23,3.67A14,14,0,0,0,305.92,68.06Z"/><path class="cls-1" d="M63.09,68.06c-3.79-3.17-8-4.57-12.42-5.55-13.25-3-24.26,1.15-33,11.12-7.1,8.07-8.26,22.74-2.94,32.09a19.83,19.83,0,0,0,9.21,8.09,2,2,0,0,0,2.39-.13c.73-.73-.05-1.4-.32-2-3.56-8.47-1.67-17.93,4.55-22.75,7.72-6,17.86-6.17,25.29.16,13.43,11.43,18.27,26.17,15.37,43.41-1.52,9-6,19.61-10.24,25.44,3-.37,4.85-2.56,7-4.09,13.92-10,20.32-23.87,21.59-40.81.82-11.08-1.79-21.38-4.82-31.69-3.53-12-4.43-24.08-1.28-36.31,1.94-7.59,5.13-14.37,12-18.85,7.82-5.11,20.34-.88,20.7,10.2.07,2.09.63,1.92,2.07,1.06,5.87-3.53,7.51-12.56,3.41-19.14-5.31-8.54-15.83-12.6-27-10.32-14.3,2.9-23.25,12-28.79,25-4.1,9.66-3.66,19.73-2.73,29.85.11,1.22.17,2.44.22,3.67A14,14,0,0,1,63.09,68.06Z"/><path class="cls-1" d="M177.27,377.22v-4.69l-.17.5-15.2-52.5h0c-.08,1.46-.15,2.93-.23,4.4h0a8.21,8.21,0,0,0-.4,1.34,153.08,153.08,0,0,1-20.86,60c-4.37,7.24-9.68,13.79-17.33,17.92a21.53,21.53,0,0,1-14.68,2.62c-9.4-1.76-12.1-14.39-6.64-20.26.81-.87,1.6-1.74,2.52-2.75-3.79-.74-9.58.87-12.2,3.18-6.87,6-9.5,13.59-7.38,22.43,1.46,6.08,4.18,11.88,10.1,14.74a36,36,0,0,0,25.09,2.72c3.72-.94,7.39-2.05,11.49-3.43C126.1,430.84,120.46,437,112.81,441c-5.8,3-11.83,4.13-18.34,2.31-9-2.5-17.31-6.43-25.68-10.35a71.86,71.86,0,0,0-13.2-5c-13.47-3.31-25.43,1.81-31.51,13.77-3.31,6.5-3.77,13.54-3,20.72,1.72,16.52,18.57,27.94,34.34,23.05a22.93,22.93,0,0,0,11.52-8.15c-8.74,2.28-14.65,1.31-20-3.13a15,15,0,0,1,3.62-25.44c5.45-2.39,11-2.35,16.63-.81,9.82,2.68,19.49,5.91,29.6,7.43,8.42,1.27,16.29.39,23.53-4.65A77.67,77.67,0,0,0,133,440c15.19-16.34,27.66-34.66,38.95-53.82,1.71-2.9,3.32-5.85,5.18-9.13Z"/><path class="cls-1" d="M191.52,377.22v-4.69l.17.5,15.2-52.5h0c.08,1.46.16,2.93.23,4.4h0a8.26,8.26,0,0,1,.41,1.34,152.76,152.76,0,0,0,20.86,60c4.36,7.24,9.67,13.79,17.32,17.92a21.54,21.54,0,0,0,14.68,2.62c9.41-1.76,12.11-14.39,6.64-20.26-.81-.87-1.6-1.74-2.52-2.75,3.79-.74,9.58.87,12.21,3.18,6.86,6,9.49,13.59,7.37,22.43-1.46,6.08-4.18,11.88-10.1,14.74a36,36,0,0,1-25.09,2.72c-3.72-.94-7.39-2.05-11.49-3.43C242.69,430.84,248.33,437,256,441c5.79,3,11.83,4.13,18.33,2.31,9-2.5,17.31-6.43,25.68-10.35a72.13,72.13,0,0,1,13.2-5c13.48-3.31,25.43,1.81,31.52,13.77,3.3,6.5,3.77,13.54,3,20.72-1.72,16.52-18.57,27.94-34.33,23.05a23,23,0,0,1-11.53-8.15c8.74,2.28,14.66,1.31,20-3.13a15,15,0,0,0-3.62-25.44c-5.45-2.39-11-2.35-16.63-.81-9.81,2.68-19.48,5.91-29.6,7.43-8.42,1.27-16.28.39-23.53-4.65A77.18,77.18,0,0,1,235.78,440c-15.19-16.34-27.66-34.66-39-53.82-1.7-2.9-3.32-5.85-5.18-9.13Z"/><path class="cls-1" d="M117.86,375.34c.91.62,1.83,1.22,2.76,1.81,0,0-29.29-56.49-32.95-102.44-.92-11.59-1.57-23.16-2.14-34.75-.66-13.32-2.58-26.43-8.8-38.43-6.82-13.14-17.12-21.6-32.58-21.93-13.79-.3-26.25,9.19-29,21.71-2.06,9.24,2.46,17.22,11.12,19.59.46-.67,0-1.3-.21-1.87-3-9.74,5.24-17.15,13.11-17.28s13.45,4,17.67,10.29c7.08,10.55,9.65,22.54,10.56,34.9.76,10.23-.74,20.7,1.19,30.79C76.63,319.89,87.19,336,94.84,351c4.57,8.92,14.19,18.84,21.19,23.66A3.22,3.22,0,0,1,117.86,375.34Z"/><path class="cls-1" d="M251.15,375.34c-.91.62-1.83,1.22-2.76,1.81,0,0,29.29-56.49,32.95-102.44.93-11.59,1.57-23.16,2.15-34.75.65-13.32,2.57-26.43,8.79-38.43,6.82-13.14,17.12-21.6,32.58-21.93,13.79-.3,26.25,9.19,29,21.71,2.06,9.24-2.46,17.22-11.11,19.59-.47-.67,0-1.3.2-1.87,3-9.74-5.24-17.15-13.1-17.28s-13.46,4-17.68,10.29c-7.08,10.55-9.64,22.54-10.56,34.9-.75,10.23.74,20.7-1.19,30.79-8.08,42.16-18.64,58.3-26.29,73.24C269.6,359.89,260,369.81,253,374.63A3.22,3.22,0,0,0,251.15,375.34Z"/></svg>