<svg width="75" height="100" viewBox="0 0 75 100" fill="none" xmlns="http://www.w3.org/2000/svg">
<path d="M62.1772 13.7798C62.9475 13.138 63.8031 12.8545 64.7015 12.6561C67.3965 12.0487 69.6343 12.8889 71.4086 14.9075C72.8517 16.5414 73.0854 19.5116 72.0041 21.4047C71.57 22.1343 70.9146 22.7079 70.1322 23.0426C70.0592 23.091 69.9725 23.1146 69.885 23.1098C69.7974 23.1051 69.7138 23.0723 69.6465 23.0163C69.4981 22.8685 69.6566 22.7328 69.7115 22.6114C70.4351 20.8965 70.0509 18.9811 68.7867 18.0053C67.2177 16.7905 65.1568 16.756 63.6466 18.0377C60.917 20.3518 59.9333 23.3362 60.5227 26.8267C60.8317 28.6489 61.7422 30.7971 62.604 31.9774C61.9942 31.9025 61.6182 31.4591 61.1812 31.1494C58.3521 29.1247 57.0513 26.3165 56.7952 22.8867C56.6265 20.6434 57.157 18.558 57.7728 16.4706C58.4903 14.041 58.6732 11.5952 58.033 9.11903C57.6387 7.58231 56.9923 6.20959 55.594 5.30254C54.0046 4.26794 51.46 5.12437 51.3868 7.36769C51.3746 7.79085 51.2588 7.75643 50.9661 7.58231C49.773 6.8676 49.4397 5.03933 50.273 3.70711C51.3705 1.96995 53.5067 1.14794 55.7871 1.61968C58.6935 2.20683 60.5126 4.04928 61.6386 6.68133C62.4719 8.63716 62.3824 10.676 62.1955 12.7249C62.1711 12.972 62.1589 13.219 62.1487 13.468C62.1524 13.5724 62.1619 13.6765 62.1772 13.7798Z" fill="white"/>
<path d="M12.8228 13.7801C12.0525 13.1383 11.1968 12.8549 10.2984 12.6564C7.60543 12.049 5.36769 12.8893 3.59131 14.9079C2.14826 16.5418 1.9125 19.5119 2.99377 21.405C3.42841 22.1342 4.0837 22.7076 4.86567 23.043C4.93866 23.0913 5.02539 23.1149 5.11294 23.1102C5.20048 23.1054 5.28414 23.0726 5.35143 23.0166C5.4998 22.8688 5.34126 22.7332 5.28639 22.6117C4.56283 20.8968 4.94697 18.9815 6.21116 18.0056C7.78022 16.7908 9.84114 16.7564 11.3513 18.038C14.0809 20.3522 15.0646 23.3365 14.4752 26.827C14.1662 28.6492 13.2557 30.7974 12.3939 31.9778C13.0037 31.9029 13.3797 31.4595 13.8166 31.1497C16.6458 29.125 17.9466 26.3168 18.2047 22.8871C18.3714 20.6437 17.8409 18.5583 17.2251 16.4709C16.5076 14.0413 16.3247 11.5955 16.9649 9.11937C17.3592 7.58265 18.0076 6.20993 19.4039 5.30288C20.9933 4.26828 23.5379 5.12471 23.6111 7.36803C23.6253 7.79119 23.7391 7.75677 24.0318 7.58265C25.2249 6.86794 25.5582 5.03967 24.7249 3.70745C23.6456 1.97839 21.5075 1.15638 19.2372 1.618C16.3308 2.20515 14.5117 4.04759 13.3858 6.67965C12.5525 8.63547 12.6419 10.6743 12.8309 12.7233C12.8533 12.9703 12.8655 13.2173 12.8756 13.4663C12.8639 13.5718 12.8463 13.6766 12.8228 13.7801Z" fill="white"/>
<path d="M36.0296 76.3743V75.4247L35.995 75.526L32.9057 64.8965C32.8894 65.1921 32.8752 65.4897 32.8589 65.7873C32.8241 65.8753 32.7969 65.9661 32.7776 66.0586C32.2326 70.3587 30.7883 74.4971 28.5379 78.2066C27.6497 79.6725 26.5705 80.9986 25.0156 81.8348C24.1163 82.36 23.0582 82.5481 22.032 82.3653C20.1215 82.0089 19.5727 79.4518 20.6824 78.2633C20.8471 78.0871 21.0076 77.911 21.1946 77.7065C20.4243 77.5567 19.2475 77.8827 18.715 78.3504C17.3187 79.5652 16.7842 81.1019 17.215 82.8917C17.5118 84.1227 18.0646 85.297 19.2678 85.876C20.8453 86.6665 22.6564 86.8621 24.3673 86.4267C25.1234 86.2364 25.8693 86.0117 26.7026 85.7323C25.6294 87.2305 24.4831 88.4777 22.9283 89.2876C21.7495 89.895 20.5239 90.1238 19.2008 89.7553C17.3715 89.2491 15.6826 88.4534 13.9814 87.6597C13.1226 87.2354 12.224 86.8963 11.2985 86.6474C8.5608 85.9772 6.12997 87.0139 4.89424 89.4354C4.22149 90.7514 4.128 92.1768 4.2845 93.6305C4.63408 96.9752 8.05878 99.2874 11.264 98.2973C12.1992 98.0061 13.0184 97.4287 13.6054 96.6472C11.829 97.1088 10.6278 96.9124 9.54045 96.0135C9.13302 95.6829 8.81831 95.2529 8.62685 94.7654C8.43538 94.2779 8.37367 93.7493 8.44771 93.2311C8.52174 92.7128 8.729 92.2224 9.04937 91.8074C9.36975 91.3925 9.79236 91.0671 10.2762 90.8628C11.3839 90.3789 12.5119 90.387 13.6562 90.6988C15.6521 91.2414 17.6175 91.8953 19.6723 92.2031C21.3836 92.4602 22.9832 92.282 24.4547 91.2616C25.3894 90.63 26.2534 89.9004 27.0318 89.0851C30.1192 85.7768 32.6536 82.0676 34.9483 78.1884C35.2958 77.6012 35.6231 77.004 36.0011 76.3399L36.0296 76.3743Z" fill="white"/>
<path d="M38.9258 76.3743V75.4247L38.9603 75.526L42.0497 64.8965C42.0659 65.1921 42.0822 65.4897 42.0964 65.7873C42.1319 65.8753 42.1597 65.966 42.1798 66.0586C42.7229 70.3592 44.1673 74.498 46.4195 78.2066C47.3056 79.6725 48.3849 80.9986 49.9397 81.8348C50.8391 82.3599 51.8971 82.5479 52.9234 82.3653C54.8359 82.0089 55.3847 79.4518 54.2729 78.2633C54.1083 78.0871 53.9477 77.911 53.7607 77.7065C54.5311 77.5567 55.7078 77.8827 56.2424 78.3504C57.6367 79.5652 58.1712 81.1019 57.7403 82.8917C57.4436 84.1227 56.8907 85.297 55.6875 85.876C54.1101 86.6665 52.2989 86.8621 50.5881 86.4267C49.832 86.2364 49.0861 86.0117 48.2528 85.7323C49.3259 87.2305 50.4722 88.4777 52.0311 89.2876C53.2079 89.895 54.4355 90.1238 55.7566 89.7553C57.5858 89.2491 59.2748 88.4534 60.976 87.6597C61.8349 87.2357 62.7335 86.8967 63.6588 86.6474C66.3986 85.9772 68.8274 87.0139 70.0652 89.4354C70.7359 90.7514 70.8314 92.1768 70.6749 93.6305C70.3253 96.9752 66.9006 99.2874 63.6975 98.2973C62.762 98.0056 61.9422 97.4284 61.354 96.6472C63.1304 97.1088 64.3336 96.9124 65.419 96.0135C65.8264 95.6829 66.1411 95.2529 66.3326 94.7654C66.524 94.2779 66.5857 93.7493 66.5117 93.2311C66.4377 92.7128 66.2304 92.2224 65.91 91.8074C65.5897 91.3925 65.1671 91.0671 64.6832 90.8628C63.5755 90.3789 62.4475 90.387 61.3032 90.6988C59.3094 91.2414 57.344 91.8953 55.2871 92.2031C53.5758 92.4602 51.9783 92.282 50.5047 91.2616C49.5674 90.631 48.7013 89.9013 47.9215 89.0851C44.8342 85.7768 42.2997 82.0676 39.9949 78.1884C39.6493 77.6012 39.3201 77.004 38.942 76.3399L38.9258 76.3743Z" fill="white"/>
<path d="M23.9546 75.9934C24.1396 76.119 24.3266 76.2404 24.5156 76.3599C24.5156 76.3599 18.5625 64.9226 17.8186 55.6193C17.6316 53.2727 17.4995 50.9302 17.3837 48.5836C17.2495 45.8867 16.8593 43.2324 15.5951 40.8028C14.209 38.1424 12.1155 36.4295 8.97333 36.3627C6.17056 36.302 3.63811 38.2234 3.07918 40.7583C2.66049 42.6291 3.57917 44.2447 5.33928 44.7246C5.43278 44.5889 5.33928 44.4614 5.2966 44.346C4.68686 42.3739 6.36161 40.8737 7.96116 40.8474C9.56071 40.821 10.6948 41.6572 11.5525 42.9307C12.9915 45.0667 13.5139 47.4943 13.6988 49.9968C13.8533 52.068 13.5484 54.1878 13.9407 56.2307C15.5748 64.7667 17.7211 68.0284 19.2759 71.0654C20.2047 72.8714 22.16 74.8799 23.5827 75.8558C23.718 75.8622 23.8479 75.9103 23.9546 75.9934Z" fill="white"/>
<path d="M51.0453 75.9934C50.8604 76.119 50.6734 76.2404 50.4844 76.3599C50.4844 76.3599 56.4375 64.9226 57.1813 55.6193C57.3704 53.2727 57.5004 50.9302 57.6183 48.5836C57.7504 45.8867 58.1407 43.2324 59.4049 40.8028C60.791 38.1424 62.8844 36.4295 66.0266 36.3627C68.8294 36.302 71.3619 38.2234 71.9208 40.7583C72.3395 42.6291 71.4208 44.2447 69.6627 44.7246C69.5672 44.5889 69.6627 44.4614 69.7034 44.346C70.3131 42.3739 68.6384 40.8737 67.0408 40.8474C65.4433 40.821 64.3051 41.6572 63.4474 42.9307C62.0085 45.0667 61.4881 47.4943 61.3012 49.9968C61.1487 52.068 61.4516 54.1878 61.0593 56.2307C59.4171 64.7667 57.2708 68.0345 55.7159 71.0593C54.7952 72.8653 52.8441 74.8738 51.4213 75.8497C51.284 75.857 51.1524 75.9073 51.0453 75.9934Z" fill="white"/>
</svg>
