<svg id="Layer_2" data-name="Layer 2" xmlns="http://www.w3.org/2000/svg" viewBox="0 0 566.93 566.93"><defs><style>.cls-1{fill:#094e92;}.cls-2{fill:#c19560;}</style></defs><path class="cls-1" d="M224.88,392.24a19,19,0,0,1-8.09-4.68c-7-6.19-9.11-14-7.09-22.86,1.64-7.2,9.34-13.74,16.69-14.54a13.54,13.54,0,0,1,8.2,1.88,1.37,1.37,0,0,1,.89,1.38c-.11.7-.79.53-1.26.64-6.15,1.43-10.66,6.28-10.84,11.68-.23,6.7,3.75,12.42,10.26,14,11.76,2.88,21.91-.35,30.35-8.9a47.05,47.05,0,0,0,10-15.92c1,1.83.52,3.72.53,5.52,0,11.79-5.12,20.91-14.05,28.43-5.83,4.91-12.61,7.6-19.57,10.06-8.12,2.87-15.19,7.21-20.74,13.88-3.44,4.13-5.93,8.63-5.67,14.25.3,6.41,7.68,11.67,14,7.42,1.18-.8,1.32-.42,1.42.73.39,4.69-4,9.23-9.28,9.59-6.9.47-13.39-3.74-16.63-10.91-4.13-9.13-2.65-17.78,2.37-26.09,3.72-6.17,9.51-10,15.51-13.52.73-.43,1.44-.89,2.14-1.35C224.26,392.82,224.43,392.63,224.88,392.24Z"/><path class="cls-1" d="M341,392.24a19.17,19.17,0,0,0,8.09-4.68c7-6.19,9.11-14,7.09-22.86-1.64-7.2-9.35-13.74-16.69-14.54a13.56,13.56,0,0,0-8.21,1.88,1.36,1.36,0,0,0-.88,1.38c.11.7.79.53,1.26.64,6.14,1.43,10.65,6.28,10.84,11.68.22,6.7-3.75,12.42-10.26,14-11.76,2.88-21.92-.35-30.35-8.9a46.94,46.94,0,0,1-10.05-15.92c-1,1.83-.52,3.72-.52,5.52,0,11.79,5.12,20.91,14,28.43,5.84,4.91,12.62,7.6,19.58,10.06,8.12,2.87,15.19,7.21,20.73,13.88,3.44,4.13,5.94,8.63,5.68,14.25-.3,6.41-7.69,11.67-14,7.42-1.19-.8-1.33-.42-1.42.73-.4,4.69,4,9.23,9.28,9.59,6.89.47,13.38-3.74,16.62-10.91,4.13-9.13,2.66-17.78-2.37-26.09-3.72-6.17-9.5-10-15.51-13.52-.72-.43-1.43-.89-2.14-1.35A9.75,9.75,0,0,1,341,392.24Z"/><path class="cls-1" d="M412.44,270.65c.32,5.76-5.76,10.68-10,10.77-7.17.16-11.56-5.08-11.66-10.6-.12-6.76,4.33-11.35,11.14-11.5C407.72,259.19,412.35,264.2,412.44,270.65Z"/><path class="cls-1" d="M165.09,281.34c-5,0-10.62-5.35-10.61-10.09,0-6.87,4.62-12,10.76-12.05a10.71,10.71,0,0,1,10.89,11C175.85,277.1,171.66,280.8,165.09,281.34Z"/><path class="cls-2" d="M325,243.63c0-25.7-.06-51.39,0-77.09a3.75,3.75,0,0,0-2.67-4.08,114.41,114.41,0,0,0-16-5.29c-.47-.11-1.06-.65-1.58,0,0,1.1-.15,2.2-.15,3.3q0,67.29,0,134.59c0,11-.33,22.07.21,33.1a6.18,6.18,0,0,0,0,1c1.31,11.7,5,22.72,9.33,33.59a3.84,3.84,0,0,0,1.73,2.21c1.6-4.42,3.12-8.68,4.69-12.92,2.68-7.27,4.59-14.63,4.55-22.52C325,300.85,325,272.24,325,243.63Z"/><path class="cls-2" d="M376.47,343.47q-.06-43.5-.09-87c0-14.2-.86-28.24-6.08-41.67-.77-2-1.19-4.09-2.39-5.89-.18-.31-.27-1.12-.75-.35-.27.43-.07,1.14-.07,1.72q0,54.79,0,109.58a30.87,30.87,0,0,0,.86,8.67c1.67,8,5.54,15.85,8.52,17.11Z"/><path class="cls-2" d="M262,169.32h0a106.9,106.9,0,0,0,.21-11.46c0-.91-.42-1.32-1.36-1a134,134,0,0,0-17,6.08c-.88.4-1.78.86-1.78,2.06,0,.65-.1,1.29-.1,1.94q0,74.49,0,149c0,7.07-.26,14.15.13,21.22h0a12.08,12.08,0,0,0,.08,1.35,98.54,98.54,0,0,0,5,16.91c1.2,3.11,1.95,6.43,3.91,9.26a3.44,3.44,0,0,0,1.34-1.9A87.31,87.31,0,0,0,258,347.87c1.51-5.74,3.36-11.41,3.82-17.39.11-3.17.32-6.35.31-9.53q0-47.29-.11-94.6Q262,197.84,262,169.32Z"/><path class="cls-2" d="M230.16,328.71c0-.75.18-1.53.18-2.31q0-66.57,0-133.16c0-5.74,0-11.49,0-17.24,0-.81-.26-1.69.3-2.45,0,13.83.08,27.66.08,41.49q0,55.23,0,110.45C230.8,329,230.11,331.12,230.16,328.71Z"/><path class="cls-2" d="M199.59,208.17a2.16,2.16,0,0,0-.82,1.54h0c-1.94,3.6-3,7.53-4.15,11.42a90.53,90.53,0,0,0-3.56,23.7,6.66,6.66,0,0,1,.13,2.31q0,40.29,0,80.58,0-14.18,0-28.37a1.1,1.1,0,0,0-.26-.89,10.33,10.33,0,0,0-.23,3.28q0,11.38,0,22.77c0,6.56,0,13.11,0,19.67,0,.52-.2,1.32.52,1.51s1-.56,1.27-1a51,51,0,0,0,6.11-13,14.24,14.24,0,0,0,.94-5.9c0-.71.08-1.43.08-2.14q0-56.43,0-112.86Z"/><path class="cls-2" d="M191.06,244.83c.53.54.32,1.23.32,1.85q0,40,0,79.95c0,.51,0,1-.09,1.72a3.61,3.61,0,0,1-.27-2.08q-.06-13.9-.09-27.81C191,280.58,190.63,262.7,191.06,244.83Z"/><path class="cls-1" d="M405.05,229.5a117.25,117.25,0,0,0-2.56-13.14h0a113.12,113.12,0,0,0-6.08-18.7,124.17,124.17,0,0,0-42.88-53.06,121.16,121.16,0,0,0-59.78-22.08,117.12,117.12,0,0,0-38,3q-42.66,10.16-69.5,44.75a118.17,118.17,0,0,0-19.67,37.91A125.83,125.83,0,0,0,161.45,232a81,81,0,0,0-.91,11.53h0c-.21.67-.53,1.35.06,2h19.11c.42-.14.3-.5.32-.8A117.11,117.11,0,0,1,186,213.19c6.81-20.42,18.35-37.47,35.43-50.74s36.59-19.31,57.78-20.8c9.62-.68,19.1.69,28.5,2.75,17.77,3.89,32.92,12.74,46.07,25,12.11,11.31,20.46,25.2,26.21,40.69a174.78,174.78,0,0,1,5,17.22,161.27,161.27,0,0,1,2,17.41c.05.91.59.84,1.18.84,5.71,0,11.42,0,17.13,0,1,0,1.12-.28,1.12-1.22A95.13,95.13,0,0,0,405.05,229.5Z"/><path class="cls-2" d="M293.9,330.67c0-.48,0-1,0-1.46l-.1-4.21,0-142.91c0-8.44,0-16.88,0-25.32,0-.94.2-2.23-1.19-2.27-6.22-.14-12.45-.48-18.67.28-.86.11-.87.59-.75,1.22-.32,4.93-.18,9.86-.18,14.78q0,41.37,0,82.74c0,20.5.15,66.21-.06,76.77a13.56,13.56,0,0,0,.64,4.38l9.72,30,9.86-29.43A13.65,13.65,0,0,0,293.9,330.67Z"/><path class="cls-2" d="M230.54,325.34q0-70.84,0-141.68c0-3.36-.18-6.72.11-10.07V171.8a3.58,3.58,0,0,0-.62.33,153.43,153.43,0,0,0-18,18.1,3.7,3.7,0,0,0-1.07,2l-.12,66.9h0c-.08.89-.23,1.79-.23,2.69q-.09,32.13-.11,64.27a81.43,81.43,0,0,1,0,8.7c-.38,3.05-.69,13.05-3.43,18.89a1.07,1.07,0,0,0,1.69,1.25L228.25,334a6.24,6.24,0,0,0,2.11-4.2C230.48,328.34,230.54,326.84,230.54,325.34Z"/><path class="cls-2" d="M334.88,325.34q0-70.84,0-141.68c0-3.36.17-6.72-.12-10.07V171.8a4.23,4.23,0,0,1,.63.33,154.19,154.19,0,0,1,18,18.1,3.68,3.68,0,0,1,1.06,2q.07,33.45.13,66.9h0c.08.89.23,1.79.23,2.69q.07,32.13.1,64.27a78.88,78.88,0,0,0,0,8.7c.37,3.05.68,13.05,3.42,18.89a1.07,1.07,0,0,1-1.69,1.25L337.16,334a6.33,6.33,0,0,1-2.11-4.2C334.94,328.34,334.88,326.84,334.88,325.34Z"/></svg>