<svg id="Layer_2" data-name="Layer 2" xmlns="http://www.w3.org/2000/svg" viewBox="0 0 595.28 566.93"><defs><style>.cls-1{fill:#c19560;}.cls-2{fill:#094e92;}.cls-3{fill:#0c518d;}</style></defs><path class="cls-1" d="M517.57,283.49c4.95.44,8.94,2.46,12.76,4.88,11.5,7.3,16.4,18,15.55,31.33-.69,10.76-10.28,22-20.69,24.85a19.85,19.85,0,0,1-12.27-.8c-.83-.3-1.6-.81-1.6-1.78s1-1,1.67-1.23c8.53-3.48,13.9-11.53,12.91-19.37-1.23-9.71-8.3-17-18.06-17.83-17.64-1.41-31.53,5.61-41.7,19.91-5.32,7.47-9.65,18.17-10.79,25.3-1.88-2.41-1.62-5.25-2-7.85-2.77-17,2.51-31.35,13.64-44.27,7.27-8.44,16.43-13.9,25.89-19.07,11.05-6,20.23-13.94,26.68-24.85,4-6.76,6.55-13.83,4.87-21.87-1.93-9.18-13.81-15.06-21.93-7.45-1.52,1.43-1.81.91-2.21-.72-1.67-6.67,3.57-14.24,11.15-16,9.83-2.29,20.18,2.29,26.52,11.87,8.08,12.2,8,25,2.66,38.19-3.94,9.76-11.39,16.59-19.23,23.11-.94.79-1.86,1.62-2.77,2.45C518.32,282.53,518.12,282.83,517.57,283.49Z"/><path class="cls-1" d="M140.37,350.39c-1.39-4-2.5-7.25-3.71-10.49-4.32-11.62-10.57-22-21.22-28.77-9.8-6.22-20.43-9.86-32.36-6.49-9,2.54-14.85,11.81-13.93,21.16.84,8.63,6.06,13,13.48,15.78-2.35,2.35-7.81,3.91-10.94,3.21C58.32,341.8,49.53,331,49.31,317c-.19-12.59,5.48-22.14,15.83-29.06,2.39-1.61,5.16-2.33,7.86-3.19a11.11,11.11,0,0,0,4.47-2c-3.22-3.06-7.08-5.19-10.2-8.24-11-10.72-17.87-23.06-16.58-39.06.85-10.58,10.51-26.19,22.78-28.38a23.36,23.36,0,0,1,13.12,1,13,13,0,0,1,7.71,15.59c-.45,1.46-.78,1.73-1.92.55-3.74-3.87-8.21-5.64-13.36-3.44-5.54,2.36-8.46,6.93-8.79,12.88-.77,13.63,5.91,24,15.3,32.81,6.59,6.2,14.45,10.65,22.38,14.94,12.44,6.73,22.75,15.66,29.09,28.6a52,52,0,0,1,5.14,29.23C141.74,342.71,141.62,346.3,140.37,350.39Z"/><path class="cls-2" d="M340.84,478.87C320.46,487.38,306.67,503,297,523.1c-3.58-10.53-10.7-18.3-17.73-26.19-7.2-8.08-16.37-13.28-25.81-18.34C267,473.9,294.3,447,296.93,436.05,307.49,454.35,322,468.87,340.84,478.87Z"/><path class="cls-3" d="M102.07,415.19c-7.58-19.91-20.63-34.57-39.41-43.09,18.85-7.7,31.87-21.92,39.48-41,9.17,18.28,21.65,33.67,42,40.11C122.94,378.15,110.15,394.45,102.07,415.19Z"/><path class="cls-2" d="M451,370.62c16.51-4.18,35.23-25.21,41.64-40.5,8,18.65,19.86,33.75,38.95,40.81-20.43,7.25-30.54,24.69-39.11,42.89C485.49,394.15,472.67,378.56,451,370.62Z"/><path class="cls-2" d="M496.82,128.05c-6.74-17.77-17.07-32-35.27-38.84,17.15-8.7,29.81-21.37,35.4-40.49,5.85,18.64,17.31,32.36,35.44,40.92C515.2,97.36,504.08,110.92,496.82,128.05Z"/><path class="cls-2" d="M98.35,129.46c-5.4-18.14-16.87-31.63-34.81-40C79.71,82.57,96,62.83,98,48.38A54.25,54.25,0,0,0,111,72.72c6.27,7,13.25,12.92,22.17,16.31C115,97.11,103.44,110.82,98.35,129.46Z"/><path class="cls-1" d="M79.4,190.25c-4-7.37-9.52-13.47-15.53-19.14-2.48-2.33-5.17-4.44-7.81-6.59-1-.83-1.34-1.46-.09-2.38a126.09,126.09,0,0,0,24-23.27,13.46,13.46,0,0,1,3.1,3.49,76.34,76.34,0,0,0,19.8,18.55c3.38,2.22,3.43,2.64.11,4.81-8.89,5.81-15.63,13.67-21.6,22.3-.37.54-.76,1.08-1.17,1.6A5.75,5.75,0,0,1,79.4,190.25Z"/><path class="cls-1" d="M514.88,189.85a67.63,67.63,0,0,0-13-16.71,94,94,0,0,0-10.42-8.78c-1.26-.92-2.12-1.81-.31-3.22,8.69-6.75,17.09-13.82,23.77-22.75,3,3.36,5.78,6.56,8.61,9.74a88.92,88.92,0,0,0,14.43,12.77c1.6,1.16,1.93,1.95.16,3.36-3.34,2.64-6.48,5.51-9.72,8.29C522.85,177.3,518.85,183.26,514.88,189.85Z"/><path class="cls-2" d="M435.93,82.24a164.06,164.06,0,0,0-12-13.81c-2.77-2.72-5.62-5.36-8.61-7.82s-3.32-2.69-.11-5.35a124.68,124.68,0,0,0,16-15.68c1.52-1.8,3.06-3.58,4.72-5.52a142.32,142.32,0,0,0,20,20.27c4.31,3.52,4.24,3.53,0,7.15C448.6,67.62,442.29,74.67,435.93,82.24Z"/><path class="cls-2" d="M157.74,82.61a92.77,92.77,0,0,0-19.65-21.49c-.73-.59-1.41-1.26-2.12-1.89-1.06-.95-1.27-1.67,0-2.8,6.3-5.45,12.77-10.74,17.9-17.4,1.26-1.64,2.62-3.21,4.05-5A161.69,161.69,0,0,0,181.89,58,138.58,138.58,0,0,0,157.74,82.61Z"/><path class="cls-2" d="M523.48,439.58a16,16,0,0,1-15.8-15.92,16.61,16.61,0,0,1,16.67-16.5c8.3.09,16.29,7.77,15.83,16.17C539.63,433.33,531.65,440.22,523.48,439.58Z"/><path class="cls-2" d="M86.91,423.29c.58,8.44-6.27,15.49-15.38,16.33S55.15,432,54.92,424.45c-.28-9.07,5.36-16.62,15.79-17.17C78.46,406.87,86.6,412.84,86.91,423.29Z"/><path class="cls-2" d="M485.94,253.61c.47,8.41-8.41,15.61-14.56,15.74-10.48.22-16.9-7.43-17-15.51-.18-9.86,6.32-16.57,16.26-16.79C479,236.86,485.81,244.17,485.94,253.61Z"/><path class="cls-2" d="M124.52,269.23c-7.28,0-15.51-7.83-15.51-14.75,0-10,6.77-17.6,15.73-17.61a15.65,15.65,0,0,1,15.91,16.06C140.24,263,134.12,268.43,124.52,269.23Z"/><path class="cls-1" d="M369.56,532.87c-3.78-8.37-10.39-13.7-17.2-18.82-1.81-1.37-1-2.15.26-3.13a84.39,84.39,0,0,0,14.54-13.47c.83-1,1.59-2.08,2.62-3.44,4.18,6.33,9.65,11.16,15.45,15.67,3.56,2.78,3.6,2.92,0,5.47A46.06,46.06,0,0,0,369.56,532.87Z"/><path class="cls-1" d="M220.55,494.18c4,7.16,10.12,11.83,16.22,16.49,2.52,1.93,2.58,1.89,0,3.82-5.28,3.9-10.29,8.07-13.9,13.67a17.79,17.79,0,0,0-2.16,4.53c-3.46-7.69-9.31-12.87-15.6-17.66-2.78-2.12-2.75-2.32-.14-4.58C210.6,505.58,216.38,500.81,220.55,494.18Z"/><path class="cls-1" d="M358.22,214.12c0-37.55-.08-75.09,0-112.63,0-3.13-1-4.78-3.9-6a166.41,166.41,0,0,0-23.39-7.74c-.68-.16-1.54-1-2.3,0-.07,1.6-.22,3.21-.22,4.82q0,98.33,0,196.65c0,16.12-.48,32.25.32,48.36a9.65,9.65,0,0,0,0,1.42c1.91,17.08,7.38,33.18,13.62,49.07a5.61,5.61,0,0,0,2.54,3.23c2.34-6.46,4.55-12.68,6.84-18.87,3.93-10.63,6.72-21.38,6.66-32.92C358.1,297.73,358.24,255.93,358.22,214.12Z"/><path class="cls-1" d="M433.37,360q-.08-63.57-.12-127.12c0-20.75-1.26-41.27-8.88-60.89-1.12-2.89-1.75-6-3.5-8.61-.26-.45-.4-1.63-1.1-.51-.38.62-.1,1.67-.1,2.52q0,80.06,0,160.11c0,4.27.05,8.52,1.24,12.67,2.46,11.66,8.1,23.16,12.45,25C433.37,362.05,433.38,361,433.37,360Z"/><path class="cls-1" d="M266.08,105.54h0c.6-5.57.31-11.16.3-16.74,0-1.33-.6-1.94-2-1.51-8.4,2.57-16.79,5.2-24.81,8.87-1.28.59-2.59,1.26-2.59,3-.05,1-.15,1.89-.15,2.84q0,108.84,0,217.69c0,10.34-.38,20.68.19,31h0a16.15,16.15,0,0,0,.11,2,143.61,143.61,0,0,0,7.3,24.71c1.75,4.54,2.84,9.39,5.7,13.53,1.19-.65,1.49-1.78,2-2.77a127,127,0,0,0,8.21-21.71c2.21-8.4,4.91-16.68,5.59-25.41.16-4.64.46-9.29.46-13.93q0-69.11-.17-138.23Q266.12,147.2,266.08,105.54Z"/><path class="cls-1" d="M219.6,338.44c0-1.1.27-2.24.27-3.37V140.5c0-8.4,0-16.8,0-25.19,0-1.19-.38-2.48.45-3.58q.06,30.31.11,60.62.06,80.68.08,161.38C220.53,338.86,219.53,342,219.6,338.44Z"/><path class="cls-1" d="M174.94,162.31c-.93,1-1.21,1.55-1.21,2.25h0c-2.83,5.27-4.36,11-6.06,16.69a132.69,132.69,0,0,0-5.21,34.63,9.33,9.33,0,0,1,.2,3.37q0,58.88,0,117.75,0-20.73,0-41.46a1.57,1.57,0,0,0-.38-1.31A14.91,14.91,0,0,0,162,299q-.07,16.64-.08,33.28,0,14.35,0,28.72c0,.77-.29,1.94.76,2.21s1.41-.81,1.86-1.49a74.14,74.14,0,0,0,8.92-18.95c.88-2.75,1.72-5.62,1.38-8.62,0-1,.11-2.08.11-3.12l0-164.9Z"/><path class="cls-1" d="M162.46,215.88c.78.78.48,1.79.48,2.7q0,58.41,0,116.82c0,.74-.07,1.48-.12,2.51a5.13,5.13,0,0,1-.39-3q-.1-20.33-.15-40.64C162.41,268.11,161.84,242,162.46,215.88Z"/><path class="cls-2" d="M475.14,193.48a174,174,0,0,0-3.74-19.2h0A165.75,165.75,0,0,0,462.51,147c-13.7-31.6-34.43-57.6-62.64-77.54a176.93,176.93,0,0,0-87.36-32.25A170.66,170.66,0,0,0,257,41.52Q194.7,56.35,155.47,106.91a172.86,172.86,0,0,0-28.75,55.39,183.59,183.59,0,0,0-7.52,34.8A120.23,120.23,0,0,0,117.87,214h0c-.3,1-.77,2,.09,2.92l27.92,0h0c.61-.21.44-.73.47-1.17a171.36,171.36,0,0,1,8.67-46c9.95-29.83,26.81-54.74,51.76-74.14s53.47-28.21,84.43-30.39c14.05-1,27.92,1,41.64,4,26,5.69,48.11,18.62,67.32,36.57,17.69,16.54,29.89,36.82,38.3,59.46,3,8.22,5.14,16.69,7.32,25.16a233.51,233.51,0,0,1,2.89,25.44c.07,1.33.86,1.22,1.72,1.22,8.35,0,16.69,0,25,0,1.4,0,1.64-.41,1.65-1.79A141.32,141.32,0,0,0,475.14,193.48Z"/><path class="cls-1" d="M312.73,341.3c0-.71,0-1.42,0-2.13l-.14-6.16q0-104.4,0-208.81c0-12.33,0-24.66,0-37,0-1.37.3-3.26-1.73-3.3-9.09-.22-18.2-.71-27.28.4-1.26.16-1.28.86-1.09,1.78-.47,7.2-.27,14.4-.27,21.6q0,60.45,0,120.9c0,29.95.22,96.73-.08,112.16a19.51,19.51,0,0,0,.94,6.4l14.19,43.78,14.42-43A19.81,19.81,0,0,0,312.73,341.3Z"/><path class="cls-1" d="M290.19,403.55v-4.71l-.16.5-15.26-52.68h0c-.08,1.47-.15,2.94-.23,4.41h0a8.32,8.32,0,0,0-.4,1.35,153.5,153.5,0,0,1-20.93,60.19c-4.39,7.27-9.71,13.84-17.38,18a21.58,21.58,0,0,1-14.74,2.63c-9.43-1.77-12.14-14.43-6.66-20.33.81-.87,1.61-1.75,2.53-2.75-3.8-.75-9.61.87-12.25,3.19-6.88,6.05-9.53,13.63-7.39,22.5,1.46,6.1,4.19,11.92,10.13,14.79a36.08,36.08,0,0,0,25.17,2.72c3.73-.94,7.42-2,11.53-3.43-5.3,7.43-11,13.61-18.64,17.58-5.81,3-11.86,4.15-18.39,2.33-9-2.51-17.37-6.46-25.77-10.39a72.59,72.59,0,0,0-13.24-5c-13.53-3.32-25.52,1.82-31.63,13.82-3.31,6.52-3.78,13.58-3,20.79,1.73,16.57,18.63,28,34.45,23.13A23.05,23.05,0,0,0,179.47,504c-8.78,2.29-14.71,1.31-20.11-3.14A15.1,15.1,0,0,1,163,475.29c5.47-2.39,11.06-2.35,16.68-.81,9.85,2.69,19.56,5.93,29.71,7.46,8.44,1.27,16.34.39,23.6-4.67a78.21,78.21,0,0,0,12.8-10.77c15.24-16.4,27.76-34.78,39.09-54,1.71-2.9,3.33-5.87,5.2-9.16Z"/><path class="cls-1" d="M304.5,403.55v-4.71l.16.5,15.26-52.68h0c.08,1.47.15,2.94.23,4.41h0a8.32,8.32,0,0,1,.4,1.35,153.5,153.5,0,0,0,20.93,60.19c4.39,7.27,9.71,13.84,17.38,18a21.58,21.58,0,0,0,14.74,2.63c9.43-1.77,12.14-14.43,6.66-20.33-.81-.87-1.61-1.75-2.53-2.75,3.8-.75,9.61.87,12.25,3.19,6.89,6.05,9.53,13.63,7.39,22.5-1.46,6.1-4.19,11.92-10.13,14.79a36.08,36.08,0,0,1-25.17,2.72c-3.73-.94-7.42-2-11.53-3.43,5.3,7.43,11,13.61,18.64,17.58,5.81,3,11.87,4.15,18.39,2.33,9-2.51,17.37-6.46,25.77-10.39a72.59,72.59,0,0,1,13.24-5c13.53-3.32,25.52,1.82,31.63,13.82,3.31,6.52,3.78,13.58,3,20.79-1.73,16.57-18.63,28-34.45,23.13A23.05,23.05,0,0,1,415.22,504c8.78,2.29,14.71,1.31,20.11-3.14a15.1,15.1,0,0,0-3.64-25.53c-5.47-2.39-11.06-2.35-16.68-.81-9.85,2.69-19.56,5.93-29.71,7.46-8.44,1.27-16.34.39-23.6-4.67a78.21,78.21,0,0,1-12.8-10.77c-15.24-16.4-27.76-34.78-39.09-54-1.71-2.9-3.33-5.87-5.2-9.16Z"/><path class="cls-1" d="M219.42,358c.17-1.08.31-2.16.44-3.25,0,0-38.13,50.5-77.79,73.47-10,5.8-20.1,11.34-30.26,16.82-11.67,6.3-22.61,13.64-30.71,24.36-8.87,11.75-12,24.62-5.71,38.63,5.64,12.5,19.5,19.62,31.92,16.75,9.18-2.11,14.4-9.58,12.82-18.37-.8-.12-1.16.59-1.59,1-7.47,6.84-17.64,2.65-21.13-4.35s-2.17-13.78,1.66-20.27c6.43-10.88,16.09-18.31,26.79-24.43,8.86-5.07,18.89-8.21,27.11-14.27,34.37-25.32,44.33-41.71,54.45-55,6-7.92,10.82-20.8,12.15-29.15A3.25,3.25,0,0,1,219.42,358Z"/><path class="cls-1" d="M220.15,333.51q0-103.51,0-207c0-4.91-.26-9.82.16-14.71,0,0,0-.08,0-.11v-2.5a4.67,4.67,0,0,0-.92.47,224.74,224.74,0,0,0-26.36,26.45A5.49,5.49,0,0,0,191.5,139l-.18,97.74h0c-.12,1.31-.33,2.62-.34,3.94q-.1,46.95-.15,93.9c0,3.81.44,9,0,12.72-.55,4.45-1,19.07-5,27.59a1.57,1.57,0,0,0,2.46,1.83l28.54-30.55a9.13,9.13,0,0,0,3.08-6.13Q220.15,336.79,220.15,333.51Z"/><path class="cls-1" d="M373.34,358c-.17-1.08-.32-2.16-.44-3.25,0,0,38.12,50.5,77.79,73.47,10,5.8,20.1,11.34,30.25,16.82,11.68,6.3,22.62,13.64,30.72,24.36,8.87,11.75,12,24.62,5.71,38.63-5.65,12.5-19.5,19.62-31.93,16.75-9.17-2.11-14.4-9.58-12.81-18.37.8-.12,1.15.59,1.59,1,7.47,6.84,17.64,2.65,21.12-4.35s2.18-13.78-1.65-20.27c-6.43-10.88-16.1-18.31-26.79-24.43-8.86-5.07-18.89-8.21-27.11-14.27-34.37-25.32-44.33-41.71-54.45-55-6-7.92-10.82-20.8-12.15-29.15A3.25,3.25,0,0,0,373.34,358Z"/><path class="cls-1" d="M372.61,333.51q0-103.51,0-207c0-4.91.26-9.82-.17-14.71v-2.61a5,5,0,0,1,.92.47A224.74,224.74,0,0,1,399.7,136.1a5.49,5.49,0,0,1,1.56,2.94l.18,97.74h0c.11,1.31.33,2.62.33,3.94q.12,46.95.15,93.9c0,3.81-.43,9,0,12.72.55,4.45,1,19.07,5,27.59a1.57,1.57,0,0,1-2.47,1.83L376,346.21a9.18,9.18,0,0,1-3.09-6.13Q372.61,336.79,372.61,333.51Z"/></svg>