<svg id="Layer_1" data-name="Layer 1" xmlns="http://www.w3.org/2000/svg" viewBox="0 0 543.51 476.99"><defs><style>.cls-1{fill:#e9bad2;}</style></defs><path class="cls-1" d="M417.16,421.51c-1.15-.54-2.52-.6-3.7-1.1-.52-.23-.8-1-1.2-1.53a12.68,12.68,0,0,1,1.68-.86c8.06-2.75,16.13-5.48,24.65-8.37-4.65-8.18-9.12-15.22-17.57-18.79-4.64-1.95-9.13-1.75-13.88-.9-8.54,1.54-17,2-25.35-1.58-2.34-1-16.23-4.12-30.54-4.61-23.77-.82-28.86,1.36-40.49,7.16a73.1,73.1,0,0,0-28.09,25c-1.16,1.79-2.3,3.58-3.46,5.37l-.68-.29c0-1.85,0-3.71,0-5.56-.07-21-.22-42.08-.17-63.12,0-13.81.3-27.63.55-41.45.11-6.5,3.67-10.48,9.6-12.7,4.84-1.82,9.82-3.41,14.4-5.75,19.63-10.05,34.89-24.43,43.71-45,6.52-15.21,8.5-31.06,6.8-47.45-1.67-16.09-6.08-31.34-14.15-45.4-14.4-25.08-35.11-43.21-61.29-55.27a12,12,0,0,0-11.85,0c-26.18,12.06-46.89,30.19-61.28,55.27-8.07,14.06-12.48,29.31-14.15,45.4-1.7,16.39.27,32.24,6.79,47.45,8.82,20.61,24.08,35,43.71,45,4.59,2.34,9.56,3.93,14.4,5.75,5.93,2.22,9.49,6.2,9.6,12.7.25,13.82.53,27.64.56,41.45,0,21-.11,42.08-.18,63.12V421l-.68.29q-1.72-2.68-3.46-5.37a73,73,0,0,0-28.09-25c-11.63-5.8-16.72-8-40.49-7.16-14.31.49-28.2,3.6-30.53,4.61C154,392,145.52,391.5,137,390c-4.75-.85-9.24-1-13.88.9-8.45,3.57-12.92,10.61-17.56,18.79,8.52,2.89,16.59,5.62,24.65,8.37a13.21,13.21,0,0,1,1.67.86c-.39.52-.68,1.3-1.2,1.53-1.17.5-2.55.56-3.7,1.1a17.45,17.45,0,0,0-10.18,12.67c-2.11,10.19,2.76,13.7,11.71,13.75,8.51.05,15.9-10.08,14.27-18.42a58.24,58.24,0,0,0-1.92-7.37,8.25,8.25,0,0,1,2.62-9.49,26.74,26.74,0,0,1,3.35-2.56q8.55-5.46,17.15-10.8c.28-.18.75-.06,2-.12-1.52,1.55-2.47,2.66-3.57,3.58-1.48,1.24-3.15,2.26-4.63,3.5-6.88,5.79-9.08,13-6.78,21.74,1.67,6.35,3.17,12.74,4.76,19.11.31,1.28.66,2.55,1,3.94,7.86-2.9,13.35-7.94,18.06-14a23.56,23.56,0,0,0,5.3-16.14q-.37-6.72-.58-13.45c-.19-6.41,1.33-8.82,7.18-11.4a28.32,28.32,0,0,1,4.72-1.63c11.38-2.77,22.32-.88,32.4,4.5,17.43,9.31,30.74,22.69,37.95,41.47.42,1.08.07,2.47.08,3.71-1.1-.54-2.43-.85-3.25-1.67-5.18-5.15-10.15-10.51-15.38-15.61a27.92,27.92,0,0,0-18.67-8.09c-15.23-.73-24.62,9.14-32.63,20.32-.9,1.26-.56,2.5.87,3.31,3.43,2,6.73,4.17,10.29,5.85,11.64,5.49,23.94,5.85,36.38,3.94,7.17-1.1,14.17-1.37,20.06,3.54,3,2.48,5.24,5.82,7.86,8.74.62.68,1.33,1.71,2.06,1.77s1.75.14,2.63.16,1.76-.09,2.62-.16,1.45-1.09,2.06-1.77c2.62-2.92,4.89-6.26,7.87-8.74,5.88-4.91,12.88-4.64,20.06-3.54,12.44,1.91,24.73,1.55,36.37-3.94,3.56-1.68,6.87-3.89,10.29-5.85,1.43-.81,1.77-2.05.87-3.31-8-11.18-17.4-21-32.62-20.32a28,28,0,0,0-18.68,8.09c-5.23,5.1-10.19,10.46-15.37,15.61-.83.82-2.16,1.13-3.26,1.67,0-1.24-.33-2.63.09-3.71,7.21-18.78,20.52-32.16,37.95-41.47,10.08-5.38,21-7.27,32.4-4.5a28.22,28.22,0,0,1,4.71,1.63c5.85,2.58,7.37,5,7.18,11.4-.13,4.49-.33,9-.57,13.45a23.51,23.51,0,0,0,5.3,16.14c4.7,6.09,10.19,11.13,18.05,14,.37-1.39.72-2.66,1-3.94,1.58-6.37,3.08-12.76,4.76-19.11,2.29-8.7.1-15.95-6.79-21.74-1.48-1.24-3.15-2.26-4.63-3.5-1.1-.92-2-2-3.57-3.58,1.22.06,1.69-.06,2,.12q8.59,5.35,17.14,10.8a26.74,26.74,0,0,1,3.35,2.56,8.23,8.23,0,0,1,2.62,9.49,58.24,58.24,0,0,0-1.92,7.37c-1.63,8.34,5.76,18.47,14.28,18.42,8.95-.05,13.82-3.56,11.7-13.75A17.43,17.43,0,0,0,417.16,421.51Zm-121-280s32.82,61.23,0,126.68c0,0,3.68-37.43,3.68-65.2S296.13,141.55,296.13,141.55ZM243.54,268.23c-32.82-65.45,0-126.68,0-126.68s-3.68,33.71-3.68,61.48S243.54,268.23,243.54,268.23Zm28.11,8.43c-11.83-72.78,0-158.16,0-158.16C282.55,210.88,271.65,276.66,271.65,276.66Z"/><path class="cls-1" d="M169.21,354.51a51.38,51.38,0,0,1-10.76-8.38c-8.54-8.65-9.85-17.76-4.57-28.63,1.68-3.47,3.47-6.9,5.37-10.26,8.49-15,10.06-30.86,5.53-47.35-2.85-10.4-8.44-19.44-14.72-28.08-1.91-2.62-3.94-5.17-6-7.65-1.48-1.75-3.06-2.13-4.74,0-1.5,1.94-3.29,3.66-4.91,5.51-11.25,12.82-18.13,27.47-18.67,44.76-.35,11.51,1.78,22.38,8.44,32,4,5.86,8.2,11.64,12.17,17.55,1.89,2.83,3.51,5.86,5.13,8.87a10,10,0,0,1,.59,2.79l-.64.42a40.22,40.22,0,0,1-4.68-3.2c-6-5.51-12.34-10.8-17.88-16.78-9.86-10.64-14.14-23.37-12.87-38,1-11.57,1.46-23.16-.18-34.75A74.64,74.64,0,0,0,89.1,205.65c-10.12-12.27-23-20.78-37.37-27.29-11.67-5.29-24.06-8.08-36.66-10.07-2-.33-2.92.14-2.38,2.52a79.81,79.81,0,0,1,1.22,8.6c1.48,13.13-.19,26.18-1.26,39.22-1,11.8-1.41,23.54,1.3,35.17,4,17,12.34,31.14,27.68,40.31A103.93,103.93,0,0,0,74.83,307c3.78.76,7.54,1.62,11.34,2.26,10.26,1.71,18.14,7.44,25.49,14.39,6.82,6.45,14,12.5,21,18.75a10.22,10.22,0,0,1,1.19,1.57c-5.35,2.09-9.4,1.57-13.38-1.37-5.94-4.37-11.93-8.69-17.91-13-11.52-8.3-24.37-12.8-38.58-12.81a101.16,101.16,0,0,0-27.35,3.64,143.68,143.68,0,0,0-14.25,5.19c-1.58.62-2.17,1.9-.91,3.6,10.1,13.5,22.12,24.81,37.3,32.4,16.92,8.46,33.93,9.19,51,.07a97.39,97.39,0,0,1,11.35-4.87,29.2,29.2,0,0,1,17.09-.94c12.15,2.7,21.89,10.76,33.9,12.87a156.28,156.28,0,0,0,27,2.46C187.3,364.7,180.9,361.29,169.21,354.51ZM50.1,250.51c-4.43-25.47-21-60.9-21-60.9s32.48,39.49,38.39,59S70.77,273,89.59,291.85C89.59,291.85,54.53,276,50.1,250.51Z"/><path class="cls-1" d="M431.85,323.65c7.35-6.95,15.23-12.68,25.49-14.39,3.8-.64,7.56-1.5,11.34-2.26a103.79,103.79,0,0,0,33.19-12.89c15.35-9.17,23.71-23.28,27.69-40.31,2.71-11.63,2.26-23.37,1.3-35.17-1.07-13-2.74-26.09-1.26-39.22a79.81,79.81,0,0,1,1.22-8.6c.54-2.38-.34-2.85-2.38-2.52-12.6,2-25,4.78-36.66,10.07-14.34,6.51-27.25,15-37.37,27.29a74.74,74.74,0,0,0-16.69,37.77c-1.63,11.59-1.18,23.18-.17,34.75,1.27,14.61-3,27.34-12.87,38-5.54,6-11.84,11.27-17.89,16.78a39.27,39.27,0,0,1-4.67,3.2l-.64-.42a10,10,0,0,1,.59-2.79c1.62-3,3.23-6,5.13-8.87,4-5.91,8.13-11.69,12.17-17.55,6.66-9.66,8.79-20.53,8.44-32-.54-17.29-7.42-31.94-18.67-44.76-1.62-1.85-3.41-3.57-4.92-5.51-1.67-2.16-3.25-1.78-4.73,0-2.1,2.48-4.13,5-6,7.65-6.28,8.64-11.87,17.68-14.73,28.08-4.53,16.49-3,32.33,5.54,47.35,1.9,3.36,3.69,6.79,5.37,10.26,5.28,10.87,4,20-4.57,28.63a51.38,51.38,0,0,1-10.76,8.38c-11.69,6.78-18.09,10.19-29.94,16.69a156.28,156.28,0,0,0,27-2.46c12-2.11,21.75-10.17,33.9-12.87a29.2,29.2,0,0,1,17.09.94,97.39,97.39,0,0,1,11.35,4.87c17,9.12,34.06,8.39,51-.07,15.17-7.59,27.2-18.9,37.3-32.4,1.26-1.7.67-3-.91-3.6a144.61,144.61,0,0,0-14.25-5.19,101.16,101.16,0,0,0-27.35-3.64c-14.21,0-27.06,4.51-38.58,12.81-6,4.32-12,8.64-17.91,13-4,2.94-8,3.46-13.38,1.37a10.22,10.22,0,0,1,1.19-1.57C417.83,336.15,425,330.1,431.85,323.65Zm42.13-75c5.91-19.56,38.39-59,38.39-59s-16.61,35.43-21,60.9-39.49,41.34-39.49,41.34C470.66,273,468.08,268.22,474,248.66Z"/></svg>