<svg width="80" height="97" viewBox="0 0 80 97" fill="none" xmlns="http://www.w3.org/2000/svg">
<path d="M45.0295 23.3743L40.0103 3.08691L34.9705 23.3743C30.6438 18.1038 12.8521 21.3731 12.8521 21.3731C32.316 23.0605 40.0103 39.6593 40.0103 39.6593C40.0103 39.6593 46.9582 23.0605 66.4273 21.3731C66.4273 21.3731 49.3563 18.1038 45.0295 23.3743Z" fill="#BE986A"/>
<path d="M6.03486 55.7797C4.76021 53.4928 4.23952 50.8601 4.5473 48.2584C4.73324 46.5428 5.2286 44.8755 6.00921 43.3376C7.00637 41.4157 8.45643 39.7672 10.2334 38.5352C12.2359 37.1177 14.5188 36.1483 16.9274 35.6929C19.5281 35.1679 22.2122 35.225 24.7884 35.8601C26.5165 36.2737 28.1938 36.8776 29.7897 37.6606C32.0493 38.7964 34.0621 40.3701 35.7117 42.2907C36.8899 43.6702 37.8116 45.2507 38.4329 46.9568C38.4842 47.0957 38.5611 47.214 38.4329 47.4018C38.0508 46.9182 37.6635 46.4501 37.307 45.9768C34.9577 42.9698 31.9543 40.9609 28.2072 40.2278C24.6521 39.5095 20.964 39.8778 17.6199 41.285C15.6943 42.0757 13.9138 43.1833 12.3519 44.562C10.6491 46.0438 9.21779 47.8127 8.12258 49.7889C7.09504 51.6535 6.38919 53.679 6.03486 55.7797Z" fill="#BE986A"/>
<path d="M41.6799 47.5869C41.8599 46.8568 42.0992 46.1428 42.3955 45.4519C42.9981 44.0244 43.8521 42.7174 44.9167 41.5935C47.5122 38.692 50.7823 37.0046 54.4806 36.0143C56.1969 35.5301 57.9769 35.3115 59.7589 35.3661C62.1709 35.4446 64.5479 35.9678 66.771 36.9094C68.733 37.7506 70.5207 38.8515 71.9723 40.4463C73.5021 42.1519 74.5744 44.2196 75.0885 46.4551C75.8425 49.511 75.4553 52.4742 74.3062 55.3654C74.2601 55.4837 74.2062 55.5995 74.1241 55.7898C74.019 55.2908 73.9446 54.851 73.8369 54.4188C73.7292 53.9867 73.6035 53.5571 73.4573 53.1327C72.0428 49.1483 69.4182 45.7091 65.9528 43.2989C63.6401 41.694 60.9975 40.6303 58.2201 40.1865C56.6014 39.9255 54.9561 39.8719 53.3239 40.027C50.4715 40.2569 47.7549 41.3453 45.5296 43.1498C44.0376 44.3524 42.7891 45.8307 41.8518 47.5046C41.8518 47.5252 41.8056 47.5303 41.6799 47.5869Z" fill="#BE986A"/>
<path d="M38.1533 43.358C37.6004 42.4451 36.9895 41.5687 36.3246 40.7343C35.2452 39.4553 34.0213 38.3064 32.6776 37.3106C29.4284 34.905 25.6721 33.2796 21.6978 32.5596C19.3385 32.1194 16.9251 32.0508 14.5447 32.3564C10.7719 32.8349 7.34029 34.211 4.39595 36.6907C3.66849 37.2904 3.00106 37.9598 2.40313 38.6893C2.36723 38.7519 2.31625 38.8045 2.25487 38.8422C2.19349 38.88 2.12366 38.9017 2.05176 38.9054C2.08083 38.253 2.18672 37.6063 2.36722 36.9788C3.05458 34.2908 4.30875 31.9191 6.36825 30.0337C8.29627 28.2449 10.703 27.0595 13.2931 26.6229C14.635 26.3756 16.0039 26.309 17.3634 26.4248C19.393 26.6179 21.3846 27.1013 23.2777 27.8601C25.949 28.9061 28.4279 30.3909 30.6129 32.2535C32.86 34.1634 34.7935 36.416 36.3426 38.9286C37.1387 40.1759 37.7495 41.5329 38.1559 42.9567C38.2052 43.0861 38.2042 43.2293 38.1533 43.358Z" fill="#BE986A"/>
<path d="M77.9123 38.9158C76.7038 37.5406 75.3096 36.3415 73.7702 35.3532C71.7928 34.1489 69.6241 33.2936 67.3583 32.8247C65.06 32.3431 62.7059 32.1855 60.3642 32.3565C57.1993 32.5492 54.1022 33.3591 51.2465 34.741C49.3531 35.6622 47.5923 36.8354 46.0118 38.229C44.6835 39.3666 43.4984 40.6622 42.4827 42.0874C42.316 42.3266 42.2262 42.6224 41.9287 42.8591C41.9672 42.2675 42.239 41.8096 42.4417 41.3466C43.1939 39.6201 44.1543 37.9926 45.3014 36.5005C46.9018 34.4439 48.7782 32.6191 50.8772 31.0781C53.5237 29.1049 56.5363 27.6813 59.7384 26.8905C63.0444 26.0957 66.3093 26.1548 69.4845 27.4307C71.5641 28.2637 73.4081 29.5956 74.8551 31.3096C76.476 33.2054 77.3993 35.3995 77.8636 37.82C77.8825 37.8983 77.8903 37.9788 77.8866 38.0593C77.8559 38.3268 78.02 38.584 77.9123 38.9158Z" fill="#BE986A"/>
</svg>
