<svg width="80" height="97" viewBox="0 0 80 97" fill="none" xmlns="http://www.w3.org/2000/svg">
<path d="M45.0295 23.3743L40.0103 3.08691L34.9705 23.3743C30.6438 18.1038 12.8521 21.3731 12.8521 21.3731C32.316 23.0605 40.0103 39.6593 40.0103 39.6593C40.0103 39.6593 46.9582 23.0605 66.4273 21.3731C66.4273 21.3731 49.3563 18.1038 45.0295 23.3743Z" fill="#E9BAD2"/>
<path d="M6.03486 55.7792C4.76021 53.4923 4.23952 50.8596 4.5473 48.2579C4.73324 46.5423 5.2286 44.875 6.00921 43.3371C7.00637 41.4153 8.45643 39.7667 10.2334 38.5347C12.2359 37.1172 14.5188 36.1478 16.9274 35.6924C19.5281 35.1674 22.2122 35.2245 24.7884 35.8596C26.5165 36.2732 28.1938 36.8771 29.7897 37.6602C32.0493 38.7959 34.0621 40.3696 35.7117 42.2902C36.8899 43.6697 37.8116 45.2502 38.4329 46.9563C38.4842 47.0952 38.5611 47.2135 38.4329 47.4013C38.0508 46.9177 37.6635 46.4496 37.307 45.9763C34.9577 42.9693 31.9543 40.9604 28.2072 40.2273C24.6521 39.509 20.964 39.8773 17.6199 41.2845C15.6943 42.0752 13.9138 43.1828 12.3519 44.5615C10.6491 46.0433 9.21779 47.8122 8.12258 49.7884C7.09504 51.653 6.38919 53.6785 6.03486 55.7792Z" fill="#E9BAD2"/>
<path d="M41.6799 47.5864C41.8599 46.8563 42.0992 46.1423 42.3955 45.4514C42.9981 44.0239 43.8521 42.7169 44.9167 41.593C47.5122 38.6915 50.7823 37.0041 54.4806 36.0138C56.1969 35.5296 57.9769 35.3111 59.7589 35.3656C62.1709 35.4441 64.5479 35.9673 66.771 36.909C68.733 37.7501 70.5207 38.851 71.9723 40.4458C73.5021 42.1515 74.5744 44.2192 75.0885 46.4546C75.8425 49.5105 75.4553 52.4737 74.3062 55.3649C74.2601 55.4833 74.2062 55.599 74.1241 55.7894C74.019 55.2903 73.9446 54.8505 73.8369 54.4183C73.7292 53.9862 73.6035 53.5566 73.4573 53.1322C72.0428 49.1478 69.4182 45.7086 65.9528 43.2985C63.6401 41.6935 60.9975 40.6298 58.2201 40.186C56.6014 39.925 54.9561 39.8714 53.3239 40.0265C50.4715 40.2564 47.7549 41.3448 45.5296 43.1493C44.0376 44.3519 42.7891 45.8302 41.8518 47.5041C41.8518 47.5247 41.8056 47.5298 41.6799 47.5864Z" fill="#E9BAD2"/>
<path d="M38.1533 43.3585C37.6004 42.4456 36.9895 41.5692 36.3246 40.7348C35.2452 39.4558 34.0213 38.3069 32.6776 37.3111C29.4284 34.9055 25.6721 33.2801 21.6978 32.5601C19.3385 32.1199 16.9251 32.0513 14.5447 32.3569C10.7719 32.8354 7.34029 34.2115 4.39595 36.6912C3.66849 37.2909 3.00106 37.9602 2.40313 38.6898C2.36723 38.7524 2.31625 38.805 2.25487 38.8427C2.19349 38.8805 2.12366 38.9022 2.05176 38.9059C2.08083 38.2535 2.18672 37.6068 2.36722 36.9793C3.05458 34.2913 4.30875 31.9196 6.36825 30.0342C8.29627 28.2454 10.703 27.06 13.2931 26.6233C14.635 26.3761 16.0039 26.3095 17.3634 26.4253C19.393 26.6184 21.3846 27.1018 23.2777 27.8606C25.949 28.9066 28.4279 30.3914 30.6129 32.254C32.86 34.1639 34.7935 36.4165 36.3426 38.929C37.1387 40.1764 37.7495 41.5334 38.1559 42.9572C38.2052 43.0866 38.2042 43.2298 38.1533 43.3585Z" fill="#E9BAD2"/>
<path d="M77.9123 38.9153C76.7038 37.5401 75.3096 36.341 73.7702 35.3527C71.7928 34.1484 69.6241 33.2931 67.3583 32.8242C65.06 32.3426 62.7059 32.185 60.3642 32.3561C57.1993 32.5487 54.1022 33.3587 51.2465 34.7405C49.3531 35.6617 47.5923 36.8349 46.0118 38.2285C44.6835 39.3661 43.4984 40.6618 42.4827 42.0869C42.316 42.3261 42.2262 42.622 41.9287 42.8586C41.9672 42.267 42.239 41.8091 42.4417 41.3461C43.1939 39.6196 44.1543 37.9921 45.3014 36.5C46.9018 34.4434 48.7782 32.6186 50.8772 31.0776C53.5237 29.1044 56.5363 27.6808 59.7384 26.89C63.0444 26.0952 66.3093 26.1543 69.4845 27.4302C71.5641 28.2632 73.4081 29.5951 74.8551 31.3092C76.476 33.2049 77.3993 35.399 77.8636 37.8195C77.8825 37.8978 77.8903 37.9783 77.8866 38.0588C77.8559 38.3263 78.02 38.5835 77.9123 38.9153Z" fill="#E9BAD2"/>
</svg>
