<svg id="Layer_1" data-name="Layer 1" xmlns="http://www.w3.org/2000/svg" viewBox="0 0 497.13 477.75"><defs><style>.cls-1{fill:#233565;}</style></defs><path class="cls-1" d="M125,51c6.19-8.9,9.45-18.5,6.77-29.47a20.89,20.89,0,0,1-.59-5c0-2.89,1.56-4,4.35-3.29,5.23,1.3,8.88,6.36,9,12.71,0,1.73-.21,3.45-.32,5.09,4.4-4,8.55-8.27,13.19-11.91,10.76-8.47,22.93-12,36.43-8.37,11.45,3,21.06,15,22.16,26.76,1.2,12.88-9.61,26.9-22.43,28.59a25.54,25.54,0,0,1-10.7-.66c-7.29-2.28-10.3-11.21-6.32-17.68a7.54,7.54,0,0,1,3.58-2.92,3.69,3.69,0,0,1,3.32,1c3,4,4.33,5,7.05,3.93,2.91-1.09,4.79-5.2,4.13-9A13,13,0,0,0,182.81,30a26,26,0,0,0-16.55,3.84c-10.94,6.76-19.9,15.74-28.36,25.28-1.4,1.58-2.85,3.12-4,4.4,4.64-.29,9.51-.94,14.36-.84,8.21.18,15.35,6.72,17.06,15.06a18,18,0,0,1-9,19.15c-5.71,2.94-13.1,2.34-17-1.49-.69-.69-1.48-1.83-1.35-2.63.09-.61,1.51-1.23,2.43-1.45,3.9-.89,5.52-2.09,5.76-4.56A7.64,7.64,0,0,0,141,79.1c-4.87-1.8-9.76-1.25-14.68-.11-8.87,2.06-16.35,6.79-23.87,12a58.23,58.23,0,0,1,5.92,1c6.55,1.77,10.15,7.15,9.55,14.09a13.78,13.78,0,0,1-11.7,12.37c-3.22.39-4.23-.9-3-3.84,1.53-3.7.22-7-3.49-8.53-5-2.14-10.09-1.44-15.11.09-9.71,3-17.56,8.84-24.48,16-4,4.13-7.55,8.67-11.64,13.4,3.84-.54,6.94-1.28,10.06-1.35,6.22-.13,10.62,3.88,11,9.59.21,3.26-.89,4.54-4.1,4.23-12-1.14-21.36,3.86-29.35,12.25A74.16,74.16,0,0,0,17,196a3.52,3.52,0,0,1-.29,1c-.66,1.12-1.37,2.21-2.07,3.32-1.12-1-2.81-1.79-3.26-3a28.14,28.14,0,0,1-2.08-9c-.1-7.28.42-14.56.58-21.84.17-7.71.42-15.43.21-23.13-.07-2.24-1.69-4.42-2.39-6.68-.37-1.18-.83-3-.26-3.63a5.39,5.39,0,0,1,4-1.39c4,.5,7.42,2.39,8.69,6.45,1.09,3.48,1.57,7.16,2.35,10.87,1.54-4,3.2-8.16,4.7-12.34,3.47-9.63,6.56-19.34,6.53-29.75A15.35,15.35,0,0,0,30.34,97c-3.6-4.48-8.6-5-13-1.35-2.19,1.79-4,1.41-5.38-1.15C9,89.28,11.63,80.91,17.29,77.1,25.5,71.57,38,73.63,44.77,81.59c6.26,7.36,7.07,15.81,5,24.82-.58,2.56-1.38,5.07-1.79,7.8,4.94-7.1,10-14.1,14.78-21.32,5.28-8,9.92-16.37,12.64-25.68,2.39-8.21,2.94-16.38.36-24.64C72.87,33.15,63,27.63,54.24,30.48,47.84,32.56,45,38,47,44.3c.65,2.05,1.84,3.65,4.19,4s4.15-.56,5-2.95c.6-1.69,1.79-1.4,3-.84,4.1,1.83,6.05,7.09,4.4,11.87-1.8,5.2-6.84,8.52-13.37,8.82-12.44.56-23.88-9-26.24-21.26-2.7-14,8.11-29.28,21.86-34.24,19.46-7,40,4.27,45.78,23.17,5.89,19.08,3,37.37-8.39,54.07a1.67,1.67,0,0,0-.31,1.23,26.15,26.15,0,0,0,2.53-1.86c6.66-6.27,13.67-12.22,19.81-19a27,27,0,0,0,7-23.67A6.28,6.28,0,0,0,106.78,38c-3.54-.69-4.37-2.19-3.33-5.65,2.11-7,11.67-9.09,17.61-3.82,5,4.44,5.91,10.3,5.22,16.56A58.07,58.07,0,0,1,125,51Z"/><path class="cls-1" d="M448.23,113c-.57-4.93-1.76-10.42-1.74-15.91,0-12.4,8.76-21.73,21-23.2,10.11-1.21,19.71,7.33,18.84,16.94a10.54,10.54,0,0,1-1.9,4.8c-1,1.41-2.66,1.62-4.27.53-7.76-5.25-15.36-1.67-16.75,7.8-.93,6.31.06,12.48,1.83,18.41,2.59,8.7,5.83,17.21,8.92,26.18.81-3.7,1.27-6.87,2.2-9.89,1.24-4,4.25-6.28,8.32-7a8.48,8.48,0,0,1,3.9.33,2,2,0,0,1,1.17,3.18c-4.42,7.09-3.85,15-3.59,22.77.31,9.67,1,19.33,1.16,29,.06,2.95-.84,5.94-1.44,8.89a5.9,5.9,0,0,1-1.29,2.86,4.22,4.22,0,0,1-2.82,1.43c-.62,0-1.39-1.38-1.7-2.27-2-5.86-3.46-12-6-17.57-5.2-11.32-12.7-20.94-23.37-27.76a29.22,29.22,0,0,0-18-4.6c-5.47.35-7.19-2.46-4.74-7.5s8.68-7.61,15.1-6a20.23,20.23,0,0,0,4.95.9c-2.65-3.22-5.15-6.57-8-9.62-7.55-8.11-15.78-15.39-26.3-19.54a26.9,26.9,0,0,0-13.53-2c-7.57,1-9.66,6.89-5,11.47a2.41,2.41,0,0,1,.37.69c-1.72,2.25-3.86,2.84-7,1.95-6.37-1.78-10.56-8.28-9.84-15.26.69-6.6,5.73-11.17,12.81-11.57.86,0,1.72,0,3.37,0-6.06-4.52-11.64-8.27-18-10.81A33,33,0,0,0,360.74,78a12.47,12.47,0,0,0-7.94,3.91,5.7,5.7,0,0,0-1.53,5.87c.7,2.29,2.55,3,4.64,3.44a22,22,0,0,1,3,1.11c-.65,1.17-1,2.65-2,3.47-5.31,4.62-14.73,3.6-20.36-2.06a18,18,0,0,1-3.83-19.5c3.08-7.18,8.68-11.33,16.46-11.52,5-.12,10.09.93,14.55,1.39-8.27-9.34-17-19.4-28-27.17-6.18-4.39-12.77-7.65-20.72-7-7.47.62-13.69,7-12.91,13.86a9,9,0,0,0,2.39,4.82c2.73,2.82,6.59,2,8.33-1.57,1.54-3.1,4.45-3.54,6.72-.88,2.51,2.94,2.91,6.45,2.06,10.05-1.51,6.37-6.49,10.29-13,10.54-11,.42-18.61-5.08-24-14s-4.91-18,.17-26.82c4.94-8.61,12.2-14.43,22.07-16.07a39.55,39.55,0,0,1,29.88,6.8c4,2.78,7.5,6.24,11.15,9.48,1.44,1.28,2.67,2.8,4.57,4.82,0-2.59-.16-4.5,0-6.37C353,20,354.9,16.13,359.09,14c1.39-.72,3.79-1.09,4.88-.35s1.48,3.07,1.37,4.66c-.24,3.52-1.36,7-1.44,10.52-.19,8.32,3,15.62,7.75,22.36-.46-2.14-1.06-4.26-1.34-6.42-1-8.14,2.16-16.48,10-18.69,5-1.39,10.57.83,12.73,5.24,1.75,3.57.68,6-3.12,7.05-4.31,1.2-5.91,3.25-6.11,7.67-.39,8.52,2.65,15.87,7.93,22.31,6.44,7.86,14.48,14,22,19.85-2.22-4.54-5.07-9.33-7-14.47A65.6,65.6,0,0,1,403.7,37c2.83-13.74,15.1-26.11,28-28.37,15.19-2.66,29.42,3.39,37.13,15.76,9.63,15.46,2.68,34.75-14.52,39.77-6.8,2-13.45,1.67-18.7-4-3.9-4.24-3.89-10.56-.15-14.25,2.47-2.43,3.6-2.19,5.75.34.88,1,2.87,2,4,1.72a7,7,0,0,0,4.12-3.19c3.19-6.48-1.59-14-9.22-14.84-9.35-1.05-16.75,4-19.43,13.29-3.39,11.69-.76,22.71,4,33.34,5.39,12.08,13.16,22.72,21.13,33.19C446.82,111,447.74,112.33,448.23,113Z"/><path class="cls-1" d="M239.5,407.2c-5.71-.94-7.25-3.11-6.53-8.91.6-4.85,1.49-5.67,6.42-5.68q10,0,20,0c3.17,0,4.68,2.23,4.74,6.84.06,5.29-1.18,7.31-4.6,7.45l-3.44.16c1.74,3.61,3.13,6.92,4.89,10A19.47,19.47,0,0,0,274.22,427c7.13,1.55,14.79-4.5,14.86-11.52,0-5-5.13-9.72-10.53-6.55-2.25-2-2.71-4.1-1.57-7.14,2.2-5.86,9.2-8.89,15.71-6.78,12.72,4.14,21.42,21.58,9.17,35.94-5,5.83-11.48,9.54-19.15,9.86-10.84.46-20.37-2.65-26.4-12.65a1.28,1.28,0,0,0-1.14-.55c.71,1.7,1.41,3.41,2.14,5.1,5,11.38,1.82,21.42-7,29.22-1.53,1.35-2.67,1.14-4.11-.18-9.83-9-11.84-19.84-5.81-31.8a6,6,0,0,0,.76-2.92,8.87,8.87,0,0,0-1.21,1.33c-5,8.35-12.88,11.75-22,12.38-11.53.8-20.41-4.17-26.06-14.14-7.24-12.75.43-29.32,14.55-32.14a11.71,11.71,0,0,1,13.91,9.64,7.53,7.53,0,0,1-.94,3.72c-.85,1.94-2.12.64-3.32.29-4-1.15-7.94,2.06-8.36,6.68-.65,7.2,7.28,13.81,14.9,12.3,6.62-1.31,11.57-4.75,13.89-11.39C237.41,412.85,238.46,410.05,239.5,407.2Z"/><path class="cls-1" d="M253.88,364.67c1-2.6,1.91-5.26,3.07-7.79,2.9-6.29,7-11.44,13.47-14.51,10.68-5.06,22,2.95,23.63,13,1.34,8.21-1.76,15.12-8.52,19.17a4.77,4.77,0,0,1-1.91.9c-1.52.11-3.06,0-4.59,0a18.68,18.68,0,0,1,.67-4c1.69-4.25-.55-7.72-5.17-7.8-4.17-.08-7,2.31-9.36,5.3-3.1,3.88-4.86,8.42-6.23,13.14-1.43,4.89-1.48,4.89-6.61,5-3.83.05-7.65,0-11.47.12-1.79.07-2.44-.59-2.83-2.28a42.06,42.06,0,0,0-7.28-16.15c-2.09-2.77-4.63-5-8.35-5.07-4.55-.13-7,3.64-5.13,7.76.22.49.53.93.73,1.42.87,2.25.23,3.32-2.16,3.09-6-.57-9.54-4.4-11.83-9.51a18.21,18.21,0,0,1,12.87-25.26c6.74-1.34,12.05,2,16.64,6.53,4.25,4.23,6.63,9.59,8.82,15.05.26.65.51,1.31.81,1.95,0,.1.3.12,1,.37-1-3.24-1.66-6.22-2.74-9.05-1.67-4.39-3.43-8.77-5.48-13-5-10.22-4.17-20.24,1.27-29.84,2.65-4.67,6.26-8.79,9.47-13.13,1.26-1.71,2.54-1.59,3.86,0,4.84,5.94,9.27,12.08,11.85,19.45A28.27,28.27,0,0,1,261.15,342C257.69,349.19,254.68,356.54,253.88,364.67Z"/></svg>