<svg id="Layer_1" data-name="Layer 1" xmlns="http://www.w3.org/2000/svg" viewBox="0 0 566.93 566.93"><defs><style>.cls-1{fill:#aa5c9d;}</style></defs><path class="cls-1" d="M251.93,121.26V223.51H213.19s-2.26-18,7.52-24.46c0,0-7.75-3.2-7.75-11.82a17.29,17.29,0,0,1,6.5-13.31A13.07,13.07,0,0,1,213,162.3c0-8.38,5.68-12,5.68-12s-24.51-19.71-8.21-40.41C223.16,93.69,248.29,101.23,251.93,121.26Z"/><path class="cls-1" d="M221,223.51s-26.61,221,19.56,242.64a76.56,76.56,0,0,0,49.27,4.13S270.39,454.44,264,438.55c-3.34-8.31-7.41-17.53-10.28-42.83-7.24-63.81-9-172.21-9-172.21Z"/><path class="cls-1" d="M327.71,121.26V223.51h38.74s2.25-18-7.52-24.46c0,0,7.74-3.2,7.74-11.82a17.3,17.3,0,0,0-6.49-13.31,13.07,13.07,0,0,0,6.49-11.62c0-8.38-5.68-12-5.68-12s24.51-19.71,8.22-40.41C356.47,93.69,331.35,101.23,327.71,121.26Z"/><path class="cls-1" d="M358.65,223.51s26.6,221-19.56,242.64a76.57,76.57,0,0,1-49.27,4.13s19.43-15.84,25.82-31.73c3.35-8.31,7.41-17.53,10.28-42.83,7.25-63.81,9-172.21,9-172.21Z"/></svg>