<svg id="Layer_1" data-name="Layer 1" xmlns="http://www.w3.org/2000/svg" viewBox="0 0 566.93 566.93"><defs><style>.cls-1{fill:#1c1b1c;}</style></defs><path class="cls-1" d="M362.07,478.14A33.06,33.06,0,0,1,358.3,476c-8.55-6.42-16.91-13.09-25.6-19.32-12.06-8.65-17.35-20.77-19.42-35-.76-5.19.65-8.16,4.83-11.36,5.82-4.46,10.86-10,15.93-15.32,2.92-3.08,2.9-5,1.18-7.29-1.47-2-5.27-2.93-8-1.34-7.48,4.38-15.72,7.6-21.86,14.08-.93,1-2.15,2.21-3.3.8a3.83,3.83,0,0,1,0-3.49c2.94-5,7.41-8.4,12.66-10.8,8.48-3.88,10.26-7,6.67-16.3C317,359.3,308.07,352.35,297,348a6.46,6.46,0,0,0-4.52.16A46.73,46.73,0,0,0,272,365.6c-2.54,3.87-3.15,8.36-3.44,12.84-.17,2.63,1.47,4.51,3.63,5.85,3.53,2.17,7.32,4,10.57,6.51a57,57,0,0,1,7.9,8.09c.52.6.05,2.05,0,3.11-1.11-.23-2.65-.07-3.27-.75-3.9-4.29-8.91-6.82-13.95-9.38-3.17-1.62-6.2-3.51-9.3-5.26s-5.93-1.63-7.81.34c-1.55,1.62-2,3.41-.5,5.34,6.82,8.65,14.06,16.86,24.09,22a10.11,10.11,0,0,1,5.4,6.69,60.51,60.51,0,0,0,16.85,27.12c9.28,8.9,19.92,15.63,31.25,21.48C345.64,475.85,356.66,484,367,493a32.29,32.29,0,0,1,11.4,25c0,7.28-.31,14.56-.48,21.84,0,.3.07.6.16,1.43,4-4.43,7.73-8.42,9.26-14,2-7.34,4-14.72,8.85-20.86,5.43-6.88,12.35-10.38,21.27-9a10.87,10.87,0,0,1,3.26,1.12c7.8,4,15.32,0,16.33-8.75.57-4.95-.3-9.31-4.81-12.2-4.94-3.16-9.93-2.37-14.55.5s-8.63,6.12-13,9.17c-2.07,1.45-4.22,2.78-6.34,4.16l-.66-.44a25.81,25.81,0,0,1,.48-3.19c1.49-5.62,3.7-10.91,8.57-14.44,1.94-1.4,4.42-2.09,6.66-3.07a14.76,14.76,0,0,0,8.05-18.45c-2.07-6.44-10.4-11-17.32-9.52-6.74,1.46-11.28,9.31-9.51,16.85a11.43,11.43,0,0,1-.58,7.16c-2.49,6.47-4.81,13-6.87,19.62-1,3.13-1.17,6.5-1.8,9.75a5.07,5.07,0,0,1-1,1.54c-.43-.42-1-.77-1.28-1.29-1-2.27-1.83-4.62-2.85-6.87-2.58-5.64-5-11.36-7.89-16.84-4.69-8.9-8.87-18-10.82-27.89-1.58-8.05-1.75-16,3.83-23,1.67-2.07,2.23-2.09,4.1-.23,4.91,4.92,10.05,5.74,15.7,2.53A14,14,0,0,0,391.56,408c-2.79-10.67-11.52-15.23-22.65-11.83-11.87,3.63-21.17,16.46-21.5,28.78-.24,9.06.5,17.9,3.7,26.38,1.66,4.4,3.83,8.61,5.82,12.88,1.43,3.08,3,6.1,4.39,9.2a41.27,41.27,0,0,1,1.4,4.15Z"/><path class="cls-1" d="M222.88,241.07a32.22,32.22,0,0,0,3.77-2.14c8.55-6.42,16.91-13.09,25.6-19.32,12.06-8.65,17.35-20.77,19.42-35,.76-5.19-.65-8.16-4.83-11.36-5.81-4.46-10.86-10-15.93-15.33-2.92-3.07-2.89-5-1.18-7.29,1.47-2,5.27-2.92,8-1.33,7.48,4.38,15.73,7.6,21.86,14.08.93,1,2.15,2.21,3.3.8a3.83,3.83,0,0,0,0-3.49c-2.94-5-7.41-8.4-12.66-10.8-8.48-3.89-10.26-7-6.67-16.31,4.39-11.37,13.32-18.33,24.36-22.73a6.52,6.52,0,0,1,4.52.17A46.67,46.67,0,0,1,313,128.53c2.55,3.87,3.15,8.36,3.44,12.84.17,2.63-1.46,4.51-3.63,5.85-3.53,2.17-7.32,4-10.57,6.51a57,57,0,0,0-7.9,8.09c-.52.6,0,2.05,0,3.1,1.12-.22,2.65-.06,3.27-.74,3.91-4.29,8.91-6.82,13.95-9.38,3.17-1.62,6.2-3.51,9.3-5.26s5.93-1.63,7.81.33c1.55,1.63,2,3.42.5,5.35-6.82,8.65-14.06,16.86-24.09,22a10.14,10.14,0,0,0-5.4,6.69A60.51,60.51,0,0,1,282.79,211c-9.28,8.9-19.92,15.63-31.25,21.48C239.31,238.78,228.29,247,218,255.92a32.35,32.35,0,0,0-11.4,25c0,7.28.31,14.56.48,21.84,0,.3-.07.6-.16,1.42-4-4.42-7.73-8.41-9.26-14-2-7.34-4-14.72-8.85-20.86-5.43-6.88-12.35-10.39-21.27-9a10.34,10.34,0,0,0-3.26,1.12c-7.8,4-15.32,0-16.33-8.75-.57-4.95.3-9.31,4.81-12.2,4.94-3.16,9.94-2.37,14.55.5s8.63,6.12,13,9.16c2.07,1.46,4.22,2.79,6.34,4.17l.66-.44a25.81,25.81,0,0,0-.48-3.19c-1.49-5.62-3.69-10.91-8.57-14.44-1.94-1.41-4.42-2.09-6.66-3.07a14.77,14.77,0,0,1-8-18.45c2.07-6.44,10.4-11,17.32-9.52,6.74,1.46,11.28,9.31,9.51,16.85a11.43,11.43,0,0,0,.58,7.16c2.49,6.46,4.81,13,6.87,19.62,1,3.13,1.17,6.5,1.8,9.75a5.27,5.27,0,0,0,1,1.54c.43-.43,1-.77,1.28-1.29,1-2.27,1.83-4.62,2.86-6.87,2.57-5.64,5-11.36,7.88-16.84,4.69-8.9,8.87-18,10.82-27.89,1.58-8.05,1.75-16-3.83-23-1.66-2.07-2.23-2.1-4.1-.23-4.91,4.91-10.05,5.74-15.7,2.53a14,14,0,0,1-6.31-15.68c2.79-10.67,11.52-15.23,22.65-11.83,11.87,3.63,21.17,16.46,21.5,28.78.24,9.06-.5,17.89-3.7,26.38-1.66,4.4-3.83,8.61-5.82,12.88-1.43,3.08-3,6.1-4.39,9.19a39.79,39.79,0,0,0-1.39,4.16Z"/></svg>