<svg width="85" height="116" viewBox="0 0 85 116" fill="none" xmlns="http://www.w3.org/2000/svg">
<path d="M59.4017 99.8187C59.1219 99.6828 58.8512 99.5293 58.591 99.359C56.7548 97.9799 54.955 96.5471 53.0887 95.2088C50.4934 93.3507 49.3559 90.7472 48.9108 87.6904C48.7495 86.5756 49.0506 85.9376 49.9494 85.2502C51.2008 84.2921 52.2845 83.1021 53.3746 81.9571C54.0025 81.2977 53.9982 80.8831 53.6284 80.3912C53.3123 79.9615 52.4952 79.7639 51.9082 80.1055C50.2998 81.0442 48.5281 81.738 47.2078 83.13C47.01 83.3448 46.7455 83.6047 46.4983 83.3019C46.4388 83.1858 46.4078 83.0574 46.4078 82.927C46.4078 82.7967 46.4388 82.6682 46.4983 82.5522C47.1304 81.4781 48.0916 80.7456 49.2204 80.2301C51.0438 79.3966 51.4265 78.7264 50.6546 76.7286C49.7128 74.2862 47.7927 72.7912 45.4167 71.846C45.0988 71.7419 44.754 71.7549 44.4448 71.8825C42.634 72.6723 41.0974 73.9795 40.0283 75.6396C39.4778 76.473 39.3488 77.4397 39.2843 78.4063C39.2477 78.9691 39.6004 79.3751 40.0648 79.663C40.8239 80.1291 41.6388 80.5222 42.3376 81.0614C42.9605 81.5825 43.5296 82.1647 44.0363 82.7992C44.1481 82.9281 44.0363 83.2396 44.0363 83.4651C43.7976 83.4179 43.4665 83.4522 43.3331 83.3062C42.4946 82.3846 41.4173 81.8411 40.3336 81.2891C39.652 80.9432 39.0005 80.5372 38.3339 80.1592C37.6673 79.7811 37.0588 79.8112 36.6567 80.2322C36.3213 80.5824 36.2267 80.9669 36.5471 81.3814C38.0135 83.2396 39.5703 85.0032 41.7269 86.1073C42.0143 86.2469 42.2673 86.448 42.468 86.6964C42.6687 86.9448 42.8121 87.2343 42.8881 87.5444C43.5519 89.7753 44.8032 91.7872 46.5112 93.37C48.5066 95.2819 50.7944 96.7275 53.2306 97.9842C55.8603 99.3396 58.2298 101.095 60.4531 103.021C61.2318 103.682 61.8554 104.505 62.2794 105.433C62.7034 106.361 62.9176 107.372 62.9065 108.392C62.9065 109.956 62.8377 111.519 62.8033 113.083C62.8089 113.185 62.8196 113.287 62.8356 113.388C63.6957 112.439 64.4977 111.582 64.8267 110.381C65.2567 108.804 65.6867 107.219 66.7317 105.9C67.8972 104.422 69.3851 103.668 71.3052 103.967C71.55 104.007 71.7861 104.089 72.0041 104.207C73.6812 105.066 75.2982 104.207 75.5154 102.326C75.6379 101.264 75.453 100.328 74.4811 99.707C73.4189 99.0282 72.3459 99.1979 71.3526 99.8144C70.3592 100.431 69.4969 101.129 68.5573 101.782C68.1122 102.096 67.6499 102.381 67.194 102.678L67.0521 102.581C67.0724 102.352 67.1068 102.123 67.1553 101.898C67.4779 100.691 67.9509 99.5523 68.9981 98.7962C69.4152 98.4933 69.9485 98.3472 70.4301 98.1367C71.1671 97.8175 71.7555 97.2311 72.0768 96.4956C72.398 95.7601 72.4281 94.9302 72.161 94.1734C71.7159 92.79 69.9248 91.8105 68.439 92.1284C66.9876 92.4421 66.0114 94.1283 66.3942 95.748C66.5174 96.2611 66.4729 96.8001 66.2673 97.286C65.7319 98.6737 65.233 100.079 64.7923 101.501C64.5772 102.173 64.5385 102.897 64.4031 103.595C64.3521 103.717 64.2793 103.83 64.188 103.926C64.0956 103.833 63.973 103.758 63.915 103.649C63.6999 103.161 63.5215 102.656 63.3 102.171C62.7453 100.959 62.2249 99.7306 61.6035 98.5556C60.5972 96.6438 59.6963 94.689 59.277 92.5645C58.9372 90.8353 58.9028 89.1275 60.1026 87.6239C60.4596 87.1813 60.58 87.1749 60.9821 87.5766C62.0378 88.6313 63.143 88.8096 64.3579 88.1201C64.9209 87.7833 65.3584 87.272 65.6037 86.664C65.8491 86.056 65.8888 85.3845 65.7168 84.7518C65.1148 82.4598 63.2377 81.4803 60.8445 82.2106C58.2943 82.9904 56.2946 85.7464 56.2215 88.3929C56.1699 90.3391 56.329 92.2358 57.0171 94.0596C57.3762 95.0047 57.8428 95.9091 58.2685 96.8263C58.576 97.488 58.9136 98.1367 59.2125 98.8005C59.3282 99.0929 59.4287 99.3912 59.5135 99.6941L59.4017 99.8187Z" fill="#1C1B1C"/>
<path d="M29.475 48.8934C29.7543 48.758 30.0244 48.6045 30.2835 48.4337C32.122 47.0546 33.9195 45.6218 35.7881 44.2836C38.3812 42.4233 39.5187 39.8219 39.9638 36.7652C40.1272 35.6525 39.824 35.0145 38.9252 34.3271C37.676 33.369 36.5901 32.179 35.4999 31.034C34.8721 30.3746 34.8785 29.96 35.2462 29.468C35.5623 29.0384 36.3794 28.8408 36.9664 29.1824C38.5747 30.1211 40.3487 30.8149 41.6667 32.2047C41.8667 32.4195 42.129 32.6816 42.3763 32.3787C42.4358 32.2627 42.4668 32.1342 42.4668 32.0039C42.4668 31.8735 42.4358 31.7451 42.3763 31.629C41.7463 30.555 40.783 29.8225 39.6563 29.3069C37.8308 28.4735 37.448 27.8033 38.22 25.8055C39.1639 23.3631 41.084 21.868 43.4579 20.9229C43.7757 20.8178 44.1207 20.8308 44.4298 20.9594C46.2408 21.7497 47.778 23.0567 48.8484 24.7164C49.3968 25.5478 49.5279 26.5123 49.5881 27.4725C49.6247 28.0374 49.2742 28.4434 48.8076 28.7312C48.0507 29.1974 47.2336 29.5905 46.5348 30.1297C45.9124 30.6513 45.3434 31.2335 44.8362 31.8675C44.7243 31.9942 44.8254 32.2971 44.8362 32.5334C45.077 32.4861 45.406 32.5205 45.5393 32.3744C46.38 31.4529 47.4551 30.9094 48.5496 30.3574C49.2312 30.0115 49.8848 29.6055 50.5493 29.2275C51.2137 28.8494 51.8243 28.8795 52.2286 29.3005C52.5619 29.6506 52.6586 30.0351 52.3361 30.4497C50.8718 32.3078 49.3129 34.0693 47.1562 35.1756C46.8691 35.3155 46.6163 35.5168 46.4157 35.7651C46.215 36.0134 46.0715 36.3028 45.9951 36.6127C45.3266 38.8427 44.0708 40.8524 42.3591 42.4319C40.3637 44.3437 38.0759 45.7894 35.6397 47.0439C33.01 48.4015 30.6405 50.1565 28.4171 52.0833C27.6391 52.7439 27.0161 53.5674 26.5925 54.4956C26.1688 55.4237 25.9549 56.4336 25.9659 57.4536C25.9659 59.0174 26.0326 60.5812 26.0691 62.1451C26.0691 62.2095 26.0562 62.274 26.0347 62.4501C25.1746 61.4985 24.3726 60.6435 24.0436 59.4428C23.6136 57.866 23.1835 56.2807 22.1407 54.9618C20.9731 53.4839 19.4852 52.7299 17.5672 53.0285C17.3202 53.0709 17.082 53.1537 16.8619 53.2734C15.1847 54.1326 13.5678 53.2734 13.3506 51.3916C13.228 50.3305 13.4151 49.3939 14.387 48.7731C15.4492 48.0943 16.5222 48.264 17.5134 48.8805C18.5047 49.497 19.3691 50.1951 20.3087 50.8482C20.7538 51.1596 21.2182 51.4475 21.6719 51.7439L21.8138 51.6473C21.7931 51.4171 21.7594 51.1884 21.7128 50.962C21.3903 49.7569 20.9172 48.6184 19.8701 47.8623C19.44 47.5594 18.9197 47.4133 18.4359 47.2028C17.7015 46.8809 17.1161 46.2936 16.7971 45.5585C16.4781 44.8235 16.449 43.9951 16.7157 43.2396C17.1608 41.8562 18.9519 40.8767 20.4399 41.1946C21.8891 41.506 22.8653 43.1945 22.4847 44.8141C22.3597 45.3269 22.4035 45.8662 22.6094 46.3522C23.1448 47.7399 23.6437 49.1447 24.0866 50.5668C24.3016 51.2391 24.3382 51.963 24.4737 52.6612C24.5254 52.7832 24.5982 52.8951 24.6887 52.992C24.7833 52.8996 24.9037 52.8244 24.9639 52.7149C25.1789 52.2273 25.3574 51.7225 25.5789 51.237C26.1315 50.0254 26.654 48.7967 27.2732 47.6217C28.2817 45.7099 29.1805 43.7551 29.5998 41.6306C29.9395 39.9122 29.976 38.1937 28.7762 36.69C28.4193 36.2475 28.2967 36.241 27.8968 36.6427C26.8389 37.6975 25.7337 37.8757 24.5188 37.1862C23.9562 36.8492 23.5191 36.3377 23.2742 35.7297C23.0293 35.1217 22.9899 34.4504 23.162 33.818C23.7619 31.5259 25.6391 30.5464 28.0323 31.2768C30.5846 32.0565 32.5843 34.8104 32.6552 37.459C32.7068 39.4052 32.5477 41.302 31.8596 43.1257C31.5027 44.0709 31.0361 44.9752 30.6082 45.8925C30.3007 46.5541 29.9631 47.2028 29.6643 47.8666C29.5492 48.1591 29.4495 48.4574 29.3654 48.7602L29.475 48.8934Z" fill="#1C1B1C"/>
</svg>
