<svg id="Layer_1" data-name="Layer 1" xmlns="http://www.w3.org/2000/svg" viewBox="0 0 395.31 540.01"><defs><style>.cls-1{fill:#e9bad2;}</style></defs><path class="cls-1" d="M276.26,464.68a33.94,33.94,0,0,1-3.77-2.14c-8.54-6.42-16.91-13.09-25.59-19.32-12.07-8.65-17.36-20.77-19.43-35-.75-5.19.65-8.16,4.83-11.36,5.82-4.46,10.86-10,15.93-15.33,2.92-3.07,2.9-5,1.18-7.29-1.47-2-5.27-2.92-8-1.33-7.48,4.37-15.72,7.6-21.86,14.08-.92,1-2.15,2.21-3.3.8a3.83,3.83,0,0,1,0-3.49c2.94-5,7.41-8.41,12.66-10.81,8.48-3.88,10.26-7,6.67-16.3-4.38-11.37-13.31-18.33-24.36-22.73a6.52,6.52,0,0,0-4.52.17,46.59,46.59,0,0,0-20.54,17.49C183.6,356,183,360.5,182.7,365c-.17,2.62,1.47,4.51,3.63,5.85,3.53,2.17,7.32,4,10.57,6.51a56.52,56.52,0,0,1,7.9,8.09c.52.6,0,2.05,0,3.1-1.11-.22-2.65-.06-3.27-.74-3.9-4.29-8.91-6.82-13.95-9.39-3.17-1.61-6.2-3.5-9.3-5.26s-5.93-1.62-7.8.34c-1.56,1.63-2,3.42-.51,5.35,6.82,8.65,14.06,16.86,24.09,22a10.11,10.11,0,0,1,5.4,6.69,60.51,60.51,0,0,0,16.85,27.12c9.28,8.9,19.92,15.63,31.25,21.48,12.23,6.31,23.25,14.48,33.59,23.45a32.33,32.33,0,0,1,11.41,25c0,7.28-.32,14.56-.48,21.84a14,14,0,0,0,.15,1.42c4-4.42,7.73-8.41,9.26-14,2-7.34,4-14.72,8.86-20.86,5.42-6.88,12.34-10.39,21.27-9a10.37,10.37,0,0,1,3.25,1.12c7.8,4,15.32,0,16.33-8.76.57-4.94-.29-9.3-4.81-12.19-4.94-3.16-9.93-2.37-14.55.5s-8.63,6.12-13,9.16c-2.07,1.46-4.22,2.79-6.34,4.17l-.66-.45a25.94,25.94,0,0,1,.48-3.18c1.5-5.62,3.7-10.92,8.57-14.44,1.94-1.41,4.42-2.09,6.66-3.07a14.76,14.76,0,0,0,8.05-18.45c-2.07-6.44-10.4-11-17.31-9.52-6.75,1.46-11.29,9.31-9.51,16.85a11.5,11.5,0,0,1-.59,7.16c-2.49,6.46-4.81,13-6.86,19.62-1,3.13-1.18,6.5-1.81,9.75a5.07,5.07,0,0,1-1,1.54c-.43-.43-1-.78-1.27-1.29-1-2.27-1.83-4.62-2.86-6.88-2.58-5.64-5-11.36-7.89-16.83-4.68-8.9-8.87-18-10.82-27.89-1.58-8.05-1.74-16,3.84-23,1.66-2.06,2.22-2.09,4.09-.22,4.91,4.91,10.05,5.74,15.7,2.53a14,14,0,0,0,6.32-15.68c-2.8-10.67-11.53-15.23-22.66-11.83-11.86,3.63-21.16,16.46-21.5,28.78-.24,9.06.5,17.89,3.7,26.38,1.67,4.4,3.84,8.61,5.82,12.88,1.43,3.08,3,6.1,4.39,9.19a42.33,42.33,0,0,1,1.4,4.16Z"/><path class="cls-1" d="M137.08,227.61a32.92,32.92,0,0,0,3.76-2.14c8.55-6.42,16.91-13.09,25.6-19.32,12.06-8.66,17.35-20.77,19.42-35,.76-5.18-.65-8.15-4.83-11.35-5.81-4.46-10.86-10-15.93-15.33-2.92-3.07-2.89-5-1.18-7.29,1.47-2,5.27-2.92,8-1.33,7.48,4.37,15.73,7.6,21.86,14.07.93,1,2.15,2.22,3.3.81a3.83,3.83,0,0,0,0-3.49c-2.93-5-7.41-8.41-12.65-10.81-8.49-3.88-10.27-7-6.68-16.3,4.39-11.37,13.32-18.33,24.36-22.73a6.47,6.47,0,0,1,4.52.17,46.67,46.67,0,0,1,20.55,17.49c2.55,3.87,3.16,8.36,3.44,12.83.17,2.63-1.46,4.52-3.63,5.86-3.52,2.17-7.32,4-10.57,6.51a57.06,57.06,0,0,0-7.9,8.09c-.52.59-.05,2,0,3.1,1.12-.22,2.65-.06,3.27-.74,3.91-4.29,8.91-6.82,14-9.39,3.17-1.61,6.21-3.5,9.3-5.26s5.93-1.62,7.81.34c1.55,1.63,2,3.42.5,5.35-6.81,8.65-14.06,16.85-24.09,22a10.14,10.14,0,0,0-5.4,6.69A60.51,60.51,0,0,1,197,197.53c-9.28,8.9-19.92,15.63-31.25,21.47-12.23,6.32-23.25,14.49-33.59,23.46a32.35,32.35,0,0,0-11.4,25c0,7.28.31,14.56.48,21.84,0,.3-.06.6-.16,1.42-4-4.43-7.73-8.41-9.26-14-2-7.34-4-14.72-8.85-20.86-5.43-6.88-12.35-10.39-21.27-9A10.62,10.62,0,0,0,78.42,248c-7.8,4-15.32,0-16.33-8.76-.57-4.94.3-9.3,4.82-12.19,4.94-3.16,9.93-2.37,14.54.5s8.63,6.12,13,9.16c2.07,1.45,4.23,2.79,6.34,4.17l.66-.45a28.52,28.52,0,0,0-.47-3.19c-1.5-5.61-3.7-10.91-8.57-14.43-2-1.41-4.42-2.09-6.67-3.07a14.78,14.78,0,0,1-8-18.45c2.07-6.44,10.4-11,17.32-9.52,6.74,1.45,11.28,9.31,9.51,16.85a11.43,11.43,0,0,0,.58,7.16c2.49,6.46,4.81,13,6.87,19.62,1,3.13,1.17,6.5,1.8,9.75a5.27,5.27,0,0,0,1,1.54c.44-.43,1-.78,1.28-1.29,1-2.27,1.83-4.62,2.86-6.88,2.57-5.64,5-11.36,7.88-16.83,4.69-8.9,8.87-18,10.82-27.89,1.58-8,1.75-16-3.83-23-1.66-2.06-2.23-2.09-4.09-.22-4.92,4.91-10.06,5.74-15.71,2.53a14,14,0,0,1-6.31-15.68c2.79-10.67,11.52-15.23,22.65-11.83,11.87,3.63,21.17,16.45,21.5,28.78.24,9.06-.5,17.89-3.7,26.38-1.66,4.4-3.83,8.61-5.82,12.88-1.43,3.08-3,6.1-4.39,9.19a42.27,42.27,0,0,0-1.39,4.16Z"/></svg>