<svg width="85" height="116" viewBox="0 0 85 116" fill="none" xmlns="http://www.w3.org/2000/svg">
<path d="M59.4017 99.8187C59.1219 99.6828 58.8512 99.5293 58.591 99.359C56.7548 97.9799 54.955 96.5471 53.0887 95.2088C50.4934 93.3507 49.3559 90.7472 48.9108 87.6904C48.7495 86.5756 49.0506 85.9376 49.9494 85.2502C51.2008 84.2921 52.2845 83.1021 53.3746 81.9571C54.0025 81.2977 53.9982 80.8831 53.6284 80.3912C53.3123 79.9615 52.4952 79.7639 51.9082 80.1055C50.2998 81.0442 48.5281 81.738 47.2078 83.13C47.01 83.3448 46.7455 83.6047 46.4983 83.3019C46.4388 83.1858 46.4078 83.0574 46.4078 82.927C46.4078 82.7967 46.4388 82.6682 46.4983 82.5522C47.1304 81.4781 48.0916 80.7456 49.2204 80.2301C51.0438 79.3966 51.4265 78.7264 50.6546 76.7286C49.7128 74.2862 47.7927 72.7912 45.4167 71.846C45.0988 71.7419 44.754 71.7549 44.4448 71.8825C42.634 72.6723 41.0974 73.9795 40.0283 75.6396C39.4778 76.473 39.3488 77.4397 39.2843 78.4063C39.2477 78.9691 39.6004 79.3751 40.0648 79.663C40.8239 80.1291 41.6388 80.5222 42.3376 81.0614C42.9605 81.5825 43.5296 82.1647 44.0363 82.7992C44.1481 82.9281 44.0363 83.2396 44.0363 83.4651C43.7976 83.4179 43.4665 83.4522 43.3331 83.3062C42.4946 82.3846 41.4173 81.8411 40.3336 81.2891C39.652 80.9432 39.0005 80.5372 38.3339 80.1592C37.6673 79.7811 37.0588 79.8112 36.6567 80.2322C36.3213 80.5824 36.2267 80.9669 36.5471 81.3814C38.0135 83.2396 39.5703 85.0032 41.7269 86.1073C42.0143 86.2469 42.2673 86.448 42.468 86.6964C42.6687 86.9448 42.8121 87.2343 42.8881 87.5444C43.5519 89.7753 44.8032 91.7872 46.5112 93.37C48.5066 95.2819 50.7944 96.7275 53.2306 97.9842C55.8603 99.3396 58.2298 101.095 60.4531 103.021C61.2318 103.682 61.8554 104.505 62.2794 105.433C62.7034 106.361 62.9176 107.372 62.9065 108.392C62.9065 109.956 62.8377 111.519 62.8033 113.083C62.8089 113.185 62.8196 113.287 62.8356 113.388C63.6957 112.439 64.4977 111.582 64.8267 110.381C65.2567 108.804 65.6867 107.219 66.7317 105.9C67.8972 104.422 69.3851 103.668 71.3052 103.967C71.55 104.007 71.7861 104.089 72.0041 104.207C73.6812 105.066 75.2982 104.207 75.5154 102.326C75.6379 101.264 75.453 100.328 74.4811 99.707C73.4189 99.0282 72.3459 99.1979 71.3526 99.8144C70.3592 100.431 69.4969 101.129 68.5573 101.782C68.1122 102.096 67.6499 102.381 67.194 102.678L67.0521 102.581C67.0724 102.352 67.1068 102.123 67.1553 101.898C67.4779 100.691 67.9509 99.5523 68.9981 98.7962C69.4152 98.4933 69.9485 98.3472 70.4301 98.1367C71.1671 97.8175 71.7555 97.2311 72.0768 96.4956C72.398 95.7601 72.4281 94.9302 72.161 94.1734C71.7159 92.79 69.9248 91.8105 68.439 92.1284C66.9876 92.4421 66.0114 94.1283 66.3942 95.748C66.5174 96.2611 66.4729 96.8001 66.2673 97.286C65.7319 98.6737 65.233 100.079 64.7923 101.501C64.5772 102.173 64.5385 102.897 64.4031 103.595C64.3521 103.717 64.2793 103.83 64.188 103.926C64.0956 103.833 63.973 103.758 63.915 103.649C63.6999 103.161 63.5215 102.656 63.3 102.171C62.7453 100.959 62.2249 99.7306 61.6035 98.5556C60.5972 96.6438 59.6963 94.689 59.277 92.5645C58.9372 90.8353 58.9028 89.1275 60.1026 87.6239C60.4596 87.1813 60.58 87.1749 60.9821 87.5766C62.0378 88.6313 63.143 88.8096 64.3579 88.1201C64.9209 87.7833 65.3584 87.272 65.6037 86.664C65.8491 86.056 65.8888 85.3845 65.7168 84.7518C65.1148 82.4598 63.2377 81.4803 60.8445 82.2106C58.2943 82.9904 56.2946 85.7464 56.2215 88.3929C56.1699 90.3391 56.329 92.2358 57.0171 94.0596C57.3762 95.0047 57.8428 95.9091 58.2685 96.8263C58.576 97.488 58.9136 98.1367 59.2125 98.8005C59.3282 99.0929 59.4287 99.3912 59.5135 99.6941L59.4017 99.8187Z" fill="#AA5C9D"/>
<path d="M29.4752 48.8934C29.7545 48.758 30.0245 48.6045 30.2836 48.4337C32.1221 47.0546 33.9197 45.6218 35.7882 44.2836C38.3813 42.4233 39.5188 39.8219 39.9639 36.7652C40.1273 35.6525 39.8241 35.0145 38.9253 34.3271C37.6761 33.369 36.5902 32.179 35.5001 31.034C34.8722 30.3746 34.8786 29.96 35.2463 29.468C35.5624 29.0384 36.3795 28.8408 36.9665 29.1824C38.5749 30.1211 40.3488 30.8149 41.6669 32.2047C41.8668 32.4195 42.1292 32.6816 42.3764 32.3787C42.4359 32.2627 42.4669 32.1342 42.4669 32.0039C42.4669 31.8735 42.4359 31.7451 42.3764 31.629C41.7464 30.555 40.7831 29.8225 39.6564 29.3069C37.8309 28.4735 37.4482 27.8033 38.2201 25.8055C39.164 23.3631 41.0842 21.868 43.458 20.9229C43.7758 20.8178 44.1209 20.8308 44.4299 20.9594C46.241 21.7497 47.7781 23.0567 48.8486 24.7164C49.3969 25.5478 49.528 26.5123 49.5882 27.4725C49.6248 28.0374 49.2743 28.4434 48.8077 28.7312C48.0508 29.1974 47.2338 29.5905 46.5349 30.1297C45.9125 30.6513 45.3435 31.2335 44.8363 31.8675C44.7245 31.9942 44.8255 32.2971 44.8363 32.5334C45.0771 32.4861 45.4061 32.5205 45.5394 32.3744C46.3801 31.4529 47.4552 30.9094 48.5497 30.3574C49.2313 30.0115 49.885 29.6055 50.5494 29.2275C51.2138 28.8494 51.8245 28.8795 52.2287 29.3005C52.562 29.6506 52.6587 30.0351 52.3362 30.4497C50.8719 32.3078 49.313 34.0693 47.1564 35.1756C46.8693 35.3155 46.6164 35.5168 46.4158 35.7651C46.2152 36.0134 46.0716 36.3028 45.9952 36.6127C45.3267 38.8427 44.071 40.8524 42.3592 42.4319C40.3638 44.3437 38.076 45.7894 35.6398 47.0439C33.0101 48.4015 30.6406 50.1565 28.4173 52.0833C27.6392 52.7439 27.0162 53.5674 26.5926 54.4956C26.1689 55.4237 25.955 56.4336 25.966 57.4536C25.966 59.0174 26.0327 60.5812 26.0692 62.1451C26.0692 62.2095 26.0563 62.274 26.0348 62.4501C25.1747 61.4985 24.3727 60.6435 24.0437 59.4428C23.6137 57.866 23.1836 56.2807 22.1408 54.9618C20.9732 53.4839 19.4853 52.7299 17.5673 53.0285C17.3204 53.0709 17.0821 53.1537 16.862 53.2734C15.1849 54.1326 13.5679 53.2734 13.3507 51.3916C13.2282 50.3305 13.4152 49.3939 14.3871 48.7731C15.4493 48.0943 16.5223 48.264 17.5135 48.8805C18.5048 49.497 19.3692 50.1951 20.3088 50.8482C20.7539 51.1596 21.2184 51.4475 21.6721 51.7439L21.814 51.6473C21.7932 51.4171 21.7595 51.1884 21.7129 50.962C21.3904 49.7569 20.9173 48.6184 19.8702 47.8623C19.4401 47.5594 18.9198 47.4133 18.436 47.2028C17.7016 46.8809 17.1162 46.2936 16.7972 45.5585C16.4782 44.8235 16.4491 43.9951 16.7158 43.2396C17.1609 41.8562 18.952 40.8767 20.44 41.1946C21.8892 41.506 22.8654 43.1945 22.4848 44.8141C22.3599 45.3269 22.4036 45.8662 22.6095 46.3522C23.1449 47.7399 23.6438 49.1447 24.0867 50.5668C24.3018 51.2391 24.3383 51.963 24.4738 52.6612C24.5255 52.7832 24.5983 52.8951 24.6888 52.992C24.7834 52.8996 24.9038 52.8244 24.964 52.7149C25.179 52.2273 25.3575 51.7225 25.579 51.237C26.1316 50.0254 26.6541 48.7967 27.2734 47.6217C28.2818 45.7099 29.1806 43.7551 29.5999 41.6306C29.9396 39.9122 29.9762 38.1937 28.7764 36.69C28.4194 36.2475 28.2969 36.241 27.8969 36.6427C26.839 37.6975 25.7338 37.8757 24.5189 37.1862C23.9563 36.8492 23.5193 36.3377 23.2743 35.7297C23.0294 35.1217 22.99 34.4504 23.1621 33.818C23.7621 31.5259 25.6392 30.5464 28.0324 31.2768C30.5847 32.0565 32.5844 34.8104 32.6553 37.459C32.7069 39.4052 32.5478 41.302 31.8598 43.1257C31.5028 44.0709 31.0362 44.9752 30.6083 45.8925C30.3009 46.5541 29.9633 47.2028 29.6644 47.8666C29.5493 48.1591 29.4496 48.4574 29.3655 48.7602L29.4752 48.8934Z" fill="#AA5C9D"/>
</svg>
