<svg width="70" height="84" viewBox="0 0 70 84" fill="none" xmlns="http://www.w3.org/2000/svg">
<path d="M40.5635 51.2725C40.1117 51.0537 39.6747 50.8057 39.2551 50.5303C36.2891 48.299 33.3832 45.9809 30.3666 43.817C26.1765 40.8122 24.3429 36.6026 23.6201 31.6652C23.3574 29.8628 23.8465 28.8339 25.3067 27.7207C27.3258 26.1713 29.0799 24.2556 30.8485 22.3978C31.8605 21.3279 31.8532 20.6725 31.2557 19.8652C30.7473 19.1737 29.4269 18.8484 28.4824 19.4002C25.8825 20.9207 23.0201 22.0508 20.8877 24.2917C20.5673 24.6291 20.1408 25.0604 19.7432 24.5713C19.5384 24.3303 19.5505 23.67 19.7432 23.3664C20.7648 21.6146 22.3189 20.446 24.1405 19.6122C27.0873 18.2628 27.7065 17.1785 26.4608 13.9496C24.9356 9.99776 21.8346 7.58089 17.9988 6.05318C17.4843 5.88302 16.9259 5.90355 16.4254 6.11101C13.4922 7.384 11.0008 9.49579 9.26442 12.1809C8.37773 13.5255 8.16811 15.0725 8.05968 16.6387C8.00185 17.552 8.57049 18.2074 9.32224 18.67C10.5535 19.4267 11.8715 20.058 13.0111 20.9327C14.04 21.7279 14.9002 22.752 15.7579 23.7423C15.9362 23.9496 15.7748 24.4652 15.77 24.8219C15.3821 24.7423 14.8496 24.7978 14.6351 24.564C13.2786 23.0725 11.539 22.1954 9.78968 21.3038C8.68614 20.7423 7.6332 20.099 6.55858 19.4749C5.48395 18.8508 4.50089 18.911 3.84792 19.5929C3.29374 20.1592 3.13231 20.7809 3.65998 21.446C6.02849 24.4508 8.54398 27.3014 12.0281 29.0749C12.4918 29.3008 12.9002 29.626 13.2241 30.0275C13.5481 30.4289 13.7797 30.8967 13.9027 31.3978C14.9749 35.0773 16.982 38.1568 19.7577 40.8194C22.9791 43.911 26.6753 46.2484 30.6123 48.2893C34.8602 50.4821 38.6865 53.3207 42.279 56.4339C43.5385 57.5037 44.5465 58.8382 45.2311 60.3422C45.9158 61.8462 46.2604 63.4827 46.2402 65.1351C46.2522 67.6628 46.1318 70.1954 46.0739 72.7207C46.0826 72.887 46.1003 73.0527 46.1269 73.217C47.5124 71.6773 48.8111 70.2917 49.3436 68.3568C50.0423 65.805 50.7387 63.2411 52.4181 61.1086C54.3023 58.7182 56.7069 57.4941 59.8079 57.9761C60.2033 58.0438 60.5851 58.1757 60.938 58.3664C63.6462 59.7713 66.2605 58.3664 66.6099 55.3255C66.8074 53.6074 66.5063 52.0941 64.9377 51.0893C63.2221 49.9929 61.4897 50.2652 59.8778 51.2628C58.3213 52.2267 56.8804 53.3905 55.3769 54.446C54.6541 54.9496 53.9095 55.4098 53.1746 55.8917L52.9457 55.7375C52.9794 55.3652 53.0341 54.9952 53.1096 54.6291C53.63 52.6773 54.3962 50.8387 56.0877 49.6146C56.7624 49.1327 57.6225 48.8917 58.4032 48.5472C60.8729 47.4676 62.0463 44.7785 61.1982 42.1375C60.4753 39.9038 57.584 38.311 55.1745 38.8315C52.8301 39.3375 51.2567 42.0652 51.8711 44.6845C52.0715 45.5137 52.0006 46.3854 51.6687 47.1713C50.8013 49.417 49.999 51.6893 49.2833 53.9881C48.9436 55.0749 48.8761 56.246 48.6569 57.3737C48.6207 57.5664 48.44 57.7303 48.3268 57.9086C48.175 57.7616 47.963 57.6411 47.8834 57.4604C47.5317 56.6725 47.2473 55.8556 46.8907 55.0725C45.9968 53.1134 45.1535 51.1279 44.1512 49.2243C42.5248 46.1327 41.0719 42.9761 40.3948 39.5375C40.0117 37.5978 40.3177 34.6749 40.3177 34.6749C40.3177 34.6749 39.4069 34.5737 37.6456 33.1713C36.9637 32.6267 35.6385 31.2435 35.6385 31.2435C35.541 31.7517 35.4806 32.2663 35.4578 32.7833C35.3735 35.9158 35.6289 38.9978 36.742 41.9399C37.3203 43.4676 38.0745 44.9303 38.7636 46.4146C39.2599 47.4845 39.8021 48.5351 40.2888 49.6098C40.4744 50.0831 40.6352 50.5656 40.7707 51.0556L40.5635 51.2725Z" fill="#9AC552"/>
</svg>
