<svg width="70" height="84" viewBox="0 0 70 84" fill="none" xmlns="http://www.w3.org/2000/svg">
<path d="M40.5635 51.2725C40.1118 51.0537 39.6748 50.8057 39.2552 50.5303C36.2891 48.299 33.3833 45.9809 30.3666 43.817C26.1766 40.8122 24.343 36.6026 23.6201 31.6652C23.3575 29.8628 23.8466 28.8339 25.3067 27.7207C27.3259 26.1713 29.08 24.2556 30.8485 22.3978C31.8605 21.3279 31.8533 20.6725 31.2557 19.8652C30.7473 19.1737 29.4269 18.8484 28.4824 19.4002C25.8826 20.9207 23.0202 22.0508 20.8878 24.2917C20.5673 24.6291 20.1408 25.0604 19.7433 24.5713C19.5385 24.3303 19.5505 23.67 19.7433 23.3664C20.7649 21.6146 22.319 20.446 24.1406 19.6122C27.0873 18.2628 27.7066 17.1785 26.4609 13.9496C24.9357 9.99776 21.8347 7.58089 17.9988 6.05318C17.4844 5.88302 16.926 5.90355 16.4254 6.11101C13.4923 7.384 11.0009 9.49579 9.26448 12.1809C8.37779 13.5255 8.16817 15.0725 8.05974 16.6387C8.00191 17.552 8.57055 18.2074 9.3223 18.67C10.5535 19.4267 11.8715 20.058 13.0112 20.9327C14.0401 21.7279 14.9002 22.752 15.758 23.7423C15.9363 23.9496 15.7749 24.4652 15.7701 24.8219C15.3821 24.7423 14.8496 24.7978 14.6352 24.564C13.2787 23.0725 11.539 22.1954 9.78974 21.3038C8.6862 20.7423 7.63326 20.099 6.55864 19.4749C5.48401 18.8508 4.50095 18.911 3.84798 19.5929C3.2938 20.1592 3.13237 20.7809 3.66004 21.446C6.02855 24.4508 8.54404 27.3014 12.0281 29.0749C12.4919 29.3008 12.9002 29.626 13.2242 30.0275C13.5481 30.4289 13.7798 30.8967 13.9027 31.3978C14.9749 35.0773 16.982 38.1568 19.7577 40.8194C22.9792 43.911 26.6753 46.2484 30.6124 48.2893C34.8603 50.4821 38.6865 53.3207 42.2791 56.4339C43.5385 57.5037 44.5465 58.8382 45.2312 60.3422C45.9159 61.8462 46.2604 63.4827 46.2402 65.1351C46.2523 67.6628 46.1318 70.1954 46.074 72.7207C46.0826 72.887 46.1003 73.0527 46.127 73.217C47.5124 71.6773 48.8112 70.2917 49.3436 68.3568C50.0424 65.805 50.7387 63.2411 52.4181 61.1086C54.3023 58.7182 56.707 57.4941 59.808 57.9761C60.2034 58.0438 60.5851 58.1757 60.938 58.3664C63.6463 59.7713 66.2606 58.3664 66.6099 55.3255C66.8075 53.6074 66.5063 52.0941 64.9378 51.0893C63.2222 49.9929 61.4898 50.2652 59.8779 51.2628C58.3213 52.2267 56.8805 53.3905 55.377 54.446C54.6541 54.9496 53.9096 55.4098 53.1747 55.8917L52.9458 55.7375C52.9795 55.3652 53.0342 54.9952 53.1097 54.6291C53.6301 52.6773 54.3963 50.8387 56.0878 49.6146C56.7624 49.1327 57.6226 48.8917 58.4033 48.5472C60.873 47.4676 62.0464 44.7785 61.1983 42.1375C60.4754 39.9038 57.584 38.311 55.1746 38.8315C52.8302 39.3375 51.2568 42.0652 51.8712 44.6845C52.0716 45.5137 52.0006 46.3854 51.6688 47.1713C50.8014 49.417 49.999 51.6893 49.2834 53.9881C48.9437 55.0749 48.8762 56.246 48.6569 57.3737C48.6208 57.5664 48.4401 57.7303 48.3268 57.9086C48.1751 57.7616 47.963 57.6411 47.8835 57.4604C47.5317 56.6725 47.2474 55.8556 46.8908 55.0725C45.9969 53.1134 45.1536 51.1279 44.1512 49.2243C42.5248 46.1327 41.0719 42.9761 40.3949 39.5375C40.0118 37.5978 40.3178 34.6749 40.3178 34.6749C40.3178 34.6749 39.407 34.5737 37.6457 33.1713C36.9638 32.6267 35.6386 31.2435 35.6386 31.2435C35.541 31.7517 35.4806 32.2663 35.4579 32.7833C35.3735 35.9158 35.6289 38.9978 36.7421 41.9399C37.3204 43.4676 38.0745 44.9303 38.7637 46.4146C39.26 47.4845 39.8021 48.5351 40.2888 49.6098C40.4744 50.0831 40.6353 50.5656 40.7707 51.0556L40.5635 51.2725Z" fill="#233565"/>
</svg>
