<svg width="100" height="100" viewBox="0 0 100 100" fill="none" xmlns="http://www.w3.org/2000/svg">
<path d="M48.8358 62.1623C49.135 61.9783 49.3461 61.6895 49.7039 61.5956C49.9873 61.5133 50.2903 61.5124 50.5742 61.593C50.8581 61.6736 51.1099 61.8321 51.2975 62.0482C51.4735 63.9229 52.5822 65.3229 53.8824 66.6475C55.6129 68.4155 57.6601 69.7603 59.9106 70.8586C60.2039 71.0003 60.6517 71.0849 60.6654 71.4455C60.6791 71.8061 60.2098 71.8834 59.9282 72.0379C58.2623 72.9578 56.5182 73.7728 55.04 74.9815C53.3617 76.3411 51.9161 77.9358 50.7539 79.7095C50.5741 79.9837 50.4313 80.2835 50.1517 80.4896C50.0806 80.549 49.9949 80.5908 49.9024 80.6113C49.8098 80.6319 49.7133 80.6305 49.6215 80.6074C49.5297 80.5842 49.4454 80.54 49.3761 80.4787C49.3069 80.4173 49.255 80.3408 49.2249 80.2559C48.8143 78.981 47.9364 77.982 47.0506 76.996C45.621 75.3549 43.8297 74.0254 41.8006 73.0994C41.0402 72.7409 40.3001 72.3454 39.5833 71.9146C39.0417 71.6037 39.1003 71.348 39.6498 71.0408C42.657 69.3482 45.6135 67.5986 47.6235 64.7728C48.1984 63.9615 48.4702 63.0472 48.8358 62.1623Z" fill="#233565"/>
<path d="M50.7243 38.0658C50.4016 38.3877 49.6684 38.3583 49.2245 38.0952C49.0642 37.9977 48.9117 37.8873 48.7553 37.7825C48.2391 36.009 47.1148 34.5813 45.8438 33.2291C44.3343 31.6212 42.4357 30.4916 40.5489 29.3437C40.2595 29.1689 39.9623 28.9923 39.6866 28.8083C39.1567 28.4698 39.1684 28.1423 39.7394 27.8553C40.2123 27.6044 40.7029 27.3844 41.2078 27.1967C42.4235 26.7516 43.5482 26.1117 44.5318 25.3055C46.3522 23.876 48.0201 22.3251 49.0388 20.2609C49.1307 20.077 49.1678 19.836 49.3164 19.7182C49.8561 19.2969 50.2941 19.262 50.648 19.9629C51.3058 21.2609 52.1953 22.4432 53.2779 23.4584C55.2868 25.3587 57.6582 26.8859 60.2681 27.9602C60.4734 28.0466 60.7608 28.0595 60.7628 28.3576C60.7647 28.6556 60.536 28.7697 60.3189 28.8948C59.265 29.4964 58.1681 30.0391 57.165 30.7032C55.2918 31.9413 53.5379 33.3083 52.3237 35.1903C51.7391 36.0973 51.0195 37.7696 50.7243 38.0658Z" fill="#233565"/>
<path d="M49.6918 82.7285C49.899 82.7598 50.097 82.8314 50.2731 82.9388C50.4492 83.0462 50.5995 83.187 50.7144 83.3522C51.7703 84.7412 52.9005 86.075 54.2672 87.2064C55.9855 88.604 57.9387 89.7231 60.0471 90.5179C60.2778 90.6062 60.5828 90.6448 60.5672 90.9539C60.5516 91.263 60.2661 91.3219 60.0354 91.4047C58.9821 91.7196 57.9591 92.1178 56.9773 92.595C54.3493 93.9471 52.1438 95.7225 50.6773 98.219C50.5885 98.3877 50.4824 98.5479 50.3605 98.6973C50.2589 98.8132 50.3058 99.1223 50.0477 99.0303C49.7896 98.9383 49.4748 99.0064 49.3262 98.6624C48.2312 96.1732 46.1058 94.615 43.7888 93.2113C42.8011 92.638 41.7629 92.1456 40.6857 91.7395C40.4347 91.6417 40.1933 91.5235 39.9642 91.3863C39.8497 91.3327 39.7555 91.2473 39.6943 91.1417C39.6331 91.036 39.6078 90.9153 39.622 90.7957C39.6572 90.5161 39.8918 90.4388 40.1108 90.3762C41.5496 89.9604 42.9058 89.3246 44.1251 88.4942C46.2446 87.0905 48.0024 85.3759 49.1854 83.1793C49.3047 82.9714 49.4239 82.7671 49.6918 82.7285Z" fill="#233565"/>
<path d="M50.0201 17.1368C49.8634 17.1413 49.7083 17.1063 49.5708 17.0355C49.4333 16.9646 49.3184 16.8605 49.238 16.7339C48.9603 16.3788 48.7472 15.9796 48.4793 15.6172C46.5475 13.0029 44.117 10.9388 40.9925 9.64544C40.7617 9.54977 40.533 9.44675 40.3022 9.34556C40.1814 9.30527 40.0757 9.23259 39.9983 9.13648C39.9208 9.04037 39.8749 8.92503 39.8662 8.80468C39.8662 8.52136 40.095 8.40546 40.3414 8.31348C41.6827 7.80203 43.0358 7.31083 44.252 6.56206C46.2933 5.30737 47.8497 3.6185 49.1754 1.72175C49.2145 1.66471 49.2517 1.60768 49.2927 1.55065C49.8617 0.783487 50.0866 0.76325 50.6086 1.51018C52.1729 3.74728 54.1086 5.63116 56.5664 7.00911C57.5443 7.529 58.5643 7.9756 59.6167 8.34475C59.9139 8.45697 60.129 8.61335 60.1466 8.92058C60.1642 9.22782 59.8729 9.31429 59.6284 9.42835C57.5382 10.4052 55.405 11.3159 53.7625 12.9569C52.7047 14.0111 51.6547 15.0653 50.8922 16.3439C50.679 16.7063 50.4033 17.065 50.0201 17.1368Z" fill="#233565"/>
<path d="M79.5805 33.1996C79.5687 32.3662 79.6254 31.5254 79.3615 30.7141C79.1503 30.0647 79.0252 30.0684 78.4483 30.4326C77.5235 31.014 76.493 31.2955 75.3707 31.1023C75.0191 31.0506 74.6925 30.8999 74.4338 30.67C74.1751 30.4401 73.9966 30.1418 73.9218 29.8145C73.4389 28.1219 73.8006 26.641 75.2808 25.4911C75.9718 24.9764 76.8071 24.662 77.6848 24.5862C78.5625 24.5105 79.4447 24.6766 80.2238 25.0643C81.8877 25.8885 82.6796 27.272 82.9612 28.9443C83.3522 31.1832 82.9827 33.3596 82.0656 35.4367C81.1486 37.5137 79.9441 39.4951 78.2997 41.1877C77.8886 41.6206 77.4154 41.9977 76.8939 42.3081C76.7848 42.368 76.6718 42.4214 76.5556 42.4681C76.4532 42.5238 76.3338 42.5454 76.2167 42.5294C76.0996 42.5134 75.9917 42.4607 75.9104 42.3798C75.7461 42.1958 75.9925 42.045 76.1176 41.9125C77.6491 40.2936 78.7372 38.3472 79.2872 36.2425C79.5331 35.2457 79.6318 34.2217 79.5805 33.1996Z" fill="#233565"/>
<path d="M79.6025 65.9944C79.4206 63.2484 78.31 60.6292 76.433 58.5196C76.2942 58.3614 76.1495 58.2087 76.0263 58.0413C75.9363 57.918 75.8307 57.7837 75.9754 57.6255C76.0301 57.5664 76.1034 57.5252 76.1846 57.508C76.2659 57.4908 76.3508 57.4984 76.4271 57.5298C76.678 57.6262 76.9162 57.7497 77.1369 57.8978C78.664 58.8636 79.7316 60.2213 80.6251 61.6913C81.7025 63.4648 82.5433 65.3339 82.9109 67.3687C83.3548 69.8155 83.0008 72.0655 81.0671 73.9052C80.657 74.3043 80.1653 74.6211 79.6216 74.8366C79.0779 75.052 78.4935 75.1617 77.9035 75.159C77.3136 75.1562 76.7303 75.0411 76.1889 74.8206C75.6475 74.6 75.1592 74.2786 74.7534 73.8758C73.6115 72.7719 73.3847 70.7225 74.2567 69.42C74.7338 68.708 75.559 68.4063 76.5327 68.6215C77.2366 68.7779 77.9327 68.9711 78.5017 69.4236C78.8341 69.6885 79.0785 69.5543 79.231 69.2489C79.3502 69.0179 79.4244 68.7686 79.45 68.513C79.5145 67.7808 79.5419 67.0485 79.6025 65.9944Z" fill="#233565"/>
<path d="M22.1103 75.0606C19.805 75.0183 18.057 73.6606 17.3707 71.4695C16.883 69.8822 16.8473 68.2023 17.2671 66.5979C18.0609 63.3692 19.5743 60.5268 22.2472 58.3191C22.5558 58.0303 22.9237 57.8037 23.3285 57.6532C23.5045 57.598 23.7567 57.5373 23.874 57.7268C23.962 57.8666 23.786 58.0027 23.6785 58.1131C22.4369 59.4745 21.6215 61.0567 20.9411 62.7124C20.2704 64.3369 20.2548 66.0037 20.3799 67.6925C20.4171 68.1966 20.4131 68.7118 20.6165 69.1993C20.769 69.558 20.9509 69.6978 21.3419 69.4366C21.907 69.0576 22.5679 68.87 23.2249 68.6897C25.0609 68.1911 26.1715 69.3851 26.3123 70.798C26.5587 73.2467 24.7148 75.1158 22.1103 75.0606Z" fill="#233565"/>
<path d="M91.6513 37.5578C90.4625 37.5486 89.8368 37.12 89.3577 36.4025C88.8533 35.6445 89.1407 34.9307 89.4125 34.2132C89.4379 34.1415 89.5259 34.0863 89.5924 34.0292C89.7019 33.9373 89.9639 33.9225 89.8544 33.7202C89.7449 33.5178 89.52 33.6282 89.3636 33.6779C88.5802 33.9336 87.8517 34.3193 87.2128 34.8166C85.6212 36.0382 84.4186 37.5762 83.267 39.1474C82.9619 39.565 82.6804 40.0139 82.1994 40.288C82.0312 40.3836 81.824 40.5032 81.6402 40.3836C81.4231 40.2438 81.5815 40.0451 81.6402 39.8759C82.4106 37.7418 83.2279 35.6243 84.4851 33.6889C85.4041 32.2741 86.5147 31.0268 88.2002 30.3774C90.3764 29.5422 92.9711 30.1658 94.1502 31.8124C95.6988 33.9722 94.6605 36.121 92.977 37.1476C92.5853 37.3996 92.1256 37.5419 91.6513 37.5578Z" fill="#233565"/>
<path d="M9.73773 30.0407C11.6793 30.1069 13.1771 30.99 14.3718 32.3569C15.5078 33.6557 16.1863 35.203 16.9137 36.7189C17.4338 37.8006 17.7799 38.9468 18.3704 39.9991C18.4388 40.1224 18.5659 40.2787 18.3704 40.4057C18.1749 40.5326 17.95 40.4535 17.7838 40.3027C17.2588 39.8318 16.7743 39.3224 16.3349 38.7794C15.1617 37.3389 13.9886 35.9223 12.4771 34.7725C11.8785 34.2775 11.1794 33.902 10.4221 33.6686C10.2852 33.6318 10.078 33.5619 9.98606 33.7385C9.89416 33.9151 10.0701 33.9851 10.1816 34.066C10.8132 34.5241 11.0361 35.1367 10.8112 35.834C10.5531 36.6398 10.1073 37.3628 9.1355 37.5449C6.82825 37.9754 4.99026 35.9959 5.00004 34.1506C5.01764 31.6946 7.48718 29.9616 9.73773 30.0407Z" fill="#233565"/>
<path d="M90.0865 69.6998C87.8047 69.6152 86.1212 68.5261 84.8972 66.7563C83.6731 64.9865 82.7913 63.0161 81.9642 61.0421C81.8117 60.6742 81.624 60.3301 81.4773 59.9659C81.403 59.7819 81.2818 59.5335 81.5047 59.414C81.7276 59.2944 81.8958 59.4636 82.0639 59.6163C83.1921 60.6834 84.1053 61.9215 85.1455 63.0584C86.0283 64.0317 87.0373 64.8969 88.1488 65.6341C88.558 65.919 89.0355 66.1047 89.539 66.1749C89.6935 66.1933 89.846 66.1878 89.9301 66.0646C90.0142 65.9413 89.8499 65.8622 89.7698 65.7831C88.9876 65.0288 88.8293 64.2874 89.2829 63.5441C89.9105 62.5194 91.027 62.0392 92.1103 62.271C94.7401 62.8322 95.3306 65.6598 94.5114 67.2107C93.5787 68.9658 92.0496 69.5968 90.0865 69.6998Z" fill="#233565"/>
<path d="M5.07227 65.5675C5.07227 63.3598 7.62589 61.6471 9.67505 62.4841C9.98058 62.6033 10.2517 62.7889 10.4661 63.0259C10.6806 63.2628 10.8322 63.5442 10.9086 63.847C10.9849 64.1497 10.9838 64.4653 10.9053 64.7676C10.8269 65.0699 10.6733 65.3503 10.4572 65.5859C10.3985 65.6521 10.3262 65.7055 10.2714 65.7699C10.1893 65.8674 9.99572 65.9318 10.1072 66.0992C10.1912 66.2243 10.3359 66.1525 10.4591 66.1415C11.3957 66.0624 12.0977 65.5896 12.7586 64.999C13.9912 63.867 15.1111 62.631 16.1041 61.3067C16.5323 60.7548 17.0231 60.2544 17.4923 59.7356C17.598 59.6184 17.7181 59.5134 17.8502 59.4228C18.0164 59.3051 18.2099 59.2389 18.3976 59.3695C18.5854 59.5001 18.4641 59.6694 18.3976 59.8294C17.7699 61.4564 17.0399 63.0469 16.2116 64.5925C15.5761 65.7607 14.884 66.905 13.8848 67.8396C12.6764 68.9673 11.2608 69.7087 9.50689 69.6793C7.10578 69.6572 5.084 67.7623 5.07227 65.5675Z" fill="#233565"/>
<path d="M22.7536 87.6333C22.7536 88.5366 21.776 89.4087 20.7475 89.4123C19.6271 89.4123 18.6807 88.5716 18.6905 87.5726C18.7208 87.0769 18.9438 86.609 19.3169 86.2579C19.6901 85.9068 20.1874 85.697 20.7142 85.6685C20.9868 85.6667 21.2569 85.7166 21.5084 85.8152C21.7599 85.9139 21.9877 86.0593 22.1781 86.2428C22.3685 86.4262 22.5177 86.6439 22.6165 86.8828C22.7154 87.1218 22.762 87.377 22.7536 87.6333Z" fill="#233565"/>
<path d="M77.0391 12.2396C77.0391 11.2057 77.9522 10.3815 79.1234 10.376C80.1871 10.376 81.0689 11.2314 81.1022 12.3022C81.1315 13.2864 80.2184 14.0646 79.0159 14.0775C78.4966 14.0747 77.999 13.8808 77.6296 13.5374C77.2602 13.194 77.0482 12.7282 77.0391 12.2396Z" fill="#233565"/>
<path d="M20.7845 14.0829C20.2358 14.0829 19.7093 13.879 19.3196 13.5154C18.93 13.1519 18.7087 12.6583 18.7041 12.142C18.7041 11.2663 19.7052 10.3759 20.679 10.374C21.7387 10.374 22.8024 11.3877 22.7868 12.3885C22.7711 13.3893 21.9831 14.0866 20.7845 14.0829Z" fill="#233565"/>
<path d="M79.1273 89.4106C78.5888 89.4009 78.075 89.1966 77.6924 88.84C77.3098 88.4834 77.0877 88.002 77.0723 87.4955C77.0723 86.6069 78.0499 85.6815 78.9943 85.6797C80.1245 85.6797 81.1061 86.5462 81.1021 87.5433C81.0852 88.0319 80.872 88.4963 80.5055 88.8428C80.139 89.1894 79.6465 89.3923 79.1273 89.4106Z" fill="#233565"/>
<path d="M22.6134 24.6228C19.7391 24.3984 17.6411 26.5877 17.1894 28.8229C16.9694 30.1826 16.9694 31.5658 17.1894 32.9255C17.4983 34.2133 17.8855 35.4827 18.5464 36.6601C19.6316 38.5955 20.8478 40.4445 22.6369 41.8923C22.9397 42.162 23.2887 42.3815 23.6693 42.5417C23.7048 42.5617 23.7442 42.5747 23.7852 42.58C23.8262 42.5853 23.8678 42.5828 23.9078 42.5727C23.9477 42.5626 23.9851 42.545 24.0177 42.5211C24.0503 42.4971 24.0774 42.4672 24.0975 42.4332C24.1952 42.2676 24.1327 42.1554 23.9782 42.045C23.8316 41.9387 23.7001 41.815 23.5871 41.6771C21.3483 38.9488 20.0246 35.9335 20.3492 32.4159C20.4145 31.8242 20.5309 31.2384 20.6972 30.6645C20.7774 30.3646 20.9514 30.0795 21.3796 30.4106C22.0796 30.9625 22.9439 31.0987 23.8081 31.1704C24.7036 31.2422 25.3723 30.8558 25.8357 30.1365C27.1204 28.1183 25.8651 24.8749 22.6134 24.6228Z" fill="#233565"/>
<path d="M53.2077 49.9816C53.1705 50.0791 53.0786 50.1159 52.9926 50.1655C52.2895 50.5213 51.6332 50.9535 51.0373 51.4533C50.7303 51.7201 50.439 52.0053 50.1437 52.2812C49.9247 52.4854 49.8895 52.491 49.6666 52.2812C49.2095 51.8312 48.7271 51.4043 48.2217 51.0026C47.814 50.681 47.3739 50.3975 46.9077 50.1563C46.6379 50.022 46.632 49.9485 46.9077 49.8105C47.5562 49.4804 48.1646 49.085 48.7222 48.6312C49.087 48.3522 49.4259 48.0445 49.7351 47.7113C49.87 47.5587 49.9775 47.555 50.1261 47.6985C50.9719 48.5144 51.9355 49.2142 52.9887 49.7774C53.0839 49.8205 53.161 49.8924 53.2077 49.9816Z" fill="#233565"/>
</svg>
