<svg id="Layer_1" data-name="Layer 1" xmlns="http://www.w3.org/2000/svg" viewBox="0 0 595.28 566.93"><defs><style>.cls-1{fill:#233565;}</style></defs><path class="cls-1" d="M291.68,349.57c1.53-1,2.62-2.57,4.45-3.08a7.62,7.62,0,0,1,8.14,2.46c.91,10.19,6.58,17.8,13.22,25,8.85,9.6,19.32,16.91,30.84,22.88,1.49.78,3.79,1.23,3.86,3.19s-2.34,2.38-3.78,3.23c-8.52,5-17.44,9.42-25,16a110.7,110.7,0,0,0-21.91,25.7c-.92,1.49-1.66,3.13-3.08,4.25a3,3,0,0,1-4.75-1.27c-2.09-6.94-6.59-12.36-11.12-17.73A79.8,79.8,0,0,0,255.7,409a123.26,123.26,0,0,1-11.34-6.44c-2.77-1.69-2.46-3.08.34-4.75,15.38-9.19,30.5-18.7,40.78-34.06C288.42,359.35,289.81,354.38,291.68,349.57Z"/><path class="cls-1" d="M301.34,218.59c-1.65,1.75-5.4,1.6-7.66.16-.83-.53-1.61-1.13-2.41-1.7-2.64-9.64-8.39-17.4-14.88-24.75-7.73-8.73-17.44-14.87-27.09-21.11-1.47-1-3-1.92-4.41-2.91-2.7-1.85-2.65-3.62.27-5.19a60.78,60.78,0,0,1,7.52-3.57,58.07,58.07,0,0,0,17-10.29c9.31-7.76,17.84-16.2,23.05-27.42.46-1,.65-2.31,1.41-2.94,2.77-2.3,5-2.49,6.81,1.33a68.36,68.36,0,0,0,13.46,19,115.74,115.74,0,0,0,35.75,24.47c1.05.47,2.52.55,2.53,2.16s-1.17,2.25-2.28,2.92c-5.38,3.27-11,6.23-16.13,9.84-9.58,6.72-18.54,14.15-24.75,24.38C306.54,207.9,302.86,217,301.34,218.59Z"/><path class="cls-1" d="M296.07,461.36a7.75,7.75,0,0,1,5.23,3.39c5.39,7.55,11.18,14.81,18.16,21A105,105,0,0,0,349,503.65c1.18.49,2.73.69,2.66,2.37s-1.54,2-2.73,2.46a100.57,100.57,0,0,0-15.64,6.46c-13.43,7.36-24.72,17-32.22,30.58a16.75,16.75,0,0,1-1.61,2.59c-.53.64-.28,2.31-1.6,1.81s-2.94-.13-3.69-1.95c-5.61-13.52-16.48-22.05-28.33-29.62a102,102,0,0,0-15.87-8,24.8,24.8,0,0,1-3.69-1.91,3.22,3.22,0,0,1-1.75-3.22c.18-1.52,1.38-1.94,2.51-2.27a69.86,69.86,0,0,0,20.52-10.24c10.84-7.62,19.84-16.95,25.89-28.88C294.09,462.66,294.7,461.57,296.07,461.36Z"/><path class="cls-1" d="M297.75,104.84a4.52,4.52,0,0,1-4-2.19c-1.41-1.94-2.51-4.11-3.88-6.08C280,82.36,267.55,71.15,251.58,64.12c-1.19-.53-2.36-1.09-3.53-1.63a3.37,3.37,0,0,1-2.24-2.94c0-1.54,1.18-2.17,2.43-2.68,6.87-2.78,13.78-5.44,20-9.52,10.45-6.81,18.41-16,25.18-26.3.21-.31.4-.63.61-.94,2.9-4.17,4.05-4.27,6.72-.22,8,12.17,17.91,22.4,30.48,29.89a108.8,108.8,0,0,0,15.59,7.27c1.53.6,2.62,1.45,2.72,3.13s-1.41,2.13-2.66,2.75c-10.69,5.31-21.59,10.27-30,19.18-5.42,5.73-10.79,11.46-14.68,18.42C301.12,102.5,299.7,104.44,297.75,104.84Z"/><path class="cls-1" d="M448.9,192.14c0-4.53.23-9.1-1.11-13.51-1.08-3.52-1.72-3.5-4.68-1.53-4.72,3.16-10,4.69-15.74,3.64a9,9,0,0,1-7.4-7c-2.48-9.2-.63-17.25,6.94-23.49a23.23,23.23,0,0,1,25.28-2.33c8.52,4.48,12.56,12,14,21.09,2,12.18.1,24-4.58,35.29s-10.85,22.07-19.27,31.26a33.81,33.81,0,0,1-7.19,6.09,17.38,17.38,0,0,1-1.72.88,2.72,2.72,0,0,1-3.31-.49c-.83-1,.42-1.82,1.07-2.53a72.26,72.26,0,0,0,16.21-30.8A59.81,59.81,0,0,0,448.9,192.14Z"/><path class="cls-1" d="M449,370.4a70,70,0,0,0-16.21-40.63c-.7-.85-1.44-1.69-2.07-2.6-.46-.66-1-1.4-.27-2.26a2,2,0,0,1,2.31-.52,17.73,17.73,0,0,1,3.64,1.95c7.8,5.26,13.26,12.63,17.83,20.62,5.52,9.64,9.81,19.8,11.7,30.87,2.26,13.3.45,25.52-9.44,35.52a22.33,22.33,0,0,1-32.28-.16c-5.84-6-7-17.14-2.55-24.21,2.44-3.87,6.67-5.52,11.65-4.34,3.6.84,7.15,1.89,10.07,4.36,1.7,1.43,2.94.7,3.72-.95a12.05,12.05,0,0,0,1.13-4C448.59,380.12,448.72,376.13,449,370.4Z"/><path class="cls-1" d="M155,419.72c-11.8-.23-20.73-7.6-24.24-19.52a51,51,0,0,1-.53-26.53c4.06-17.55,11.79-32.95,25.46-45a16.56,16.56,0,0,1,5.54-3.62c.89-.3,2.18-.63,2.79.4.44.76-.46,1.5-1,2.1-6.36,7.4-10.52,16-14,25-3.43,8.82-3.5,17.89-2.86,27.06.19,2.74.16,5.55,1.21,8.19.77,2,1.71,2.71,3.71,1.29C154,387,157.35,386,160.71,385c9.39-2.71,15.07,3.78,15.79,11.46C177.76,409.82,168.33,420,155,419.72Z"/><path class="cls-1" d="M510.66,215.83c-6.09-.05-9.29-2.37-11.74-6.28-2.58-4.12-1.11-8,.28-11.9.14-.39.59-.68.93-1,.55-.49,1.9-.58,1.33-1.68s-1.7-.5-2.51-.22a35.37,35.37,0,0,0-11,6.18c-8.15,6.65-14.29,15-20.19,23.54-1.56,2.27-3,4.72-5.46,6.2-.86.52-1.91,1.17-2.86.53-1.11-.77-.3-1.84,0-2.76,3.94-11.61,8.13-23.12,14.55-33.63,4.71-7.69,10.39-14.47,19-18,11.13-4.55,24.4-1.16,30.44,7.79,7.91,11.74,2.6,23.42-6,29A12.79,12.79,0,0,1,510.66,215.83Z"/><path class="cls-1" d="M91.72,175c9.93.36,17.6,5.16,23.71,12.6,5.8,7.06,9.27,15.46,13,23.71,2.66,5.87,4.44,12.11,7.45,17.83.35.66,1,1.51,0,2.2s-2.14.26-3-.56a71,71,0,0,1-7.41-8.28c-6-7.83-12-15.53-19.73-21.78a30.1,30.1,0,0,0-10.51-6c-.69-.21-1.76-.59-2.22.38s.42,1.33,1,1.77a8.38,8.38,0,0,1,3.22,9.61c-1.32,4.39-3.61,8.31-8.57,9.3-11.8,2.34-21.21-8.42-21.15-18.45C67.58,184,80.22,174.54,91.72,175Z"/><path class="cls-1" d="M502.65,390.54c-11.67-.46-20.28-6.37-26.53-16s-10.78-20.34-15-31.06c-.78-2-1.74-3.87-2.49-5.85-.38-1-1-2.36.14-3.05s2,.27,2.86,1.1c5.77,5.8,10.44,12.53,15.75,18.71a83.62,83.62,0,0,0,15.37,14,15.82,15.82,0,0,0,7.1,2.94c.79.11,1.58.07,2-.6s-.4-1.1-.81-1.52c-4-4.11-4.82-8.14-2.49-12.18,3.2-5.56,8.91-8.17,14.45-6.92,13.46,3.05,16.48,18.42,12.29,26.86C520.51,386.55,512.69,390,502.65,390.54Z"/><path class="cls-1" d="M67.87,368.08c-.05-12,13.06-21.31,23.53-16.76a10.68,10.68,0,0,1,4,16.87c-.3.35-.67.65-1,1-.41.53-1.4.89-.83,1.79.43.69,1.16.29,1.79.23,4.79-.43,8.38-3,11.76-6.21A144.91,144.91,0,0,0,124.25,345c2.18-3,4.7-5.73,7.09-8.55a11.32,11.32,0,0,1,1.83-1.7c.85-.64,1.85-1.05,2.81-.29s.33,1.64,0,2.5a238.49,238.49,0,0,1-11.15,25.88c-3.26,6.35-6.79,12.56-11.91,17.64-6.17,6.14-13.41,10.16-22.38,10.05C78.26,390.31,67.91,380,67.87,368.08Z"/><path class="cls-1" d="M158.3,488c0,4.91-5.05,9.66-10.27,9.68-5.72,0-10.56-4.58-10.51-10a10.94,10.94,0,0,1,10.34-10.35A10.37,10.37,0,0,1,158.3,488Z"/><path class="cls-1" d="M435.91,78.21c-.05-5.62,4.67-10.09,10.65-10.12,5.44,0,10,4.65,10.12,10.47.16,5.34-4.52,9.57-10.66,9.65A10.18,10.18,0,0,1,435.91,78.21Z"/><path class="cls-1" d="M148.23,88.24a10.66,10.66,0,0,1-10.65-10.52c0-4.76,5.13-9.6,10.11-9.61,5.42,0,10.86,5.51,10.78,11S154.36,88.25,148.23,88.24Z"/><path class="cls-1" d="M446.61,497.64a10.71,10.71,0,0,1-10.51-10.4c0-4.84,5-9.87,9.82-9.88,5.78,0,10.8,4.71,10.78,10.13A10.49,10.49,0,0,1,446.61,497.64Z"/><path class="cls-1" d="M157.57,145.52c-14.69-1.22-25.43,10.68-27.74,22.84a74.68,74.68,0,0,0,0,22.29h0c1.59,7,3.56,13.91,6.94,20.31,5.56,10.52,11.77,20.56,20.93,28.43a19.28,19.28,0,0,0,5.27,3.54,1.6,1.6,0,0,0,2.19-.59c.51-.91.18-1.52-.6-2.12a10.4,10.4,0,0,1-2-2C151.14,223.43,144.37,207,146,187.91a59.53,59.53,0,0,1,1.77-9.52c.42-1.63,1.3-3.18,3.49-1.37,3.58,2.95,8,3.74,12.43,4.12s8-1.71,10.37-5.62C180.63,164.52,174.2,146.9,157.57,145.52Z"/><path class="cls-1" d="M314.05,283.36c-.2.53-.67.73-1.1,1a52.49,52.49,0,0,0-10,7c-1.56,1.45-3.05,3-4.57,4.5-1.11,1.11-1.3,1.15-2.44,0a95,95,0,0,0-7.38-6.95,42.72,42.72,0,0,0-6.72-4.6c-1.39-.73-1.42-1.12,0-1.88a52,52,0,0,0,9.28-6.41,43,43,0,0,0,5.18-5c.68-.83,1.24-.85,2-.06a66.16,66.16,0,0,0,14.59,11.3A2.45,2.45,0,0,1,314.05,283.36Z"/></svg>