<svg id="Layer_1" data-name="Layer 1" xmlns="http://www.w3.org/2000/svg" viewBox="0 0 511.43 543.56"><defs><style>.cls-1{fill:#fff;}</style></defs><path class="cls-1" d="M249.76,337.89c1.53-1,2.61-2.57,4.44-3.08a7.62,7.62,0,0,1,8.15,2.46c.9,10.19,6.57,17.8,13.22,25,8.85,9.61,19.32,16.92,30.83,22.89,1.5.77,3.79,1.23,3.86,3.19s-2.33,2.38-3.77,3.22c-8.52,5-17.44,9.43-25,16a110.29,110.29,0,0,0-21.92,25.7c-.92,1.49-1.65,3.12-3.08,4.24a2.94,2.94,0,0,1-4.74-1.27c-2.1-6.93-6.59-12.36-11.12-17.72a79.67,79.67,0,0,0-26.85-21.18,125.64,125.64,0,0,1-11.34-6.44c-2.77-1.69-2.47-3.08.34-4.75,15.38-9.2,30.5-18.71,40.78-34.07C246.5,347.67,247.89,342.7,249.76,337.89Z"/><path class="cls-1" d="M259.42,206.91c-1.65,1.75-5.4,1.59-7.67.16-.82-.53-1.6-1.13-2.4-1.7-2.64-9.64-8.39-17.4-14.89-24.75-7.72-8.74-17.43-14.88-27.08-21.12-1.48-.95-3-1.91-4.41-2.91-2.71-1.84-2.65-3.62.27-5.18a60.71,60.71,0,0,1,7.51-3.58,57.78,57.78,0,0,0,17-10.28c9.31-7.77,17.84-16.2,23.05-27.42.47-1,.66-2.31,1.42-2.95,2.76-2.29,5-2.48,6.81,1.33a68.37,68.37,0,0,0,13.45,19,116,116,0,0,0,35.75,24.47c1.05.47,2.52.54,2.53,2.16s-1.16,2.24-2.27,2.92c-5.39,3.27-11,6.22-16.13,9.83-9.58,6.73-18.55,14.16-24.76,24.39C264.61,196.21,260.93,205.3,259.42,206.91Z"/><path class="cls-1" d="M254.14,449.68a7.71,7.71,0,0,1,5.23,3.39c5.4,7.55,11.18,14.8,18.17,20.95a104.81,104.81,0,0,0,29.56,18c1.18.48,2.74.69,2.66,2.37s-1.54,2-2.72,2.45a100.21,100.21,0,0,0-15.64,6.47c-13.44,7.35-24.72,17-32.22,30.57a15.74,15.74,0,0,1-1.62,2.6c-.52.63-.28,2.31-1.6,1.81s-2.93-.13-3.69-2c-5.6-13.53-16.47-22-28.32-29.63a103.69,103.69,0,0,0-15.87-8,23.91,23.91,0,0,1-3.69-1.92,3.19,3.19,0,0,1-1.75-3.21c.18-1.52,1.38-1.94,2.5-2.28a70.13,70.13,0,0,0,20.53-10.23c10.84-7.63,19.83-16.95,25.88-28.89C252.16,451,252.77,449.89,254.14,449.68Z"/><path class="cls-1" d="M255.82,93.15a4.5,4.5,0,0,1-4-2.19c-1.42-1.93-2.51-4.1-3.88-6.07-9.88-14.21-22.31-25.43-38.29-32.46-1.18-.52-2.35-1.08-3.53-1.63a3.36,3.36,0,0,1-2.23-2.94c0-1.54,1.17-2.17,2.43-2.67,6.86-2.78,13.78-5.45,20-9.52,10.44-6.82,18.4-16,25.18-26.31.2-.31.39-.62.6-.93,2.91-4.17,4.06-4.28,6.73-.22,8,12.16,17.9,22.4,30.47,29.89a109.37,109.37,0,0,0,15.6,7.26c1.52.61,2.62,1.46,2.71,3.13s-1.4,2.14-2.65,2.76c-10.69,5.31-21.6,10.26-30,19.18-5.41,5.73-10.78,11.46-14.68,18.41C259.19,90.81,257.78,92.76,255.82,93.15Z"/><path class="cls-1" d="M407,180.46c-.06-4.53.23-9.1-1.12-13.51-1.08-3.53-1.72-3.51-4.67-1.53-4.73,3.16-10,4.69-15.74,3.64a9,9,0,0,1-7.41-7c-2.47-9.2-.62-17.25,6.95-23.5a23.23,23.23,0,0,1,25.28-2.32c8.51,4.48,12.56,12,14,21.09,2,12.17.11,24-4.58,35.29s-10.85,22.06-19.26,31.26a34.06,34.06,0,0,1-7.19,6.09,15.54,15.54,0,0,1-1.73.87,2.69,2.69,0,0,1-3.3-.48c-.84-1,.42-1.82,1.06-2.54A72.33,72.33,0,0,0,405.5,197,60.51,60.51,0,0,0,407,180.46Z"/><path class="cls-1" d="M407.11,358.72a70.09,70.09,0,0,0-16.21-40.63c-.71-.86-1.45-1.69-2.08-2.6-.46-.67-1-1.4-.26-2.26a2,2,0,0,1,2.31-.52,17.91,17.91,0,0,1,3.63,2c7.81,5.25,13.27,12.63,17.84,20.62,5.51,9.64,9.81,19.8,11.69,30.86,2.27,13.3.46,25.53-9.43,35.53a22.35,22.35,0,0,1-32.29-.16c-5.84-6-7-17.14-2.54-24.22,2.44-3.87,6.66-5.51,11.64-4.34,3.6.85,7.16,1.9,10.07,4.36,1.7,1.44,2.95.71,3.73-.95a11.67,11.67,0,0,0,1.12-4C406.66,368.43,406.8,364.45,407.11,358.72Z"/><path class="cls-1" d="M113.08,408c-11.79-.23-20.73-7.61-24.24-19.52A51.24,51.24,0,0,1,88.31,362c4.06-17.55,11.8-33,25.47-45a16.37,16.37,0,0,1,5.53-3.62c.9-.3,2.19-.63,2.79.4.45.76-.45,1.5-1,2.1-6.35,7.4-10.52,16-14,25-3.43,8.83-3.51,17.89-2.87,27.07.19,2.74.17,5.54,1.21,8.19.78,1.95,1.71,2.71,3.71,1.29,2.89-2.06,6.27-3.08,9.63-4.06,9.39-2.71,15.07,3.78,15.79,11.46C135.83,398.14,126.4,408.3,113.08,408Z"/><path class="cls-1" d="M468.73,204.15c-6.08-.05-9.28-2.38-11.73-6.28-2.58-4.12-1.11-8,.28-11.9.13-.39.58-.69.92-1,.56-.5,1.9-.58,1.34-1.68s-1.71-.5-2.51-.23a35.53,35.53,0,0,0-11,6.19c-8.14,6.64-14.29,15-20.18,23.54-1.56,2.27-3,4.71-5.46,6.2-.86.52-1.92,1.17-2.86.52-1.11-.76-.3-1.84,0-2.76,3.94-11.6,8.12-23.11,14.55-33.63,4.7-7.69,10.38-14.47,19-18,11.13-4.54,24.4-1.15,30.43,7.8,7.92,11.74,2.61,23.42-6,29A12.82,12.82,0,0,1,468.73,204.15Z"/><path class="cls-1" d="M49.8,163.29c9.93.36,17.59,5.16,23.7,12.59,5.81,7.06,9.28,15.47,13,23.71,2.66,5.88,4.43,12.11,7.45,17.83.35.67,1,1.52,0,2.21s-2.15.26-3-.56a70.11,70.11,0,0,1-7.41-8.28c-6-7.83-12-15.53-19.73-21.78a30.13,30.13,0,0,0-10.51-6c-.7-.2-1.76-.58-2.23.38s.43,1.34,1,1.78c3.23,2.49,4.37,5.82,3.22,9.61-1.32,4.38-3.6,8.31-8.57,9.3-11.8,2.34-21.2-8.42-21.15-18.45C25.66,172.28,38.29,162.86,49.8,163.29Z"/><path class="cls-1" d="M460.73,378.86c-11.67-.46-20.28-6.38-26.54-16s-10.77-20.33-15-31.06c-.78-2-1.74-3.87-2.49-5.85-.38-1-1-2.35.14-3s2,.27,2.86,1.1c5.77,5.8,10.44,12.53,15.76,18.71a83.24,83.24,0,0,0,15.36,14,15.86,15.86,0,0,0,7.11,2.94c.79.1,1.57.07,2-.6s-.41-1.1-.82-1.53c-4-4.1-4.81-8.13-2.49-12.17,3.21-5.57,8.92-8.18,14.46-6.92,13.45,3.05,16.47,18.42,12.28,26.85C478.59,374.87,470.77,378.3,460.73,378.86Z"/><path class="cls-1" d="M25.94,356.4c0-12,13.06-21.31,23.54-16.76a10.69,10.69,0,0,1,4,16.86c-.3.36-.67.65-.95,1-.42.53-1.41.88-.84,1.79.43.68,1.17.29,1.8.23,4.79-.43,8.38-3,11.76-6.21a144.24,144.24,0,0,0,17.11-20.07c2.19-3,4.7-5.72,7.1-8.54a10.55,10.55,0,0,1,1.83-1.7c.85-.64,1.84-1,2.8-.29s.34,1.63,0,2.5A237.56,237.56,0,0,1,82.91,351.1c-3.25,6.35-6.79,12.57-11.9,17.65-6.18,6.13-13.42,10.16-22.39,10C36.34,378.63,26,368.33,25.94,356.4Z"/><path class="cls-1" d="M116.37,476.34c0,4.91-5,9.65-10.26,9.67-5.73,0-10.57-4.57-10.52-10a11,11,0,0,1,10.35-10.35A10.36,10.36,0,0,1,116.37,476.34Z"/><path class="cls-1" d="M394,66.53c0-5.62,4.67-10.1,10.66-10.13,5.44,0,9.95,4.65,10.12,10.47.15,5.35-4.52,9.58-10.67,9.65A10.17,10.17,0,0,1,394,66.53Z"/><path class="cls-1" d="M106.3,76.55A10.64,10.64,0,0,1,95.66,66c0-4.76,5.12-9.6,10.1-9.61,5.42,0,10.86,5.51,10.78,10.95S112.43,76.57,106.3,76.55Z"/><path class="cls-1" d="M404.68,486a10.72,10.72,0,0,1-10.51-10.41c0-4.83,5-9.86,9.83-9.87,5.78,0,10.8,4.71,10.78,10.13A10.5,10.5,0,0,1,404.68,486Z"/><path class="cls-1" d="M115.65,133.84c-14.7-1.22-25.43,10.68-27.74,22.83a74.09,74.09,0,0,0,0,22.3h0c1.58,7,3.56,13.9,6.94,20.3,5.55,10.52,11.77,20.57,20.92,28.44a18.93,18.93,0,0,0,5.28,3.53,1.58,1.58,0,0,0,2.19-.59c.5-.9.18-1.51-.61-2.11a11,11,0,0,1-2-2c-11.45-14.83-18.22-31.22-16.56-50.34a59.56,59.56,0,0,1,1.78-9.52c.41-1.63,1.3-3.18,3.49-1.38,3.58,3,8,3.74,12.42,4.13,4.58.39,8-1.71,10.37-5.62C138.7,152.84,132.28,135.21,115.65,133.84Z"/><path class="cls-1" d="M272.12,271.68c-.19.53-.66.73-1.1,1a52.11,52.11,0,0,0-10,7c-1.57,1.45-3.06,3-4.57,4.5-1.12,1.11-1.3,1.14-2.44,0a95.18,95.18,0,0,0-7.39-6.95,41.81,41.81,0,0,0-6.72-4.6c-1.38-.73-1.41-1.13,0-1.88a52,52,0,0,0,9.28-6.41,42.29,42.29,0,0,0,5.18-5c.69-.83,1.24-.85,2-.07A66,66,0,0,0,271,270.57,2.42,2.42,0,0,1,272.12,271.68Z"/></svg>