<svg width="60" height="77" viewBox="0 0 60 77" fill="none" xmlns="http://www.w3.org/2000/svg">
<path d="M34.7078 5.45901C35.4954 4.60343 36.2537 3.7562 37.1316 2.92149C37.3949 3.64527 37.5168 4.4123 37.4908 5.18147C37.4472 7.1356 36.7252 9.01473 35.4471 10.5007C35.3946 10.5612 35.3442 10.6238 35.2917 10.6864C34.7498 11.3124 34.7519 11.3124 34.0105 10.9869C33.5072 10.7593 32.9629 10.6351 32.4101 10.6217C30.9146 10.605 29.4192 10.6217 27.9238 10.605C27.1139 10.6117 26.3169 10.8068 25.5966 11.1747C25.5401 11.2184 25.4687 11.2387 25.3974 11.2314C25.3262 11.224 25.2606 11.1894 25.2144 11.135C23.177 9.20686 21.9189 6.08296 22.8431 3.09886C22.8601 3.0485 22.8797 2.99905 22.9019 2.9507C23.7672 3.73324 24.5507 4.5763 25.3929 5.45483C25.5504 4.53039 25.9411 3.72072 26.2792 2.89227C26.4788 2.40605 26.4893 2.41023 26.8274 2.82341C27.4159 3.50802 27.9194 4.26049 28.327 5.06461C28.7077 4.06416 29.1861 3.10314 29.7553 2.19529C29.9296 1.91149 30.0094 1.85932 30.2089 2.19529C30.7487 3.10304 31.2969 4.00244 31.6309 5.09382C32.0719 4.20068 32.6936 3.51413 33.2712 2.79837C33.5022 2.51248 33.5926 2.58969 33.706 2.87558C34.0378 3.72072 34.4453 4.54709 34.7078 5.45901Z" fill="#9AC552"/>
<path d="M30.2447 34.9118C28.932 34.893 27.7348 34.8826 26.5523 34.6509C26.2457 34.5904 26.1029 34.4902 26.1218 34.1355C26.1596 33.4677 26.1344 32.7979 26.1218 32.128C26.1218 31.8943 26.147 31.792 26.4347 31.8463C28.7955 32.2754 31.215 32.2754 33.5758 31.8463C33.8405 31.8025 33.9077 31.8609 33.9035 32.1155C33.8909 32.825 33.8825 33.5345 33.9035 34.244C33.914 34.5111 33.7943 34.5842 33.5758 34.6259C32.4812 34.8547 31.3626 34.9507 30.2447 34.9118Z" fill="#9AC552"/>
<path d="M21.0369 45.0744C21.0387 44.9875 21.0152 44.902 20.9694 44.828C20.9236 44.754 20.8574 44.6947 20.7785 44.6571C20.6819 44.6195 20.663 44.7635 20.6273 44.8386C20.3753 45.6622 20.1218 46.4872 19.867 47.3135C19.8439 47.3573 19.8166 47.4012 19.7956 47.4471C18.611 50.2267 16.7333 52.3948 14.0344 53.8222C13.0109 54.3316 11.9175 54.6888 10.7894 54.8823H8.82139C8.77526 54.8553 8.72586 54.8342 8.67437 54.8197C5.99646 54.4774 4.05366 53.1002 2.81026 50.7254C2.74725 50.6044 2.71365 50.4499 2.54772 50.3811C2.42608 50.5168 2.35233 50.6882 2.33769 50.8694C2.27258 50.8694 2.27048 50.9341 2.25158 50.9821C1.83151 51.942 1.83151 52.9311 2.02894 53.9349C2.59393 55.9152 3.94654 57.1068 5.87674 57.7057C6.34721 57.8517 6.83869 57.9331 7.38897 58.0583C7.05082 58.3818 6.75887 58.6552 6.47113 58.941C5.0009 60.4185 4.3393 62.1818 4.69215 64.2498C4.7852 64.8985 5.00869 65.5219 5.34932 66.083C5.68995 66.644 6.14075 67.1313 6.67486 67.5156C7.20641 67.9212 7.83438 68.1836 8.49794 68.2773C8.64707 68.2961 8.8781 68.3441 8.72268 68.0686C8.43493 67.5553 8.30261 66.9897 8.09258 66.4472C7.89469 65.4841 8.00257 64.4837 8.40133 63.5841C9.03143 62.4594 9.94507 61.6288 11.0078 60.9235C11.932 60.3079 12.9128 59.7924 13.8706 59.2374C16.1284 57.9331 18.0103 56.2407 19.3587 53.9996C20.2498 52.472 20.8353 50.7876 21.0831 49.0393C21.0831 49.0184 21.0705 48.9996 21.0663 48.9809C21.0663 48.9996 21.0663 49.0184 21.0831 49.0393C21.1335 48.5781 21.1986 48.1211 21.2301 47.6599C21.2868 46.7814 21.3036 45.9091 21.0369 45.0744Z" fill="#9AC552"/>
<path d="M21.1944 30.515C21.1803 29.9281 21.1099 29.344 20.9843 28.7704C20.9633 28.6389 20.9486 28.5054 20.9213 28.376C20.0665 24.5509 17.878 21.6775 14.5657 19.6115C13.0472 18.6683 11.4153 17.9129 10.0101 16.7756C8.11984 15.2335 7.35322 13.2907 8.45589 10.9013C8.55461 10.6927 8.84655 10.4214 8.66593 10.2419C8.4853 10.0625 8.15345 10.2419 7.90561 10.3358C6.18334 10.9306 5.23189 12.2014 4.76772 13.8959C4.59365 14.5771 4.54034 15.2832 4.6102 15.9826C4.82023 17.8753 5.8914 19.2902 7.29651 20.5736C6.05312 20.7822 4.91054 21.0681 3.9675 21.8256C3.02445 22.5831 2.28724 23.47 2.0226 24.6782C1.87137 25.4227 1.87137 26.1896 2.0226 26.934C2.12329 27.4073 2.32529 27.8536 2.61489 28.2425C2.7094 28.0546 2.78502 27.9002 2.86483 27.7458C3.88979 25.7842 5.49864 24.5343 7.60946 23.8936C8.71236 23.6177 9.85884 23.5582 10.9847 23.7183C11.0052 23.7421 11.0319 23.76 11.0619 23.7699C11.0919 23.7798 11.124 23.7815 11.1548 23.7747C11.7324 23.8456 12.2743 24.0647 12.8351 24.192C12.8775 24.2198 12.9217 24.2449 12.9674 24.2671C16.0402 25.417 18.1825 27.5392 19.5246 30.4857C19.9613 31.4527 20.3263 32.4501 20.6168 33.4698C20.6441 33.5679 20.6525 33.7119 20.7575 33.7349C20.9066 33.7662 20.9276 33.593 20.9969 33.5032C21.0344 33.4485 21.0601 33.3867 21.0725 33.3217C21.2856 32.4014 21.3269 31.4501 21.1944 30.515ZM21.1398 30.515C21.1398 30.4607 21.1398 30.4064 21.1398 30.3522C21.1398 30.4127 21.1524 30.4732 21.1545 30.5358C21.1524 30.5358 21.1398 30.5254 21.1398 30.5191V30.515Z" fill="#9AC552"/>
<path d="M57.9689 24.6866C57.4481 22.6937 56.1501 21.4604 54.1884 20.8907C53.7095 20.7509 53.2159 20.6591 52.6782 20.5339C53.2162 20.0541 53.7083 19.526 54.1485 18.9563C55.6628 16.9384 55.8182 14.2715 54.5013 12.3057C53.825 11.2957 52.9513 10.509 51.7121 10.2189C51.5651 10.1856 51.376 10.1376 51.292 10.2294C51.1618 10.3546 51.3403 10.4861 51.397 10.6092C52.0607 11.9885 52.2918 13.3908 51.5735 14.8224C50.9266 16.1099 49.8533 16.9822 48.6435 17.7126C47.022 18.6913 45.346 19.5907 43.8569 20.7739C41.5465 22.6269 39.8872 24.8911 39.2361 27.8105C39.1761 28.0035 39.1408 28.2034 39.1311 28.4052C39.1005 28.4294 39.0781 28.4625 39.0672 28.4999C39.0563 28.5373 39.0574 28.5771 39.0702 28.6139C39.0083 28.8484 38.9745 29.0893 38.9694 29.3317C38.945 29.3523 38.927 29.3792 38.9173 29.4095C38.9077 29.4398 38.9068 29.4721 38.9148 29.5029C38.7934 30.5124 38.7653 31.5308 38.8308 32.5454C38.898 32.9732 38.8833 33.4323 39.3097 33.7974L39.9629 31.7607L40.196 31.2244C41.4961 28.2195 43.4389 25.8093 46.5411 24.4737C47.5359 24.0612 48.581 23.7805 49.6496 23.639C50.3203 23.6045 50.9928 23.6276 51.6596 23.7079C51.7171 23.7403 51.7785 23.7656 51.8423 23.783C53.0143 23.9854 54.1195 24.4671 55.0632 25.1867C56.007 25.9063 56.7611 26.8424 57.2611 27.9148C57.2989 27.992 57.3073 28.1235 57.4145 28.1235C57.5216 28.1235 57.5699 28.0025 57.6245 27.9148C57.8434 27.5052 57.9898 27.0612 58.0572 26.6022C58.1379 25.9634 58.108 25.3155 57.9689 24.6866Z" fill="#9AC552"/>
<path d="M57.7589 51.0113C57.7595 50.9715 57.7531 50.932 57.74 50.8944C57.6392 50.7275 57.6266 50.4353 57.4312 50.4228C57.2359 50.4103 57.2212 50.6941 57.133 50.8506C56.2929 52.3886 55.1209 53.5968 53.4721 54.3042C52.779 54.6005 52.0439 54.7216 51.3214 54.8885H49.4311C49.2757 54.7758 49.0908 54.8405 48.9228 54.805C46.1879 54.2834 43.7351 52.7966 42.017 50.619C41.0996 49.4792 40.3973 48.1841 39.9439 46.796C39.8452 46.4392 39.7339 46.0823 39.6457 45.7234C39.6075 45.4205 39.5217 45.1255 39.3915 44.849H39.4041C39.3558 44.6404 39.276 44.5485 39.1185 44.7781C39.0267 44.8921 38.9666 45.0281 38.9442 45.1725C38.9347 45.1745 38.9259 45.1787 38.9185 45.1847C38.911 45.1907 38.905 45.1985 38.9011 45.2072C38.8972 45.216 38.8955 45.2255 38.896 45.2351C38.8966 45.2446 38.8994 45.2539 38.9043 45.2622C38.7446 46.4597 38.7446 47.6728 38.9043 48.8703C38.961 49.2104 39.0051 49.5526 39.0744 49.8907C39.8914 53.843 42.1094 56.8063 45.5287 58.9264C46.7427 59.6777 48.0491 60.2724 49.2232 61.0862C50.9181 62.259 52.2014 63.6718 52.0019 65.9192C51.906 66.5577 51.7237 67.1803 51.46 67.7702C51.4307 67.8138 51.4054 67.8599 51.3844 67.9079C51.3445 68.0269 51.1744 68.1312 51.2605 68.2606C51.3466 68.39 51.523 68.3086 51.6637 68.2877C52.4369 68.1667 53.15 67.8007 53.6969 67.2443C55.7468 65.2828 55.9526 62.1129 54.2072 59.709C53.7141 59.0856 53.1765 58.4984 52.5984 57.9519C55.3918 57.6598 57.3703 56.4411 58.0382 53.6302C58.1432 52.7266 58.1643 51.846 57.7589 51.0113ZM52.0523 65.9067C52.0623 65.9047 52.0716 65.9004 52.0796 65.8942C52.0805 65.8983 52.0805 65.9026 52.0796 65.9067H52.0565H52.0523Z" fill="#9AC552"/>
</svg>
