<svg width="60" height="77" viewBox="0 0 60 77" fill="none" xmlns="http://www.w3.org/2000/svg">
<path d="M34.7079 5.45901C35.4955 4.60343 36.2537 3.7562 37.1317 2.92149C37.3949 3.64527 37.5168 4.4123 37.4908 5.18147C37.4472 7.1356 36.7253 9.01473 35.4472 10.5007C35.3947 10.5612 35.3443 10.6238 35.2918 10.6864C34.7499 11.3124 34.752 11.3124 34.0106 10.9869C33.5073 10.7593 32.9629 10.6351 32.4101 10.6217C30.9147 10.605 29.4193 10.6217 27.9238 10.605C27.114 10.6117 26.3169 10.8068 25.5967 11.1747C25.5401 11.2184 25.4688 11.2387 25.3975 11.2314C25.3262 11.224 25.2606 11.1894 25.2144 11.135C23.1771 9.20686 21.919 6.08296 22.8431 3.09886C22.8602 3.0485 22.8798 2.99905 22.902 2.9507C23.7673 3.73324 24.5507 4.5763 25.3929 5.45483C25.5505 4.53039 25.9411 3.72072 26.2793 2.89227C26.4788 2.40605 26.4893 2.41023 26.8275 2.82341C27.416 3.50802 27.9195 4.26049 28.3271 5.06461C28.7078 4.06416 29.1862 3.10314 29.7553 2.19529C29.9296 1.91149 30.0095 1.85932 30.209 2.19529C30.7488 3.10304 31.297 4.00244 31.6309 5.09382C32.072 4.20068 32.6937 3.51413 33.2713 2.79837C33.5023 2.51248 33.5926 2.58969 33.706 2.87558C34.0379 3.72072 34.4453 4.54709 34.7079 5.45901Z" fill="#AA5C9D"/>
<path d="M30.2447 34.9118C28.932 34.893 27.7348 34.8826 26.5523 34.6509C26.2457 34.5904 26.1028 34.4903 26.1217 34.1355C26.1595 33.4677 26.1343 32.7979 26.1217 32.128C26.1217 31.8943 26.1469 31.7921 26.4347 31.8463C28.7955 32.2754 31.215 32.2754 33.5758 31.8463C33.8404 31.8025 33.9076 31.8609 33.9034 32.1155C33.8908 32.825 33.8824 33.5345 33.9034 34.244C33.9139 34.5111 33.7942 34.5842 33.5758 34.6259C32.4811 34.8547 31.3626 34.9507 30.2447 34.9118Z" fill="#AA5C9D"/>
<path d="M21.0369 45.0744C21.0386 44.9875 21.0152 44.902 20.9694 44.828C20.9236 44.754 20.8573 44.6946 20.7785 44.657C20.6819 44.6195 20.663 44.7635 20.6273 44.8386C20.3753 45.6622 20.1218 46.4871 19.867 47.3135C19.8439 47.3573 19.8166 47.4011 19.7956 47.4471C18.611 50.2266 16.7333 52.3948 14.0344 53.8222C13.0108 54.3316 11.9175 54.6888 10.7894 54.8822H8.82136C8.77523 54.8553 8.72583 54.8342 8.67434 54.8196C5.99643 54.4774 4.05362 53.1001 2.81023 50.7254C2.74722 50.6044 2.71362 50.4499 2.54769 50.3811C2.42605 50.5168 2.3523 50.6882 2.33766 50.8694C2.27255 50.8694 2.27045 50.9341 2.25155 50.9821C1.83148 51.942 1.83148 52.9311 2.02891 53.9348C2.5939 55.9152 3.94651 57.1067 5.87671 57.7057C6.34718 57.8517 6.83866 57.9331 7.38894 58.0583C7.05079 58.3818 6.75884 58.6551 6.4711 58.941C5.00087 60.4185 4.33927 62.1818 4.69212 64.2498C4.78517 64.8985 5.00866 65.5219 5.34929 66.083C5.68992 66.644 6.14072 67.1313 6.67483 67.5156C7.20638 67.9212 7.83435 68.1836 8.49791 68.2773C8.64704 68.296 8.87807 68.344 8.72265 68.0686C8.4349 67.5552 8.30258 66.9897 8.09255 66.4472C7.89466 65.4841 8.00254 64.4837 8.4013 63.5841C9.0314 62.4593 9.94504 61.6288 11.0078 60.9235C11.9319 60.3079 12.9128 59.7924 13.8705 59.2373C16.1284 57.9331 18.0103 56.2407 19.3587 53.9995C20.2498 52.4719 20.8353 50.7876 21.0831 49.0393C21.0831 49.0184 21.0705 48.9996 21.0663 48.9808C21.0663 48.9996 21.0663 49.0184 21.0831 49.0393C21.1335 48.5781 21.1986 48.1211 21.2301 47.6599C21.2868 46.7814 21.3036 45.9091 21.0369 45.0744Z" fill="#AA5C9D"/>
<path d="M21.1944 30.5149C21.1803 29.9281 21.11 29.344 20.9844 28.7704C20.9633 28.6389 20.9486 28.5054 20.9213 28.376C20.0665 24.5509 17.878 21.6774 14.5658 19.6115C13.0472 18.6683 11.4153 17.9129 10.0101 16.7756C8.11986 15.2335 7.35324 13.2907 8.45591 10.9013C8.55462 10.6926 8.84657 10.4214 8.66594 10.2419C8.48531 10.0624 8.15346 10.2419 7.90562 10.3358C6.18336 10.9305 5.23191 12.2014 4.76774 13.8958C4.59366 14.5771 4.54036 15.2832 4.61021 15.9826C4.82025 17.8753 5.89141 19.2902 7.29653 20.5735C6.05314 20.7822 4.91056 21.0681 3.96751 21.8256C3.02447 22.5831 2.28725 23.47 2.02261 24.6782C1.87139 25.4227 1.87139 26.1896 2.02261 26.934C2.1233 27.4073 2.3253 27.8536 2.6149 28.2424C2.70942 28.0546 2.78503 27.9002 2.86484 27.7458C3.8898 25.7842 5.49865 24.5342 7.60948 23.8936C8.71238 23.6177 9.85886 23.5581 10.9847 23.7183C11.0053 23.7421 11.0319 23.76 11.0619 23.7699C11.0919 23.7798 11.124 23.7815 11.1548 23.7747C11.7324 23.8456 12.2743 24.0647 12.8351 24.192C12.8775 24.2198 12.9217 24.2449 12.9674 24.2671C16.0402 25.4169 18.1825 27.5392 19.5246 30.4857C19.9613 31.4527 20.3263 32.45 20.6168 33.4698C20.6441 33.5679 20.6525 33.7119 20.7575 33.7348C20.9066 33.7661 20.9276 33.5929 20.997 33.5032C21.0344 33.4485 21.0601 33.3867 21.0726 33.3217C21.2856 32.4014 21.3269 31.45 21.1944 30.5149ZM21.1398 30.5149C21.1398 30.4607 21.1398 30.4064 21.1398 30.3522C21.1398 30.4127 21.1524 30.4732 21.1545 30.5358C21.1524 30.5358 21.1398 30.5254 21.1398 30.5191V30.5149Z" fill="#AA5C9D"/>
<path d="M57.969 24.6866C57.4481 22.6937 56.1501 21.4604 54.1884 20.8907C53.7095 20.7509 53.216 20.6591 52.6783 20.5339C53.2162 20.0541 53.7084 19.526 54.1485 18.9563C55.6628 16.9384 55.8183 14.2715 54.5014 12.3057C53.825 11.2957 52.9513 10.509 51.7121 10.219C51.5651 10.1856 51.3761 10.1376 51.2921 10.2294C51.1618 10.3546 51.3404 10.4861 51.3971 10.6092C52.0608 11.9885 52.2918 13.3909 51.5735 14.8224C50.9266 16.1099 49.8533 16.9822 48.6435 17.7126C47.0221 18.6913 45.346 19.5907 43.8569 20.7739C41.5465 22.6269 39.8873 24.8911 39.2362 27.8105C39.1762 28.0036 39.1409 28.2034 39.1312 28.4052C39.1005 28.4294 39.0782 28.4625 39.0673 28.4999C39.0563 28.5373 39.0574 28.5771 39.0703 28.6139C39.0084 28.8484 38.9745 29.0894 38.9694 29.3317C38.9451 29.3523 38.927 29.3792 38.9174 29.4095C38.9077 29.4398 38.9068 29.4721 38.9148 29.5029C38.7934 30.5124 38.7653 31.5308 38.8308 32.5454C38.898 32.9732 38.8833 33.4323 39.3097 33.7975L39.9629 31.7608L40.196 31.2245C41.4961 28.2195 43.4389 25.8093 46.5411 24.4737C47.5359 24.0612 48.5811 23.7805 49.6496 23.639C50.3204 23.6045 50.9928 23.6276 51.6596 23.7079C51.7172 23.7403 51.7785 23.7656 51.8423 23.783C53.0144 23.9855 54.1196 24.4671 55.0633 25.1867C56.007 25.9063 56.7612 26.8424 57.2612 27.9148C57.299 27.992 57.3074 28.1235 57.4145 28.1235C57.5216 28.1235 57.5699 28.0025 57.6245 27.9148C57.8434 27.5052 57.9898 27.0612 58.0572 26.6022C58.1379 25.9634 58.1081 25.3155 57.969 24.6866Z" fill="#AA5C9D"/>
<path d="M57.759 51.0113C57.7595 50.9715 57.7531 50.932 57.74 50.8944C57.6392 50.7275 57.6266 50.4353 57.4313 50.4228C57.236 50.4103 57.2213 50.6941 57.1331 50.8506C56.2929 52.3885 55.1209 53.5968 53.4722 54.3042C52.7791 54.6005 52.044 54.7216 51.3215 54.8885H49.4312C49.2757 54.7758 49.0909 54.8405 48.9229 54.805C46.1879 54.2834 43.7351 52.7966 42.017 50.619C41.0997 49.4792 40.3974 48.1841 39.944 46.796C39.8453 46.4391 39.734 46.0823 39.6457 45.7234C39.6075 45.4205 39.5218 45.1255 39.3916 44.849H39.4042C39.3559 44.6403 39.2761 44.5485 39.1186 44.7781C39.0267 44.8921 38.9666 45.0281 38.9442 45.1725C38.9348 45.1745 38.926 45.1787 38.9185 45.1847C38.911 45.1907 38.9051 45.1984 38.9012 45.2072C38.8973 45.216 38.8956 45.2255 38.8961 45.2351C38.8966 45.2446 38.8995 45.2539 38.9043 45.2622C38.7447 46.4597 38.7447 47.6728 38.9043 48.8702C38.961 49.2104 39.0051 49.5526 39.0745 49.8907C39.8915 53.843 42.1094 56.8063 45.5288 58.9264C46.7427 59.6777 48.0491 60.2724 49.2232 61.0862C50.9182 62.259 52.2015 63.6718 52.002 65.9192C51.9061 66.5576 51.7238 67.1803 51.4601 67.7702C51.4308 67.8138 51.4055 67.8599 51.3845 67.9079C51.3446 68.0269 51.1744 68.1312 51.2605 68.2606C51.3467 68.39 51.5231 68.3086 51.6638 68.2877C52.437 68.1667 53.1501 67.8007 53.6969 67.2443C55.7468 65.2827 55.9527 62.1129 54.2073 59.709C53.7142 59.0856 53.1765 58.4984 52.5985 57.9519C55.3919 57.6597 57.3704 56.4411 58.0383 53.6302C58.1433 52.7266 58.1643 51.846 57.759 51.0113ZM52.0524 65.9067C52.0623 65.9047 52.0717 65.9004 52.0797 65.8942C52.0806 65.8983 52.0806 65.9026 52.0797 65.9067H52.0566H52.0524Z" fill="#AA5C9D"/>
</svg>
