<svg id="Layer_1" data-name="Layer 1" xmlns="http://www.w3.org/2000/svg" viewBox="0 0 285.67 368.99"><defs><style>.cls-1{fill:#fff;}</style></defs><path class="cls-1" d="M165.25,26.16C169,22.06,172.61,18,176.79,14a29,29,0,0,1,1.71,10.83,40.62,40.62,0,0,1-9.73,25.49c-.25.29-.49.59-.74.89-2.58,3-2.57,3-6.1,1.44a19.55,19.55,0,0,0-7.62-1.75c-7.12-.08-14.24,0-21.36-.08a24.68,24.68,0,0,0-11.08,2.73,1.32,1.32,0,0,1-1.82-.19c-9.7-9.24-15.69-24.21-11.29-38.51a7.4,7.4,0,0,1,.28-.71c4.12,3.75,7.85,7.79,11.86,12,.75-4.43,2.61-8.31,4.22-12.28.95-2.33,1-2.31,2.61-.33a53.79,53.79,0,0,1,7.14,10.74,78.55,78.55,0,0,1,6.8-13.75c.83-1.36,1.21-1.61,2.16,0,2.57,4.35,5.18,8.66,6.77,13.89,2.1-4.28,5.06-7.57,7.81-11,1.1-1.37,1.53-1,2.07.37C162.06,17.83,164,21.79,165.25,26.16Z"/><path class="cls-1" d="M144,167.3c-6.25-.09-11.95-.14-17.58-1.25-1.46-.29-2.14-.77-2.05-2.47.18-3.2.06-6.41,0-9.62,0-1.12.12-1.61,1.49-1.35a94.47,94.47,0,0,0,34,0c1.26-.21,1.58.07,1.56,1.29-.06,3.4-.1,6.8,0,10.2.05,1.28-.52,1.63-1.56,1.83A65.85,65.85,0,0,1,144,167.3Z"/><path class="cls-1" d="M100.16,216h0A2.17,2.17,0,0,0,98.93,214c-.46-.18-.55.51-.72.87q-1.8,5.92-3.62,11.86h0c-.11.21-.24.42-.34.64-5.64,13.32-14.58,23.71-27.43,30.55A55.62,55.62,0,0,1,51.37,263L42,263h0a3,3,0,0,0-.7-.3c-12.75-1.64-22-8.24-27.92-19.62-.3-.58-.46-1.32-1.25-1.65a4,4,0,0,0-1,2.34c-.31,0-.32.31-.41.54-2,4.6-2,9.34-1.06,14.15h0c2.69,9.49,9.13,15.2,18.32,18.07,2.24.7,4.58,1.09,7.2,1.69-1.61,1.55-3,2.86-4.37,4.23-7,7.08-10.15,15.53-8.47,25.44a23.4,23.4,0,0,0,9.44,15.65,18.53,18.53,0,0,0,8.68,3.65c.71.09,1.81.32,1.07-1-1.37-2.46-2-5.17-3-7.77A22.75,22.75,0,0,1,40,304.7h0c3-5.39,7.35-9.37,12.41-12.75,4.4-2.95,9.07-5.42,13.63-8.08,10.75-6.25,19.71-14.36,26.13-25.1A65.66,65.66,0,0,0,100.38,235c0-.1-.06-.19-.08-.28,0,.09,0,.18.08.28.24-2.21.55-4.4.7-6.61C101.35,224.18,101.43,220,100.16,216Z"/><path class="cls-1" d="M100.91,146.23a44.29,44.29,0,0,0-1-8.36h0c-.1-.63-.17-1.27-.3-1.89-4.07-18.33-14.49-32.1-30.26-42-7.23-4.52-15-8.14-21.69-13.59-9-7.39-12.65-16.7-7.4-28.15.47-1,1.86-2.3,1-3.16s-2.44,0-3.62.45c-8.2,2.85-12.73,8.94-14.94,17.06a29,29,0,0,0-.75,10h0c1,9.07,6.1,15.85,12.79,22-5.92,1-11.36,2.37-15.85,6s-8,7.88-9.26,13.67a27.32,27.32,0,0,0,0,10.81h0a16.16,16.16,0,0,0,2.82,6.27c.45-.9.81-1.64,1.19-2.38,4.88-9.4,12.54-15.39,22.59-18.46a41.64,41.64,0,0,1,16.07-.84h0a.83.83,0,0,0,.81.27c2.75.34,5.33,1.39,8,2a5.67,5.67,0,0,0,.63.36c14.63,5.51,24.83,15.68,31.22,29.8a104.33,104.33,0,0,1,5.2,14.3c.13.47.17,1.16.67,1.27.71.15.81-.68,1.14-1.11a2.32,2.32,0,0,0,.36-.87A37,37,0,0,0,100.91,146.23Zm-.26,0q0-.39,0-.78c0,.29.06.58.07.88C100.71,146.33,100.65,146.28,100.65,146.25Z"/><path class="cls-1" d="M276,118.3h0c-2.48-9.55-8.66-15.46-18-18.19-2.28-.67-4.63-1.11-7.19-1.71a55.88,55.88,0,0,0,7-7.56c7.21-9.67,7.95-22.45,1.68-31.87-3.22-4.84-7.38-8.61-13.28-10-.7-.16-1.6-.39-2,.05-.62.6.23,1.23.5,1.82,3.16,6.61,4.26,13.33.84,20.19-3.08,6.17-8.19,10.35-13.95,13.85-7.72,4.69-15.7,9-22.79,14.67-11,8.88-18.9,19.73-22,33.72a11.52,11.52,0,0,0-.5,2.85.9.9,0,0,0-.29,1,14.78,14.78,0,0,0-.48,3.44h0a.81.81,0,0,0-.26.82,79.82,79.82,0,0,0-.4,14.58h0c.32,2.05.25,4.25,2.28,6l3.11-9.76h0l1.11-2.57c6.19-14.4,15.44-25.95,30.21-32.35a58.49,58.49,0,0,1,14.8-4,55.64,55.64,0,0,1,9.57.33,3.81,3.81,0,0,0,.87.36,35.05,35.05,0,0,1,25.8,19.8c.18.37.22,1,.73,1s.74-.58,1-1a19.38,19.38,0,0,0,2.06-6.29A27.07,27.07,0,0,0,276,118.3Z"/><path class="cls-1" d="M275,244.45h0a1.64,1.64,0,0,0-.09-.56c-.48-.8-.54-2.2-1.47-2.26s-1,1.3-1.42,2.05c-4,7.37-9.58,13.16-17.43,16.55-3.3,1.42-6.8,2-10.24,2.8h0l-9,0c-.74-.54-1.62-.23-2.42-.4a54.94,54.94,0,0,1-32.88-20.06,58,58,0,0,1-9.87-18.32c-.47-1.71-1-3.42-1.42-5.14h0v0a14,14,0,0,0-1.21-4.19h.06c-.23-1-.61-1.44-1.36-.34a4,4,0,0,0-.83,1.89.29.29,0,0,0-.19.43,65.84,65.84,0,0,0,0,17.29h0c.27,1.63.48,3.27.81,4.89,3.89,18.94,14.45,33.14,30.73,43.3,5.78,3.6,12,6.45,17.59,10.35,8.07,5.62,14.18,12.39,13.23,23.16h0a34.33,34.33,0,0,1-2.58,8.87h0a4.22,4.22,0,0,0-.36.66c-.19.57-1,1.07-.59,1.69s1.25.23,1.92.13a17.29,17.29,0,0,0,9.68-5c9.76-9.4,10.74-24.59,2.43-36.11a79.06,79.06,0,0,0-7.66-8.42c13.3-1.4,22.72-7.24,25.9-20.71C276.83,252.67,276.93,248.45,275,244.45Zm-27.17,71.38a.31.31,0,0,0,.13-.06h0a.14.14,0,0,1,0,.06h-.11Z"/></svg>