<svg width="60" height="88" viewBox="0 0 60 88" fill="none" xmlns="http://www.w3.org/2000/svg">
<path d="M39.1673 19.8133C38.5602 19.0691 37.8942 18.3643 37.3591 17.5698C36.1275 15.7356 35.075 13.7941 35.1165 11.5046C35.1317 10.6291 35.396 9.75362 35.6471 8.90437C36.3612 6.50984 37.916 4.78508 40.0429 3.53966C42.2529 2.24609 46.3757 2.29424 48.5158 5.15717C49.5443 6.52735 50.0444 7.97195 49.9221 9.6595C49.7496 11.9336 47.8585 13.8948 45.6704 14.002C44.5174 14.059 43.4867 13.7219 42.8949 12.6253C42.7067 12.2707 42.614 11.873 42.6259 11.4716C42.6378 11.0701 42.7538 10.6787 42.9626 10.3358C43.0183 10.2322 43.0923 10.1395 43.181 10.0622C43.419 9.86305 43.5413 9.93747 43.6308 10.2373C43.7328 10.6493 43.8869 11.0465 44.0894 11.4193C44.2266 11.6205 44.4283 11.7686 44.6611 11.8391C44.8938 11.9096 45.1437 11.8981 45.369 11.8067C46.9544 11.2814 47.2449 9.67044 46.7011 8.37468C45.8669 6.40478 43.1613 5.81818 41.1981 6.97167C38.9009 8.31777 37.5797 11.2923 38.4838 14.2756C39.0537 16.1558 40.139 17.7098 41.3663 19.2004C42.1189 20.063 42.7935 20.9911 43.3819 21.9736C43.8907 22.8797 44.168 23.9172 44.5108 24.8037C44.6506 24.147 44.8144 23.381 44.9847 22.6149C45.4606 20.3462 46.6732 18.2996 48.4328 16.7949C50.5881 14.9432 53.3396 14.5055 55.7483 16.1689C57.2441 17.1999 58.0849 18.6532 57.7901 20.5465C57.5018 22.4135 55.5583 23.7224 53.8594 23.2606C53.0536 23.0417 52.6125 22.5011 52.3875 21.7284C52.3769 21.6878 52.376 21.6453 52.3847 21.6043C52.3934 21.5632 52.4116 21.5248 52.4378 21.4921C52.5243 21.451 52.6224 21.4417 52.7151 21.4658C52.785 21.4789 52.8417 21.5512 52.9094 21.5906C53.8528 22.1706 54.8005 21.8094 55.1368 20.7522C55.4993 19.6031 54.6499 18.3927 53.3615 18.2242C52.418 18.1141 51.4694 18.3833 50.7235 18.9728C49.1076 20.1503 48.1686 21.8182 47.4152 23.6217C46.6094 25.5413 46.2163 27.5616 45.9193 29.6146C45.7897 30.3213 45.6168 31.0194 45.4018 31.7049C45.3712 31.8187 45.238 31.9063 45.1529 32.0048C45.057 31.9127 44.9779 31.8046 44.9192 31.6852C44.6419 30.7112 44.4126 29.7153 44.1025 28.7566C43.4474 26.7429 42.1874 25.1605 40.5758 23.8384C38.6104 22.2319 36.3437 21.4308 33.8412 21.1922C33.5423 21.1732 33.2448 21.1367 32.9502 21.0828C32.8853 21.0699 32.8238 21.0438 32.7693 21.0061C32.7148 20.9685 32.6687 20.9201 32.6336 20.8639C32.6052 20.7938 32.7122 20.6275 32.7995 20.5509C33.4705 19.9748 34.2862 19.594 35.158 19.4499C36.2326 19.2175 37.3505 19.288 38.3877 19.6535C38.6279 19.7454 38.879 19.8089 39.1258 19.8724L39.1673 19.8133Z" fill="#80CCE8"/>
<path d="M19.8718 67.0319C19.8349 66.3313 19.8349 65.6292 19.8718 64.9285C20.0313 63.3351 20.658 61.9627 21.966 60.9734C22.0818 60.8858 22.3329 60.7939 22.3897 60.8464C22.5132 60.9733 22.5816 61.1441 22.5797 61.3214C22.5535 61.7373 22.4508 62.1466 22.4115 62.5624C22.0709 66.1367 22.9596 69.3477 25.3137 72.088C26.3293 73.2525 27.5867 74.1803 28.9976 74.8065C29.3645 74.9728 29.7314 75.1414 30.0895 75.3318C30.1987 75.3909 30.262 75.5288 30.3472 75.6317C30.2271 75.6886 30.107 75.8002 29.989 75.7958C28.7793 75.7586 27.5673 75.7433 26.3619 75.6426C23.5602 75.404 20.8436 75.6995 18.2581 76.8552C17.0963 77.3739 16.0744 78.094 15.4847 79.2629C15.048 80.1274 14.9235 81.0314 15.4564 81.9178C15.5929 82.126 15.7691 82.305 15.9749 82.4447C16.1806 82.5844 16.4119 82.6819 16.6554 82.7318C16.8989 82.7816 17.1498 82.7827 17.3938 82.7351C17.6377 82.6874 17.8698 82.5919 18.0768 82.4541C18.4721 82.1696 18.6642 81.4451 18.5136 80.8366C18.4794 80.7524 18.4531 80.6652 18.435 80.5761C18.435 80.4711 18.435 80.2828 18.4655 80.2697C18.5824 80.2335 18.7084 80.2421 18.8193 80.2938C19.8413 80.8716 20.195 81.9529 19.7496 83.0932C18.9853 85.0434 16.6246 85.8642 14.727 84.7983C12.7857 83.7039 12.1065 81.931 12.2223 79.8144C12.338 77.6979 13.4779 76.1701 15.2096 75.0757C17.0128 73.8747 19.1399 73.2567 21.3044 73.305C22.0294 73.3247 22.7565 73.3378 23.5121 73.3553C22.9771 73.0095 22.4574 72.679 21.9442 72.3419C20.7956 71.5846 19.9024 70.5734 19.1054 69.4659C18.1969 68.2051 17.2492 66.9772 16.0045 66.0185C14.5392 64.8913 12.9866 64.0048 11.0474 64.1581C9.28734 64.296 7.77183 64.946 6.64503 66.3644C5.59684 67.6776 5.43306 69.6081 6.28472 70.9039C7.08396 72.1187 8.66934 72.6549 9.77867 71.9983C10.1556 71.7664 10.4715 71.4474 10.7002 71.068C11.0736 70.4552 10.7723 69.7263 10.0582 69.3367C9.89878 69.2492 9.71535 69.2076 9.5603 69.1178C9.4664 69.0631 9.34193 68.9624 9.34193 68.8749C9.34193 68.7873 9.44675 68.6735 9.53628 68.621C10.1455 68.2555 11.2833 68.343 11.8379 68.783C12.897 69.6278 13.2115 71.0571 12.611 72.3791C11.7986 74.1783 10.2831 74.9619 8.42695 75.1348C6.57078 75.3077 5.08148 74.5263 3.88044 73.1649C3.14452 72.3266 2.50469 71.4139 2.30379 70.2867C1.83429 67.6601 2.44136 65.3663 4.46349 63.5014C5.82832 62.2429 7.37876 61.3936 9.20217 61.1397C10.2122 61.02 11.2307 60.9878 12.2463 61.0434C13.3381 61.0828 14.2684 61.6585 15.1856 62.21C16.9326 63.2694 18.2013 64.8366 19.4089 66.4432C19.5443 66.6139 19.6884 66.7955 19.8718 67.0319Z" fill="#80CCE8"/>
</svg>
