<svg id="Layer_1" data-name="Layer 1" xmlns="http://www.w3.org/2000/svg" viewBox="0 0 274.76 402.05"><defs><style>.cls-1{fill:#aa5c9d;}</style></defs><path class="cls-1" d="M179.36,90.52c-2.78-3.4-5.83-6.62-8.28-10.25-5.64-8.38-10.46-17.25-10.27-27.71.07-4,1.28-8,2.43-11.88,3.27-10.94,10.39-18.82,20.13-24.51,10.12-5.91,29-5.69,38.8,7.39,4.71,6.26,7,12.86,6.44,20.57-.79,10.39-9.45,19.35-19.47,19.84-5.28.26-10-1.28-12.71-6.29a10.56,10.56,0,0,1,.31-10.46,4.45,4.45,0,0,1,1-1.25c1.09-.91,1.65-.57,2.06.8a22.77,22.77,0,0,0,2.1,5.4,4.88,4.88,0,0,0,5.86,1.77c7.26-2.4,8.59-9.76,6.1-15.68-3.82-9-16.21-11.68-25.2-6.41C178.14,38,172.09,51.59,176.23,65.22c2.61,8.59,7.58,15.69,13.2,22.5a88.18,88.18,0,0,1,9.23,12.67c2.33,4.14,3.6,8.88,5.17,12.93.64-3,1.39-6.5,2.17-10a47.91,47.91,0,0,1,15.79-26.59c9.87-8.46,22.47-10.46,33.5-2.86,6.85,4.71,10.7,11.35,9.35,20-1.32,8.53-10.22,14.51-18,12.4-3.69-1-5.71-3.47-6.74-7a1.23,1.23,0,0,1,.23-1.08,1.87,1.87,0,0,1,1.27-.12c.32.06.58.39.89.57,4.32,2.65,8.66,1,10.2-3.83,1.66-5.25-2.23-10.78-8.13-11.55a16.44,16.44,0,0,0-12.08,3.42c-7.4,5.38-11.7,13-15.15,21.24-3.69,8.77-5.49,18-6.85,27.38a80.22,80.22,0,0,1-2.37,9.55c-.14.52-.75.92-1.14,1.37a5.22,5.22,0,0,1-1.07-1.46c-1.27-4.45-2.32-9-3.74-13.38-3-9.2-8.77-16.43-16.15-22.47-9-7.34-19.38-11-30.84-12.09a35,35,0,0,1-4.08-.5,2.22,2.22,0,0,1-1.45-1c-.13-.32.36-1.08.76-1.43A22.14,22.14,0,0,1,161,88.86a27.26,27.26,0,0,1,14.79.93c1.1.42,2.25.71,3.38,1Z"/><path class="cls-1" d="M91,306.25a91,91,0,0,1,0-9.61c.73-7.28,3.6-13.55,9.59-18.07.53-.4,1.68-.82,1.94-.58a3.06,3.06,0,0,1,.87,2.17c-.12,1.9-.59,3.77-.77,5.67-1.56,16.33,2.51,31,13.29,43.52a48.48,48.48,0,0,0,16.87,12.42c1.68.76,3.36,1.53,5,2.4.5.27.79.9,1.18,1.37-.55.26-1.1.77-1.64.75-5.54-.17-11.09-.24-16.61-.7-12.83-1.09-25.27.26-37.11,5.54-5.32,2.37-10,5.66-12.7,11-2,3.95-2.57,8.08-.13,12.13a8.64,8.64,0,0,0,12,2.45c1.81-1.3,2.69-4.61,2-7.39a6.74,6.74,0,0,1-.36-1.19c0-.48,0-1.34.14-1.4a2.26,2.26,0,0,1,1.62.11c4.68,2.64,6.3,7.58,4.26,12.79-3.5,8.91-14.31,12.66-23,7.79-8.89-5-12-13.1-11.47-22.77S61.72,348,69.65,343a48.48,48.48,0,0,1,27.91-8.09c3.32.09,6.65.15,10.11.23-2.45-1.58-4.83-3.09-7.18-4.63-5.26-3.46-9.35-8.08-13-13.14-4.16-5.76-8.5-11.37-14.2-15.75-6.71-5.15-13.82-9.2-22.7-8.5-8.06.63-15,3.6-20.16,10.08-4.8,6-5.55,14.82-1.65,20.74,3.66,5.55,10.92,8,16,5A12.68,12.68,0,0,0,49,324.69c1.71-2.8.33-6.13-2.94-7.91-.73-.4-1.57-.59-2.28-1-.43-.25-1-.71-1-1.11s.48-.92.89-1.16c2.79-1.67,8-1.27,10.54.74,4.85,3.86,6.29,10.39,3.54,16.43-3.72,8.22-10.66,11.8-19.16,12.59s-15.32-2.78-20.82-9c-3.37-3.83-6.3-8-7.22-13.15-2.15-12,.63-22.48,9.89-31,6.25-5.75,13.35-9.63,21.7-10.79a81.08,81.08,0,0,1,13.94-.44c5,.18,9.26,2.81,13.46,5.33,8,4.84,13.81,12,19.34,19.34C89.5,304.34,90.16,305.17,91,306.25Z"/></svg>