<svg id="Layer_1" data-name="Layer 1" xmlns="http://www.w3.org/2000/svg" viewBox="0 0 313.83 241.73"><defs><style>.cls-1{fill:#233565;}</style></defs><path class="cls-1" d="M298.64,214.64c-10.2-.06-20.38-.93-30.59-1.13-4.8,0-66.63,0-101.46,0a5.39,5.39,0,0,0-1,0l-2.37,0c-10.7,0-18.28,0-19.84,0a4.19,4.19,0,0,0-1.45.15c-34.73.13-95.3.21-101.29.34q-13,.28-26.08.68c-1.17,0-3.22-.2-2.22,1.91a29.51,29.51,0,0,1,2.46,14.05c-.08,2.23.93,2.51,2.71,2.28,7.72-1,15.48-.56,23.23-.53,5.19,0,78-.05,107.53,0a7,7,0,0,0,1.1.09c14.07,0,133.22-.91,147.27.46,1.75.17,2-.65,2-2.14-.05-4.44,0-8.87,2-13C302.09,215,301.91,214.66,298.64,214.64Z"/><path class="cls-1" d="M20.59,128.87c.71-.7,1.6-.45,2.43-.45q26.48,0,53,0c.82,0,1.72-.25,2.42.45Z"/><path class="cls-1" d="M235.77,128.87c.7-.7,1.59-.46,2.41-.46q25.21,0,50.42,0c.73,0,1.52-.19,2.13.45Z"/><path class="cls-1" d="M303.77,147.1c.16-3.26,1.42-6.3,2.3-9.73H252.32c-7.24-.73-14.5-.46-21.76-.37l-45.82-.17a2.8,2.8,0,0,0-1.28-.2,5.86,5.86,0,0,0-.93-.09c-11.5-.07-23-.23-34.5-.12-6.27.06-12.55-.27-18.82.22h-.11a4.61,4.61,0,0,0-1.95.19l-3.28.09-38,.09a186.5,186.5,0,0,0-20.61.38l-48.08.19c-2.36-.06-4.73,0-7.08-.2s-2.77.67-2,2.71c2.06,5.46,2,11.08,1.17,16.74-.49,1.8.61,1.7,1.87,1.7,67.78.14,135.57.5,203.36.21q43.68-.18,87.36-.16c1.66,0,3.14.09,2.42-2.3C303.64,153.25,304,150.15,303.77,147.1Z"/><path class="cls-1" d="M298.69,126.21c-4.73-3.44-9.45-6.9-14.21-10.3-22.4-16-44.72-32-65.45-50.13S177,30,158.2,9.61c-1-1.1-1.55-1.15-2.61,0-8.65,9.67-18.2,18.42-27.8,27.14a1037.09,1037.09,0,0,1-88.57,71.65c-8.09,5.88-16.27,11.65-24.4,17.49-.66.46-1.81.75-1.52,1.77s1.4.81,2.22.87c1.69.13,3.36.63,5.07.31a4.49,4.49,0,0,1,2-.2H76.43a4.64,4.64,0,0,1,2,.19c10.24-1,18.42-5.48,23.82-14.7a6.43,6.43,0,0,1,.83,1c3.8,8.25,10.76,11.53,19.31,12.81,9,1.35,17.92.87,26.89,1,4.18.06,4.14,0,4.16-4.25.08-16.53-.61-33.1,2.33-49.49.26-1.45.17-3.09,1.74-4.55a148.56,148.56,0,0,1,2.68,19.05c1,12.09.51,24.2.53,36.31,0,2.21.73,3,3,3,8.41-.13,16.85.27,25.23-.67,9.31-1,17.85-3.58,22.21-13.11a7.79,7.79,0,0,1,.84-1.12,28.77,28.77,0,0,0,10,10.56c4.27,2.56,8.79,4.32,13.88,4.14a4.62,4.62,0,0,1,1.95-.2h51.06a4.46,4.46,0,0,1,2,.2c2.47.3,4.9-.24,7.35-.39.6,0,1.44.24,1.74-.57C300.19,126.92,299.27,126.63,298.69,126.21Zm-55.88-7.36c-10.92-5.07-20.13-12.57-29-20.59-3.84-3.49-7.55-7.18-12.07-9.82-5.2-3-10.76-4-16.57-2.12C174,90,173.54,102.9,177.94,109.5c2,3,5.09,4.06,8.66,3.64.44,0,1.05-.08,1.27-.36.49-.63-.23-1-.59-1.36a7.62,7.62,0,0,1-2.24-7,6.77,6.77,0,0,1,5.31-5.56,9.37,9.37,0,0,1,9.63,4.55c1.84,3.28,1.44,6.56-.42,9.66-4.19,7-14.2,9.52-21.12,5.2-5.46-3.41-9-8.27-9.75-14.83-.72-6.36-.56-12.67,2.53-18.49,2.57-4.85,6.37-8.15,12.19-8.43a4.46,4.46,0,0,0,1.06-.27c.08,0,.12-.14.35-.42-9.82-8.51-19.75-16.93-28.23-27-8.16,10.53-18.47,18.8-28.31,27.73a5.83,5.83,0,0,0,1,.43c9.21,1.22,14.19,5.68,15.3,15.16.69,5.9,1.43,12.12-1.41,17.84-3,6.1-7.89,9.88-14.77,10.33-6.69.43-11.59-2.84-14.78-8.58-1.73-3.12-1.74-6.41.64-9.26a9.23,9.23,0,0,1,9.89-3.38c5.14,1.35,6.44,7.63,2.62,11.89-.4.45-1.32.68-1,1.5s1.11.57,1.76.65c4.42.5,7.68-1.36,9.43-5.59,2.4-5.83,2.12-11.55-1.93-16.51-4.55-5.56-10.74-6.48-17.47-5.08-3.92.82-7,3.12-10.06,5.54-7.39,5.89-14,12.7-21.68,18.25-7.52,5.45-15.23,10.47-24.67,12a45.13,45.13,0,0,1-7.52.24c-.27-1,.41-1.27,1-1.59,15.1-8.57,28.55-19.41,42-30.34,13.78-11.23,27.51-22.51,40.61-34.53,5.85-5.37,11.74-10.7,17.46-16.21,1.61-1.55,2.42-1.81,4.18-.11a883.12,883.12,0,0,0,80.63,68.36,178.58,178.58,0,0,0,18.87,12.49c.63.36,1.44.56,1.86,1.87A33.38,33.38,0,0,1,242.81,118.85Z"/></svg>