<svg width="60" height="46" viewBox="0 0 60 46" fill="none" xmlns="http://www.w3.org/2000/svg">
<path d="M57.0959 40.8449C55.1458 40.8335 53.1995 40.668 51.2475 40.6299C50.3298 40.6299 38.5088 40.6299 31.8497 40.6299C31.7861 40.624 31.7221 40.624 31.6585 40.6299H31.2054C29.1597 40.6299 27.7105 40.6299 27.4123 40.6299C27.3189 40.6232 27.2251 40.6329 27.1351 40.6585C20.4952 40.6832 8.91502 40.6984 7.76981 40.7232C6.11286 40.7587 4.45082 40.8018 2.78367 40.8526C2.55998 40.8526 2.16805 40.8145 2.35924 41.216C2.7333 42.0555 2.89479 42.9736 2.82956 43.8897C2.81426 44.314 3.00736 44.3673 3.34767 44.3235C4.82363 44.1332 6.30724 44.217 7.78893 44.2227C8.78119 44.2227 22.7015 44.2132 28.3472 44.2227C28.4167 44.2339 28.4871 44.2396 28.5575 44.2398C31.2475 44.2398 54.0273 44.0666 56.7135 44.3273C57.0481 44.3597 57.0959 44.2037 57.0959 43.9201C57.0863 43.0752 57.0959 42.2322 57.4783 41.4463C57.7555 40.9135 57.7211 40.8488 57.0959 40.8449Z" fill="#233565"/>
<path d="M3.93652 24.5233C4.07227 24.3901 4.24242 24.4377 4.40111 24.4377C7.77618 24.4377 11.1538 24.4377 14.534 24.4377C14.6908 24.4377 14.8628 24.3901 14.9967 24.5233H3.93652Z" fill="#233565"/>
<path d="M45.076 24.5233C45.2098 24.3901 45.38 24.4358 45.5368 24.4358C48.75 24.4358 51.9632 24.4358 55.1764 24.4358C55.3159 24.4358 55.467 24.3996 55.5836 24.5214L45.076 24.5233Z" fill="#233565"/>
<path d="M58.0767 27.9925C58.1073 27.3721 58.3482 26.7936 58.5164 26.1409H48.2401C46.8559 26.002 45.4679 26.0534 44.0799 26.0705L35.3198 26.0382C35.2423 26.0066 35.1585 25.9936 35.075 26.0001C35.0163 25.9897 34.9569 25.984 34.8972 25.983C32.6986 25.9697 30.5 25.9392 28.3013 25.9602C27.1026 25.9716 25.9019 25.9088 24.7032 26.002H24.6822C24.5567 25.9873 24.4296 25.9997 24.3093 26.0382L23.6823 26.0553L16.4172 26.0724C15.1034 26.0242 13.7879 26.0484 12.4768 26.1447L3.28458 26.1809C2.83338 26.1695 2.38027 26.1809 1.93098 26.1428C1.48169 26.1048 1.4014 26.2703 1.54861 26.6585C1.94245 27.6976 1.93098 28.767 1.7723 29.8441C1.67862 30.1866 1.88892 30.1676 2.12982 30.1676C15.0884 30.1942 28.0489 30.2627 41.0095 30.2075C46.5768 30.1847 52.1442 30.1746 57.7115 30.1771C58.0289 30.1771 58.3118 30.1942 58.1742 29.7394C58.0518 29.1628 58.1206 28.5729 58.0767 27.9925Z" fill="#233565"/>
<path d="M57.1054 24.0172C56.2011 23.3626 55.2987 22.7042 54.3887 22.0572C50.1061 19.0124 45.8388 15.9677 41.8755 12.5177C37.9122 9.06761 33.84 5.70891 30.2457 1.82879C30.0545 1.61947 29.9493 1.60995 29.7467 1.82879C28.0929 3.66895 26.2671 5.33403 24.4317 6.9934C19.0425 11.8436 13.3895 16.3954 7.49833 20.628C5.95163 21.747 4.38772 22.845 2.83338 23.9563C2.7072 24.0438 2.48733 24.099 2.54278 24.2931C2.59822 24.4872 2.81044 24.4473 2.96721 24.4587C3.29032 24.4834 3.6096 24.5786 3.93652 24.5177C4.05946 24.4764 4.19019 24.4634 4.3189 24.4796H14.6124C14.7409 24.4637 14.8715 24.4761 14.9947 24.5158C16.9525 24.3255 18.5164 23.4729 19.5488 21.7184C19.608 21.7764 19.6612 21.8401 19.7075 21.9087C20.434 23.4787 21.7646 24.1028 23.3993 24.3464C25.12 24.6033 26.8253 24.512 28.5403 24.5367C29.3394 24.5481 29.3318 24.5367 29.3356 23.7279C29.3509 20.5824 29.219 17.4292 29.7811 14.3102C29.8308 14.0343 29.8136 13.7222 30.1138 13.4444C30.3631 14.6405 30.5342 15.8514 30.6261 17.0695C30.8173 19.3702 30.7236 21.6747 30.7275 23.9791C30.7275 24.3997 30.867 24.55 31.301 24.55C32.9089 24.5253 34.5225 24.6014 36.1247 24.4225C37.9046 24.2322 39.5373 23.7413 40.3709 21.9277C40.4179 21.8521 40.4716 21.7807 40.5315 21.7146C40.9854 22.5364 41.6437 23.2283 42.4434 23.7241C43.2597 24.2113 44.1239 24.5462 45.097 24.512C45.2171 24.4729 45.3443 24.4599 45.4698 24.4739H55.2318C55.3605 24.4575 55.4913 24.4705 55.6142 24.512C56.0864 24.569 56.551 24.4663 57.0194 24.4377C57.1341 24.4377 57.2947 24.4834 57.3521 24.3293C57.3922 24.1523 57.2163 24.0971 57.1054 24.0172ZM46.4219 22.6166C44.3342 21.6518 42.5734 20.2246 40.8775 18.6984C40.1434 18.0343 39.4341 17.3321 38.5699 16.8297C37.5758 16.2589 36.5128 16.0686 35.402 16.4263C33.2664 17.1266 33.1785 19.5814 34.0197 20.8374C34.4021 21.4082 34.9928 21.61 35.6754 21.53C35.7595 21.53 35.8761 21.5148 35.9182 21.4615C36.0119 21.3416 35.8742 21.2712 35.8054 21.2027C35.6269 21.0346 35.4941 20.8244 35.4192 20.5915C35.3443 20.3586 35.3299 20.1106 35.3771 19.8707C35.4186 19.6126 35.5379 19.3733 35.7192 19.1843C35.9005 18.9953 36.1353 18.8657 36.3923 18.8126C36.7512 18.7538 37.1196 18.8052 37.4485 18.9598C37.7774 19.1145 38.0512 19.3652 38.2334 19.6785C38.5852 20.3026 38.5087 20.9268 38.1531 21.5167C37.3521 22.8488 35.4383 23.3283 34.1153 22.5062C33.0714 21.8573 32.3946 20.9325 32.2512 19.6842C32.1136 18.4739 32.1442 17.2731 32.7349 16.1656C33.2263 15.2427 33.9528 14.6147 35.0655 14.5614C35.1349 14.5526 35.203 14.5354 35.2681 14.5101C35.2834 14.5101 35.2911 14.4834 35.3351 14.4301C33.4576 12.8107 31.5591 11.2084 29.9379 9.29216C28.3778 11.296 26.4067 12.8697 24.5254 14.569C24.5864 14.6022 24.6504 14.6296 24.7166 14.6509C26.4774 14.883 27.4295 15.7317 27.6417 17.5357C27.7736 18.6585 27.9151 19.8421 27.3721 20.9306C26.7986 22.0914 25.8637 22.8107 24.5483 22.8964C23.2693 22.9782 22.3325 22.3559 21.7226 21.2636C21.3918 20.6699 21.3899 20.0438 21.8449 19.5015C22.0579 19.2166 22.3525 19.0027 22.6901 18.8878C23.0276 18.773 23.3922 18.7627 23.7358 18.8583C24.7185 19.1152 24.967 20.3102 24.2367 21.1209C24.1602 21.2065 23.9843 21.2503 24.0455 21.4063C24.1067 21.5624 24.2577 21.5148 24.382 21.53C25.227 21.6252 25.8503 21.2712 26.1849 20.4663C26.6437 19.3569 26.5902 18.2684 25.8159 17.3245C24.946 16.2665 23.7625 16.0914 22.4759 16.3578C21.7264 16.5139 21.1376 16.9515 20.5525 17.412C19.1397 18.5329 17.8759 19.8288 16.4076 20.8849C14.9699 21.922 13.4958 22.8773 11.691 23.1685C11.2139 23.2235 10.733 23.2388 10.2533 23.2141C10.2017 23.0238 10.3317 22.9725 10.4445 22.9116C13.3314 21.2807 15.9029 19.2179 18.4743 17.138C21.1089 15.001 23.7339 12.8545 26.2384 10.5671C27.3568 9.54526 28.4829 8.53098 29.5765 7.48246C29.8843 7.1875 30.0392 7.13802 30.3757 7.46152C35.2486 12.1002 40.3962 16.4442 45.791 20.4701C46.9419 21.3375 48.1469 22.1313 49.3987 22.8469C49.5192 22.9154 49.674 22.9534 49.7543 23.2027C48.6108 23.3094 47.4595 23.1069 46.4219 22.6166Z" fill="#233565"/>
</svg>
