<svg width="60" height="46" viewBox="0 0 60 46" fill="none" xmlns="http://www.w3.org/2000/svg">
<path d="M58.0844 38.6547C57.3116 37.1609 57.0633 35.4527 57.3789 33.8022C57.4936 33.1514 57.7746 32.5557 58.027 31.9373C57.7779 31.8682 57.5161 31.8578 57.2623 31.9068C57.008 31.9068 56.7556 31.8916 56.4975 31.8916C49.5708 31.8916 32.2933 31.8916 25.3686 31.8916C21.1185 31.8916 6.71068 31.9011 2.46252 31.9068C1.98073 31.9753 2.24457 32.2665 2.32869 32.4435C2.73191 33.2438 2.9606 34.1199 2.99976 35.0144C3.01588 36.2567 2.73059 37.4846 2.1681 38.5938C1.93485 39.0905 2.11074 39.1647 2.54091 39.1114C3.62302 38.9877 14.8667 39.0486 15.9507 39.0163C16.943 38.9858 17.9371 39.0448 18.9256 38.9192H25.8312C26.4889 39.0467 27.1523 38.9972 27.8157 38.9972H32.0218C32.5769 39.0522 33.137 39.0279 33.6852 38.9249H40.262C40.3654 38.9534 40.4708 38.9738 40.5774 38.9858C42.8717 39.081 55.5091 38.9382 57.7957 39.1247C58.2297 39.1571 58.2507 38.9801 58.0844 38.6547ZM30.3222 37.7375C30.2323 37.9068 30.1635 38.1733 29.9761 38.1752C29.7391 38.1752 29.6817 37.8859 29.6052 37.7013C29.2056 36.8113 29.1253 35.8117 29.3777 34.8697C29.4791 34.5101 29.5823 34.1485 29.7104 33.7965C29.7525 33.6785 29.7735 33.4825 29.957 33.4901C30.0966 33.4901 30.1482 33.648 30.1865 33.7622C30.4771 34.4929 30.7696 35.2256 30.7275 36.0629C30.7488 36.6475 30.6086 37.2267 30.3222 37.7375ZM16.0788 34.5386C16.6944 33.8574 17.5376 33.7108 18.3845 33.6366C19.9709 33.4787 21.5685 33.7954 22.973 34.5462C23.3968 34.7847 23.8456 34.9761 24.3113 35.1171C25.3915 35.4197 25.944 35.2636 27.1791 34.3978C27.2105 34.6475 27.1871 34.901 27.1106 35.1409C27.034 35.3807 26.906 35.6011 26.7355 35.787C25.9364 36.7384 24.579 37.0581 23.2254 36.5481C22.4855 36.2722 21.7743 35.9221 21.0573 35.5967C20.3407 35.2319 19.5401 35.0618 18.7363 35.1038C18.4841 35.1196 18.2397 35.1974 18.0251 35.3302C17.9067 35.3983 17.8127 35.5015 17.7562 35.6253C17.6996 35.7492 17.6833 35.8875 17.7096 36.021C17.7142 36.1571 17.7696 36.2866 17.8651 36.3841C17.9606 36.4817 18.0893 36.5401 18.2258 36.5481C18.4533 36.571 18.6197 36.6718 18.3692 36.8678C17.8893 37.2484 17.3521 37.4958 16.7174 37.3341C15.4575 37.0163 15.1363 35.5852 16.0788 34.5386ZM42.6212 37.3683C42.267 37.2934 41.9332 37.1435 41.6423 36.9287C41.5942 36.9028 41.5547 36.8634 41.5289 36.8154C41.503 36.7673 41.492 36.7128 41.497 36.6585C41.5162 36.531 41.6213 36.5519 41.7054 36.55C41.7735 36.5547 41.8418 36.5457 41.9064 36.5237C41.9709 36.5017 42.0304 36.4671 42.0814 36.4219C42.1323 36.3767 42.1737 36.3218 42.203 36.2605C42.2323 36.1992 42.2491 36.1326 42.2522 36.0648C42.2732 35.9111 42.2434 35.7548 42.1671 35.6195C42.0909 35.4842 41.9724 35.3773 41.8297 35.315C41.2561 34.9915 40.6405 35.0695 40.0364 35.1856C39.0671 35.3759 38.2258 35.8745 37.3483 36.2874C36.6216 36.6625 35.8024 36.823 34.9871 36.7498C33.8094 36.6147 32.7789 35.532 32.8363 34.335C34.0369 35.6252 35.3217 35.3873 36.6409 34.7422C37.6121 34.2665 38.5891 33.7908 39.6846 33.6804C40.7304 33.57 41.7743 33.5586 42.799 33.8574C43.6651 34.1105 44.1545 34.7175 44.3687 35.5548C44.6325 36.5557 43.6594 37.5529 42.6212 37.3683Z" fill="#CE433A"/>
</svg>
