<svg width="60" height="46" viewBox="0 0 60 46" fill="none" xmlns="http://www.w3.org/2000/svg">
<path d="M58.0843 38.6547C57.3115 37.1609 57.0632 35.4527 57.3788 33.8022C57.4935 33.1514 57.7746 32.5557 58.0269 31.9373C57.7778 31.8682 57.516 31.8578 57.2622 31.9068C57.0079 31.9068 56.7556 31.8916 56.4975 31.8916C49.5708 31.8916 32.2933 31.8916 25.3685 31.8916C21.1184 31.8916 6.71062 31.9011 2.46246 31.9068C1.98067 31.9753 2.24451 32.2665 2.32863 32.4435C2.73185 33.2438 2.96054 34.1199 2.99969 35.0144C3.01582 36.2567 2.73053 37.4846 2.16803 38.5938C1.93479 39.0905 2.11068 39.1647 2.54085 39.1114C3.62296 38.9877 14.8666 39.0486 15.9507 39.0163C16.9429 38.9858 17.9371 39.0448 18.9255 38.9192H25.8312C26.4888 39.0467 27.1523 38.9972 27.8157 38.9972H32.0218C32.5768 39.0522 33.137 39.0279 33.6851 38.9249H40.2619C40.3653 38.9534 40.4708 38.9738 40.5774 38.9858C42.8716 39.081 55.509 38.9382 57.7956 39.1247C58.2296 39.1571 58.2506 38.9801 58.0843 38.6547ZM30.3221 37.7375C30.2323 37.9068 30.1634 38.1733 29.9761 38.1752C29.739 38.1752 29.6817 37.8859 29.6052 37.7013C29.2056 36.8113 29.1252 35.8117 29.3777 34.8697C29.479 34.5101 29.5822 34.1485 29.7103 33.7965C29.7524 33.6785 29.7734 33.4825 29.957 33.4901C30.0965 33.4901 30.1482 33.648 30.1864 33.7622C30.477 34.4929 30.7695 35.2256 30.7274 36.0629C30.7487 36.6475 30.6085 37.2267 30.3221 37.7375ZM16.0788 34.5386C16.6944 33.8574 17.5375 33.7108 18.3845 33.6366C19.9708 33.4787 21.5684 33.7954 22.9729 34.5462C23.3967 34.7847 23.8455 34.9761 24.3112 35.1171C25.3914 35.4197 25.944 35.2636 27.179 34.3978C27.2105 34.6475 27.1871 34.901 27.1105 35.1409C27.0339 35.3807 26.906 35.6011 26.7355 35.787C25.9363 36.7384 24.5789 37.0581 23.2253 36.5481C22.4854 36.2722 21.7742 35.9221 21.0572 35.5967C20.3407 35.2319 19.54 35.0618 18.7362 35.1038C18.484 35.1196 18.2397 35.1974 18.025 35.3302C17.9067 35.3983 17.8127 35.5015 17.7561 35.6253C17.6995 35.7492 17.6833 35.8875 17.7096 36.021C17.7141 36.1571 17.7696 36.2866 17.865 36.3841C17.9605 36.4817 18.0892 36.5401 18.2258 36.5481C18.4533 36.571 18.6196 36.6718 18.3692 36.8678C17.8893 37.2484 17.3521 37.4958 16.7173 37.3341C15.4574 37.0163 15.1362 35.5852 16.0788 34.5386ZM42.6211 37.3683C42.267 37.2934 41.9331 37.1435 41.6423 36.9287C41.5941 36.9028 41.5546 36.8634 41.5288 36.8154C41.503 36.7673 41.4919 36.7128 41.497 36.6585C41.5161 36.531 41.6212 36.5519 41.7054 36.55C41.7734 36.5547 41.8418 36.5457 41.9063 36.5237C41.9709 36.5017 42.0304 36.4671 42.0813 36.4219C42.1322 36.3767 42.1736 36.3218 42.2029 36.2605C42.2323 36.1992 42.249 36.1326 42.2522 36.0648C42.2732 35.9111 42.2433 35.7548 42.1671 35.6195C42.0908 35.4842 41.9724 35.3773 41.8296 35.315C41.2561 34.9915 40.6405 35.0695 40.0363 35.1856C39.067 35.3759 38.2258 35.8745 37.3482 36.2874C36.6216 36.6625 35.8023 36.823 34.9871 36.7498C33.8094 36.6147 32.7789 35.532 32.8362 34.335C34.0369 35.6252 35.3217 35.3873 36.6408 34.7422C37.6121 34.2665 38.589 33.7908 39.6845 33.6804C40.7303 33.57 41.7742 33.5586 42.799 33.8574C43.665 34.1105 44.1545 34.7175 44.3686 35.5548C44.6324 36.5557 43.6593 37.5529 42.6211 37.3683Z" fill="white"/>
</svg>
