<svg id="Layer_1" data-name="Layer 1" xmlns="http://www.w3.org/2000/svg" viewBox="0 0 566.93 566.93"><defs><style>.cls-1{fill:#fff;}</style></defs><path class="cls-1" d="M425.2,377.24c-10.21-.06-20.39-.93-30.6-1.13-4.8,0-66.62,0-101.45,0a5.56,5.56,0,0,0-1,0l-2.37,0c-10.7,0-18.28,0-19.84,0a4.19,4.19,0,0,0-1.45.15c-34.73.13-95.3.21-101.29.34q-13,.29-26.08.68c-1.17,0-3.22-.2-2.22,1.91a29.39,29.39,0,0,1,2.46,14c-.08,2.23.93,2.51,2.71,2.28,7.72-1,15.48-.56,23.23-.53,5.19,0,78,0,107.53,0A7.12,7.12,0,0,0,276,395c14.06,0,133.22-.91,147.26.46,1.75.17,2.05-.65,2-2.14,0-4.44,0-8.87,2-13C428.64,377.56,428.46,377.26,425.2,377.24Z"/><path class="cls-1" d="M147.14,291.47c.71-.7,1.61-.45,2.43-.45q26.48,0,53,0c.82,0,1.72-.25,2.42.45Z"/><path class="cls-1" d="M362.32,291.47c.7-.7,1.6-.46,2.42-.46q25.2,0,50.41,0c.73,0,1.53-.19,2.13.45Z"/><path class="cls-1" d="M430.32,309.7c.16-3.26,1.42-6.3,2.31-9.73H378.88c-7.25-.73-14.51-.46-21.77-.37l-45.81-.18a3,3,0,0,0-1.28-.19,6.1,6.1,0,0,0-.94-.09c-11.5-.07-23-.24-34.5-.12-6.27.06-12.55-.27-18.82.22h-.11a4.77,4.77,0,0,0-2,.18l-3.28.1-38,.09a186.63,186.63,0,0,0-20.62.38l-48.08.19c-2.36-.06-4.73,0-7.08-.2s-2.77.67-2,2.71c2.06,5.45,2,11.08,1.17,16.74-.49,1.8.61,1.7,1.87,1.7,67.79.14,135.57.5,203.36.21q43.68-.18,87.36-.16c1.66,0,3.14.09,2.42-2.3C430.19,315.84,430.56,312.75,430.32,309.7Z"/><path class="cls-1" d="M425.25,288.81c-4.73-3.44-9.46-6.9-14.22-10.3-22.4-15.95-44.72-32-65.45-50.13s-42.07-35.8-60.82-56.17c-1-1.1-1.56-1.15-2.62,0-8.65,9.67-18.2,18.42-27.8,27.14A1037,1037,0,0,1,165.78,271c-8.1,5.88-16.28,11.65-24.41,17.49-.65.46-1.81.75-1.52,1.77s1.4.81,2.22.87c1.69.13,3.36.63,5.07.31a4.49,4.49,0,0,1,2-.2H203a4.64,4.64,0,0,1,2,.19c10.24-1,18.42-5.48,23.82-14.7a6,6,0,0,1,.83,1.05c3.8,8.25,10.76,11.53,19.31,12.81,9,1.35,17.92.87,26.89,1,4.18.06,4.14,0,4.16-4.25.08-16.53-.61-33.1,2.33-49.49.26-1.45.17-3.09,1.74-4.55a146.82,146.82,0,0,1,2.68,19c1,12.09.51,24.2.54,36.31,0,2.21.72,3,3,3,8.42-.13,16.85.27,25.23-.67,9.31-1,17.85-3.58,22.21-13.11a7.79,7.79,0,0,1,.84-1.12,28.77,28.77,0,0,0,10,10.56c4.27,2.56,8.79,4.32,13.88,4.14a4.32,4.32,0,0,1,1.95-.2h51.06a4.32,4.32,0,0,1,1.95.2c2.47.3,4.9-.24,7.35-.39.6,0,1.44.24,1.74-.57C426.75,289.52,425.82,289.23,425.25,288.81Zm-55.89-7.36c-10.92-5.07-20.12-12.57-29-20.59-3.84-3.49-7.55-7.18-12.07-9.82-5.2-3-10.76-4.06-16.56-2.12-11.17,3.72-11.66,16.58-7.27,23.18,2,3,5.09,4.06,8.66,3.64.44-.05,1.05-.08,1.27-.36.49-.63-.22-1-.59-1.36a7.62,7.62,0,0,1-2.24-6.95,6.77,6.77,0,0,1,5.31-5.56,9.37,9.37,0,0,1,9.63,4.55c1.84,3.28,1.44,6.56-.42,9.66-4.19,7-14.19,9.52-21.12,5.2-5.46-3.41-9-8.27-9.75-14.83-.72-6.36-.56-12.67,2.53-18.49,2.57-4.85,6.37-8.15,12.19-8.43a4.46,4.46,0,0,0,1.06-.27c.08,0,.12-.14.35-.42-9.81-8.51-19.75-16.93-28.23-27C275,222,264.67,230.27,254.83,239.2a5.83,5.83,0,0,0,1,.43c9.21,1.22,14.19,5.68,15.3,15.16.69,5.9,1.43,12.12-1.4,17.84-3,6.1-7.9,9.88-14.78,10.33-6.68.43-11.59-2.84-14.78-8.58-1.73-3.12-1.74-6.41.64-9.26a9.23,9.23,0,0,1,9.89-3.38c5.14,1.35,6.44,7.63,2.62,11.89-.4.45-1.32.68-.95,1.5s1.11.57,1.77.65c4.41.5,7.67-1.36,9.42-5.59,2.4-5.83,2.13-11.55-1.92-16.51-4.56-5.56-10.75-6.48-17.48-5.08-3.92.82-7,3.12-10.05,5.54-7.4,5.89-14,12.7-21.69,18.25-7.52,5.45-15.23,10.47-24.67,12a45.13,45.13,0,0,1-7.52.24c-.27-1.05.42-1.27,1-1.59,15.1-8.57,28.55-19.41,41.95-30.34,13.78-11.23,27.51-22.51,40.61-34.53,5.85-5.37,11.74-10.71,17.46-16.21,1.61-1.55,2.42-1.81,4.18-.11A884.71,884.71,0,0,0,366,270.21a180.66,180.66,0,0,0,18.87,12.49c.63.36,1.44.56,1.86,1.87A33.38,33.38,0,0,1,369.36,281.45Z"/></svg>