<svg id="Layer_2" data-name="Layer 2" xmlns="http://www.w3.org/2000/svg" viewBox="0 0 566.93 566.93"><defs><style>.cls-1{fill:#c19560;}.cls-2{fill:#104c86;}.cls-3{fill:#094e92;}</style></defs><path class="cls-1" d="M302,222.27c3.07-3.31,5.95-6.62,9.32-9.82a23.53,23.53,0,0,1,1.38,8.75,32.75,32.75,0,0,1-7.86,20.56c-.2.24-.39.49-.59.72-2.08,2.42-2.07,2.4-4.92,1.17a16,16,0,0,0-6.15-1.42c-5.75-.06-11.5,0-17.24-.06a20,20,0,0,0-8.94,2.2,1.07,1.07,0,0,1-1.47-.15c-7.83-7.46-12.66-19.54-9.12-31.08.06-.19.15-.37.23-.57,3.32,3,6.34,6.28,9.57,9.66.6-3.58,2.11-6.71,3.41-9.91.76-1.88.79-1.87,2.1-.27a43.46,43.46,0,0,1,5.77,8.67,63,63,0,0,1,5.48-11.1c.68-1.09,1-1.3,1.74,0,2.08,3.51,4.19,7,5.47,11.2,1.7-3.45,4.08-6.1,6.31-8.87.88-1.1,1.23-.82,1.66.3C299.4,215.55,301,218.74,302,222.27Z"/><path class="cls-1" d="M302,344.9c3.07,3.31,5.95,6.63,9.32,9.82a23.51,23.51,0,0,0,1.38-8.74,32.75,32.75,0,0,0-7.86-20.57l-.59-.72c-2.08-2.42-2.07-2.4-4.92-1.16a15.83,15.83,0,0,1-6.15,1.41c-5.75.06-11.5,0-17.24.06a19.82,19.82,0,0,1-8.94-2.2,1.07,1.07,0,0,0-1.47.15c-7.83,7.46-12.66,19.54-9.12,31.08.06.19.15.37.23.58,3.32-3,6.34-6.29,9.57-9.67.6,3.58,2.11,6.71,3.41,9.92.76,1.87.79,1.86,2.1.26a43.46,43.46,0,0,0,5.77-8.67,63,63,0,0,0,5.48,11.1c.68,1.1,1,1.3,1.74,0a50.51,50.51,0,0,0,5.47-11.21c1.7,3.45,4.08,6.1,6.31,8.88.88,1.1,1.23.81,1.66-.31C299.4,351.62,301,348.43,302,344.9Z"/><path class="cls-2" d="M309.3,294.73h0a17.21,17.21,0,0,0-5.52-9.58c-.32-.3-.56-.94-1.25-.51a37.91,37.91,0,0,1-4.8,2,28.83,28.83,0,0,1-3.06.31c-7.43,0-14.86,0-22.28,0h0c-2.45-.51-4.95-.82-7.2-2-.56-.29-.73.19-1,.42a16.18,16.18,0,0,0-5.74,9.4,22.14,22.14,0,0,0,0,8.43h0c2.44,8.9,7.7,14.92,17.11,16.68,5.58.21,11.17.2,16.75,0h0a10.79,10.79,0,0,0,4-1.06c6.57-3.33,11.11-8.34,12.9-15.63A19.08,19.08,0,0,0,309.3,294.73Z"/><path class="cls-1" d="M173.68,251.39c18.29,5.7,36.13,4.62,54.94,1.91-17.45,20.09-22.27,44-24.67,68.77-5.22-4-10.3-19.52-11.08-33.75-12.8,2.11-25.5,1.14-38.63-.87A179.69,179.69,0,0,1,185,268.81C181,263.2,177,257.91,173.68,251.39Z"/><path class="cls-2" d="M148.88,382.34h0c8.3,9.6,18.8,12.89,31.13,10.7,3-.53,6-1.36,9.27-2.13a73.7,73.7,0,0,0-3.81,12.73c-2.78,15.26,3.66,30.42,16.26,37.7,6.49,3.75,13.43,5.72,21,3.9.89-.21,2.06-.46,2.33-1.22.36-1-1-1.29-1.63-1.81-7.41-5.82-12.52-12.94-12.49-22.8,0-8.87,3.53-16.61,8.17-23.93,6.23-9.82,13-19.3,17.89-29.93,7.61-16.52,10.53-33.53,6.15-51.46-.41-1.17-.34-2.48-1-3.57a1.15,1.15,0,0,0-.22-1.28c-.5-1.4-.58-2.94-1.41-4.23h0a1.07,1.07,0,0,0-.17-1.1,102.36,102.36,0,0,0-7.87-17h0c-1.54-2.19-2.71-4.76-6.07-5.66.7,4.56,1.34,8.79,2,13h0c.06,1.2.12,2.41.19,3.61,1.08,20.14-3,38.73-16.36,54.54a75.68,75.68,0,0,1-14.76,13.09,73.26,73.26,0,0,1-11.24,5.08,5.4,5.4,0,0,0-1.21.08,45.16,45.16,0,0,1-16.22,1.73c-9.31-.63-17.48-4.19-24.82-9.82-.42-.33-.82-1-1.43-.78s-.52,1.1-.54,1.72a25.07,25.07,0,0,0,1.2,8.42A35.06,35.06,0,0,0,148.88,382.34Z"/><path class="cls-1" d="M394,314.06c-18.3-5.71-36.13-4.62-54.95-1.92,17.45-20.08,22.27-44,24.67-68.77,5.22,4,10.3,19.52,11.08,33.75,12.8-2.1,25.5-1.13,38.63.87a178,178,0,0,1-30.78,18.64C386.69,302.24,390.67,307.54,394,314.06Z"/><path class="cls-2" d="M418.81,183.1h0c-8.31-9.6-18.81-12.88-31.14-10.7-3,.54-6,1.37-9.27,2.14a72.93,72.93,0,0,0,3.81-12.74c2.79-15.26-3.66-30.41-16.26-37.7-6.49-3.74-13.43-5.71-21-3.89-.89.21-2.06.45-2.33,1.21-.36,1,1,1.3,1.63,1.81,7.42,5.83,12.52,13,12.5,22.8,0,8.87-3.54,16.61-8.18,23.93-6.23,9.82-13,19.3-17.89,29.94-7.61,16.52-10.53,33.53-6.15,51.45.41,1.17.34,2.49,1.05,3.57a1.16,1.16,0,0,0,.22,1.28c.5,1.41.58,2.95,1.41,4.24h0a1.06,1.06,0,0,0,.17,1.09,102.84,102.84,0,0,0,7.87,17.05h0c1.54,2.18,2.71,4.75,6.07,5.66-.69-4.57-1.34-8.8-2-13h0c-.07-1.2-.13-2.4-.19-3.6-1.08-20.14,3-38.73,16.35-54.55A75.63,75.63,0,0,1,370.26,200a73.74,73.74,0,0,1,11.24-5.09,4.87,4.87,0,0,0,1.21-.08,45.41,45.41,0,0,1,16.22-1.72c9.31.62,17.48,4.18,24.82,9.82.42.32.82,1,1.43.77s.52-1.1.54-1.71a24.84,24.84,0,0,0-1.2-8.43A35.06,35.06,0,0,0,418.81,183.1Z"/><path class="cls-2" d="M310.55,263h0a17.62,17.62,0,0,0-7.31-12.55c-1.43-1.07-3.26-1.15-4.67-2.2a7.08,7.08,0,0,0-2.53-.54h0a.54.54,0,0,0-.62-.2c-3,0-6-.1-9-.08-4.89,0-9.78-.16-14.67.12h0c-.65.13-1.32.21-2,.38-9.86,2.65-15.56,14.56-11.36,24a16.31,16.31,0,0,0,13.35,10l24.44,0h0c6.91-1.19,11.39-5.2,13.64-11.78A18.93,18.93,0,0,0,310.55,263Z"/><path class="cls-1" d="M372,403.1c8.28.24,16.2.44,24.12.73,1.35.05,1.77-.21,1.67-1.66-.29-4.35-.4-8.71-.57-13.08-.13-3.59-.24-7.19-.36-10.92,24.73,13.32,50,2.77,58.87-14.26-.64-.27-1.19.11-1.74.27a93.12,93.12,0,0,1-11.58,2.95A68.57,68.57,0,0,1,402,361.22a1.61,1.61,0,0,1-1.1-1.8c.36-10,0-19.92,0-29.88,0-1.2-.32-1.52-1.51-1.51-24.65.22-49.29-.08-73.93-.18-3.7,0-3.65,0-3.68,3.79-.18,24.41-.06,48.82.08,73.23,0,2.34,0,2.32,2.39,2.29l28.76-.31c.57,0,1.06-.18,1.48.63a64.8,64.8,0,0,1,7.29,35.93,69.15,69.15,0,0,1-4.66,18.95c5.8-2.57,13.75-10.71,16.87-17.68C380.3,430.63,379.81,416.76,372,403.1ZM381.75,390q-20.83-.27-41.67-.37c-.78,0-1.08-.06-1.07-.93.14-9.15.24-18.29.35-27.54,7.39,1.91,14.48,4.62,22.31,5.93l-6.58-21.63,15.6-.05c3.93,0,7.87,0,11.8-.09.76,0,1,0,1,.9q.13,20.85.39,41.69C383.88,389.52,383.4,390,381.75,390Z"/><path class="cls-1" d="M195,164.5c-8.28-.24-16.2-.44-24.12-.73-1.35-.05-1.77.21-1.67,1.66.29,4.35.4,8.72.57,13.08.13,3.6.24,7.2.36,10.93-24.73-13.33-50-2.78-58.87,14.25.64.27,1.19-.11,1.74-.26a91.44,91.44,0,0,1,11.58-3,68.57,68.57,0,0,1,40.38,5.91,1.61,1.61,0,0,1,1.1,1.8c-.36,10,0,19.92,0,29.88,0,1.2.33,1.53,1.52,1.52,24.65-.23,49.29.08,73.93.17,3.7,0,3.65,0,3.68-3.79.18-24.41.06-48.82-.08-73.23,0-2.34,0-2.32-2.39-2.29l-28.76.31c-.57,0-1.06.18-1.48-.62a64.75,64.75,0,0,1-7.29-35.94,69,69,0,0,1,4.66-18.94C204,107.81,196,116,192.91,122.92,186.63,137,187.12,150.84,195,164.5Zm-9.8,13.15q20.85.27,41.68.37c.78,0,1.08.07,1.07.93-.14,9.15-.24,18.3-.35,27.54-7.39-1.91-14.48-4.61-22.31-5.93,2.25,7.4,4.38,14.41,6.58,21.63l-15.6.05c-3.93,0-7.87,0-11.8.09-.76,0-1,0-1-.9q-.12-20.84-.38-41.68C183.05,178.08,183.53,177.63,185.17,177.65Z"/><path class="cls-3" d="M298.78,361l-2.44.67-4.19.83-2.37.1h0a5.92,5.92,0,0,0-2.48.17c-.67.52-.31,1.25-.31,1.86-.19,35.74.36,71.47-.34,107.21a1.86,1.86,0,0,0-.25,1.34c-.19,1.36-.41,2.72-.57,4.09-.31,2.7-1.27,5.26-1.69,7.94-.24-.16-.27,1-.54.13-.47-1.46-.81-3-1.21-4.47-.36-2.23-.71-4.46-1.07-6.69h0a.76.76,0,0,0-.19-.76l-.12-4.62h0a10,10,0,0,0-.19-3.09c0-1.56,0-3.11,0-4.66q0-48.12-.05-96.26c0-.67.33-1.44-.28-2h0a3.78,3.78,0,0,0-2.18-.17l-3.59-.09a1.32,1.32,0,0,0-1.07-.22l-2.75-.37a.68.68,0,0,0-.73-.24c-.88-.46-1.11-.25-1.1.79q0,47.59,0,95.19a68.61,68.61,0,0,0,2.15,18.05h0c.23.84.43,1.69.67,2.52,2.18,7.41,5.2,14.52,7.77,21.79,1.47,4.15,4.26,12.58,4.26,12.58,1.78-6.34,2.42-7.19,3.83-11.33,1.68-4.93,3.57-9.8,5.37-14.69a87,87,0,0,0,2.95-9.59h0a47.67,47.67,0,0,0,2.06-9.07,102.47,102.47,0,0,0,.66-10.8q0-42.19,0-84.39Zm-2.44.67a3.41,3.41,0,0,1,.64,0Z"/><path class="cls-3" d="M298.78,194.19q0-42.19,0-84.39a102.47,102.47,0,0,0-.66-10.8,47.67,47.67,0,0,0-2.06-9.07h0a87,87,0,0,0-2.95-9.59c-1.8-4.89-3.69-9.76-5.37-14.69-1.41-4.14-2.05-5-3.83-11.33,0,0-2.79,8.43-4.26,12.58-2.57,7.27-5.59,14.38-7.77,21.79-.24.83-.44,1.67-.67,2.51h0a68.74,68.74,0,0,0-2.15,18.06q0,47.6,0,95.19c0,1,.22,1.25,1.1.79a.68.68,0,0,0,.73-.24l2.75-.37a1.32,1.32,0,0,0,1.07-.22l3.59-.1a3.78,3.78,0,0,0,2.18-.16h0c.61-.6.28-1.37.28-2.05q0-48.12.05-96.25c0-1.55,0-3.11,0-4.66A10,10,0,0,0,281,98.1h0l.12-4.62a.76.76,0,0,0,.19-.76h0c.36-2.23.71-4.46,1.07-6.69.4-1.5.74-3,1.21-4.47.27-.84.3.29.54.13.42,2.68,1.38,5.24,1.69,7.94.16,1.37.38,2.72.57,4.09a1.86,1.86,0,0,0,.25,1.34c.7,35.74.15,71.47.34,107.21,0,.61-.36,1.33.31,1.86a5.92,5.92,0,0,0,2.48.17h0l2.37.1,4.19.83,2.44.67Zm-1.8,11a3.41,3.41,0,0,1-.64,0Z"/></svg>