<svg id="Layer_2" data-name="Layer 2" xmlns="http://www.w3.org/2000/svg" viewBox="0 0 595.28 566.93"><defs><style>.cls-1{fill:#c19560;}.cls-2{fill:#094e92;}.cls-3{fill:#104c86;}</style></defs><path class="cls-1" d="M332,41.37c5.81-6.28,11.27-12.56,17.65-18.61a44.18,44.18,0,0,1,2.62,16.57,62.08,62.08,0,0,1-14.89,39c-.38.45-.74.91-1.12,1.36-3.94,4.59-3.92,4.55-9.32,2.2a30.23,30.23,0,0,0-11.66-2.68c-10.88-.11-21.77-.07-32.66-.11a37.59,37.59,0,0,0-16.93,4.17c-1.09.53-1.78.68-2.79-.28-14.84-14.14-24-37-17.27-58.9.11-.35.27-.69.43-1.08,6.3,5.73,12,11.91,18.13,18.3,1.15-6.77,4-12.7,6.47-18.78,1.44-3.55,1.48-3.53,4-.49a82,82,0,0,1,10.92,16.42,120.31,120.31,0,0,1,10.39-21c1.28-2.08,1.86-2.47,3.3,0,3.93,6.65,7.93,13.24,10.36,21.23,3.22-6.54,7.73-11.56,11.95-16.82,1.67-2.08,2.33-1.53,3.15.58C327.09,28.63,330.06,34.68,332,41.37Z"/><path class="cls-1" d="M403.81,530.84c-13.49-7.76-26.51-15.8-36.59-28.05-8.46,12.28-20.36,19.55-35.24,23.4,16.69-25.21,30.43-51,29.19-82.24,14.42,17,31.05,30.7,51.68,39.27a7.37,7.37,0,0,1-3.9,2.26c-5.7,1.71-11.27,3.91-17.19,4.85-2.19.35-1.37,1.57-.94,2.69,2.86,7.48,6.37,14.71,8.61,22.42C400.93,520.56,402.35,525.71,403.81,530.84Z"/><path class="cls-1" d="M182.4,483.52c21.13-8.52,36.72-22.92,52-39.56-1,31.6,12.59,57.23,29,81.84-7.84.2-24.16-10.22-35.58-22.73-10.19,11.56-22.61,20.22-36.2,28.25C195,517,200,503.93,205.94,491,198,488.88,190.38,487,182.4,483.52Z"/><path class="cls-1" d="M299.4,257.16c-9.56-.13-18.27-.21-26.88-1.9-2.23-.44-3.27-1.18-3.13-3.78.27-4.89.08-9.8,0-14.71,0-1.7.2-2.47,2.28-2.06,17.31,3.34,34.65,3,52,0,1.93-.33,2.42.09,2.39,2-.08,5.19-.15,10.4,0,15.59.07,2-.8,2.49-2.38,2.81A100.36,100.36,0,0,1,299.4,257.16Z"/><path class="cls-2" d="M232.44,331.55h0a3.31,3.31,0,0,0-1.87-3c-.72-.27-.84.77-1.1,1.33Q226.7,339,223.93,348h0a9.18,9.18,0,0,0-.52,1c-8.63,20.37-22.29,36.26-41.94,46.71-7.41,3.94-15.44,6.13-23.64,7.76l-14.38,0h0a3.94,3.94,0,0,0-1.07-.45c-19.5-2.51-33.65-12.61-42.68-30-.47-.89-.7-2-1.93-2.53a6.21,6.21,0,0,0-1.51,3.59c-.49.06-.49.47-.64.82-3,7-3.05,14.28-1.61,21.64h0c4.11,14.51,14,23.23,28,27.62,3.43,1.07,7,1.67,11,2.59-2.46,2.38-4.62,4.38-6.68,6.46-10.7,10.84-15.52,23.75-13,38.9,1.65,9.75,6.24,18,14.43,23.94a28.38,28.38,0,0,0,13.28,5.58c1.08.13,2.76.5,1.63-1.53-2.09-3.76-3.1-7.9-4.57-11.89a34.75,34.75,0,0,1,2.34-21h0c4.55-8.23,11.24-14.32,19-19.5,6.73-4.5,13.86-8.29,20.84-12.35,16.44-9.56,30.14-22,40-38.37,6.73-11.25,10.47-23.55,12.51-36.42a3,3,0,0,1-.12-.43c0,.15.07.29.12.43.36-3.37.85-6.73,1.07-10.11C234.26,344.14,234.39,337.76,232.44,331.55Z"/><path class="cls-3" d="M345.86,178.65h0c-1.31-7.3-5.17-13.15-10.46-18.15-.61-.58-1.07-1.79-2.38-1-2.82,1.76-6.1,2.41-9.09,3.75a57.3,57.3,0,0,1-5.8.6c-14.07,0-28.15,0-42.22,0h0c-4.63-1-9.37-1.55-13.63-3.8-1.06-.56-1.38.35-1.92.79a30.75,30.75,0,0,0-10.88,17.81,41.8,41.8,0,0,0,0,16h0c4.63,16.87,14.58,28.28,32.41,31.61,10.58.4,21.16.38,31.74,0h0a20.53,20.53,0,0,0,7.56-2c12.44-6.3,21.05-15.81,24.44-29.61C347.08,189.33,346.78,184,345.86,178.65Z"/><path class="cls-3" d="M233.59,225a68.83,68.83,0,0,0-1.51-12.79h0c-.16-1-.26-1.94-.47-2.89-6.21-28-22.15-49.07-46.27-64.16-11.05-6.92-23-12.45-33.15-20.79-13.78-11.3-19.35-25.52-11.32-43,.71-1.56,2.84-3.51,1.53-4.82s-3.73.06-5.53.68C124.33,81.5,117.39,90.81,114,103.22a44.68,44.68,0,0,0-1.15,15.28h0c1.58,13.86,9.33,24.23,19.56,33.56-9.05,1.57-17.38,3.62-24.23,9.22S96,173.34,94,182.18A41.49,41.49,0,0,0,94,198.72h0a24.61,24.61,0,0,0,4.31,9.6c.69-1.39,1.25-2.52,1.83-3.64,7.45-14.37,19.16-23.54,34.54-28.23a63.71,63.71,0,0,1,24.56-1.29h0a1.27,1.27,0,0,0,1.24.42c4.21.53,8.15,2.13,12.24,3.13a6.59,6.59,0,0,0,1,.55c22.37,8.43,38,24,47.74,45.57a162.54,162.54,0,0,1,7.94,21.86c.21.73.27,1.78,1,1.94,1.09.23,1.24-1,1.74-1.68a3.46,3.46,0,0,0,.55-1.34A56.32,56.32,0,0,0,233.59,225Zm-.39,0c0-.4,0-.79,0-1.19,0,.45.09.89.1,1.34C233.28,225.11,233.19,225,233.2,225Z"/><path class="cls-3" d="M501.33,182.25h0c-3.78-14.61-13.23-23.64-27.51-27.82-3.49-1-7.08-1.69-11-2.62a86.73,86.73,0,0,0,10.77-11.55c11-14.78,12.15-34.32,2.57-48.73-4.92-7.41-11.28-13.17-20.31-15.23-1.06-.24-2.44-.6-3.12.07-1,.92.35,1.89.78,2.78,4.82,10.12,6.5,20.4,1.28,30.88-4.71,9.43-12.53,15.82-21.34,21.17-11.81,7.17-24,13.71-34.84,22.44-16.82,13.58-28.9,30.16-33.7,51.56-.18,1.46-.94,2.82-.76,4.36a1.36,1.36,0,0,0-.44,1.48c-.21,1.75-.93,3.44-.73,5.25h0a1.25,1.25,0,0,0-.4,1.26,122.18,122.18,0,0,0-.61,22.3h0c.49,3.14.38,6.5,3.48,9.23,1.67-5.23,3.21-10.08,4.76-14.92h0c.56-1.31,1.13-2.62,1.7-3.94,9.47-22,23.61-39.67,46.19-49.46a89.75,89.75,0,0,1,22.62-6.15,87.45,87.45,0,0,1,14.65.51,6.38,6.38,0,0,0,1.33.56,53.54,53.54,0,0,1,18.19,6.72c9.59,5.57,16.4,13.67,21.25,23.55.28.56.34,1.51,1.12,1.57.94.09,1.13-.89,1.48-1.53a29.61,29.61,0,0,0,3.16-9.61A41.41,41.41,0,0,0,501.33,182.25Z"/><path class="cls-3" d="M348.22,118.56h0c-1.14-10-5.86-17.76-13.85-23.77-2.71-2-6.18-2.18-8.84-4.16a13.36,13.36,0,0,0-4.79-1h0a1.06,1.06,0,0,0-1.19-.39c-5.66,0-11.32-.18-17-.14-9.26.06-18.53-.3-27.79.23h0c-1.25.24-2.51.39-3.73.72-18.67,5-29.48,27.59-21.51,45.49,4.84,10.87,13.43,17.16,25.28,18.86l46.31,0h0c13.1-2.26,21.58-9.86,25.85-22.33A36.2,36.2,0,0,0,348.22,118.56Z"/><path class="cls-1" d="M493,317.64c9.62-9.08,18.78-17.79,28-26.39,1.59-1.48,1.76-2.24,0-3.77-5.23-4.58-10.29-9.38-15.39-14.11-4.22-3.91-8.4-7.85-12.75-11.92,42.95-12.87,59.57-53.3,50.35-82.51-1,.42-1.23,1.47-1.67,2.26-3.09,5.56-6,11.29-9.73,16.41a109.48,109.48,0,0,1-52.23,38.89,2.56,2.56,0,0,1-3.27-.8c-10.83-11.64-22.51-22.43-33.66-33.76-1.34-1.36-2.09-1.35-3.42,0-27.55,28.06-55.7,55.52-83.62,83.21-4.19,4.16-4.16,4.08.13,8.43,27.34,27.74,55,55.15,82.71,82.54,2.66,2.62,2.6,2.63,5.28-.12q16-16.41,32.11-32.8c.63-.65,1-1.4,2.37-1a103.32,103.32,0,0,1,48.77,32.32c6.69,7.87,11.68,16.8,16.12,26.62,3.64-9.43,3.43-27.6-.91-39C533.51,339.29,517.31,324.19,493,317.64Zm-3.78-25.9Q465.44,315,441.81,338.35c-.88.87-1.29,1.14-2.25.15C429.4,328,419.19,317.59,408.88,307c10.5-6.18,21.54-11.12,31.86-18.48l-31.83-17,17.55-17.65c4.42-4.46,8.86-8.89,13.21-13.41.84-.87,1.13-1.09,2.13-.1q23.65,23.37,47.46,46.6C491.16,288.86,491.14,289.91,489.26,291.74Z"/><path class="cls-1" d="M241.56,287.11q-42.23-42-84.34-84.19c-2.81-2.81-2.81-2.76-5.47-.06-10.81,11-21.65,21.9-32.43,32.9a2.54,2.54,0,0,1-3.29.69c-6.64-2.65-13.29-5.25-19.4-9-13.86-8.51-25.85-19-34.93-32.67-3.45-5.2-6.32-10.72-9.3-16.3-4,6.4-3.91,26,.65,38.06,8.72,23.09,25.91,37.06,49,44.32,0,.93-.73,1.22-1.18,1.69-8.38,8.85-17.42,17-26.62,24.94-1.41,1.22-1.68,1.89-.15,3.3,8.33,7.75,16.55,15.62,24.81,23.43,1.1,1,2.26,2,3.79,3.36-19,5.15-32.93,15.55-43.36,31.3C48.7,365,47.29,393.22,52.49,401c.91-1.83,1.78-3.56,2.64-5.3,12.78-26.08,33.31-43.24,60.51-52.82,2.06-.73,3.16-.21,4.5,1.27,10.17,11.19,21.35,21.39,31.7,32.39,1.9,2,3,1.93,4.86,0,7.19-7.38,14.56-14.58,21.84-21.87q31.52-31.54,63.08-63C243.55,289.69,243.31,288.85,241.56,287.11ZM156.2,338.16c-1.45,1.45-2.2,1.19-3.45-.05q-16.94-16.75-33.94-33.43c-4.47-4.4-8.89-8.85-13.38-13.22-1.4-1.36-1.86-2.25-.12-3.93q24.13-23.26,48.08-46.75c.75-.73,1.18-1.33,2.27-.22q14.55,14.77,29.25,29.4c1.58,1.59,1.72,2.29-.54,3.38-9.08,4.35-17.78,9.43-26.6,14.27-2.23,1.23-1.45,1.88.16,2.86,8.6,5.24,17.27,10.37,26.23,15,.93.48,1.83,1.06,3.25,1.89C176.83,317.77,166.46,327.9,156.2,338.16Z"/><path class="cls-2" d="M325.91,264.07l-4.62,1.26-7.94,1.57-4.49.19h0a11.14,11.14,0,0,0-4.7.33c-1.26,1-.58,2.36-.59,3.52-.35,67.71.69,135.41-.64,203.11a3.6,3.6,0,0,0-.47,2.56c-.36,2.58-.78,5.15-1.08,7.74-.58,5.12-2.4,10-3.19,15-.46-.32-.52,1.82-1,.24-.9-2.78-1.55-5.64-2.3-8.47q-1-6.33-2-12.67h0a1.49,1.49,0,0,0-.37-1.45q-.12-4.38-.22-8.74h0a19.61,19.61,0,0,0-.36-5.87c0-2.94,0-5.88,0-8.82q0-91.19-.09-182.37c0-1.28.63-2.73-.53-3.88h0c-1.33-.76-2.74-.34-4.13-.31l-6.81-.18a2.47,2.47,0,0,0-2-.41l-5.21-.71a1.28,1.28,0,0,0-1.38-.45c-1.68-.87-2.1-.47-2.1,1.5q.09,90.18,0,180.35a129.7,129.7,0,0,0,4.08,34.2h0c.42,1.59.8,3.19,1.27,4.77,4.13,14,9.84,27.51,14.71,41.28,2.78,7.86,8.08,23.82,8.08,23.82,3.37-12,4.59-13.62,7.25-21.45,3.18-9.36,6.76-18.57,10.17-27.84a162.85,162.85,0,0,0,5.59-18.17h0a90.22,90.22,0,0,0,3.91-17.18,194.19,194.19,0,0,0,1.24-20.46q0-79.93,0-159.89Zm-4.62,1.26a6.08,6.08,0,0,1,1.21,0Z"/><path class="cls-2" d="M499.8,375.14h0a2.69,2.69,0,0,0-.15-.87c-.73-1.21-.82-3.35-2.24-3.44-1.24-.08-1.54,2-2.17,3.13-6.2,11.27-14.65,20.13-26.66,25.31-5,2.17-10.39,3-15.65,4.28h0l-13.73-.07c-1.13-.82-2.48-.35-3.71-.6-20.41-4.24-37.17-14.3-50.27-30.67a88.9,88.9,0,0,1-15.08-28c-.73-2.62-1.45-5.24-2.18-7.86h0v-.06c-.48-2.17-.7-4.41-1.85-6.39h0l.09,0c-.35-1.57-.94-2.21-2.08-.52a6,6,0,0,0-1.26,2.88.45.45,0,0,0-.29.67c-1.41,8.81-.92,17.62,0,26.42h0c.41,2.5.74,5,1.25,7.49,5.93,29,22.08,50.68,47,66.2,8.83,5.51,18.34,9.87,26.9,15.84,12.33,8.59,21.67,18.93,20.23,35.41h0A53,53,0,0,1,454,497.82h0a6.22,6.22,0,0,0-.55,1c-.3.88-1.51,1.65-.91,2.58.71,1.11,1.91.36,3,.21A26.49,26.49,0,0,0,470.27,494c14.92-14.39,16.43-37.61,3.72-55.21-3.32-4.61-7.43-8.48-11.71-12.88,20.34-2.14,34.73-11.07,39.6-31.67C502.58,387.71,502.74,381.26,499.8,375.14ZM458.25,484.28a.4.4,0,0,0,.21-.09h0l0,.09h-.18Z"/></svg>