<svg id="Layer_1" data-name="Layer 1" xmlns="http://www.w3.org/2000/svg" viewBox="0 0 355.85 350.85"><defs><style>.cls-1{fill:#1c1b1c;}</style></defs><path class="cls-1" d="M304.37,329c-8-11.65-11.94-24.51-10.51-38.65,1.7-16.79,8.45-31.87,17.42-45.83s21.41-24.55,35.38-33.37c2.86-1.81,2.84-2.12-.16-3.79-7.95-4.44-16.39-4.7-25.1-3.06-14.07,2.66-24.68,10-30.82,23.07a94.35,94.35,0,0,0-8.39,33.74c-.42,6.1-.07,12.25-.07,18.38l-1.06.1c-.27-.77-.59-1.53-.79-2.32a132.8,132.8,0,0,1-3.84-35.83c.24-11.49.84-23,1.7-34.44.61-8.22,1.81-16.4,3-24.56.5-3.59,0-4.36-3.58-3.54-7.77,1.78-12.73,7-15.93,13.89-5.85,12.54-5.3,25.79-3.7,39.1a32.6,32.6,0,0,1,0,3.83,76.38,76.38,0,0,1-5.21-7.51c-8.09-11.76-18-21.1-32.72-23.65-7.86-1.36-15.67-1.81-23,2.16-2.83,1.53-2.8,1.79-.46,3.93,13.06,11.91,25.93,24,39.19,35.71a138.42,138.42,0,0,1,29.89,36.33c.78,1.39,1.36,2.89,2,4.35l-.73.36a2.81,2.81,0,0,1-.62-.51,66.29,66.29,0,0,0-32-24.09c-17.38-6.32-34-5.74-49.27,6a3.06,3.06,0,0,0-1.2,2.43,3.37,3.37,0,0,0,2.06,2c13.46,3.61,26.73,7.68,39.36,13.72,23.36,11.16,45.23,24.44,63.11,43.52C289,331.29,310,343,315,344.79,315,344.79,306.62,332.3,304.37,329Z"/><path class="cls-1" d="M133.35,156.46c8-11.66,11.93-24.51,10.5-38.66C142.16,101,135.41,85.93,126.44,72S105,47.43,91.06,38.6c-2.86-1.81-2.84-2.11.16-3.79,8-4.44,16.39-4.7,25.1-3.05,14.07,2.65,24.68,10,30.81,23.07a94.09,94.09,0,0,1,8.39,33.73c.43,6.1.08,12.26.08,18.38l1.06.1c.27-.77.59-1.52.79-2.31a132.8,132.8,0,0,0,3.84-35.83c-.24-11.49-.84-23-1.7-34.45-.61-8.21-1.81-16.39-3-24.55-.51-3.59,0-4.36,3.58-3.54,7.77,1.78,12.73,7,15.93,13.89,5.85,12.54,5.29,25.79,3.7,39.1a32.6,32.6,0,0,0,0,3.83A80.71,80.71,0,0,0,185,55.67c8.08-11.77,18-21.1,32.72-23.65,7.85-1.36,15.67-1.81,23,2.15,2.84,1.53,2.81,1.79.46,3.93-13.05,11.91-25.93,24-39.19,35.72a138.53,138.53,0,0,0-29.88,36.32c-.78,1.4-1.36,2.9-2,4.35l.72.37a3.12,3.12,0,0,0,.62-.51,66.27,66.27,0,0,1,32-24.09c17.39-6.33,34-5.75,49.28,6a3.12,3.12,0,0,1,1.2,2.44,3.39,3.39,0,0,1-2.07,2c-13.45,3.61-26.72,7.68-39.35,13.71-23.36,11.17-45.23,24.44-63.12,43.53-.75.81-21.69,12.52-26.75,14.31C122.71,172.24,131.1,159.75,133.35,156.46Z"/></svg>