<svg width="60" height="59" viewBox="0 0 60 59" fill="none" xmlns="http://www.w3.org/2000/svg">
<path d="M1.21062 46.4381C1.31663 46.1717 1.46152 45.9224 1.64058 45.6982C2.78376 43.9426 4.33834 42.5872 5.98061 41.3259C8.66657 39.2794 11.3559 37.2345 13.4888 34.5725C15.2122 32.4722 16.2448 29.8933 16.4463 27.1868C16.6149 24.9132 16.2321 22.7069 15.6133 20.5292C15.2525 19.2579 14.6438 18.1077 13.9694 16.9843C13.6558 16.4614 13.8008 16.2192 14.4061 16.2024C15.5524 16.1832 16.6724 16.5453 17.5894 17.2315C19.7662 18.782 20.6531 21.0001 20.7509 23.5864C20.8301 25.7322 20.2602 27.7485 19.4762 29.7193C19.4003 29.9077 19.1575 31.0159 19.1575 31.0159C20.0107 30.7149 21.5889 29.9329 23.302 29.0332L23.275 29.0635C24.3743 28.5388 25.3995 27.9486 26.4533 27.4172C28.1158 26.5764 29.8356 25.8667 31.7308 25.8314C34.9344 25.7725 37.3759 27.2221 39.1901 29.7916C39.4345 30.114 39.6107 30.4824 39.7081 30.8747C39.8055 31.2669 39.822 31.6748 39.7566 32.0736C39.5138 31.9778 39.2913 31.9055 39.0822 31.8062C37.8939 31.2148 36.6112 30.8346 35.2918 30.6829C33.5078 30.4729 31.7022 30.5348 29.9368 30.8662C25.4551 31.6751 21.3865 33.498 17.5456 35.8808C17.3347 36.0308 17.1347 36.1955 16.947 36.3735C17.2368 36.3502 17.5212 36.2821 17.7901 36.1717C19.8404 35.4991 21.9227 34.9744 24.0894 34.8029C25.5242 34.6886 26.9557 34.6768 28.3046 35.1947C31.5082 36.424 33.5315 38.6488 33.9733 42.1432C33.9763 42.347 33.9577 42.5505 33.9177 42.7503C33.6996 42.6936 33.489 42.6111 33.2904 42.5048C32.6565 42.0743 32.0629 41.5832 31.4155 41.1746C29.3922 39.8898 27.2002 38.9431 24.8178 38.5899C22.5596 38.2748 20.2627 38.3762 18.0413 38.8893C17.8592 38.9296 17.6805 38.9801 17.5001 39.0272C17.9165 39.1634 18.3161 39.1953 18.7006 39.2878C22.0357 40.1169 24.2074 42.7217 24.6795 46.1203C24.7183 46.4078 24.6542 46.7122 24.6306 47.1293C23.5082 46.0235 22.2638 45.0481 20.9212 44.2217C17.6771 42.2155 14.2037 41.5916 10.4825 42.4863C8.69018 42.9168 7.1103 43.8148 5.54897 44.7666C4.29619 45.5317 3.01981 46.2716 1.75692 47.0099C1.60518 47.0665 1.44509 47.0978 1.28312 47.1023C1.25446 46.8837 1.15161 46.6365 1.21062 46.4381Z" fill="#233565"/>
</svg>
