<svg width="60" height="59" viewBox="0 0 60 59" fill="none" xmlns="http://www.w3.org/2000/svg">
<path d="M51.3199 55.3257C49.971 53.3666 49.3067 51.204 49.5478 48.8262C49.8345 46.0027 50.9726 43.4668 52.485 41.1193C53.9975 38.7717 56.095 36.9909 58.4505 35.5077C58.9327 35.2033 58.9293 35.1512 58.4235 34.8703C57.083 34.1237 55.66 34.08 54.1914 34.3558C51.819 34.8031 50.0301 36.0374 48.9948 38.2353C48.1749 40.0228 47.6952 41.9468 47.5802 43.9091C47.5093 44.9349 47.5683 45.9691 47.5683 46.9999L47.3896 47.0167C47.3441 46.8873 47.2901 46.7595 47.2564 46.6266C46.7671 44.6569 46.5493 42.6298 46.609 40.6013C46.6494 38.6691 46.7506 36.7336 46.8956 34.8098C46.9984 33.4275 47.2008 32.0519 47.4014 30.6797C47.4857 30.076 47.4014 29.9465 46.7978 30.0844C45.4877 30.3837 44.6514 31.2616 44.1118 32.4202C43.1255 34.529 43.2182 36.7571 43.488 38.9954C43.5006 39.2099 43.5006 39.4249 43.488 39.6394C43.1701 39.2363 42.8768 38.8146 42.6095 38.3765C41.2455 36.3989 39.5745 34.8283 37.0926 34.3995C35.7673 34.1708 34.4505 34.0951 33.2146 34.7627C32.7374 35.02 32.7424 35.0637 33.137 35.4236C35.339 37.4264 37.5091 39.4595 39.7448 41.4287C41.762 43.1634 43.4665 45.2297 44.7846 47.5381C44.9161 47.7718 45.0139 48.024 45.1218 48.2696L44.9987 48.3301C44.9599 48.3067 44.9247 48.2778 44.8942 48.2443C43.5575 46.3714 41.673 44.9565 39.4987 44.1933C36.5682 43.1305 33.7659 43.228 31.1912 45.2023C31.1283 45.2503 31.0773 45.3122 31.0422 45.383C31.0071 45.4539 30.9889 45.5319 30.9889 45.6109C31.0184 45.689 31.0648 45.7597 31.1249 45.8178C31.1849 45.8759 31.2571 45.9201 31.3362 45.9472C33.6057 46.5543 35.8432 47.2387 37.9727 48.2544C41.9115 50.1311 45.599 52.3643 48.6137 55.5729C48.7284 55.7108 52.2692 57.68 53.1123 57.981C53.1123 57.981 51.6993 55.8806 51.3199 55.3257Z" fill="#CE433A"/>
<path d="M22.4842 26.3108C23.8331 24.35 24.4957 22.1891 24.2546 19.8096C23.9696 16.9845 22.8315 14.4503 21.3191 12.1077C19.8067 9.76523 17.7041 7.97598 15.3537 6.4911C14.8714 6.18672 14.8748 6.13627 15.3806 5.85376C16.7295 5.10712 18.1442 5.06339 19.6128 5.34086C21.9851 5.78649 23.7741 7.02249 24.8076 9.22038C25.6283 11.0071 26.108 12.9306 26.2223 14.8925C26.2948 15.9183 26.2358 16.9542 26.2358 17.9834L26.4145 18.0002C26.46 17.8707 26.514 17.7446 26.5477 17.6117C27.037 15.642 27.2548 13.6149 27.1952 11.5864C27.1547 9.65424 27.0535 7.71869 26.9085 5.79322C26.8057 4.4126 26.6033 3.03703 26.4027 1.66482C26.3167 1.06111 26.4027 0.931628 27.0063 1.06952C28.3164 1.36885 29.1527 2.24666 29.6923 3.40531C30.6787 5.51407 30.5842 7.74223 30.3161 9.98048C30.3035 10.195 30.3035 10.41 30.3161 10.6245C30.6321 10.2204 30.9248 9.79878 31.1929 9.36164C32.5553 7.38236 34.2279 5.8134 36.7098 5.38458C38.0334 5.15588 39.352 5.08021 40.5879 5.74613C41.0667 6.00342 41.0617 6.04715 40.6654 6.40702C38.4651 8.40984 36.2934 10.4429 34.0576 12.4138C32.0415 14.1484 30.3376 16.2141 29.0195 18.5215C28.888 18.7569 28.7902 19.0092 28.6823 19.253L28.8037 19.3152C28.8421 19.2912 28.8772 19.2624 28.9082 19.2294C30.2447 17.3564 32.1294 15.9414 34.3038 15.1784C37.2359 14.1139 40.0365 14.2115 42.6129 16.1874C42.6755 16.2361 42.7262 16.2983 42.7612 16.3694C42.7963 16.4405 42.8147 16.5185 42.8152 16.5977C42.7854 16.6759 42.7386 16.7465 42.6783 16.8046C42.618 16.8628 42.5456 16.9069 42.4662 16.934C40.1984 17.5411 37.9609 18.2255 35.8314 19.2395C31.8926 21.1179 28.2051 23.3494 25.1887 26.5597C25.0622 26.6959 21.5315 28.6651 20.6784 28.9661C20.6902 28.9644 22.1048 26.864 22.4842 26.3108Z" fill="#CE433A"/>
</svg>
