<svg id="Layer_1" data-name="Layer 1" xmlns="http://www.w3.org/2000/svg" viewBox="0 0 358.1 316.81"><defs><style>.cls-1{fill:#80cce8;}</style></defs><path class="cls-1" d="M173.88,250.76c-4.43-.73-5.63-2.42-5.07-6.92.47-3.77,1.16-4.4,5-4.41q7.77,0,15.54,0c2.46,0,3.63,1.73,3.67,5.32.05,4.11-.91,5.67-3.56,5.78l-2.67.13c1.35,2.79,2.43,5.36,3.79,7.77a15.1,15.1,0,0,0,10.27,7.66c5.54,1.2,11.49-3.49,11.54-8.95,0-3.84-4-7.54-8.17-5.08-1.75-1.55-2.11-3.18-1.22-5.54,1.71-4.56,7.14-6.91,12.19-5.27,9.88,3.21,16.64,16.76,7.12,27.91-3.86,4.52-8.91,7.41-14.86,7.66-8.42.35-15.82-2.07-20.5-9.83a1,1,0,0,0-.89-.43c.56,1.32,1.09,2.65,1.67,4,3.85,8.84,1.41,16.63-5.47,22.69-1.19,1-2.07.89-3.19-.14-7.64-7-9.2-15.4-4.52-24.69a4.61,4.61,0,0,0,.6-2.26,6.49,6.49,0,0,0-.94,1c-3.87,6.48-10,9.12-17.12,9.61-9,.62-15.84-3.24-20.24-11-5.61-9.9.34-22.76,11.31-25a9.1,9.1,0,0,1,10.79,7.49,5.84,5.84,0,0,1-.72,2.89c-.66,1.51-1.65.5-2.58.23-3.07-.9-6.17,1.59-6.49,5.18-.51,5.59,5.65,10.72,11.56,9.55,5.14-1,9-3.69,10.79-8.84C172.26,255.15,173.08,253,173.88,250.76Z"/><path class="cls-1" d="M185.14,61c.81-2.07,1.51-4.18,2.44-6.19,2.29-5,5.54-9.06,10.68-11.5,8.46-4,17.42,2.34,18.73,10.32,1.07,6.51-1.39,12-6.75,15.2a3.9,3.9,0,0,1-1.52.71c-1.2.09-2.42,0-3.64,0a15.55,15.55,0,0,1,.53-3.17c1.34-3.37-.44-6.13-4.09-6.19-3.31-.06-5.53,1.83-7.43,4.21a29.48,29.48,0,0,0-4.94,10.41c-1.13,3.88-1.17,3.88-5.24,3.94-3,0-6.07,0-9.09.09-1.42.06-1.94-.47-2.24-1.81a33.46,33.46,0,0,0-5.78-12.8c-1.66-2.2-3.67-3.94-6.62-4-3.61-.1-5.56,2.88-4.07,6.15.18.39.43.74.58,1.13.69,1.78.18,2.62-1.71,2.44-4.74-.45-7.57-3.48-9.38-7.54a14.43,14.43,0,0,1,10.2-20c5.35-1.07,9.56,1.56,13.2,5.18,3.36,3.35,5.26,7.6,7,11.93.21.51.41,1,.64,1.54,0,.09.24.1.8.3-.76-2.57-1.31-4.94-2.17-7.18-1.33-3.48-2.72-7-4.34-10.3-3.94-8.1-3.31-16,1-23.66,2.1-3.7,5-7,7.5-10.41,1-1.36,2-1.26,3.06,0,3.84,4.71,7.36,9.58,9.4,15.42a22.44,22.44,0,0,1-1,17.83C188.16,48.72,185.78,54.55,185.14,61Z"/></svg>