<svg width="60" height="53" viewBox="0 0 60 53" fill="none" xmlns="http://www.w3.org/2000/svg">
<path d="M29.1338 41.9503C28.3915 41.8282 28.1905 41.5454 28.2843 40.7926C28.363 40.1619 28.4786 40.0565 29.122 40.0549C29.9899 40.0549 30.8579 40.0549 31.7258 40.0549C32.138 40.0549 32.334 40.3443 32.3407 40.9449C32.3491 41.6324 32.1882 41.8934 31.7442 41.9118L31.2968 41.9336C31.523 42.4003 31.704 42.8303 31.9319 43.2334C32.1071 43.5599 32.352 43.844 32.6494 44.0654C32.9467 44.2869 33.2892 44.4403 33.6526 44.5149C34.5808 44.7156 35.5778 43.931 35.5862 43.0176C35.5862 42.3752 34.9159 41.7562 34.2173 42.1678C33.924 41.9085 33.8637 41.6358 34.0128 41.241C34.2994 40.4781 35.2092 40.085 36.0553 40.3593C37.7107 40.8964 38.8433 43.1632 37.2483 45.0285C36.6015 45.7846 35.7554 46.2681 34.7584 46.3099C33.3477 46.3685 32.1078 45.9636 31.3237 44.6655C31.3072 44.6416 31.2848 44.6224 31.2586 44.6098C31.2325 44.5972 31.2035 44.5916 31.1745 44.5935C31.2684 44.8143 31.3572 45.0368 31.4543 45.2627C32.0994 46.7416 31.6906 48.0448 30.5378 49.0586C30.3385 49.2259 30.191 49.2075 30.0034 49.0351C28.7233 47.8641 28.4619 46.4588 29.246 44.9047C29.3115 44.7894 29.3461 44.6592 29.3466 44.5266C29.2883 44.5767 29.2355 44.6327 29.1891 44.6939C28.5406 45.778 27.5135 46.2196 26.3206 46.3016C24.8126 46.4053 23.6666 45.7596 22.9294 44.4614C21.9894 42.8052 22.9863 40.6538 24.8244 40.279C25.0259 40.2384 25.2335 40.2388 25.4348 40.2803C25.6362 40.3218 25.827 40.4036 25.9959 40.5206C26.1648 40.6377 26.3082 40.7876 26.4176 40.9614C26.5269 41.1353 26.5999 41.3294 26.6322 41.5321C26.6345 41.7009 26.593 41.8675 26.5116 42.0155C26.401 42.2682 26.2351 42.0992 26.0793 42.054C25.5649 41.9035 25.0455 42.32 24.9919 42.9206C24.9065 43.8558 25.9386 44.714 26.9288 44.5182C27.79 44.3509 28.4367 43.9009 28.7367 43.0394C28.8623 42.6847 28.9997 42.325 29.1338 41.9503Z" fill="#80CCE8"/>
<path d="M31.0204 10.2048C31.1561 9.85855 31.2734 9.50556 31.4292 9.16931C31.8129 8.33284 32.3574 7.65363 33.2187 7.24544C34.6361 6.57627 36.1374 7.6369 36.3569 8.9719C36.5362 10.061 36.124 10.9794 35.2259 11.5147C35.1507 11.5723 35.0638 11.6129 34.9712 11.6335C34.7702 11.6486 34.5658 11.6335 34.3613 11.6335C34.3725 11.4542 34.4023 11.2764 34.4502 11.1032C34.6747 10.5394 34.3764 10.0777 33.7649 10.0677C33.2103 10.0576 32.8383 10.3738 32.52 10.772C32.132 11.2925 31.8507 11.8843 31.6923 12.5135C31.5029 13.1626 31.4962 13.1626 30.8143 13.1726C30.3116 13.1726 29.7973 13.1726 29.2913 13.1877C29.0533 13.1977 28.9662 13.109 28.9159 12.8849C28.7485 12.1107 28.4184 11.3809 27.9475 10.7435C27.6694 10.3755 27.3326 10.0844 26.8383 10.0744C26.2334 10.0576 25.9067 10.5562 26.1564 11.1032C26.1865 11.1685 26.2284 11.227 26.2536 11.2923C26.3692 11.59 26.2837 11.7306 25.967 11.7004C25.1729 11.6252 24.6987 11.1183 24.3954 10.4391C24.2484 10.1102 24.177 9.75267 24.1864 9.39268C24.1957 9.03268 24.2856 8.67934 24.4495 8.35853C24.6133 8.03773 24.847 7.75759 25.1334 7.53865C25.4197 7.31971 25.7515 7.16751 26.1044 7.0932C27.0008 6.9142 27.7062 7.35418 28.3161 7.95978C28.8791 8.52021 29.1974 9.2312 29.489 9.95558C29.5242 10.0409 29.5577 10.1229 29.5962 10.2132C29.5962 10.2283 29.6364 10.2299 29.7302 10.2634C29.6029 9.83346 29.5107 9.43697 29.3667 9.06224C29.1438 8.48006 28.9109 7.89119 28.6395 7.33912C27.9793 5.98405 28.0849 4.66244 28.807 3.38098C29.1589 2.762 29.6448 2.20993 30.0637 1.63946C30.2312 1.41194 30.3988 1.42867 30.5764 1.63946C31.2198 2.42741 31.8095 3.24213 32.1514 4.21911C32.3294 4.70128 32.4064 5.21481 32.3776 5.72789C32.3487 6.24097 32.2147 6.74268 31.9838 7.20194C31.5264 8.15049 31.1276 9.12581 31.0204 10.2048Z" fill="#80CCE8"/>
</svg>
