<svg width="60" height="53" viewBox="0 0 60 53" fill="none" xmlns="http://www.w3.org/2000/svg">
<path d="M29.1338 41.9504C28.3915 41.8282 28.1905 41.5455 28.2843 40.7927C28.363 40.162 28.4786 40.0566 29.122 40.0549C29.9899 40.0549 30.8579 40.0549 31.7258 40.0549C32.138 40.0549 32.334 40.3443 32.3407 40.9449C32.3491 41.6325 32.1882 41.8935 31.7442 41.9119L31.2968 41.9336C31.523 42.4004 31.704 42.8303 31.9319 43.2335C32.1071 43.56 32.352 43.844 32.6494 44.0655C32.9467 44.2869 33.2892 44.4404 33.6526 44.515C34.5808 44.7157 35.5778 43.9311 35.5862 43.0177C35.5862 42.3753 34.9159 41.7563 34.2173 42.1678C33.924 41.9085 33.8637 41.6358 34.0128 41.241C34.2994 40.4782 35.2092 40.085 36.0553 40.3594C37.7107 40.8964 38.8433 43.1632 37.2483 45.0285C36.6015 45.7847 35.7554 46.2682 34.7584 46.31C33.3477 46.3686 32.1078 45.9637 31.3237 44.6655C31.3072 44.6417 31.2848 44.6225 31.2586 44.6099C31.2325 44.5973 31.2035 44.5916 31.1745 44.5936C31.2684 44.8144 31.3572 45.0369 31.4543 45.2628C32.0994 46.7416 31.6906 48.0448 30.5378 49.0586C30.3385 49.2259 30.191 49.2075 30.0034 49.0352C28.7233 47.8642 28.4619 46.4589 29.246 44.9048C29.3115 44.7894 29.3461 44.6592 29.3466 44.5267C29.2883 44.5767 29.2355 44.6328 29.1891 44.694C28.5406 45.778 27.5135 46.2197 26.3206 46.3016C24.8126 46.4054 23.6666 45.7596 22.9294 44.4614C21.9894 42.8052 22.9863 40.6538 24.8244 40.2791C25.0259 40.2384 25.2335 40.2389 25.4348 40.2804C25.6362 40.3219 25.827 40.4037 25.9959 40.5207C26.1648 40.6377 26.3082 40.7877 26.4176 40.9615C26.5269 41.1353 26.5999 41.3294 26.6322 41.5321C26.6345 41.701 26.593 41.8676 26.5116 42.0156C26.401 42.2682 26.2351 42.0993 26.0793 42.0541C25.5649 41.9035 25.0455 42.3201 24.9919 42.9207C24.9065 43.8558 25.9386 44.714 26.9288 44.5183C27.79 44.351 28.4367 43.901 28.7367 43.0394C28.8623 42.6848 28.9997 42.3251 29.1338 41.9504Z" fill="#D86F3A"/>
<path d="M31.0204 10.2049C31.1561 9.85861 31.2734 9.50563 31.4292 9.16937C31.8129 8.3329 32.3574 7.6537 33.2187 7.2455C34.6361 6.57633 36.1374 7.63697 36.3569 8.97196C36.5362 10.061 36.124 10.9795 35.2259 11.5148C35.1507 11.5724 35.0638 11.6129 34.9712 11.6336C34.7702 11.6486 34.5658 11.6336 34.3613 11.6336C34.3725 11.4542 34.4023 11.2765 34.4502 11.1033C34.6747 10.5395 34.3764 10.0778 33.7649 10.0677C33.2103 10.0577 32.8383 10.3739 32.52 10.772C32.132 11.2925 31.8507 11.8843 31.6923 12.5135C31.5029 13.1626 31.4962 13.1626 30.8143 13.1727C30.3116 13.1727 29.7973 13.1727 29.2913 13.1877C29.0533 13.1978 28.9662 13.1091 28.9159 12.8849C28.7485 12.1108 28.4184 11.3809 27.9475 10.7436C27.6694 10.3755 27.3326 10.0845 26.8383 10.0744C26.2334 10.0577 25.9067 10.5562 26.1564 11.1033C26.1865 11.1685 26.2284 11.2271 26.2536 11.2923C26.3692 11.5901 26.2837 11.7306 25.967 11.7005C25.1729 11.6252 24.6987 11.1183 24.3954 10.4391C24.2484 10.1103 24.177 9.75274 24.1864 9.39274C24.1957 9.03274 24.2856 8.6794 24.4495 8.35859C24.6133 8.03779 24.847 7.75765 25.1334 7.53871C25.4197 7.31977 25.7515 7.16757 26.1044 7.09326C27.0008 6.91426 27.7062 7.35424 28.3161 7.95984C28.8791 8.52027 29.1974 9.23126 29.489 9.95564C29.5242 10.041 29.5577 10.1229 29.5962 10.2133C29.5962 10.2283 29.6364 10.23 29.7302 10.2635C29.6029 9.83352 29.5107 9.43703 29.3667 9.0623C29.1438 8.48012 28.9109 7.89125 28.6395 7.33918C27.9793 5.98411 28.0849 4.6625 28.807 3.38104C29.1589 2.76206 29.6448 2.20999 30.0637 1.63952C30.2312 1.412 30.3988 1.42873 30.5764 1.63952C31.2198 2.42747 31.8095 3.24219 32.1514 4.21918C32.3294 4.70134 32.4064 5.21487 32.3776 5.72795C32.3487 6.24103 32.2147 6.74274 31.9838 7.202C31.5264 8.15055 31.1276 9.12587 31.0204 10.2049Z" fill="#D86F3A"/>
</svg>
