<svg id="Layer_1" data-name="Layer 1" xmlns="http://www.w3.org/2000/svg" viewBox="0 0 566.93 566.93"><defs><style>.cls-1{fill:#aa5c9d;}</style></defs><path class="cls-1" d="M278.3,375.81c-4.44-.72-5.63-2.41-5.07-6.92.47-3.76,1.16-4.39,5-4.4q7.75,0,15.53,0c2.46,0,3.64,1.73,3.68,5.32.05,4.1-.92,5.67-3.57,5.78l-2.67.12c1.35,2.8,2.43,5.37,3.8,7.78a15.1,15.1,0,0,0,10.27,7.66c5.54,1.2,11.49-3.49,11.53-8.95,0-3.85-4-7.54-8.17-5.09-1.75-1.54-2.11-3.17-1.22-5.53,1.71-4.56,7.15-6.91,12.2-5.27,9.88,3.21,16.63,16.76,7.12,27.9a20.46,20.46,0,0,1-14.87,7.66c-8.42.35-15.81-2.06-20.5-9.82a1,1,0,0,0-.88-.43c.55,1.32,1.09,2.65,1.66,4,3.86,8.83,1.41,16.63-5.47,22.69-1.18,1-2.07.89-3.19-.14-7.63-7-9.19-15.4-4.51-24.69a4.54,4.54,0,0,0,.59-2.27,7.68,7.68,0,0,0-.94,1c-3.87,6.48-10,9.12-17.11,9.61-8.95.62-15.85-3.24-20.24-11-5.62-9.9.33-22.77,11.3-25a9.1,9.1,0,0,1,10.8,7.49,5.79,5.79,0,0,1-.73,2.88c-.66,1.51-1.65.5-2.57.23-3.08-.89-6.17,1.6-6.49,5.19-.51,5.59,5.65,10.72,11.56,9.55,5.14-1,9-3.69,10.78-8.84C276.68,380.2,277.49,378,278.3,375.81Z"/><path class="cls-1" d="M289.56,186.05c.8-2.06,1.51-4.17,2.43-6.18,2.3-5,5.54-9.07,10.68-11.5,8.47-4,17.43,2.34,18.73,10.31,1.07,6.52-1.39,12-6.75,15.21a3.86,3.86,0,0,1-1.51.71c-1.21.09-2.43,0-3.64,0a14.38,14.38,0,0,1,.53-3.18c1.34-3.37-.44-6.12-4.1-6.18-3.31-.06-5.53,1.83-7.42,4.2a29.46,29.46,0,0,0-4.95,10.42c-1.12,3.88-1.16,3.88-5.24,3.93-3,0-6.06,0-9.09.1-1.42,0-1.93-.47-2.24-1.81a33.16,33.16,0,0,0-5.78-12.8c-1.65-2.2-3.66-3.94-6.62-4-3.6-.1-5.56,2.89-4.06,6.16.17.38.42.73.57,1.13.7,1.78.19,2.62-1.71,2.44-4.74-.45-7.56-3.49-9.37-7.54a14.44,14.44,0,0,1,10.2-20c5.34-1.06,9.56,1.57,13.19,5.18,3.37,3.35,5.26,7.61,7,11.93.2.52.4,1,.64,1.55,0,.08.24.09.8.3-.77-2.57-1.31-4.94-2.17-7.18-1.33-3.48-2.72-6.95-4.35-10.3-3.93-8.11-3.31-16.05,1-23.66,2.1-3.7,5-7,7.5-10.41,1-1.36,2-1.26,3.07,0,3.84,4.71,7.35,9.58,9.4,15.42a22.48,22.48,0,0,1-1,17.83C292.58,173.78,290.19,179.6,289.56,186.05Z"/></svg>