<svg id="Layer_1" data-name="Layer 1" xmlns="http://www.w3.org/2000/svg" viewBox="0 0 511.43 543.56"><defs><style>.cls-1{fill:#be986a;}</style></defs><path class="cls-1" d="M170.36,250.26c-.65.09-.9-.36-1.22-.67C157.59,238.7,144.66,229.53,132,220c-6.36-4.82-6.4-4.76-.2-9.47q15.9-12.12,31.73-24.33c2.2-1.69,4.25-3.57,6.33-5.42,1.43-1.27,2.67-1.12,4.11.09,4.81,4.05,9.63,8.12,14.58,12,8.22,6.46,16.46,12.9,25.23,18.63.54.36,1.11.68,1.63,1.07,2.2,1.65,2.2,3-.11,4.48-8.68,5.52-16.77,11.86-25.05,17.94-6,4.44-11.79,9.27-17.64,14A6.62,6.62,0,0,1,170.36,250.26Z"/><path class="cls-1" d="M384,328.59c.22.85-.24,1.33-.91,1.79-14.18,9.81-27.31,21-41,31.47-1.75,1.35-2.73,1.61-4.57,0-10-9-21.19-16.46-31.88-24.57-2.58-2-5.17-3.9-7.73-5.9s-2.55-3,0-4.95q17.5-13.92,35-27.81c2.18-1.72,3.91-3.92,6.29-5.45,1.24-.79,1.93-.87,3,.13,9.17,9,19.42,16.62,29.52,24.46,3.06,2.38,6.39,4.42,9.55,6.67C382.71,325.41,384.22,326.45,384,328.59Z"/><path class="cls-1" d="M171.9,363.22a5.77,5.77,0,0,1-1.81-.87c-11.67-9.11-23.08-18.57-35-27.33-2.08-1.53-4.47-2.63-6.29-4.52-2.57-2.67-2.58-3.94.4-5.88,13.61-8.87,25.84-19.52,38.43-29.71,2-1.65,3.59-2.13,5.57-.12,7.39,7.49,16.22,13.19,24.46,19.62,5.19,4,10.46,8,15.7,11.94,2.68,2,2.61,2.64-.05,4.7-11.39,8.87-23.11,17.31-34,26.77a51.68,51.68,0,0,0-4.3,4.33A2.75,2.75,0,0,1,171.9,363.22Z"/><path class="cls-1" d="M384.56,214.37a5.24,5.24,0,0,1-2.69,3.95c-12.18,8.45-23.43,18.12-35.16,27.17a42,42,0,0,0-4.25,4,1.94,1.94,0,0,1-3.11.1c-11.86-11-25.68-19.43-38-29.8-1.28-1.08-2.56-2.14-3.76-3.29-2.11-2-2-2.77.47-4.5,10.48-7.32,20.88-14.73,30.76-22.85,3.29-2.7,6.47-5.52,9.91-8.06,1.55-1.15,2.54-1,3.83.12,10.46,9.16,21.75,17.28,32.66,25.86,2.55,2,5.24,3.82,7.84,5.75C383.7,213.28,384.5,213.69,384.56,214.37Z"/><path class="cls-1" d="M95.41,272.26c.25.69-.22,1-.69,1.35a5.6,5.6,0,0,1-1.18.69C76.15,281,66,294.55,58.86,310.93a28.57,28.57,0,0,1-2,3.93c-1.58,2.47-3,2.42-4.38-.27-1.53-2.94-2.85-6-4.27-9-6.69-14-16.25-25.33-30.55-32.13-1-.46-2.26-.92-2.21-2.22s1.44-1.22,2.3-1.64c15.18-7.51,25.8-19.22,32.21-34.85a39.35,39.35,0,0,1,3.24-7,3.4,3.4,0,0,1,3-1.79c1.37.08,1.9,1.35,2.23,2.53a65.92,65.92,0,0,0,7.58,16.84c5,8.17,11.89,14.35,19.94,19.38,2.67,1.66,5.29,3.4,7.88,5.18C94.57,270.44,95.52,271,95.41,272.26Z"/><path class="cls-1" d="M454.44,225.29a2.85,2.85,0,0,1,2,1.8l4.65,9.44c7.07,14.3,17.42,25.39,31.83,32.52a17.41,17.41,0,0,1,1.73.86c.6.38,1.48.63,1.38,1.54s-.82,1.19-1.49,1.51c-2.57,1.24-5.24,2.3-7.73,3.7-13.27,7.42-21.49,19.22-27.89,32.55-.8,1.67-1.51,3.37-2.24,5.07-.42,1-.49,2.27-2,2.27s-2-1-2.63-2.12c-1.61-2.92-2.56-6.12-3.86-9.16C442,291,432.06,280.61,417.52,274.81a20.2,20.2,0,0,1-2.27-1c-1.1-.61-2.68-.94-2.69-2.49,0-1.74,1.66-2.21,2.89-2.57,14.36-4.1,24-13.76,31.11-26.35,2.81-5,6.1-9.72,6.85-15.61C453.56,225.61,453.93,225.34,454.44,225.29Z"/><path class="cls-1" d="M443.31,456.4c-1.4.23-2-.8-2.52-2-1.92-4.59-5.24-8.24-8.08-12.22-3.73-5.22-9.53-7.87-14.25-11.83a23,23,0,0,1-1.93-1.59c-1.09-1.13-1.2-2.32.21-3.27a39,39,0,0,1,5.4-3.38c7.94-3.64,12.78-10.11,16.56-17.63A42.7,42.7,0,0,1,441,400.1c1.7-2.52,3.24-2.51,4.79.1,2.66,4.44,5,9.05,8.36,13.07a55.76,55.76,0,0,0,15.42,13c1,.58,2.33,1.06,2.15,2.57-.15,1.29-1.45,1.2-2.33,1.62-8.89,4.17-14.91,11.36-20.18,19.32-1.07,1.62-2,3.32-3,5A3.09,3.09,0,0,1,443.31,456.4Z"/><path class="cls-1" d="M95.83,114c-.36,1.46-1.54,2.09-2.65,2.72a48.83,48.83,0,0,0-17.34,16.09,58,58,0,0,0-4.49,8.59c-.58,1.33-1,3-2.77,3.1s-2.38-1.47-3.15-2.73c-2.14-3.56-4.23-7.16-6.49-10.65-4.16-6.43-10-11.17-16.23-15.39-3-2-3.13-2.94-.06-4.55A50.3,50.3,0,0,0,65.39,86.88c.84-1.83,2.62-1.69,4,.45a92.84,92.84,0,0,0,5.34,7.76c5.32,6.49,11,12.54,18.61,16.44C94.42,112.06,95.55,112.62,95.83,114Z"/><path class="cls-1" d="M471.64,113.4c.1,1.06-.63,1.53-1.4,1.87-8.65,3.83-14.46,10.72-19.45,18.38-2,3.08-3.52,6.48-5.25,9.74-1.08,2-1.94,2.15-3.44.39A7.21,7.21,0,0,1,441,141.9a51,51,0,0,0-22.72-25.31c-3-1.67-3.11-2.85-.39-5a10.15,10.15,0,0,1,1.85-1.21c10.38-4.94,16.84-13.58,22.11-23.34.42-.76.73-1.56,1.72-1.46a3.14,3.14,0,0,1,2.47,2,61.86,61.86,0,0,0,6.66,10.2,46.73,46.73,0,0,0,11,10.5,13.56,13.56,0,0,0,5,2.2A3.29,3.29,0,0,1,471.64,113.4Z"/><path class="cls-1" d="M68,398.33c1.42.24,2.07,1.48,2.68,2.74a61.5,61.5,0,0,0,9.17,14.47c3,3.36,6.64,5.88,10.28,8.42.68.48,1.44.86,2.11,1.34,3.19,2.32,3.17,3.63-.09,5.77-2.09,1.36-4.25,2.63-6.29,4.06a41.73,41.73,0,0,0-14.73,17.69,7.73,7.73,0,0,1-1.73,2.81C67.62,457.25,66,457,65,454.89a56,56,0,0,0-22.92-24.58c-1.95-1.13-1.52-2.06-.25-3.06,2.54-2,5.35-3.69,7.76-5.84,6.72-6,13.18-12.2,16.23-21.05C66.37,398.78,66.91,398.36,68,398.33Z"/><path class="cls-1" d="M144.62,267.57c-9.61,0-18.65-1.54-27.76-2.34-5-.43-8.73-6.45-7.85-11.61s6.46-8.75,11.74-7.7a14.31,14.31,0,0,1,9.27,5.65c5.44,7.92,13.94,10.07,22.33,12.55,1.17.34,3.16.19,3.05,1.57-.13,1.54-2.07,1.36-3.46,1.51A49.94,49.94,0,0,1,144.62,267.57Z"/><path class="cls-1" d="M156.52,276.55c-3.59,2.43-7.46,3.1-11.07,4.29-5.74,1.9-10.78,4.54-14.68,9.38-3.22,4-7.28,6.78-12.89,6.37a8.74,8.74,0,0,1-8.43-8c-.49-5.51,1.9-9,6.88-10,10.44-2,20.91-3.8,31.6-3.71A19.42,19.42,0,0,1,156.52,276.55Z"/><path class="cls-1" d="M355.4,266.11c1.31-1.31,3.08-1.24,4.62-1.75,2.79-.93,5.6-1.82,8.46-2.51,5.16-1.24,8.68-4.56,11.75-8.65a17.34,17.34,0,0,1,9.66-6.62c4.67-1.2,9,.72,11,4.79s.4,10.35-3,12.83a10.46,10.46,0,0,1-5.52,1.58c-11,.94-21.89,2.54-32.94,1.81C357.92,267.5,356.51,267.37,355.4,266.11Z"/><path class="cls-1" d="M354.35,276.86a29.3,29.3,0,0,1,11.77-1.76c9,.67,18.06,1.64,27.08,2.56,5.67.58,9.72,5.8,8.71,11-1.1,5.77-6.51,9.09-12.34,7.64a13.54,13.54,0,0,1-8-5.15c-5.87-8.32-14.56-11.16-23.86-13.05-.63-.13-1.24-.34-1.86-.53C355.57,277.52,355.35,277.37,354.35,276.86Z"/><path class="cls-1" d="M321.34,268.9a.5.5,0,0,1,0-.24c.16-.63-.07-1-.68-1.27-2.12-1-4.06-2.29-6.3-3-11.84-3.86-22.85-9.28-32.45-17.33s-17-17.65-20.59-29.84c-.34-1.73-1.22-1.91-2.64-1a5.68,5.68,0,0,1-6.9-.29c-.42-.32-.89-1-1.54-.3a8.2,8.2,0,0,1-.33,2.3c-2.72,9.43-8.25,17.2-14.9,24.11-7.19,7.46-15.95,12.88-25.34,17.18-6,2.75-11.89,5.93-18.48,7.21a2.43,2.43,0,0,0-1.6,1.32c-1.36,2.57.2,6.63,3,7.71s5.58,2,8.3,3.19c7.91,3.33,16,6.39,22.85,11.74a136.78,136.78,0,0,1,14.78,13.79,26.62,26.62,0,0,1,4.93,6.25,122.4,122.4,0,0,1,7.17,17.28c.81.26,1.35-.27,1.89-.68,2.47-1.89,4.94-2.19,7.49-.18.36.28.75.59,1.27.33.6-3.5,2.35-6.56,3.69-9.78,5.47-13.14,15.28-22.42,27-29.76a114.55,114.55,0,0,1,24.5-12.06C319.86,274.39,322.12,272.89,321.34,268.9Zm-34.6,4.51a105.89,105.89,0,0,0-20.09,14.14c-3.16,2.94-6.16,6-9.21,9.08-2.25,2.24-2.62,2.31-4.92,0a191.34,191.34,0,0,0-14.88-14,84.33,84.33,0,0,0-13.53-9.26c-2.8-1.48-2.86-2.27,0-3.79a104.12,104.12,0,0,0,18.7-12.92,86.48,86.48,0,0,0,10.43-10.09c1.39-1.68,2.51-1.72,4-.13,8.61,9.11,18.64,16.41,29.39,22.77a5,5,0,0,1,2.33,2.24C288.56,272.51,287.62,272.91,286.74,273.41Z"/><path class="cls-1" d="M234.11,439.51a154.61,154.61,0,0,1-34.48-22.1c-11.63-10.05-20.78-21.54-25-36.55a9.36,9.36,0,0,0-2.39-4.34c-2.37-2.26-4-2.69-5.26.74-6.78,18.09-19,32.17-33,45-8.24,7.59-18,13-27.28,19-2.25,1.44-2.36,2.56-.1,4,1.25.79,2.58,1.44,3.85,2.21,24.35,14.9,45.66,32.61,55.89,60.55a4.59,4.59,0,0,0,3.5,3,2.85,2.85,0,0,0,2.62-1.58,27.4,27.4,0,0,0,1.67-3.5c3.84-8.51,7.14-17.35,13.52-24.42a125.86,125.86,0,0,1,29.06-23.95,139.62,139.62,0,0,1,17.13-8.45c2.24-.95,5-2.16,5.14-4.94S236.25,440.54,234.11,439.51Zm-32.53,6.09c-5.72,3.92-11.66,7.54-16.8,12.27s-9.11,10.23-13.23,15.71c-1.77,2.35-2.39,2.47-3.87-.08-5.18-8.89-12.5-15.76-20.42-22.12a61.75,61.75,0,0,0-9.89-6.1c-2.65-1.4-2.62-2.19,0-3.64,12.28-6.85,21.95-16.59,30.46-27.6,2.35-3.05,3.56-3.12,5.54.07,7,11.22,16.58,19.56,27.91,26.1,1.1.63,2.46,1,2.44,2.06C203.69,444.36,202.55,444.93,201.58,445.6Z"/><path class="cls-1" d="M406.71,99.43a2.5,2.5,0,0,0-1.83-1.93A18.68,18.68,0,0,1,400,95c-8.08-5.56-16.21-11.06-23.67-17.45-7.82-6.7-15.52-13.51-21.14-22.32-4-6.33-8-12.63-10.3-19.87-.56-1.81-1.6-3.34-3.55-3.62-2.12.23-2.74,1.76-3.31,3.21a97.72,97.72,0,0,1-4.73,11.21C323.59,63.89,309.4,76.87,291.54,86,286,88.82,280.49,91.59,275,94.36c-1.69.84-2.8,2-2.84,4s1.36,2.67,2.73,3.45c.48.28,1,.54,1.47.79a161.4,161.4,0,0,1,40.45,28c9.14,8.77,16.12,19,19.49,31.41a9.74,9.74,0,0,0,2.76,5c1.34,1.19,2.49,1.15,3.84-.05,2-1.79,2.52-4.28,3.33-6.61,1.58-4.56,3.12-9.11,6-13.08,14.07-19.4,31-35.49,52.77-46.09C405.74,100.91,406.88,100.62,406.71,99.43ZM372.79,102a84.93,84.93,0,0,0-29.66,27.85c-2,3.06-3,3-5.14-.05-7.72-11.16-16.87-20.83-28.72-27.74-3-1.72-2.86-3.09.07-5,9.48-6.24,18.44-13.07,25.13-22.43,1.46-2,2.73-4.18,4-6.3a4.82,4.82,0,0,1,2-1.91,4,4,0,0,1,2.43,2.1c6.5,11.75,16.39,20.15,27.2,27.63a26.45,26.45,0,0,0,2.61,1.56C375.92,99.4,376,100.2,372.79,102Z"/><path class="cls-1" d="M402.69,439.88c-15-7.54-27.93-17.85-39.29-30.08-8.17-8.81-15.13-18.5-18.17-30.42-.53-2.07-1.51-3.75-3.46-4.26s-3.46,1.05-4.53,2.59a15.59,15.59,0,0,0-1.6,3.49c-.88,2.33-1.56,4.73-2.52,7-8.18,19.5-22.92,32.94-40.69,43.39-5.31,3.13-11.16,5.31-16.69,8.07-1.67.84-3.7,1.8-3.54,4.17.15,2.14,1.68,3.37,3.56,4.23,7.14,3.29,13.83,7.42,20.7,11.22,18.17,10.05,31.16,24.75,39.3,43.81.83,1.94,1.29,4,2.42,5.87.84,1.37,1.91,2.34,3.54,2.22s2-1.56,2.49-2.93a64.25,64.25,0,0,1,8.23-17.2,127.25,127.25,0,0,1,23.47-25.88c9.26-7.69,18.76-15.09,29.69-20.37.6-.29,1.18-.53,1.16-1.37C406,441.61,404.32,440.7,402.69,439.88Zm-30,5.57a66.9,66.9,0,0,0-14.07,9.82c-6.25,5.44-12,11.29-16.33,18.42-1.58,2.6-2.37,2.62-3.78.05C332,462,322,453.93,310.85,447c-5.49-3.39-5.58-4.53,0-7.78,10.84-6.35,19.44-15,26.85-25,2.22-3,2.68-3.08,5.26-.39,1.6,1.66,2.9,3.6,4.39,5.37a99.3,99.3,0,0,0,25.57,21.57,4.73,4.73,0,0,1,2.3,2.42C374.93,444.54,373.67,445,372.67,445.45Z"/><path class="cls-1" d="M235.41,94.16c-12.22-4.69-23-11.75-33.3-19.73-9.27-7.2-17.75-15.13-23.29-25.77-2.19-4.2-3.72-8.65-5.7-12.92-.77-1.65-1.43-4-3.47-3.93s-2.78,2.32-3.46,4.16a83.37,83.37,0,0,1-11.36,21.18c-9,11.89-20,21.58-32.32,29.84-5.23,3.5-10.72,6.57-16,10-2.13,1.38-2.21,3.18-.12,4.57a35.91,35.91,0,0,0,5.38,2.85,53.3,53.3,0,0,1,7.85,4.11,159.29,159.29,0,0,1,30.88,26.63c6.89,7.62,12.34,16.15,15.33,26.1a24.19,24.19,0,0,0,1.88,4.59c1.37,2.51,3,2.69,5,.59a9.71,9.71,0,0,0,1.83-2.75c1-2.38,2-4.8,2.81-7.26a53.13,53.13,0,0,1,11.34-19.88,136.35,136.35,0,0,1,39-29.57c3-1.49,5.84-3.2,8.72-4.86a5.39,5.39,0,0,0,3-4.27C239.16,95.53,237.19,94.85,235.41,94.16Zm-33.49,8.38c-11.61,5.87-19.79,15.34-27.29,25.57-.76,1-1.58,2-2.41,3a2.17,2.17,0,0,1-1.61.9c-1.58-.51-2.36-1.81-3.16-3.05A74.85,74.85,0,0,0,148,108.6a59.52,59.52,0,0,0-9.74-5.81c-1.23-.57-2.87-1.07-2.93-2.66s1.63-1.78,2.72-2.41c11.82-7,21.82-15.86,29-27.71.29-.48.57-1,.89-1.41,1.53-2.11,2.66-2.16,3.93.08A74.4,74.4,0,0,0,186,85.75c4.81,4.53,10.46,7.92,15.94,11.53C205.22,99.47,205.31,100.83,201.92,102.54Z"/></svg>