<svg width="100" height="100" viewBox="0 0 100 100" fill="none" xmlns="http://www.w3.org/2000/svg">
<path d="M33.3103 46.0408C33.1832 46.0574 33.1343 45.9746 33.0717 45.9176C30.8133 43.9141 28.2851 42.2271 25.8097 40.4738C24.5662 39.5871 24.5583 39.5981 25.7706 38.7316C27.8432 37.2451 29.9113 35.7531 31.9748 34.2556C32.405 33.9446 32.8058 33.5988 33.2125 33.2584C33.4921 33.0248 33.7346 33.0524 34.0161 33.275C34.9566 34.0201 35.8991 34.7688 36.867 35.4827C38.4742 36.6711 40.0854 37.8559 41.8002 38.9101C41.9058 38.9763 42.0172 39.0352 42.1189 39.1069C42.5491 39.4105 42.5491 39.6588 42.0974 39.9311C40.4002 40.9466 38.8183 42.113 37.1994 43.2316C36.0262 44.0484 34.8941 44.937 33.7502 45.8072C33.6213 45.9115 33.4718 45.9909 33.3103 46.0408Z" fill="#233565"/>
<path d="M75.0839 60.4516C75.1269 60.608 75.0369 60.6963 74.9059 60.7809C72.1333 62.5857 69.566 64.6443 66.8892 66.5705C66.547 66.8189 66.3554 66.8667 65.9956 66.5705C64.0403 64.9148 61.8523 63.5423 59.7621 62.0503C59.2576 61.6824 58.7512 61.3328 58.2507 60.9649C57.7501 60.5969 57.7521 60.413 58.2507 60.0542C60.5318 58.3469 62.813 56.6415 65.0942 54.9379C65.5205 54.6215 65.8587 54.2168 66.3241 53.9353C66.5666 53.79 66.7015 53.7752 66.9107 53.9592C68.7037 55.615 70.7079 57.0168 72.6827 58.4592C73.2811 58.897 73.9322 59.2723 74.5501 59.6863C74.8316 59.8666 75.1269 60.0579 75.0839 60.4516Z" fill="#233565"/>
<path d="M33.6121 66.8226C33.4851 66.7891 33.3653 66.735 33.2582 66.6625C30.9764 64.9866 28.7454 63.2462 26.4146 61.6346C26.0079 61.3531 25.5406 61.1507 25.1848 60.803C24.6822 60.3118 24.6803 60.0782 25.263 59.7213C27.9241 58.0894 30.3155 56.1301 32.7772 54.2555C33.1682 53.9519 33.4791 53.8636 33.8663 54.2334C35.3113 55.6113 37.0378 56.66 38.649 57.8429C39.6638 58.5788 40.6942 59.3147 41.7188 60.0395C42.2428 60.4075 42.2291 60.5252 41.709 60.9042C39.4819 62.536 37.1903 64.0888 35.061 65.8292C34.7643 66.0789 34.4835 66.3449 34.2202 66.6258C34.1549 66.7158 34.0605 66.7837 33.9509 66.8191C33.8413 66.8546 33.7225 66.8558 33.6121 66.8226Z" fill="#233565"/>
<path d="M75.193 39.4382C75.1728 39.5898 75.1146 39.7348 75.0231 39.8612C74.9317 39.9876 74.8096 40.0916 74.667 40.1648C72.2854 41.7194 70.0857 43.4984 67.7921 45.1634C67.4973 45.3902 67.2197 45.6361 66.9611 45.8993C66.9274 45.9449 66.8828 45.9825 66.8308 46.009C66.7789 46.0355 66.7211 46.0503 66.662 46.0521C66.6029 46.0539 66.5442 46.0426 66.4906 46.0193C66.437 45.996 66.3899 45.9612 66.353 45.9177C64.0341 43.894 61.3318 42.3431 58.9229 40.4353C58.6726 40.2366 58.4223 40.0416 58.1877 39.83C57.7751 39.4621 57.7966 39.3204 58.2796 39.0021C60.3288 37.6555 62.3623 36.2922 64.2941 34.7984C64.9374 34.3016 65.5592 33.7828 66.2318 33.3156C66.5349 33.104 66.7285 33.1316 66.9807 33.3376C69.0259 35.0228 71.2335 36.5167 73.3667 38.0952C73.8653 38.4631 74.3913 38.7979 74.8997 39.153C75.0248 39.2376 75.1812 39.3131 75.193 39.4382Z" fill="#233565"/>
<path d="M18.6554 50.0882C18.7043 50.2152 18.6124 50.2722 18.5205 50.3366C18.4494 50.3876 18.3719 50.4302 18.2897 50.4635C14.8895 51.6961 12.9048 54.189 11.5088 57.2024C11.3984 57.4526 11.2677 57.6943 11.1177 57.9255C10.8088 58.3799 10.5311 58.3707 10.2613 57.8758C9.96211 57.3349 9.70401 56.7719 9.42636 56.22C8.11826 53.6444 6.24899 51.56 3.45291 50.309C3.25738 50.2244 3.01101 50.1397 3.02079 49.9006C3.03057 49.6614 3.30235 49.6761 3.47051 49.5989C6.43866 48.2172 8.51519 46.0629 9.76854 43.1874C9.93438 42.7397 10.1466 42.3083 10.4021 41.8996C10.459 41.7999 10.5437 41.7167 10.647 41.6587C10.7503 41.6007 10.8684 41.5701 10.9886 41.5703C11.2565 41.585 11.3602 41.8187 11.4247 42.0358C11.7618 43.1288 12.2607 44.1717 12.9068 45.1339C13.8844 46.6369 15.2317 47.7739 16.8057 48.6992C17.3277 49.0046 17.84 49.3247 18.3464 49.6522C18.4911 49.7534 18.6769 49.8564 18.6554 50.0882Z" fill="#233565"/>
<path d="M88.8568 41.4473C88.9459 41.4679 89.0282 41.5089 89.0965 41.5667C89.1647 41.6245 89.2167 41.6972 89.2478 41.7784L90.1571 43.5151C91.5394 46.1459 93.5632 48.1862 96.3808 49.4979C96.4966 49.5447 96.6095 49.5975 96.719 49.6561C96.8364 49.726 97.0084 49.772 96.9889 49.9394C96.9693 50.1068 96.8285 50.1584 96.6975 50.2172C96.195 50.4454 95.673 50.6404 95.1861 50.8979C92.5914 52.263 90.9841 54.4339 89.7328 56.8862C89.5763 57.1935 89.4375 57.5062 89.2948 57.819C89.2126 58.0029 89.199 58.2366 88.9037 58.2366C88.6085 58.2366 88.5126 58.0526 88.3895 57.8466C88.0747 57.3094 87.8889 56.7206 87.6347 56.1614C86.4244 53.5361 84.4808 51.6246 81.6378 50.5576C81.486 50.5049 81.3378 50.4434 81.1939 50.3736C80.9789 50.2614 80.6699 50.2007 80.668 49.9155C80.668 49.5954 80.9926 49.5089 81.2331 49.4427C84.0409 48.6884 85.9258 46.9112 87.316 44.595C87.8654 43.6752 88.5087 42.8068 88.6554 41.7232C88.6847 41.5061 88.7571 41.4565 88.8568 41.4473Z" fill="#233565"/>
<path d="M86.6804 83.9651C86.4067 84.0074 86.2893 83.8179 86.1877 83.5971C85.8123 82.7527 85.1631 82.0812 84.6078 81.349C83.8785 80.3887 82.7444 79.9011 81.8215 79.1726C81.6901 79.0816 81.5642 78.984 81.4441 78.8801C81.231 78.6722 81.2095 78.4533 81.4852 78.2785C81.8185 78.0445 82.1716 77.8365 82.541 77.6567C84.0935 76.987 85.0399 75.7967 85.779 74.4133C85.9122 74.1367 86.0624 73.8676 86.2287 73.6075C86.5611 73.1438 86.8622 73.1457 87.1653 73.6259C87.6854 74.4427 88.143 75.2908 88.7999 76.0304C89.6421 76.9934 90.6638 77.8039 91.815 78.422C92.0106 78.5287 92.2706 78.617 92.2354 78.8948C92.2061 79.1321 91.9519 79.1156 91.7798 79.1929C90.0416 79.96 88.8645 81.2828 87.834 82.7472C87.6248 83.0452 87.443 83.358 87.2474 83.6671C87.1929 83.7624 87.1106 83.8411 87.0101 83.8939C86.9097 83.9467 86.7953 83.9714 86.6804 83.9651Z" fill="#233565"/>
<path d="M18.738 20.9728C18.6676 21.2414 18.4369 21.3574 18.2199 21.4733C16.8489 22.1836 15.6846 23.2001 14.8294 24.4334C14.4904 24.9362 14.1967 25.4648 13.9514 26.0137C13.838 26.2584 13.7559 26.5656 13.4098 26.584C13.0637 26.6024 12.9444 26.3136 12.7939 26.0818C12.3755 25.4268 11.9668 24.7645 11.5249 24.1225C10.7115 22.9395 9.56959 22.0675 8.35144 21.2911C7.76485 20.9232 7.73943 20.7502 8.33971 20.454C10.318 19.4817 11.886 17.9052 12.7861 15.9835C12.9503 15.6468 13.2984 15.6726 13.5682 16.0663C13.8903 16.5585 14.2388 17.035 14.6123 17.4939C15.6525 18.6879 16.7632 19.8009 18.2511 20.5184C18.4623 20.6159 18.6833 20.719 18.738 20.9728Z" fill="#233565"/>
<path d="M92.22 20.8623C92.2395 21.0574 92.0968 21.1438 91.9462 21.2064C90.2549 21.911 89.1188 23.1786 88.1432 24.5878C87.7521 25.1544 87.4549 25.7799 87.1166 26.3797C86.9054 26.7476 86.7373 26.7752 86.444 26.4514C86.3541 26.3471 86.2816 26.2304 86.2289 26.1056C85.358 24.1209 83.7899 22.4773 81.7865 21.4492C81.1999 21.142 81.1784 20.9249 81.7102 20.5294C81.8218 20.443 81.9431 20.3683 82.0719 20.3068C84.1015 19.3979 85.3647 17.8084 86.3951 16.0128C86.4772 15.873 86.5379 15.7258 86.7314 15.7442C86.8394 15.7596 86.9411 15.8018 87.026 15.8665C87.1109 15.9312 87.176 16.016 87.2144 16.1122C87.5818 16.7765 88.018 17.405 88.5166 17.9887C89.1167 18.7388 89.8432 19.3913 90.6674 19.9204C90.9608 20.1163 91.2934 20.254 91.6451 20.3252C91.7919 20.3391 91.929 20.4001 92.0337 20.4979C92.1384 20.5957 92.2041 20.7244 92.22 20.8623Z" fill="#233565"/>
<path d="M13.2957 73.2817C13.5733 73.3259 13.7004 73.554 13.8197 73.7858C14.2824 74.7475 14.886 75.6436 15.6127 76.4479C16.1993 77.0661 16.911 77.5297 17.6227 77.997C17.7557 78.0853 17.9043 78.1552 18.0353 78.2435C18.6591 78.6703 18.6551 78.9113 18.0177 79.305C17.6091 79.5552 17.1867 79.7888 16.7878 80.0519C15.5225 80.8612 14.5244 81.989 13.9077 83.3064C13.8358 83.4996 13.7204 83.676 13.5694 83.8234C13.2214 84.1214 12.9046 84.0754 12.7091 83.6872C11.7425 81.7837 10.1782 80.2053 8.22752 79.1652C7.84624 78.9573 7.93032 78.7862 8.17864 78.6022C8.67529 78.2343 9.22473 77.9234 9.69596 77.5278C11.0099 76.424 12.273 75.2834 12.8694 73.6552C12.977 73.3645 13.0825 73.2873 13.2957 73.2817Z" fill="#233565"/>
<path d="M28.2771 49.2256C26.3981 49.2256 24.6305 48.9423 22.8492 48.7951C21.8716 48.716 21.1422 47.6085 21.3143 46.6592C21.4864 45.7099 22.5774 45.0495 23.6098 45.2426C24.3357 45.3517 24.9868 45.725 25.4224 46.2821C26.4861 47.7391 28.1481 48.1347 29.7886 48.5909C30.0173 48.6535 30.4064 48.6259 30.3849 48.8798C30.3595 49.1631 29.9802 49.13 29.7084 49.1576C29.2337 49.2132 28.7553 49.236 28.2771 49.2256Z" fill="#233565"/>
<path d="M30.6045 50.8773C29.9026 51.3244 29.1459 51.4476 28.44 51.6666C27.3177 52.0161 26.3322 52.5018 25.5696 53.3922C24.94 54.1281 24.1462 54.6396 23.0493 54.5641C22.6305 54.5515 22.2313 54.3947 21.9274 54.1234C21.6236 53.852 21.4362 53.4851 21.4009 53.0923C21.3051 52.0787 21.7724 51.4366 22.7462 51.2526C24.7875 50.8847 26.8347 50.5535 28.9249 50.5701C29.5024 50.5509 30.0768 50.656 30.6045 50.8773Z" fill="#233565"/>
<path d="M69.4912 48.9568C69.7474 48.7158 70.0934 48.7287 70.3946 48.6349C70.9401 48.4638 71.4895 48.3 72.0487 48.1731C73.0577 47.945 73.746 47.3342 74.3462 46.5817C74.8067 45.982 75.4744 45.5514 76.2351 45.3638C77.1482 45.1431 77.9948 45.4963 78.3859 46.2451C78.7769 46.9938 78.4641 48.1492 77.7993 48.6054C77.4754 48.7952 77.1015 48.8958 76.72 48.8961C74.5691 49.069 72.4398 49.3634 70.2792 49.2291C69.9839 49.2125 69.7082 49.1886 69.4912 48.9568Z" fill="#233565"/>
<path d="M69.2861 50.9348C70.0216 50.6799 70.8049 50.5697 71.5875 50.611C73.3473 50.7343 75.1188 50.9127 76.8825 51.082C77.9911 51.1887 78.783 52.149 78.5855 53.1057C78.3705 54.1672 77.3126 54.778 76.1727 54.5112C75.5466 54.3838 74.9909 54.0472 74.6085 53.5638C73.4607 52.0331 71.7615 51.5106 69.9431 51.1629C69.8199 51.139 69.7007 51.1004 69.5794 51.0654C69.5247 51.0562 69.4817 51.0286 69.2861 50.9348Z" fill="#233565"/>
<path d="M62.8313 49.4701C62.8275 49.4556 62.8275 49.4405 62.8313 49.426C62.8626 49.31 62.8176 49.242 62.6983 49.1923C62.2838 49.0083 61.9045 48.771 61.4665 48.6404C59.1514 47.9303 56.9986 46.9331 55.1215 45.4521C53.2444 43.9712 51.7975 42.205 51.0956 39.9624C51.0291 39.6441 50.857 39.611 50.5794 39.7784C50.3795 39.9103 50.139 39.9765 49.8952 39.9669C49.6513 39.9572 49.4176 39.8722 49.2302 39.7251C49.1481 39.6662 49.0562 39.5411 48.9291 39.6699C48.929 39.8131 48.9073 39.9556 48.8646 40.093C48.3327 41.8279 47.2514 43.2574 45.9512 44.5286C44.5453 45.901 42.8325 46.8982 40.9964 47.6893C39.8232 48.1952 38.6716 48.7802 37.383 49.0157C37.3151 49.0319 37.2518 49.0621 37.1977 49.1041C37.1436 49.1461 37.1 49.1988 37.0702 49.2585C36.8043 49.7313 37.1093 50.4783 37.6568 50.677C38.2043 50.8757 38.7478 51.0449 39.2797 51.2638C40.8263 51.8765 42.4082 52.4394 43.7475 53.4237C44.776 54.2011 45.742 55.0491 46.6375 55.9606C47.0182 56.2963 47.3432 56.6839 47.6014 57.1105C48.1543 58.135 48.623 59.1977 49.0034 60.2895C49.1618 60.3373 49.2674 60.2398 49.3729 60.1644C49.8559 59.8167 50.3389 59.7615 50.8375 60.1313C50.9079 60.1828 50.9841 60.2398 51.0858 60.192C51.2031 59.5481 51.5453 58.9852 51.8073 58.3928C52.8768 55.9754 54.795 54.2681 57.0866 52.9177C58.5837 52.0011 60.192 51.2562 61.8771 50.699C62.5419 50.4801 62.9838 50.2042 62.8313 49.4701ZM56.0659 50.2998C54.6537 51.0206 53.3354 51.8936 52.1377 52.9012C51.5199 53.4421 50.9333 54.005 50.3369 54.5717C49.897 54.9838 49.8246 54.9966 49.3749 54.5717C48.4545 53.665 47.4833 52.8052 46.4654 51.996C45.6445 51.3487 44.7584 50.7781 43.8199 50.2925C43.2724 50.0202 43.2607 49.8748 43.8199 49.5952C45.1272 48.9308 46.3533 48.1338 47.4763 47.2183C48.2102 46.6544 48.8924 46.0334 49.5157 45.362C49.7875 45.0529 50.0065 45.0456 50.2978 45.3381C51.9813 47.0141 53.9425 48.3571 56.0444 49.5271C56.2406 49.6133 56.4008 49.7582 56.5 49.9392C56.4218 50.1342 56.238 50.2078 56.0659 50.2998Z" fill="#233565"/>
<path d="M45.7756 80.8575C43.3466 79.7895 41.0795 78.4223 39.0337 76.7917C36.7597 74.9428 34.9706 72.829 34.1455 70.0675C34.0688 69.7667 33.9073 69.4909 33.6782 69.2691C33.2147 68.8533 32.896 68.7742 32.6497 69.4053C31.324 72.7333 28.9346 75.3236 26.1972 77.684C24.586 79.0804 22.6776 80.0756 20.8631 81.1795C20.4232 81.4444 20.4017 81.6504 20.8436 81.9154C21.088 82.0607 21.348 82.1803 21.5963 82.3219C26.3575 85.0631 30.5243 88.3213 32.5245 93.4615C32.5767 93.6021 32.6675 93.7272 32.7877 93.8241C32.9079 93.9211 33.0532 93.9864 33.2089 94.0134C33.3148 94.0158 33.4193 93.9897 33.51 93.9382C33.6007 93.8867 33.674 93.812 33.7212 93.7227C33.846 93.5156 33.9552 93.3004 34.0477 93.0788C34.7985 91.5132 35.4438 89.8869 36.6913 88.5862C38.3397 86.8577 40.2552 85.3724 42.3734 84.1801C43.4508 83.5905 44.5699 83.0711 45.7228 82.6255C46.1608 82.4507 46.7005 82.2281 46.7278 81.7167C46.7552 81.2052 46.194 81.047 45.7756 80.8575ZM39.415 81.9779C38.2966 82.6991 37.1351 83.3651 36.1301 84.2353C35.1251 85.1054 34.3488 86.1173 33.5432 87.1255C33.1971 87.5578 33.0759 87.5799 32.7865 87.1107C31.7737 85.4752 30.3424 84.2113 28.7938 83.0413C28.1881 82.6108 27.5407 82.2351 26.86 81.919C26.3419 81.6615 26.3477 81.5162 26.86 81.2494C29.2611 79.9892 31.1519 78.1973 32.8159 76.1718C33.2754 75.6106 33.512 75.5978 33.8991 76.1846C35.2678 78.2488 37.141 79.7831 39.3563 80.9863C39.5714 81.1022 39.8374 81.1703 39.8334 81.3653C39.8276 81.7498 39.6047 81.8547 39.415 81.9779Z" fill="#233565"/>
<path d="M79.5236 18.2924C79.5055 18.2076 79.4623 18.1292 79.399 18.0664C79.3357 18.0036 79.2549 17.9589 79.1658 17.9374C78.8254 17.8291 78.5039 17.6741 78.2116 17.4774C76.6317 16.4546 75.042 15.4427 73.5834 14.2671C72.0543 13.0345 70.5488 11.7817 69.4499 10.1609C68.6678 8.99632 67.8856 7.8373 67.4359 6.50534C67.3264 6.17235 67.1231 5.89087 66.7418 5.83936C66.3273 5.88167 66.206 6.16315 66.0946 6.42991C65.8321 7.13476 65.5232 7.82354 65.1697 8.49224C63.2711 11.7541 60.4966 14.142 57.0044 15.8217C55.9211 16.3405 54.8438 16.8501 53.7703 17.3597C53.4399 17.5142 53.2228 17.7276 53.215 18.0956C53.2072 18.4635 53.4809 18.5868 53.7488 18.7303C53.8427 18.7818 53.9443 18.8296 54.0362 18.8756C56.9369 20.2024 59.6043 21.9396 61.9454 24.0269C63.7326 25.6403 65.0974 27.5223 65.7563 29.8054C65.8345 30.1559 66.0224 30.4763 66.296 30.7253C66.558 30.9442 66.7828 30.9369 67.0468 30.7161C67.4379 30.3868 67.5395 29.9287 67.6979 29.5C68.0069 28.6611 68.308 27.824 68.8711 27.0937C71.6222 23.5246 74.9325 20.5645 79.1892 18.6144C79.3339 18.5647 79.5568 18.5114 79.5236 18.2924ZM72.8912 18.7653C70.5454 20.0058 68.5552 21.7641 67.0918 23.8889C66.7007 24.4518 66.5052 24.4408 66.0868 23.8797C64.5773 21.8266 62.7882 20.0475 60.4711 18.7763C59.8845 18.4599 59.9119 18.2078 60.4848 17.8564C62.3384 16.7084 64.0904 15.4519 65.3985 13.7299C65.684 13.362 65.9323 12.9609 66.1806 12.5709C66.2717 12.4203 66.4076 12.2982 66.5717 12.2195C66.6749 12.2495 66.7705 12.2994 66.8523 12.3658C66.934 12.4323 67.0003 12.5141 67.0468 12.6059C68.3178 14.7675 70.2515 16.3129 72.3652 17.689C72.5294 17.7938 72.6997 17.8896 72.8756 17.976C73.5032 18.2869 73.5189 18.4341 72.8912 18.7653Z" fill="#233565"/>
<path d="M78.7382 80.9258C75.8052 79.5387 73.277 77.6419 71.0558 75.3919C69.4583 73.7711 68.0974 71.9885 67.503 69.7955C67.3994 69.4147 67.2077 69.1056 66.8264 69.0118C66.4452 68.918 66.1499 69.205 65.9407 69.4883C65.8087 69.6893 65.7036 69.905 65.6279 70.1303C65.4558 70.559 65.3228 71.0005 65.1351 71.4181C63.5357 75.0056 60.6536 77.4782 57.179 79.4007C56.1407 79.9765 54.9969 80.3776 53.9156 80.8854C53.5891 81.0399 53.1921 81.2165 53.2234 81.6525C53.2527 82.0462 53.5519 82.2725 53.9195 82.4307C55.3156 83.036 56.6237 83.7958 57.967 84.4949C61.5198 86.3438 64.0597 89.0482 65.6513 92.5547C65.8136 92.9116 65.9035 93.2906 66.1245 93.6346C66.2887 93.8867 66.498 94.0651 66.8167 94.0431C67.1354 94.021 67.2077 93.7561 67.3035 93.504C67.6697 92.3798 68.2121 91.3133 68.9128 90.3397C70.2025 88.5617 71.7468 86.9595 73.5019 85.5785C75.3125 84.1637 77.17 82.8023 79.3071 81.831C79.4245 81.7776 79.5379 81.7335 79.534 81.5789C79.3854 81.2441 79.0569 81.0767 78.7382 80.9258ZM72.8722 81.9506C71.8766 82.4392 70.952 83.0464 70.1211 83.7572C68.8991 84.758 67.7748 85.8342 66.9281 87.1459C66.6192 87.6243 66.4647 87.6279 66.189 87.1551C64.9161 84.9953 62.9608 83.5106 60.7807 82.2357C59.7072 81.6121 59.6896 81.4023 60.7807 80.8044C62.9002 79.6362 64.5818 78.0448 66.0306 76.2051C66.4647 75.6532 66.5547 75.6385 67.0591 76.1334C67.372 76.4387 67.6262 76.7957 67.9175 77.1213C69.3336 78.7006 71.0241 80.0424 72.9172 81.0896C73.1197 81.1816 73.2795 81.3399 73.3669 81.5348C73.3102 81.7831 73.0639 81.8678 72.8683 81.9506H72.8722Z" fill="#233565"/>
<path d="M46.0301 17.323C43.6407 16.4602 41.5329 15.1613 39.5189 13.6932C37.7063 12.3686 36.0482 10.9097 34.965 8.95227C34.5368 8.17958 34.2376 7.36091 33.8505 6.57534C33.6999 6.27179 33.5709 5.83945 33.172 5.85233C32.7731 5.86521 32.6284 6.27915 32.4955 6.61766C31.959 8.01063 31.2108 9.32311 30.2742 10.5142C28.5145 12.7016 26.3636 14.4843 23.9547 16.0039C22.9321 16.6478 21.8586 17.2126 20.8262 17.8436C20.4097 18.0975 20.3941 18.4287 20.8028 18.6844C21.137 18.8869 21.4889 19.0623 21.8547 19.2087C22.3878 19.4202 22.9012 19.6732 23.3896 19.9648C25.617 21.3478 27.6463 22.9943 29.4276 24.864C30.7748 26.2659 31.8404 27.8352 32.4251 29.6657C32.5165 29.9583 32.6397 30.2413 32.7927 30.5101C33.0605 30.9719 33.3793 31.005 33.7703 30.6187C33.9194 30.4705 34.0404 30.2994 34.1281 30.1128C34.3237 29.6749 34.5192 29.2297 34.6776 28.7771C35.1255 27.4209 35.8822 26.1728 36.8949 25.1198C39.0672 22.8885 41.6507 21.0455 44.5206 19.6797C45.1072 19.4056 45.6625 19.091 46.2256 18.7856C46.3861 18.7121 46.5241 18.6015 46.6267 18.4641C46.7293 18.3266 46.7931 18.167 46.8122 18C46.7633 17.575 46.3781 17.4499 46.0301 17.323ZM39.4817 18.8647C37.2116 19.9446 35.6122 21.6868 34.1457 23.5689C33.9971 23.7528 33.8368 23.9368 33.6745 24.1208C33.6382 24.1684 33.5911 24.208 33.5367 24.2366C33.4823 24.2652 33.4219 24.2822 33.3597 24.2864C33.0508 24.1925 32.8982 23.9534 32.7418 23.7252C31.7374 22.2616 30.4469 20.9905 28.9388 19.9796C28.3415 19.567 27.7038 19.2091 27.0343 18.9107C26.7938 18.8058 26.4731 18.7138 26.4614 18.4213C26.4497 18.1288 26.7801 18.0938 26.9932 17.9779C29.3044 16.6901 31.2597 15.0601 32.6636 12.8801C32.7203 12.7918 32.7751 12.6961 32.8376 12.6207C33.1368 12.2325 33.3577 12.2233 33.6061 12.6354C34.3552 13.8061 35.2865 14.8646 36.3689 15.7758C37.3094 16.6092 38.4142 17.2329 39.4857 17.897C40.127 18.2999 40.1446 18.5501 39.4817 18.8647Z" fill="#233565"/>
</svg>
