<svg id="Layer_1" data-name="Layer 1" xmlns="http://www.w3.org/2000/svg" viewBox="0 0 595.28 566.93"><defs><style>.cls-1{fill:#d86f3a;}</style></defs><path class="cls-1" d="M212.29,261.94c-.65.09-.9-.36-1.23-.66-11.55-10.9-24.48-20.07-37.09-29.62-6.36-4.81-6.4-4.76-.21-9.47q15.92-12.1,31.74-24.33c2.19-1.69,4.25-3.57,6.33-5.41,1.43-1.27,2.67-1.12,4.1.08,4.82,4.05,9.63,8.12,14.58,12,8.22,6.47,16.47,12.9,25.23,18.63.55.36,1.11.68,1.63,1.07,2.2,1.66,2.2,3-.11,4.48-8.67,5.53-16.77,11.87-25,17.94-6,4.44-11.79,9.27-17.64,14A6.8,6.8,0,0,1,212.29,261.94Z"/><path class="cls-1" d="M426,340.28c.21.84-.24,1.32-.92,1.79-14.17,9.81-27.3,21-41,31.47-1.76,1.35-2.74,1.6-4.58-.05-10-9-21.18-16.46-31.87-24.56-2.59-2-5.18-3.91-7.73-5.91s-2.56-3-.05-4.95q17.51-13.92,35-27.81c2.19-1.72,3.92-3.91,6.3-5.44,1.24-.8,1.93-.88,2.95.13,9.18,8.95,19.42,16.62,29.52,24.45,3.07,2.38,6.39,4.42,9.56,6.68C424.64,337.09,426.14,338.14,426,340.28Z"/><path class="cls-1" d="M213.82,374.9A5.52,5.52,0,0,1,212,374c-11.68-9.11-23.08-18.57-35-27.33-2.09-1.53-4.47-2.63-6.3-4.52-2.57-2.66-2.57-3.93.4-5.87,13.61-8.88,25.85-19.53,38.43-29.72,2-1.64,3.6-2.13,5.58-.12,7.39,7.49,16.22,13.19,24.46,19.62,5.18,4.05,10.46,8,15.7,11.94,2.68,2,2.6,2.64,0,4.71-11.39,8.86-23.12,17.31-34,26.76a54.91,54.91,0,0,0-4.3,4.33A2.72,2.72,0,0,1,213.82,374.9Z"/><path class="cls-1" d="M426.49,226.05A5.27,5.27,0,0,1,423.8,230c-12.19,8.45-23.44,18.12-35.16,27.17a42,42,0,0,0-4.25,4,1.94,1.94,0,0,1-3.11.1c-11.86-11-25.68-19.43-38-29.8-1.27-1.07-2.56-2.14-3.76-3.29-2.1-2-2-2.77.48-4.49,10.47-7.32,20.87-14.74,30.75-22.86,3.29-2.7,6.48-5.52,9.91-8.06,1.56-1.14,2.55-1,3.83.12,10.47,9.16,21.75,17.28,32.67,25.87,2.54,2,5.23,3.81,7.83,5.74C425.62,225,426.42,225.37,426.49,226.05Z"/><path class="cls-1" d="M137.34,283.94c.24.7-.23,1-.69,1.35a5.94,5.94,0,0,1-1.19.69c-17.38,6.7-27.51,20.25-34.67,36.63a29.72,29.72,0,0,1-2,3.93c-1.58,2.48-3,2.42-4.38-.26-1.53-2.95-2.85-6-4.28-9-6.69-14-16.24-25.33-30.55-32.13-1-.46-2.26-.92-2.21-2.22s1.44-1.21,2.3-1.64c15.19-7.5,25.81-19.22,32.22-34.84a38.67,38.67,0,0,1,3.23-7,3.38,3.38,0,0,1,3-1.79c1.37.08,1.91,1.34,2.24,2.52A65.42,65.42,0,0,0,107.87,257c5,8.17,11.89,14.36,19.94,19.38,2.66,1.66,5.28,3.41,7.88,5.18C136.5,282.12,137.45,282.7,137.34,283.94Z"/><path class="cls-1" d="M496.36,237a2.85,2.85,0,0,1,2,1.79l4.65,9.44c7.06,14.31,17.42,25.39,31.82,32.52a18.82,18.82,0,0,1,1.74.87c.6.37,1.47.63,1.38,1.54s-.83,1.19-1.49,1.51c-2.58,1.23-5.25,2.3-7.74,3.69-13.27,7.43-21.48,19.23-27.89,32.56-.8,1.66-1.5,3.37-2.23,5.06-.43,1-.49,2.28-2,2.27s-2-1-2.63-2.12c-1.62-2.92-2.56-6.11-3.87-9.16C484,302.68,474,292.29,459.44,286.49a18.56,18.56,0,0,1-2.27-1c-1.1-.61-2.67-.94-2.69-2.49,0-1.73,1.66-2.21,2.9-2.56,14.35-4.11,24-13.77,31.1-26.36,2.82-5,6.1-9.72,6.86-15.61C495.48,237.29,495.86,237,496.36,237Z"/><path class="cls-1" d="M485.24,468.09c-1.41.22-2-.8-2.53-2-1.92-4.58-5.23-8.23-8.08-12.21-3.72-5.22-9.52-7.87-14.25-11.84-.64-.54-1.35-1-1.93-1.58-1.09-1.13-1.2-2.32.22-3.28a40.48,40.48,0,0,1,5.39-3.38c7.94-3.64,12.79-10.11,16.57-17.62a38.27,38.27,0,0,1,2.26-4.42c1.7-2.52,3.23-2.52,4.79.09,2.66,4.44,5,9.06,8.36,13.07a55.4,55.4,0,0,0,15.41,13c1,.58,2.33,1.06,2.15,2.58-.15,1.29-1.44,1.19-2.33,1.61-8.89,4.18-14.91,11.37-20.18,19.33-1.07,1.61-2,3.32-3,5A3.12,3.12,0,0,1,485.24,468.09Z"/><path class="cls-1" d="M137.75,125.63c-.35,1.46-1.53,2.09-2.65,2.72a48.74,48.74,0,0,0-17.33,16.1,59.39,59.39,0,0,0-4.5,8.58c-.58,1.33-1,3-2.76,3.11s-2.39-1.47-3.15-2.74c-2.15-3.56-4.24-7.16-6.5-10.65-4.16-6.43-10-11.17-16.22-15.39-3-2-3.14-2.93-.06-4.55a50.26,50.26,0,0,0,22.73-24.24c.85-1.84,2.63-1.69,4,.44a87.37,87.37,0,0,0,5.33,7.76c5.32,6.5,11,12.55,18.62,16.44C136.34,123.75,137.47,124.3,137.75,125.63Z"/><path class="cls-1" d="M513.57,125.08c.1,1.06-.64,1.53-1.4,1.87-8.65,3.84-14.46,10.72-19.46,18.38-2,3.08-3.52,6.48-5.25,9.74-1.07,2-1.94,2.15-3.43.4a7.91,7.91,0,0,1-1.15-1.88,50.92,50.92,0,0,0-22.72-25.31c-3-1.68-3.11-2.85-.38-5a10.15,10.15,0,0,1,1.85-1.21c10.37-4.93,16.84-13.57,22.11-23.33.41-.77.73-1.57,1.71-1.47a3.13,3.13,0,0,1,2.47,2,62.51,62.51,0,0,0,6.66,10.2,47.17,47.17,0,0,0,11,10.51,13.75,13.75,0,0,0,5,2.19A3.31,3.31,0,0,1,513.57,125.08Z"/><path class="cls-1" d="M109.9,410c1.43.24,2.08,1.48,2.68,2.73a61.86,61.86,0,0,0,9.18,14.47c3,3.37,6.63,5.89,10.27,8.43.69.47,1.44.85,2.11,1.34,3.19,2.32,3.17,3.63-.08,5.76-2.09,1.37-4.25,2.63-6.29,4.07A41.6,41.6,0,0,0,113,464.5a7.72,7.72,0,0,1-1.73,2.82c-1.76,1.61-3.37,1.36-4.38-.74A56,56,0,0,0,84,442c-1.94-1.13-1.52-2.05-.25-3.06,2.55-2,5.35-3.69,7.76-5.83,6.72-6,13.19-12.21,16.24-21.05C108.29,410.47,108.83,410,109.9,410Z"/><path class="cls-1" d="M186.55,279.26c-9.61,0-18.66-1.55-27.76-2.35-5-.43-8.73-6.45-7.85-11.6s6.46-8.76,11.73-7.7a14.27,14.27,0,0,1,9.27,5.64c5.44,7.92,13.94,10.07,22.34,12.55,1.16.34,3.16.19,3,1.57-.13,1.54-2.06,1.36-3.46,1.51A49.9,49.9,0,0,1,186.55,279.26Z"/><path class="cls-1" d="M198.44,288.23c-3.58,2.43-7.45,3.1-11.07,4.29-5.74,1.9-10.77,4.54-14.68,9.38-3.21,4-7.27,6.79-12.89,6.37a8.74,8.74,0,0,1-8.43-8c-.49-5.51,1.91-9,6.89-10,10.44-2,20.91-3.8,31.59-3.71A19.53,19.53,0,0,1,198.44,288.23Z"/><path class="cls-1" d="M397.32,277.8c1.31-1.32,3.09-1.25,4.62-1.76,2.79-.92,5.6-1.82,8.46-2.51,5.17-1.24,8.68-4.55,11.76-8.65a17.34,17.34,0,0,1,9.66-6.62c4.66-1.2,9,.72,11,4.8s.41,10.34-3,12.83a10.52,10.52,0,0,1-5.52,1.58c-11,.93-21.89,2.53-32.94,1.81C399.84,279.18,398.43,279.05,397.32,277.8Z"/><path class="cls-1" d="M396.27,288.54A29.13,29.13,0,0,1,408,286.79c9,.66,18.06,1.63,27.09,2.55,5.66.59,9.71,5.8,8.71,11-1.11,5.77-6.51,9.09-12.35,7.64a13.6,13.6,0,0,1-8-5.14c-5.86-8.32-14.56-11.17-23.85-13.06a17.14,17.14,0,0,1-1.86-.53A16.3,16.3,0,0,1,396.27,288.54Z"/><path class="cls-1" d="M363.26,280.58a.62.62,0,0,1,0-.23,1,1,0,0,0-.68-1.28c-2.13-.95-4.06-2.29-6.31-3-11.83-3.86-22.85-9.28-32.44-17.32s-17-17.65-20.59-29.85c-.34-1.73-1.23-1.9-2.65-1a5.69,5.69,0,0,1-6.9-.3c-.41-.31-.89-1-1.54-.29a7.62,7.62,0,0,1-.33,2.3c-2.72,9.43-8.25,17.2-14.9,24.1-7.19,7.46-15.94,12.88-25.34,17.18-6,2.75-11.88,5.93-18.48,7.22a2.37,2.37,0,0,0-1.59,1.31c-1.36,2.58.19,6.63,3,7.71s5.57,2,8.3,3.19c7.91,3.33,15.94,6.39,22.84,11.74a134.06,134.06,0,0,1,14.78,13.8,26.41,26.41,0,0,1,4.93,6.25,122.82,122.82,0,0,1,7.18,17.27c.8.27,1.35-.27,1.89-.68,2.46-1.89,4.93-2.19,7.49-.18.35.28.75.6,1.27.33.6-3.5,2.34-6.55,3.69-9.78,5.46-13.14,15.27-22.42,27-29.76a114.82,114.82,0,0,1,24.51-12.05C361.78,286.07,364,284.58,363.26,280.58Zm-34.59,4.51a106,106,0,0,0-20.1,14.15c-3.16,2.93-6.16,6-9.21,9.07-2.24,2.24-2.61,2.31-4.91,0a191.11,191.11,0,0,0-14.88-14A85.13,85.13,0,0,0,266,285c-2.79-1.48-2.85-2.27,0-3.79a103.76,103.76,0,0,0,18.7-12.92,85.09,85.09,0,0,0,10.44-10.09c1.38-1.67,2.5-1.71,4-.13,8.62,9.11,18.64,16.41,29.39,22.77a5,5,0,0,1,2.33,2.25C330.48,284.2,329.55,284.6,328.67,285.09Z"/><path class="cls-1" d="M276,451.19a154.63,154.63,0,0,1-34.49-22.09c-11.63-10.05-20.77-21.55-25-36.55a9.35,9.35,0,0,0-2.39-4.34c-2.38-2.27-4-2.7-5.27.73-6.77,18.09-19,32.18-33,45-8.24,7.58-17.94,13-27.28,19-2.25,1.44-2.35,2.56-.1,4,1.25.79,2.59,1.44,3.85,2.21,24.35,14.9,45.66,32.6,55.89,60.54a4.59,4.59,0,0,0,3.51,3,2.85,2.85,0,0,0,2.62-1.58,28.68,28.68,0,0,0,1.67-3.49c3.83-8.52,7.14-17.36,13.51-24.43a125.87,125.87,0,0,1,29.07-23.94,139.55,139.55,0,0,1,17.12-8.46c2.25-.95,5-2.16,5.15-4.94S278.17,452.22,276,451.19Zm-32.53,6.09c-5.73,3.93-11.66,7.55-16.8,12.27s-9.11,10.23-13.23,15.71c-1.77,2.36-2.39,2.47-3.87-.07-5.18-8.9-12.5-15.77-20.42-22.13a61.79,61.79,0,0,0-9.9-6.09c-2.65-1.41-2.61-2.2,0-3.65,12.28-6.85,21.95-16.58,30.45-27.6,2.35-3,3.56-3.12,5.54.08,7,11.22,16.59,19.55,27.91,26.09,1.1.64,2.46,1,2.44,2.06C245.62,456,244.48,456.62,243.51,457.28Z"/><path class="cls-1" d="M448.64,111.11a2.53,2.53,0,0,0-1.84-1.93,18.47,18.47,0,0,1-4.91-2.49c-8.08-5.56-16.22-11.06-23.68-17.45-7.82-6.7-15.52-13.5-21.14-22.32-4-6.32-8-12.63-10.29-19.87-.57-1.81-1.6-3.34-3.56-3.62-2.11.23-2.73,1.77-3.31,3.21a96.85,96.85,0,0,1-4.73,11.22c-9.66,17.71-23.86,30.69-41.72,39.82-5.51,2.82-11,5.59-16.58,8.36-1.69.85-2.8,2-2.83,4s1.36,2.67,2.73,3.46q.72.4,1.47.78a162,162,0,0,1,40.45,28c9.14,8.77,16.11,19,19.48,31.41a9.88,9.88,0,0,0,2.76,5c1.35,1.2,2.49,1.15,3.84-.05,2-1.79,2.52-4.28,3.33-6.61,1.59-4.56,3.13-9.1,6-13.07,14.06-19.4,31-35.49,52.76-46.09C447.67,112.59,448.8,112.31,448.64,111.11Zm-33.93,2.59a84.78,84.78,0,0,0-29.65,27.84c-2,3.06-3,3-5.14,0-7.73-11.17-16.88-20.84-28.73-27.75-3-1.72-2.85-3.09.07-5,9.49-6.24,18.45-13.07,25.14-22.42,1.45-2,2.73-4.18,4.05-6.3a4.76,4.76,0,0,1,2-1.92,4,4,0,0,1,2.44,2.11c6.49,11.74,16.38,20.14,27.2,27.62a23.67,23.67,0,0,0,2.61,1.56C417.85,111.08,418,111.88,414.71,113.7Z"/><path class="cls-1" d="M444.61,451.56a138.41,138.41,0,0,1-39.29-30.08c-8.17-8.81-15.13-18.5-18.17-30.42-.53-2.07-1.51-3.75-3.45-4.26s-3.47,1.06-4.54,2.59a15.8,15.8,0,0,0-1.6,3.49c-.87,2.33-1.56,4.73-2.52,7-8.17,19.5-22.92,32.93-40.69,43.39-5.3,3.12-11.15,5.31-16.68,8.07-1.68.83-3.7,1.79-3.54,4.16.15,2.14,1.68,3.38,3.55,4.24,7.15,3.28,13.84,7.41,20.71,11.21,18.16,10.06,31.15,24.76,39.29,43.81.83,1.94,1.29,4,2.42,5.87.85,1.37,1.91,2.34,3.55,2.22s2.05-1.56,2.48-2.93a65,65,0,0,1,8.23-17.2,127.27,127.27,0,0,1,23.48-25.87c9.25-7.7,18.75-15.1,29.68-20.38.6-.29,1.19-.52,1.17-1.37C447.92,453.29,446.24,452.38,444.61,451.56Zm-30,5.58A66,66,0,0,0,400.53,467c-6.25,5.44-12,11.29-16.34,18.43-1.58,2.59-2.36,2.62-3.77,0-6.47-11.77-16.49-19.81-27.65-26.69-5.49-3.39-5.57-4.54,0-7.79,10.84-6.35,19.44-15,26.86-25,2.21-3,2.68-3.09,5.26-.4,1.59,1.66,2.89,3.61,4.38,5.38a99.58,99.58,0,0,0,25.58,21.57,4.67,4.67,0,0,1,2.3,2.41C416.86,456.23,415.6,456.64,414.6,457.14Z"/><path class="cls-1" d="M277.34,105.84c-12.23-4.69-23-11.75-33.31-19.72-9.26-7.21-17.74-15.13-23.29-25.78-2.19-4.2-3.71-8.65-5.7-12.92-.77-1.65-1.43-4-3.46-3.93s-2.78,2.33-3.47,4.16a83.17,83.17,0,0,1-11.35,21.18c-9,11.9-20,21.58-32.33,29.85-5.23,3.49-10.71,6.56-16,10-2.14,1.38-2.21,3.18-.12,4.57a35.81,35.81,0,0,0,5.37,2.85,54.28,54.28,0,0,1,7.85,4.11,159.06,159.06,0,0,1,30.89,26.64c6.89,7.62,12.34,16.14,15.33,26.09a23.86,23.86,0,0,0,1.87,4.6c1.37,2.5,3,2.68,5,.58a10,10,0,0,0,1.83-2.75c1-2.38,2-4.79,2.81-7.25a52.9,52.9,0,0,1,11.34-19.89,136.39,136.39,0,0,1,39-29.57c3-1.49,5.83-3.2,8.72-4.85a5.43,5.43,0,0,0,2.95-4.27C281.08,107.21,279.12,106.53,277.34,105.84Zm-33.49,8.39c-11.61,5.86-19.8,15.33-27.29,25.56-.76,1-1.59,2.05-2.41,3a2.14,2.14,0,0,1-1.62.9c-1.57-.51-2.36-1.8-3.15-3A74.78,74.78,0,0,0,190,120.28a58.69,58.69,0,0,0-9.74-5.81c-1.22-.56-2.87-1.07-2.93-2.65s1.64-1.78,2.72-2.42c11.83-7,21.82-15.85,29-27.71a15.75,15.75,0,0,1,.89-1.4c1.52-2.12,2.65-2.16,3.93.07,3.71,6.51,8.68,12,14.08,17.07,4.81,4.53,10.46,7.93,16,11.54C247.14,111.15,247.23,112.52,243.85,114.23Z"/></svg>