<svg id="Layer_2" data-name="Layer 2" xmlns="http://www.w3.org/2000/svg" viewBox="0 0 566.93 566.93"><defs><style>.cls-1{fill:#094e92;}.cls-2{fill:#c19560;}</style></defs><path class="cls-1" d="M178.18,396c-9.44-17.42-12.86-35.17-10.74-54.12A102.18,102.18,0,0,1,178,306.5c7.19-14.13,17.61-25.37,30.48-34.57,14.61-10.45,30.82-17,48.28-20.46a130,130,0,0,1,56.75,1.21,173,173,0,0,1,36.09,12.92A137.59,137.59,0,0,1,392.37,299c8.78,10,14.94,21.31,19.64,33.59.37,1,.92,1.86,0,3.2-2.76-3.48-5.47-6.86-8.14-10.27-17-21.64-38.63-36.1-65.68-41.38a131,131,0,0,0-76.44,7.62,134.78,134.78,0,0,0-38,23.59A139.36,139.36,0,0,0,193.23,353,136.49,136.49,0,0,0,178.18,396Z"/><path class="cls-2" d="M410.06,306.64c-4.35-6.69-8.32-13.1-13.22-18.89a155.37,155.37,0,0,0-26.31-24.63,190.48,190.48,0,0,0-79.27-34.21,166.61,166.61,0,0,0-51.64-1.45c-27.29,3.44-52,13.33-73.26,31.19A104.17,104.17,0,0,0,152,273a3.08,3.08,0,0,1-2.53,1.55,59.31,59.31,0,0,1,2.28-13.86c5-19.36,14-36.43,28.87-50.09a97.43,97.43,0,0,1,50-24.55,111.25,111.25,0,0,1,29.39-1.42A154.13,154.13,0,0,1,302.63,195a186,186,0,0,1,52.94,31.63,202.79,202.79,0,0,1,41.38,48,109.83,109.83,0,0,1,13.12,29A4,4,0,0,1,410.06,306.64Z"/><path class="cls-1" d="M416.78,294.67a184.38,184.38,0,0,0-11.85-27.05A221.66,221.66,0,0,0,376.59,227a196.89,196.89,0,0,0-25.42-24.52,239.16,239.16,0,0,0-52-32.14c-14.57-6.48-29.56-11.49-45.25-14-20.43-3.28-40.71-2.95-60.27,5a1.81,1.81,0,0,1-1.91.05c8-11.48,17.42-21.42,29.56-28.55,20.48-12,42.43-13.91,65.22-9.17,18.81,3.91,35,13.14,49.84,25.09,16.64,13.37,30.05,29.63,41.79,47.2,14,20.95,25.25,43.34,32.51,67.62A241,241,0,0,1,417.35,291,4.48,4.48,0,0,1,416.78,294.67Z"/><path class="cls-2" d="M413.08,243.84c-2.26-6.07-4.1-12.28-6.62-18.25A348.72,348.72,0,0,0,386.22,185a264.83,264.83,0,0,0-24.91-35.94c-15-18.1-32.07-34-52.4-46.2a130.49,130.49,0,0,0-45-17.08A72.4,72.4,0,0,1,284,78a92.1,92.1,0,0,1,52.8,3.41,80,80,0,0,1,32.41,22.53c17.74,19.93,27,43.9,33.58,69.16A350.23,350.23,0,0,1,412,225.86c.61,5.95,1.41,11.87,2.13,17.81Z"/><path class="cls-2" d="M210.94,359.44c20.68-14.39,42.11-28.2,65.88-36.54s50.32-10.89,74.1-2.6S395,349,399,373.87c3.62,22.6-5.94,44.92-10.85,67.28S385,491,404,503.71c-17,.62-28.78-10.22-38.27-24.28s-14-30.77-18.88-47-10.29-32.84-21.12-45.9c-13.84-16.7-35.17-25.79-56.61-29.06S232.53,357.47,210.94,359.44Z"/><path class="cls-1" d="M328.9,494.72l-17-58.85c-4.15-14.34-8.54-29.15-18.18-40.54-14.31-16.89-39.79-23.22-60.33-15-9.81,3.93-18.68,11.27-22.33,21.19-5.17,14,2.43,31.5,16.24,37.28s31.58-1.05,38-14.59c0,.32,7.33-1.41,10.89.47s6.46,4.8,9.23,7.73C303.11,451.26,327.62,493.76,328.9,494.72Z"/></svg>