<svg id="Layer_2" data-name="Layer 2" xmlns="http://www.w3.org/2000/svg" viewBox="0 0 595.28 566.93"><defs><style>.cls-1{fill:#094e92;}.cls-2{fill:#c19560;}</style></defs><path class="cls-1" d="M100.56,315.63a71.86,71.86,0,0,1-8.63-43.5,82.22,82.22,0,0,1,8.49-28.47c5.78-11.36,14.16-20.39,24.5-27.79a99.31,99.31,0,0,1,38.81-16.44,104.48,104.48,0,0,1,45.61,1,139,139,0,0,1,29,10.39,110.84,110.84,0,0,1,34.37,26.83,87.44,87.44,0,0,1,15.77,27c.31.8.75,1.5,0,2.58-2.22-2.8-4.39-5.52-6.54-8.26-13.63-17.39-31.05-29-52.79-33.26a105.3,105.3,0,0,0-61.44,6.13,108.42,108.42,0,0,0-30.55,19A111.92,111.92,0,0,0,112.66,281,109.42,109.42,0,0,0,100.56,315.63Z"/><path class="cls-1" d="M307.39,268.29a77.43,77.43,0,0,1,4.15-12.35c3.32-8.42,8.58-15.57,14.62-22.3,15.06-16.79,34-26.55,55.49-32.28a102,102,0,0,1,30.56-3.83,114,114,0,0,1,40.68,9c11.39,4.86,21.76,11.23,30.18,20.46,9.1,10,14.86,21.73,18.08,34.75,4.38,17.69,2.13,34.83-4.53,51.56-.28.68-.59,1.35-1.07,2.46-.6-2.9-1-5.45-1.67-7.94s-1.35-5-2.19-7.43a116.85,116.85,0,0,0-43.55-56.88,108.86,108.86,0,0,0-44.73-18A111.82,111.82,0,0,0,375,224.5a82.38,82.38,0,0,0-45.22,18.07,86.91,86.91,0,0,0-21.34,25.19C308.37,267.88,308.14,267.92,307.39,268.29Z"/><path class="cls-1" d="M286.93,243.77c-3.49-5.38-6.69-10.53-10.62-15.18a125.9,125.9,0,0,0-21.15-19.8,153.32,153.32,0,0,0-63.72-27.49,133.75,133.75,0,0,0-41.5-1.17C128,182.9,108.15,190.84,91.06,205.2a83.78,83.78,0,0,0-11.57,11.57,2.49,2.49,0,0,1-2,1.24,48.48,48.48,0,0,1,1.83-11.13c4-15.57,11.27-29.29,23.21-40.26a78.26,78.26,0,0,1,40.15-19.74,89.44,89.44,0,0,1,23.62-1.14,124.43,124.43,0,0,1,34.33,8.3,149.83,149.83,0,0,1,42.55,25.42,163,163,0,0,1,33.25,38.62,88.11,88.11,0,0,1,10.55,23.34A3.22,3.22,0,0,1,286.93,243.77Z"/><path class="cls-1" d="M517.61,218.08c-7.32-8-15-15.09-24-20.61a117.47,117.47,0,0,0-37.26-14.64,146.33,146.33,0,0,0-40.57-2.7,141.23,141.23,0,0,0-52.9,13.79,136.21,136.21,0,0,0-30.38,20.18A125.73,125.73,0,0,0,312,236.36c-1,1.39-1.49,3.1-3.21,4.42.23-3.44,1.81-6.08,3-8.76a133.13,133.13,0,0,1,16.58-28,163.85,163.85,0,0,1,32.35-31.37c15.63-11.35,32.58-19.71,51.42-24.23,19.19-4.59,38.12-4.25,56.55,3.13A79.47,79.47,0,0,1,499.86,174c9.4,11,14.76,23.66,17.46,37.66a4.75,4.75,0,0,1,.13,1.4C517.29,214.59,518.23,216.11,517.61,218.08Z"/><path class="cls-1" d="M303,234.67c-1.15-2.16-.16-3.87.14-5.44A181.44,181.44,0,0,1,320,179.67a226.63,226.63,0,0,1,27.93-42.46c9.34-11,19.7-20.83,31.93-28.6a84.42,84.42,0,0,1,34.72-12.85c15.92-2.07,31,0,45.2,7.78,9.13,5,16.24,12.18,22.13,20.65.44.64,1.26,1.49.6,2.24s-1.51.23-2.31-.05c-11.34-4-23.11-4.89-34.95-4.07a135.08,135.08,0,0,0-41.71,9.55A185.88,185.88,0,0,0,359,157.79a142.08,142.08,0,0,0-17.89,16.33,202.44,202.44,0,0,0-25.85,35.22A189.43,189.43,0,0,0,303,234.67Z"/><path class="cls-1" d="M292.33,234.15a149,149,0,0,0-9.52-21.74A178.14,178.14,0,0,0,260,179.73,158.47,158.47,0,0,0,239.6,160a192.38,192.38,0,0,0-41.77-25.83,146.89,146.89,0,0,0-36.37-11.27c-16.42-2.64-32.72-2.37-48.44,4a1.47,1.47,0,0,1-1.53,0c6.44-9.24,14-17.22,23.76-23,16.45-9.66,34.1-11.18,52.41-7.37,15.12,3.14,28.12,10.56,40.06,20.16,13.37,10.75,24.15,23.82,33.59,37.94,11.25,16.83,20.29,34.84,26.12,54.35a190.88,190.88,0,0,1,5.36,22.08A3.62,3.62,0,0,1,292.33,234.15Z"/><path class="cls-1" d="M425.46,66.78c-4.95,1.24-9.69,1.91-14.22,3.41a112.48,112.48,0,0,0-35,19.44,200.63,200.63,0,0,0-36.66,39,256.11,256.11,0,0,0-25.13,43.11,200.65,200.65,0,0,0-7.51,19,5.67,5.67,0,0,1-1.48,2.78c.39-4.18.63-8,1.13-11.88,1.5-11.51,3-23,5.45-34.38,3.61-16.44,8.37-32.49,16.34-47.41,6.73-12.6,15.34-23.65,27.63-31.27,12.92-8,27.06-11.11,42.27-9.91a73.31,73.31,0,0,1,23,5.81C422.6,65,423.84,65.88,425.46,66.78Z"/><path class="cls-1" d="M289.36,193.3c-1.82-4.88-3.3-9.87-5.32-14.67A280.73,280.73,0,0,0,267.77,146a213.29,213.29,0,0,0-20-28.89C235.66,102.58,222,89.83,205.63,80a104.77,104.77,0,0,0-36.17-13.72A58.6,58.6,0,0,1,185.59,60,74.13,74.13,0,0,1,228,62.74a64.5,64.5,0,0,1,26.05,18.11c14.26,16,21.71,35.29,27,55.59a281.68,281.68,0,0,1,7.41,42.41c.49,4.78,1.14,9.54,1.71,14.31Z"/><path class="cls-2" d="M298.19,219.43a4.45,4.45,0,0,1-1.23-3.22c-.39-9-.66-17.92-1.2-26.86A293.11,293.11,0,0,0,291.25,152a469.06,469.06,0,0,0-11.71-49,193.75,193.75,0,0,0-11.22-29.11c-3.05-6.2-7.51-11.37-11.76-16.76,1.66-.49,1.7-.57,5,1A49.67,49.67,0,0,1,283.3,78.39a38.48,38.48,0,0,1,4.54,10.83c.12.51-.07,1.3.81,1.1s.45-.93.38-1.42c-.65-5-1.37-9.93-2-14.9-1.46-11-2.35-22,.35-33a12.46,12.46,0,0,1,.42-1.31c.13-.33.3-.65.58-1.24,3.12,3.11,4.87,6.89,6.8,10.51,4.66,8.69,6.11,18.18,6.72,27.87a171.71,171.71,0,0,1,0,25.76c-.07.8-.57,1.86.81,2.65,4.38-22.65,14.69-40.74,37.39-49.27A91.9,91.9,0,0,0,326.65,77c-5.82,12.23-9.79,25.15-13.49,38.14q-5,17.6-8.6,35.55c-1.76,8.75-2.81,17.59-3.8,26.45-1.22,11-1.23,22.17-1.83,33.26C298.77,213.28,298.46,216.15,298.19,219.43Z"/><path class="cls-2" d="M330.2,475.36c-3.5-10.39-5.11-21.2-6.88-32.22A42,42,0,0,0,307.21,461c-6.31,12.67-7.78,26.4-8.86,40.22-.12,1.54.07,3.13-1.2,4.78-.1-5-.8-9.65-1.14-14.29-.8-10.84-3.13-21.25-8-31-3.62-7.31-8.51-13.44-16-17.33-3.34,20.36-6.19,38.33-20.35,55.46,5.18,2.41,10.25,4.88,15.41,7.14,8,3.5,15.14,8.07,20.74,15a140.67,140.67,0,0,1,9.46,13.58c1.64-2.48,3.2-4.78,4.72-7.11,6.16-9.43,14.09-16.74,24.74-20.85,5.18-2,10.14-4.52,15.13-7,1.61-.79,2-1.27.59-2.91A61.62,61.62,0,0,1,330.2,475.36Z"/><path class="cls-2" d="M409.21,248.59c-14.16-10.61-30.19-13.24-47-9.52-21.31,4.72-36,18.33-46.14,37.25h0c-4,6.58-6.75,13.75-9.31,21a176.12,176.12,0,0,0-8.69,36c-.78-.14-.86-.73-.92-1.27-1.25-11-4.1-21.59-7.4-32.08-3-9.61-6.37-19.1-12.1-27.53a70.74,70.74,0,0,0-14.79-17.66c-14.31-12.34-30.46-18.72-49.6-16.52-12.6,1.44-23.44,6.22-32.35,15.47-12.66,13.15-14.15,32.07-3.39,46.78,6.77,9.27,19.72,13.34,30,9.61,7.43-2.7,13.14-11.11,11.18-17.51-3.69,7.24-8.1,10.11-14.9,9.69-5.9-.37-11.64-5.34-13.93-12.08-3.24-9.56.75-21.09,9.31-27.06A38.92,38.92,0,0,1,221,255.92c8.07-.2,15.61,1.18,22.65,5.28,3.88,2.26,7.17,5.28,10.8,7.84h0l0,0h0l7.25,8.46h0a92.85,92.85,0,0,1,11.34,23.65c3.56,11.63,4.21,23.55,3.87,35.58a3.58,3.58,0,0,0,2.09,3.77,45.94,45.94,0,0,1,12.14,9.69c2.64,2.94,4.47,6.42,6.91,9.72.31-.56.5-.87.67-1.19,4.37-8.24,10.37-14.88,18.84-19.08a2.28,2.28,0,0,0,1.41-2.36c0-5.13-.06-10.25.41-15.38a107,107,0,0,1,4-21.23c2.64-8.77,7-16.67,12-24.26.57-.61,1.18-1.18,1.72-1.81,10.5-12.55,23-20.53,40.29-18.63,9.37,1,17.29,4.54,23.63,11.56,7.27,8.06,7.66,21.41.69,29.4-3.68,4.22-8.45,6.23-14,5.09A13.22,13.22,0,0,1,377.07,292c-1,8.51,3.35,15.29,11.56,18,10.75,3.59,23.12-.95,30-11C429.51,283.15,425.29,260.63,409.21,248.59Z"/><path class="cls-2" d="M272.92,434.78c-.24,2.35.22,3.41,2.17,4.5a40.74,40.74,0,0,1,17.68,19.5,85.33,85.33,0,0,1,5,15.56c4.05-14.59,7.3-26,23.84-36.1.55-.34,1.28-.6,1-1.43-.49-1.56-.13-3.16-.32-4.73-1.32-10.83-1.86-21.71-2.24-32.6-.11-2.94-.43-5.88-.68-9.16-7.22,5.46-12.53,11.87-15.63,20.14-3,8.05-4.43,16.43-5.72,25.58-3.67-26.58-12.67-39.05-22.13-46.22.14,4.77-.4,9.28-.5,13.81C275.16,414.06,274,424.42,272.92,434.78Z"/><path class="cls-2" d="M277.32,384.88a52.63,52.63,0,0,1,15,16.73,93.43,93.43,0,0,1,5.54,11.55,50.12,50.12,0,0,1,20.64-27.88c1.25-.83,1.1-1.83,1-2.9-.68-12.24-.52-24.49-.51-36.75,0-.44.09-.95-.53-1.12-9.76,6.39-16.44,15.19-20.53,27.38-4.54-11.3-10.57-20.9-20.93-27.44-.17,1.69-.38,3.15-.43,4.62-.44,11.12.37,22.27-.59,33.38A2.43,2.43,0,0,0,277.32,384.88Z"/><path class="cls-2" d="M303.31,292.74c.94-3.69,2-7.32,1.5-11.21-.76-5.7-1.34-11.42-2.12-17.11a244.19,244.19,0,0,0-4.76-25.82c-.68,3.47-1.37,6.44-1.83,9.44q-2.37,15.53-4.23,31.11c-1.38,11.45,2.72,21.5,5.9,32.52C300.06,305,301.74,298.91,303.31,292.74Z"/><path class="cls-1" d="M167.51,307.88a44.8,44.8,0,0,0,38,13.67c-4,.91-2,7.13,1.11,9.84a57.46,57.46,0,0,0,47.14,13.25c9,54-2.3,114-41,152.78a215.58,215.58,0,0,0,9.39-75.74c-.81-14.64-3.37-29.83-12.06-41.63-17.76-24.12-55.8-27.53-70.94-53.39-8.35-14.24-6.34-36,5.21-48.21,7.27-7.67,8.34-5.85,11.27,3.14C158.87,291.36,160.12,299.93,167.51,307.88Z"/><path class="cls-1" d="M427.53,307.88a44.82,44.82,0,0,1-38,13.67c4,.91,2,7.13-1.1,9.84a57.47,57.47,0,0,1-47.14,13.25c-9,54,2.3,114,41,152.78a215.81,215.81,0,0,1-9.39-75.74c.81-14.64,3.37-29.83,12.06-41.63,17.77-24.12,55.8-27.53,71-53.39,8.34-14.24,6.34-36-5.21-48.21-7.28-7.67-8.34-5.85-11.28,3.14C436.16,291.36,434.91,299.93,427.53,307.88Z"/><path class="cls-2" d="M197.51,443.88a188.64,188.64,0,0,0-59.22-80.18v.84c0,33.48-5.25,67.6,5.72,99.23,3.32,9.58,7.68,19.15,15.13,26s18.58,10.55,28,6.86,15-13.67,16-23.62S201.15,453.19,197.51,443.88Zm-15.32,29.49c-5.09,6.73-13.75.14-16-5.62-1.46-3.77-1.68-7.88-2-11.91a220.43,220.43,0,0,0-11.59-55.21A218.37,218.37,0,0,1,178.34,452C180,456.73,186,468.38,182.19,473.37Z"/><path class="cls-2" d="M392.52,473.05c1,9.95,6.65,20,16,23.62s20.58,0,28-6.86,11.81-16.46,15.13-26c11-31.63,5.72-65.75,5.72-99.23v-.84a188.72,188.72,0,0,0-59.22,80.18C394.49,453.19,391.54,463.11,392.52,473.05ZM417.29,452A218.79,218.79,0,0,1,443,400.63a220,220,0,0,0-11.59,55.21c-.32,4-.54,8.14-2,11.91-2.22,5.76-10.88,12.35-16,5.62C409.67,468.38,415.65,456.73,417.29,452Z"/></svg>