<svg id="Layer_1" data-name="Layer 1" xmlns="http://www.w3.org/2000/svg" viewBox="0 0 595.28 566.93"><defs><style>.cls-1{fill:#e9bad2;}</style></defs><path class="cls-1" d="M100.56,315.63a71.86,71.86,0,0,1-8.63-43.5,82.22,82.22,0,0,1,8.49-28.47c5.78-11.36,14.16-20.39,24.5-27.79a99.31,99.31,0,0,1,38.81-16.44,104.48,104.48,0,0,1,45.61,1,139,139,0,0,1,29,10.39,110.84,110.84,0,0,1,34.37,26.83,87.44,87.44,0,0,1,15.77,27c.31.8.75,1.5,0,2.58-2.22-2.8-4.39-5.52-6.54-8.26-13.63-17.39-31.05-29-52.79-33.26a105.3,105.3,0,0,0-61.44,6.13,108.42,108.42,0,0,0-30.55,19A111.92,111.92,0,0,0,112.66,281,109.42,109.42,0,0,0,100.56,315.63Z"/><path class="cls-1" d="M307.39,268.29a77.43,77.43,0,0,1,4.15-12.35c3.32-8.42,8.58-15.57,14.62-22.3,15.06-16.79,34-26.55,55.49-32.28a102,102,0,0,1,30.56-3.83,114,114,0,0,1,40.68,9c11.39,4.86,21.76,11.23,30.18,20.46,9.1,10,14.86,21.73,18.08,34.75,4.38,17.69,2.13,34.83-4.53,51.56-.28.68-.59,1.35-1.07,2.46-.6-2.9-1-5.45-1.67-7.94s-1.35-5-2.19-7.43a116.85,116.85,0,0,0-43.55-56.88,108.86,108.86,0,0,0-44.73-18A111.82,111.82,0,0,0,375,224.5a82.38,82.38,0,0,0-45.22,18.07,86.91,86.91,0,0,0-21.34,25.19C308.37,267.88,308.14,267.92,307.39,268.29Z"/><path class="cls-1" d="M286.93,243.77c-3.49-5.38-6.69-10.53-10.62-15.18a125.9,125.9,0,0,0-21.15-19.8,153.32,153.32,0,0,0-63.72-27.49,133.75,133.75,0,0,0-41.5-1.17C128,182.9,108.15,190.84,91.06,205.2a83.78,83.78,0,0,0-11.57,11.57,2.49,2.49,0,0,1-2,1.24,48.48,48.48,0,0,1,1.83-11.13c4-15.57,11.27-29.29,23.21-40.26a78.26,78.26,0,0,1,40.15-19.74,89.44,89.44,0,0,1,23.62-1.14,124.43,124.43,0,0,1,34.33,8.3,149.83,149.83,0,0,1,42.55,25.42,163,163,0,0,1,33.25,38.62,88.11,88.11,0,0,1,10.55,23.34A3.22,3.22,0,0,1,286.93,243.77Z"/><path class="cls-1" d="M517.61,218.08c-7.32-8-15-15.09-24-20.61a117.47,117.47,0,0,0-37.26-14.64,146.33,146.33,0,0,0-40.57-2.7,141.23,141.23,0,0,0-52.9,13.79,136.21,136.21,0,0,0-30.38,20.18A125.73,125.73,0,0,0,312,236.36c-1,1.39-1.49,3.1-3.21,4.42.23-3.44,1.81-6.08,3-8.76a133.13,133.13,0,0,1,16.58-28,163.85,163.85,0,0,1,32.35-31.37c15.63-11.35,32.58-19.71,51.42-24.23,19.19-4.59,38.12-4.25,56.55,3.13A79.47,79.47,0,0,1,499.86,174c9.4,11,14.76,23.66,17.46,37.66a4.75,4.75,0,0,1,.13,1.4C517.29,214.59,518.23,216.11,517.61,218.08Z"/><path class="cls-1" d="M303,234.67c-1.15-2.16-.16-3.87.14-5.44A181.44,181.44,0,0,1,320,179.67a226.63,226.63,0,0,1,27.93-42.46c9.34-11,19.7-20.83,31.93-28.6a84.42,84.42,0,0,1,34.72-12.85c15.92-2.07,31,0,45.2,7.78,9.13,5,16.24,12.18,22.13,20.65.44.64,1.26,1.49.6,2.24s-1.51.23-2.31-.05c-11.34-4-23.11-4.89-34.95-4.07a135.08,135.08,0,0,0-41.71,9.55A185.88,185.88,0,0,0,359,157.79a142.08,142.08,0,0,0-17.89,16.33,202.44,202.44,0,0,0-25.85,35.22A189.43,189.43,0,0,0,303,234.67Z"/><path class="cls-1" d="M292.33,234.15a149,149,0,0,0-9.52-21.74A178.14,178.14,0,0,0,260,179.73,158.47,158.47,0,0,0,239.6,160a192.38,192.38,0,0,0-41.77-25.83,146.89,146.89,0,0,0-36.37-11.27c-16.42-2.64-32.72-2.37-48.44,4a1.47,1.47,0,0,1-1.53,0c6.44-9.24,14-17.22,23.76-23,16.45-9.66,34.1-11.18,52.41-7.37,15.12,3.14,28.12,10.56,40.06,20.16,13.37,10.75,24.15,23.82,33.59,37.94,11.25,16.83,20.29,34.84,26.12,54.35a190.88,190.88,0,0,1,5.36,22.08A3.62,3.62,0,0,1,292.33,234.15Z"/><path class="cls-1" d="M425.46,66.78c-4.95,1.24-9.69,1.91-14.22,3.41a112.48,112.48,0,0,0-35,19.44,200.63,200.63,0,0,0-36.66,39,256.11,256.11,0,0,0-25.13,43.11,200.65,200.65,0,0,0-7.51,19,5.67,5.67,0,0,1-1.48,2.78c.39-4.18.63-8,1.13-11.88,1.5-11.51,3-23,5.45-34.38,3.61-16.44,8.37-32.49,16.34-47.41,6.73-12.6,15.34-23.65,27.63-31.27,12.92-8,27.06-11.11,42.27-9.91a73.31,73.31,0,0,1,23,5.81C422.6,65,423.84,65.88,425.46,66.78Z"/><path class="cls-1" d="M289.36,193.3c-1.82-4.88-3.3-9.87-5.32-14.67A280.73,280.73,0,0,0,267.77,146a213.29,213.29,0,0,0-20-28.89C235.66,102.58,222,89.83,205.63,80a104.77,104.77,0,0,0-36.17-13.72A58.6,58.6,0,0,1,185.59,60,74.13,74.13,0,0,1,228,62.74a64.5,64.5,0,0,1,26.05,18.11c14.26,16,21.71,35.29,27,55.59a281.68,281.68,0,0,1,7.41,42.41c.49,4.78,1.14,9.54,1.71,14.31Z"/><path class="cls-1" d="M167.51,307.88a44.8,44.8,0,0,0,38,13.67c-4,.91-2,7.13,1.11,9.84a57.46,57.46,0,0,0,47.14,13.25c9,54-2.3,114-41,152.78a215.58,215.58,0,0,0,9.39-75.74c-.81-14.64-3.37-29.83-12.06-41.63-17.76-24.12-55.8-27.53-70.94-53.39-8.35-14.24-6.34-36,5.21-48.21,7.27-7.67,8.34-5.85,11.27,3.14C158.87,291.36,160.12,299.93,167.51,307.88Z"/><path class="cls-1" d="M427.53,307.88a44.82,44.82,0,0,1-38,13.67c4,.91,2,7.13-1.1,9.84a57.47,57.47,0,0,1-47.14,13.25c-9,54,2.3,114,41,152.78a215.81,215.81,0,0,1-9.39-75.74c.81-14.64,3.37-29.83,12.06-41.63,17.77-24.12,55.8-27.53,71-53.39,8.34-14.24,6.34-36-5.21-48.21-7.28-7.67-8.34-5.85-11.28,3.14C436.16,291.36,434.91,299.93,427.53,307.88Z"/></svg>