<svg width="80" height="117" viewBox="0 0 80 117" fill="none" xmlns="http://www.w3.org/2000/svg">
<path d="M52.2231 26.3419C51.4136 25.3525 50.5256 24.4154 49.8122 23.359C48.1701 20.9204 46.7667 18.3391 46.822 15.2952C46.8424 14.1312 47.1947 12.9671 47.5295 11.838C48.4816 8.65438 50.5547 6.36124 53.3906 4.7054C56.3372 2.98554 61.8344 3.04956 64.6878 6.85595C66.0591 8.67766 66.7259 10.5983 66.5629 12.842C66.3328 15.8656 63.8114 18.473 60.8939 18.6156C59.3566 18.6913 57.9823 18.2431 57.1932 16.7852C56.9424 16.3137 56.8187 15.785 56.8346 15.2512C56.8504 14.7175 57.0051 14.197 57.2835 13.7412C57.3577 13.6034 57.4564 13.4801 57.5746 13.3775C57.892 13.1126 58.0551 13.2116 58.1744 13.6103C58.3105 14.158 58.5159 14.686 58.7859 15.1817C58.9688 15.4492 59.2378 15.6462 59.5481 15.7399C59.8585 15.8336 60.1916 15.8184 60.4921 15.6968C62.6059 14.9984 62.9932 12.8565 62.2682 11.1338C61.156 8.5147 57.5484 7.7348 54.9309 9.26841C51.8678 11.0581 50.1063 15.0129 51.3117 18.9794C52.0717 21.4791 53.5187 23.5453 55.1551 25.5271C56.1586 26.6739 57.058 27.9078 57.8425 29.2141C58.5209 30.4189 58.8907 31.7983 59.3478 32.9769C59.5342 32.1039 59.7525 31.0853 59.9797 30.0668C60.6142 27.0505 62.231 24.3294 64.5771 22.3289C67.4509 19.8669 71.1196 19.2849 74.3311 21.4966C76.3256 22.8672 77.4465 24.7995 77.0535 27.3168C76.6691 29.7991 74.0778 31.5393 71.8125 30.9253C70.7381 30.6343 70.15 29.9155 69.8501 28.8882C69.836 28.8342 69.8347 28.7777 69.8463 28.7231C69.8579 28.6686 69.8822 28.6175 69.9171 28.5739C70.0324 28.5193 70.1633 28.507 70.2868 28.539C70.38 28.5565 70.4557 28.6525 70.546 28.7049C71.8038 29.476 73.0674 28.9959 73.5158 27.5903C73.9992 26.0625 72.8665 24.4532 71.1487 24.2292C69.8907 24.0828 68.6259 24.4407 67.6314 25.2244C65.4768 26.79 64.2248 29.0075 63.2203 31.4054C62.1459 33.9576 61.6218 36.6436 61.2258 39.3733C61.0529 40.3129 60.8225 41.241 60.5358 42.1524C60.495 42.3037 60.3174 42.4201 60.2039 42.5511C60.076 42.4287 59.9706 42.2849 59.8923 42.1262C59.5225 40.8312 59.2168 39.5071 58.8034 38.2325C57.9299 35.5552 56.2499 33.4512 54.1011 31.6935C51.4806 29.5575 48.4583 28.4924 45.1216 28.1752C44.7231 28.15 44.3264 28.1015 43.9336 28.0297C43.8471 28.0126 43.7651 27.9779 43.6924 27.9279C43.6198 27.8778 43.5582 27.8135 43.5115 27.7387C43.4736 27.6456 43.6163 27.4244 43.7327 27.3226C44.6274 26.5567 45.715 26.0504 46.8773 25.8588C48.3102 25.5499 49.8007 25.6435 51.1836 26.1295C51.5039 26.2517 51.8387 26.3361 52.1677 26.4205L52.2231 26.3419Z" fill="#CE433A"/>
<path d="M26.4958 89.1213C26.4466 88.1898 26.4466 87.2563 26.4958 86.3247C26.7084 84.2062 27.544 82.3815 29.2881 81.0662C29.4424 80.9498 29.7772 80.8276 29.8529 80.8974C30.0177 81.0661 30.1088 81.2932 30.1063 81.5289C30.0713 82.0818 29.9345 82.626 29.8821 83.1789C29.4278 87.9311 30.6129 92.2002 33.7516 95.8436C35.1058 97.3918 36.7823 98.6253 38.6635 99.4579C39.1527 99.6791 39.6419 99.9032 40.1194 100.156C40.2649 100.235 40.3494 100.418 40.4629 100.555C40.3028 100.631 40.1427 100.779 39.9854 100.773C38.3724 100.724 36.7564 100.703 35.1492 100.57C31.4136 100.252 27.7915 100.645 24.3441 102.182C22.7952 102.871 21.4325 103.829 20.6464 105.383C20.064 106.532 19.8981 107.734 20.6085 108.913C20.7906 109.19 21.0255 109.428 21.2999 109.613C21.5742 109.799 21.8826 109.929 22.2073 109.995C22.5319 110.061 22.8665 110.063 23.1917 109.999C23.517 109.936 23.8265 109.809 24.1025 109.626C24.6295 109.247 24.8857 108.284 24.6848 107.475C24.6393 107.363 24.6042 107.247 24.58 107.129C24.58 106.989 24.58 106.739 24.6207 106.722C24.7765 106.673 24.9446 106.685 25.0924 106.754C26.4551 107.522 26.9268 108.959 26.3328 110.476C25.3137 113.068 22.1662 114.16 19.636 112.742C17.0476 111.287 16.1421 108.93 16.2964 106.116C16.4507 103.302 17.9706 101.271 20.2795 99.8159C22.6837 98.2191 25.5199 97.3974 28.4059 97.4616C29.3725 97.4878 30.3421 97.5053 31.3495 97.5285C30.6362 97.0688 29.9432 96.6293 29.259 96.1812C27.7275 95.1743 26.5366 93.8298 25.4739 92.3573C24.2626 90.6811 22.999 89.0485 21.3393 87.7739C19.3856 86.2752 17.3155 85.0967 14.7299 85.3004C12.3832 85.4837 10.3625 86.348 8.86008 88.2337C7.4625 89.9798 7.24413 92.5465 8.37966 94.2692C9.44532 95.8843 11.5592 96.5973 13.0383 95.7243C13.5408 95.416 13.9621 94.9919 14.267 94.4875C14.7649 93.6727 14.3631 92.7036 13.411 92.1856C13.1984 92.0692 12.9538 92.0139 12.7471 91.8946C12.6219 91.8219 12.4559 91.688 12.4559 91.5716C12.4559 91.4552 12.5957 91.3039 12.7151 91.234C13.5274 90.748 15.0444 90.8644 15.7839 91.4494C17.1961 92.5727 17.6154 94.4729 16.8147 96.2306C15.7315 98.6227 13.7109 99.6645 11.236 99.8944C8.76109 100.124 6.77535 99.0854 5.17396 97.2754C4.19274 96.1608 3.33963 94.9473 3.07176 93.4486C2.44576 89.9565 3.25519 86.9067 5.95136 84.4273C7.77113 82.754 9.83839 81.6249 12.2696 81.2873C13.6164 81.1282 14.9743 81.0854 16.3284 81.1593C17.7842 81.2117 19.0246 81.977 20.2475 82.7104C22.5768 84.1189 24.2684 86.2025 25.8786 88.3385C26.0591 88.5655 26.2513 88.807 26.4958 89.1213Z" fill="#CE433A"/>
</svg>
