<svg id="Layer_1" data-name="Layer 1" xmlns="http://www.w3.org/2000/svg" viewBox="0 0 566.93 566.93"><defs><style>.cls-1{fill:#1c1b1c;}</style></defs><path class="cls-1" d="M410.06,306.64c-4.35-6.69-8.32-13.1-13.22-18.89a155.37,155.37,0,0,0-26.31-24.63,190.48,190.48,0,0,0-79.27-34.21,166.61,166.61,0,0,0-51.64-1.45c-27.29,3.44-52,13.33-73.26,31.19A104.17,104.17,0,0,0,152,273a3.08,3.08,0,0,1-2.53,1.55,59.31,59.31,0,0,1,2.28-13.86c5-19.36,14-36.43,28.87-50.09a97.43,97.43,0,0,1,50-24.55,111.25,111.25,0,0,1,29.39-1.42A154.13,154.13,0,0,1,302.63,195a186,186,0,0,1,52.94,31.63,202.79,202.79,0,0,1,41.38,48,109.83,109.83,0,0,1,13.12,29A4,4,0,0,1,410.06,306.64Z"/><path class="cls-1" d="M413.08,243.84c-2.26-6.07-4.1-12.28-6.62-18.25A348.72,348.72,0,0,0,386.22,185a264.83,264.83,0,0,0-24.91-35.94c-15-18.1-32.07-34-52.4-46.2a130.49,130.49,0,0,0-45-17.08A72.4,72.4,0,0,1,284,78a92.1,92.1,0,0,1,52.8,3.41,80,80,0,0,1,32.41,22.53c17.74,19.93,27,43.9,33.58,69.16A350.23,350.23,0,0,1,412,225.86c.61,5.95,1.41,11.87,2.13,17.81Z"/><path class="cls-1" d="M210.94,359.44c20.68-14.39,42.11-28.2,65.88-36.54s50.32-10.89,74.1-2.6S395,349,399,373.87c3.62,22.6-5.94,44.92-10.85,67.28S385,491,404,503.71c-17,.62-28.78-10.22-38.27-24.28s-14-30.77-18.88-47-10.29-32.84-21.12-45.9c-13.84-16.7-35.17-25.79-56.61-29.06S232.53,357.47,210.94,359.44Z"/></svg>