<svg id="Layer_1" data-name="Layer 1" xmlns="http://www.w3.org/2000/svg" viewBox="0 0 595.28 566.93"><defs><style>.cls-1{fill:#be986a;}</style></defs><path class="cls-1" d="M95.12,231.4c.23-.11,15.35-21,26.44-24.27a4.51,4.51,0,0,0,3.17-2.77c2.94-6.45,5.57-13.1,10.72-18.25,6.42-6.43,14.29-8.76,23.15-7.71,4.65.55,9.25,1.6,13.87,2.46,7.34,1.37,14.31-.23,21.14-2.67,14.54-5.22,28.72-11.27,42-19.18a21.81,21.81,0,0,0,9-9.57c6.58-14.07,23.18-16.39,35.07-5.68a37.19,37.19,0,0,1,9.72,14.75c2.78,7.29,1.17,11.37-5,16.89-1.47,1.32-2,2.22-1.39,4.11,1.63,4.9,1,9.83-.36,14.68a9,9,0,0,1-1.86,3.17c-1.27,1.49-2.44,1.28-3.13-.61-.42-1.17-.7-2.38-1.15-3.54a43.9,43.9,0,0,0-2.25-5.38c-2.74-5-5-5.41-9.68-2,.9,8.44,1.07,16.67-5.87,22.82l-1.18-.11a38.74,38.74,0,0,0-1.33-6,45.19,45.19,0,0,0-3.62-7.27c-.74-1.2-2-1.54-3.4-.39-2.11,1.76-4.43,3.28-6.5,5.08a3.22,3.22,0,0,0-.64,2.46c.67,5.9.62,11.71-1.93,17.24-.71,1.53-1.4,3.17-3.19,2.81-2.15-4.65-4.16-9-6.36-13.78-3.21,2.58-6,4.72-8.64,7.05-.49.43-.46,1.61-.44,2.44.14,5.33.69,10.71-1.68,15.73a31.34,31.34,0,0,1-3,4.35L216,238l-5-13.12c-3.44,2.56-6.48,4.77-9.46,7.06-6.48,5-12.81,10.14-20.44,13.38-6.65,2.82-13.55,2.61-20.47,1.88-15.22-1.61-27.2,3.79-35.93,16.66,1.93-.69,3.91-1.29,5.8-2.09,7.05-3,14.18-5.34,22-5.85,8.83-.59,16.47,1.64,23.17,7.35,5.62,4.77,11.19,9.63,18,12.73a32.77,32.77,0,0,0,14.26,3.32c-12.36-6.52-22.15-15.85-30.75-26.8,7.19-1.73,13.33.42,19.19,4.18a119.2,119.2,0,0,0,11.9,7c3.35,1.64,3.82,1.3,5.27-2.23a70.85,70.85,0,0,0,2.27-7.34c.32-1.07.54-2.16.94-3.78,6.6,4.72,6.78,11.44,7.43,18.25,2.9.39,5.85.88,8.82,1.1.54,0,1.46-.91,1.7-1.57,1.25-3.5,2.48-7,3.4-10.61.47-1.83,1.52-2.17,2.55-1.19a17.76,17.76,0,0,1,4.28,5.52c1.12,2.63,1.44,5.6,2.18,8.76,2.59,0,5.33.11,8-.09.66,0,1.59-1,1.81-1.75,1.26-4.14,2.34-8.33,3.57-12.83,7.15,2.39,6.88,9.32,9,14.79a4.45,4.45,0,0,0,4.88-2.87c1.37-2.93,2.2-6.11,3.31-9.17.34-.93.83-1.81,1.26-2.71.95.57,2.21.92,2.82,1.74,2.53,3.41,2.38,7.49,2.6,11.48,0,.69.44,1.75.95,2,6.79,2.87,6.95,8.68,4.36,14.3-3.53,7.65-10.21,11.71-18,13.73a57.58,57.58,0,0,1-12.88,1.69c-9.87.23-19.76-.27-29.62.14-10.26.43-20,3.07-28.28,9.57-10.9,8.5-12.29,16.77-5.7,29.16a40.94,40.94,0,0,0,7,9c3.21,3.31,6.88,6.17,10.31,9.27s6.77,6.24,9.87,9.1c-1.19-5.52-2.6-11.31-3.66-17.16-2.46-13.51,7.08-27,20.34-29.07,13.43-2.06,26.44,7.83,28.29,21.49,1,7.44-3.42,14.86-10,16.51a11.47,11.47,0,0,1-5,.1,3.88,3.88,0,0,1-2.23-2.32c-.2-.56.61-1.84,1.29-2.29,5.33-3.54,5.16-10-.41-13.26-5.26-3.05-11.47-1-14,4.71-2.61,5.91-2.4,12.11-1.36,18.32,1.79,10.67,4,21.28,5.36,32,1.38,11.16-.5,22.12-4.19,32.74q-4.5,12.94-9.08,25.86c-.73,2.06-1.75,4.06-4.38,4a4.55,4.55,0,0,1-4.46-4.24,71.51,71.51,0,0,1-.72-11.6c.29-9.49,1.06-19-2.07-28.24-3.32-9.86-9.77-16.74-19-21.17-9.59-4.6-19.85-7-30.16-9.25-11.88-2.62-19.34-11.65-30-17.85-8.12-4.73-17.8-16.18-26.76-28.78C101.59,326.83,53.33,284,95.12,231.4Zm55.81-27.29c2.58-3.75,6.28-4.8,10.55-3.78,3.87.92,10.4-3.47,6.37-4.78-3.35-1.08-6.7-2.66-10.13-2.89-8.6-.57-13.55,4.75-16.75,12C138.25,210.82,148.57,207.54,150.93,204.11ZM131.19,309.75c-.65-.71-1-1.17-1.4-1.54-4.32-3.81-9-7.31-12.93-11.46-10.3-10.81-12.81-23.56-8.27-37.69a73.9,73.9,0,0,1,3.4-7.54c-11.49,7.9-14.77,25.27-9.12,37.75C108.83,302.42,123.83,311.32,131.19,309.75Zm95.33,91c-5.27-18.91-23.89-34.37-41.38-34.45C201.94,374.65,216.21,385.36,226.52,400.77Zm-91.44-69.71c2.76,21.18,20.52,32.1,34.25,29.66C154.33,355.37,143.19,345.49,135.08,331.06Zm10.11-21.67c9.33,12.35,32.75,13.16,45.07,1.42C174.91,315.62,160.17,315.84,145.19,309.39ZM273.63,155.57a10.8,10.8,0,0,0-.91-1.84c-2.66-3.22-8.62-5-12.59-3.76-3.13,1-5.52,3-6.41,6.16a4.54,4.54,0,0,0,.72,3.8c.57.53,2.48-.09,3.68-.53,2.77-1,5.39-2.5,8.22-3.27C268.51,155.54,270.89,155.75,273.63,155.57ZM162.74,335.09c6.43,10.38,16.08,14.65,23.26,10.22C177.19,344,169.82,339.93,162.74,335.09Z"/><path class="cls-1" d="M484.89,337.54c-9,12.6-18.65,24-26.76,28.78-10.64,6.2-18.1,15.23-30,17.85-10.32,2.27-20.58,4.65-30.17,9.25-9.25,4.43-15.69,11.31-19,21.17-3.13,9.28-2.36,18.75-2.08,28.24a70.4,70.4,0,0,1-.72,11.6,4.54,4.54,0,0,1-4.46,4.24c-2.62.1-3.65-1.9-4.38-4q-4.59-12.91-9.08-25.86c-3.69-10.62-5.57-21.58-4.19-32.74,1.33-10.73,3.58-21.34,5.36-32,1-6.21,1.25-12.41-1.36-18.32a9.64,9.64,0,0,0-14-4.71c-5.57,3.23-5.73,9.72-.41,13.26.69.45,1.49,1.73,1.29,2.29a3.85,3.85,0,0,1-2.23,2.32,11.47,11.47,0,0,1-5-.1c-6.59-1.65-11-9.07-10-16.51,1.85-13.66,14.87-23.55,28.3-21.49,13.25,2,22.79,15.56,20.34,29.07-1.06,5.85-2.48,11.64-3.67,17.16,3.1-2.86,6.46-6,9.88-9.1s7.09-6,10.31-9.27a40.59,40.59,0,0,0,7-9c6.59-12.39,5.2-20.66-5.7-29.16-8.31-6.5-18-9.14-28.28-9.57-9.85-.41-19.75.09-29.62-.14a57.42,57.42,0,0,1-12.87-1.69c-7.84-2-14.52-6.08-18.05-13.73-2.59-5.62-2.42-11.43,4.36-14.3.52-.21.92-1.27,1-2,.21-4,.06-8.07,2.59-11.48.62-.82,1.87-1.17,2.83-1.74.42.9.91,1.78,1.25,2.71,1.11,3.06,1.94,6.24,3.31,9.17a4.45,4.45,0,0,0,4.88,2.87c2.14-5.47,1.86-12.4,9-14.79,1.23,4.5,2.32,8.69,3.58,12.83.22.73,1.14,1.71,1.8,1.75,2.72.2,5.47.09,8.05.09.74-3.16,1.06-6.13,2.18-8.76a17.91,17.91,0,0,1,4.28-5.52c1-1,2.08-.64,2.55,1.19.92,3.59,2.16,7.11,3.4,10.61.24.66,1.16,1.61,1.7,1.57,3-.22,5.93-.71,8.82-1.1.66-6.81.83-13.53,7.43-18.25.4,1.62.63,2.71.94,3.78a73.36,73.36,0,0,0,2.27,7.34c1.46,3.53,1.92,3.87,5.28,2.23a120.19,120.19,0,0,0,11.89-7c5.86-3.76,12-5.91,19.19-4.18-8.59,11-18.39,20.28-30.75,26.8A32.77,32.77,0,0,0,401.43,276c6.8-3.1,12.38-8,18-12.73,6.7-5.71,14.35-7.94,23.17-7.35,7.79.51,14.93,2.84,22,5.85,1.89.8,3.87,1.4,5.8,2.09-8.72-12.87-20.71-18.27-35.93-16.66-6.91.73-13.82.94-20.47-1.88-7.63-3.24-14-8.41-20.44-13.38-3-2.29-6-4.5-9.46-7.06L379,238l-.87.24a31.34,31.34,0,0,1-3-4.35c-2.37-5-1.82-10.4-1.68-15.73,0-.83.05-2-.44-2.44-2.63-2.33-5.42-4.47-8.64-7.05l-6.36,13.78c-1.79.36-2.48-1.28-3.19-2.81-2.55-5.53-2.6-11.34-1.93-17.24a3.22,3.22,0,0,0-.64-2.46c-2.07-1.8-4.39-3.32-6.5-5.08-1.39-1.15-2.66-.81-3.39.39a44.43,44.43,0,0,0-3.63,7.27,38.74,38.74,0,0,0-1.33,6l-1.18.11c-6.94-6.15-6.77-14.38-5.86-22.82-4.68-3.44-6.95-3-9.68,2a44,44,0,0,0-2.26,5.38c-.44,1.16-.73,2.37-1.15,3.54-.69,1.89-1.86,2.1-3.13.61a8.93,8.93,0,0,1-1.85-3.17c-1.39-4.85-2-9.78-.37-14.68.63-1.89.08-2.79-1.39-4.11-6.14-5.52-7.74-9.6-5-16.89a37.11,37.11,0,0,1,9.73-14.75c11.88-10.71,28.49-8.39,35.06,5.68a21.81,21.81,0,0,0,9,9.57c13.32,7.91,27.5,14,42.05,19.18,6.82,2.44,13.8,4,21.13,2.67,4.62-.86,9.22-1.91,13.88-2.46,8.85-1.05,16.72,1.28,23.14,7.71,5.15,5.15,7.78,11.8,10.72,18.25a4.53,4.53,0,0,0,3.17,2.77c11.09,3.3,26.21,24.16,26.44,24.27C541.71,284,493.45,326.83,484.89,337.54Zm-30.82-132.9c-3.19-7.23-8.14-12.55-16.75-12-3.43.23-6.78,1.81-10.13,2.89-4,1.31,2.51,5.7,6.38,4.78,4.26-1,8,0,10.54,3.78C446.47,207.54,456.79,210.82,454.07,204.64Zm38.1,84.63c5.65-12.48,2.38-29.85-9.12-37.75a73.9,73.9,0,0,1,3.4,7.54c4.54,14.13,2,26.88-8.27,37.69-4,4.15-8.6,7.65-12.93,11.46-.41.37-.75.83-1.4,1.54C471.21,311.32,486.21,302.42,492.17,289.27ZM409.9,366.32c-17.49.08-36.1,15.54-41.37,34.45C378.83,385.36,393.1,374.65,409.9,366.32Zm15.81-5.6c13.73,2.44,31.49-8.48,34.26-29.66C451.85,345.49,440.71,355.37,425.71,360.72Zm-20.93-49.91c12.33,11.74,35.74,10.93,45.07-1.42C434.88,315.84,420.14,315.62,404.78,310.81ZM328.7,156.13c2.83.77,5.45,2.26,8.23,3.27,1.19.44,3.1,1.06,3.67.53a4.51,4.51,0,0,0,.72-3.8,9,9,0,0,0-6.4-6.16c-4-1.26-9.94.54-12.59,3.76a10.73,10.73,0,0,0-.92,1.84C324.15,155.75,326.54,155.54,328.7,156.13ZM409,345.31c7.19,4.43,16.83.16,23.27-10.22C425.22,339.93,417.85,344,409,345.31Z"/><path class="cls-1" d="M120.54,421.45c-2.43-3.34-4.62-6-6.42-8.86-3.07-4.95-4.64-10.31-3.61-16.24,1.41-8.09,8.81-13.8,16.73-12.54a11.8,11.8,0,0,1,5.12,2.5,3,3,0,0,1,.28,4.71c-6.36,6.09-5.37,13.12-1.93,19.8,2.68,5.23,6.42,10,10.14,14.6,4.51,5.58,9.49,10.78,14.33,16.22-1-3.31-2.15-6.58-3.08-9.9-2.06-7.35-1.89-14.59,1.7-21.48,7.31-14.05,24.08-14.63,34.71-5.26,6.23,5.5,9.33,12.27,6.77,20.72a10.36,10.36,0,0,1-8.28,7.42,3.9,3.9,0,0,1-3.16-1.16,3.35,3.35,0,0,1-.13-3.06c2.07-3.64,2.17-5.38,0-7.61a7.4,7.4,0,0,0-8.82-1c-4.68,2.89-5.94,7.63-6.18,12.6-.59,12,4,22.26,12.1,30.87,3.86,4.13,8.49,7.54,12.78,11.25a9.21,9.21,0,0,0,1.54.78c-1.82-2.54-3.44-4.51-4.75-6.67-4.91-8.05-3.56-17.43,3.24-22.51,3.4-2.55,7.14-3.53,11.21-1.55,1.94.94,3,2.46,1.84,4.51-2.73,4.71-1.86,9.4-.2,14.11,3.38,9.62,10.65,15.76,18.95,20.89a61.87,61.87,0,0,0,27,9.13c.62.06,1.4-.08,1.82.24,1.12.84,2.66,1.75,2.91,2.88.2.92-1,2.81-2,3.2a47.44,47.44,0,0,1-10.59,3.18c-10.24,1.41-19.83-1.52-29.31-5.05-8-3-16.23-5.55-24.89-4.89-3.48.27-7,1.73-10.23,3.18-1.42.63-2.55,2.44-3.29,4-1.67,3.47-.52,6.11,3,7.77,2.72,1.27,2.85,2.53.34,4.27-4.58,3.18-9.45,2.82-14.19.61a14,14,0,0,1-8.48-12.31,16.32,16.32,0,0,1,10.61-17.06c3.54-1.4,7.39-2,11.15-3-9.48-6-18.9-12.48-30.58-14.11-4.51-.63-8.9-.23-12.62,2.82-2.69,2.2-4,5-3.14,8.48.78,3.06,3,4.38,7.17,4.72.76.07,1.51.29,2.47.48-.56,3.17-2.67,4.79-4.94,6.14-4.91,2.9-11.15,2.15-16.2-1.78-8-6.2-10.36-18.23-5.55-27.82a21.08,21.08,0,0,1,24.91-11l1.49.4.35-.59c-3.95-2.47-7.78-5.18-11.87-7.38-10-5.38-20.64-8.1-32.06-6.64-7.74,1-14.29,4.24-18.66,10.94C77,450,77,454.93,79.5,459.8a7.29,7.29,0,0,0,8.68,4c2.9-.65,4.47-2.88,4.79-6.81.21-2.47,1.31-3.21,3.75-2.5,4.3,1.25,7.54,7.55,6.54,12.72-1.93,9.93-12.48,16.57-23.09,15.07-13.89-2-23-14.12-24-27.39-1.46-18.67,10.27-32.58,28.92-34.37,1.59-.15,3.17-.39,5.2-.65-3.14-1.71-6-3.18-8.77-4.79-7-4.06-14-8.24-18.78-15.05-5.94-8.45-8-17.7-4-27.43,6.51-15.57,23.83-13.56,30.87-4.63,3.15,4,4.38,8.5,2.4,13.45A7.85,7.85,0,0,1,90.14,384c-1,1-2,1-2.85-.33-2.16-3.16-4-4-6.38-3.19S76.73,384.65,77,388c.35,4.32,2.66,7.67,5.45,10.72,5.72,6.26,12.79,10.7,20.28,14.47C108.39,416,114.23,418.53,120.54,421.45Z"/><path class="cls-1" d="M451.85,449c5.51-1.41,10.94-1.89,16.2.49,8.54,3.85,12.87,10.77,13.24,19.94.35,8.63-3,15.66-10.88,19.87-4.66,2.5-9.63,2.67-14.16-.38-1.78-1.2-3-3.16-4.53-4.77l.5-1a31,31,0,0,1,3.17-.57c6.13-.44,8.85-5.91,5.44-11-2.18-3.28-5.4-4.76-9.2-5.12-7.17-.67-13.71,1.69-19.9,4.83-5.59,2.84-10.87,6.29-16.58,9.64a75,75,0,0,1,8.76,1.22c10.29,2.71,15.92,11.91,13.33,21.44s-15.2,14.31-22.77,8.81c-2.39-1.74-2.43-3.21.2-4.12,3.79-1.3,5.13-5,2.44-9.42-2.44-4-6.42-5.38-10.86-5.71-9.2-.67-17.68,2.29-26.15,5.25-7.22,2.52-14.49,4.75-22.2,5.13a37.33,37.33,0,0,1-16.45-2.47c-1.86-.77-4.15-1.56-3.69-4.18s2.69-2.88,4.92-3.15c16.75-2.09,31.28-8.5,41.81-22.22,4-5.26,6.49-11.21,5.3-18.09a12.06,12.06,0,0,0-1.16-3.22c-1.22-2.39-.75-4.45,1.81-5.25a12,12,0,0,1,6.19-.46A14.61,14.61,0,0,1,406.86,463c-1.54,4.57-4.35,8.7-6.73,13.32,4.71-4.17,9.66-8,14-12.5a41.83,41.83,0,0,0,12.27-26.78c.34-4.95-.05-9.78-3-14-2.77-4-7.62-5.09-11.17-2.61-2.89,2-3.42,4.72-1.89,7.93.53,1.12,1,3.3.43,3.72a5.2,5.2,0,0,1-4,.63c-6-1.54-8.41-9.3-7.68-14.28,1.65-11.26,12.65-20.1,24.29-19.72,10.92.35,19.86,9.39,21,21,.68,7.06-1.45,13.49-4,19.86a10.21,10.21,0,0,0-.9,2.83c1.38-1.64,2.77-3.26,4.13-4.91,6-7.18,12-14.27,17.8-21.6a24,24,0,0,0,5.34-15.31,12.29,12.29,0,0,0-3.68-9.1c-2.23-2.19-2.09-4,.35-6,2.82-2.32,6.14-2.31,9.38-1.53,8.63,2.08,13.43,10.69,11.33,20a33.6,33.6,0,0,1-8.43,15.2,2.29,2.29,0,0,0-.69,1.64c4.58-2,9.22-3.88,13.75-6,9.15-4.28,17.68-9.49,24.57-17,2.95-3.23,5.16-6.81,4.66-11.46-.31-3-2-5.34-4.28-5.86a4.58,4.58,0,0,0-5.29,2.08c-.6.91-1.89,2.22-2.53,2.06a4.8,4.8,0,0,1-2.7-2.49c-2.67-5.95.09-13.42,6.29-17.57,11.77-7.86,26-1.33,28.22,13,1.68,10.59-1.73,19.4-9.38,26.71-6.43,6.14-14.19,10.31-21.88,14.58-.44.24-.86.5-1.39.81,4.14.81,8.18,1.23,12,2.42,22.48,7,25.64,30.11,18.61,44.92-4.67,9.85-12.67,15.38-23.87,15.41-9.67,0-18-6.48-19.73-15.13-.89-4.51,1.29-10,4.87-12.16,3-1.88,4.68-1.11,5.05,2.34a7.28,7.28,0,0,0,4.67,6.25,7.17,7.17,0,0,0,7.79-2.72c4-5.08,3.38-13.28-1.55-18.6-6-6.48-13.89-8.3-22.29-8.3-13,0-24.38,4.84-34.82,12.22Z"/></svg>