<svg id="Layer_1" data-name="Layer 1" xmlns="http://www.w3.org/2000/svg" viewBox="0 0 566.93 566.93"><defs><style>.cls-1{fill:#e9bad2;}</style></defs><path class="cls-1" d="M178.18,396c-9.44-17.42-12.86-35.17-10.74-54.12A102.18,102.18,0,0,1,178,306.5c7.19-14.13,17.61-25.37,30.48-34.57,14.61-10.45,30.82-17,48.28-20.46a130,130,0,0,1,56.75,1.21,173,173,0,0,1,36.09,12.92A137.59,137.59,0,0,1,392.37,299c8.78,10,14.94,21.31,19.64,33.59.37,1,.92,1.86,0,3.2-2.76-3.48-5.47-6.86-8.14-10.27-17-21.64-38.63-36.1-65.68-41.38a131,131,0,0,0-76.44,7.62,134.78,134.78,0,0,0-38,23.59A139.36,139.36,0,0,0,193.23,353,136.49,136.49,0,0,0,178.18,396Z"/><path class="cls-1" d="M416.78,294.67a184.38,184.38,0,0,0-11.85-27.05A221.66,221.66,0,0,0,376.59,227a196.89,196.89,0,0,0-25.42-24.52,239.16,239.16,0,0,0-52-32.14c-14.57-6.48-29.56-11.49-45.25-14-20.43-3.28-40.71-2.95-60.27,5a1.81,1.81,0,0,1-1.91.05c8-11.48,17.42-21.42,29.56-28.55,20.48-12,42.43-13.91,65.22-9.17,18.81,3.91,35,13.14,49.84,25.09,16.64,13.37,30.05,29.63,41.79,47.2,14,20.95,25.25,43.34,32.51,67.62A241,241,0,0,1,417.35,291,4.48,4.48,0,0,1,416.78,294.67Z"/><path class="cls-1" d="M328.9,494.72l-17-58.85c-4.15-14.34-8.54-29.15-18.18-40.54-14.31-16.89-39.79-23.22-60.33-15-9.81,3.93-18.68,11.27-22.33,21.19-5.17,14,2.43,31.5,16.24,37.28s31.58-1.05,38-14.59c0,.32,7.33-1.41,10.89.47s6.46,4.8,9.23,7.73C303.11,451.26,327.62,493.76,328.9,494.72Z"/></svg>