<svg id="Layer_1" data-name="Layer 1" xmlns="http://www.w3.org/2000/svg" viewBox="0 0 543.51 476.99"><defs><style>.cls-1{fill:#fff;}</style></defs><path class="cls-1" d="M141,149a34,34,0,0,0,4-2.27c9.05-6.8,17.92-13.87,27.12-20.47,12.79-9.17,18.39-22,20.59-37.08.8-5.49-.69-8.64-5.12-12-6.16-4.72-11.51-10.56-16.88-16.23-3.1-3.27-3.07-5.26-1.25-7.73,1.55-2.1,5.58-3.1,8.46-1.41,7.93,4.63,16.67,8.05,23.17,14.91,1,1,2.28,2.35,3.5.86a4.08,4.08,0,0,0,0-3.7c-3.11-5.34-7.86-8.91-13.41-11.45-9-4.12-10.88-7.43-7.08-17.28C188.8,23.05,198.27,15.68,210,11a6.82,6.82,0,0,1,4.79.18,49.52,49.52,0,0,1,21.78,18.54c2.7,4.1,3.34,8.85,3.64,13.6.18,2.78-1.55,4.78-3.84,6.2-3.74,2.3-7.76,4.23-11.2,6.9A60.66,60.66,0,0,0,216.76,65c-.55.64,0,2.17,0,3.29,1.18-.24,2.81-.07,3.47-.79,4.13-4.54,9.44-7.22,14.78-9.94,3.36-1.71,6.58-3.71,9.86-5.58s6.28-1.72,8.27.36c1.65,1.73,2.14,3.63.53,5.67-7.22,9.16-14.89,17.86-25.52,23.27a10.71,10.71,0,0,0-5.73,7.09,64.19,64.19,0,0,1-17.86,28.74c-9.83,9.43-21.11,16.56-33.12,22.76-13,6.69-24.63,15.36-35.59,24.85a34.28,34.28,0,0,0-12.09,26.55c0,7.71.33,15.43.51,23.14a13.82,13.82,0,0,1-.16,1.51c-4.23-4.69-8.2-8.92-9.82-14.83-2.13-7.78-4.25-15.6-9.38-22.11-5.75-7.29-13.08-11-22.54-9.58a11,11,0,0,0-3.45,1.19c-8.26,4.28-16.24,0-17.31-9.28-.6-5.24.32-9.86,5.1-12.92,5.24-3.35,10.53-2.52,15.42.53s9.14,6.48,13.73,9.71c2.2,1.54,4.48,3,6.72,4.42l.7-.48a29,29,0,0,0-.5-3.38c-1.59-5.95-3.92-11.56-9.09-15.3-2.06-1.49-4.68-2.21-7.06-3.25-7.54-3.3-11.12-11.5-8.53-19.56,2.2-6.81,11-11.67,18.35-10.08,7.15,1.54,12,9.86,10.08,17.85a12.13,12.13,0,0,0,.62,7.59c2.64,6.85,5.09,13.79,7.28,20.8,1,3.31,1.24,6.89,1.91,10.32a5.57,5.57,0,0,0,1,1.64c.46-.45,1.11-.82,1.36-1.37,1.07-2.4,1.94-4.89,3-7.28,2.72-6,5.3-12,8.35-17.85,5-9.43,9.4-19.06,11.47-29.55,1.68-8.53,1.85-17-4.06-24.36-1.76-2.19-2.36-2.22-4.34-.24-5.21,5.21-10.65,6.09-16.65,2.68a14.85,14.85,0,0,1-6.68-16.62c3-11.3,12.21-16.13,24-12.53,12.58,3.85,22.43,17.44,22.79,30.5.26,9.6-.53,19-3.92,28-1.77,4.66-4.07,9.13-6.17,13.66-1.52,3.26-3.17,6.46-4.65,9.74a43.7,43.7,0,0,0-1.48,4.4Z"/><path class="cls-1" d="M402.47,149a34,34,0,0,1-4-2.27c-9.06-6.8-17.92-13.87-27.12-20.47-12.79-9.17-18.4-22-20.59-37.08-.8-5.49.69-8.64,5.12-12,6.16-4.72,11.51-10.56,16.88-16.23,3.09-3.27,3.07-5.26,1.25-7.73-1.56-2.1-5.58-3.1-8.47-1.41-7.93,4.63-16.66,8.05-23.16,14.91-1,1-2.28,2.35-3.5.86a4.08,4.08,0,0,1,0-3.7c3.11-5.34,7.85-8.91,13.41-11.45,9-4.12,10.88-7.43,7.08-17.28-4.65-12-14.12-19.42-25.82-24.09a6.82,6.82,0,0,0-4.79.18A49.52,49.52,0,0,0,307,29.73c-2.7,4.1-3.34,8.85-3.65,13.6-.17,2.78,1.56,4.78,3.85,6.2,3.74,2.3,7.76,4.23,11.2,6.9A60.66,60.66,0,0,1,326.75,65c.55.64.05,2.17,0,3.29-1.17-.24-2.8-.07-3.46-.79-4.14-4.54-9.44-7.22-14.78-9.94-3.36-1.71-6.58-3.71-9.86-5.58s-6.28-1.72-8.27.36c-1.65,1.73-2.14,3.63-.54,5.67,7.23,9.16,14.9,17.86,25.53,23.27a10.71,10.71,0,0,1,5.73,7.09A64.1,64.1,0,0,0,339,117.11c9.83,9.43,21.1,16.56,33.11,22.76,13,6.69,24.64,15.36,35.6,24.85a34.31,34.31,0,0,1,12.09,26.55c0,7.71-.33,15.43-.51,23.14a13.82,13.82,0,0,0,.16,1.51c4.23-4.69,8.19-8.92,9.82-14.83,2.13-7.78,4.25-15.6,9.38-22.11,5.75-7.29,13.08-11,22.54-9.58a11,11,0,0,1,3.45,1.19c8.26,4.28,16.24,0,17.31-9.28.6-5.24-.32-9.86-5.1-12.92-5.24-3.35-10.53-2.52-15.42.53s-9.15,6.48-13.74,9.71c-2.19,1.54-4.47,3-6.71,4.42l-.7-.48a29,29,0,0,1,.5-3.38c1.59-5.95,3.92-11.56,9.08-15.3,2.07-1.49,4.69-2.21,7.07-3.25,7.54-3.3,11.12-11.5,8.53-19.56-2.2-6.81-11-11.67-18.35-10.08-7.15,1.54-12,9.86-10.08,17.85a12.13,12.13,0,0,1-.62,7.59c-2.64,6.85-5.09,13.79-7.28,20.8-1,3.31-1.24,6.89-1.91,10.32a5.57,5.57,0,0,1-1,1.64c-.47-.45-1.11-.82-1.36-1.37-1.07-2.4-1.94-4.89-3-7.28-2.72-6-5.3-12-8.35-17.85-5-9.43-9.4-19.06-11.47-29.55-1.68-8.53-1.85-17,4.06-24.36,1.76-2.19,2.36-2.22,4.34-.24,5.21,5.21,10.65,6.09,16.65,2.68a14.86,14.86,0,0,0,6.68-16.62c-3-11.3-12.21-16.13-24-12.53-12.58,3.85-22.44,17.44-22.79,30.5-.26,9.6.53,19,3.92,28,1.76,4.66,4.07,9.13,6.17,13.66,1.52,3.26,3.17,6.46,4.65,9.74a46.37,46.37,0,0,1,1.48,4.4Z"/><path class="cls-1" d="M248.18,330.73c-5.66-12-12.62-23-24.65-29.68-3.91-2.17-8-4-12-6-3.11-1.58-3.46-1.54-5.13,1.42a21.69,21.69,0,0,0-1.39,2.82c-3.32,8.56-5.77,17.3-5.68,26.64.41,3.92.55,7.9,1.27,11.76,2.25,12,8.71,21.66,17.85,29.34,6.63,5.58,14,10.29,21.09,15.28,2.79,2,5.75,3.71,8.72,5.41,1.24.72,2.75,1.23,3.11-1.05,1.06-6.67,2.56-13.3,3-20C255.27,354.24,253.55,342.1,248.18,330.73Zm-36.78-5.11s3.17,10.71,6.7,19.15,9.42,19.33,9.42,19.33C209.22,348.4,211.4,325.62,211.4,325.62ZM217,315.05c15.06,26.67,20.12,48,20.12,48C224.28,342.48,217,315.05,217,315.05Zm26.48,42.36s-3.64-11.84-7.18-20.27-8.93-18.21-8.93-18.21S245.13,333.36,243.49,357.41Z"/><path class="cls-1" d="M338.49,299.29a21.69,21.69,0,0,0-1.39-2.82c-1.67-3-2-3-5.13-1.42-4,2-8.08,3.83-12,6-12,6.69-19,17.7-24.65,29.68-5.37,11.37-7.09,23.51-6.23,35.93.47,6.71,2,13.34,3,20,.36,2.28,1.88,1.77,3.12,1.05,3-1.7,5.93-3.44,8.72-5.41,7.11-5,14.46-9.7,21.09-15.28,9.14-7.68,15.6-17.35,17.85-29.34.72-3.86.86-7.84,1.27-11.76C344.25,316.59,341.8,307.85,338.49,299.29Zm-39.33,58.12c-1.65-24.05,16.11-38.48,16.11-38.48s-5.41,9.78-8.94,18.21S299.16,357.41,299.16,357.41Zm26.48-42.36s-7.27,27.43-20.12,48C305.52,363.09,310.58,341.72,325.64,315.05ZM315.13,364.1s5.88-10.9,9.41-19.33,6.7-19.15,6.7-19.15S333.42,348.4,315.13,364.1Z"/></svg>