<svg width="85" height="103" viewBox="0 0 85 103" fill="none" xmlns="http://www.w3.org/2000/svg">
<path d="M14.0371 43.9742C12.5275 43.3075 10.9957 42.8497 9.33065 42.863C4.27345 42.9141 0.645945 47.8722 2.1378 52.7036C2.78382 54.7927 4.03591 56.3728 6.05169 57.2439C7.86322 58.0284 10.5783 57.844 11.897 55.755C12.5852 54.6638 12.3987 53.1637 11.4774 52.517C10.9646 52.1569 10.8114 52.2192 10.7515 52.8303C10.5872 54.2549 8.89553 55.0105 7.56796 54.2549C5.34794 52.9903 5.28356 50.0679 7.4614 48.3745C8.84003 47.3033 10.4362 47.1477 12.0768 47.5122C15.8708 48.3567 18.5903 50.7791 20.9258 53.7126C21.8138 54.8438 22.6019 56.0639 23.0037 57.4773C23.4366 59.0085 23.3989 60.493 22.3377 61.782C21.6162 62.651 20.7016 63.1599 19.5205 62.9888C18.7568 62.8776 18.2906 62.4398 18.082 61.5909C18.354 61.7926 18.6733 61.9209 19.0091 61.9637C19.345 62.0065 19.6862 61.9623 20.0001 61.8354C20.3097 61.7363 20.5936 61.57 20.8315 61.3483C21.0695 61.1266 21.2555 60.8551 21.3765 60.553C22.1979 58.6596 21.2166 57.3417 19.9401 56.775C18.2929 56.055 16.7499 56.2883 15.4224 57.4884C14.0304 58.7463 13.5775 60.3775 14.006 62.1754C14.4944 64.2444 15.9574 65.44 17.8888 66.0823C21.2788 67.209 25.1349 66.0401 27.073 62.3043C27.961 60.5797 28.1608 58.6863 28.0854 56.7484C28.0276 55.2216 27.9055 53.6926 28.0987 52.1592C28.425 49.5834 29.9457 47.5455 32.7052 47.2233C33.2869 47.1544 33.0582 46.8477 32.8628 46.6099C31.8838 45.4098 30.574 44.9187 29.0644 44.9343C26.5202 44.9631 24.4689 46.5899 23.7164 49.1034C23.4826 49.9371 23.3697 50.8 23.3811 51.6658C22.0114 48.8701 20.131 46.5321 18.2951 44.1653C17.0497 42.5563 15.8819 40.9073 15.136 38.9917C13.542 34.9381 15.318 30.1711 19.0654 28.4465C20.481 27.8099 22.0813 27.7177 23.5605 28.1875C25.0396 28.6574 26.2941 29.6562 27.0841 30.9934C27.9877 32.5668 27.8389 35.0158 26.7644 36.327C25.9808 37.2893 25.0728 37.516 23.8562 37.0137C24.6887 36.6359 25.0817 35.9559 25.2238 35.1336C25.4968 33.5446 24.0738 32.269 22.3066 32.4912C20.3797 32.7335 19.0033 34.6469 19.3185 36.7315C19.6204 38.7161 20.8126 39.9517 22.6707 40.6695C25.65 41.8185 29.666 40.7407 31.5508 36.816C33.2846 33.2046 32.259 28.631 29.3508 25.9464C26.0341 22.8839 22.1313 21.795 17.7512 23.2795C15.2248 24.1351 13.3333 25.8952 11.9636 28.1421C10.0166 31.3356 9.43721 34.7403 10.656 38.3427C11.2585 40.094 12.1723 41.7217 13.3533 43.1475C13.5775 43.4253 13.8084 43.7008 14.0371 43.9742Z" fill="#80CCE8"/>
<path d="M70.9629 43.9743C72.4726 43.3076 74.0044 42.8498 75.6672 42.8631C80.7244 42.9142 84.3541 47.8723 82.86 52.7037C82.2162 54.7928 80.9619 56.3729 78.9483 57.244C77.1368 58.0285 74.4195 57.8441 73.103 55.7551C72.4126 54.6639 72.5991 53.1638 73.5204 52.5171C74.0332 52.157 74.1753 52.2193 74.2463 52.8304C74.4129 54.255 76.1045 55.0106 77.4321 54.255C79.6521 52.9904 79.7142 50.068 77.5386 48.3746C76.1578 47.3034 74.5638 47.1478 72.921 47.5123C69.1292 48.3568 66.4097 50.7792 64.0742 53.7127C63.1751 54.8439 62.3959 56.064 61.9963 57.4774C61.5634 59.0086 61.5989 60.4931 62.6623 61.7821C63.3816 62.6511 64.2962 63.16 65.4795 62.9889C66.241 62.8777 66.7072 62.4399 66.9181 61.591C66.6455 61.7925 66.3259 61.9207 65.9897 61.9635C65.6536 62.0063 65.3121 61.9622 64.9978 61.8354C64.6884 61.7364 64.4048 61.57 64.1672 61.3483C63.9296 61.1267 63.744 60.8551 63.6236 60.5531C62.8022 58.6597 63.7834 57.3418 65.0599 56.7751C66.705 56.0551 68.2479 56.2884 69.5754 57.4885C70.9674 58.7464 71.4225 60.3776 70.994 62.1755C70.5034 64.2445 69.0426 65.4401 67.109 66.0824C63.7213 67.2091 59.8651 66.0402 57.9248 62.3044C57.0368 60.5798 56.8392 58.6864 56.9125 56.7485C56.9724 55.2217 57.0945 53.6927 56.9014 52.1593C56.575 49.5835 55.0543 47.5456 52.2926 47.2234C51.711 47.1545 51.9418 46.8478 52.1372 46.61C53.1162 45.4099 54.426 44.9188 55.9334 44.9344C58.4776 44.9632 60.5289 46.59 61.2837 49.1035C61.5174 49.9372 61.6303 50.8001 61.6189 51.6659C62.9886 48.8702 64.869 46.5322 66.7027 44.1654C67.9482 42.5564 69.1159 40.9074 69.8618 38.9918C71.4447 34.9293 69.6776 30.1623 65.9279 28.4333C64.5129 27.7996 62.9143 27.7094 61.4371 28.18C59.9598 28.6505 58.7072 29.6488 57.9181 30.9846C57.0168 32.558 57.1633 35.007 58.24 36.3182C59.0215 37.2805 59.9317 37.5072 61.1483 37.005C60.3157 36.6272 59.9206 35.9471 59.7807 35.1248C59.5077 33.5358 60.9285 32.2602 62.6978 32.4824C64.6248 32.7247 66.0012 34.6381 65.6837 36.7227C65.3818 38.7073 64.1919 39.9429 62.3337 40.6607C59.3523 41.8097 55.3385 40.7319 53.4537 36.8072C51.7198 33.1958 52.7433 28.6222 55.6537 25.9376C58.9704 22.8752 62.8732 21.7862 67.2533 23.2707C69.7775 24.1263 71.6711 25.8865 73.0409 28.1333C74.9767 31.3135 75.5584 34.7226 74.3396 38.325C73.7353 40.0755 72.8217 41.7029 71.6423 43.1298C71.4188 43.4157 71.1923 43.6972 70.9629 43.9743Z" fill="#80CCE8"/>
<path d="M41.2056 60.0175C40.0485 66.2783 40.0741 72.7007 41.2811 78.9521C41.5209 80.1677 43.2614 80.1588 43.4701 78.9365C44.2182 74.5029 44.8709 67.438 43.3879 60.0197C43.1482 58.8174 41.4321 58.8108 41.2056 60.0175Z" fill="#80CCE8"/>
<path d="M42.378 87.5145C42.378 87.5145 36.8723 85.2388 35.4515 83.3431C34.0307 81.4474 31.0647 80.7207 31.3511 82.6631C31.6375 84.6054 39.8072 94.6639 42.318 94.6639L42.378 87.5145Z" fill="#80CCE8"/>
<path d="M42.3778 87.5148C42.3778 87.5148 47.7636 85.2391 49.1844 83.3434C50.6052 81.4477 53.5778 80.3721 53.2914 82.3167C53.005 84.2612 44.8265 94.673 42.3179 94.673L42.3778 87.5148Z" fill="#80CCE8"/>
</svg>
