<svg id="Layer_1" data-name="Layer 1" xmlns="http://www.w3.org/2000/svg" viewBox="0 0 382.88 463.47"><defs><style>.cls-1{fill:#aa5c9d;}</style></defs><path class="cls-1" d="M63.23,197.87c-6.8-3-13.7-5.06-21.2-5-22.78.23-39.12,22.54-32.4,44.28,2.91,9.4,8.55,16.51,17.63,20.43,8.16,3.53,20.39,2.7,26.33-6.7,3.1-4.91,2.26-11.66-1.89-14.57-2.31-1.62-3-1.34-3.27,1.41-.74,6.41-8.36,9.81-14.34,6.41-10-5.69-10.29-18.84-.48-26.46,6.21-4.82,13.4-5.52,20.79-3.88,17.09,3.8,29.34,14.7,39.86,27.9,4,5.09,7.55,10.58,9.36,16.94,1.95,6.89,1.78,13.57-3,19.37-3.25,3.91-7.37,6.2-12.69,5.43-3.44-.5-5.54-2.47-6.48-6.29a8.91,8.91,0,0,0,8.64,1.1,9.94,9.94,0,0,0,6.2-5.77c3.7-8.52-.72-14.45-6.47-17-7.42-3.24-14.37-2.19-20.35,3.21-6.27,5.66-8.31,13-6.38,21.09,2.2,9.31,8.79,14.69,17.49,17.58,15.27,5.07,32.64-.19,41.37-17,4-7.76,4.9-16.28,4.56-25-.26-6.87-.81-13.75.06-20.65,1.47-11.59,8.32-20.76,20.75-22.21,2.62-.31,1.59-1.69.71-2.76-4.41-5.4-10.31-7.61-17.11-7.54-11.46.13-20.7,7.45-24.09,18.76a40.67,40.67,0,0,0-1.51,11.53c-6.17-12.58-14.64-23.1-22.91-33.75-5.61-7.24-10.87-14.66-14.23-23.28C61,157.21,69,135.76,85.88,128A28.43,28.43,0,0,1,122,139.46c4.07,7.08,3.4,18.1-1.44,24-3.53,4.33-7.62,5.35-13.1,3.09,3.75-1.7,5.52-4.76,6.16-8.46,1.23-7.15-5.18-12.89-13.14-11.89-8.68,1.09-14.88,9.7-13.46,19.08,1.36,8.93,6.73,14.49,15.1,17.72,13.42,5.17,31.51.32,40-17.34,7.81-16.25,3.19-36.83-9.91-48.91-14.94-13.78-32.52-18.68-52.25-12-11.38,3.85-19.9,11.77-26.07,21.88C45.12,141,42.51,156.32,48,172.53a69.14,69.14,0,0,0,12.15,21.62C61.16,195.4,62.2,196.64,63.23,197.87Z"/><path class="cls-1" d="M319.65,197.87c6.8-3,13.7-5.06,21.19-5,22.78.23,39.13,22.54,32.4,44.28-2.9,9.4-8.55,16.51-17.62,20.43-8.16,3.53-20.4,2.7-26.33-6.7-3.11-4.91-2.27-11.66,1.88-14.57,2.31-1.62,2.95-1.34,3.27,1.41.75,6.41,8.37,9.81,14.35,6.41,10-5.69,10.28-18.84.48-26.46-6.22-4.82-13.4-5.52-20.8-3.88-17.08,3.8-29.33,14.7-39.85,27.9-4.05,5.09-7.56,10.58-9.36,16.94-1.95,6.89-1.79,13.57,3,19.37,3.24,3.91,7.36,6.2,12.69,5.43,3.43-.5,5.53-2.47,6.48-6.29a8.94,8.94,0,0,1-8.65,1.1,9.92,9.92,0,0,1-6.19-5.77c-3.7-8.52.72-14.45,6.47-17,7.41-3.24,14.36-2.19,20.34,3.21,6.27,5.66,8.32,13,6.39,21.09-2.21,9.31-8.79,14.69-17.5,17.58-15.26,5.07-32.63-.19-41.37-17-4-7.76-4.89-16.28-4.56-25,.27-6.87.82-13.75-.05-20.65-1.47-11.59-8.32-20.76-20.76-22.21-2.62-.31-1.58-1.69-.7-2.76,4.41-5.4,10.31-7.61,17.1-7.54,11.46.13,20.7,7.45,24.1,18.76a40.67,40.67,0,0,1,1.51,11.53c6.17-12.58,14.64-23.1,22.9-33.75,5.61-7.24,10.87-14.66,14.23-23.28,7.13-18.28-.83-39.73-17.72-47.51a28.43,28.43,0,0,0-36.08,11.48c-4.06,7.08-3.4,18.1,1.45,24,3.52,4.33,7.62,5.35,13.1,3.09-3.75-1.7-5.53-4.76-6.16-8.46-1.23-7.15,5.17-12.89,13.14-11.89,8.68,1.09,14.88,9.7,13.45,19.08-1.36,8.93-6.72,14.49-15.09,17.72-13.43,5.17-31.51.32-40-17.34-7.81-16.25-3.2-36.83,9.91-48.91,14.94-13.78,32.52-18.68,52.25-12,11.37,3.85,19.9,11.77,26.07,21.88,8.72,14.31,11.34,29.65,5.85,45.86a69.54,69.54,0,0,1-12.15,21.62Q321.2,196,319.65,197.87Z"/><path class="cls-1" d="M185.61,270.06a229.22,229.22,0,0,0,.34,85.2c1.08,5.47,8.92,5.43,9.86-.07,3.37-19.95,6.31-51.74-.37-85.12C194.36,264.66,186.63,264.63,185.61,270.06Z"/><path class="cls-1" d="M190.89,393.79s-24.8-10.24-31.2-18.77-19.76-11.8-18.47-3.06,38.09,54,49.4,54Z"/><path class="cls-1" d="M190.89,393.79s24.26-10.24,30.66-18.77,19.79-13.37,18.5-4.62S201.92,426,190.62,426Z"/></svg>