<svg width="85" height="103" viewBox="0 0 85 103" fill="none" xmlns="http://www.w3.org/2000/svg">
<path d="M14.0372 43.9742C12.5276 43.3075 10.9958 42.8497 9.33077 42.863C4.27357 42.9141 0.646067 47.8722 2.13792 52.7036C2.78394 54.7927 4.03603 56.3728 6.05181 57.2439C7.86334 58.0284 10.5784 57.844 11.8971 55.755C12.5853 54.6638 12.3988 53.1637 11.4775 52.517C10.9647 52.1569 10.8115 52.2192 10.7516 52.8303C10.5873 54.2549 8.89565 55.0105 7.56808 54.2549C5.34806 52.9903 5.28368 50.0679 7.46152 48.3745C8.84015 47.3033 10.4363 47.1477 12.0769 47.5122C15.8709 48.3567 18.5905 50.7791 20.9259 53.7126C21.8139 54.8438 22.602 56.0639 23.0039 57.4773C23.4368 59.0085 23.399 60.493 22.3379 61.782C21.6163 62.651 20.7017 63.1599 19.5207 62.9888C18.757 62.8776 18.2908 62.4398 18.0821 61.5909C18.3542 61.7926 18.6734 61.9209 19.0093 61.9637C19.3451 62.0065 19.6863 61.9623 20.0002 61.8354C20.3098 61.7363 20.5937 61.57 20.8316 61.3483C21.0696 61.1266 21.2557 60.8551 21.3766 60.553C22.198 58.6596 21.2167 57.3417 19.9402 56.775C18.293 56.055 16.7501 56.2883 15.4225 57.4884C14.0305 58.7463 13.5777 60.3775 14.0061 62.1754C14.4945 64.2444 15.9575 65.44 17.8889 66.0823C21.2789 67.209 25.1351 66.0401 27.0731 62.3043C27.9612 60.5797 28.161 58.6863 28.0855 56.7484C28.0278 55.2216 27.9057 53.6926 28.0988 52.1592C28.4251 49.5834 29.9458 47.5455 32.7053 47.2233C33.287 47.1544 33.0583 46.8477 32.8629 46.6099C31.8839 45.4098 30.5741 44.9187 29.0645 44.9343C26.5204 44.9631 24.4691 46.5899 23.7165 49.1034C23.4827 49.9371 23.3698 50.8 23.3813 51.6658C22.0115 48.8701 20.1312 46.5321 18.2952 44.1653C17.0498 42.5563 15.882 40.9073 15.1361 38.9917C13.5421 34.9381 15.3182 30.1711 19.0655 28.4465C20.4811 27.8099 22.0814 27.7177 23.5606 28.1875C25.0398 28.6574 26.2942 29.6562 27.0842 30.9934C27.9878 32.5668 27.8391 35.0158 26.7646 36.327C25.9809 37.2893 25.0729 37.516 23.8563 37.0137C24.6888 36.6359 25.0818 35.9559 25.2239 35.1336C25.4969 33.5446 24.0739 32.269 22.3068 32.4912C20.3798 32.7335 19.0034 34.6469 19.3186 36.7315C19.6206 38.7161 20.8127 39.9517 22.6709 40.6695C25.6501 41.8185 29.6661 40.7407 31.5509 36.816C33.2848 33.2046 32.2591 28.631 29.3509 25.9464C26.0342 22.8839 22.1314 21.795 17.7513 23.2795C15.2249 24.1351 13.3335 25.8952 11.9637 28.1421C10.0168 31.3356 9.43733 34.7403 10.6561 38.3427C11.2586 40.094 12.1724 41.7217 13.3534 43.1475C13.5777 43.4253 13.8085 43.7008 14.0372 43.9742Z" fill="white"/>
<path d="M70.9628 43.9743C72.4724 43.3076 74.0042 42.8498 75.667 42.8631C80.7242 42.9142 84.354 47.8723 82.8599 52.7037C82.2161 54.7928 80.9618 56.3729 78.9482 57.244C77.1367 58.0285 74.4194 57.8441 73.1029 55.7551C72.4125 54.6639 72.599 53.1638 73.5203 52.5171C74.0331 52.157 74.1752 52.2193 74.2462 52.8304C74.4127 54.255 76.1044 55.0106 77.432 54.255C79.652 52.9904 79.7141 50.068 77.5385 48.3746C76.1577 47.3034 74.5637 47.1478 72.9209 47.5123C69.1291 48.3568 66.4096 50.7792 64.0741 53.7127C63.175 54.8439 62.3958 56.064 61.9962 57.4774C61.5633 59.0086 61.5988 60.4931 62.6622 61.7821C63.3815 62.6511 64.2961 63.16 65.4794 62.9889C66.2408 62.8777 66.707 62.4399 66.918 61.591C66.6453 61.7925 66.3257 61.9207 65.9896 61.9635C65.6534 62.0063 65.3119 61.9622 64.9976 61.8354C64.6883 61.7364 64.4047 61.57 64.1671 61.3483C63.9295 61.1267 63.7439 60.8551 63.6234 60.5531C62.802 58.6597 63.7833 57.3418 65.0598 56.7751C66.7048 56.0551 68.2477 56.2884 69.5753 57.4885C70.9673 58.7464 71.4224 60.3776 70.9939 62.1755C70.5033 64.2445 69.0425 65.4401 67.1089 66.0824C63.7211 67.2091 59.865 66.0402 57.9247 62.3044C57.0367 60.5798 56.8391 58.6864 56.9123 56.7485C56.9723 55.2217 57.0944 53.6927 56.9012 52.1593C56.5749 49.5835 55.0542 47.5456 52.2925 47.2234C51.7108 47.1545 51.9417 46.8478 52.1371 46.61C53.1161 45.4099 54.4259 44.9188 55.9333 44.9344C58.4774 44.9632 60.5287 46.59 61.2835 49.1035C61.5173 49.9372 61.6302 50.8001 61.6188 51.6659C62.9885 48.8702 64.8689 46.5322 66.7026 44.1654C67.948 42.5564 69.1158 40.9074 69.8617 38.9918C71.4446 34.9293 69.6774 30.1623 65.9278 28.4333C64.5127 27.7996 62.9142 27.7094 61.4369 28.18C59.9597 28.6505 58.7071 29.6488 57.918 30.9846C57.0167 32.558 57.1632 35.007 58.2399 36.3182C59.0214 37.2805 59.9316 37.5072 61.1481 37.005C60.3156 36.6272 59.9205 35.9471 59.7806 35.1248C59.5075 33.5358 60.9284 32.2602 62.6977 32.4824C64.6247 32.7247 66.0011 34.6381 65.6836 36.7227C65.3817 38.7073 64.1918 39.9429 62.3336 40.6607C59.3521 41.8097 55.3383 40.7319 53.4536 36.8072C51.7197 33.1958 52.7431 28.6222 55.6536 25.9376C58.9703 22.8752 62.8731 21.7862 67.2532 23.2707C69.7773 24.1263 71.671 25.8865 73.0408 28.1333C74.9766 31.3135 75.5583 34.7226 74.3395 38.325C73.7352 40.0755 72.8216 41.7029 71.6421 43.1298C71.4187 43.4157 71.1922 43.6972 70.9628 43.9743Z" fill="white"/>
<path d="M41.2058 60.0175C40.0487 66.2783 40.0743 72.7007 41.2812 78.9521C41.521 80.1677 43.2615 80.1588 43.4702 78.9365C44.2183 74.5029 44.871 67.438 43.388 60.0197C43.1483 58.8174 41.4322 58.8108 41.2058 60.0175Z" fill="white"/>
<path d="M42.378 87.5145C42.378 87.5145 36.8723 85.2388 35.4515 83.3431C34.0307 81.4474 31.0647 80.7207 31.3511 82.6631C31.6375 84.6054 39.8072 94.6639 42.318 94.6639L42.378 87.5145Z" fill="white"/>
<path d="M42.3779 87.5148C42.3779 87.5148 47.7637 85.2391 49.1845 83.3434C50.6053 81.4477 53.5779 80.3721 53.2915 82.3167C53.0052 84.2612 44.8266 94.673 42.318 94.673L42.3779 87.5148Z" fill="white"/>
</svg>
