<svg id="Layer_1" data-name="Layer 1" xmlns="http://www.w3.org/2000/svg" viewBox="0 0 566.93 566.93"><defs><style>.cls-1{fill:#fff;}</style></defs><path class="cls-1" d="M373.39,417.37q-1.54,6.6-3.11,13.21c-.48,2-1.19,2.41-2.91,1.31-13.26-8.55-28.25-12.16-43.4-15.41a198.7,198.7,0,0,0-49-4,203.87,203.87,0,0,0-41.09,6c-9.45,2.3-18.83,4.81-27.59,9.2a50.39,50.39,0,0,0-6.68,4.06c-1.36,1-2.33.89-2.75-.93q-1.48-6.51-3-13c.74-1.92,2.35-3.08,3.89-4.25a82.24,82.24,0,0,1,22.64-11.79,169.89,169.89,0,0,1,39.48-8.48A218.45,218.45,0,0,1,288.81,392c22.07.65,43.75,3.66,64.4,12A77.54,77.54,0,0,1,371,414.44,7,7,0,0,1,373.39,417.37Z"/><path class="cls-1" d="M396.25,348.13A136.58,136.58,0,0,0,399,321.39a129.85,129.85,0,0,0-2.67-26.2c-.43-2.13-1.36-4.25-.94-6.52a174.85,174.85,0,0,0-9.16-28.55c-13.51-32.81-33.76-61.13-57.84-86.91-13-14-27.55-26.21-42.61-37.88-1.72-1.34-2.76-1.07-4.26.07A361.68,361.68,0,0,0,250,162.12a304,304,0,0,0-30.34,33.4c-14.92,19.18-28.13,39.38-37.7,61.82a171.87,171.87,0,0,0-13.73,54.5,139.21,139.21,0,0,0,1.2,30.45,154.14,154.14,0,0,0,12.43,41.95c3.22,7.12,8.82,13.19,9.62,21.39,1.17,0,1.92-.76,2.72-1.41a57.37,57.37,0,0,1,13.48-8,159,159,0,0,1,36.18-10.54,199.59,199.59,0,0,1,28.33-3.22c.8,0,2.07.42,2.13-1.16-.11-.06-.23,0-.31-.11.29,0-.06-.08.22,0a6,6,0,0,0,2.41.37,268.51,268.51,0,0,1,29.75.95,32.76,32.76,0,0,1,7,1c.59.73,1.46.69,2.26.8A195.59,195.59,0,0,1,346.44,391c9.86,3.07,19.36,6.87,27.46,13.52.51.41,1,1,1.78.67.73-2.32.59-4.86,1.9-7.06a148.59,148.59,0,0,0,18.7-47.82A4.36,4.36,0,0,1,396.25,348.13Zm-96.91.45c-6.33,6-11.92,12.59-15.74,20.77-4.3-10.36-12.17-17.55-20.28-24.6-7.63-6.64-13.13-14.67-14.75-24.94,0-.14-.1-.28-.13-.43-.88-4.3,0-5.06,4.32-4.38,7.77,1.23,13.74,5.52,19.1,10.91a34.72,34.72,0,0,0,2.9,3.06c1-2,.23-3.46-.17-5-1.84-6.83-4.32-13.5-5.33-20.54-2.76-19.1.25-37.06,11-53.36,3.25-4.94,3.54-4.83,6.85.11A70.74,70.74,0,0,1,298.3,281.5c1.57,12.86-.27,25.31-4.34,37.52-.88,2.6-1.43,5.32-2.12,8-.12.47-.61,1,0,1.4s1-.15,1.4-.46c1.2-1,2.39-2,3.49-3.16,4.87-5,10.43-8.69,17.46-9.77.3-.05.59-.14.89-.18,3.27-.41,4.43.66,3.75,3.86-1.43,6.69-3.8,13-8.09,18.46C307.42,341.43,303.25,344.87,299.34,348.58Zm85.5-23.41a128.32,128.32,0,0,1-3.77,28.34,21.56,21.56,0,0,0-.67,3.74,3.33,3.33,0,0,1-.75,2.42c-2.41,7-4.8,14-8.16,20.68-.84,1.67-1.59,2.08-3.4,1.16-14.26-7.28-29.55-10.9-45.34-12.78-4.85-.58-9.7-1.17-15.05-1.46a67.91,67.91,0,0,0,10.53-8.13c8.13-7.76,13.07-17,13.88-28.42a110.41,110.41,0,0,0,.1-13c-.31-6.6.7-13,4.2-18.71a6.31,6.31,0,0,1,1.46-2.45c1.29-1.66,1.16-2.11-.95-2.66a34.33,34.33,0,0,0-20.26,2.54,3.86,3.86,0,0,1-1.71.46l-4.27,2.26c1-1.73,1.75-3.13,2.58-4.49,4.33-7.07,5-14.76,3.68-22.71-2.15-12.68-8.21-23.73-14.86-34.47a219,219,0,0,0-15.64-22.4c-2.3-2.85-2.77-3-5.07-.13-10.35,12.71-19.63,26.12-26.29,41.19a1.27,1.27,0,0,0-.05.44c-1.25,3.82-3,7.46-3.74,11.45-1.53,7.76-2.57,15.46,1.21,22.93a4.11,4.11,0,0,1,.45,1.72c1,2,2,4.06,3.2,6.41-3.8-2.19-7.14-4.43-11.15-5.2a66.26,66.26,0,0,0-14.55-.69,2.39,2.39,0,0,0-2.31,1.11c-.44,1,.29,1.62.89,2.32,4.43,5.11,5.91,11.27,6.19,17.81.22,5.16-.42,10.29-.05,15.48,1,13.61,7,24.32,17.71,32.55,2,1.54,4.09,2.92,6.46,4.61-3,.25-5.69.46-8.37.72-18,1.78-35.44,5.64-51.74,13.73-1.79.89-2.71.53-3.55-1-1.77-2.44-2.59-5.33-3.77-8a118.77,118.77,0,0,1-7.21-23.7,23,23,0,0,1-.82-6.13,124.26,124.26,0,0,1-1.15-27.78A152.92,152.92,0,0,1,191.37,275c8.95-25.38,22.56-48.08,39.12-69.19,12.84-16.37,28.24-30.12,43.51-44,2.71-2.47,5.57-4.79,8.23-7.31,1.15-1.09,1.85-.88,2.9.05,7.58,6.69,15.09,13.45,22.46,20.37a280.37,280.37,0,0,1,21.86,22.29c16.69,19.6,30.84,40.83,41.46,64.34a12.86,12.86,0,0,0,.65,1.14c2.19,3.69,3.49,7.77,4.93,11.77a147.51,147.51,0,0,1,7,26.62,73.81,73.81,0,0,1,1.36,13.35C384.76,318,384.92,321.58,384.84,325.17Z"/></svg>