<svg width="120" height="239" viewBox="0 0 120 239" fill="none" xmlns="http://www.w3.org/2000/svg">
<path d="M37.1243 101.446C38.282 99.7621 39.9435 99.2915 41.852 99.7476C43.591 100.165 46.5168 98.1901 44.7148 97.603C43.2132 97.1178 41.7067 96.4045 40.1712 96.3075C36.296 96.0503 34.092 98.4375 32.6581 101.688C31.4375 104.464 36.0635 102.989 37.1243 101.446ZM25.4454 145.114C25.1887 144.769 25.0579 144.551 24.8835 144.367C23.1106 142.484 21.1779 140.728 19.5794 138.709C15.4281 133.454 14.8274 127.647 17.4335 121.509C17.9828 120.399 18.5924 119.32 19.2597 118.277C13.8054 121.339 11.6304 128.952 13.6407 134.774C15.7623 140.922 22.0983 145.517 25.4454 145.119V145.114ZM31.9364 149.432C37.6765 153.348 47.7423 150.315 51.2881 143.547C45.4559 147.807 39.2363 150.024 31.9364 149.442V149.432ZM92.1519 79.6457C92.0404 79.3571 91.9026 79.0793 91.7402 78.816C90.5534 77.3604 87.865 76.5647 86.097 77.1275C85.419 77.2992 84.7974 77.6451 84.2937 78.1309C83.7899 78.6168 83.4214 79.2259 83.2245 79.898C83.1478 80.1878 83.1368 80.4911 83.1921 80.7858C83.2474 81.0804 83.3677 81.3589 83.5442 81.6011C83.8009 81.8437 84.6583 81.5623 85.196 81.3633C86.436 80.9121 87.618 80.2425 88.8823 79.9077C89.8511 79.6312 90.9216 79.7233 92.1519 79.6457ZM12.11 113.707C12.2117 113.658 18.9933 104.289 23.968 102.809C24.2876 102.732 24.5836 102.578 24.8308 102.361C25.078 102.143 25.2689 101.869 25.3873 101.562C26.7049 98.651 27.8868 95.6767 30.1974 93.3623C33.1038 90.4754 36.606 89.4274 40.578 89.898C42.6658 90.1503 44.7293 90.6161 46.7977 91.0043C50.0868 91.6205 53.216 90.9024 56.2774 89.8058C62.8022 87.4574 69.1576 84.7452 75.1302 81.1887C76.8825 80.2043 78.2897 78.7034 79.1604 76.8898C82.1104 70.5822 89.5556 69.5293 94.884 74.3376C96.8475 76.1641 98.3429 78.4375 99.2435 80.9655C100.488 84.2406 99.7667 86.0746 97.0153 88.554C96.3517 89.1459 96.1095 89.5487 96.3904 90.3978C97.1219 92.6006 96.8506 94.8179 96.2257 96.9916C96.0497 97.5198 95.766 98.0056 95.3926 98.4181C94.8258 99.0828 94.2978 98.9907 93.9927 98.1416C93.8037 97.6175 93.673 97.0741 93.4744 96.5549C93.1902 95.725 92.852 94.9146 92.462 94.1289C91.2364 91.8873 90.2192 91.7029 88.1024 93.2459C88.5093 97.0353 88.5868 100.733 85.4721 103.498L84.9441 103.45C84.8161 102.531 84.6169 101.625 84.3483 100.737C83.9057 99.6033 83.3609 98.5119 82.7207 97.4768C82.3913 96.9334 81.8197 96.7781 81.1997 97.2973C80.2309 98.0882 79.2137 98.7529 78.2933 99.5777C78.1736 99.7333 78.0866 99.9115 78.0375 100.102C77.9884 100.292 77.9782 100.49 78.0075 100.684C78.3078 103.338 78.2836 105.944 77.1404 108.447C76.8207 109.136 76.5156 109.874 75.7115 109.714L72.8584 103.522C71.4052 104.682 70.1651 105.643 68.9832 106.686C68.7604 106.88 68.7749 107.414 68.7846 107.787C68.8475 110.179 69.0946 112.596 68.0337 114.852C67.6415 115.534 67.1943 116.183 66.6968 116.793L66.3093 116.686C65.5924 114.818 64.8803 112.95 64.0568 110.791C62.5116 111.946 61.1505 112.935 59.8135 113.964C56.9071 116.196 54.0685 118.52 50.6439 119.976C47.6648 121.242 44.5647 121.15 41.4403 120.82C34.6151 120.097 29.2431 122.523 25.3292 128.302C26.1963 127.991 27.0827 127.724 27.9304 127.365C31.0887 126.016 34.2906 124.968 37.7831 124.735C41.7406 124.473 45.1653 125.473 48.1734 128.035C50.6923 130.184 53.1918 132.363 56.2386 133.755C58.2307 134.729 60.4163 135.24 62.6327 135.25C57.0912 132.338 52.6977 128.127 48.8467 123.212C52.068 122.431 54.8242 123.396 57.4545 125.085C59.1678 126.232 60.947 127.277 62.7829 128.214C64.2845 128.947 64.4928 128.797 65.1467 127.21C65.5455 126.131 65.885 125.031 66.164 123.915C66.3044 123.43 66.4062 122.945 66.5854 122.217C69.5451 124.338 69.6226 127.355 69.9181 130.412C71.2162 130.587 72.5435 130.805 73.8756 130.897C74.1178 130.897 74.5295 130.49 74.6361 130.189C75.1932 128.617 75.7454 127.04 76.162 125.424C76.3702 124.604 76.845 124.454 77.3051 124.891C78.1085 125.58 78.7671 126.423 79.2427 127.37C79.7271 128.554 79.887 129.888 80.2115 131.305C81.3692 131.305 82.5996 131.358 83.8203 131.271C84.007 131.211 84.1772 131.108 84.3175 130.971C84.4579 130.834 84.5646 130.666 84.6292 130.48C85.196 128.622 85.6804 126.739 86.2326 124.716C89.4393 125.793 89.3182 128.903 90.2725 131.358C90.7297 131.432 91.1981 131.344 91.5976 131.109C91.997 130.874 92.3026 130.508 92.462 130.073C93.0771 128.753 93.4308 127.326 93.9491 125.953C94.0992 125.531 94.3221 125.138 94.511 124.735C94.9421 124.988 95.4798 125.148 95.7752 125.517C96.9087 127.05 96.8458 128.884 96.9426 130.674C96.9426 130.985 97.1364 131.46 97.3689 131.557C100.411 132.843 100.488 135.439 99.3065 137.977C97.7225 141.412 94.7241 143.241 91.2122 144.148C89.3221 144.617 87.3851 144.869 85.4382 144.9C81.0108 145.007 76.5737 144.784 72.156 144.968C67.5542 145.162 63.2043 146.346 59.4744 149.267C54.5869 153.086 43.4215 159.083 34.8767 160.771C25.3098 162.668 -6.64595 137.346 12.11 113.707Z" fill="#D86F3A"/>
</svg>
