<svg id="Layer_1" data-name="Layer 1" xmlns="http://www.w3.org/2000/svg" viewBox="0 0 513.68 514.28"><defs><style>.cls-1{fill:#233565;}</style></defs><path class="cls-1" d="M300,452.55c-20.38,8.5-34.17,24.09-43.89,44.23-3.58-10.53-10.7-18.31-17.73-26.2-7.2-8.08-16.37-13.28-25.81-18.33,13.58-4.67,40.89-31.59,43.52-42.53C266.69,428,281.18,442.55,300,452.55Z"/><path class="cls-1" d="M61.27,388.87C53.69,369,40.64,354.3,21.86,345.78c18.85-7.71,31.88-21.92,39.48-41,9.17,18.28,21.65,33.67,42,40.11C82.14,351.82,69.35,368.12,61.27,388.87Z"/><path class="cls-1" d="M410.23,344.3c16.51-4.19,35.23-25.21,41.64-40.5,8,18.65,19.86,33.74,38.95,40.81-20.43,7.24-30.54,24.69-39.11,42.88C444.69,367.82,431.87,352.23,410.23,344.3Z"/><path class="cls-1" d="M456,101.73C449.28,84,439,69.76,420.75,62.88c17.15-8.69,29.81-21.36,35.4-40.48C462,41,473.47,54.75,491.59,63.32,474.41,71,463.28,84.59,456,101.73Z"/><path class="cls-1" d="M57.55,103.14c-5.4-18.14-16.87-31.63-34.81-40C38.91,56.24,55.17,36.5,57.23,22.06A54.22,54.22,0,0,0,70.17,46.39c6.27,7,13.25,12.93,22.17,16.32C74.16,70.78,62.64,84.49,57.55,103.14Z"/><path class="cls-1" d="M395.13,55.91a165.5,165.5,0,0,0-12-13.8c-2.77-2.72-5.62-5.37-8.61-7.83s-3.32-2.69-.11-5.34a126,126,0,0,0,16-15.68c1.52-1.8,3.06-3.58,4.72-5.52a142.85,142.85,0,0,0,20,20.27c4.32,3.52,4.24,3.53,0,7.15C407.8,41.3,401.49,48.35,395.13,55.91Z"/><path class="cls-1" d="M116.94,56.28A92.72,92.72,0,0,0,97.29,34.8c-.73-.6-1.41-1.26-2.11-1.89-1.06-.95-1.28-1.67,0-2.8,6.3-5.45,12.77-10.75,17.9-17.4,1.27-1.64,2.62-3.21,4-5a161.28,161.28,0,0,0,23.93,23.88A138.86,138.86,0,0,0,116.94,56.28Z"/><path class="cls-1" d="M482.68,413.26a16,16,0,0,1-15.8-15.93,16.62,16.62,0,0,1,16.67-16.5c8.3.1,16.29,7.77,15.83,16.18C498.83,407,490.86,413.89,482.68,413.26Z"/><path class="cls-1" d="M46.11,397c.58,8.43-6.27,15.49-15.38,16.32s-16.38-7.66-16.61-15.17c-.28-9.07,5.36-16.62,15.79-17.17C37.66,380.54,45.8,386.51,46.11,397Z"/><path class="cls-1" d="M445.14,227.28c.47,8.42-8.41,15.61-14.56,15.74-10.48.22-16.9-7.42-17-15.5-.18-9.87,6.32-16.57,16.26-16.79C438.24,210.54,445,217.85,445.14,227.28Z"/><path class="cls-1" d="M83.72,242.9c-7.28,0-15.51-7.82-15.51-14.74,0-10,6.77-17.6,15.73-17.61a15.65,15.65,0,0,1,15.91,16C99.44,236.7,93.32,242.11,83.72,242.9Z"/><path class="cls-1" d="M434.34,167.15A173.85,173.85,0,0,0,430.6,148h0a165.44,165.44,0,0,0-8.89-27.32C408,89,387.28,63,359.07,43.09a177,177,0,0,0-87.36-32.24,170.57,170.57,0,0,0-55.48,4.34Q153.89,30,114.68,80.58A172.57,172.57,0,0,0,85.93,136a182.38,182.38,0,0,0-7.52,34.8,119,119,0,0,0-1.34,16.85h0c-.3,1-.77,2,.09,2.93l27.92,0h0c.61-.21.45-.74.47-1.17a171.21,171.21,0,0,1,8.67-46c10-29.83,26.81-54.74,51.76-74.14S219.45,41,250.41,38.78c14.06-1,27.92,1,41.64,4,26,5.7,48.11,18.62,67.32,36.58,17.69,16.53,29.89,36.82,38.3,59.46,3.05,8.21,5.14,16.69,7.32,25.15a234,234,0,0,1,2.89,25.45c.08,1.33.86,1.22,1.72,1.22,8.35,0,16.69,0,25,0,1.4,0,1.64-.41,1.65-1.78A141.45,141.45,0,0,0,434.34,167.15Z"/></svg>