<svg id="Layer_1" data-name="Layer 1" xmlns="http://www.w3.org/2000/svg" viewBox="0 0 595.28 566.93"><defs><style>.cls-1{fill:#ce433a;}</style></defs><path class="cls-1" d="M162.75,369.16a2.45,2.45,0,0,0,1.29-2.81,77.25,77.25,0,0,0-12.44-35.11c-6.71-10.45-15.63-18.61-24.72-26.73C119.54,298,112.69,290.92,108,282.2c-6.06-11.3-8.86-23.44-7.52-36.31.43-4.23,1.21-8.44,2-12.61.26-1.28-.06-3.4,1.88-3.5a5.49,5.49,0,0,1,4.76,2.33c2.36,3.25,4.69,6.52,7,9.78,8.56,11.85,17.22,23.63,25.63,35.59,4.29,6.11,8.17,12.5,11.86,19,6.28,11.15,10.52,23.08,13.7,35.35,3.06,11.81,4.49,23.95,5.31,36.12.85,12.72.87,25.43-2.3,37.92-2.18-2.86-12.73-20.56-16.54-26.59-6.18-9.76-14-17.76-24.42-23-10.1-5.06-20.9-7.67-31.91-9.71-9.06-1.68-18.1-3.47-26.42-7.76-6.91-3.55-12-8.61-13.12-16.54s3.27-13.08,9.28-17.22c9-6.21,18.61-5.42,28.2-1.83C105.39,307,114,313,122.3,319.42c10.35,8.06,20.12,16.76,27.75,27.58,3.61,5.14,7.17,10.32,9.54,16.2A22.3,22.3,0,0,0,162.75,369.16Z"/><path class="cls-1" d="M377.28,404c-6.59-.53-13.82-3.41-18.13-11.31-3.69-6.77-2.36-14.29,3.15-18.78a10.65,10.65,0,0,1,12.77-.6c3.08,2.12,3.77,6.56,1.56,10.15-.77,1.26-2.38,2.53-1.09,4s3.19,1,4.93.38c7.2-2.46,9.64-9.14,8.36-16.38-1.38-7.81-8-13.57-15.87-14.8-8.44-1.31-15.66,1.6-22.59,5.82a90,90,0,0,0-14.71,11.82c-6.78,6.37-13.49,12.82-20.24,19.23a5.13,5.13,0,0,1-1.32,1.06c-1.17.54-2.64,1.21-3.67.42s0-2.06.4-3.06c4.48-12,11.65-22.37,20.25-31.78,6.65-7.28,14.07-13.68,23.28-17.36,12.85-5.13,25.57-5,37.17,3.4,8.19,6,12.61,14.33,14.11,24.37a32.21,32.21,0,0,1-2.76,18.06C398.64,398.34,389.78,404,377.28,404Z"/><path class="cls-1" d="M186.89,374.82c.33-16.45,11.52-31.88,29.14-34.7,12.27-2,23.15,1.32,32.95,8.57,15.12,11.17,25.74,25.84,32.88,43.1.42,1,1.42,2.62.41,3.23-1.26.76-3,.19-4.23-.9-1.69-1.51-3.38-3-5-4.58-5.73-5.5-11.31-11.15-17.16-16.51-7.5-6.88-15.32-13.3-25.51-16-9.21-2.44-18.93.83-24,8.32-3.81,5.7-3.68,17.23,3.4,21.23,1.68.94,3.37,1.9,5.42,1.8a2.94,2.94,0,0,0,2.51-1.17c.71-1-.21-1.72-.69-2.33a9,9,0,0,1-2.1-6c.2-4.73,5.4-8.38,10.23-7.33,9.16,2,13.46,11.89,8.43,21.06-5.66,10.32-19.46,14.17-30.37,9.41-9.59-4.19-14-12.08-15.84-21.89A27.65,27.65,0,0,1,186.89,374.82Z"/><path class="cls-1" d="M382,278.56c-1.71-11.28-7.94-19.61-17-26.16-12.95-9.35-32.27-9.72-45.49-.72a55.36,55.36,0,0,0-22.73,31.89,12.23,12.23,0,0,1-.62-1.41,53.6,53.6,0,0,0-14.79-24.25c-9.74-9.35-21.28-13.92-34.73-12.58-11.78,1.18-21.27,6.89-28.47,16.34a34.07,34.07,0,0,0-6.82,28,34.75,34.75,0,0,0,12,20.44c7.15,6.09,15.47,9,24.7,6.54,12.08-3.19,17.24-12.63,15.73-24.47-.91-7.08-4.69-12-12-13.66-4-.91-8.8.95-10.29,4.06-2.06,4.28-.81,9.05,3.45,11.23,2.83,1.45,1.87,3.67,1.8,5.63-.06,1.59-1.93,1.53-3,1.73C237.48,302.27,230,298,227.85,292c-4.57-12.59,4.2-29.25,21.57-30.15,9.33-.48,17.08,3.6,22.93,10.42,9.14,10.67,12.24,23.08,8.62,36.94-2.84,10.86-9.46,19.08-17.81,26.14-2.08,1.76-2.27,2.59-.33,4.44,4,3.8,7.78,7.78,11.36,11.95,5.74,6.68,11,13.71,14.09,22.08,3.27,8.95,4.72,17.72-3.57,25.14-1.41,1.26-1.26,2.86.19,4.45,3.09,3.42,6.39,6.65,9.2,10.32,1.51,2,3.25,2,4.86.11q4.71-5.39,9.39-10.79a3.12,3.12,0,0,0-.33-4.67c-6.11-4.64-6.48-11.13-5.29-17.72,2.06-11.41,8.72-20.46,16.14-29,3.77-4.33,7.81-8.44,11.76-12.61,1.05-1.11,1.13-1.85-.17-2.93-2.11-1.77-4-3.78-6-5.71-7.77-7.58-12.89-16.74-13.71-27.52-1.2-15.67,4.65-28.49,18.26-37,8.45-5.26,17.37-5.86,26.28-.7s13.94,18.94,9.47,27.73c-3,5.9-11.26,9.85-16.87,7.67-.7-.27-1.7-.39-1.72-1.45-.05-2.19-.51-4.3,2.25-5.68,3.49-1.75,4.52-5.11,4-8.87a7.84,7.84,0,0,0-6.85-6.25,13.08,13.08,0,0,0-11.49,3.91c-4.56,4.7-5.51,10.51-4.65,16.82,1.7,12.54,12.94,19.64,24.5,18C371.47,314.73,384.63,296.24,382,278.56Zm-74.08,63.12a48,48,0,0,0-11.14,18.4c-.92-.24-.78-1.18-1-1.78a46,46,0,0,0-10.4-16.44c-1.49-1.47-2.26-3.22-.92-4.94a76.55,76.55,0,0,0,12.28-21.86c2.7,8.09,6.25,15.14,11.67,21.17C310,338.1,309.78,339.69,307.87,341.68Z"/><path class="cls-1" d="M174.66,121.09c1.28-.21,1.6-1,2-1.65a174.37,174.37,0,0,1,22.49-26.12c4.57-4.38,8.68-9.2,11.32-15.07a16.68,16.68,0,0,0,1.14-11.58,6.45,6.45,0,0,0-2-3.25C208,62,205.36,61.75,204,62.79c-1.63,1.25-2,3.56-.87,5.74,1.59,3.13,1.4,3.44-2.07,3.49-5.63.07-9.9-5.62-8.74-11.68,2.61-13.59,17-14.36,24.71-8.51,6.63,5,9.07,12,8.1,20.15-1.29,10.77-7.19,18.86-15.21,25.65-9.46,8-19.18,15.72-27.65,24.85-4.79,5.18-9.51,10.39-13.1,16.52-.29.5-.42,1.36-1.27,1.25s-1-.78-1.24-1.37c-2.57-5.64-2.93-11.57-2-17.58,1.28-8.54,3.89-16.8,5.49-25.29C173,80.77,167.41,67,155,59.78c-9.17-5.38-20.41-4.21-27,2.8a19.27,19.27,0,0,0-2,23.33,10.52,10.52,0,0,0,8.53,4.82,6.09,6.09,0,0,0,5.83-3.2c1-2.21.13-5-2.09-7-1.9-1.69-1.9-2.45.34-3.73A11.57,11.57,0,0,1,150,76.5c4.05,2,6,5.63,6.25,10,.44,6.77-3.75,12.94-10.72,16.12-14.18,6.48-31.15-1-36.43-16.23-7.46-21.47,7.25-41.4,26.54-44.66,18.65-3.16,34.83,6,43.62,23.84,6.41,13,5.51,26.08,1.06,39.3-1.67,5-3.51,9.88-5.27,14.81C174.87,120.07,174.81,120.45,174.66,121.09Z"/><path class="cls-1" d="M167.77,471.81c8.24,11.2,17.71,21.3,27,31.53a101.4,101.4,0,0,1,14.11,20,13.15,13.15,0,0,1,1.2,3.12c.21.87,1.13,2,0,2.69s-2.09-.29-2.82-1.16c-5.22-6.31-12.07-10.55-18.81-15-8.48-5.56-17.36-10.56-24.38-18.13a147.13,147.13,0,0,1-15.44-20.66c-7-10.76-15.34-20.57-21.42-31.92-2.46-4.58-1.8-5.92,3.37-5.59,12.8.83,24.41,5.48,34.94,12.48,19,12.64,33.79,28.89,41.5,50.82a16.06,16.06,0,0,1,1.35,6.13c0,.9.58,2.16-.58,2.62s-1.66-.77-2.25-1.48c-2.78-3.38-5.36-6.94-8.3-10.17A159.19,159.19,0,0,0,167.77,471.81Z"/><path class="cls-1" d="M430.19,369.16a2.47,2.47,0,0,1-1.3-2.81,77.48,77.48,0,0,1,12.44-35.11c6.72-10.45,15.64-18.61,24.73-26.73,7.33-6.55,14.19-13.59,18.86-22.31a62.08,62.08,0,0,0,7.52-36.31c-.43-4.23-1.21-8.44-2-12.61-.26-1.28.06-3.4-1.88-3.5a5.49,5.49,0,0,0-4.76,2.33c-2.36,3.25-4.69,6.52-7,9.78-8.56,11.85-17.23,23.63-25.63,35.59-4.29,6.11-8.18,12.5-11.86,19-6.29,11.15-10.52,23.08-13.7,35.35-3.07,11.81-4.49,23.95-5.31,36.12-.85,12.72-.88,25.43,2.29,37.92,2.19-2.86,12.73-20.56,16.55-26.59,6.17-9.76,14-17.76,24.42-23,10.09-5.06,20.9-7.67,31.91-9.71,9.06-1.68,18.1-3.47,26.42-7.76,6.91-3.55,11.95-8.61,13.12-16.54s-3.27-13.08-9.28-17.22c-9-6.21-18.62-5.42-28.2-1.83-9.91,3.71-18.53,9.73-26.82,16.17-10.36,8.06-20.12,16.76-27.75,27.58-3.62,5.14-7.17,10.32-9.54,16.2A22.59,22.59,0,0,1,430.19,369.16Z"/><path class="cls-1" d="M425.17,471.81c-8.24,11.2-17.71,21.3-27,31.53a101,101,0,0,0-14.11,20,13.15,13.15,0,0,0-1.2,3.12c-.22.87-1.13,2,0,2.69s2.09-.29,2.82-1.16c5.22-6.31,12.07-10.55,18.8-15,8.49-5.56,17.37-10.56,24.39-18.13a147.13,147.13,0,0,0,15.44-20.66c7-10.76,15.33-20.57,21.42-31.92,2.45-4.58,1.8-5.92-3.38-5.59-12.79.83-24.4,5.48-34.93,12.48-19,12.64-33.79,28.89-41.5,50.82a16.08,16.08,0,0,0-1.36,6.13c.05.9-.57,2.16.59,2.62s1.66-.77,2.25-1.48c2.78-3.38,5.36-6.94,8.3-10.17A159.19,159.19,0,0,1,425.17,471.81Z"/><path class="cls-1" d="M420.62,121.09c-1.29-.21-1.6-1-2.05-1.65a174.31,174.31,0,0,0-22.48-26.12c-4.57-4.38-8.69-9.2-11.33-15.07a16.62,16.62,0,0,1-1.13-11.58,6.39,6.39,0,0,1,2-3.25c1.62-1.39,4.27-1.67,5.63-.63,1.62,1.25,2,3.56.87,5.74-1.59,3.13-1.41,3.44,2.07,3.49,5.62.07,9.9-5.62,8.73-11.68-2.61-13.59-17-14.36-24.7-8.51-6.64,5-9.08,12-8.1,20.15,1.28,10.77,7.19,18.86,15.2,25.65,9.47,8,19.18,15.72,27.65,24.85,4.8,5.18,9.52,10.39,13.11,16.52.29.5.42,1.36,1.27,1.25s1-.78,1.23-1.37a30.57,30.57,0,0,0,2-17.58c-1.29-8.54-3.9-16.8-5.49-25.29-2.87-15.24,2.7-29,15.09-36.23,9.18-5.38,20.42-4.21,27,2.8a19.29,19.29,0,0,1,2.05,23.33,10.52,10.52,0,0,1-8.53,4.82,6.12,6.12,0,0,1-5.84-3.2c-1-2.21-.13-5,2.1-7,1.89-1.69,1.89-2.45-.34-3.73a11.57,11.57,0,0,0-11.39-.35c-4.06,2-6,5.63-6.25,10-.44,6.77,3.75,12.94,10.72,16.12,14.17,6.48,31.15-1,36.43-16.23C493.68,64.94,479,45,459.68,41.75c-18.64-3.16-34.82,6-43.61,23.84-6.42,13-5.52,26.08-1.07,39.3,1.68,5,3.52,9.88,5.28,14.81C420.4,120.07,420.46,120.45,420.62,121.09Z"/><path class="cls-1" d="M425.84,204.19a34,34,0,0,1-3.16-21.86,41.69,41.69,0,0,1,2.91-8.41,7.61,7.61,0,0,0-3.47-.13h0c-1.14,0-2.27-.07-3.4-.07l-139.61,0-102.73.07c-2.16.31-1,1.62-.6,2.42a28.73,28.73,0,0,1,3,11.62A34.86,34.86,0,0,1,175.07,204c-1,2.23-.26,2.55,1.67,2.33,4.85-.56,55.28-.29,60.14-.43,4.45-.14,8.91.13,13.35-.44h31a46.47,46.47,0,0,0,8.9.35h0l18.9,0h0a25.92,25.92,0,0,0,7.46-.32h0l29.5,0a10,10,0,0,0,1.41.27c10.26.43,67-.22,77.22.62C426.5,206.46,426.59,205.66,425.84,204.19Zm-124.51-4.13c-.4.76-.71,2-1.55,2-1.07,0-1.32-1.31-1.66-2.14a19.13,19.13,0,0,1-1-12.76c.46-1.62.91-3.25,1.49-4.84.19-.53.28-1.41,1.1-1.38.63,0,.83.71,1,1.23,1.31,3.29,2.62,6.59,2.43,10.37A14.39,14.39,0,0,1,301.33,200.06Zm-63.87-14.41c2.76-3.07,6.54-3.73,10.33-4.07a36,36,0,0,1,20.62,4.1,29.65,29.65,0,0,0,6,2.55c4.84,1.37,7.32.66,12.9-3.25a7.81,7.81,0,0,1-2,6.27c-3.58,4.32-9.67,5.72-15.74,3.46-3.32-1.24-6.51-2.82-9.72-4.33a20.37,20.37,0,0,0-10.54-2.18,6.74,6.74,0,0,0-3.19,1,2.94,2.94,0,0,0-1.41,3.12A2.45,2.45,0,0,0,247,194.7c1,.1,1.77.56.65,1.44-2.16,1.68-4.57,2.83-7.41,2.1C234.67,196.81,233.23,190.36,237.46,185.65Zm119,12.75a11.45,11.45,0,0,1-4.38-2,1.27,1.27,0,0,1-.66-1.22c.08-.58.56-.48.94-.49a2.28,2.28,0,0,0,2.44-2.18,3.19,3.19,0,0,0-1.89-3.38c-2.56-1.46-5.33-1.11-8-.59-4.34.84-8.12,3.11-12.06,5a19.18,19.18,0,0,1-10.55,2.09c-5.29-.61-9.92-5.49-9.66-10.88,5.39,5.81,11.15,4.74,17.07,1.83,4.36-2.14,8.73-4.27,13.65-4.78a35.78,35.78,0,0,1,14,.8c3.88,1.13,6.08,3.88,7,7.64C365.51,194.74,361.14,199.23,356.49,198.4Z"/></svg>