<svg width="75" height="133" viewBox="0 0 75 133" fill="none" xmlns="http://www.w3.org/2000/svg">
<path d="M11.9805 51.3675L24.3272 67.3545L30.3341 62.7424C30.3341 62.7424 28.5184 59.6506 26.2155 59.8135C26.4445 59.3773 26.5447 58.8853 26.5046 58.3947C26.4644 57.904 26.2855 57.4348 25.9885 57.0414C25.6763 56.645 25.28 56.3223 24.828 56.0965C24.3759 55.8707 23.8794 55.7473 23.374 55.7353C23.5459 55.3074 23.5998 54.8415 23.5301 54.3858C23.4604 53.9302 23.2696 53.5015 22.9775 53.1441C22.7136 52.7719 22.364 52.4681 21.9581 52.2582C21.5522 52.0482 21.1017 51.9383 20.6444 51.9376C20.6444 51.9376 22.0636 45.944 17.0372 44.6439C13.1123 43.6334 10.1255 47.8051 11.9805 51.3675Z" fill="#1C1B1C"/>
<path d="M50.7757 122.69L38.429 106.703L32.4221 111.306C32.4221 111.306 34.2378 114.398 36.5437 114.235C36.315 114.671 36.2149 115.162 36.2551 115.652C36.2952 116.143 36.474 116.611 36.7707 117.004C37.0826 117.4 37.4784 117.723 37.9298 117.95C38.3812 118.176 38.8772 118.3 39.3823 118.313C39.2107 118.741 39.1572 119.207 39.2275 119.662C39.2977 120.117 39.4891 120.545 39.7817 120.901C40.0457 121.273 40.3949 121.576 40.8002 121.786C41.2054 121.996 41.6551 122.106 42.1118 122.108C42.1118 122.108 40.6926 128.105 45.719 129.402C49.647 130.421 52.6307 126.253 50.7757 122.69Z" fill="#1C1B1C"/>
<path d="M3.88255 70.4C3.88255 70.4 6.17334 60.1201 14.8463 60.485C12.8342 59.2321 11.1347 57.5391 9.87633 55.5343C8.618 53.5296 7.83393 51.2657 7.58352 48.9141C7.58352 48.9141 4.84183 54.2652 3.15022 58.5938C2.42747 60.5013 2.11903 62.54 2.24527 64.5752C2.37151 66.6104 2.92956 68.5957 3.88255 70.4Z" fill="#1C1B1C"/>
<path d="M58.7587 103.518C58.7587 103.518 56.4679 113.801 47.7949 113.433C49.8065 114.686 51.5058 116.379 52.764 118.384C54.0223 120.388 54.8066 122.652 55.0577 125.004C55.0577 125.004 57.8145 119.652 59.491 115.324C60.2137 113.416 60.5222 111.378 60.3959 109.342C60.2697 107.307 59.7117 105.322 58.7587 103.518Z" fill="#1C1B1C"/>
<path d="M18.1206 66.5488C18.1206 66.5488 21.879 85.3653 43.6915 106.706C43.6915 106.706 36.3137 80.9492 18.1206 66.5488Z" fill="#1C1B1C"/>
<path d="M23.3709 8.83219L35.7176 24.8192L41.7245 20.2101C41.7245 20.2101 39.9088 17.1213 37.6029 17.2842C37.8319 16.848 37.9321 16.3561 37.892 15.8654C37.8518 15.3747 37.6729 14.9055 37.3759 14.5121C37.0642 14.1159 36.6684 13.7934 36.2169 13.5676C35.7654 13.3418 35.2694 13.2183 34.7644 13.206C34.936 12.7781 34.9897 12.3122 34.92 11.8567C34.8503 11.4011 34.6597 10.9724 34.3679 10.6149C34.1038 10.2428 33.7542 9.93915 33.3483 9.72925C32.9424 9.51935 32.492 9.40931 32.0348 9.40833C32.0348 9.40833 33.454 3.40565 28.4276 2.1116C24.5118 1.09809 21.5159 5.26678 23.3709 8.83219Z" fill="#1C1B1C"/>
<path d="M62.1661 80.153L49.8194 64.166L43.8125 68.7751C43.8125 68.7751 45.6434 71.8639 47.9311 71.701C47.7021 72.1372 47.6019 72.6292 47.6421 73.1198C47.6822 73.6105 47.8612 74.0797 48.1581 74.4731C48.4703 74.8695 48.8666 75.1922 49.3187 75.418C49.7707 75.6438 50.2672 75.7672 50.7727 75.7792C50.6011 76.2071 50.5473 76.673 50.617 77.1286C50.6867 77.5842 50.8773 78.0129 51.1691 78.3703C51.433 78.7426 51.7826 79.0464 52.1885 79.2563C52.5945 79.4662 53.045 79.5762 53.5023 79.5769C53.5023 79.5769 52.083 85.5766 57.1094 86.8706C61.0343 87.8871 64.0211 83.7154 62.1661 80.153Z" fill="#1C1B1C"/>
<path d="M15.273 27.8659C15.273 27.8659 17.5516 17.583 26.2337 17.951C24.2217 16.6972 22.5222 15.0036 21.264 12.9984C20.0057 10.9932 19.2215 8.72889 18.9709 6.37695C18.9709 6.37695 16.2141 11.7311 14.5406 16.0597C13.8173 17.9671 13.5086 20.0059 13.6348 22.0412C13.7611 24.0765 14.3194 26.0618 15.273 27.8659Z" fill="#1C1B1C"/>
<path d="M70.1461 60.9824C70.1461 60.9824 67.8553 71.2624 59.1854 70.8944C61.1973 72.1481 62.8968 73.8417 64.1551 75.847C65.4134 77.8522 66.1975 80.1164 66.4481 82.4684C66.4481 82.4684 69.2049 77.1142 70.8784 72.7887C71.6019 70.8813 71.9108 68.8425 71.7845 66.8071C71.6583 64.7718 71.0998 62.7865 70.1461 60.9824Z" fill="#1C1B1C"/>
<path d="M29.511 24.0137C29.511 24.0137 33.2664 42.8331 55.0759 64.1683C55.0759 64.1683 47.7132 38.4141 29.511 24.0137Z" fill="#1C1B1C"/>
</svg>
