<?xml version="1.0" encoding="utf-8"?>
<!-- Generator: Adobe Illustrator 25.0.0, SVG Export Plug-In . SVG Version: 6.00 Build 0)  -->
<svg version="1.1" id="Layer_1" xmlns="http://www.w3.org/2000/svg" xmlns:xlink="http://www.w3.org/1999/xlink" x="0px" y="0px"
	 viewBox="0 0 247.84 440.92" enable-background="new 0 0 247.84 440.92" xml:space="preserve">
<path fill="#233565" d="M39.59,170.29l40.8,52.99L100.24,208c0,0-6.05-10.25-13.61-9.71c0,0,2.69-4.72-0.75-9.19
	c-3.44-4.47-8.64-4.33-8.64-4.33s2.03-4.24-1.31-8.59c-3.34-4.34-7.71-3.99-7.71-3.99s4.69-19.88-11.92-24.18
	C43.33,144.65,33.46,158.48,39.59,170.29z"/>
<path fill="#233565" d="M167.79,406.74l-40.8-52.99l-19.85,15.28c0,0,6.05,10.25,13.61,9.71c0,0-2.69,4.72,0.75,9.19
	s8.64,4.33,8.64,4.33s-2.03,4.24,1.31,8.59s7.71,3.99,7.71,3.99s-4.69,19.88,11.92,24.18C164.06,432.37,173.92,418.55,167.79,406.74
	z"/>
<path fill="#233565" d="M12.83,233.39c0,0,7.57-34.09,36.22-32.87c0,0-21.08-11.54-24-38.37c0,0-9.11,17.75-14.65,32.09
	C2.19,215.56,12.83,233.39,12.83,233.39z"/>
<path fill="#233565" d="M194.17,343.18c0,0-7.57,34.09-36.22,32.87c0,0,21.08,11.54,24,38.37c0,0,9.11-17.75,14.65-32.09
	C204.81,361.01,194.17,343.18,194.17,343.18z"/>
<path fill="#233565" d="M59.88,220.62c0,0,12.41,62.41,84.5,133.13C144.38,353.75,120.03,268.36,59.88,220.62z"/>
<path fill="#233565" d="M77.23,29.28l40.8,52.99l19.85-15.28c0,0-6.05-10.25-13.61-9.71c0,0,2.69-4.72-0.75-9.19
	s-8.64-4.33-8.64-4.33s2.03-4.24-1.31-8.59s-7.71-3.99-7.71-3.99S110.55,11.29,93.94,7C80.96,3.64,71.1,17.46,77.23,29.28z"/>
<path fill="#233565" d="M205.43,265.72l-40.8-52.99l-19.85,15.28c0,0,6.05,10.25,13.61,9.71c0,0-2.69,4.72,0.75,9.19
	c3.44,4.47,8.64,4.33,8.64,4.33s-2.03,4.24,1.31,8.59c3.34,4.34,7.71,3.99,7.71,3.99s-4.69,19.88,11.92,24.18
	C201.69,291.36,211.56,277.53,205.43,265.72z"/>
<path fill="#233565" d="M50.47,92.38c0,0,7.57-34.09,36.22-32.87c0,0-21.08-11.54-24-38.37c0,0-9.11,17.75-14.65,32.09
	C39.82,74.54,50.47,92.38,50.47,92.38z"/>
<path fill="#233565" d="M231.8,202.17c0,0-7.57,34.09-36.22,32.87c0,0,21.08,11.54,24,38.37c0,0,9.11-17.75,14.65-32.09
	C242.45,220,231.8,202.17,231.8,202.17z"/>
<path fill="#233565" d="M97.52,79.61c0,0,12.41,62.41,84.5,133.13C182.02,212.73,157.67,127.35,97.52,79.61z"/>
</svg>
