<svg width="75" height="133" viewBox="0 0 75 133" fill="none" xmlns="http://www.w3.org/2000/svg">
<path d="M11.9805 51.3673L24.3272 67.3513L30.3341 62.7422C30.3341 62.7422 28.5033 59.6503 26.2155 59.8132C26.2155 59.8132 27.0295 58.3895 25.9885 57.0411C24.9475 55.6928 23.374 55.735 23.374 55.735C23.374 55.735 23.9883 54.4561 22.9775 53.1439C21.9668 51.8348 20.6444 51.9404 20.6444 51.9404C20.6444 51.9404 22.0636 45.9437 17.0372 44.6467C13.1123 43.6332 10.1255 47.8049 11.9805 51.3673Z" fill="#233565"/>
<path d="M50.7757 122.689L38.429 106.705L32.4221 111.314C32.4221 111.314 34.2529 114.406 36.5407 114.243C36.5407 114.243 35.7267 115.667 36.7677 117.015C37.8087 118.364 39.3823 118.321 39.3823 118.321C39.3823 118.321 38.7679 119.6 39.7787 120.912C40.7894 122.225 42.1118 122.116 42.1118 122.116C42.1118 122.116 40.6926 128.113 45.719 129.41C49.6469 130.42 52.6307 126.251 50.7757 122.689Z" fill="#233565"/>
<path d="M3.88255 70.4011C3.88255 70.4011 6.17334 60.1181 14.8432 60.4861C14.8432 60.4861 8.46413 57.0052 7.5805 48.9121C7.5805 48.9121 4.82368 54.2663 3.14719 58.5918C0.662727 65.0228 3.88255 70.4011 3.88255 70.4011Z" fill="#233565"/>
<path d="M58.7587 103.518C58.7587 103.518 56.4679 113.801 47.798 113.433C47.798 113.433 54.1771 116.914 55.0607 125.007C55.0607 125.007 57.8175 119.652 59.494 115.327C61.9785 108.896 58.7587 103.518 58.7587 103.518Z" fill="#233565"/>
<path d="M18.1206 66.5488C18.1206 66.5488 21.876 85.3743 43.6915 106.706C43.6915 106.706 36.3228 80.9492 18.1206 66.5488Z" fill="#233565"/>
<path d="M23.3709 8.83219L35.7176 24.8162L41.7245 20.2071C41.7245 20.2071 39.8937 17.1153 37.6059 17.2782C37.6059 17.2782 38.42 15.8544 37.379 14.5061C36.338 13.1577 34.7644 13.2 34.7644 13.2C34.7644 13.2 35.3787 11.921 34.3679 10.6089C33.3572 9.29672 32.0348 9.40531 32.0348 9.40531C32.0348 9.40531 33.4541 3.40565 28.4276 2.1116C24.4997 1.09809 21.5159 5.26678 23.3709 8.83219Z" fill="#233565"/>
<path d="M62.1661 80.152L49.8194 64.168L43.8125 68.7771C43.8125 68.7771 45.6433 71.8689 47.9311 71.706C47.9311 71.706 47.1171 73.1298 48.1581 74.4781C49.1991 75.8264 50.7727 75.7842 50.7727 75.7842C50.7727 75.7842 50.1584 77.0632 51.1691 78.3753C52.1798 79.6844 53.5023 79.5789 53.5023 79.5789C53.5023 79.5789 52.083 85.5755 57.1094 86.8726C61.0343 87.8861 64.0211 83.7144 62.1661 80.152Z" fill="#233565"/>
<path d="M15.273 27.8659C15.273 27.8659 17.5638 17.583 26.2337 17.951C26.2337 17.951 19.8545 14.47 18.9709 6.37695C18.9709 6.37695 16.2141 11.7311 14.5376 16.0566C12.0501 22.4846 15.273 27.8659 15.273 27.8659Z" fill="#233565"/>
<path d="M70.1461 60.9824C70.1461 60.9824 67.8553 71.2654 59.1854 70.8974C59.1854 70.8974 65.5645 74.3783 66.4481 82.4714C66.4481 82.4714 69.2049 77.1173 70.8814 72.7917C73.3689 66.3607 70.1461 60.9824 70.1461 60.9824Z" fill="#233565"/>
<path d="M29.511 24.0137C29.511 24.0137 33.2664 42.8392 55.0819 64.1713C55.0819 64.1683 47.7133 38.4141 29.511 24.0137Z" fill="#233565"/>
</svg>
