<svg id="Layer_1" data-name="Layer 1" xmlns="http://www.w3.org/2000/svg" viewBox="0 0 247.84 440.92"><defs><style>.cls-1{fill:#aa5c9d;}</style></defs><path class="cls-1" d="M39.59,170.29l40.8,53L100.24,208s-6-10.25-13.61-9.71a8.63,8.63,0,0,0-.75-9.19,11.33,11.33,0,0,0-8.64-4.33,8.56,8.56,0,0,0-1.31-8.59,9.46,9.46,0,0,0-7.71-4S72.91,152.31,56.3,148C43.33,144.65,33.46,158.48,39.59,170.29Z"/><path class="cls-1" d="M167.79,406.74l-40.8-53L107.14,369s6,10.25,13.62,9.71a8.62,8.62,0,0,0,.75,9.18,11.35,11.35,0,0,0,8.63,4.34,8.54,8.54,0,0,0,1.32,8.58,9.48,9.48,0,0,0,7.7,4s-4.69,19.88,11.92,24.18C164.06,432.37,173.92,418.55,167.79,406.74Z"/><path class="cls-1" d="M12.83,233.39s7.57-34.08,36.23-32.87a51.66,51.66,0,0,1-24-38.36S16,179.9,10.41,194.25A47.78,47.78,0,0,0,12.83,233.39Z"/><path class="cls-1" d="M194.17,343.18s-7.57,34.09-36.23,32.87a51.69,51.69,0,0,1,24,38.36s9.11-17.74,14.65-32.09A47.78,47.78,0,0,0,194.17,343.18Z"/><path class="cls-1" d="M59.88,220.62S72.3,283,144.38,353.75C144.38,353.75,120,268.36,59.88,220.62Z"/><path class="cls-1" d="M77.23,29.28l40.8,53L137.88,67s-6-10.24-13.62-9.7a8.63,8.63,0,0,0-.75-9.19,11.32,11.32,0,0,0-8.63-4.33,8.57,8.57,0,0,0-1.31-8.59,9.47,9.47,0,0,0-7.71-4S110.55,11.29,93.94,7C81,3.64,71.1,17.46,77.23,29.28Z"/><path class="cls-1" d="M205.43,265.72l-40.8-53L144.78,228s6.05,10.24,13.61,9.7a8.63,8.63,0,0,0,.75,9.19,11.33,11.33,0,0,0,8.64,4.33,8.57,8.57,0,0,0,1.31,8.59,9.46,9.46,0,0,0,7.71,4s-4.69,19.89,11.92,24.18C201.69,291.36,211.56,277.53,205.43,265.72Z"/><path class="cls-1" d="M50.47,92.38S58,58.29,86.69,59.51a51.69,51.69,0,0,1-24-38.37s-9.11,17.75-14.64,32.1A47.75,47.75,0,0,0,50.47,92.38Z"/><path class="cls-1" d="M231.8,202.17s-7.57,34.08-36.22,32.86a51.69,51.69,0,0,1,24,38.37s9.11-17.75,14.64-32.09A47.74,47.74,0,0,0,231.8,202.17Z"/><path class="cls-1" d="M97.52,79.61S109.93,142,182,212.73C182,212.73,157.67,127.35,97.52,79.61Z"/></svg>