<svg id="Layer_1" data-name="Layer 1" xmlns="http://www.w3.org/2000/svg" viewBox="0 0 297.33 522.01"><defs><style>.cls-1{fill:#fff;}</style></defs><path class="cls-1" d="M49.48,202.27l48.13,62.5,23.41-18s-7.13-12.08-16.06-11.45a10.15,10.15,0,0,0-.88-10.83,13.39,13.39,0,0,0-10.19-5.11,10.08,10.08,0,0,0-1.55-10.13,11.16,11.16,0,0,0-9.09-4.71S88.78,181.05,69.19,176C53.89,172,42.25,188.33,49.48,202.27Z"/><path class="cls-1" d="M200.7,481.17l-48.12-62.5-23.42,18s7.14,12.08,16.06,11.45a10.17,10.17,0,0,0,.89,10.83,13.37,13.37,0,0,0,10.18,5.11,10.11,10.11,0,0,0,1.55,10.13,11.16,11.16,0,0,0,9.09,4.71S161.4,502.39,181,507.46C196.3,511.41,207.93,495.11,200.7,481.17Z"/><path class="cls-1" d="M17.92,276.7s8.92-40.21,42.73-38.77a61,61,0,0,1-28.31-45.26S21.59,213.6,15.06,230.53C5.36,255.66,17.92,276.7,17.92,276.7Z"/><path class="cls-1" d="M231.82,406.2s-8.93,40.21-42.73,38.77a61,61,0,0,1,28.3,45.26s10.75-20.93,17.28-37.85C244.37,427.24,231.82,406.2,231.82,406.2Z"/><path class="cls-1" d="M73.42,261.63s14.64,73.62,99.67,157C173.09,418.67,144.37,318,73.42,261.63Z"/><path class="cls-1" d="M93.88,35.93,142,98.43l23.42-18S158.28,68.32,149.36,69a10.17,10.17,0,0,0-.89-10.83A13.37,13.37,0,0,0,138.29,53a10.11,10.11,0,0,0-1.55-10.13,11.18,11.18,0,0,0-9.1-4.71s5.54-23.46-14-28.52C98.28,5.69,86.65,22,93.88,35.93Z"/><path class="cls-1" d="M245.1,314.83,197,252.33l-23.41,18s7.13,12.08,16.06,11.45a10.15,10.15,0,0,0,.88,10.83,13.38,13.38,0,0,0,10.19,5.12,10.06,10.06,0,0,0,1.55,10.12,11.16,11.16,0,0,0,9.09,4.71s-5.54,23.46,14.06,28.53C240.69,345.08,252.33,328.77,245.1,314.83Z"/><path class="cls-1" d="M62.31,110.36S71.24,70.15,105,71.59A61,61,0,0,1,76.73,26.33S66,47.27,59.45,64.19C49.75,89.32,62.31,110.36,62.31,110.36Z"/><path class="cls-1" d="M276.21,239.87s-8.93,40.2-42.73,38.77a61,61,0,0,1,28.31,45.25S272.54,303,279.07,286C288.77,260.9,276.21,239.87,276.21,239.87Z"/><path class="cls-1" d="M117.81,95.3s14.64,73.61,99.67,157C217.48,252.33,188.76,151.61,117.81,95.3Z"/></svg>