<svg width="60" height="53" viewBox="0 0 60 53" fill="none" xmlns="http://www.w3.org/2000/svg">
<path d="M3.43479 24.3729C3.4616 24.3595 5.27785 21.8635 6.59983 21.472C6.68546 21.4512 6.76471 21.4099 6.8307 21.3516C6.8967 21.2933 6.94743 21.2198 6.97849 21.1374C7.33035 20.3662 7.6487 19.5716 8.26193 18.9626C9.03099 18.1947 9.97263 17.917 11.0332 18.0425C11.5895 18.1077 12.1407 18.2332 12.6937 18.3353C13.5716 18.5026 14.406 18.3085 15.2237 18.0157C16.9687 17.414 18.6519 16.6465 20.2502 15.7238C20.7177 15.4622 21.0932 15.0632 21.3259 14.5812C22.1117 12.9083 24.1005 12.6222 25.523 13.902C26.0475 14.3877 26.447 14.9926 26.6875 15.6653C27.0226 16.5369 26.8266 17.0237 26.0927 17.6828C25.9151 17.8418 25.8514 17.9488 25.9252 18.1747C26.1212 18.7602 26.0475 19.3457 25.8816 19.9279C25.8352 20.0689 25.7593 20.1983 25.6588 20.3076C25.508 20.485 25.3672 20.4599 25.2851 20.234C25.2348 20.0952 25.2013 19.9496 25.1477 19.8125C25.072 19.5921 24.9819 19.377 24.878 19.1684C24.5429 18.5711 24.2781 18.5226 23.7185 18.9325C23.8274 19.9363 23.8475 20.925 23.0165 21.661L22.8757 21.6477C22.8418 21.4035 22.7885 21.1624 22.7166 20.9266C22.598 20.6249 22.4528 20.3344 22.2826 20.0584C22.2643 20.0224 22.2374 19.9914 22.2042 19.9683C22.171 19.9452 22.1326 19.9307 22.0925 19.9261C22.0523 19.9215 22.0116 19.9268 21.974 19.9417C21.9364 19.9567 21.9032 19.9806 21.8771 20.0115C21.6241 20.2207 21.346 20.403 21.098 20.6188C21.0663 20.66 21.0431 20.7071 21.0299 20.7574C21.0166 20.8077 21.0136 20.8601 21.0209 20.9116C21.1014 21.6175 21.0947 22.3118 20.7897 22.9726C20.7059 23.155 20.6222 23.3524 20.4077 23.3072L19.647 21.6594C19.2633 21.9689 18.9282 22.2248 18.6132 22.4958C18.5546 22.5477 18.5579 22.6882 18.5613 22.7886C18.578 23.4243 18.6434 24.0684 18.3586 24.6673C18.2553 24.8506 18.1365 25.0246 18.0033 25.1876L17.8995 25.1575C17.7085 24.6556 17.5174 24.1654 17.298 23.5899C16.8858 23.8961 16.5222 24.1604 16.1653 24.4348C15.3896 25.0286 14.6322 25.646 13.7191 26.0324C12.9232 26.367 12.0955 26.3452 11.2678 26.2582C9.44652 26.0659 8.01228 26.7116 6.96677 28.249C7.19966 28.1671 7.43591 28.0951 7.6621 27.9998C8.49163 27.6176 9.38095 27.381 10.291 27.3005C10.7898 27.2521 11.2933 27.3054 11.7708 27.4572C12.2484 27.6091 12.69 27.8563 13.069 28.1838C13.7392 28.7543 14.4094 29.3348 15.222 29.7045C15.7517 29.9631 16.333 30.0992 16.9226 30.1026C15.4448 29.3231 14.272 28.2072 13.2365 26.899C14.0961 26.6915 14.8316 26.9492 15.5336 27.4009C15.9917 27.707 16.4673 27.9863 16.9578 28.2373C17.3583 28.4331 17.4136 28.3912 17.5895 27.9697C17.6948 27.6822 17.7854 27.3897 17.8609 27.093C17.8978 26.9659 17.9246 26.8354 17.9732 26.6413C18.7624 27.2051 18.7841 28.0081 18.8629 28.8162C19.208 28.8613 19.5616 28.9199 19.9185 28.9466C19.9821 28.9466 20.086 28.8396 20.1212 28.7593C20.2703 28.341 20.4178 27.9228 20.5283 27.4912C20.5836 27.2737 20.711 27.2319 20.8333 27.349C21.0456 27.5332 21.2198 27.7571 21.346 28.0081C21.4616 28.3495 21.549 28.6998 21.6074 29.0554C21.9157 29.0554 22.2441 29.0688 22.5708 29.0453C22.6495 29.0453 22.7601 28.9232 22.7869 28.8362C22.9377 28.3343 23.0667 27.8325 23.2142 27.3038C24.0704 27.5882 24.0369 28.4163 24.2932 29.0704C24.4151 29.0896 24.5399 29.0658 24.6463 29.0033C24.7526 28.9407 24.8339 28.8432 24.8763 28.7275C25.0438 28.3762 25.141 27.9964 25.2734 27.6317C25.3136 27.5196 25.3722 27.4159 25.4225 27.3072C25.5381 27.3758 25.6872 27.4176 25.7576 27.5163C26.0609 27.9228 26.0424 28.4113 26.0693 28.8881C26.0693 28.9701 26.1212 29.0972 26.1832 29.1223C26.9958 29.4569 27.0209 30.1595 26.7043 30.8304C26.282 31.7454 25.4828 32.2306 24.5445 32.4715C24.04 32.5967 23.5229 32.6646 23.0031 32.6739C21.8302 32.7007 20.6389 32.6421 19.4577 32.6907C18.2312 32.7425 17.0684 33.057 16.0732 33.8333C14.7696 34.8504 14.6021 35.8408 15.3912 37.3196C15.6189 37.7145 15.9009 38.0754 16.229 38.392C16.6127 38.7868 17.0517 39.1281 17.4622 39.4995C17.8727 39.8709 18.2731 40.2456 18.6451 40.5869C18.5026 39.9277 18.3334 39.2351 18.2061 38.5359C17.9129 36.9215 19.0539 35.3054 20.6406 35.0612C21.4305 34.9559 22.2301 35.1671 22.8646 35.6485C23.4991 36.13 23.9169 36.8427 24.0268 37.6308C24.1474 38.5191 23.618 39.4058 22.8288 39.6032C22.6332 39.6505 22.4296 39.6545 22.2323 39.6149C22.1705 39.5905 22.1147 39.5531 22.0687 39.5052C22.0227 39.4572 21.9876 39.3999 21.9659 39.3372C21.9408 39.2703 22.038 39.118 22.1201 39.0628C22.7568 38.6413 22.7383 37.865 22.0715 37.4802C21.9278 37.3924 21.7665 37.337 21.5991 37.3181C21.4316 37.2992 21.262 37.3172 21.1023 37.3707C20.9426 37.4243 20.7965 37.5122 20.6745 37.6283C20.5525 37.7443 20.4574 37.8857 20.396 38.0423C20.0827 38.7483 20.1078 39.4894 20.2284 40.2322C20.4429 41.507 20.711 42.7751 20.8701 44.0565C21.0377 45.3949 20.8115 46.7014 20.3675 47.9712C20.0089 49.0017 19.647 50.0317 19.2818 51.0611C19.193 51.307 19.0706 51.5462 18.7557 51.5345C18.6202 51.532 18.4906 51.4792 18.3921 51.3864C18.2936 51.2936 18.2332 51.1675 18.2228 51.0326C18.1562 50.5735 18.1271 50.1096 18.1357 49.6458C18.1709 48.5115 18.2631 47.3806 17.8877 46.2715C17.7067 45.7142 17.4107 45.201 17.0188 44.7651C16.6269 44.3291 16.1478 43.98 15.6124 43.7403C14.4647 43.1899 13.2365 42.9039 12.0017 42.6345C10.6043 42.325 9.71795 41.2376 8.43786 40.4965C7.46607 39.9311 6.30662 38.5626 5.23429 37.057C4.20888 35.7772 -1.56828 30.6614 3.43479 24.3729ZM10.115 21.1107C10.4233 20.6623 10.8674 20.5368 11.3767 20.659C11.8408 20.7694 12.6216 20.2441 12.1407 20.0885C11.7403 19.958 11.3382 19.769 10.9277 19.7422C9.89723 19.6753 9.30578 20.311 8.91706 21.1742C8.59704 21.9153 9.83189 21.5205 10.115 21.1107ZM24.7975 15.3089C24.7688 15.2324 24.7323 15.159 24.6886 15.0898C24.4984 14.89 24.2591 14.7434 23.9946 14.6645C23.7301 14.5855 23.4495 14.577 23.1807 14.6398C22.9996 14.6856 22.8336 14.7778 22.6991 14.9071C22.5645 15.0365 22.466 15.1986 22.4133 15.3775C22.393 15.4548 22.3903 15.5356 22.4054 15.6141C22.4205 15.6925 22.4529 15.7666 22.5004 15.8309C22.5674 15.8945 22.797 15.8192 22.9394 15.7673C23.2745 15.6469 23.5861 15.4695 23.9246 15.3775C24.2127 15.3269 24.505 15.3039 24.7975 15.3089Z" fill="#AA5C9D"/>
<path d="M54.7657 37.057C53.6934 38.5626 52.5339 39.9311 51.5621 40.4966C50.2887 41.2377 49.3957 42.3167 47.9749 42.6295C46.74 42.9022 45.5119 43.1849 44.3641 43.7353C43.8288 43.975 43.3496 44.3241 42.9577 44.7601C42.5658 45.196 42.2698 45.7092 42.0888 46.2665C41.7135 47.3756 41.8056 48.5065 41.8392 49.6408C41.8492 50.1046 41.8207 50.5685 41.7537 51.0276C41.7433 51.1625 41.683 51.2886 41.5844 51.3814C41.4859 51.4742 41.3563 51.527 41.2209 51.5295C40.9059 51.5412 40.7836 51.302 40.6948 51.0561C40.3295 50.0267 39.9676 48.9967 39.609 47.9662C39.1667 46.6964 38.9388 45.3865 39.1064 44.0515C39.2739 42.7701 39.5337 41.502 39.7481 40.2272C39.8721 39.4844 39.8972 38.7433 39.5806 38.0374C39.5189 37.8809 39.4237 37.7397 39.3016 37.6239C39.1796 37.508 39.0336 37.4202 38.8739 37.3666C38.7143 37.3131 38.5448 37.295 38.3775 37.3138C38.2101 37.3326 38.0488 37.3877 37.9051 37.4752C37.2349 37.86 37.2198 38.6363 37.8565 39.0578C37.9386 39.113 38.0341 39.2653 38.0106 39.3322C37.9889 39.3949 37.9539 39.4522 37.9079 39.5002C37.8619 39.5481 37.806 39.5855 37.7442 39.6099C37.5469 39.6495 37.3433 39.6455 37.1477 39.5982C36.3586 39.4008 35.8291 38.5141 35.9497 37.6258C36.0596 36.8377 36.4774 36.125 37.1119 35.6435C37.7464 35.1621 38.546 34.9509 39.3359 35.0562C40.9226 35.3004 42.0637 36.9165 41.7705 38.5309C41.6431 39.2301 41.4739 39.9227 41.3315 40.5819C41.7034 40.2473 42.1056 39.8642 42.5127 39.4945C42.9199 39.1248 43.3622 38.7818 43.7476 38.387C44.0752 38.07 44.3571 37.7091 44.5853 37.3146C45.3745 35.8341 45.2069 34.8454 43.9034 33.8283C42.9081 33.052 41.7453 32.7375 40.5172 32.6857C39.3443 32.6371 38.1547 32.6957 36.9735 32.6689C36.4537 32.6596 35.9366 32.5917 35.432 32.4665C34.4937 32.2256 33.6945 31.7405 33.2723 30.8254C32.9606 30.1562 32.9807 29.4603 33.7934 29.1173C33.8554 29.0922 33.9023 28.9651 33.9073 28.8831C33.9341 28.4063 33.9157 27.9178 34.2189 27.5113C34.291 27.4126 34.4418 27.3708 34.554 27.3022C34.6097 27.4078 34.6601 27.5161 34.7048 27.6267C34.8372 27.9914 34.9377 28.3712 35.1003 28.7225C35.1432 28.8382 35.2249 28.9355 35.3314 28.998C35.438 29.0605 35.5629 29.0843 35.685 29.0654C35.9414 28.4113 35.9078 27.5832 36.764 27.2988C36.9115 27.8358 37.0405 28.336 37.1913 28.8312C37.2181 28.9182 37.3287 29.0353 37.4074 29.0403C37.7325 29.0638 38.0626 29.0504 38.3708 29.0504C38.4292 28.6948 38.5166 28.3445 38.6322 28.0031C38.7584 27.7521 38.9326 27.5282 39.1449 27.344C39.2672 27.2269 39.3929 27.2687 39.4499 27.4862C39.5605 27.9161 39.7079 28.336 39.857 28.7543C39.8855 28.8346 39.9944 28.9467 40.0598 28.9416C40.415 28.9149 40.7702 28.8563 41.1153 28.8112C41.1941 27.9964 41.2159 27.1934 42.005 26.6364C42.0536 26.8304 42.0804 26.9609 42.1173 27.088C42.192 27.3849 42.2827 27.6775 42.3887 27.9647C42.5563 28.3862 42.6199 28.4281 43.0204 28.2323C43.5107 27.9809 43.9862 27.7016 44.4446 27.3959C45.1466 26.9458 45.8805 26.6882 46.7417 26.894C45.7129 28.2022 44.5401 29.3181 43.0556 30.0976C43.6475 30.095 44.2311 29.9589 44.7629 29.6995C45.5772 29.3298 46.2441 28.7493 46.9159 28.1788C47.2946 27.8527 47.7356 27.6068 48.2122 27.4558C48.6889 27.3048 49.1912 27.252 49.6889 27.3005C50.5995 27.3808 51.4894 27.6174 52.3195 27.9998C52.5457 28.0951 52.7819 28.1671 53.0131 28.2491C51.9693 26.7116 50.535 26.0743 48.7138 26.2583C47.8844 26.3453 47.0584 26.3704 46.2625 26.0324C45.3493 25.646 44.587 25.0287 43.8163 24.4348C43.4594 24.1604 43.0958 23.8961 42.6836 23.59C42.4641 24.1654 42.2731 24.6623 42.0821 25.1575L41.9782 25.1876C41.8451 25.0243 41.7257 24.8503 41.6213 24.6673C41.3382 24.0684 41.4035 23.4243 41.4203 22.7886C41.4203 22.6882 41.4203 22.5477 41.3683 22.4959C41.0533 22.2182 40.7182 21.9622 40.3345 21.6594C40.0715 22.2282 39.8319 22.7518 39.5722 23.3072C39.3577 23.3507 39.2756 23.1533 39.1918 22.9726C38.8852 22.3035 38.8785 21.6176 38.9606 20.9116C38.968 20.8601 38.965 20.8077 38.9517 20.7574C38.9385 20.7072 38.9153 20.66 38.8836 20.6188C38.6356 20.403 38.3574 20.2207 38.1044 20.0116C38.0784 19.9807 38.0451 19.9567 38.0075 19.9418C37.97 19.9269 37.9293 19.9215 37.8891 19.9261C37.8489 19.9308 37.8105 19.9453 37.7773 19.9684C37.7442 19.9914 37.7172 20.0224 37.699 20.0584C37.5288 20.3344 37.3836 20.6249 37.265 20.9267C37.1902 21.1622 37.1342 21.4033 37.0975 21.6477L36.9567 21.6611C36.119 20.925 36.1458 19.9413 36.2547 18.9325C35.6934 18.5227 35.4169 18.5712 35.0952 19.1684C34.9913 19.377 34.9012 19.5921 34.8255 19.8125C34.7719 19.9497 34.7383 20.0952 34.6881 20.2341C34.606 20.4599 34.4652 20.485 34.3128 20.3077C34.2133 20.1979 34.138 20.0685 34.0916 19.9279C33.924 19.3491 33.852 18.7569 34.048 18.1747C34.1218 17.9488 34.048 17.8401 33.8805 17.6828C33.1466 17.0237 32.9539 16.5369 33.2857 15.6653C33.5286 14.9918 33.931 14.3868 34.4585 13.902C35.881 12.6222 37.8682 12.8983 38.6473 14.5812C38.8854 15.0671 39.269 15.4669 39.7448 15.7255C41.343 16.6482 43.0263 17.4157 44.7713 18.0174C45.5889 18.3102 46.4233 18.5009 47.3013 18.337C47.8542 18.2349 48.4055 18.1094 48.9617 18.0442C50.0223 17.9187 50.964 18.1964 51.733 18.9643C52.3496 19.5799 52.6646 20.3746 53.0165 21.1391C53.0475 21.2215 53.0983 21.295 53.1643 21.3533C53.2303 21.4116 53.3095 21.4529 53.3951 21.4737C54.7221 21.8685 56.5334 24.3612 56.5602 24.3746C61.5683 30.6614 55.7945 35.7772 54.7657 37.057ZM51.0796 21.1742C50.6976 20.311 50.1061 19.6686 49.069 19.7422C48.6585 19.769 48.2564 19.958 47.8559 20.0885C47.375 20.2441 48.1558 20.7694 48.6199 20.659C49.1226 20.5369 49.5733 20.659 49.8816 21.1107C50.1681 21.5205 51.403 21.9154 51.0762 21.1742H51.0796ZM36.0704 15.3776C36.4055 15.4696 36.7238 15.6469 37.0556 15.7673C37.198 15.8192 37.4275 15.8945 37.4946 15.8309C37.542 15.7666 37.5745 15.6925 37.5896 15.6141C37.6047 15.5356 37.602 15.4548 37.5817 15.3776C37.5289 15.1986 37.4304 15.0365 37.2959 14.9072C37.1613 14.7778 36.9954 14.6857 36.8143 14.6398C36.5455 14.577 36.2649 14.5855 36.0004 14.6645C35.7358 14.7434 35.4966 14.89 35.3063 15.0898C35.262 15.1586 35.2255 15.2321 35.1974 15.309C35.4899 15.304 35.7822 15.327 36.0704 15.3776Z" fill="#AA5C9D"/>
</svg>
