<svg width="80" height="103" viewBox="0 0 80 103" fill="none" xmlns="http://www.w3.org/2000/svg">
<path d="M49.2512 21.3961C49.1623 20.5347 48.8903 19.702 48.4533 18.9536C48.0163 18.2051 47.4243 17.558 46.7168 17.0555C46.2184 16.6842 45.5967 16.6591 45.0954 16.2962C44.8171 16.1811 44.52 16.1177 44.2188 16.1092C44.195 16.0755 44.1608 16.0504 44.1214 16.0378C44.0819 16.0252 44.0395 16.0258 44.0004 16.0394C42.9642 16.0394 41.9281 16.0059 40.8919 16.0115C39.1949 16.0115 37.4978 15.9584 35.8007 16.0533C35.5739 16.098 35.3415 16.1259 35.1174 16.1845C31.6981 17.1001 29.721 21.2147 31.1772 24.489C32.065 26.4737 33.6388 27.6237 35.8091 27.9336H44.2917C46.6888 27.5232 48.2431 26.1359 49.0244 23.8581C49.2554 23.0591 49.3324 22.2237 49.2512 21.3961Z" fill="#E9BAD2"/>
<path d="M45.1682 47.9591L44.328 48.188L42.8718 48.4671L42.0513 48.5034C41.7629 48.4613 41.4688 48.4813 41.1888 48.5621C40.9591 48.7435 41.0823 48.9947 41.0823 49.2069C41.0179 61.5672 41.2084 73.9275 40.9619 86.2851C40.8774 86.4249 40.8475 86.5908 40.8779 86.7512C40.8107 87.223 40.7351 87.6919 40.6819 88.1637C40.5727 89.0988 40.2422 89.9865 40.0966 90.9132C40.0126 90.8546 40.0014 91.2454 39.909 90.9579C39.7409 90.4499 39.6289 89.9279 39.4861 89.4114L39.1164 87.0974C39.129 87.0511 39.1294 87.0025 39.1176 86.956C39.1059 86.9096 39.0823 86.8669 39.0492 86.8322L39.0072 85.2383C39.0405 84.8798 39.0188 84.5184 38.9428 84.1664C38.9428 83.6304 38.9428 83.0917 38.9428 82.5558C38.9428 71.4571 38.9428 60.3595 38.9428 49.2627C38.9428 49.0282 39.0548 48.763 38.8448 48.5537C38.6012 48.4141 38.3407 48.4923 38.0859 48.4978L36.8397 48.4643C36.787 48.4262 36.7268 48.3998 36.663 48.3868C36.5993 48.3738 36.5335 48.3746 36.47 48.389L35.5151 48.2606C35.4859 48.2235 35.4465 48.1958 35.4017 48.1809C35.3569 48.166 35.3087 48.1646 35.263 48.1768C34.955 48.0205 34.8794 48.0903 34.8794 48.456C34.8906 59.4355 34.8906 70.415 34.8794 81.3945C34.8493 83.4988 35.0998 85.5977 35.6243 87.6361C35.7027 87.9292 35.7727 88.2195 35.8567 88.5098C36.6128 91.0695 37.6602 93.5343 38.5535 96.0466C39.0632 97.4842 40.0322 100.396 40.0322 100.396C40.6511 98.2044 40.8723 97.9085 41.3596 96.4877C41.9421 94.7821 42.6002 93.0989 43.2247 91.4045C43.6298 90.3199 43.9711 89.2126 44.2468 88.0883C44.5876 87.0692 44.8277 86.0193 44.9637 84.9536C45.1051 83.7134 45.1808 82.4668 45.1906 81.2187C45.1906 71.4878 45.1906 61.7579 45.1906 52.029L45.1682 47.9591ZM44.328 48.188C44.4017 48.1824 44.4756 48.1824 44.5493 48.188H44.328Z" fill="#E9BAD2"/>
<path d="M49.1336 32.531C48.8686 31.2059 48.1739 30.0044 47.1565 29.1115C47.0389 29.0027 46.9521 28.7738 46.7057 28.9301C46.1736 29.2623 45.5519 29.3851 44.9862 29.6363C44.6225 29.6929 44.2561 29.7301 43.8884 29.748C41.228 29.748 38.5676 29.748 35.9044 29.748C35.0306 29.5638 34.1317 29.4688 33.328 29.0306C33.1264 28.9245 33.0647 29.0976 32.9639 29.1813C31.9064 30.024 31.1782 31.2091 30.9056 32.531C30.711 33.5247 30.711 34.5465 30.9056 35.5401C31.7793 38.7223 33.6612 40.8717 37.033 41.4998C39.0353 41.5752 41.0348 41.5724 43.0371 41.4998C43.5331 41.467 44.018 41.3391 44.4653 41.123C46.8205 39.9338 48.4475 38.1417 49.0888 35.5401C49.3282 34.5529 49.3435 33.5249 49.1336 32.531Z" fill="#E9BAD2"/>
</svg>
