<svg width="80" height="117" viewBox="0 0 80 117" fill="none" xmlns="http://www.w3.org/2000/svg">
<path d="M47.6518 75.0283C47.5498 73.2822 47.4596 71.5885 47.3402 69.8949C47.3169 69.5515 47.4217 69.4467 47.7449 69.4613C50.2373 69.5748 52.7296 69.6766 55.222 69.7901C55.7752 69.8163 55.8043 69.9298 55.7228 70.407C55.4477 71.6189 55.2464 72.8463 55.1201 74.0825C54.9803 76.3232 54.9803 78.5698 54.9163 80.8135C54.893 81.6536 54.86 82.4936 54.8173 83.3336C54.8139 83.3988 54.7969 83.4625 54.7673 83.5207C54.7377 83.5788 54.6962 83.6301 54.6455 83.6712C53.0557 84.422 51.9493 85.7083 50.8808 87.0382C49.4249 88.8424 48.3505 90.8853 47.3257 92.9515C47.2617 93.1103 47.1858 93.264 47.0985 93.4113C46.9962 93.5354 46.8821 93.6494 46.7579 93.7518C46.6647 93.5888 46.4842 93.4171 46.4958 93.2599C46.5308 92.6081 46.6385 91.962 46.6997 91.3102C46.8249 89.9483 46.9908 88.5834 47.052 87.2186C47.2703 83.1416 47.4596 79.0616 47.6518 75.0283Z" fill="#AA5C9D"/>
<path d="M36.6866 79.0879C38.0609 79.1461 39.4119 79.2043 40.7629 79.2567C42.1139 79.3091 43.4124 79.344 44.7372 79.3935C45.1914 79.4109 45.2409 79.4837 45.0517 79.8969C44.3645 81.4043 44.0938 83.0165 43.855 84.6345C43.4669 87.5301 43.4405 90.4627 43.7764 93.3648C43.9951 95.5462 44.4491 97.6976 45.1303 99.7815C45.2252 100.061 45.2944 100.348 45.337 100.64C45.3389 100.704 45.3247 100.768 45.2957 100.825C45.2667 100.883 45.2239 100.932 45.1711 100.969C45.0866 101.001 44.9032 100.908 44.8333 100.818C43.035 98.4626 40.9241 96.3636 38.5587 94.5783C37.6358 93.8595 36.707 93.1232 36.1188 92.0872C35.4142 90.8388 35.42 89.4885 35.7141 88.1383C35.9616 86.9742 36.3634 85.8626 36.5876 84.7014C36.9484 82.9106 36.9868 81.0698 36.7011 79.2654C36.6893 79.207 36.6844 79.1474 36.6866 79.0879Z" fill="#AA5C9D"/>
<path d="M56.5148 52.0908C56.3243 52.733 56.1678 53.3848 56.046 54.0435C55.8859 55.2075 55.7549 56.3948 55.6937 57.5734C55.4583 60.6719 55.4184 63.7822 55.5743 66.8857C55.6388 67.4285 55.7361 67.9668 55.8655 68.4979L47.2267 68.0963C47.3024 67.686 47.4014 67.2844 47.4421 66.877C47.6052 65.2182 47.8236 63.5624 47.8818 61.9036C47.9662 59.5756 47.9691 57.2271 47.908 54.8903C47.8847 53.9562 47.6168 53.0221 47.4247 52.0996C47.3199 51.6048 47.3519 51.4943 47.8614 51.5175C50.5789 51.663 53.2877 51.8153 55.9878 51.9744C56.1659 52.0011 56.342 52.04 56.5148 52.0908Z" fill="#AA5C9D"/>
<path d="M37.2689 61.5918C38.0754 61.5248 38.847 61.4521 39.6186 61.4026C41.549 61.2775 43.4794 61.1698 45.4069 61.0447C45.8291 61.0185 45.9223 61.1262 45.8698 61.5743C45.666 63.2884 45.468 65.0082 45.3749 66.731C45.2497 68.9863 45.1711 71.2474 45.1798 73.5057C45.1798 74.8705 45.3865 76.2353 45.5175 77.5798C45.567 78.0803 45.5175 78.1618 45.0284 78.1618C42.4079 78.0629 39.7874 77.9659 37.167 77.8708C36.8758 77.8708 36.7564 77.8039 36.8292 77.4605C37.1204 76.2352 37.3488 74.9958 37.5135 73.7472C37.6882 72.0623 37.7639 70.3628 37.8046 68.6662C37.8337 67.1559 37.7901 65.6426 37.6998 64.1381C37.6021 63.2822 37.4583 62.4322 37.2689 61.5918Z" fill="#AA5C9D"/>
<path d="M37.0913 60.259C37.5345 54.9683 37.1692 49.641 36.0082 44.4601L44.8595 43.3223C44.764 44.1104 44.7096 44.9031 44.6965 45.6969C44.7867 48.2956 44.9382 50.8943 45.0488 53.493C45.1222 55.3556 45.3728 57.207 45.7971 59.0222C45.9485 59.6566 45.867 59.6799 45.2148 59.7206C42.5448 59.8952 39.8719 60.0785 37.0913 60.259Z" fill="#AA5C9D"/>
<path d="M47.3956 49.9434C47.5295 49.242 47.7129 48.5465 47.7857 47.8394C47.9854 45.5231 47.9092 43.1913 47.5586 40.893C47.0986 37.526 46.5017 34.1998 44.9585 31.1064C44.909 31.0045 44.9585 30.8532 44.9585 30.7252C45.101 30.7028 45.2464 30.7088 45.3865 30.7426C46.3503 31.2141 47.3402 31.6477 48.2574 32.1977C52.5055 34.7469 54.9862 38.5213 55.915 43.3608C56.2731 45.2232 56.2906 47.1031 56.311 48.9889C56.3469 49.5329 56.4159 50.0742 56.5177 50.6098L47.2762 50.4672C47.3199 50.2693 47.3635 50.1063 47.3956 49.9434Z" fill="#AA5C9D"/>
<path d="M44.7489 41.9896L35.6296 43.1682C35.6617 42.8771 35.7286 42.5192 35.7315 42.1758C35.7752 38.3927 35.3938 34.6823 33.9205 31.1495C33.4605 30.0437 32.9713 28.9524 32.5084 27.8466C32.466 27.6764 32.4503 27.5006 32.4618 27.3257C32.6226 27.3201 32.7836 27.3308 32.9422 27.3577C35.6968 28.1118 38.2826 29.3829 40.5619 31.1029C42.8767 32.849 43.9773 35.148 44.1287 37.9766C44.1665 38.6604 44.1549 39.353 44.2597 40.0282C44.3645 40.7033 44.5858 41.3494 44.7489 41.9896Z" fill="#AA5C9D"/>
</svg>
