<svg width="80" height="71" viewBox="0 0 80 71" fill="none" xmlns="http://www.w3.org/2000/svg">
<path d="M38.845 56.1976C37.8553 56.034 37.5873 55.6553 37.7124 54.6468C37.8174 53.8019 37.9715 53.6607 38.8294 53.6584C39.9866 53.6584 41.1438 53.6584 42.301 53.6584C42.8506 53.6584 43.112 54.0462 43.1209 54.8507C43.1321 55.7718 42.9176 56.1214 42.3256 56.1461L41.7291 56.1752C42.0307 56.8005 42.272 57.3764 42.5758 57.9165C42.8094 58.3539 43.136 58.7344 43.5325 59.0311C43.929 59.3277 44.3856 59.5333 44.8701 59.6332C46.1078 59.9021 47.437 58.8511 47.4482 57.6274C47.4482 56.7668 46.5546 55.9376 45.623 56.4889C45.2321 56.1416 45.1516 55.7763 45.3505 55.2474C45.7325 54.2254 46.9455 53.6988 48.0737 54.0663C50.2809 54.7857 51.7911 57.8224 49.6643 60.3212C48.802 61.3342 47.6738 61.9819 46.3446 62.0379C44.4635 62.1163 42.8104 61.574 41.7649 59.8349C41.7429 59.8029 41.713 59.7772 41.6781 59.7603C41.6433 59.7435 41.6047 59.7359 41.566 59.7385C41.6911 60.0344 41.8095 60.3324 41.9391 60.635C42.7992 62.6161 42.2541 64.3619 40.7171 65.72C40.4513 65.9441 40.2547 65.9195 40.0045 65.6886C38.2977 64.1199 37.9492 62.2373 38.9947 60.1554C39.082 60.0009 39.1282 59.8265 39.1287 59.6489C39.051 59.7159 38.9806 59.7911 38.9187 59.873C38.0542 61.3252 36.6847 61.9169 35.0941 62.0267C33.0835 62.1656 31.5554 61.3006 30.5725 59.5615C29.3192 57.3428 30.6484 54.4608 33.0991 53.9588C33.3678 53.9043 33.6447 53.9049 33.9131 53.9605C34.1816 54.0161 34.436 54.1256 34.6612 54.2824C34.8864 54.4392 35.0776 54.6401 35.2234 54.8729C35.3692 55.1058 35.4666 55.3658 35.5096 55.6373C35.5127 55.8635 35.4573 56.0867 35.3488 56.285C35.2013 56.6234 34.9802 56.3971 34.7724 56.3366C34.0866 56.1349 33.394 56.6929 33.3225 57.4974C33.2086 58.7502 34.5847 59.8999 35.905 59.6377C37.0533 59.4136 37.9157 58.8107 38.3155 57.6566C38.4831 57.1814 38.6663 56.6996 38.845 56.1976Z" fill="#1C1B1C"/>
<path d="M41.3605 13.6707C41.5415 13.2068 41.6979 12.7339 41.9056 12.2834C42.4172 11.1629 43.1433 10.253 44.2915 9.70618C46.1815 8.80974 48.1832 10.2306 48.4759 12.019C48.7149 13.4779 48.1653 14.7083 46.9679 15.4254C46.8675 15.5026 46.7517 15.5569 46.6283 15.5846C46.3602 15.6047 46.0877 15.5846 45.8151 15.5846C45.83 15.3443 45.8697 15.1062 45.9335 14.8741C46.2329 14.1189 45.8352 13.5003 45.0198 13.4869C44.2804 13.4734 43.7844 13.897 43.36 14.4304C42.8427 15.1277 42.4677 15.9205 42.2564 16.7634C42.0039 17.6329 41.995 17.6329 41.0857 17.6464C40.4155 17.6464 39.7297 17.6464 39.055 17.6665C38.7378 17.68 38.6216 17.5612 38.5546 17.2609C38.3313 16.2238 37.8912 15.2461 37.2633 14.3923C36.8925 13.8993 36.4435 13.5093 35.7844 13.4959C34.9779 13.4734 34.5423 14.1413 34.8752 14.8741C34.9154 14.9615 34.9712 15.04 35.0048 15.1274C35.1589 15.5263 35.045 15.7145 34.6227 15.6742C33.5638 15.5734 32.9316 14.8943 32.5272 13.9844C32.3313 13.5439 32.236 13.0649 32.2485 12.5827C32.261 12.1004 32.3808 11.6271 32.5993 11.1973C32.8178 10.7675 33.1294 10.3923 33.5112 10.099C33.893 9.80567 34.3354 9.60178 34.8059 9.50224C36.0011 9.26244 36.9416 9.85185 37.7548 10.6631C38.5055 11.4139 38.9299 12.3664 39.3186 13.3367C39.3655 13.451 39.4102 13.5609 39.4616 13.6819C39.4616 13.702 39.5152 13.7043 39.6403 13.7491C39.4705 13.1731 39.3477 12.642 39.1556 12.14C38.8584 11.3601 38.5479 10.5712 38.186 9.83168C37.3058 8.01639 37.4465 6.24593 38.4094 4.52926C38.8785 3.70005 39.5264 2.96049 40.0849 2.19628C40.3083 1.89149 40.5317 1.9139 40.7685 2.19628C41.6264 3.25183 42.4127 4.34325 42.8685 5.65204C43.1059 6.29796 43.2085 6.98589 43.1701 7.67323C43.1317 8.36056 42.953 9.03267 42.6451 9.64791C42.0352 10.9186 41.5035 12.2252 41.3605 13.6707Z" fill="#1C1B1C"/>
</svg>
