<svg id="Layer_1" data-name="Layer 1" xmlns="http://www.w3.org/2000/svg" viewBox="0 0 595.28 566.93"><defs><style>.cls-1{fill:#fff;}</style></defs><path class="cls-1" d="M483.64,388.32c6.83-.52,13.44-.15,19.91,2.24,19.68,7.24,26.95,31.64,14.39,48.4-5.43,7.25-12.52,11.67-21.6,12.26-8.17.53-18.52-4-20.75-14-1.17-5.22,1.64-10.81,6.14-12,2.5-.69,3-.25,2.4,2.23-1.34,5.78,4.21,11.09,10.45,10,10.43-1.83,14.75-13.14,8.6-22.78-3.89-6.11-9.9-8.94-16.82-9.8-16-2-30,3.66-43.18,11.85-5.08,3.16-9.83,6.84-13.35,11.79-3.83,5.37-5.75,11.21-3.38,17.72,1.6,4.4,4.46,7.66,9.32,8.64,3.13.63,5.56-.43,7.56-3.45a8.22,8.22,0,0,1-7.83-1.72,9.13,9.13,0,0,1-3.59-6.92c-.57-8.53,5.1-12.31,10.86-12.7,7.43-.51,13.13,2.55,16.64,9.08,3.68,6.85,3.2,13.8-1,20.26-4.79,7.38-12.17,10-20.6,9.82-14.81-.33-28.23-10.26-30.6-27.56-1.08-8,.8-15.63,3.78-23.07,2.36-5.87,5-11.66,6.34-17.91,2.32-10.51-.78-20.57-11.12-25.68-2.17-1.08-.85-1.95.25-2.61,5.49-3.31,11.29-3.41,17.16-1.24,9.89,3.66,15.64,12.86,15.08,23.72a37.42,37.42,0,0,1-2.26,10.46c9.24-9,19.83-15.49,30.3-22.17,7.1-4.54,13.95-9.34,19.54-15.78,11.83-13.64,11.57-34.69-.66-46.66a26.15,26.15,0,0,0-34.83-1.21c-5.71,4.88-8.55,14.63-6.19,21.28,1.72,4.84,4.95,7,10.4,6.73-2.72-2.63-3.31-5.83-2.72-9.23,1.15-6.59,8.47-9.58,15.07-6.24,7.19,3.63,9.9,13,5.76,20.69-3.94,7.32-10.31,10.49-18.57,10.69-13.23.33-27.41-9.47-29.31-27.41-1.74-16.49,8.63-32.9,23.73-39.32,17.22-7.32,34-6.13,49,5.76,8.67,6.86,13.61,16.36,15.83,27,3.14,15.1.66,29.21-9.12,41.56a63.69,63.69,0,0,1-17.22,15C486.19,386.82,484.91,387.57,483.64,388.32Z"/><path class="cls-1" d="M76.71,236.47c18.94,1,35.56,7.33,48.71,21.39,6.2,6.63,9.75,14.75,12.5,23.27.45,1.38-.13,2.13-1.4,1.82-13.7-3.32-27.79-5.59-39.47-14.48-9.54-7.26-15.86-17-21.16-27.48-.33-.67-.68-1.34-1-2C74,236.79,74.33,236.32,76.71,236.47Z"/><path class="cls-1" d="M519,236.39c2.06,0,2.48.64,1.49,2.72-9.25,19.47-22.55,34.44-44.47,39.74-5.6,1.35-11.2,2.71-16.81,4-2.1.49-2.63-.12-2-2.14,7.38-22.48,23-36,45.63-41.8A111,111,0,0,1,519,236.39Z"/><path class="cls-1" d="M189,372.5a9.48,9.48,0,0,0-2-1.12c-11.62-5.37-27.07,2.74-29.71,15.67a32.19,32.19,0,0,0,1.73,18.62c-9.56-9.36-20.19-16.1-30.74-23a115.76,115.76,0,0,1-15.94-11.85c-13.91-12.93-16-33.18-4.86-47.75,9.51-12.4,29.74-13,39.16-.92,4.69,6,6.36,12.95,3,20.26-2,4.43-5.91,6.07-9.89,4.73,2.75-1.95,4-5,3.39-9.11-.46-3.17-2.5-5.25-5.38-6.47-5.3-2.23-11.87.08-15.12,5.25-4.66,7.41-1.84,17.63,6,23.16,8.53,6,23.49,3.8,31.82-4.15,9.23-8.79,12.19-23.66,7.19-36.33-8.55-21.67-31.11-31.07-53.19-25.68-16.09,3.93-26,14.79-31.39,30.08-.69,2.31-1.61,4.56-1.69,7h0a1.59,1.59,0,0,0-.39,1.53,49.51,49.51,0,0,0,4.12,29.84h0c5.67,11.68,14.91,19.8,26.69,26.42-5-.41-9.22-.74-13.44-.09a31.65,31.65,0,0,0-22.76,47.73c6.15,10.52,18.61,17.38,30.69,14,6.92-2,12-5.83,13.41-13.34,1-5.44-2.12-11-6.73-11.93-2.1-.43-2.55,0-2,2.09a7.49,7.49,0,0,1-3.79,9A12.06,12.06,0,0,1,92,432.56c-5-6.83-3.08-17.29,4.32-22.77,7.69-5.7,16.49-6.26,25.49-4.84a77.32,77.32,0,0,1,35.31,15.33c6.32,4.83,11.72,10.43,12.6,18.9.62,5.92-2.38,13-8.68,15.26-3.95,1.43-7.55.09-9.1-3.42,1.17.46,2.28,1.09,3.6.7,3.78-1.14,6.61-3.28,7.37-7.37.87-4.63.29-9-3.81-11.94-6.32-4.56-16.24-2.67-21.14,3.82A20.25,20.25,0,0,0,146.2,467c11.74,5.29,27.66.67,35.68-10.35,7-9.65,7.76-20.2,4.56-31.35-2.15-7.48-5.84-14.36-8.05-21.81-3.3-11.12-.85-22.56,10.47-28.51C190.34,374.23,190,373.34,189,372.5Z"/><path class="cls-1" d="M376.93,174a10.36,10.36,0,0,1-10.65,10.32,10.66,10.66,0,0,1,.07-21.32A10.54,10.54,0,0,1,376.93,174Z"/><path class="cls-1" d="M338,120.47a10.79,10.79,0,0,1,11,10.45c.14,5.54-5.05,10.8-10.73,10.88s-10.72-5-10.84-10.75C327.23,125.52,332.18,120.59,338,120.47Z"/><path class="cls-1" d="M267.75,131.26A10.46,10.46,0,0,1,257,141.82a10.71,10.71,0,0,1,.23-21.42A10.67,10.67,0,0,1,267.75,131.26Z"/><path class="cls-1" d="M384.29,231.35A10.35,10.35,0,0,1,373.7,220.7a10.49,10.49,0,0,1,10.45-10.6A11,11,0,0,1,395,221,10.73,10.73,0,0,1,384.29,231.35Z"/><path class="cls-1" d="M297.67,105a10.91,10.91,0,0,1-10.59-10.89c.07-5.51,5.23-10.48,10.84-10.46a11,11,0,0,1,10.61,10.86A10.58,10.58,0,0,1,297.67,105Z"/><path class="cls-1" d="M211.21,260.65a10.78,10.78,0,0,1,10.84,10.58,10.89,10.89,0,0,1-10.56,10.65,10.55,10.55,0,0,1-10.69-10.64A10.42,10.42,0,0,1,211.21,260.65Z"/><path class="cls-1" d="M206.41,211.1c3.57-2.26,9.51-.74,12.29,2.46,3.16,3.64,3.76,8.24,1.43,12.24-2.06,2-3.81,4.27-7,4.91a10.55,10.55,0,0,1-11.93-6,10.25,10.25,0,0,1,3.8-12.59A4.83,4.83,0,0,0,206.41,211.1Z"/><path class="cls-1" d="M239.16,174.21a1.66,1.66,0,0,1-.33,1.6c-1.15,2.21-2.06,4.57-4.06,6.22-4.74,3.46-10.13,2.92-14.14-1.42-3.6-3.9-3.54-9.77.16-14a2.58,2.58,0,0,0,1.3-.74c6.47-5.82,15.79-.9,16.63,6.44A3.54,3.54,0,0,0,239.16,174.21Z"/><path class="cls-1" d="M377.62,279.46c-5.32-3.65-5.49-12.75.26-16.62,2.85-1.26,5.68-2.54,8.94-1.52,3.84,1.21,6.41,3.55,7.25,7.59a10,10,0,0,1-4.34,10.8,9.46,9.46,0,0,1-10.06.71A10.62,10.62,0,0,0,377.62,279.46Z"/><path class="cls-1" d="M294,185.55a151.39,151.39,0,0,0,.22,56.24,3.31,3.31,0,0,0,6.51,0c2.22-13.16,4.17-34.15-.24-56.18A3.3,3.3,0,0,0,294,185.55Z"/><path class="cls-1" d="M297.48,267.22s-16.38-6.76-20.6-12.39-13-7.79-12.19-2,25.14,35.66,32.6,35.66Z"/><path class="cls-1" d="M297.48,267.22s16-6.76,20.23-12.39,13.06-8.82,12.21-3.05-25.17,36.69-32.63,36.69Z"/></svg>