<svg xmlns="http://www.w3.org/2000/svg" viewBox="0 0 371.66 471.35"><defs><style>.cls-1{fill:#717071;}.cls-1,.cls-2{stroke:#000;stroke-linecap:round;stroke-linejoin:round;}.cls-2{fill:#dead5f;}</style></defs><g id="dalam"><path class="cls-1" d="M233.67,16.28c-2.23,5.43-7.19,8.3-12.62,12.38-5.75,4.31-27.87,17-34.91,17s-22.27-10.07-31.48-15.07c-5.95-3.22-14.19-8.21-16.11-14.3,16.43,1.21,29.53,2.88,47.56,2.88S217.24,17.49,233.67,16.28Z"/></g><g id="kerah_biasa" data-name="kerah biasa"><path class="cls-2" d="M138.55,9.24a27.69,27.69,0,0,0,2.75,10.33c1.79.42,3.6.78,5.41,1.09,12.58,2.2,26.6,2.74,39.4,2.74s26.82-.54,39.4-2.74c2.23-.39,4.45-.82,6.64-1.38a39.07,39.07,0,0,0,1.52-10C217.24,10.45,155,10.45,138.55,9.24Z"/><path class="cls-2" d="M139.24,9.24s13.22,7.93,23.41,12.57c10.69,4.86,14.45,5.44,14.45,5.44l-9.37,21.39L128.81,18.1Z"/><path class="cls-2" d="M177.1,27.25l7,18.4s-8.17-2-12.76-4.8Z"/><path class="cls-2" d="M232.83,9.24s-13.21,7.93-23.4,12.57C198.73,26.67,195,27.25,195,27.25l9.37,21.39L243.27,18.1Z"/><path class="cls-2" d="M195,27.25l-7,18.4s8.17-2,12.76-4.8Z"/></g></svg>