<svg id="Layer_1" data-name="Layer 1" xmlns="http://www.w3.org/2000/svg" viewBox="0 0 595.28 566.93"><defs><style>.cls-1{fill:#e9bad2;}</style></defs><path class="cls-1" d="M489.06,110.26c7.71-1.68,11.37-6.33,12.84-13.07.83-3.77-.16-7-3.59-8.83-8.4-4.52-15.15-4.4-22.39,2-8.35,7.45-12.73,16.77-13.5,28.13-.69,10.27,1.88,19.07,8.74,26.69,1.45,1.61,2.74,3.38,4.25,5.27,1.88-3.19,3.39-5.86,5-8.45a21.61,21.61,0,0,1,2.56-3.26c3.69-3.92,6.62-3.39,8.56,1.59,1.66,4.25,2.88,8.7,4.84,12.79,5.83,12.16,15.75,19.34,28.66,22.62l3,.74c-1.32,1-2,1.87-2.86,2.13-11.9,3.66-22.76.37-33.4-4.9a104.76,104.76,0,0,1-25.38-17.33c-7.73-7.27-14.58-15.44-17.65-25.82-4.69-15.86-3.43-31.35,6.43-45,8.32-11.51,20-18.18,34.37-20,10.37-1.29,19.43,1,26.83,8.45,10.93,11.08,10.73,28.77-.43,38.39-4.16,3.58-9.08,6.13-14.67,5.29-3.44-.52-6.73-2.38-9.93-4C490.37,113.38,490,111.82,489.06,110.26Z"/><path class="cls-1" d="M118.27,150.73c1.5-1.61,2.66-2.84,3.79-4.09,6.69-7.42,10.5-16,10.06-26.13-.57-13.1-5.64-24.12-16.34-32.08-5.46-4.06-11.47-4.37-17.59-1.39-3.72,1.81-6.22,4.83-6,8.95.26,4.43,1.68,8.72,6,11.17a37.8,37.8,0,0,0,5,2.17c2,.78,2.32,1.83.92,3.46-3.54,4.12-11.43,6.18-16.63,4.43-8.7-2.93-14.31-8.77-16.59-17.67C67.1,84.92,79.18,67.4,94.21,65.75c23.13-2.53,47.48,11.63,52.72,38.35,3.18,16.25-.35,31.56-11,44-13.18,15.43-29.72,26.54-49.87,31.25a31.57,31.57,0,0,1-16.4-.15c-.82-.24-1.47-1.07-2.19-1.63a7.83,7.83,0,0,1,2.1-1.43c14.64-4.1,24.7-13.29,30.35-27.33,1.28-3.19,2.2-6.54,3.44-9.74s3.29-3.75,6-1.67a21.47,21.47,0,0,1,7.52,10C117.28,148.35,117.68,149.26,118.27,150.73Z"/><path class="cls-1" d="M302.91,201.07c7.94-34.25,28.46-58.63,59.36-74.63a88,88,0,0,1,36.37-10c8.21-.4,16.4-.35,24.29,2.58a2.43,2.43,0,0,0,2.18-.51c.31-.34.08-1.57-.31-2.1-9.78-13.09-23.25-19.49-39.18-20.67-15-1.12-27.81,4.84-39.34,13.89-14.95,11.74-25.53,27.05-35,43.26-2.61,4.48-5.31,8.91-8,13.36l-.72-.16a10.3,10.3,0,0,1-.87-2.84c-.08-5.26,0-10.53,0-15.79a144,144,0,0,1,5.39-39.34c2.35-8.35,4.52-16.9,5.34-25.5,1.6-16.82-4.05-31.93-13.18-45.85-1.3-2-2.37-2-3.65.06s-2.19,3.91-3.27,5.87c-9,16.21-12.65,33.26-8.13,51.59,2,8.27,4.38,16.48,6.17,24.8,3.2,14.82,2.88,29.88,2.63,44.92a17.33,17.33,0,0,1-.56,2.75c-.8-1.07-1.3-1.66-1.7-2.3-1.56-2.49-3.11-5-4.61-7.5-10.75-18-22-35.65-39-48.61-9-6.87-19.16-11.39-30.48-12.54-15-1.53-28,3.54-39.53,12.89a55.92,55.92,0,0,0-6.91,7.34c-.54.64-.44,1.84-.63,2.78a12.89,12.89,0,0,0,2.63,0c1.09-.18,2.12-.71,3.21-1a74,74,0,0,1,35.88.93c32.86,8.85,56.84,28.8,72.27,59,4.39,8.61,8,17.58,9.15,27.29.39,3.37,5.14,23.26,5.14,23.26S301.93,205.29,302.91,201.07Z"/><path class="cls-1" d="M167.47,419c-7.26-10.61-10.86-22.3-9.56-35.18,1.55-15.26,7.68-29,15.85-41.68s19.48-22.34,32.18-30.37c2.61-1.65,2.59-1.93-.14-3.45-7.23-4-14.91-4.28-22.84-2.78-12.8,2.41-22.45,9.07-28,21a85.69,85.69,0,0,0-7.63,30.69c-.39,5.55-.07,11.15-.07,16.73l-1,.09c-.24-.7-.54-1.39-.72-2.11a121.44,121.44,0,0,1-3.49-32.6c.22-10.45.77-20.91,1.55-31.34.56-7.47,1.64-14.91,2.69-22.34.46-3.27,0-4-3.26-3.22-7.07,1.62-11.57,6.38-14.49,12.64-5.32,11.41-4.82,23.47-3.36,35.57a31.24,31.24,0,0,1,0,3.49,73.17,73.17,0,0,1-4.74-6.84c-7.35-10.7-16.36-19.19-29.77-21.52-7.14-1.23-14.25-1.64-21,2-2.58,1.39-2.55,1.63-.41,3.57,11.88,10.84,23.59,21.87,35.65,32.5a125.9,125.9,0,0,1,27.19,33.05c.71,1.27,1.24,2.63,1.85,3.95l-.66.34a2.6,2.6,0,0,1-.57-.47,60.28,60.28,0,0,0-29.14-21.91c-15.82-5.76-31-5.23-44.84,5.42a2.84,2.84,0,0,0-1.09,2.22,3,3,0,0,0,1.88,1.84c12.24,3.29,24.31,7,35.8,12.48,21.26,10.16,41.16,22.24,57.43,39.6.69.74,19.74,11.39,24.34,13C177.15,433.36,169.52,422,167.47,419Z"/><path class="cls-1" d="M427.81,419c7.26-10.61,10.85-22.3,9.55-35.18-1.54-15.26-7.68-29-15.84-41.68S402,319.81,389.33,311.78c-2.6-1.65-2.59-1.93.14-3.45,7.24-4,14.91-4.28,22.84-2.78,12.8,2.41,22.46,9.07,28,21A85.69,85.69,0,0,1,448,357.23c.38,5.55.07,11.15.07,16.73l1,.09c.25-.7.54-1.39.72-2.11a121,121,0,0,0,3.5-32.6c-.23-10.45-.77-20.91-1.55-31.34-.56-7.47-1.65-14.91-2.69-22.34-.46-3.27,0-4,3.25-3.22,7.07,1.62,11.58,6.38,14.5,12.64,5.32,11.41,4.81,23.47,3.36,35.57a29,29,0,0,0,0,3.49,71.31,71.31,0,0,0,4.74-6.84c7.36-10.7,16.36-19.19,29.77-21.52,7.15-1.23,14.26-1.64,21,2,2.58,1.39,2.55,1.63.42,3.57-11.88,10.84-23.59,21.87-35.66,32.5a125.86,125.86,0,0,0-27.18,33.05c-.71,1.27-1.24,2.63-1.86,3.95l.67.34a2.54,2.54,0,0,0,.56-.47,60.26,60.26,0,0,1,29.15-21.91c15.82-5.76,31-5.23,44.83,5.42a2.82,2.82,0,0,1,1.1,2.22,3,3,0,0,1-1.88,1.84c-12.25,3.29-24.32,7-35.81,12.48-21.25,10.16-41.15,22.24-57.42,39.6-.69.74-19.74,11.39-24.35,13C418.12,433.36,425.76,422,427.81,419Z"/><path class="cls-1" d="M248.73,466.62c13.41,13.92,29.49,23.82,47.43,30.78a4.21,4.21,0,0,0,2.9-.14c17.51-7.52,33.91-16.81,47-31,15.17-16.47,24.1-35.09,24.55-56.48-19.23,15-57,42.81-73.32,42.81-17.07,0-56.16-30.46-73.65-44.84a80.85,80.85,0,0,0,.6,9.12C226.62,436.16,235.27,452.66,248.73,466.62Z"/><path class="cls-1" d="M321.15,323.73h0l0,0Z"/></svg>