<svg width="80" height="63" viewBox="0 0 80 63" fill="none" xmlns="http://www.w3.org/2000/svg">
<path d="M22.9087 25.0823C16.7489 23.6472 11.2659 21.5468 5.59183 19.8017C2.48673 18.8483 1.30043 15.4174 2.9034 13.0919C4.47983 10.804 8.80573 9.88804 11.9745 11.181C14.241 12.1069 16.035 13.467 16.7755 15.2634C18.6651 19.855 23.6757 22.1528 28.5589 24.5928C29.2357 24.9323 30.5467 25.1613 30.1937 25.8009C29.7983 26.5155 28.6014 26.1385 27.6725 25.9983C26.0571 25.7784 24.465 25.4723 22.9087 25.0823Z" fill="#AA5C9D"/>
<path d="M22.9087 38.9146C16.7489 40.3497 11.2659 42.4422 5.59183 44.1952C2.48673 45.1486 1.30043 48.5796 2.9034 50.907C4.47983 53.1949 8.80573 54.1109 11.9745 52.8179C14.241 51.892 16.035 50.5319 16.7755 48.7355C18.6651 44.1439 23.6757 41.8461 28.5589 39.4061C29.2357 39.0666 30.5467 38.8376 30.1937 38.198C29.7983 37.4834 28.6014 37.8604 27.6725 38.0006C26.0572 38.2199 24.4651 38.5253 22.9087 38.9146Z" fill="#AA5C9D"/>
<path d="M57.0886 25.0824C63.2511 23.6472 68.7314 21.5468 74.4082 19.8018C77.5106 18.8483 78.6996 15.4174 77.0966 13.09C75.5175 10.802 71.1916 9.88609 68.0255 11.1791C65.7564 12.1049 63.9623 13.465 63.2245 15.2614C61.3323 19.8531 56.3243 22.1509 51.4411 24.5908C50.7643 24.9304 49.4533 25.1594 49.8063 25.7989C50.199 26.5136 51.3986 26.1365 52.3275 25.9964C53.942 25.7773 55.5332 25.4718 57.0886 25.0824Z" fill="#AA5C9D"/>
<path d="M57.0886 38.9146C63.2511 40.3497 68.7367 42.4422 74.4082 44.1952C77.5106 45.1486 78.6996 48.5796 77.0966 50.907C75.5175 53.1949 71.1916 54.1109 68.0255 52.8179C65.7564 51.892 63.9623 50.5319 63.2245 48.7355C61.3323 44.1439 56.3243 41.8461 51.4411 39.4061C50.7643 39.0666 49.4533 38.8376 49.8063 38.198C50.199 37.4834 51.3986 37.8604 52.3275 38.0006C53.942 38.2197 55.5332 38.5251 57.0886 38.9146Z" fill="#AA5C9D"/>
<path d="M55.6927 30.9591C55.6875 30.9449 55.6875 30.9299 55.6927 30.9157C55.7036 30.8924 55.708 30.8676 55.7053 30.843C55.7027 30.8184 55.6933 30.7945 55.6775 30.7728C55.6618 30.751 55.6402 30.732 55.614 30.7168C55.5878 30.7016 55.5577 30.6907 55.5255 30.6847C55.0257 30.4804 54.511 30.2972 53.9836 30.1359C51.0934 29.4331 48.4103 28.4481 46.0563 26.9774C43.7022 25.5067 41.9055 23.7696 41.0138 21.5527C40.9315 21.2388 40.7139 21.2053 40.3689 21.3553C40.1189 21.4858 39.818 21.5513 39.5128 21.5417C39.2076 21.532 38.9153 21.4478 38.681 21.302C38.5802 21.2448 38.4634 21.1283 38.3042 21.2487C38.3066 21.3904 38.2798 21.5316 38.2245 21.6672C37.5584 23.3807 36.2076 24.7941 34.5833 26.0496C32.8264 27.4058 30.6847 28.3908 28.3891 29.1726C26.9188 29.672 25.4857 30.2504 23.8774 30.4833C23.7925 30.4996 23.7135 30.5296 23.6461 30.5713C23.5786 30.6129 23.5244 30.6651 23.4873 30.7242C23.1555 31.192 23.535 31.9283 24.2118 32.1257C24.8886 32.3232 25.5733 32.4949 26.2394 32.7041C28.1741 33.3102 30.138 33.8669 31.8126 34.8401C33.1001 35.6067 34.3075 36.4448 35.4246 37.3471C35.9105 37.6801 36.3241 38.067 36.6508 38.494C37.3429 39.5053 37.9294 40.5546 38.405 41.6328C38.6014 41.6821 38.7341 41.5854 38.8668 41.5104C39.4692 41.1669 40.0743 41.1156 40.698 41.4768C40.7856 41.5282 40.8811 41.5854 41.0085 41.538C41.1545 40.9024 41.5818 40.3536 41.9108 39.7614C43.2378 37.3728 45.6449 35.685 48.5085 34.3505C50.3801 33.4457 52.39 32.7101 54.4958 32.1593C55.3291 31.958 55.8838 31.6855 55.6927 30.9591ZM47.2399 31.7823C45.475 32.4931 43.8273 33.3543 42.3302 34.3485C41.5579 34.8815 40.8254 35.4441 40.0796 35.9969C39.5303 36.4055 39.44 36.4173 38.8774 35.9969C37.7268 35.1009 36.5131 34.2508 35.2415 33.4503C34.2143 32.8106 33.106 32.2467 31.9321 31.7665C31.25 31.498 31.2341 31.3539 31.9321 31.0775C33.5662 30.421 35.0987 29.6332 36.5021 28.7284C37.4211 28.1724 38.2744 27.5589 39.0526 26.8945C39.3923 26.5885 39.6656 26.5826 40.0319 26.8708C42.1364 28.5251 44.5887 29.8536 47.216 31.0163C47.461 31.1017 47.6615 31.2446 47.7866 31.423C47.6805 31.6164 47.4496 31.6895 47.2399 31.7823Z" fill="#AA5C9D"/>
</svg>
