<svg id="Layer_1" data-name="Layer 1" xmlns="http://www.w3.org/2000/svg" viewBox="0 0 595.28 566.93"><defs><style>.cls-1{fill:#be986a;}</style></defs><path class="cls-1" d="M174.1,95.62c6.19-8.9,9.45-18.5,6.77-29.47a21,21,0,0,1-.59-5c0-2.89,1.56-4,4.35-3.29,5.23,1.3,8.88,6.36,9,12.71.05,1.72-.21,3.45-.32,5.09,4.4-4,8.55-8.27,13.19-11.91,10.76-8.47,22.93-12,36.43-8.37,11.45,3,21.06,15,22.16,26.76,1.2,12.88-9.61,26.9-22.43,28.59a25.64,25.64,0,0,1-10.69-.66c-7.3-2.28-10.31-11.21-6.33-17.68a7.54,7.54,0,0,1,3.58-2.92,3.68,3.68,0,0,1,3.32,1c3,4,4.33,5,7,3.93,2.91-1.09,4.79-5.2,4.13-9a13.05,13.05,0,0,0-11.88-10.84,26,26,0,0,0-16.55,3.85c-10.94,6.75-19.9,15.74-28.36,25.27-1.4,1.59-2.85,3.13-4,4.41,4.64-.29,9.51-.94,14.36-.84,8.21.18,15.35,6.72,17.06,15.06a18,18,0,0,1-9,19.15c-5.71,2.94-13.1,2.34-17-1.5-.7-.69-1.49-1.82-1.36-2.62.09-.61,1.51-1.24,2.43-1.45,3.9-.89,5.52-2.09,5.76-4.56a7.64,7.64,0,0,0-5.13-7.63c-4.87-1.8-9.75-1.25-14.68-.11-8.87,2.06-16.35,6.78-23.87,12a58.91,58.91,0,0,1,5.93,1c6.54,1.76,10.14,7.15,9.54,14.09A13.79,13.79,0,0,1,155.3,163c-3.22.39-4.23-.9-3-3.84,1.53-3.7.22-6.95-3.49-8.53-5-2.14-10.09-1.44-15.11.09-9.71,3-17.56,8.84-24.48,16-4,4.13-7.55,8.67-11.64,13.4,3.84-.54,6.94-1.28,10.06-1.35,6.22-.14,10.63,3.88,11,9.59.21,3.26-.89,4.54-4.1,4.23-12-1.14-21.36,3.86-29.35,12.25a74.16,74.16,0,0,0-19.08,35.7,3.52,3.52,0,0,1-.29,1c-.66,1.12-1.37,2.21-2.07,3.32-1.12-1-2.81-1.8-3.26-3a28.14,28.14,0,0,1-2.08-9c-.1-7.28.42-14.56.58-21.84.17-7.71.42-15.43.21-23.13-.07-2.25-1.69-4.42-2.39-6.69-.37-1.17-.83-3-.26-3.62a5.41,5.41,0,0,1,4-1.39c4,.5,7.42,2.39,8.69,6.45,1.09,3.48,1.57,7.15,2.35,10.87,1.54-4,3.2-8.16,4.7-12.34,3.47-9.63,6.57-19.34,6.53-29.75a15.35,15.35,0,0,0-3.39-9.86c-3.6-4.49-8.6-5-13-1.35-2.19,1.79-4,1.41-5.38-1.16-2.87-5.19-.28-13.56,5.38-17.37,8.21-5.53,20.69-3.47,27.48,4.49,6.26,7.36,7.07,15.81,5,24.82-.58,2.56-1.38,5.07-1.79,7.8,4.94-7.1,10-14.1,14.78-21.32,5.28-8,9.92-16.37,12.64-25.68,2.39-8.21,2.94-16.38.36-24.64-2.94-9.42-12.77-14.94-21.57-12.09-6.4,2.08-9.25,7.48-7.25,13.82.64,2,1.83,3.65,4.18,4s4.15-.56,5-2.95c.6-1.69,1.79-1.4,3-.84,4.1,1.83,6,7.09,4.4,11.87-1.8,5.2-6.84,8.52-13.37,8.81-12.44.57-23.88-9-26.23-21.25-2.71-14.06,8.1-29.28,21.85-34.24,19.46-7,39.95,4.27,45.78,23.17,5.89,19.08,3,37.37-8.39,54.07a1.67,1.67,0,0,0-.31,1.23,26.15,26.15,0,0,0,2.53-1.86c6.66-6.27,13.67-12.22,19.81-19a27,27,0,0,0,7-23.67,6.27,6.27,0,0,0-5.51-5.61c-3.54-.69-4.37-2.19-3.32-5.66,2.1-7,11.66-9.09,17.6-3.81,5,4.44,5.91,10.3,5.22,16.56A58.07,58.07,0,0,1,174.1,95.62Z"/><path class="cls-1" d="M497.3,157.59c-.57-4.93-1.75-10.42-1.74-15.91,0-12.4,8.76-21.73,21-23.2,10.1-1.22,19.7,7.33,18.83,16.94a10.43,10.43,0,0,1-1.9,4.8c-1,1.41-2.66,1.61-4.27.53-7.76-5.25-15.36-1.67-16.75,7.8-.93,6.3.06,12.48,1.83,18.41,2.6,8.7,5.83,17.21,8.92,26.18.81-3.7,1.27-6.87,2.2-9.89,1.24-4,4.25-6.29,8.32-7a8.48,8.48,0,0,1,3.9.33,2,2,0,0,1,1.18,3.18c-4.43,7.09-3.86,15-3.6,22.77.31,9.67,1,19.33,1.16,29,.06,2.95-.84,5.94-1.44,8.89a5.9,5.9,0,0,1-1.29,2.86,4.22,4.22,0,0,1-2.82,1.43c-.62,0-1.38-1.38-1.7-2.28-2-5.85-3.46-12-6-17.56-5.2-11.32-12.7-20.94-23.37-27.76a29.15,29.15,0,0,0-18-4.6c-5.47.35-7.19-2.46-4.74-7.5s8.68-7.61,15.1-6a20.23,20.23,0,0,0,4.95.9c-2.65-3.22-5.15-6.58-8-9.62-7.55-8.11-15.78-15.4-26.3-19.54a26.88,26.88,0,0,0-13.53-2c-7.57,1-9.66,6.88-5,11.47a2.49,2.49,0,0,1,.37.68c-1.72,2.26-3.86,2.85-7.05,2-6.37-1.78-10.56-8.28-9.84-15.26.69-6.6,5.73-11.17,12.81-11.57.86-.05,1.72,0,3.37,0-6.06-4.51-11.63-8.26-18-10.8a33.07,33.07,0,0,0-16.09-2.63,12.47,12.47,0,0,0-7.94,3.91,5.71,5.71,0,0,0-1.53,5.86c.7,2.3,2.55,3,4.64,3.45a22,22,0,0,1,3,1.11c-.65,1.17-1,2.65-2,3.47-5.31,4.62-14.73,3.6-20.36-2.06a18,18,0,0,1-3.83-19.5c3.08-7.18,8.68-11.33,16.46-11.52,5-.12,10.09.93,14.55,1.39-8.26-9.34-17-19.4-28-27.17-6.18-4.39-12.77-7.65-20.72-7-7.47.62-13.69,7-12.91,13.86a9,9,0,0,0,2.39,4.82c2.73,2.82,6.59,2,8.33-1.57,1.54-3.1,4.45-3.54,6.73-.88,2.5,2.93,2.9,6.45,2.05,10.05-1.51,6.37-6.49,10.29-13,10.54-11,.42-18.61-5.08-24-14s-4.91-18,.17-26.82c4.94-8.61,12.2-14.43,22.07-16.07a39.55,39.55,0,0,1,29.88,6.8c4,2.78,7.5,6.24,11.15,9.48,1.44,1.28,2.67,2.8,4.58,4.82,0-2.59-.17-4.5,0-6.37.48-4.57,2.42-8.43,6.61-10.59,1.39-.72,3.79-1.09,4.88-.35s1.48,3.07,1.37,4.66c-.24,3.52-1.36,7-1.44,10.51-.18,8.33,3,15.63,7.75,22.37-.45-2.14-1.06-4.26-1.34-6.42-1-8.14,2.17-16.48,10-18.69,5-1.39,10.57.83,12.73,5.24,1.75,3.57.68,6-3.12,7.05-4.31,1.2-5.91,3.25-6.11,7.67-.39,8.52,2.65,15.87,7.93,22.31,6.44,7.86,14.48,14,22,19.85-2.22-4.54-5.07-9.33-7-14.47a65.6,65.6,0,0,1-3.05-36.66c2.83-13.74,15.1-26.11,28-28.37C496,50.6,510.22,56.65,517.93,69c9.63,15.46,2.68,34.75-14.52,39.77-6.8,2-13.45,1.67-18.7-4-3.9-4.24-3.89-10.56-.15-14.25,2.47-2.43,3.6-2.19,5.75.34.88,1,2.87,2,4,1.72a7,7,0,0,0,4.12-3.19c3.19-6.48-1.59-14-9.22-14.84-9.35-1.05-16.74,4-19.43,13.29-3.39,11.69-.76,22.71,4,33.34,5.39,12.08,13.16,22.72,21.13,33.19C495.89,155.62,496.81,156.92,497.3,157.59Z"/><path class="cls-1" d="M288.57,451.79c-5.71-.94-7.25-3.11-6.53-8.92.6-4.85,1.49-5.66,6.42-5.67q10,0,20,0c3.17,0,4.68,2.23,4.74,6.84.06,5.29-1.18,7.3-4.6,7.45l-3.44.16c1.75,3.6,3.13,6.91,4.89,10a19.47,19.47,0,0,0,13.23,9.87c7.13,1.55,14.8-4.5,14.86-11.52,0-5-5.13-9.72-10.53-6.55-2.25-2-2.71-4.1-1.57-7.14,2.2-5.87,9.2-8.9,15.71-6.78,12.72,4.14,21.42,21.58,9.17,35.94-5,5.83-11.48,9.54-19.15,9.86-10.84.45-20.37-2.65-26.4-12.65a1.26,1.26,0,0,0-1.14-.55c.71,1.7,1.41,3.41,2.15,5.1,5,11.38,1.81,21.42-7.05,29.22-1.53,1.35-2.67,1.14-4.11-.18-9.83-9-11.84-19.84-5.81-31.8a5.85,5.85,0,0,0,.76-2.92,9.45,9.45,0,0,0-1.21,1.33c-5,8.35-12.88,11.75-22,12.38-11.53.8-20.41-4.17-26.06-14.14-7.24-12.75.43-29.32,14.55-32.14a11.71,11.71,0,0,1,13.91,9.64,7.53,7.53,0,0,1-.94,3.72c-.85,1.94-2.12.64-3.32.29-4-1.15-7.94,2.06-8.36,6.68-.65,7.2,7.29,13.81,14.9,12.3,6.62-1.31,11.57-4.75,13.89-11.39C286.48,457.44,287.53,454.64,288.57,451.79Z"/><path class="cls-1" d="M303,409.26c1-2.6,1.91-5.26,3.07-7.79,2.9-6.29,7-11.44,13.47-14.51,10.68-5.06,22,3,23.63,13,1.34,8.21-1.76,15.12-8.52,19.17a4.77,4.77,0,0,1-1.91.9c-1.52.11-3.06,0-4.59,0a18.68,18.68,0,0,1,.67-4c1.69-4.25-.55-7.72-5.16-7.8-4.18-.08-7,2.3-9.37,5.3-3.1,3.88-4.86,8.42-6.23,13.14-1.43,4.89-1.48,4.89-6.61,5-3.83.05-7.65,0-11.47.12-1.79.07-2.44-.59-2.83-2.28a42.06,42.06,0,0,0-7.28-16.15c-2.09-2.77-4.63-5-8.35-5.07-4.55-.13-7,3.64-5.13,7.76.22.48.53.93.73,1.42.87,2.25.23,3.31-2.16,3.09-6-.57-9.54-4.4-11.83-9.52A18.2,18.2,0,0,1,266,385.73c6.74-1.34,12.05,2,16.64,6.53,4.25,4.23,6.63,9.59,8.82,15.05.26.65.51,1.31.81,1.94,0,.11.3.13,1,.38-1-3.24-1.66-6.22-2.74-9.06-1.67-4.38-3.43-8.76-5.48-13-5-10.22-4.17-20.24,1.28-29.84,2.64-4.67,6.25-8.79,9.46-13.13,1.26-1.71,2.54-1.59,3.86,0,4.84,5.94,9.27,12.08,11.85,19.44a28.3,28.3,0,0,1-1.24,22.49C306.76,393.78,303.75,401.13,303,409.26Z"/></svg>