<svg id="Layer_1" data-name="Layer 1" xmlns="http://www.w3.org/2000/svg" viewBox="0 0 535.42 515.28"><defs><style>.cls-1{fill:#233565;}</style></defs><path class="cls-1" d="M125.38,456.08c-19.84,4.54-38.62,10.51-55.88,20.24-8.12,4.57-15.46,10.51-23.13,15.85-.85.59-1.55,1.38-2.36,2-2.15,1.67-3.35,1.22-3.71-1.54a23.68,23.68,0,0,1-.09-5.05,93.88,93.88,0,0,1,20.9-52.38c8.82-10.91,20.5-17.12,34.24-19.14,23.13-3.4,45.29.38,66.59,9.79,5.68,2.52,11.37,5,17.46,7-5-4.53-9.87-9.07-14.84-13.58-14.23-12.9-30.68-22.39-47.76-30.86-24.91-12.36-45.94-29.66-63.9-50.67-9.5-11.11-18.17-22.92-27.4-34.26-2.95-3.62-6.55-6.7-9.78-10.1a14.27,14.27,0,0,1-1.59-2.72,12,12,0,0,1,2.76-.89c20.41-1.57,39.15,3.54,56.38,14.39,7.16,4.51,14.19,9.24,21.35,13.92-2.28-4.14-4.45-8.53-7-12.67a421.68,421.68,0,0,0-48.34-63.76c-5.64-6.09-12.4-11.14-18.66-16.65a14.85,14.85,0,0,1-2-1.55c-.64-.83-1.5-1.93-1.37-2.77.1-.61,1.61-1.34,2.56-1.43a82.88,82.88,0,0,1,35.15,3.87c25.12,8.41,43.5,25.15,56.85,47.39,6.47,10.77,11.18,22.59,16.69,33.93a3.15,3.15,0,0,0,1.24,1.6c-.19-1-.36-2-.58-3-2.35-10.67-4.31-21.45-7.14-32A138,138,0,0,0,93,216.8c-4.13-4.83-8.76-9.23-13.08-13.91a8.21,8.21,0,0,1-1.07-2.54A6.82,6.82,0,0,1,81.4,200c42.33,12.25,73.76,38,93.41,77.35,7.33,14.71,9.76,30.91,9.19,47.51-.54,15.41-4.95,30-8.24,44.88-4.91,22.16-1,42.36,16.09,58.57,8.51,8.05,17.5,15.6,26.14,23.52a140.28,140.28,0,0,1,27.54,35c.93,1.68,3.33,4,1,5.68s-3.49-1.38-4.72-2.73a106,106,0,0,0-49.19-30.69c-10.07-2.95-20.14-2.9-30,1.3a23.67,23.67,0,0,0-10.7,8.36,12.47,12.47,0,0,0,.67,14.67c3.35,4.26,8,5.45,13.33,3.66a21.18,21.18,0,0,1,4.4-.5c-.63,1.43-.92,3.17-1.92,4.24-14.18,15.07-36.69,14.47-49.15-4.51-5.68-8.65-3.71-20.86,3.81-28.14C123.68,457.61,124.31,457.06,125.38,456.08Zm18.17-77.2.93-.42a13.8,13.8,0,0,0-.37-1.6c-2.54-7.42-5.17-14.81-7.65-22.25-9.32-27.9-21.6-54.23-40.77-76.9-1.92-2.27-4-4.44-6-6.65,1.79,3.64,4.06,6.85,6,10.24,10.87,19.12,20.47,38.87,29.49,58.92C131.08,353.22,137.43,366,143.55,378.88Zm2.17-104.4c.38,4.47.68,8.94,1.17,13.39.94,8.56,2.3,17.08,2.93,25.65,1,14,1.49,28.07,2.43,42.09.37,5.61,1.37,11.18,2.09,16.77l1.16-.14C157.15,339.21,157.34,306.32,145.72,274.48ZM66.43,323.25c21,19.7,43.34,37.94,65.33,56.53C114.46,355.76,91.9,337.82,66.43,323.25Zm78.11,118.42c-16.1-10.14-54.45-3.56-68.93,11.85C97.79,444.18,120.79,441.36,144.54,441.67Z"/><path class="cls-1" d="M406.22,306.94c2.28-5.29,4.6-10.56,6.85-15.87,8.8-20.77,21.55-38.67,39.56-52.35,18.31-13.9,38.89-21.47,62.27-19.72a14.56,14.56,0,0,1,3.66,1.29c-.67,1.15-1.07,2.64-2,3.4-8.47,6.58-16.65,13.52-23.47,21.8q-14.12,17.14-27.61,34.79c-6.12,8-11.83,16.41-17.39,24.85a69.57,69.57,0,0,0-6.46,13.45c2.36-1.85,4.65-3.81,7.09-5.55,14.52-10.32,29.68-19.47,47.64-22.16,7.62-1.14,15.48-.76,23.24-1,.63,0,1.86.65,1.83.84a4.83,4.83,0,0,1-1,2.37c-6.21,7-12.67,13.82-18.69,21-5.85,7-11,14.49-16.91,21.4-20.52,24-44.29,43.81-73.38,56.88-20.62,9.27-37.85,23.41-53.75,39.26-.46.46-.87,1-1.29,1.47,0,0,0,.12,0,.06,7.76-3.36,15.45-6.93,23.32-10A121.16,121.16,0,0,1,429.49,415c19.05.78,35.27,7.6,47.24,23.23a95.32,95.32,0,0,1,14.55,28.31c2.68,8,4.35,16.28,4,24.82a39.43,39.43,0,0,1-.85,4.4C470,474,441.56,463.06,411.1,456.45l-.87,1a10.71,10.71,0,0,1,2.42,1.35c7.69,7.41,9.16,20.61,2.65,29.08-13.86,18-35.78,17.6-49.44,2.23a34.79,34.79,0,0,1-2.32-3.48,17.85,17.85,0,0,1,3.65-.26c1.64.28,3.21,1,4.86,1.25a11.13,11.13,0,0,0,11.74-5.91c2.61-4.85,2.17-9.85-1.37-13.86-5.49-6.23-12.74-9-20.72-10.19-12.36-1.79-23.39,2.41-34.21,7.7a108.26,108.26,0,0,0-32.44,23.84,19.4,19.4,0,0,1-3.05,2.9,7.7,7.7,0,0,1-2.67.63c-.13-.94-.68-2.1-.32-2.8,1.87-3.66,3.79-7.32,6-10.78,9.61-15,22.11-27.37,35.92-38.53,8.7-7,16.86-14.7,22.57-24.51,6.93-11.92,9.69-24.76,7.27-38.37-2.18-12.22-5.15-24.3-7.45-36.5-6.12-32.47,1.43-61.67,21.52-87.73,15.86-20.58,35.24-36.78,59.44-46.74,6.19-2.55,12.65-4.48,19-6.56,1-.33,2.22,0,3.34.07-.5,1.08-.76,2.41-1.55,3.19-14.47,14.22-25.76,30.7-34.72,48.81-6.62,13.37-9.64,27.84-12.43,42.36-.78,4-1.51,8.05-2.27,12.08Zm42.66-37.14c-1,.83-1.51,1.18-1.93,1.61a167.68,167.68,0,0,0-23.41,29.79c-12.3,19.92-20.91,41.52-28.56,63.54-1.75,5.05-3.4,10.13-5.1,15.2a2.11,2.11,0,0,0,1.41-1.14c4.1-8,8.4-15.87,12.26-24,12.06-25.34,23.88-50.79,38.16-75C443.67,276.52,446.19,273.54,448.88,269.8ZM380,372.07c4.13-16,3.41-32.36,4.73-48.55s3.26-32.44,4.93-48.66l-.92-.09C378,306.49,378,339.21,380,372.07ZM403.32,380c9.93-6.54,63.75-53.24,65.6-56.92C448.73,333,410.15,366.49,403.32,380Zm57.43,73.6c-10-9-26.44-16-40.42-16.67a84.61,84.61,0,0,0-30.48,4.28c12.06.88,24,1.36,35.82,2.73S448.93,448.91,460.75,453.58Z"/><path class="cls-1" d="M157.58,182.47c-.37-12.38,3.65-23.21,11.17-32.86a29.73,29.73,0,0,1,2.52-2.63c1.8-1.8,3.48-1.77,5.32.08,9.3,9.33,15.12,20.46,15.29,33.68.11,8.55-1.17,17.17-2.33,25.69-1.74,12.72-2.24,25.35.54,38a38.23,38.23,0,0,1,.7,7.25c0,.77-.8,1.55-1.23,2.33-.74-.47-1.84-.76-2.15-1.42C180,236.4,168,222.68,162,205.76a75.55,75.55,0,0,1-3.29-11.55A117.45,117.45,0,0,1,157.58,182.47Z"/><path class="cls-1" d="M377.9,186.71c-.29,9.92-4.24,20.51-9.81,30.49-5.12,9.16-10.76,18-16.11,27.07-1.34,2.25-2.39,4.67-3.74,6.91a12.84,12.84,0,0,1-2.38,2.33c-.33-1.22-1.06-2.49-.92-3.66.44-3.42,1.19-6.81,1.86-10.21,1.83-9.27.6-18.49-.38-27.73s-2.49-18.47-2.33-27.67c.27-15.14,7.06-27.73,17.74-38.31,1.81-1.79,2.8-1.32,4.11.54C374.26,158.3,378,170.23,377.9,186.71Z"/></svg>