<svg id="Layer_1" data-name="Layer 1" xmlns="http://www.w3.org/2000/svg" viewBox="0 0 463.35 515.23"><defs><style>.cls-1{fill:#233565;}</style></defs><path class="cls-1" d="M232.23,193.58a4.51,4.51,0,0,1-1.24-3.22c-.39-9-.65-17.92-1.2-26.86a289.55,289.55,0,0,0-4.51-37.35,471.55,471.55,0,0,0-11.7-49A194.42,194.42,0,0,0,202.36,48c-3.06-6.2-7.52-11.37-11.77-16.76,1.66-.49,1.7-.57,5,1a49.67,49.67,0,0,1,21.74,20.28,38.48,38.48,0,0,1,4.54,10.83c.12.51-.07,1.3.8,1.1s.45-.93.39-1.42c-.66-5-1.37-9.93-2-14.9-1.46-11-2.35-22,.35-33a12.46,12.46,0,0,1,.42-1.31c.13-.33.3-.65.58-1.24,3.11,3.11,4.87,6.89,6.8,10.51,4.65,8.69,6.1,18.18,6.72,27.87a173,173,0,0,1,0,25.76c-.07.8-.58,1.86.81,2.65,4.38-22.65,14.68-40.74,37.39-49.27a91.57,91.57,0,0,0-13.46,21.07c-5.82,12.23-9.8,25.15-13.49,38.14q-5,17.6-8.6,35.55c-1.77,8.75-2.82,17.59-3.8,26.45-1.23,11-1.23,22.17-1.84,33.26C232.81,187.43,232.5,190.3,232.23,193.58Z"/><path class="cls-1" d="M264.24,449.51c-3.51-10.39-5.12-21.2-6.88-32.22a42,42,0,0,0-16.12,17.83c-6.3,12.67-7.77,26.4-8.85,40.21-.13,1.55.07,3.14-1.2,4.79-.1-5-.8-9.65-1.14-14.29-.8-10.84-3.13-21.25-8-31-3.61-7.31-8.5-13.45-16-17.33-3.34,20.36-6.19,38.33-20.35,55.46,5.18,2.41,10.25,4.88,15.41,7.14,8,3.5,15.13,8.07,20.73,15a137.21,137.21,0,0,1,9.46,13.58c1.65-2.48,3.2-4.78,4.72-7.11,6.16-9.43,14.1-16.74,24.74-20.85,5.19-2,10.15-4.52,15.14-7,1.6-.79,2-1.27.59-2.91A61.46,61.46,0,0,1,264.24,449.51Z"/><path class="cls-1" d="M343.25,222.74c-14.17-10.61-30.19-13.24-47-9.52-21.31,4.72-36,18.32-46.14,37.25h0c-4,6.58-6.76,13.75-9.31,21a174.82,174.82,0,0,0-8.69,36c-.79-.14-.87-.73-.93-1.27-1.25-11-4.1-21.59-7.39-32.08-3-9.61-6.38-19.1-12.1-27.53a70.78,70.78,0,0,0-14.79-17.66c-14.31-12.34-30.47-18.72-49.61-16.52-12.6,1.44-23.44,6.22-32.34,15.47-12.66,13.15-14.15,32.07-3.4,46.78,6.78,9.27,19.72,13.34,30,9.61,7.43-2.7,13.14-11.11,11.17-17.51-3.68,7.24-8.09,10.11-14.89,9.69-5.91-.37-11.64-5.34-13.93-12.08-3.24-9.56.74-21.09,9.31-27.06a38.92,38.92,0,0,1,21.84-7.18c8.06-.2,15.6,1.18,22.65,5.28,3.88,2.26,7.16,5.28,10.8,7.84h0l0,0h0l7.25,8.46h0a93.19,93.19,0,0,1,11.34,23.65c3.56,11.63,4.2,23.55,3.87,35.58a3.57,3.57,0,0,0,2.08,3.77,45.83,45.83,0,0,1,12.15,9.69c2.63,2.94,4.47,6.42,6.9,9.72.32-.56.51-.87.68-1.19,4.36-8.24,10.37-14.88,18.83-19.08a2.29,2.29,0,0,0,1.42-2.36c0-5.13-.07-10.25.41-15.38a107.54,107.54,0,0,1,4-21.23c2.65-8.77,7-16.67,12-24.27.58-.6,1.19-1.17,1.72-1.8,10.51-12.55,23-20.53,40.29-18.63,9.37,1,17.29,4.54,23.64,11.56,7.27,8.06,7.66,21.41.69,29.39-3.69,4.23-8.46,6.24-14,5.1a13.21,13.21,0,0,1-10.64-10.11c-1,8.52,3.35,15.3,11.56,18,10.74,3.59,23.12-.95,30-11C363.55,257.3,359.32,234.78,343.25,222.74Z"/><path class="cls-1" d="M207,408.93c-.24,2.35.21,3.41,2.16,4.5a40.76,40.76,0,0,1,17.69,19.5,85.33,85.33,0,0,1,5,15.56c4-14.59,7.29-26,23.84-36.1.55-.34,1.28-.6,1-1.43-.48-1.56-.12-3.16-.31-4.74-1.33-10.82-1.86-21.7-2.25-32.59-.1-2.94-.42-5.88-.67-9.16-7.22,5.46-12.53,11.87-15.63,20.14-3,8.05-4.44,16.43-5.72,25.58-3.67-26.58-12.67-39.06-22.14-46.22.15,4.76-.39,9.28-.49,13.81C209.2,388.21,208,398.57,207,408.93Z"/><path class="cls-1" d="M211.36,359a52.48,52.48,0,0,1,14.95,16.73,92,92,0,0,1,5.54,11.55,50.14,50.14,0,0,1,20.65-27.88c1.24-.83,1.1-1.83,1-2.9-.68-12.24-.52-24.49-.51-36.75,0-.44.08-.95-.53-1.12-9.77,6.39-16.44,15.19-20.54,27.38-4.53-11.3-10.57-20.9-20.93-27.44-.16,1.69-.37,3.15-.43,4.62-.44,11.12.38,22.27-.58,33.38A2.41,2.41,0,0,0,211.36,359Z"/><path class="cls-1" d="M237.35,266.89c.94-3.69,2-7.32,1.49-11.21-.75-5.7-1.33-11.42-2.11-17.11A246.76,246.76,0,0,0,232,212.75c-.68,3.47-1.38,6.44-1.83,9.44-1.59,10.35-3,20.71-4.23,31.11-1.38,11.45,2.72,21.5,5.9,32.52C234.1,279.19,235.78,273.06,237.35,266.89Z"/><path class="cls-1" d="M131.55,418a188.72,188.72,0,0,0-59.22-80.18v.84c0,33.48-5.25,67.6,5.72,99.23,3.32,9.58,7.68,19.15,15.13,26s18.57,10.55,28,6.86c9.3-3.65,15-13.67,16-23.62S135.18,427.34,131.55,418Zm-15.32,29.48c-5.1,6.74-13.76.15-16-5.61-1.45-3.77-1.67-7.88-2-11.91a220,220,0,0,0-11.59-55.21,218.79,218.79,0,0,1,25.71,51.34C114,430.88,120,442.53,116.23,447.51Z"/><path class="cls-1" d="M326.56,447.2c1,9.95,6.64,20,15.95,23.62s20.58,0,28-6.86,11.81-16.46,15.13-26c11-31.63,5.72-65.75,5.72-99.23v-.84A188.64,188.64,0,0,0,332.16,418C328.52,427.34,325.58,437.26,326.56,447.2Zm24.77-21.08A218.37,218.37,0,0,1,377,374.78,220.43,220.43,0,0,0,365.44,430c-.31,4-.53,8.14-2,11.91-2.22,5.76-10.88,12.35-16,5.61C343.71,442.53,349.68,430.88,351.33,426.12Z"/></svg>