<svg xmlns="http://www.w3.org/2000/svg" viewBox="0 0 371.66 471.35"><defs><style>.cls-1{fill:#717272;}.cls-2{fill:#d2d2d1;stroke:#010101;stroke-miterlimit:10;}</style></defs><g id="dalam"><path class="cls-1" d="M224,40.89c-1.79,4.36-5.77,6.67-10.13,9.94-4.62,3.46-22.39,11-28,11S168,56.38,160.61,52.37c-4.78-2.59-11.39-6.59-12.93-11.48,13.19,1,23.69,2.32,38.17,2.32S210.83,41.87,224,40.89Z"/></g><g id="badan"><path class="cls-2" d="M293.92,426.91c-3.7-50.68-12.5-117.5-11.11-147.14,1.46-31,3.46-65.48,3.06-70.28-2.74-32.82-9.95-82.92-2.9-144.44-6.83-5.1-45.75-20.43-60.11-25.64-.08,5.14-29.18,20.68-37,22.29v-.05h0v.06l-.39.06-.39-.06v-.06h0v.05c-7.85-1.61-36.94-17.15-37-22.29C133.6,44.62,94.68,60,87.85,65.05c7.05,61.52-.16,111.62-2.9,144.44-.39,4.8,1.6,39.31,3.06,70.28,1.39,29.64-7.4,96.46-11.11,147.14,3.87,1.34,55.77,2,108.09,2h.84C238.15,428.93,290.05,428.25,293.92,426.91Z"/></g></svg>