<svg id="Layer_1" data-name="Layer 1" xmlns="http://www.w3.org/2000/svg" viewBox="0 0 566.93 566.93"><defs><style>.cls-1{fill:#ce433a;}</style></defs><path class="cls-1" d="M325.44,173c-2.77-3.41-5.83-6.63-8.27-10.26-5.65-8.38-10.47-17.25-10.27-27.71.07-4,1.28-8,2.43-11.88,3.26-10.94,10.38-18.81,20.13-24.51,10.12-5.91,29-5.69,38.79,7.39,4.71,6.26,7,12.86,6.45,20.57-.79,10.39-9.45,19.35-19.47,19.84-5.29.26-10.06-1.28-12.72-6.29a10.57,10.57,0,0,1,.31-10.46,4.67,4.67,0,0,1,1-1.25c1.08-.91,1.64-.57,2.06.81a23.28,23.28,0,0,0,2.09,5.39,4.88,4.88,0,0,0,5.87,1.77c7.26-2.4,8.58-9.76,6.09-15.68-3.81-9-16.2-11.68-25.2-6.41-10.51,6.16-16.55,19.74-12.41,33.38,2.6,8.59,7.58,15.68,13.2,22.49a89.51,89.51,0,0,1,9.23,12.67c2.33,4.14,3.59,8.88,5.16,12.93.65-3,1.4-6.49,2.17-10a48,48,0,0,1,15.79-26.59c9.88-8.46,22.47-10.46,33.51-2.86,6.85,4.71,10.7,11.35,9.35,20-1.32,8.53-10.22,14.51-18.06,12.4-3.68-1-5.71-3.47-6.73-6.95a1.24,1.24,0,0,1,.22-1.09,1.88,1.88,0,0,1,1.27-.12c.33.06.59.39.89.57,4.32,2.65,8.67,1,10.21-3.83,1.66-5.25-2.24-10.78-8.13-11.55a16.41,16.41,0,0,0-12.08,3.42c-7.4,5.38-11.71,13-15.16,21.24-3.68,8.77-5.49,18-6.85,27.38a79.7,79.7,0,0,1-2.36,9.55c-.14.52-.75.92-1.15,1.37-.36-.48-.91-.91-1.06-1.46-1.28-4.45-2.32-9-3.74-13.38-3-9.2-8.78-16.43-16.15-22.47-9-7.34-19.39-11.05-30.84-12.09a34.7,34.7,0,0,1-4.08-.5,2.22,2.22,0,0,1-1.45-1c-.14-.31.35-1.08.75-1.43a22.13,22.13,0,0,1,10.86-5.07,27.26,27.26,0,0,1,14.79.93c1.1.42,2.25.71,3.38,1.05Z"/><path class="cls-1" d="M237.08,388.7a91.14,91.14,0,0,1,0-9.62c.72-7.28,3.59-13.54,9.59-18.07.53-.4,1.67-.82,1.93-.58a3.07,3.07,0,0,1,.88,2.17c-.12,1.9-.59,3.77-.77,5.67-1.56,16.33,2.51,31,13.29,43.52a48.17,48.17,0,0,0,16.87,12.42c1.68.76,3.35,1.53,5,2.41.49.26.79.89,1.17,1.36-.54.26-1.09.77-1.63.75-5.54-.17-11.09-.24-16.61-.7-12.83-1.08-25.27.27-37.11,5.54-5.32,2.37-10,5.67-12.71,11-2,3.95-2.57,8.08-.12,12.13a8.64,8.64,0,0,0,12,2.45c1.8-1.3,2.68-4.6,2-7.39a7.43,7.43,0,0,1-.37-1.19c0-.48,0-1.34.14-1.4a2.26,2.26,0,0,1,1.62.11c4.68,2.64,6.31,7.58,4.26,12.79-3.49,8.92-14.31,12.66-23,7.79-8.89-5-12-13.1-11.46-22.77s5.95-16.64,13.88-21.72a48.56,48.56,0,0,1,27.91-8.09c3.32.09,6.64.15,10.11.23-2.46-1.58-4.83-3.09-7.18-4.63-5.27-3.46-9.35-8.08-13-13.14-4.16-5.76-8.5-11.36-14.2-15.75-6.71-5.15-13.83-9.2-22.7-8.5-8.07.63-15,3.6-20.16,10.08-4.81,6-5.56,14.82-1.66,20.74,3.66,5.55,10.93,8,16,5a12.41,12.41,0,0,0,4.18-4.22c1.72-2.8.33-6.13-2.93-7.91-.73-.39-1.57-.59-2.29-1-.43-.25-1-.71-1-1.11s.48-.92.89-1.16c2.8-1.67,8-1.27,10.54.74,4.85,3.86,6.29,10.39,3.55,16.43-3.73,8.22-10.66,11.8-19.16,12.59s-15.32-2.78-20.82-9c-3.37-3.83-6.3-8-7.22-13.15-2.15-12,.63-22.48,9.89-31,6.25-5.75,13.35-9.63,21.7-10.79a81,81,0,0,1,13.94-.44c5,.18,9.26,2.81,13.46,5.33,8,4.84,13.8,12,19.34,19.34C235.58,386.78,236.25,387.61,237.08,388.7Z"/></svg>