<svg width="140" height="191" viewBox="0 0 140 191" fill="none" xmlns="http://www.w3.org/2000/svg">
<path d="M102.07 116.073C103.395 114.828 104.811 113.795 106.653 113.488C107.337 113.374 108.013 113.219 108.693 113.084C110.801 112.661 112.821 111.879 114.664 110.771C117.423 109.123 118.914 106.587 119.64 103.531C120.129 101.441 120.047 99.3326 119.874 97.214C119.682 94.8725 119.381 92.5275 119.647 90.1719C119.692 89.6529 119.767 89.1369 119.87 88.6262C119.966 88.1982 119.806 88.1133 119.441 88.1735C117.172 88.4756 114.953 89.0836 112.847 89.9809C110.269 91.1516 107.949 92.6796 106.118 94.8831C104.499 96.816 103.459 99.1663 103.119 101.663C102.869 103.736 102.858 105.831 103.087 107.906C103.221 109.143 103.083 110.394 102.683 111.572C102.283 112.749 101.63 113.826 100.771 114.726C99.7754 115.787 98.6456 116.752 97.5548 117.739C97.2894 117.951 97.0089 118.144 96.7155 118.316L96.5986 118.241C96.611 118.07 96.6468 117.901 96.7049 117.739C96.9988 117.198 97.2892 116.657 97.6292 116.147C98.3375 115.086 99.0919 114.046 99.8179 112.992C101.015 111.259 101.397 109.307 101.334 107.241C101.238 104.136 99.9985 101.504 97.9763 99.2018C97.6859 98.8693 97.3636 98.5616 97.0944 98.2114C96.8253 97.8612 96.5065 97.8931 96.2409 98.2114C95.862 98.6571 95.4972 99.1133 95.1537 99.5837C94.0275 101.136 93.0288 102.767 92.5082 104.627C92.0884 106.036 91.9601 107.515 92.1312 108.974C92.3023 110.434 92.7692 111.843 93.5033 113.116C93.8433 113.722 94.1656 114.336 94.4702 114.959C95.4193 116.911 95.1785 118.545 93.6485 120.102C93.0721 120.686 92.4207 121.192 91.7113 121.605C89.6112 122.825 88.4602 123.434 86.3282 124.604C87.9576 124.598 89.5834 124.45 91.1872 124.162C93.3475 123.78 95.0828 122.334 97.2821 121.849C98.3008 121.598 99.3714 121.657 100.356 122.019C101.054 122.266 101.736 122.558 102.396 122.892C105.463 124.53 108.523 124.399 111.565 122.892C114.292 121.527 116.456 119.497 118.273 117.071C118.499 116.77 118.393 116.536 118.11 116.427C117.272 116.071 116.416 115.76 115.546 115.493C113.943 115.053 112.288 114.833 110.627 114.839C108.128 114.843 105.697 115.651 103.692 117.141C102.63 117.916 101.539 118.69 100.47 119.479C99.7612 120.006 99.0246 120.098 98.0648 119.723C98.1267 119.624 98.1978 119.53 98.2773 119.444C99.5487 118.319 100.845 117.233 102.07 116.073Z" fill="#1C1B1C"/>
<path d="M72.3781 112.918C73.286 112.614 74.1762 112.26 75.0449 111.857C78.682 110 81.5117 107.344 83.1479 103.535C84.3228 100.768 84.7573 97.7442 84.4087 94.7595C84.1475 91.8083 83.2614 88.9461 81.8092 86.3627C79.1495 81.7222 75.3176 78.3656 70.4763 76.1338C70.1339 75.9669 69.7622 75.8684 69.382 75.8438C69.0012 75.8688 68.6286 75.966 68.2841 76.1302C63.4322 78.3585 59.5968 81.708 56.9265 86.345C55.4687 88.9266 54.5744 91.787 54.3022 94.7383C53.9503 97.7221 54.3811 100.746 55.5524 103.513C57.1815 107.326 60.0076 109.986 63.6412 111.847C64.5078 112.251 65.397 112.605 66.3044 112.908C67.381 113.325 71.2803 113.329 72.3781 112.918ZM73.7947 83.9611C73.7947 83.9611 79.8614 95.2794 73.7947 107.39C73.7947 107.39 74.4818 100.465 74.4853 95.3325C74.4889 90.2003 73.8125 83.9611 73.8125 83.9611H73.7947ZM64.0556 107.383C57.9889 95.2723 64.0556 83.954 64.0556 83.954C64.0556 83.954 63.3933 90.1932 63.3933 95.3219C63.3933 100.45 64.0556 107.383 64.0556 107.383Z" fill="#1C1B1C"/>
<path d="M62.7169 113.073C62.7169 113.073 50.2259 128.611 46.5852 137.333C45.1969 140.665 43.5678 144.927 45.3173 148.086C46.6457 150.496 47.127 153.282 46.6844 155.998C45.7175 161.844 40.7771 166.099 36.1625 169.824C35.9713 166.256 35.7824 162.687 35.5959 159.117C35.4719 156.74 35.348 154.318 35.95 152.019C36.5521 149.72 38.1174 147.505 40.338 146.646C41.2269 138.896 43.3943 137.227 43.8299 134.419C38.7903 134.008 33.6445 137.146 31.7037 141.832C30.6908 144.266 30.4925 146.996 29.338 149.366C27.2131 153.699 22.4462 155.938 18.0228 157.855L3.50257 164.147C6.12566 156.795 8.73576 149.444 11.3329 142.094C12.0589 140.05 12.8168 137.956 14.2263 136.304C15.6358 134.652 17.4562 131.352 22.9987 131.907C25.545 132.162 25.5875 133.732 28.1445 133.584C33.4568 133.28 41.3508 131.907 45.7565 128.94C47.2191 125.916 59.4976 111.135 59.4976 111.135C59.4976 111.135 60.0997 111.57 61.0736 112.175C61.8208 112.642 62.7169 113.073 62.7169 113.073Z" fill="#1C1B1C"/>
<path d="M78.0623 79.1755C78.0623 79.1755 90.3337 63.9135 93.9743 55.1771C95.3626 51.8453 96.9917 47.5833 95.2422 44.4248C93.9138 42.0141 93.4325 39.2284 93.8752 36.5125C94.842 30.6659 99.7824 26.411 104.397 22.6865C104.588 26.2541 104.777 29.823 104.964 33.3929C105.091 35.7698 105.212 38.1926 104.61 40.4916C104.007 42.7907 102.442 45.0048 100.222 45.8643C99.3327 53.6138 97.1653 55.2833 96.7297 58.0916C101.783 58.5019 106.926 55.3646 108.87 50.6887C109.883 48.2553 110.081 45.5247 111.236 43.155C113.361 38.8257 118.128 36.5833 122.551 34.6662L137.071 28.374C134.458 35.7191 131.845 43.0666 129.234 50.4164C128.508 52.4607 127.75 54.5546 126.34 56.2064C124.931 57.8582 123.11 61.1582 117.568 60.6029C115.022 60.3482 114.979 58.7778 112.422 58.9263C107.11 59.2305 99.2158 60.6029 94.8101 63.5739C93.351 66.5839 80.7963 81.8035 80.7963 81.8035C80.4316 81.2577 79.9943 80.7639 79.4966 80.3356C78.8272 79.7662 78.0623 79.1755 78.0623 79.1755Z" fill="#1C1B1C"/>
<path d="M44.1203 35.5893C44.2012 35.6765 44.2736 35.7713 44.3363 35.8723C43.3766 36.2472 42.647 36.1553 41.9316 35.6283C40.8692 34.8395 39.7855 34.0649 38.7089 33.2903C36.7033 31.7998 34.271 30.9925 31.771 30.9877C30.1103 30.9822 28.4566 31.2023 26.8554 31.6421C25.9854 31.9084 25.1296 32.2188 24.2913 32.5723C24.008 32.6855 23.9017 32.926 24.1284 33.2196C25.9452 35.6459 28.1055 37.6762 30.8361 39.0414C33.8782 40.5588 36.9381 40.6897 40.0015 39.0414C40.6633 38.707 41.3459 38.4152 42.045 38.1678C43.0285 37.8061 44.098 37.747 45.1155 37.998C47.3006 38.4826 49.0537 39.9292 51.214 40.3112C52.8166 40.5987 54.4412 40.7466 56.0694 40.7533C53.9445 39.5826 52.79 38.9848 50.6863 37.754C49.9786 37.3396 49.3285 36.8342 48.7526 36.2508C47.2156 34.6945 46.9819 33.0675 47.931 31.108C48.2332 30.4855 48.5555 29.8712 48.8978 29.2652C49.6318 27.9918 50.0985 26.5825 50.2696 25.1231C50.4407 23.6637 50.3126 22.1848 49.893 20.7765C49.3795 18.909 48.3737 17.2855 47.2439 15.7328C46.8898 15.2624 46.5356 14.8026 46.1567 14.3604C45.8911 14.0457 45.6078 13.9785 45.3067 14.3604C45.0057 14.7424 44.7153 15.0183 44.4213 15.3508C42.3991 17.6534 41.1631 20.3026 41.0675 23.3903C41.0038 25.4559 41.3863 27.4083 42.5833 29.1414C43.3093 30.2025 44.0566 31.2318 44.772 32.2964C45.1261 32.8022 45.4023 33.3575 45.6927 33.8881C45.7524 34.0494 45.7882 34.2186 45.799 34.3903L45.6857 34.4646C45.3917 34.2921 45.1101 34.0995 44.8428 33.8881C43.7591 32.9012 42.6258 31.9498 41.6271 30.8746C40.7667 29.9745 40.1136 28.8975 39.7135 27.719C39.3135 26.5404 39.1761 25.2888 39.3109 24.0517C39.5376 21.9764 39.5269 19.882 39.279 17.809C38.937 15.3123 37.8974 12.9623 36.2794 11.0286C34.459 8.82509 32.1393 7.29358 29.5505 6.12638C27.4442 5.22915 25.2259 4.62116 22.9562 4.31899C22.602 4.25886 22.432 4.34374 22.5276 4.77172C22.6293 5.28131 22.7026 5.79614 22.7472 6.31384C23.0128 8.673 22.7118 11.018 22.5206 13.3595C22.347 15.4817 22.2656 17.5862 22.7543 19.6765C23.4626 22.7325 24.9748 25.2685 27.7337 26.9132C29.5789 28.0249 31.6025 28.8099 33.7153 29.2334C34.3953 29.3678 35.0717 29.5234 35.7552 29.6366C37.6004 29.9443 39.017 30.9736 40.338 32.2222C41.5669 33.3823 42.8524 34.4681 44.1203 35.5893Z" fill="#1C1B1C"/>
</svg>
