<svg width="125" height="191" viewBox="0 0 125 191" fill="none" xmlns="http://www.w3.org/2000/svg">
<path d="M33.0124 52.2917C32.8589 51.167 32.6889 50.0423 32.5479 48.9135C32.1333 45.4688 31.6771 42.0241 31.3039 38.5753C30.8312 34.4252 30.3336 30.3082 28.7246 26.4443C27.9948 24.6805 26.7259 23.2528 24.7396 22.676C23.9102 22.4394 23.1514 22.4643 22.4962 23.0163C21.841 23.5683 21.9944 24.2613 22.1603 24.971C22.2186 25.2107 22.2963 25.4453 22.3925 25.6724C23.0477 27.2412 22.3925 28.2538 20.6758 28.204C18.0633 28.1335 16.1724 26.8096 14.9283 24.5685C13.3443 21.6633 14.099 17.5754 16.641 15.0479C19.5437 12.1801 23.0187 10.8023 27.124 11.4912C28.7282 11.751 30.2584 12.3508 31.6122 13.2505C32.966 14.1502 34.1121 15.329 34.9738 16.708C36.9808 19.7418 37.5365 23.1989 37.636 26.7473C37.6858 28.5609 37.636 30.3746 37.636 32.1924C37.7148 32.1924 37.806 32.1924 37.8143 32.1467C39.3942 28.3036 41.0529 24.4855 41.7081 20.3353C42.0772 17.9863 42.3384 15.6123 41.5257 13.2799C41.2302 12.3445 40.7278 11.4878 40.0558 10.7735C39.3838 10.0593 38.5595 9.50595 37.6443 9.15465C35.9856 8.49062 35.5709 7.24142 36.6035 5.7598C38.6395 2.80071 41.6086 2.02463 44.9633 2.43965C50.5905 3.10783 52.8422 7.46968 52.5685 12.7612C52.5685 13.0558 52.5353 13.3463 52.5104 13.7987C54.0573 12.3929 55.8383 11.2691 57.7727 10.4786C63.0971 8.18351 68.1396 10.9475 70.4576 15.1641C71.938 17.8659 71.2248 21.8044 68.9358 23.9459C68.4133 24.4315 67.8078 24.3983 67.613 23.755C66.9246 21.4973 63.2879 20.1361 61.2062 20.7005C59.2354 21.2133 57.3058 21.8737 55.4339 22.676C49.815 25.1661 45.9668 29.6192 42.5789 34.5538C42.2899 34.9988 42.0834 35.4922 41.9694 36.0105C42.5831 35.3299 43.1802 34.6327 43.8147 33.9728C46.8501 30.8228 50.5324 28.9926 54.9239 28.9096C58.3988 28.839 63.1925 31.8686 62.5166 36.8862C62.38 37.7815 62.0573 38.6381 61.5695 39.4008C61.0817 40.1636 60.4395 40.8155 59.6843 41.3145C59.5491 41.4327 59.3909 41.5217 59.2197 41.576C59.0485 41.6303 58.8679 41.6487 58.6893 41.63C58.5107 41.6113 58.3378 41.5559 58.1815 41.4674C58.0252 41.3788 57.8889 41.2589 57.781 41.1153C55.8196 38.4508 53.1656 38.7497 50.491 39.4552C47.0616 40.335 44.9011 42.8127 43.2134 45.7386C41.0363 49.5111 39.896 53.5658 40.5844 57.9277C40.9368 60.1439 41.704 62.2937 42.2928 64.4725C42.3177 64.5597 42.438 64.6261 42.4462 64.6344C42.4794 63.3893 42.3384 62.0488 42.5789 60.8038C42.9563 58.8366 43.7069 56.969 45.5771 55.8816C46.933 55.0972 48.3388 55.1761 49.164 55.9646C49.9892 56.7532 50.3334 58.5793 49.7404 59.8036C48.2497 62.8755 47.8264 66.3576 48.5378 69.6976C49.0977 72.499 50.0556 75.2257 50.9305 77.9523C51.2374 78.911 51.1959 79.6124 50.4371 80.3179C49.2386 81.4551 48.0817 82.6006 46.5059 83.2521C45.7802 83.5509 45.4278 83.3351 45.0007 82.7832C43.6115 81.0069 42.2638 79.1891 40.7461 77.5249C38.1212 74.6488 35.1562 72.1296 31.4781 70.7144C29.4421 69.9981 27.3364 69.4987 25.1957 69.2245C23.6365 68.9879 22.1976 69.6644 20.9868 70.6854C19.9127 71.5901 19.6556 72.9721 20.2694 74.4205C20.4891 74.9476 20.7753 75.5535 20.1864 75.8938C19.7069 76.1615 19.1438 76.2371 18.6107 76.1055C16.952 75.5494 15.1896 75.0929 14.1487 73.4535C13.4458 72.4332 13.0356 71.2397 12.9625 70.0025C12.8894 68.7653 13.1562 67.5317 13.7341 66.4356C15.2684 63.2026 17.9928 61.6006 21.277 60.9739C22.7408 60.6959 24.3871 60.9739 25.8633 61.3225C27.5475 61.769 29.1783 62.3966 30.7275 63.1943C31.8679 63.7628 32.8506 64.651 33.8915 65.3856C33.9203 65.2827 33.9084 65.1727 33.8583 65.0784C32.2825 62.5883 30.798 60.0069 29.0771 57.6081C27.4935 55.4094 25.7704 53.3148 23.9185 51.3372C22.0125 49.2228 19.4104 47.8647 16.587 47.5107C13.9456 47.1828 12.1624 49.5111 11.9261 51.1172C11.7727 52.1672 12.1334 52.7773 13.0125 53.321C13.3567 53.5368 13.7755 54.0057 13.7507 54.3253C13.704 54.5495 13.6079 54.7605 13.4695 54.9429C13.331 55.1252 13.1537 55.2744 12.9503 55.3795C10.3793 56.5457 6.38601 55.67 4.29604 52.7109C-0.203197 46.3403 3.80672 38.8036 9.37582 36.8364C13.8087 35.2759 17.802 36.0064 21.7622 38.1354C25.374 40.0819 27.6713 43.2651 29.7489 46.6226C30.7731 48.2826 31.5278 50.0921 32.4069 51.831C32.5023 52.0137 32.6018 52.1963 32.7014 52.3747L33.0124 52.2917Z" fill="#CE433A"/>
<path d="M69.2012 167.469C69.7237 167.701 70.2088 167.884 70.6816 168.129C73.8207 169.648 76.5658 171.698 78.2245 174.811C79.9703 178.093 79.9247 183.049 77.1961 186.319C76.6558 187.006 75.9751 187.57 75.1996 187.972C74.424 188.375 73.5715 188.607 72.6991 188.653C71.8267 188.699 70.9545 188.557 70.141 188.239C69.3275 187.92 68.5914 187.431 67.982 186.805C67.4971 186.392 67.0715 185.914 66.7172 185.385C66.1865 184.435 66.7172 183.613 67.8037 183.555C69.5578 183.46 70.7064 182.14 70.6484 180.376C70.5737 177.433 69.1846 175.147 67.1858 173.138C63.8684 169.818 59.7673 168.071 55.3137 167.008C53.0661 166.473 50.7812 166.07 48.5005 165.676C47.5509 165.51 47.6214 164.672 47.6712 164.219C47.8576 162.622 48.1696 161.041 48.6042 159.492C48.7079 159.115 49.3755 158.72 49.8482 158.641C53.7959 157.948 57.7271 157.152 61.2684 155.205C62.799 154.328 64.2552 153.328 65.6225 152.213C66.3689 151.623 66.8665 150.715 67.5715 150.063C68.4008 149.316 69.3297 148.859 70.4742 149.461C71.6187 150.063 72.1537 151.009 72.1993 152.333C72.2822 154.761 70.6525 156.164 69.1307 157.596C68.4382 158.243 67.4968 158.633 66.6426 159.131C66.3022 159.285 66.0047 159.52 65.7759 159.816C66.6965 159.642 67.6171 159.467 68.5377 159.285C71.5855 158.683 74.5795 157.865 76.9846 155.799C80.5508 152.736 83.578 149.229 84.5483 144.448C84.8178 143.109 84.7997 141.729 84.4951 140.398C84.1906 139.067 83.6065 137.816 82.7818 136.728C81.9939 135.624 80.7084 135.284 79.5059 134.84C78.4401 134.425 78.1872 134.11 78.3697 132.997C78.7843 130.549 79.9537 128.66 82.3547 127.727C84.7557 126.793 86.8788 127.453 88.8817 128.876C92.0083 131.105 92.8377 134.375 93.0285 137.932C93.1814 140.535 92.654 143.132 91.4983 145.469C91.4626 145.553 91.4511 145.645 91.465 145.735C91.4789 145.825 91.5177 145.91 91.5771 145.979C91.9918 145.294 92.4479 144.63 92.8211 143.925C95.4833 138.828 97.2747 133.504 97.0135 127.652C96.8891 124.892 96.3832 122.257 94.3679 120.153C93.1238 118.87 91.9088 117.7 89.9101 118.036C89.3213 118.136 89.0268 117.567 89.2673 116.978C91.5315 111.371 96.2671 110.582 100.878 112.641C104.826 114.396 106.75 117.646 106.684 121.983C106.655 123.514 106.398 125.037 106.24 126.598C107.107 126.125 107.982 125.598 108.902 125.158C113.397 123.016 118.299 124.772 120.434 129.283C121.571 131.686 122.168 134.151 120.774 136.641C120.36 137.284 119.802 137.821 119.145 138.21C118.548 138.592 117.921 138.281 117.42 137.795C115.384 135.873 113.003 135.824 110.507 136.575C108.62 137.143 107.032 138.285 105.373 139.318C102.371 141.186 100.555 144.17 98.1704 146.614C97.6046 147.178 97.1315 147.828 96.7688 148.54C96.9386 148.469 97.1047 148.39 97.2664 148.303C100.974 146.087 104.793 144.153 109.139 143.535C113.887 142.871 119.248 145.68 121.467 149.943C123.81 154.446 122.508 160.779 118.672 163.559C117.39 164.544 115.812 165.067 114.196 165.044C112.58 165.021 111.018 164.452 109.765 163.431C109.053 162.809 108.486 162.039 108.106 161.173C107.555 159.99 108.16 159.144 109.437 159.044C109.769 159.033 110.098 158.986 110.42 158.903C112.195 158.33 112.593 156.367 111.187 155.13C110.567 154.568 109.84 154.137 109.048 153.864C108.257 153.592 107.419 153.483 106.584 153.545C104.138 153.669 101.836 154.346 99.5347 155.101C97.1303 155.829 94.7756 156.712 92.4852 157.745C89.035 159.428 85.4225 160.754 81.7036 161.704C81.5336 161.75 81.4051 161.945 81.2558 162.069L81.3636 162.269C81.9566 162.211 82.5496 162.123 83.1426 162.103C87.8447 161.894 92.54 162.646 96.943 164.311C100.149 165.492 102.833 167.773 104.519 170.748C106.845 174.786 106.916 179.069 104.457 183.103C102.035 187.066 97.9672 188.631 93.4763 187.556C90.5528 186.854 88.6785 184.85 88.2182 181.77C88.187 181.528 88.2079 181.281 88.2794 181.047C88.3509 180.813 88.4714 180.597 88.6329 180.413C88.8817 180.193 89.5576 180.289 89.9557 180.455C91.3905 181.057 91.7678 181.032 92.6843 179.812C94.1108 177.907 94.343 176.325 93.1404 174.254C91.5978 171.598 89.1305 170.386 86.4061 169.61C81.7534 168.282 76.9597 167.764 72.1454 167.444C71.2331 167.386 70.3249 167.303 69.4168 167.236C69.3878 167.253 69.3463 167.328 69.2012 167.469Z" fill="#CE433A"/>
</svg>
