<svg id="Layer_1" data-name="Layer 1" xmlns="http://www.w3.org/2000/svg" viewBox="0 0 313.83 241.73"><defs><style>.cls-1{fill:#ce433a;}</style></defs><path class="cls-1" d="M303.81,203.13a39.55,39.55,0,0,1-3.69-25.5c.6-3.42,2.07-6.55,3.39-9.8a8.72,8.72,0,0,0-4-.16h0c-1.33,0-2.65-.08-4-.08-36.23,0-126.6,0-162.82,0-22.23,0-97.59.05-119.81.08-2.52.36-1.14,1.89-.7,2.82A33.38,33.38,0,0,1,15.69,184a40.58,40.58,0,0,1-4.35,18.81c-1.22,2.61-.3,3,1.95,2.72,5.66-.65,64.47-.33,70.14-.5,5.19-.16,10.39.15,15.56-.51h36.12c3.44.67,6.91.41,10.38.41h0l22,0h0a30.59,30.59,0,0,0,8.7-.38h0l34.4,0a10.67,10.67,0,0,0,1.65.32c12,.5,78.1-.25,90.06.73C304.57,205.77,304.68,204.84,303.81,203.13ZM158.6,198.31c-.47.89-.83,2.29-1.81,2.3-1.24,0-1.54-1.52-1.94-2.49a22.35,22.35,0,0,1-1.19-14.88c.53-1.89,1.07-3.79,1.74-5.64.22-.62.33-1.65,1.29-1.61.73,0,1,.83,1.2,1.43,1.52,3.84,3.05,7.69,2.83,12.09A16.81,16.81,0,0,1,158.6,198.31ZM84.1,181.5c3.22-3.58,7.63-4.35,12.06-4.74a41.91,41.91,0,0,1,24,4.78,34.8,34.8,0,0,0,7,3c5.65,1.59,8.54.77,15-3.78a9.14,9.14,0,0,1-2.32,7.3c-4.18,5-11.28,6.68-18.36,4-3.87-1.45-7.59-3.29-11.34-5A23.91,23.91,0,0,0,98,184.47a8,8,0,0,0-3.72,1.19,3.43,3.43,0,0,0-1.65,3.63,2.87,2.87,0,0,0,2.7,2.77c1.19.12,2.06.65.75,1.68-2.51,2-5.32,3.3-8.64,2.45C80.85,194.52,79.17,187,84.1,181.5Zm138.83,14.87a13.2,13.2,0,0,1-5.12-2.31,1.46,1.46,0,0,1-.76-1.42c.1-.67.65-.56,1.09-.57a2.68,2.68,0,0,0,2.86-2.55,3.75,3.75,0,0,0-2.21-3.94c-3-1.7-6.22-1.29-9.38-.68-5.07,1-9.47,3.62-14.06,5.79A22.45,22.45,0,0,1,183,193.12c-6.16-.71-11.55-6.4-11.25-12.69,6.28,6.78,13,5.53,19.9,2.14,5.08-2.5,10.19-5,15.92-5.58,5.47-.58,10.93-.64,16.29.93,4.53,1.33,7.09,4.52,8.21,8.92C233.45,192.1,228.36,197.34,222.93,196.37Z"/></svg>