<svg width="80" height="79" viewBox="0 0 80 79" fill="none" xmlns="http://www.w3.org/2000/svg">
<path d="M1.61416 62.1799C1.75551 61.8232 1.94869 61.4894 2.18744 61.1892C3.71167 58.8384 5.78446 57.0236 7.97414 55.3348C11.5554 52.5946 15.1412 49.8565 17.9851 46.2921C20.2829 43.4798 21.6597 40.0267 21.9283 36.4028C22.1532 33.3585 21.6428 30.4043 20.8178 27.4884C20.3367 25.7861 19.5251 24.246 18.6258 22.7419C18.2077 22.0416 18.401 21.7173 19.2081 21.6948C20.7365 21.6691 22.2299 22.1539 23.4526 23.0728C26.3549 25.1489 27.5374 28.1188 27.6678 31.5819C27.7735 34.4551 27.0136 37.1548 25.9682 39.7938C25.8671 40.046 25.5433 41.5298 25.5433 41.5298C26.6809 41.1268 28.7852 40.0797 31.0693 38.8751L31.0333 38.9156C32.4991 38.2131 33.866 37.4228 35.271 36.7112C37.4877 35.5854 39.7808 34.6352 42.3077 34.5879C46.5792 34.5091 49.8345 36.45 52.2535 39.8906C52.5793 40.3222 52.8143 40.8155 52.9441 41.3407C53.074 41.866 53.096 42.4121 53.0088 42.9461C52.6851 42.8178 52.3884 42.721 52.1096 42.5881C50.5252 41.7961 48.8149 41.2871 47.0558 41.084C44.6771 40.8029 42.2695 40.8856 39.9157 41.3294C33.9401 42.4125 28.5154 44.8533 23.3941 48.0439C23.1129 48.2448 22.8462 48.4652 22.596 48.7037C22.9824 48.6724 23.3616 48.5812 23.7201 48.4335C26.4538 47.5328 29.2303 46.8303 32.1191 46.6006C34.0323 46.4475 35.941 46.4317 37.7395 47.1252C42.011 48.7712 44.7087 51.7502 45.2977 56.4292C45.3018 56.702 45.2769 56.9744 45.2235 57.242C44.9327 57.1661 44.652 57.0557 44.3872 56.9133C43.5419 56.3368 42.7506 55.6793 41.8873 55.1322C39.1895 53.4119 36.267 52.1442 33.0903 51.6714C30.0795 51.2494 27.0169 51.3852 24.0551 52.0722C23.8123 52.1262 23.574 52.1938 23.3334 52.2568C23.8887 52.4392 24.4215 52.482 24.9341 52.6058C29.3809 53.7159 32.2765 57.2037 32.906 61.7544C32.9577 62.1394 32.8723 62.547 32.8408 63.1054C31.3443 61.6247 29.685 60.3187 27.8949 59.2122C23.5695 56.526 18.9383 55.6906 13.9767 56.8885C11.5869 57.4649 9.4804 58.6673 7.39862 59.9418C5.72825 60.9663 4.02641 61.957 2.34256 62.9455C2.14023 63.0214 1.92678 63.0632 1.71083 63.0693C1.67261 62.7766 1.53548 62.4456 1.61416 62.1799Z" fill="white"/>
</svg>
