<svg width="150" height="153" viewBox="0 0 150 153" fill="none" xmlns="http://www.w3.org/2000/svg">
<path d="M107.255 149.425C107.068 148.962 106.816 148.528 106.507 148.135C104.522 145.075 101.838 142.714 98.9747 140.509C94.3158 136.956 89.6475 133.381 85.9464 128.742C82.956 125.08 81.1633 120.584 80.8118 115.866C80.4946 111.904 81.1829 108.055 82.258 104.258C82.8923 102.034 83.9388 100.041 85.1123 98.0808C85.6546 97.1688 85.4072 96.7462 84.3543 96.7176C82.3657 96.6837 80.4223 97.313 78.8296 98.5066C75.0524 101.208 73.5143 105.075 73.3462 109.584C73.2067 113.324 74.1962 116.838 75.5662 120.273C75.6963 120.591 76.118 122.536 76.118 122.536C74.637 122.008 71.8969 120.645 68.9284 119.079C68.9449 119.095 68.9597 119.113 68.9728 119.133C67.0699 118.217 65.2876 117.188 63.4576 116.273C60.5748 114.814 57.5904 113.569 54.3017 113.508C48.7389 113.403 44.5051 115.93 41.359 120.41C40.9345 120.972 40.6283 121.614 40.4587 122.298C40.2892 122.982 40.2599 123.693 40.3727 124.388C40.7945 124.22 41.1845 124.102 41.5397 123.921C43.6022 122.891 45.828 122.229 48.1173 121.964C51.2118 121.596 54.3443 121.703 57.4065 122.282C65.1861 123.689 72.2457 126.87 78.9121 131.023C79.277 131.285 79.6235 131.572 79.9492 131.881C79.4466 131.84 78.9534 131.721 78.4871 131.529C74.9526 130.29 71.2804 129.489 67.552 129.142C65.0592 128.945 62.5823 128.923 60.2386 129.825C54.6791 131.967 51.1588 135.847 50.4071 141.939C50.4009 142.294 50.4339 142.649 50.5054 142.997C50.8831 142.897 51.2481 142.754 51.5932 142.571C52.6906 141.818 53.7213 140.963 54.844 140.251C58.3548 138.011 62.1605 136.359 66.2834 135.745C70.202 135.195 74.1882 135.372 78.0431 136.266C78.3603 136.336 78.6774 136.425 78.9946 136.505C78.2715 136.743 77.5769 136.797 76.9109 136.962C71.1262 138.408 67.3553 142.946 66.5371 148.872C66.4673 149.374 66.5815 149.902 66.6227 150.642C68.5701 148.71 70.7287 147.005 73.0576 145.558C78.6869 142.062 84.7127 140.976 91.1697 142.536C94.2809 143.286 97.0306 144.849 99.7327 146.511C101.908 147.846 104.109 149.136 106.31 150.423C106.575 150.52 106.853 150.573 107.135 150.582C107.176 150.2 107.357 149.771 107.255 149.425Z" fill="#80CCE8"/>
<path d="M42.7479 3.57812C42.9344 4.04021 43.1853 4.4735 43.4931 4.86507C45.4785 7.92831 48.1615 10.2893 51.0253 12.4914C55.6874 16.0535 60.3526 19.6188 64.0632 24.2582C67.0528 27.9203 68.8444 32.4159 69.1946 37.134C69.5117 41.0965 68.8235 44.9446 67.7516 48.7419C67.1173 50.9662 66.0675 52.9618 64.8973 54.9224C64.3518 55.8312 64.6023 56.2538 65.6521 56.2824C67.6413 56.3173 69.5854 55.6867 71.1767 54.4902C74.9539 51.786 76.4952 47.9189 76.6633 43.4098C76.8029 39.6729 75.8134 36.1552 74.4433 32.7202C74.3133 32.4025 73.8883 30.4609 73.8883 30.4609C75.3694 30.9852 78.1095 32.3484 81.0812 33.9182L81.0336 33.861C82.9365 34.7762 84.7188 35.8057 86.5487 36.7209C89.4348 38.1794 92.4191 39.425 95.7047 39.4854C101.271 39.5903 105.504 37.0641 108.651 32.5868C109.074 32.0245 109.38 31.3822 109.549 30.6984C109.718 30.0146 109.747 29.3036 109.634 28.6084C109.212 28.7736 108.825 28.8912 108.467 29.0723C106.406 30.1034 104.181 30.7659 101.892 31.0297C98.7966 31.3961 95.6634 31.289 92.5999 30.712C84.8235 29.3011 77.7606 26.1234 71.0974 21.9703C70.7326 21.7083 70.3861 21.4217 70.0604 21.1123C70.563 21.1515 71.0563 21.2695 71.5224 21.4619C75.0564 22.7039 78.7287 23.5086 82.4576 23.8578C84.9503 24.058 87.4272 24.0771 89.7709 23.1746C95.3336 21.0329 98.854 17.1371 99.6024 11.0615C99.6097 10.7063 99.5778 10.3514 99.5073 10.0033C99.1295 10.1042 98.7645 10.2481 98.4195 10.4323C97.319 11.1822 96.2883 12.037 95.1656 12.752C91.6548 14.989 87.849 16.6414 83.7261 17.2547C79.8087 17.8077 75.823 17.631 71.9696 16.7335C71.6524 16.6636 71.3353 16.5747 71.0181 16.4952C71.7412 16.2569 72.4358 16.206 73.1018 16.0376C78.8897 14.595 82.6605 10.0541 83.4756 4.13103C83.5454 3.62579 83.4312 3.0983 83.3931 2.35791C81.4453 4.29042 79.2856 5.996 76.9551 7.44213C71.3258 10.9375 65.3 12.0243 58.843 10.4641C55.7318 9.71414 52.9821 8.15074 50.28 6.49201C48.1076 5.15423 45.9066 3.86411 43.7025 2.58034C43.4392 2.48234 43.1618 2.42762 42.8811 2.41829C42.8145 2.7996 42.6464 3.22858 42.7479 3.57812Z" fill="#80CCE8"/>
<path d="M89.7077 78.9515C89.7252 77.9775 89.6605 77.0038 89.5142 76.0408C89.0619 72.773 87.6105 69.7259 85.3596 67.3182C83.8332 65.6614 81.9366 64.3906 79.8254 63.6099C75.3347 70.9407 70.5268 63.6416 70.5046 63.6099L69.0647 64.1246C66.5043 65.2823 64.3522 67.1872 62.8899 69.5902C61.1705 72.2607 60.2677 75.3765 60.2925 78.5543V78.5734C60.2999 79.1778 60.3401 79.7814 60.413 80.3814C60.8887 84.255 62.633 87.5629 65.3129 90.3624C67.9882 93.0927 71.2298 95.2005 74.8082 96.5365C74.998 96.5954 75.2024 96.5853 75.3854 96.5079C78.893 94.9986 82.1755 93.1365 84.7919 90.2861C87.8238 86.9877 89.6093 83.2604 89.7077 78.9801V78.961V78.9515ZM74.9731 83.1936C71.6938 83.1936 62.5474 78.7449 62.5474 78.7449C62.5474 78.7449 70.3714 80.9343 75.0017 80.9343C79.632 80.9343 87.3989 78.7449 87.3989 78.7449C87.3989 78.7449 78.2524 83.1936 74.9731 83.1936Z" fill="#80CCE8"/>
</svg>
