<svg id="Layer_1" data-name="Layer 1" xmlns="http://www.w3.org/2000/svg" viewBox="0 0 382.88 463.47"><defs><style>.cls-1{fill:#d86f3a;}</style></defs><path class="cls-1" d="M229.38,92.72c-.36,0-.72.16-1.08.22-8.59,1.32-15.38,5.86-21.32,11.93-1.34,1.37-2.8,2.63-4.27,3.86-.45.38-1.09.91-1.7.56-.79-.44-.18-1.13,0-1.7.84-3.26,1.52-6.58,2.58-9.76,5-14.91,7.23-30.11,5.31-45.81-1.68-13.76-6-26.6-13.69-38.18-4-6-4.39-6.17-8.36-.13-13.1,19.9-16.78,41.83-13.42,65.15,1.24,8.6,4.27,16.74,6.51,25.08.49,1.83,1.43,3.67.22,6a41.44,41.44,0,0,1-3.55-3.73c-6.54-6.58-13.83-11.82-23.32-13.32-5.28-.83-6.35.1-5.28,5.35,0,.18.14.35.17.52,2,12.54,8.69,22.34,18,30.45,9.9,8.61,19.5,17.39,24.75,30,4.68-10,11.5-18,19.23-25.36,4.78-4.53,9.86-8.73,14-14,5.24-6.68,8.14-14.37,9.88-22.54C234.79,93.53,233.37,92.22,229.38,92.72Z"/><path class="cls-1" d="M284.22,320.1a12.25,12.25,0,0,0-3.59-1.16c-12.54-.95-24.81-.18-36.13,6.15h0l-7.27,3.85c1.69-2.94,3-5.33,4.4-7.64,7.37-12,8.54-25.14,6.26-38.68-3.65-21.59-14-40.39-25.29-58.68A372.07,372.07,0,0,0,196,185.79c-3.91-4.85-4.71-5-8.64-.22-17.61,21.64-33.41,44.48-44.76,70.13a2.37,2.37,0,0,0-.08.76h0c-4.36,8.21-6.65,17.07-8.14,26.16-2,12.23-1.63,24.15,4.59,35.31h0l5.45,10.91c-6.46-3.72-12.16-7.54-19-8.85-8.2-1.56-16.5-1.43-24.78-1.18-1.46.05-3.22.32-3.93,1.9s.49,2.76,1.52,4c7.55,8.69,10.05,19.19,10.53,30.33.38,8.77-.71,17.51-.08,26.34,1.65,23.19,12,41.41,30.16,55.44,3.38,2.61,7,5,11,7.83a98.34,98.34,0,0,0,41.37,9.63c22.45,0,41-9.32,41-9.32a114.45,114.45,0,0,0,17.94-13.85c13.85-13.21,22.26-29,23.64-48.39a187.66,187.66,0,0,0,.16-22.12c-.51-11.23,1.19-22.05,7.15-31.87,1.34-1.68,2.64-3.4,4-5.05S286.07,320.86,284.22,320.1Zm-33.05,42.07c-2.43,11.4-6.48,22.13-13.78,31.44-5.71,7.29-12.8,13.16-19.46,19.47-10.78,10.23-20.3,21.43-26.81,35.37-7.32-17.65-20.72-29.89-34.52-41.9-13-11.31-22.37-25-25.12-42.46,0-.25-.18-.48-.23-.72-1.49-7.33,0-8.63,7.36-7.47,13.24,2.1,23.4,9.4,32.52,18.57,1.67,1.68,3,3.68,5,5.21,1.69-3.31.38-5.88-.3-8.42-3.13-11.63-7.35-23-9.08-35-4.69-32.53.44-63.11,18.7-90.87,5.55-8.41,6-8.23,11.66.19,10.79,16.15,16.76,34.05,19.1,53.24,2.67,21.9-.46,43.1-7.4,63.89-1.49,4.44-2.43,9.06-3.6,13.6-.2.8-1,1.77.05,2.38.86.48,1.75-.25,2.38-.78,2-1.72,4.07-3.48,5.94-5.39,8.29-8.46,17.76-14.79,29.74-16.64.5-.08,1-.23,1.5-.3C250.34,354.91,252.32,356.74,251.17,362.17Z"/></svg>