<svg width="85" height="103" viewBox="0 0 85 103" fill="none" xmlns="http://www.w3.org/2000/svg">
<path d="M50.9227 20.6056C50.8428 20.6056 50.7629 20.6412 50.683 20.6545C48.776 20.9479 47.2686 21.9568 45.9499 23.3058C45.6524 23.6103 45.3283 23.8903 45.002 24.1636C44.9021 24.2481 44.76 24.3659 44.6246 24.2881C44.4492 24.1903 44.5846 24.037 44.6246 23.9103C44.811 23.1858 44.962 22.448 45.1973 21.7413C46.3073 18.4277 46.8024 15.0497 46.3761 11.5606C46.0032 8.50263 45.0441 5.64912 43.3369 3.07562C42.4489 1.7422 42.3624 1.70442 41.481 3.04673C38.5728 7.46923 37.7558 12.3429 38.5017 17.5254C38.777 19.4367 39.4497 21.2457 39.947 23.0991C40.0558 23.5058 40.2644 23.9147 39.9958 24.4326C39.7162 24.1729 39.453 23.896 39.2077 23.6036C37.7558 22.1413 36.1374 20.9768 34.0306 20.6434C32.8585 20.459 32.6209 20.6656 32.8585 21.8324C32.8585 21.8724 32.8895 21.9102 32.8962 21.948C33.3402 24.7348 34.8254 26.9127 36.8922 28.7151C39.0901 30.6285 41.2213 32.5798 42.3868 35.3822C43.4257 33.1598 44.9398 31.3819 46.6559 29.7462C47.717 28.7395 48.8448 27.8061 49.7639 26.6349C50.9272 25.1504 51.571 23.4414 51.9573 21.6257C52.1238 20.7857 51.8085 20.4945 50.9227 20.6056Z" fill="#AA5C9D"/>
<path d="M63.0974 71.1378C62.8466 71.0112 62.5778 70.9242 62.3004 70.88C59.5165 70.6689 56.7925 70.84 54.2795 72.2468L52.6655 73.1024C53.0407 72.449 53.3315 71.9179 53.6423 71.4045C55.2785 68.7376 55.5382 65.8175 55.0321 62.8084C54.2218 58.0103 51.924 53.8322 49.4176 49.7675C47.6278 46.8209 45.6555 43.9893 43.5124 41.2892C42.6444 40.2114 42.4668 40.178 41.5943 41.2403C37.6848 46.0495 34.1772 51.1254 31.6575 56.8258C31.6425 56.8807 31.6365 56.9378 31.6397 56.9947C30.6718 58.8192 30.1634 60.7882 29.8326 62.8084C29.3886 65.5263 29.4708 68.1754 30.8516 70.6556L32.0615 73.0802C30.6274 72.2534 29.362 71.4045 27.8435 71.1134C26.0231 70.7667 24.1805 70.7956 22.3423 70.8511C22.0182 70.8622 21.6275 70.9222 21.4698 71.2734C21.3122 71.6245 21.5786 71.8867 21.8073 72.1623C23.4834 74.0936 24.0384 76.427 24.145 78.9028C24.2293 80.8518 23.9873 82.7941 24.1272 84.7565C24.4935 89.9101 26.7912 93.9593 30.8228 97.0773C31.5731 97.6573 32.3768 98.1884 33.2648 98.8174C36.1339 100.192 39.2684 100.922 42.449 100.958C47.4329 100.958 51.5511 98.8863 51.5511 98.8863C52.9771 97.9947 54.3112 96.9637 55.5338 95.8083C58.6085 92.8725 60.4755 89.3634 60.7819 85.0543C60.8903 83.4178 60.9022 81.7763 60.8174 80.1384C60.7042 77.6427 61.0816 75.2381 62.4047 73.0557C62.7022 72.6824 62.9908 72.3001 63.2927 71.9334C63.5947 71.5667 63.5081 71.3067 63.0974 71.1378ZM55.7602 80.4873C55.2208 83.0208 54.3217 85.4054 52.701 87.4744C51.4334 89.0945 49.8594 90.3991 48.3809 91.8014C45.9877 94.0748 43.8743 96.5639 42.429 99.6619C40.804 95.7394 37.8291 93.0192 34.7655 90.3502C31.8795 87.8367 29.7993 84.7942 29.1888 80.914C29.1888 80.8584 29.1489 80.8073 29.1378 80.754C28.807 79.125 29.1378 78.8361 30.7717 79.0939C33.711 79.5606 35.9666 81.1829 37.9912 83.2208C38.362 83.5942 38.6572 84.0386 39.1012 84.3787C39.4764 83.6431 39.1856 83.0719 39.0346 82.5074C38.3397 79.9228 37.4029 77.396 37.0188 74.7292C35.9777 67.4998 37.1165 60.7038 41.1703 54.5345C42.4024 52.6655 42.5023 52.7055 43.7588 54.5767C46.1542 58.1659 47.4796 62.1439 47.999 66.4086C48.5918 71.2756 47.8969 75.987 46.3562 80.6073C46.0254 81.594 45.8168 82.6208 45.557 83.6297C45.5126 83.8075 45.335 84.0231 45.5681 84.1587C45.759 84.2653 45.9566 84.1031 46.0965 83.9853C46.5405 83.6031 47 83.2119 47.4152 82.7874C49.2556 80.9073 51.3579 79.5006 54.0175 79.0894C54.1285 79.0717 54.2395 79.0383 54.3505 79.0228C55.576 78.8739 56.0155 79.2806 55.7602 80.4873Z" fill="#AA5C9D"/>
</svg>
