<svg id="Layer_1" data-name="Layer 1" xmlns="http://www.w3.org/2000/svg" viewBox="0 0 554.22 517.66"><defs><style>.cls-1{fill:#fff;}</style></defs><path class="cls-1" d="M142.23,344.52c1.24-.56,1.39-1.69,1.29-2.81a77.44,77.44,0,0,0-12.44-35.1c-6.72-10.45-15.64-18.61-24.73-26.73-7.33-6.56-14.19-13.59-18.86-22.31A62.11,62.11,0,0,1,80,221.25c.44-4.23,1.21-8.43,2-12.61.25-1.27-.06-3.39,1.87-3.5a5.49,5.49,0,0,1,4.77,2.34c2.35,3.25,4.68,6.52,7,9.77,8.56,11.86,17.23,23.63,25.63,35.6,4.29,6.11,8.18,12.5,11.86,19,6.29,11.15,10.52,23.08,13.7,35.35,3.07,11.8,4.49,23.94,5.31,36.11.86,12.72.88,25.44-2.29,37.92-2.19-2.85-12.73-20.55-16.55-26.59-6.17-9.76-14-17.76-24.41-23C98.83,326.62,88,324,77,322c-9.06-1.68-18.09-3.47-26.42-7.75-6.91-3.56-12-8.62-13.12-16.55s3.27-13.07,9.28-17.21c9-6.22,18.62-5.43,28.2-1.84,9.91,3.71,18.54,9.73,26.82,16.18,10.36,8,20.12,16.75,27.75,27.57,3.62,5.14,7.17,10.32,9.54,16.2A22.18,22.18,0,0,0,142.23,344.52Z"/><path class="cls-1" d="M356.75,379.35c-6.59-.52-13.82-3.41-18.12-11.3-3.7-6.78-2.36-14.3,3.14-18.79a10.67,10.67,0,0,1,12.78-.59c3.07,2.11,3.76,6.55,1.56,10.14-.78,1.27-2.39,2.53-1.1,4s3.2,1,4.93.38c7.21-2.46,9.65-9.14,8.36-16.38-1.38-7.8-8-13.57-15.87-14.8-8.44-1.31-15.65,1.61-22.59,5.82a90.51,90.51,0,0,0-14.71,11.82c-6.78,6.38-13.49,12.83-20.23,19.24a5.45,5.45,0,0,1-1.32,1.05c-1.18.55-2.65,1.22-3.68.42s0-2,.41-3.06c4.47-12,11.65-22.37,20.25-31.78,6.64-7.28,14.06-13.68,23.28-17.36,12.84-5.12,25.57-5,37.16,3.4,8.19,6,12.61,14.34,14.11,24.38a32.18,32.18,0,0,1-2.75,18C378.12,373.7,369.26,379.36,356.75,379.35Z"/><path class="cls-1" d="M166.37,350.18c.32-16.44,11.52-31.87,29.13-34.7,12.27-2,23.15,1.33,32.95,8.57,15.12,11.17,25.74,25.84,32.89,43.11.42,1,1.42,2.61.41,3.22-1.27.76-3,.2-4.23-.9-1.7-1.5-3.39-3-5-4.58-5.72-5.5-11.31-11.15-17.16-16.51-7.5-6.87-15.32-13.3-25.51-16-9.21-2.44-18.93.83-24,8.33-3.81,5.69-3.67,17.23,3.41,21.22,1.67.95,3.36,1.9,5.42,1.81a3,3,0,0,0,2.51-1.18c.71-1-.22-1.71-.7-2.33a9.05,9.05,0,0,1-2.1-6c.2-4.73,5.41-8.37,10.23-7.32,9.16,2,13.46,11.89,8.43,21.05-5.66,10.32-19.46,14.17-30.37,9.41-9.58-4.18-14-12.08-15.84-21.88A27.82,27.82,0,0,1,166.37,350.18Z"/><path class="cls-1" d="M361.42,253.92c-1.71-11.28-7.94-19.61-17-26.16-12.94-9.35-32.27-9.72-45.49-.72a55.42,55.42,0,0,0-22.73,31.89,12.15,12.15,0,0,1-.62-1.4,53.46,53.46,0,0,0-14.79-24.25c-9.74-9.35-21.27-13.93-34.72-12.58-11.79,1.17-21.27,6.89-28.48,16.33-6.35,8.33-8.74,17.69-6.82,28a34.78,34.78,0,0,0,12.05,20.44c7.14,6.09,15.46,9,24.69,6.55,12.08-3.19,17.24-12.64,15.73-24.48-.9-7.08-4.69-12-12-13.66-4-.9-8.81,1-10.3,4.07-2.06,4.27-.81,9,3.45,11.22,2.83,1.45,1.87,3.67,1.8,5.63-.06,1.6-1.93,1.53-3,1.73-6.18,1.13-13.66-3.17-15.82-9.11-4.57-12.58,4.2-29.25,21.58-30.14,9.33-.48,17.07,3.59,22.92,10.42,9.14,10.67,12.24,23.08,8.62,36.94-2.84,10.86-9.45,19.08-17.8,26.13-2.09,1.76-2.28,2.59-.34,4.44q6,5.7,11.37,11.95c5.73,6.69,11,13.71,14.08,22.08,3.27,9,4.72,17.73-3.57,25.15-1.41,1.25-1.26,2.85.19,4.45,3.1,3.41,6.39,6.65,9.21,10.32,1.5,2,3.24,1.95,4.85.11q4.71-5.39,9.39-10.8a3.12,3.12,0,0,0-.33-4.67c-6.11-4.63-6.48-11.13-5.29-17.72,2.06-11.41,8.72-20.46,16.14-29,3.78-4.33,7.81-8.44,11.76-12.62,1-1.1,1.13-1.84-.17-2.93-2.11-1.76-4-3.78-6-5.7-7.77-7.58-12.89-16.74-13.71-27.52-1.19-15.68,4.65-28.5,18.26-37,8.45-5.26,17.37-5.86,26.29-.7s13.93,18.94,9.47,27.74c-3,5.89-11.26,9.84-16.88,7.66-.7-.27-1.7-.38-1.72-1.45-.05-2.18-.51-4.3,2.25-5.67,3.5-1.75,4.53-5.12,4-8.87a7.84,7.84,0,0,0-6.84-6.26,13.13,13.13,0,0,0-11.5,3.91c-4.55,4.7-5.5,10.51-4.65,16.82,1.7,12.54,12.95,19.64,24.5,18C350.94,290.1,364.1,271.6,361.42,253.92ZM287.35,317a48,48,0,0,0-11.15,18.4c-.92-.23-.78-1.17-1-1.77a45.91,45.91,0,0,0-10.4-16.44c-1.49-1.47-2.26-3.23-.92-5a76.18,76.18,0,0,0,12.28-21.86c2.7,8.09,6.25,15.14,11.67,21.17C289.5,313.46,289.25,315.05,287.35,317Z"/><path class="cls-1" d="M154.13,96.46c1.29-.21,1.6-1,2.05-1.66a175.31,175.31,0,0,1,22.48-26.12c4.57-4.37,8.68-9.2,11.33-15.07A16.67,16.67,0,0,0,191.12,42a6.39,6.39,0,0,0-2-3.25c-1.63-1.39-4.27-1.67-5.63-.62-1.62,1.25-2,3.55-.87,5.73,1.59,3.14,1.41,3.45-2.07,3.49-5.63.07-9.9-5.61-8.73-11.67,2.61-13.6,17-14.36,24.7-8.52,6.64,5,9.07,12,8.1,20.15-1.28,10.77-7.19,18.87-15.2,25.65-9.47,8-19.18,15.73-27.65,24.86-4.8,5.17-9.52,10.39-13.11,16.51-.29.5-.42,1.37-1.27,1.26s-1-.78-1.23-1.38a30.55,30.55,0,0,1-2-17.57c1.28-8.55,3.89-16.81,5.49-25.3,2.87-15.24-2.71-29-15.1-36.23-9.17-5.37-20.41-4.21-27,2.8a19.29,19.29,0,0,0-2,23.33A10.55,10.55,0,0,0,114,66.1a6.14,6.14,0,0,0,5.84-3.2c1-2.21.13-5-2.1-7-1.89-1.68-1.89-2.45.34-3.73a11.59,11.59,0,0,1,11.39-.35c4.06,2,6,5.64,6.25,10,.44,6.77-3.75,12.94-10.72,16.13-14.17,6.48-31.15-1-36.43-16.24-7.45-21.47,7.25-41.4,26.54-44.66,18.65-3.15,34.83,6,43.62,23.84,6.42,13,5.51,26.09,1.06,39.3-1.67,5-3.51,9.88-5.27,14.82C154.34,95.43,154.29,95.82,154.13,96.46Z"/><path class="cls-1" d="M147.24,447.18c8.24,11.19,17.71,21.29,27,31.52a101.22,101.22,0,0,1,14.12,20,13.23,13.23,0,0,1,1.19,3.12c.22.87,1.13,2,0,2.68s-2.09-.28-2.82-1.16c-5.22-6.3-12.07-10.55-18.8-15-8.49-5.57-17.37-10.57-24.39-18.13a148.3,148.3,0,0,1-15.44-20.66c-7-10.77-15.33-20.58-21.42-31.93-2.45-4.58-1.8-5.92,3.38-5.58,12.79.83,24.4,5.48,34.93,12.48,19,12.63,33.79,28.88,41.5,50.82a16,16,0,0,1,1.36,6.13c-.05.9.57,2.16-.59,2.62s-1.66-.78-2.25-1.49c-2.78-3.38-5.36-6.93-8.29-10.17A159.9,159.9,0,0,0,147.24,447.18Z"/><path class="cls-1" d="M409.66,344.52c-1.25-.56-1.4-1.69-1.29-2.81a77.21,77.21,0,0,1,12.44-35.1c6.71-10.45,15.64-18.61,24.72-26.73,7.34-6.56,14.19-13.59,18.86-22.31,6.06-11.31,8.86-23.44,7.53-36.32-.44-4.23-1.22-8.43-2-12.61-.25-1.27.06-3.39-1.87-3.5a5.48,5.48,0,0,0-4.77,2.34c-2.36,3.25-4.69,6.52-7,9.77-8.56,11.86-17.22,23.63-25.63,35.6-4.29,6.11-8.17,12.5-11.86,19C412.43,283,408.19,295,405,307.23c-3.06,11.8-4.49,23.94-5.31,36.11-.85,12.72-.87,25.44,2.3,37.92,2.18-2.85,12.73-20.55,16.54-26.59,6.18-9.76,14-17.76,24.42-23,10.1-5.05,20.9-7.66,31.91-9.71,9.06-1.68,18.1-3.47,26.42-7.75,6.91-3.56,11.95-8.62,13.12-16.55s-3.27-13.07-9.28-17.21c-9-6.22-18.61-5.43-28.2-1.84-9.91,3.71-18.53,9.73-26.81,16.18-10.36,8-20.13,16.75-27.75,27.57-3.62,5.14-7.18,10.32-9.55,16.2A22.15,22.15,0,0,1,409.66,344.52Z"/><path class="cls-1" d="M404.64,447.18c-8.24,11.19-17.71,21.29-27,31.52a101.17,101.17,0,0,0-14.11,20,12.83,12.83,0,0,0-1.2,3.12c-.21.87-1.13,2,0,2.68s2.09-.28,2.82-1.16c5.22-6.3,12.08-10.55,18.81-15,8.48-5.57,17.36-10.57,24.38-18.13a148.3,148.3,0,0,0,15.44-20.66c7-10.77,15.34-20.58,21.42-31.93,2.46-4.58,1.8-5.92-3.37-5.58-12.8.83-24.41,5.48-34.94,12.48-19,12.63-33.79,28.88-41.5,50.82a16,16,0,0,0-1.35,6.13c0,.9-.58,2.16.58,2.62s1.67-.78,2.25-1.49c2.78-3.38,5.36-6.93,8.3-10.17A159.51,159.51,0,0,1,404.64,447.18Z"/><path class="cls-1" d="M400.09,96.46c-1.29-.21-1.6-1-2-1.66a175.31,175.31,0,0,0-22.48-26.12c-4.57-4.37-8.68-9.2-11.33-15.07A16.67,16.67,0,0,1,363.1,42a6.39,6.39,0,0,1,2-3.25c1.63-1.39,4.27-1.67,5.63-.62,1.63,1.25,2,3.55.87,5.73-1.59,3.14-1.41,3.45,2.07,3.49,5.63.07,9.9-5.61,8.74-11.67-2.61-13.6-17-14.36-24.71-8.52-6.63,5-9.07,12-8.1,20.15,1.28,10.77,7.19,18.87,15.2,25.65,9.47,8,19.19,15.73,27.65,24.86,4.8,5.17,9.52,10.39,13.11,16.51.29.5.42,1.37,1.27,1.26s1-.78,1.23-1.38c2.58-5.64,2.94-11.57,2-17.57-1.28-8.55-3.89-16.81-5.49-25.3-2.87-15.24,2.71-29,15.1-36.23,9.17-5.37,20.41-4.21,27,2.8a19.27,19.27,0,0,1,2.05,23.33,10.55,10.55,0,0,1-8.53,4.83,6.14,6.14,0,0,1-5.84-3.2c-1-2.21-.12-5,2.1-7,1.89-1.68,1.9-2.45-.34-3.73a11.59,11.59,0,0,0-11.39-.35c-4.05,2-6,5.64-6.25,10-.44,6.77,3.75,12.94,10.72,16.13,14.18,6.48,31.15-1,36.43-16.24,7.46-21.47-7.25-41.4-26.54-44.66-18.65-3.15-34.83,6-43.62,23.84C389.12,54,390,67,394.48,80.25c1.67,5,3.51,9.88,5.27,14.82C399.88,95.43,399.93,95.82,400.09,96.46Z"/><path class="cls-1" d="M405.32,179.55a33.93,33.93,0,0,1-3.17-21.85,42.32,42.32,0,0,1,2.91-8.41,7.62,7.62,0,0,0-3.47-.14h0c-1.13,0-2.27-.06-3.4-.06-31.06,0-108.55,0-139.61,0-19.06,0-83.67,0-102.73.06-2.16.31-1,1.63-.6,2.42a28.58,28.58,0,0,1,3,11.63,34.82,34.82,0,0,1-3.73,16.13c-1,2.23-.26,2.56,1.67,2.33,4.85-.56,55.28-.28,60.14-.43,4.45-.13,8.91.13,13.35-.43h31a44.91,44.91,0,0,0,8.9.35h18.9a26.27,26.27,0,0,0,7.46-.33h0l29.5,0a10,10,0,0,0,1.41.27c10.26.43,67-.22,77.23.63C406,181.82,406.06,181,405.32,179.55Zm-124.51-4.13c-.4.77-.71,2-1.56,2-1.06,0-1.32-1.31-1.66-2.14a19.13,19.13,0,0,1-1-12.76c.46-1.62.92-3.25,1.49-4.83.2-.53.29-1.42,1.11-1.39.62,0,.82.72,1,1.23,1.31,3.3,2.63,6.6,2.44,10.37A14.44,14.44,0,0,1,280.81,175.42ZM216.93,161c2.76-3.07,6.54-3.73,10.34-4.07a35.9,35.9,0,0,1,20.61,4.11,31.08,31.08,0,0,0,6,2.55c4.85,1.36,7.32.66,12.91-3.25a7.78,7.78,0,0,1-2,6.26c-3.58,4.32-9.67,5.73-15.74,3.46-3.31-1.24-6.51-2.82-9.72-4.32a20.48,20.48,0,0,0-10.54-2.19,6.75,6.75,0,0,0-3.19,1,2.93,2.93,0,0,0-1.41,3.11,2.45,2.45,0,0,0,2.31,2.38c1,.1,1.77.56.65,1.43-2.15,1.69-4.56,2.83-7.41,2.11C214.14,172.18,212.7,165.72,216.93,161Zm119,12.76a11.32,11.32,0,0,1-4.38-2,1.23,1.23,0,0,1-.65-1.22c.08-.57.55-.48.93-.48a2.3,2.3,0,0,0,2.45-2.19,3.2,3.2,0,0,0-1.9-3.38c-2.56-1.46-5.33-1.11-8-.59-4.34.84-8.12,3.11-12.06,5A19.07,19.07,0,0,1,301.76,171c-5.28-.61-9.91-5.49-9.65-10.88,5.39,5.81,11.14,4.75,17.06,1.84,4.36-2.15,8.74-4.27,13.65-4.79a35.78,35.78,0,0,1,14,.8c3.89,1.14,6.08,3.88,7,7.65C345,170.1,340.62,174.59,336,173.77Z"/></svg>