<svg id="Layer_2" data-name="Layer 2" xmlns="http://www.w3.org/2000/svg" viewBox="0 0 566.93 566.93"><defs><style>.cls-1{fill:#c19560;}.cls-2{fill:#094e92;}</style></defs><path class="cls-1" d="M362.07,478.14A33.06,33.06,0,0,1,358.3,476c-8.55-6.42-16.91-13.09-25.6-19.32-12.06-8.65-17.35-20.77-19.42-35-.76-5.19.65-8.16,4.83-11.36,5.82-4.46,10.86-10,15.93-15.32,2.92-3.08,2.9-5,1.18-7.29-1.47-2-5.27-2.93-8-1.34-7.48,4.38-15.72,7.6-21.86,14.08-.93,1-2.15,2.21-3.3.8a3.83,3.83,0,0,1,0-3.49c2.94-5,7.41-8.4,12.66-10.8,8.48-3.88,10.26-7,6.67-16.3C317,359.3,308.07,352.35,297,348a6.46,6.46,0,0,0-4.52.16A46.73,46.73,0,0,0,272,365.6c-2.54,3.87-3.15,8.36-3.44,12.84-.17,2.63,1.47,4.51,3.63,5.85,3.53,2.17,7.32,4,10.57,6.51a57,57,0,0,1,7.9,8.09c.52.6.05,2.05,0,3.11-1.11-.23-2.65-.07-3.27-.75-3.9-4.29-8.91-6.82-13.95-9.38-3.17-1.62-6.2-3.51-9.3-5.26s-5.93-1.63-7.81.34c-1.55,1.62-2,3.41-.5,5.34,6.82,8.65,14.06,16.86,24.09,22a10.11,10.11,0,0,1,5.4,6.69,60.51,60.51,0,0,0,16.85,27.12c9.28,8.9,19.92,15.63,31.25,21.48C345.64,475.85,356.66,484,367,493a32.29,32.29,0,0,1,11.4,25c0,7.28-.31,14.56-.48,21.84,0,.3.07.6.16,1.43,4-4.43,7.73-8.42,9.26-14,2-7.34,4-14.72,8.85-20.86,5.43-6.88,12.35-10.38,21.27-9a10.87,10.87,0,0,1,3.26,1.12c7.8,4,15.32,0,16.33-8.75.57-4.95-.3-9.31-4.81-12.2-4.94-3.16-9.93-2.37-14.55.5s-8.63,6.12-13,9.17c-2.07,1.45-4.22,2.78-6.34,4.16l-.66-.44a25.81,25.81,0,0,1,.48-3.19c1.49-5.62,3.7-10.91,8.57-14.44,1.94-1.4,4.42-2.09,6.66-3.07a14.76,14.76,0,0,0,8.05-18.45c-2.07-6.44-10.4-11-17.32-9.52-6.74,1.46-11.28,9.31-9.51,16.85a11.43,11.43,0,0,1-.58,7.16c-2.49,6.47-4.81,13-6.87,19.62-1,3.13-1.17,6.5-1.8,9.75a5.07,5.07,0,0,1-1,1.54c-.43-.42-1-.77-1.28-1.29-1-2.27-1.83-4.62-2.85-6.87-2.58-5.64-5-11.36-7.89-16.84-4.69-8.9-8.87-18-10.82-27.89-1.58-8.05-1.75-16,3.83-23,1.67-2.07,2.23-2.09,4.1-.23,4.91,4.92,10.05,5.74,15.7,2.53A14,14,0,0,0,391.56,408c-2.79-10.67-11.52-15.23-22.65-11.83-11.87,3.63-21.17,16.46-21.5,28.78-.24,9.06.5,17.9,3.7,26.38,1.66,4.4,3.83,8.61,5.82,12.88,1.43,3.08,3,6.1,4.39,9.2a41.27,41.27,0,0,1,1.4,4.15Z"/><path class="cls-2" d="M379.63,341.63c3.73-3.52,7.73-6.44,12.94-7.3,1.93-.33,3.84-.76,5.76-1.15a52.94,52.94,0,0,0,16.86-6.54c7.79-4.66,12-11.83,14.05-20.47,1.38-5.91,1.15-11.87.66-17.86-.54-6.62-1.39-13.24-.64-19.91a42.55,42.55,0,0,1,.62-4.37c.28-1.21-.17-1.44-1.21-1.28a71.62,71.62,0,0,0-18.61,5.12c-7.28,3.3-13.84,7.62-19,13.85a38,38,0,0,0-8.48,19.18,77.67,77.67,0,0,0-.09,17.64A24.11,24.11,0,0,1,376,337.82c-2.81,3-6,5.73-9.08,8.53a20.63,20.63,0,0,1-2.37,1.62l-.33-.21a5,5,0,0,1,.3-1.42,51.61,51.61,0,0,1,2.61-4.5c2-3,4.12-5.94,6.18-8.91,3.38-4.91,4.46-10.43,4.28-16.27-.27-8.78-3.77-16.22-9.48-22.73-.82-.94-1.73-1.81-2.5-2.8s-1.65-.9-2.4,0c-1.07,1.26-2.1,2.55-3.07,3.89-3.18,4.38-6,9-7.47,14.25a30.6,30.6,0,0,0,2.81,24q1.44,2.56,2.72,5.21c2.68,5.52,2,10.15-2.32,14.54a26.49,26.49,0,0,1-5.46,4.26c-5.94,3.44-9.18,5.17-15.2,8.47a79.56,79.56,0,0,0,13.72-1.25c6.09-1.07,11-5.16,17.21-6.54a14.85,14.85,0,0,1,8.68.48,48,48,0,0,1,5.76,2.48c8.66,4.63,17.29,4.25,25.88,0,7.71-3.85,13.82-9.6,18.94-16.45.65-.86.34-1.51-.46-1.83a70.25,70.25,0,0,0-7.23-2.63,51,51,0,0,0-13.89-1.85,32.86,32.86,0,0,0-19.59,6.5c-3,2.19-6.08,4.39-9.09,6.61-2,1.49-4.08,1.75-6.8.69a5.28,5.28,0,0,1,.61-.79C372.51,348,376.17,344.91,379.63,341.63Z"/><path class="cls-2" d="M295.79,332.71a73.32,73.32,0,0,0,7.53-3c10.27-5.24,18.25-12.76,22.87-23.53a49,49,0,0,0,3.57-24.81,59.13,59.13,0,0,0-7.38-23.74c-7.51-13.12-18.33-22.61-32-28.92a6.28,6.28,0,0,0-6.19,0c-13.7,6.3-24.53,15.77-32.07,28.88a59.45,59.45,0,0,0-7.41,23.73,49,49,0,0,0,3.53,24.81c4.6,10.78,12.58,18.31,22.84,23.56a70.22,70.22,0,0,0,7.52,3C281.68,333.86,292.69,333.87,295.79,332.71Zm4-81.87s17.14,32-.05,66.24c0,0,1.94-19.57,2-34.09S299.83,250.84,299.83,250.84Zm-27.54,66.22c-17.14-34.24,0-66.24,0-66.24s-1.94,17.63-1.95,32.15S272.29,317.06,272.29,317.06Z"/><path class="cls-2" d="M268.51,333.15s-35.28,43.94-45.55,68.6c-3.93,9.41-8.52,21.46-3.58,30.39a34.87,34.87,0,0,1,3.86,22.37c-2.73,16.54-16.68,28.56-29.72,39.09l-1.59-30.27c-.36-6.72-.7-13.57,1-20.07s6.12-12.75,12.4-15.19c2.51-21.91,8.63-26.63,9.86-34.56-14.27-1.16-28.79,7.7-34.28,20.92-2.86,6.89-3.42,14.6-6.69,21.3-6,12.25-19.45,18.58-31.95,24l-41,17.78q11.07-31.15,22.13-62.32c2-5.78,4.19-11.7,8.17-16.37s9.12-14,24.77-12.43c7.19.72,7.31,5.16,14.53,4.74,15-.86,37.29-4.74,49.73-13.13,4.12-8.52,38.79-50.34,38.79-50.34s1.7,1.23,4.45,2.94C266,331.93,268.51,333.15,268.51,333.15Z"/><path class="cls-2" d="M311.84,237.32s34.65-43.16,44.93-67.82c3.92-9.42,8.52-21.47,3.57-30.4a34.93,34.93,0,0,1-3.86-22.37c2.74-16.53,16.68-28.56,29.72-39.09q.8,15.14,1.6,30.27c.35,6.72.69,13.57-1,20.07s-6.12,12.76-12.39,15.2c-2.51,21.9-8.63,26.62-9.86,34.56,14.26,1.16,28.79-7.71,34.28-20.93,2.85-6.88,3.42-14.6,6.68-21.3,6-12.24,19.45-18.58,31.95-24l41-17.79Q467.36,124.88,456.3,156c-2.06,5.78-4.19,11.71-8.17,16.37s-9.12,14-24.77,12.43c-7.19-.72-7.32-5.16-14.53-4.74-15,.87-37.29,4.75-49.74,13.14-4.11,8.52-39.56,51.54-39.56,51.54a20.51,20.51,0,0,0-3.67-4.15C314,239,311.84,237.32,311.84,237.32Z"/><path class="cls-1" d="M222.88,241.07a32.22,32.22,0,0,0,3.77-2.14c8.55-6.42,16.91-13.09,25.6-19.32,12.06-8.65,17.35-20.77,19.42-35,.76-5.19-.65-8.16-4.83-11.36-5.81-4.46-10.86-10-15.93-15.33-2.92-3.07-2.89-5-1.18-7.29,1.47-2,5.27-2.92,8-1.33,7.48,4.38,15.73,7.6,21.86,14.08.93,1,2.15,2.21,3.3.8a3.83,3.83,0,0,0,0-3.49c-2.94-5-7.41-8.4-12.66-10.8-8.48-3.89-10.26-7-6.67-16.31,4.39-11.37,13.32-18.33,24.36-22.73a6.52,6.52,0,0,1,4.52.17A46.67,46.67,0,0,1,313,128.53c2.55,3.87,3.15,8.36,3.44,12.84.17,2.63-1.46,4.51-3.63,5.85-3.53,2.17-7.32,4-10.57,6.51a57,57,0,0,0-7.9,8.09c-.52.6,0,2.05,0,3.1,1.12-.22,2.65-.06,3.27-.74,3.91-4.29,8.91-6.82,13.95-9.38,3.17-1.62,6.2-3.51,9.3-5.26s5.93-1.63,7.81.33c1.55,1.63,2,3.42.5,5.35-6.82,8.65-14.06,16.86-24.09,22a10.14,10.14,0,0,0-5.4,6.69A60.51,60.51,0,0,1,282.79,211c-9.28,8.9-19.92,15.63-31.25,21.48C239.31,238.78,228.29,247,218,255.92a32.35,32.35,0,0,0-11.4,25c0,7.28.31,14.56.48,21.84,0,.3-.07.6-.16,1.42-4-4.42-7.73-8.41-9.26-14-2-7.34-4-14.72-8.85-20.86-5.43-6.88-12.35-10.39-21.27-9a10.34,10.34,0,0,0-3.26,1.12c-7.8,4-15.32,0-16.33-8.75-.57-4.95.3-9.31,4.81-12.2,4.94-3.16,9.94-2.37,14.55.5s8.63,6.12,13,9.16c2.07,1.46,4.22,2.79,6.34,4.17l.66-.44a25.81,25.81,0,0,0-.48-3.19c-1.49-5.62-3.69-10.91-8.57-14.44-1.94-1.41-4.42-2.09-6.66-3.07a14.77,14.77,0,0,1-8-18.45c2.07-6.44,10.4-11,17.32-9.52,6.74,1.46,11.28,9.31,9.51,16.85a11.43,11.43,0,0,0,.58,7.16c2.49,6.46,4.81,13,6.87,19.62,1,3.13,1.17,6.5,1.8,9.75a5.27,5.27,0,0,0,1,1.54c.43-.43,1-.77,1.28-1.29,1-2.27,1.83-4.62,2.86-6.87,2.57-5.64,5-11.36,7.88-16.84,4.69-8.9,8.87-18,10.82-27.89,1.58-8.05,1.75-16-3.83-23-1.66-2.07-2.23-2.1-4.1-.23-4.91,4.91-10.05,5.74-15.7,2.53a14,14,0,0,1-6.31-15.68c2.79-10.67,11.52-15.23,22.65-11.83,11.87,3.63,21.17,16.46,21.5,28.78.24,9.06-.5,17.89-3.7,26.38-1.66,4.4-3.83,8.61-5.82,12.88-1.43,3.08-3,6.1-4.39,9.19a39.79,39.79,0,0,0-1.39,4.16Z"/><path class="cls-2" d="M216,114.09a5.28,5.28,0,0,1,.61.79c-2.72,1.06-4.77.8-6.8-.69-3-2.23-6.05-4.42-9.09-6.61a32.84,32.84,0,0,0-19.59-6.5,51.24,51.24,0,0,0-13.88,1.84,72,72,0,0,0-7.24,2.64c-.8.31-1.11,1-.46,1.83,5.12,6.85,11.23,12.59,18.94,16.45,8.59,4.29,17.23,4.66,25.88,0a49.66,49.66,0,0,1,5.76-2.47,14.85,14.85,0,0,1,8.68-.48c6.17,1.37,11.12,5.47,17.21,6.54a79.56,79.56,0,0,0,13.72,1.25c-6-3.31-9.26-5-15.2-8.48a26.11,26.11,0,0,1-5.46-4.25c-4.34-4.39-5-9-2.32-14.54q1.28-2.64,2.72-5.21a30.6,30.6,0,0,0,2.81-24c-1.45-5.28-4.29-9.87-7.47-14.26-1-1.33-2-2.62-3.07-3.88-.75-.89-1.55-1.08-2.4,0s-1.68,1.86-2.5,2.8c-5.71,6.51-9.2,14-9.48,22.73-.18,5.84.9,11.36,4.28,16.26,2.06,3,4.17,5.92,6.18,8.92a51.61,51.61,0,0,1,2.61,4.5,5,5,0,0,1,.3,1.42l-.33.21a20.63,20.63,0,0,1-2.37-1.62c-3.07-2.8-6.27-5.49-9.08-8.53a24.11,24.11,0,0,1-6.53-19.28,77.66,77.66,0,0,0-.09-17.64,37.92,37.92,0,0,0-8.48-19.18c-5.13-6.23-11.69-10.55-19-13.86a72,72,0,0,0-18.61-5.11c-1-.16-1.49.07-1.21,1.28a39.62,39.62,0,0,1,.62,4.37c.75,6.66-.1,13.29-.64,19.91-.49,6-.72,11.95.66,17.86,2,8.64,6.26,15.81,14.06,20.47a52.8,52.8,0,0,0,16.85,6.54c1.92.38,3.83.82,5.76,1.14,5.21.87,9.21,3.79,12.94,7.31C208.78,107.84,212.44,110.91,216,114.09Z"/></svg>