<svg id="Layer_1" data-name="Layer 1" xmlns="http://www.w3.org/2000/svg" viewBox="0 0 566.93 566.93"><defs><style>.cls-1{fill:#80cce8;}</style></defs><path class="cls-1" d="M219.07,251c-23.21-7.26-43.87-17.9-65.25-26.74-11.7-4.84-16.18-22.21-10.14-34,5.95-11.6,22.25-16.23,34.18-9.68,8.55,4.68,15.31,11.58,18.1,20.67,7.12,23.26,26,34.9,44.4,47.27,2.55,1.71,7.49,2.87,6.16,6.12-1.49,3.61-6,1.71-9.5,1A127.61,127.61,0,0,1,219.07,251Z"/><path class="cls-1" d="M219.07,321c-23.21,7.27-43.87,17.9-65.25,26.74-11.7,4.84-16.18,22.21-10.14,34,5.95,11.59,22.25,16.22,34.18,9.68,8.55-4.69,15.31-11.59,18.1-20.68,7.12-23.26,26-34.9,44.4-47.26,2.55-1.72,7.49-2.88,6.16-6.12-1.49-3.62-6-1.72-9.5-1A126.3,126.3,0,0,0,219.07,321Z"/><path class="cls-1" d="M347.86,251c23.21-7.26,43.87-17.9,65.25-26.74,11.7-4.84,16.18-22.21,10.13-34-5.94-11.6-22.24-16.23-34.17-9.68-8.55,4.68-15.31,11.58-18.1,20.67-7.12,23.26-26,34.9-44.4,47.27-2.55,1.71-7.49,2.87-6.16,6.12,1.49,3.61,6,1.71,9.5,1A127.61,127.61,0,0,0,347.86,251Z"/><path class="cls-1" d="M347.86,321c23.21,7.27,43.87,17.9,65.25,26.74,11.7,4.84,16.18,22.21,10.13,34C417.3,393.36,401,398,389.07,391.45c-8.55-4.69-15.31-11.59-18.1-20.68-7.12-23.26-26-34.9-44.4-47.26-2.55-1.72-7.49-2.88-6.16-6.12,1.49-3.62,6-1.72,9.5-1A126.3,126.3,0,0,1,347.86,321Z"/><path class="cls-1" d="M342.59,280.72a.53.53,0,0,1,0-.21.89.89,0,0,0-.62-1.17,56.27,56.27,0,0,0-5.81-2.78c-10.9-3.56-21-8.55-29.88-16s-15.64-16.26-19-27.49c-.32-1.59-1.13-1.75-2.44-1a5.23,5.23,0,0,1-6.35-.27c-.38-.29-.82-.88-1.42-.27a7.39,7.39,0,0,1-.3,2.12c-2.51,8.68-7.6,15.83-13.73,22.19-6.62,6.87-14.68,11.86-23.33,15.82-5.54,2.54-10.95,5.47-17,6.65a2.25,2.25,0,0,0-1.47,1.21c-1.25,2.37.18,6.11,2.73,7.1s5.13,1.88,7.64,2.94c7.28,3.07,14.69,5.89,21,10.82a123.87,123.87,0,0,1,13.61,12.7,24.31,24.31,0,0,1,4.54,5.75,114.49,114.49,0,0,1,6.61,15.91c.74.24,1.24-.25,1.74-.63,2.27-1.74,4.55-2,6.9-.16.32.26.69.55,1.16.31.56-3.23,2.17-6,3.4-9,5-12.1,14.07-20.65,24.87-27.41a105.32,105.32,0,0,1,22.56-11.1C341.23,285.78,343.31,284.4,342.59,280.72Zm-31.86,4.16a97.44,97.44,0,0,0-18.51,13c-2.9,2.7-5.67,5.55-8.48,8.35-2.06,2.07-2.41,2.13-4.52,0a174,174,0,0,0-13.71-12.9,78.53,78.53,0,0,0-12.46-8.54c-2.58-1.36-2.63-2.09,0-3.49a95.32,95.32,0,0,0,17.22-11.9,77.41,77.41,0,0,0,9.61-9.29c1.28-1.54,2.31-1.58,3.69-.12,7.93,8.39,17.16,15.11,27.06,21a4.58,4.58,0,0,1,2.15,2.07C312.41,284.05,311.54,284.42,310.73,284.88Z"/></svg>