<svg width="140" height="169" viewBox="0 0 140 169" fill="none" xmlns="http://www.w3.org/2000/svg">
<path d="M83.8727 33.8091C83.7411 33.8091 83.6094 33.8675 83.4778 33.8894C80.3369 34.3707 77.8541 36.0262 75.6822 38.2395C75.1922 38.7391 74.6583 39.1985 74.1208 39.647C73.9563 39.7856 73.7223 39.9789 73.4992 39.8512C73.2104 39.6908 73.4334 39.4392 73.4992 39.2313C73.8064 38.0426 74.055 36.832 74.4426 35.6725C76.2708 30.2357 77.0862 24.6931 76.3842 18.9683C75.7699 13.9508 74.1903 9.26883 71.3785 5.04629C69.9159 2.85844 69.7733 2.79645 68.3216 4.99888C63.5316 12.2552 62.186 20.2518 63.4146 28.7552C63.868 31.8911 64.9759 34.8593 65.795 37.9004C65.9742 38.5677 66.3179 39.2386 65.8754 40.0883C65.4149 39.6622 64.9814 39.2079 64.5774 38.7281C62.186 36.3288 59.5204 34.4181 56.0504 33.8711C54.1198 33.5685 53.7285 33.9076 54.1198 35.822C54.1198 35.8876 54.171 35.9496 54.1819 36.0116C54.9132 40.5842 57.3594 44.1576 60.7636 47.1149C64.3836 50.2544 67.8938 53.456 69.8135 58.0541C71.5247 54.4077 74.0184 51.4906 76.8449 48.8068C78.5927 47.155 80.4502 45.6235 81.964 43.7018C83.88 41.266 84.9404 38.462 85.5766 35.4828C85.8509 34.1045 85.3317 33.6268 83.8727 33.8091Z" fill="#CE433A"/>
<path d="M103.925 116.722C103.512 116.514 103.069 116.372 102.612 116.299C98.0271 115.953 93.5406 116.233 89.4014 118.541L86.7431 119.945C87.3611 118.873 87.8401 118.002 88.352 117.16C91.0468 112.784 91.4746 107.992 90.641 103.055C89.3063 95.1826 85.5219 88.3274 81.3937 81.6581C78.4456 76.8234 75.1972 72.1773 71.6674 67.7471C70.2377 65.9785 69.9452 65.9239 68.5082 67.6668C62.0691 75.5577 56.2918 83.886 52.1417 93.2391C52.117 93.3293 52.1071 93.4229 52.1124 93.5162C50.5182 96.5099 49.6809 99.7406 49.136 103.055C48.4047 107.515 48.54 111.861 50.8144 115.931L52.8072 119.909C50.4451 118.552 48.3609 117.16 45.8598 116.682C42.8615 116.113 39.8266 116.16 36.799 116.252C36.2652 116.27 35.6216 116.368 35.362 116.944C35.1024 117.521 35.5412 117.951 35.9178 118.403C38.6785 121.572 39.5926 125.4 39.7681 129.462C39.907 132.66 39.5085 135.847 39.7388 139.067C40.3422 147.523 44.1266 154.167 50.7668 159.283C52.0027 160.235 53.3264 161.106 54.789 162.138C59.5146 164.393 64.6773 165.592 69.9159 165.649C78.1248 165.649 84.9076 162.251 84.9076 162.251C87.2563 160.788 89.4537 159.096 91.4673 157.201C96.5316 152.384 99.6067 146.626 100.111 139.556C100.29 136.871 100.309 134.177 100.17 131.49C99.9833 127.395 100.605 123.45 102.784 119.869C103.274 119.256 103.75 118.629 104.247 118.027C104.744 117.426 104.601 116.999 103.925 116.722ZM91.8403 132.062C90.9518 136.219 89.4709 140.132 86.8016 143.527C84.7138 146.185 82.1213 148.325 79.6861 150.626C75.7444 154.356 72.2634 158.44 69.883 163.524C67.2065 157.088 62.3068 152.624 57.2608 148.245C52.5073 144.121 49.0812 139.129 48.0757 132.762C48.0757 132.671 48.0098 132.587 47.9916 132.5C47.4467 129.827 47.9916 129.353 50.6827 129.776C55.5239 130.542 59.2389 133.204 62.5737 136.547C63.1843 137.16 63.6706 137.889 64.4019 138.447C65.0199 137.24 64.5409 136.303 64.2922 135.377C63.1477 131.136 61.6047 126.99 60.9721 122.615C59.2572 110.753 61.133 99.6021 67.8098 89.4796C69.8391 86.413 70.0037 86.4786 72.0733 89.5489C76.0186 95.4379 78.2015 101.965 79.0572 108.962C80.0335 116.948 78.889 124.678 76.3514 132.259C75.8065 133.878 75.4628 135.563 75.035 137.218C74.9619 137.51 74.6694 137.864 75.0533 138.086C75.3678 138.261 75.6932 137.995 75.9235 137.802C76.6548 137.175 77.4117 136.533 78.0955 135.836C81.1267 132.752 84.5895 130.443 88.9699 129.769C89.1528 129.74 89.3356 129.685 89.5184 129.659C91.5368 129.415 92.2608 130.082 91.8403 132.062Z" fill="#CE433A"/>
</svg>
