<svg id="Layer_1" data-name="Layer 1" xmlns="http://www.w3.org/2000/svg" viewBox="0 0 566.93 566.93"><defs><style>.cls-1{fill:#1c1b1c;}</style></defs><path class="cls-1" d="M306.56,322a47.25,47.25,0,0,1-5.43-3.08c-12.32-9.26-24.38-18.88-36.9-27.86-17.39-12.47-25-29.94-28-50.43-1.09-7.48.93-11.76,7-16.38,8.38-6.42,15.66-14.37,23-22.09,4.2-4.43,4.17-7.15,1.69-10.51-2.11-2.86-7.59-4.21-11.51-1.92-10.79,6.31-22.67,11-31.52,20.29-1.33,1.41-3.09,3.2-4.75,1.17-.85-1-.79-3.74,0-5,4.24-7.26,10.69-12.12,18.25-15.58,12.23-5.59,14.8-10.09,9.63-23.49-6.33-16.4-19.2-26.43-35.12-32.77a9.34,9.34,0,0,0-6.52.23,67.33,67.33,0,0,0-29.62,25.22c-3.67,5.58-4.55,12-5,18.5-.24,3.79,2.11,6.52,5.23,8.44,5.08,3.13,10.55,5.75,15.24,9.38,4.26,3.31,7.84,7.56,11.39,11.67.75.86.07,3,0,4.48-1.6-.33-3.82-.1-4.71-1.08-5.63-6.18-12.85-9.83-20.11-13.53-4.57-2.32-8.94-5-13.41-7.58s-8.54-2.34-11.25.49c-2.24,2.35-2.92,4.93-.73,7.71,9.83,12.46,20.27,24.3,34.73,31.65a14.6,14.6,0,0,1,7.79,9.65c4.44,15.26,12.77,28.05,24.29,39.1,13.37,12.82,28.71,22.52,45.05,31,17.63,9.1,33.51,20.89,48.42,33.81a46.63,46.63,0,0,1,16.44,36.11c.05,10.49-.45,21-.69,31.48,0,.43.09.87.22,2.05,5.75-6.38,11.15-12.13,13.35-20.17,2.9-10.58,5.79-21.22,12.77-30.07,7.82-9.92,17.79-15,30.66-13a15.44,15.44,0,0,1,4.69,1.61c11.24,5.83,22.09,0,23.54-12.61.82-7.13-.42-13.41-6.94-17.58-7.12-4.56-14.31-3.43-21,.72-6.47,4-12.45,8.82-18.69,13.21-3,2.09-6.09,4-9.14,6l-.95-.65a39.24,39.24,0,0,1,.69-4.6C360.82,327.73,364,320.1,371,315c2.81-2,6.37-3,9.61-4.42,10.26-4.49,15.13-15.64,11.6-26.6-3-9.28-15-15.88-25-13.73-9.72,2.1-16.26,13.42-13.71,24.29a16.58,16.58,0,0,1-.84,10.33c-3.59,9.32-6.93,18.75-9.9,28.29-1.4,4.51-1.69,9.37-2.6,14.05a7.31,7.31,0,0,1-1.37,2.22c-.63-.62-1.51-1.12-1.84-1.86-1.45-3.27-2.64-6.66-4.12-9.91-3.71-8.13-7.21-16.38-11.37-24.28-6.75-12.82-12.78-25.92-15.59-40.19-1.59-8.06-.31-20.19-.31-20.19s-3.79-.41-11.09-6.23c-2.84-2.26-8.33-7.95-8.33-7.95a43.5,43.5,0,0,0-.76,6.38c-.35,13.06.72,25.8,5.34,38,2.39,6.34,5.52,12.41,8.39,18.57,2.06,4.44,4.3,8.79,6.32,13.25a61,61,0,0,1,2,6Z"/></svg>