<svg id="Lengan_panjang" data-name="Lengan panjang" xmlns="http://www.w3.org/2000/svg" viewBox="0 0 371.66 471.35"><defs><style>.cls-1{fill:#81cde8;stroke:#1c1c1d;stroke-linecap:round;stroke-linejoin:round;}</style></defs><path class="cls-1" d="M78.72,206.65,75,223.94,66.89,462.11H18.18l-8-208.17s6.17-62.19,15.71-113.72C33,102.08,43.84,71.61,45.08,67c2.79-10.36,36.77-25.72,36.77-25.72s8.9,32.7,6.72,80.33C86.88,158.49,78.72,206.65,78.72,206.65Z"/><polygon class="cls-1" points="66.89 462.11 67.38 447.67 17.86 447.67 18.18 462.11 66.89 462.11"/><path class="cls-1" d="M293.22,206.65,297,223.94,305,462.11h48.71l8-208.17S355.57,191.75,346,140.22C339,102.08,328.09,71.61,326.85,67c-2.79-10.36-36.76-25.72-36.76-25.72s-8.91,32.7-6.73,80.33C285.05,158.49,293.22,206.65,293.22,206.65Z"/><polygon class="cls-1" points="305.04 462.11 304.55 447.67 354.08 447.67 353.75 462.11 305.04 462.11"/></svg>