<svg width="40" height="112" viewBox="0 0 40 112" fill="none" xmlns="http://www.w3.org/2000/svg">
<path d="M16.2264 15.1305C16.0537 14.1962 15.8331 13.2724 15.7188 12.3301C15.3712 9.61965 15.8813 6.8685 17.1778 4.46224C17.2362 4.35341 17.3053 4.25254 17.3718 4.14636C18.7457 1.94049 20.9328 1.75734 22.397 3.88091C24.0622 6.2192 24.7808 9.09985 24.4087 11.9452C24.2865 12.9088 24.0473 13.8617 23.8214 15.0217C24.0207 14.7218 24.127 14.5837 24.212 14.4351C25.4292 12.3115 26.9891 10.5861 29.527 10.0579C30.1336 9.92343 30.7619 9.91801 31.3708 10.0419C31.9797 10.1659 32.5557 10.4164 33.0614 10.7772C33.4519 11.028 33.7593 11.3888 33.9447 11.814C34.1301 12.2392 34.1852 12.7098 34.1031 13.1662C33.9596 14.1006 33.1863 14.4404 32.3784 14.6873C31.4191 14.9792 30.3933 15.1465 29.5084 15.5924C27.4602 16.6222 25.7633 18.2349 24.6319 20.2271C24.5003 20.4667 24.3501 20.6957 24.1828 20.912C23.5583 21.6818 22.8753 22.2737 21.7486 22.1516C20.2046 21.9844 18.6473 21.9499 17.098 21.8225C16.2105 21.7481 15.6896 21.119 15.1608 20.4713C14.0978 19.1733 13.0348 17.8885 11.8974 16.6622C10.9859 15.6747 9.75816 15.1863 8.48524 14.8253C8.24873 14.7589 8.02018 14.674 7.78899 14.5917C6.51075 14.1219 6.06961 13.5936 6.10416 12.5716C6.13871 11.5497 7.03161 10.4481 8.02018 10.1826C10.0159 9.63845 11.7911 10.1136 13.3351 11.4408C14.4459 12.3964 15.4398 13.4582 15.9155 14.8916C15.9667 14.9945 16.0339 15.0886 16.1148 15.1704L16.2264 15.1305Z" fill="#233565"/>
<path d="M24.0101 96.8885C24.1828 97.8229 24.4034 98.7466 24.515 99.689C24.8642 102.399 24.354 105.149 23.0561 107.554C22.9976 107.663 22.9312 107.767 22.8647 107.873C21.4908 110.076 19.3011 110.262 17.8368 108.138C16.1709 105.797 15.4532 102.914 15.8278 100.066C15.95 99.0997 16.1892 98.1494 16.4151 96.9867C16.2131 97.2893 16.1068 97.4274 16.0218 97.576C14.8047 99.6996 13.2474 101.425 10.7228 101.953C10.1161 102.088 9.48791 102.093 8.87899 101.969C8.27006 101.845 7.69406 101.595 7.1884 101.234C6.79812 100.983 6.4908 100.622 6.305 100.197C6.11921 99.7719 6.0632 99.3015 6.14402 98.8449C6.29018 97.9131 7.06084 97.5734 7.8687 97.3265C8.8307 97.0345 9.85648 96.8673 10.7388 96.4213C12.7828 95.388 14.4749 93.7735 15.6019 91.7813C15.7302 91.5421 15.8768 91.3131 16.0404 91.0965C16.6675 90.3267 17.3478 89.7347 18.4773 89.8568C20.0212 90.0214 21.5785 90.0586 23.1278 90.186C24.0154 90.2603 24.5363 90.8868 25.0651 91.5371C26.1281 92.8351 27.1911 94.1199 28.3258 95.3463C29.2373 96.3311 30.4517 96.8222 31.7406 97.1805C31.9745 97.2469 32.2057 97.3345 32.4369 97.4168C33.7151 97.8866 34.1562 98.4148 34.1217 99.4368C34.0871 100.459 33.1942 101.56 32.203 101.826C30.2073 102.357 28.4347 101.895 26.8881 100.568C25.7799 99.612 24.7861 98.5476 24.3104 97.1168C24.2573 97.0144 24.1892 96.9204 24.1084 96.8381L24.0101 96.8885Z" fill="#233565"/>
</svg>
