<svg id="Layer_1" data-name="Layer 1" xmlns="http://www.w3.org/2000/svg" viewBox="0 0 371.66 471.35"><defs><style>.cls-1{fill:#1c1b1c;stroke:#010101;stroke-miterlimit:10;}</style></defs><path class="cls-1" d="M147.18,38.66c0,2.74-.89,1.53.62,4.82,1.64.38.19.71,1.85,1C161.18,46.5,174,47,185.77,47s24.6-.49,36.13-2.51c2-.36.87-.75,2.88-1.27.92-3.13,0-1.82,0-4.55-15.07,1.11-22.5,2.64-39,2.64S162.25,39.77,147.18,38.66Z"/><path class="cls-1" d="M142.49,41s3.23,6.24,19.38,15.89c8.8,5.25,19.4,9.64,24.5,9.64s11.48-.64,27.72-11S230.25,41,230.25,41l-4.48-2.31s-7.39,7.59-14.89,11.87-19.06,9.9-24.51,9.76c-4.23-.11-15.28-5.69-21.82-9.43-6.24-3.58-16.08-8.63-17.37-12.2Z"/></svg>