<svg id="Layer_1" data-name="Layer 1" xmlns="http://www.w3.org/2000/svg" viewBox="0 0 566.93 566.93"><defs><style>.cls-1{fill:#80cce8;}</style></defs><path class="cls-1" d="M171.11,375.07c-11.28.18-22.14,1.26-32.62,4.55-4.92,1.55-9.58,3.92-14.35,5.94-.53.22-1,.56-1.51.81-1.36.66-2,.28-1.83-1.26a13,13,0,0,1,.53-2.75,52,52,0,0,1,17.34-26,29.05,29.05,0,0,1,20.76-6.44c12.92.81,24.5,5.41,35,13a102.8,102.8,0,0,0,8.66,5.8c-2.16-3-4.31-6.05-6.49-9.06-6.23-8.62-14.05-15.66-22.34-22.21a111.94,111.94,0,0,1-28.8-34.8c-3.87-7.11-7.21-14.51-10.92-21.71-1.18-2.3-2.78-4.39-4.13-6.6a7,7,0,0,1-.55-1.66,6.71,6.71,0,0,1,1.59-.16,50.06,50.06,0,0,1,28.9,14.27c3.37,3.27,6.63,6.64,10,10-.76-2.51-1.44-5.14-2.36-7.68A234.07,234.07,0,0,0,149.05,249c-2.36-3.94-5.44-7.46-8.2-11.16-.27-.38-.7-.66-.9-1.07s-.59-1.22-.42-1.66,1-.54,1.55-.48a45.81,45.81,0,0,1,18.61,6.14c12.64,7.44,20.68,18.62,25.36,32.21,2.27,6.58,3.47,13.52,5.15,20.3a1.71,1.71,0,0,0,.49,1c0-.56,0-1.13,0-1.69-.05-6.06.12-12.12-.2-18.16a76.47,76.47,0,0,0-9.47-32.74c-1.69-3.09-3.69-6-5.5-9a4.77,4.77,0,0,1-.28-1.51,4.1,4.1,0,0,1,1.42.12c21.53,11.5,35.61,29.06,41.73,52.65,2.29,8.82,1.74,17.88-.47,26.8-2.06,8.3-6.13,15.7-9.63,23.38-5.2,11.44-5.43,22.84,2,33.59,3.69,5.34,11.47,15.75,11.47,15.75a37.75,37.75,0,0,1-.55,5.3,41.92,41.92,0,0,1-1.75,4.47s-7.74-6.31-12.29-8.75a24,24,0,0,0-16.38-2.74,13.13,13.13,0,0,0-6.76,3.3,6.91,6.91,0,0,0-1.33,8,6.23,6.23,0,0,0,6.81,3.52,11.38,11.38,0,0,1,2.44.23,8.18,8.18,0,0,1-1.53,2.08c-9.41,6.53-21.54,3.62-26.12-8.09-2.08-5.34.39-11.74,5.3-14.82Zm18.71-39.74.55-.13a6.91,6.91,0,0,0,0-.91c-.53-4.31-1.1-8.62-1.59-12.94-1.85-16.19-5.48-31.86-13.26-46.35-.78-1.45-1.64-2.86-2.46-4.29.55,2.18,1.41,4.18,2.06,6.24,3.7,11.61,6.63,23.41,9.22,35.31C186,320,188,327.64,189.82,335.33ZM203,279c-.31,2.47-.66,4.93-.91,7.39-.47,4.75-.71,9.52-1.35,14.24-1,7.72-2.42,15.39-3.52,23.09-.44,3.09-.54,6.22-.79,9.33l.64.06C201.75,315.39,205.63,297.58,203,279Zm-48.57,17.32c9.13,13.1,19.12,25.54,28.91,38.15C176.71,319.45,166.55,307.14,154.42,296.31Zm28.73,73.16c-7.57-7.35-29.11-8.19-38.72-1.5C157.52,365.45,170.31,366.57,183.15,369.47Z"/><path class="cls-1" d="M378.88,157.74c1.34-3.09,2.69-6.17,4-9.27,5.14-12.13,12.58-22.59,23.1-30.58,10.7-8.12,22.72-12.54,36.37-11.52a8.07,8.07,0,0,1,2.14.76,6.59,6.59,0,0,1-1.2,2,83.58,83.58,0,0,0-13.7,12.74q-8.25,10-16.13,20.32c-3.58,4.69-6.91,9.58-10.16,14.51a41,41,0,0,0-3.77,7.86c1.38-1.09,2.71-2.23,4.14-3.25,8.48-6,17.34-11.37,27.82-12.94,4.46-.67,9.05-.45,13.58-.59a1.74,1.74,0,0,1,1.07.49,2.86,2.86,0,0,1-.6,1.39c-3.63,4.1-7.4,8.07-10.92,12.26s-6.43,8.46-9.88,12.5c-12,14-25.87,25.59-42.85,33.22-12,5.42-22.11,13.67-31.4,22.93-.27.27-.51.57-.75.86,0,0,0,.07,0,0,4.53-2,9-4.05,13.62-5.86a70.9,70.9,0,0,1,29.1-4.73c11.12.46,20.6,4.44,27.59,13.57a55.78,55.78,0,0,1,8.5,16.53,39.94,39.94,0,0,1,2.31,14.5,22.63,22.63,0,0,1-.5,2.57c-14.23-12.69-30.85-19.1-48.65-23l-.5.57a6.42,6.42,0,0,1,1.41.79c4.49,4.33,5.35,12,1.55,17-8.1,10.53-20.9,10.27-28.88,1.3a20.65,20.65,0,0,1-1.35-2,9.68,9.68,0,0,1,2.13-.15c1,.16,1.88.6,2.84.72a6.48,6.48,0,0,0,6.85-3.45,6.78,6.78,0,0,0-.79-8.1c-3.21-3.63-7.44-5.27-12.11-5.95-7.22-1-13.66,1.41-20,4.5.12-4-.25-10.13.64-13.34,5.08-4.1,11.22-9.69,14.55-15.43a32.23,32.23,0,0,0,4.25-22.41c-1.27-7.13-3-14.19-4.35-21.31-3.58-19,.83-36,12.57-51.24,9.26-12,20.58-21.49,34.71-27.3,3.62-1.49,7.4-2.62,11.12-3.84a5.85,5.85,0,0,1,1.95.05,6.43,6.43,0,0,1-.9,1.86,104,104,0,0,0-20.28,28.51c-3.87,7.81-5.63,16.26-7.26,24.74-.46,2.35-.89,4.7-1.33,7.05ZM403.81,136c-.59.49-.89.69-1.13.94A98.21,98.21,0,0,0,389,154.38c-7.18,11.64-12.21,24.25-16.68,37.12-1,2.94-2,5.91-3,8.87a1.21,1.21,0,0,0,.82-.66c2.4-4.66,4.91-9.27,7.16-14,7.05-14.8,14-29.67,22.3-43.8C400.76,140,402.23,138.23,403.81,136Zm-40.22,59.73c2.42-9.33,2-18.9,2.77-28.35s1.9-18.95,2.88-28.42l-.54-.06C362.43,157.47,362.42,176.58,363.59,195.77Zm13.6,4.63c5.8-3.82,37.24-31.1,38.32-33.25C403.71,173,381.18,192.51,377.19,200.4Zm33.55,43a41.52,41.52,0,0,0-23.61-9.73,49.29,49.29,0,0,0-17.8,2.5c7,.51,14,.79,20.92,1.59S403.83,240.66,410.74,243.38Z"/></svg>