<svg width="85" height="106" viewBox="0 0 85 106" fill="none" xmlns="http://www.w3.org/2000/svg">
<path d="M15.3167 75.1442C12.5901 75.1901 9.96272 75.4486 7.42728 76.246C6.23698 76.6181 5.10959 77.1932 3.95316 77.6788C3.82735 77.732 3.71123 77.8166 3.59026 77.8745C3.26123 78.034 3.1064 77.9422 3.14511 77.5725C3.16467 77.3472 3.20764 77.1245 3.27333 76.908C3.9953 74.4341 5.4605 72.2412 7.47083 70.6259C8.87907 69.4771 10.6789 68.9192 12.4909 69.0698C15.6191 69.2679 18.4206 70.377 20.9585 72.2109C21.6335 72.6941 22.3109 73.1774 23.0536 73.6147C22.531 72.8899 22.0109 72.165 21.4859 71.4256C19.9787 69.3404 18.0989 67.6418 16.0812 66.0568C13.2087 63.7573 10.8369 60.8959 9.11112 57.6483C8.16517 55.911 7.35712 54.123 6.46198 52.3833C6.1765 51.8276 5.78941 51.325 5.46039 50.7886C5.40129 50.6602 5.35666 50.5257 5.32732 50.3875C5.45435 50.3592 5.5843 50.3463 5.71441 50.3489C8.36213 50.6978 10.8202 51.9108 12.7062 53.7992C13.5191 54.5869 14.3102 55.4012 15.1255 56.2155C14.9417 55.6114 14.7796 54.9759 14.5546 54.3622C13.3432 50.9948 11.8146 47.7497 9.98933 44.6707C9.41838 43.7042 8.67323 42.8682 8.0055 41.9718C7.92503 41.8926 7.85213 41.806 7.78776 41.7133C7.72728 41.5876 7.6426 41.4209 7.68373 41.3146C7.72486 41.2083 7.92566 41.1841 8.05872 41.1962C9.64892 41.3613 11.1847 41.8674 12.5611 42.6797C15.6215 44.4774 17.5642 47.1812 18.6988 50.4624C19.2456 52.0523 19.5359 53.7316 19.9424 55.3698C19.9553 55.4608 19.9968 55.5454 20.0609 55.6114C20.0609 55.4737 20.0609 55.3384 20.0609 55.2006C20.0609 53.7388 20.0924 52.2722 20.0125 50.8128C19.8564 48.037 19.0731 45.3325 17.7214 42.902C17.315 42.1554 16.8311 41.4523 16.3932 40.7274C16.3493 40.6115 16.3256 40.4889 16.3231 40.365C16.4384 40.3519 16.5552 40.3617 16.6666 40.394C21.8778 43.1727 25.2818 47.4131 26.7648 53.1154C27.3164 55.2441 27.1858 57.4332 26.6487 59.5909C26.1503 61.594 25.1657 63.382 24.3213 65.2377C23.0609 68.0042 23.0052 70.7563 24.8052 73.3538C25.6979 74.644 27.5801 77.1618 27.5801 77.1618C27.566 77.5904 27.5215 78.0175 27.4471 78.4399C27.3267 78.8077 27.1854 79.1683 27.0237 79.52C27.0237 79.52 25.1487 77.9978 24.0504 77.4058C22.8493 76.7169 21.4412 76.4795 20.0803 76.7365C19.4691 76.8365 18.9007 77.1128 18.4448 77.5314C18.1951 77.7793 18.0299 78.0995 17.9725 78.4464C17.9152 78.7934 17.9687 79.1495 18.1255 79.4644C18.2651 79.7694 18.503 80.0189 18.8012 80.173C19.0994 80.3272 19.4407 80.3772 19.7706 80.3149C19.9688 80.3132 20.1666 80.3318 20.3609 80.3705C20.2663 80.5568 20.1421 80.7265 19.9932 80.8731C17.7142 82.4533 14.7796 81.7502 13.6739 78.9184C13.1683 77.6281 13.7659 76.0841 14.9562 75.3399C15.0505 75.2868 15.1497 75.2336 15.3167 75.1442ZM19.8383 65.53L19.9714 65.4986C19.9714 65.4261 19.9714 65.3512 19.9714 65.2787C19.8456 64.2373 19.7053 63.1959 19.5867 62.1546C19.1416 58.2427 18.2634 54.454 16.3787 50.9529C16.19 50.6026 15.982 50.2619 15.7836 49.9164C15.9191 50.4431 16.1247 50.9263 16.2844 51.4241C17.1771 54.2293 17.9029 57.0829 18.5174 59.9582C18.9238 61.8235 19.4004 63.6719 19.8383 65.53ZM23.0222 51.9194C22.9496 52.5138 22.8649 53.1082 22.8044 53.705C22.6907 54.8503 22.6326 56.0052 22.4754 57.1457C22.2214 59.0086 21.8923 60.8619 21.6238 62.7248C21.5173 63.469 21.4931 64.2253 21.4327 64.9767L21.5899 64.9912C22.7415 60.7121 23.6705 56.4088 23.0294 51.9194H23.0222ZM11.2788 56.1043C13.4901 59.2672 15.907 62.2754 18.273 65.3198C16.6739 61.6955 14.2134 58.7138 11.2788 56.1043ZM18.2295 73.779C16.4005 72.0031 11.1893 71.8001 8.86194 73.4166C12.0312 72.8101 15.1231 73.0783 18.2295 73.779Z" fill="#BE986A"/>
<path d="M65.585 22.6203C65.9068 21.8736 66.2358 21.1294 66.5528 20.3804C67.7963 17.4495 69.5987 14.9221 72.1438 12.994C74.73 11.0296 77.638 9.96163 80.9428 10.2081C81.1224 10.2476 81.2963 10.3093 81.4605 10.3917C81.3638 10.5536 81.3081 10.7638 81.1702 10.875C79.9547 11.7744 78.8423 12.8051 77.8533 13.9484C76.5251 15.56 75.2187 17.1958 73.9534 18.8582C73.0873 19.9914 72.2793 21.1729 71.493 22.3641C71.1227 22.9633 70.817 23.5999 70.5809 24.2633C70.9148 23.9999 71.239 23.7245 71.5849 23.478C73.6341 22.0283 75.7776 20.7308 78.3154 20.3514C79.392 20.1919 80.4928 20.2451 81.6009 20.2113C81.6904 20.2113 81.8621 20.3031 81.8573 20.3297C81.8405 20.452 81.7903 20.5674 81.7122 20.6631C80.8339 21.6538 79.9219 22.6154 79.0703 23.6254C78.2187 24.6354 77.5146 25.672 76.6824 26.6457C73.7792 30.0284 70.4237 32.8288 66.3133 34.6724C63.398 35.982 60.9642 37.9754 58.719 40.2128C58.6537 40.2781 58.5957 40.3505 58.5352 40.4206C59.6335 39.9374 60.7126 39.442 61.8303 39.0047C64.0705 38.1335 66.4692 37.7433 68.8705 37.8594C71.5632 37.9706 73.8542 38.9322 75.5477 41.1382C76.4521 42.3453 77.1472 43.6954 77.6042 45.1323C78.0058 46.2555 78.1945 47.4436 78.1606 48.6358C78.1337 48.845 78.0941 49.0524 78.0421 49.2568C74.5994 46.1906 70.5761 44.6418 66.2721 43.6994L66.1487 43.8372C66.2708 43.8862 66.3862 43.9503 66.4923 44.028C67.5785 45.0743 67.7866 46.9275 66.8649 48.1356C64.9076 50.6823 61.8109 50.6195 59.8803 48.4497C59.7615 48.2956 59.6525 48.1342 59.5537 47.9665C59.7228 47.9355 59.8948 47.9233 60.0666 47.9303C60.3085 47.9689 60.5214 48.0752 60.7537 48.1066C61.0833 48.1611 61.4218 48.1095 61.7202 47.9592C62.0185 47.8089 62.2613 47.5678 62.4133 47.2706C62.5977 46.9679 62.6785 46.6136 62.6436 46.261C62.6087 45.9084 62.46 45.5767 62.2198 45.3159C61.4432 44.4364 60.4198 44.0401 59.2924 43.8662C57.5457 43.6245 55.9876 44.2068 54.4538 44.951C54.4804 43.9846 54.3933 42.5034 54.6062 41.7302C55.8376 40.7371 57.3207 39.3865 58.1287 38.002C59.1147 36.3918 59.4818 34.4788 59.1618 32.6186C58.8545 30.8934 58.436 29.1876 58.1094 27.4672C57.2457 22.8764 58.3126 18.7688 61.1504 15.0864C63.3931 12.187 66.1294 9.89639 69.5503 8.49014C70.4261 8.13012 71.3382 7.85709 72.2406 7.56473C72.3967 7.53832 72.5562 7.53832 72.7123 7.56473C72.6647 7.7258 72.5903 7.87772 72.4922 8.01414C70.4808 10.0187 68.8221 12.3476 67.5858 14.9028C66.6519 16.7899 66.2237 18.8316 65.8294 20.8806C65.7205 21.4484 65.6165 22.0162 65.51 22.5864L65.585 22.6203ZM71.6115 17.377C71.4688 17.4954 71.3986 17.5438 71.3382 17.6042C70.0813 18.8772 68.972 20.2875 68.031 21.8084C66.2891 24.6209 65.0794 27.6702 63.998 30.7774C63.756 31.5023 63.5141 32.2054 63.2722 32.9206C63.3151 32.9107 63.3553 32.8912 63.3896 32.8636C63.424 32.836 63.4517 32.801 63.4706 32.7612C64.0512 31.6352 64.6584 30.5213 65.2028 29.3784C66.8963 25.8024 68.5898 22.2095 70.5954 18.7954C70.8857 18.3266 71.2341 17.9062 71.6115 17.377ZM61.8859 31.8116C62.469 29.5548 62.3698 27.2449 62.5536 24.9592C62.7375 22.6734 63.0157 20.3683 63.2504 18.0922H63.1198C61.6053 22.555 61.6029 27.1748 61.8859 31.8116ZM65.1762 32.9279C66.5794 32.0049 74.1833 25.4134 74.4445 24.8939C71.5922 26.2978 66.1391 31.0239 65.1762 32.9279ZM73.2905 43.3177C71.6809 41.9545 69.6825 41.1319 67.5785 40.9667C66.1182 40.9039 64.6587 41.1087 63.2722 41.5707C64.9657 41.694 66.6592 41.7616 68.3334 41.9549C70.0075 42.1482 71.6115 42.6556 73.2905 43.3128V43.3177Z" fill="#BE986A"/>
</svg>
