<svg id="Layer_1" data-name="Layer 1" xmlns="http://www.w3.org/2000/svg" viewBox="0 0 351.34 438.7"><defs><style>.cls-1{fill:#9ac552;}</style></defs><path class="cls-1" d="M63.31,311c-11.27.19-22.13,1.26-32.61,4.56-4.92,1.54-9.58,3.92-14.36,5.93-.52.22-1,.57-1.5.81-1.36.66-2,.28-1.84-1.25a13.5,13.5,0,0,1,.53-2.75,52.07,52.07,0,0,1,17.35-26,29,29,0,0,1,20.75-6.44c12.93.82,24.51,5.41,35,13,2.79,2,5.59,4,8.66,5.81-2.16-3-4.31-6-6.48-9.06-6.23-8.63-14-15.66-22.34-22.22a111.72,111.72,0,0,1-28.81-34.8C33.75,231.4,30.41,224,26.71,216.8c-1.18-2.3-2.78-4.38-4.14-6.6a7.89,7.89,0,0,1-.55-1.66,6.74,6.74,0,0,1,1.6-.16,50.07,50.07,0,0,1,28.9,14.28c3.36,3.26,6.63,6.63,10,10-.76-2.5-1.43-5.13-2.36-7.67a234.07,234.07,0,0,0-18.87-40.11c-2.36-4-5.44-7.46-8.2-11.17a7.51,7.51,0,0,1-.9-1.07c-.25-.52-.6-1.21-.43-1.65s1-.54,1.55-.49a45.91,45.91,0,0,1,18.61,6.14c12.65,7.44,20.68,18.63,25.37,32.21,2.26,6.58,3.46,13.53,5.14,20.31a1.8,1.8,0,0,0,.49,1c0-.57,0-1.13,0-1.7,0-6.05.13-12.12-.2-18.16a76.23,76.23,0,0,0-9.47-32.74c-1.68-3.09-3.68-6-5.49-9a4.5,4.5,0,0,1-.29-1.5,3.63,3.63,0,0,1,1.42.12c21.54,11.5,35.61,29.05,41.74,52.65,2.28,8.81,1.74,17.87-.48,26.8-2.06,8.29-6.13,15.69-9.62,23.37-5.21,11.45-5.44,22.84,2,33.59,3.69,5.34,11.47,15.76,11.47,15.76a37.66,37.66,0,0,1-.55,5.29,41.92,41.92,0,0,1-1.75,4.47s-7.75-6.3-12.29-8.75A24,24,0,0,0,83,317.59a13.12,13.12,0,0,0-6.76,3.29,6.93,6.93,0,0,0-1.32,8,6.21,6.21,0,0,0,6.8,3.52,11.93,11.93,0,0,1,2.44.23,8,8,0,0,1-1.52,2.08c-9.42,6.54-21.55,3.63-26.12-8.09-2.09-5.34.38-11.73,5.3-14.81C62.21,311.59,62.62,311.37,63.31,311ZM82,271.21l.55-.13c0-.3,0-.61,0-.91-.52-4.31-1.1-8.62-1.59-12.93-1.84-16.19-5.47-31.87-13.26-46.36-.78-1.45-1.64-2.86-2.46-4.29.56,2.18,1.41,4.18,2.07,6.24C71,224.44,74,236.25,76.54,248.15,78.22,255.87,80.19,263.52,82,271.21Zm13.16-56.33c-.3,2.46-.65,4.92-.9,7.39-.47,4.74-.71,9.52-1.36,14.24-1.05,7.71-2.41,15.38-3.52,23.09-.44,3.08-.54,6.21-.79,9.32l.65.06C94,251.27,97.84,233.46,95.19,214.88ZM46.62,232.2c9.14,13.09,19.13,25.54,28.91,38.14C68.92,255.34,58.75,243,46.62,232.2Zm28.73,73.15c-7.56-7.35-29.1-8.19-38.72-1.5C49.73,301.34,62.51,302.45,75.35,305.35Z"/><path class="cls-1" d="M271.09,93.62c1.33-3.09,2.69-6.17,4-9.27,5.14-12.13,12.59-22.59,23.11-30.57,10.69-8.13,22.71-12.55,36.37-11.53a9.15,9.15,0,0,1,2.14.76c-.4.67-.63,1.54-1.2,2A84.94,84.94,0,0,0,321.8,57.73c-5.49,6.67-10.89,13.44-16.12,20.32-3.58,4.69-6.92,9.58-10.17,14.51a41.31,41.31,0,0,0-3.77,7.86c1.38-1.09,2.72-2.23,4.15-3.25,8.47-6,17.33-11.37,27.82-12.94,4.45-.66,9-.44,13.58-.58.37,0,1.08.38,1.06.49a2.78,2.78,0,0,1-.6,1.38c-3.63,4.1-7.4,8.08-10.92,12.26s-6.43,8.47-9.87,12.5c-12,14-25.87,25.59-42.86,33.22-12.05,5.42-22.11,13.67-31.39,22.93-.27.27-.51.57-.76.86,0,0,0,.07,0,0,4.54-2,9-4.05,13.62-5.86a70.77,70.77,0,0,1,29.1-4.74c11.13.46,20.6,4.44,27.6,13.57a55.78,55.78,0,0,1,8.5,16.53,39.75,39.75,0,0,1,2.3,14.5,21.67,21.67,0,0,1-.49,2.57c-14.23-12.69-30.86-19.1-48.65-23l-.51.57a6.5,6.5,0,0,1,1.42.79c4.49,4.33,5.35,12,1.54,17-8.09,10.54-20.89,10.28-28.87,1.3a19.49,19.49,0,0,1-1.35-2,9.59,9.59,0,0,1,2.12-.15c1,.16,1.88.6,2.84.73a6.51,6.51,0,0,0,6.86-3.46,6.76,6.76,0,0,0-.8-8.09c-3.21-3.64-7.44-5.28-12.1-6-7.22-1-13.66,1.41-20,4.49.11-4-.25-10.13.63-13.33,5.09-4.11,11.22-9.7,14.56-15.43A32.24,32.24,0,0,0,244.54,135c-1.27-7.14-3-14.2-4.35-21.32-3.57-19,.84-36,12.57-51.24,9.27-12,20.58-21.48,34.72-27.3,3.62-1.49,7.39-2.62,11.12-3.83a5.84,5.84,0,0,1,1.95,0,6.2,6.2,0,0,1-.91,1.86,104.52,104.52,0,0,0-20.28,28.51c-3.86,7.81-5.63,16.26-7.26,24.74-.45,2.35-.88,4.7-1.32,7.06ZM296,71.92c-.59.49-.88.69-1.13.94a98.62,98.62,0,0,0-13.67,17.4C274,101.9,269,114.52,264.53,127.38c-1,3-2,5.91-3,8.87a1.21,1.21,0,0,0,.82-.66c2.4-4.66,4.91-9.27,7.16-14,7-14.8,14-29.67,22.29-43.8C293,75.85,294.44,74.11,296,71.92ZM255.8,131.66c2.41-9.34,2-18.9,2.76-28.36s1.91-19,2.88-28.42l-.54,0C254.64,93.35,254.63,112.47,255.8,131.66Zm13.6,4.62c5.8-3.82,37.23-31.1,38.31-33.25C295.92,108.84,273.38,128.4,269.4,136.28Zm33.54,43a41.54,41.54,0,0,0-23.61-9.73,49.51,49.51,0,0,0-17.8,2.5c7,.51,14,.79,20.92,1.59S296,176.54,302.94,179.26Z"/></svg>