<svg id="Layer_1" data-name="Layer 1" xmlns="http://www.w3.org/2000/svg" viewBox="0 0 566.93 566.93"><defs><style>.cls-1{fill:#233565;}</style></defs><path class="cls-1" d="M404.88,104.57c3.79-3.17,8-4.57,12.42-5.55,13.25-3,24.26,1.15,33,11.12,7.11,8.06,8.26,22.73,2.94,32.09a19.83,19.83,0,0,1-9.21,8.09,2,2,0,0,1-2.39-.13c-.73-.73.05-1.4.32-2.05,3.56-8.47,1.67-17.92-4.55-22.74-7.72-6-17.86-6.17-25.29.16C398.72,137,393.88,151.73,396.78,169c1.52,9,6,19.61,10.24,25.44-3-.37-4.85-2.56-7-4.09-13.92-10-20.32-23.87-21.59-40.81-.82-11.08,1.79-21.38,4.82-31.69,3.53-12,4.43-24.08,1.28-36.31-1.94-7.59-5.13-14.37-12-18.85-7.82-5.11-20.34-.88-20.7,10.2-.07,2.08-.63,1.92-2.07,1.06-5.87-3.53-7.51-12.56-3.41-19.14,5.31-8.54,15.83-12.61,27.05-10.33,14.3,2.91,23.25,12,28.79,25,4.1,9.66,3.66,19.73,2.74,29.84-.12,1.23-.18,2.45-.23,3.68A14,14,0,0,0,404.88,104.57Z"/><path class="cls-1" d="M162.05,104.57c-3.79-3.17-8-4.57-12.42-5.55-13.26-3-24.26,1.15-33,11.12-7.1,8.06-8.25,22.73-2.93,32.09a19.83,19.83,0,0,0,9.21,8.09,2,2,0,0,0,2.39-.13c.73-.73-.05-1.4-.32-2.05-3.56-8.47-1.67-17.92,4.55-22.74,7.72-6,17.86-6.17,25.29.16C168.21,137,173.05,151.73,170.15,169c-1.52,9-6,19.61-10.24,25.44,3-.37,4.85-2.56,7-4.09,13.92-10,20.32-23.87,21.58-40.81.83-11.08-1.78-21.38-4.81-31.69-3.53-12-4.43-24.08-1.28-36.31,1.94-7.59,5.12-14.37,12-18.85,7.82-5.11,20.34-.88,20.7,10.2.06,2.08.63,1.92,2.07,1.06,5.87-3.53,7.51-12.56,3.41-19.14-5.32-8.54-15.83-12.61-27-10.33-14.3,2.91-23.25,12-28.79,25C160.6,79.15,161,89.22,162,99.33c.12,1.23.18,2.45.23,3.68A14,14,0,0,1,162.05,104.57Z"/><path class="cls-1" d="M276.23,413.73V409l-.17.5L260.86,357h0c-.08,1.47-.16,2.94-.23,4.41h0a8.21,8.21,0,0,0-.4,1.34,153.08,153.08,0,0,1-20.86,60C235,430,229.69,436.56,222,440.69a21.53,21.53,0,0,1-14.68,2.62c-9.4-1.76-12.11-14.39-6.64-20.26.81-.87,1.6-1.75,2.52-2.75-3.79-.74-9.58.87-12.21,3.18-6.86,6-9.49,13.59-7.37,22.43,1.46,6.08,4.18,11.88,10.1,14.74a36,36,0,0,0,25.09,2.72c3.72-.94,7.39-2.05,11.49-3.43-5.28,7.41-10.92,13.57-18.57,17.53-5.8,3-11.83,4.12-18.34,2.31-9-2.5-17.31-6.43-25.68-10.35a71.86,71.86,0,0,0-13.2-5c-13.48-3.31-25.43,1.81-31.52,13.77-3.3,6.5-3.76,13.54-3,20.72,1.72,16.52,18.57,27.94,34.33,23.05a22.91,22.91,0,0,0,11.53-8.15c-8.74,2.28-14.65,1.31-20-3.13a15,15,0,0,1,3.62-25.44c5.45-2.39,11-2.35,16.63-.81,9.81,2.68,19.49,5.91,29.6,7.43,8.42,1.27,16.29.39,23.53-4.65A77.18,77.18,0,0,0,232,476.47c15.19-16.34,27.67-34.66,39-53.82,1.71-2.9,3.32-5.85,5.18-9.13Z"/><path class="cls-1" d="M290.48,413.73V409l.17.5L305.85,357h0c.08,1.47.16,2.94.23,4.41h0a7.33,7.33,0,0,1,.4,1.34,152.93,152.93,0,0,0,20.87,60c4.36,7.24,9.67,13.79,17.32,17.92a21.54,21.54,0,0,0,14.68,2.62c9.41-1.76,12.11-14.39,6.64-20.26-.81-.87-1.6-1.75-2.52-2.75,3.79-.74,9.58.87,12.21,3.18,6.86,6,9.49,13.59,7.37,22.43-1.46,6.08-4.18,11.88-10.1,14.74a36,36,0,0,1-25.09,2.72c-3.72-.94-7.39-2.05-11.49-3.43,5.28,7.41,10.92,13.57,18.58,17.53,5.79,3,11.82,4.12,18.33,2.31,9-2.5,17.31-6.43,25.68-10.35a71.86,71.86,0,0,1,13.2-5c13.48-3.31,25.43,1.81,31.52,13.77,3.3,6.5,3.77,13.54,3,20.72C445,515.43,428.13,526.85,412.37,522a22.91,22.91,0,0,1-11.53-8.15c8.74,2.28,14.66,1.31,20-3.13a15,15,0,0,0-3.62-25.44c-5.45-2.39-11-2.35-16.63-.81-9.81,2.68-19.49,5.91-29.6,7.43-8.42,1.27-16.29.39-23.53-4.65a77.18,77.18,0,0,1-12.75-10.74c-15.19-16.34-27.66-34.66-39-53.82-1.71-2.9-3.32-5.85-5.18-9.13Z"/><path class="cls-1" d="M216.82,411.85c.91.62,1.83,1.22,2.76,1.81,0,0-29.29-56.49-33-102.44-.93-11.59-1.57-23.16-2.14-34.75-.66-13.32-2.58-26.43-8.8-38.43-6.82-13.14-17.12-21.6-32.58-21.93-13.79-.3-26.25,9.19-29,21.71-2.06,9.24,2.46,17.22,11.11,19.59.47-.67,0-1.3-.2-1.87-3-9.75,5.24-17.15,13.1-17.28s13.46,4,17.68,10.29c7.08,10.55,9.64,22.54,10.56,34.9.75,10.23-.74,20.7,1.19,30.78,8.08,42.17,18.64,58.31,26.29,73.25,4.57,8.91,14.19,18.84,21.19,23.66A3.22,3.22,0,0,1,216.82,411.85Z"/><path class="cls-1" d="M350.11,411.85c-.91.62-1.83,1.22-2.76,1.81,0,0,29.29-56.49,32.95-102.44.92-11.59,1.57-23.16,2.14-34.75.66-13.32,2.58-26.43,8.8-38.43,6.82-13.14,17.12-21.6,32.58-21.93,13.79-.3,26.25,9.19,29,21.71,2.06,9.24-2.46,17.22-11.12,19.59-.46-.67,0-1.3.21-1.87,3-9.75-5.24-17.15-13.11-17.28s-13.45,4-17.67,10.29c-7.08,10.55-9.65,22.54-10.56,34.9-.75,10.23.74,20.7-1.19,30.78-8.08,42.17-18.64,58.31-26.29,73.25-4.57,8.91-14.19,18.84-21.19,23.66A3.22,3.22,0,0,0,350.11,411.85Z"/></svg>