<svg id="Layer_1" data-name="Layer 1" xmlns="http://www.w3.org/2000/svg" viewBox="0 0 566.93 566.93"><defs><style>.cls-1{fill:#80cce8;}</style></defs><path class="cls-1" d="M285,336.21c-.57-9.59-1.06-18.9-1.71-28.2-.14-1.89.44-2.46,2.22-2.38,13.68.61,27.37,1.17,41.06,1.81,3,.14,3.24.75,2.74,3.39-1.26,6.7-2.87,13.41-3.3,20.19-.77,12.3-.77,24.65-1.12,37-.14,4.62-.31,9.24-.55,13.86a2.49,2.49,0,0,1-.95,1.85c-8.73,4.13-14.79,11.24-20.67,18.5-8,9.9-13.89,21.13-19.52,32.49a18.59,18.59,0,0,1-1.25,2.53,15,15,0,0,1-1.87,1.87c-.51-.91-1.49-1.84-1.44-2.71.21-3.58.79-7.13,1.12-10.7.7-7.5,1.54-15,1.94-22.5C282.92,380.78,283.94,358.37,285,336.21Z"/><path class="cls-1" d="M224.85,358.52c7.54.31,15,.64,22.38.92s14.55.49,21.82.75c2.49.09,2.77.5,1.73,2.77-3.78,8.28-5.25,17.14-6.57,26-2.36,15.93-2,31.94-.42,47.9a167,167,0,0,0,7.44,35.32,26.4,26.4,0,0,1,1.14,4.72,2.1,2.1,0,0,1-.92,1.8c-.46.18-1.47-.33-1.84-.83-9.77-13.18-21.65-24.21-34.54-34.26-5.06-3.95-10.16-8-13.38-13.69-3.88-6.85-3.85-14.28-2.24-21.69,1.38-6.34,3.57-12.51,4.74-18.88a84.26,84.26,0,0,0,.62-29.88A4.68,4.68,0,0,1,224.85,358.52Z"/><path class="cls-1" d="M334.75,207.72c-.94,3.79-2.1,7.21-2.57,10.73-.88,6.43-1.55,12.91-1.94,19.39-1,17-1.75,34-.65,51.09a75.74,75.74,0,0,0,1.63,8.86l-47.46-2.14c.4-2.26.94-4.47,1.17-6.71.89-9.1,2.11-18.2,2.43-27.33.44-12.83.46-25.69.13-38.53-.13-5.13-1.56-10.26-2.65-15.33-.58-2.72-.4-3.32,2.4-3.16q22.31,1.2,44.62,2.52A19,19,0,0,1,334.75,207.72Z"/><path class="cls-1" d="M228,262.39c4.43-.36,8.66-.77,12.9-1.05,10.6-.67,21.2-1.26,31.79-1.95,2.31-.15,2.83.44,2.54,2.9-1.12,9.43-2.2,18.87-2.72,28.34-.69,12.39-1.12,24.82-1.07,37.23,0,7.49,1.13,15,1.85,22.46.27,2.74,0,3.24-2.69,3.14-14.38-.53-28.75-1.1-43.13-1.61-1.64-.06-2.25-.36-1.86-2.26,1.41-6.77,3-13.53,3.76-20.39,1-9.27,1.38-18.61,1.57-27.93.16-8.29-.08-16.6-.58-24.88C230.09,271.92,228.89,267.5,228,262.39Z"/><path class="cls-1" d="M228.09,252.59a287.41,287.41,0,0,0-6-86.81l48.61-6.25c-.34,4.75-1,8.91-.89,13.05.49,14.28,1.33,28.55,1.93,42.83a161.15,161.15,0,0,0,4.11,30.45c.83,3.48.39,3.62-3.17,3.83C258,250.59,243.36,251.59,228.09,252.59Z"/><path class="cls-1" d="M335.89,200.11,285.24,197a74.25,74.25,0,0,0,1.81-8.79c.91-10.32,1.81-20.61,4.56-30.67,7.13-26.1,22.3-45.74,46.64-57.91,5.26-2.63,10.86-4.59,16.34-6.77a6.28,6.28,0,0,1,2.35.08c-.05.7.14,1.55-.18,2.09-9.75,16.24-14.43,34.27-18.37,52.52-2.71,12.48-4.5,25.12-4.19,37.95.1,3.9.81,7.79,1.25,11.69C335.55,198.07,335.72,199,335.89,200.11ZM325.14,126a9.91,9.91,0,0,0-1.33.94c-13.62,13.19-23.26,28.63-26.57,47.56-.5,2.88-.48,5.86-.7,8.79l.71,0C303.77,162.91,313.4,144,325.14,126Z"/><path class="cls-1" d="M270.15,152.2l-50.09,6.49c.18-1.67.54-3.57.57-5.46.23-20.77-1.86-41.18-9.95-60.58-2.53-6.07-5.22-12.07-7.75-18.14a9.94,9.94,0,0,1-.27-2.86,12.84,12.84,0,0,1,2.65.17,123.14,123.14,0,0,1,41.83,20.57c12.72,9.62,18.76,22.22,19.6,37.77a111.23,111.23,0,0,0,.72,11.27A110.77,110.77,0,0,0,270.15,152.2Z"/><path class="cls-1" d="M341.19,394.23a9.15,9.15,0,0,1-1.3,2.53c-10.74,10.85-17,24.42-23.41,38-5.7,12-11.34,24.14-18,35.63-4.22,7.24-10.28,13.41-15.52,20.06a37.46,37.46,0,0,1-2.73,3.39,11.19,11.19,0,0,1-2.43,1.48c-.38-.86-1.1-1.73-1.08-2.58a132.35,132.35,0,0,1,4.06-28.34c4.62-18.08,12.32-34.6,25.06-48.42,8.91-9.66,19.1-17.63,31.84-21.76a25.24,25.24,0,0,1,2.9-.59Z"/></svg>