<svg id="Layer_1" data-name="Layer 1" xmlns="http://www.w3.org/2000/svg" viewBox="0 0 566.93 566.93"><defs><style>.cls-1{fill:#ce433a;}</style></defs><path class="cls-1" d="M155.25,249.6c-6.8-3-13.69-5.06-21.19-5-22.78.23-39.13,22.54-32.4,44.27,2.91,9.4,8.55,16.52,17.62,20.44,8.17,3.53,20.4,2.7,26.34-6.7,3.1-4.92,2.26-11.66-1.89-14.57-2.31-1.62-2.95-1.34-3.27,1.4-.75,6.41-8.37,9.82-14.35,6.41-10-5.68-10.28-18.83-.48-26.45,6.22-4.83,13.4-5.53,20.8-3.88,17.09,3.8,29.33,14.7,39.85,27.9,4.05,5.08,7.56,10.58,9.36,16.94,2,6.89,1.79,13.56-3,19.37-3.24,3.91-7.36,6.2-12.69,5.43-3.43-.5-5.53-2.47-6.47-6.3A8.92,8.92,0,0,0,182.1,330a9.93,9.93,0,0,0,6.2-5.78c3.69-8.51-.72-14.44-6.48-16.95-7.41-3.24-14.36-2.19-20.34,3.21-6.27,5.66-8.31,13-6.39,21.09,2.21,9.31,8.8,14.68,17.5,17.58,15.26,5.07,32.63-.19,41.37-17,4-7.76,4.89-16.28,4.56-25-.27-6.88-.82-13.75,0-20.65,1.47-11.59,8.32-20.76,20.76-22.22,2.62-.3,1.59-1.68.71-2.75-4.42-5.4-10.32-7.61-17.11-7.54-11.46.13-20.7,7.44-24.1,18.76a41.35,41.35,0,0,0-1.51,11.53c-6.16-12.58-14.63-23.1-22.9-33.76-5.61-7.23-10.87-14.65-14.23-23.27-7.13-18.28.83-39.74,17.72-47.51A28.41,28.41,0,0,1,214,191.19c4.06,7.08,3.4,18.09-1.44,24-3.53,4.33-7.63,5.35-13.1,3.09,3.74-1.7,5.52-4.76,6.15-8.46,1.24-7.16-5.17-12.89-13.14-11.89-8.68,1.09-14.88,9.7-13.45,19.07,1.36,8.94,6.72,14.5,15.09,17.72,13.43,5.17,31.52.33,40-17.34,7.81-16.24,3.19-36.82-9.92-48.9-14.94-13.78-32.52-18.68-52.25-12-11.37,3.85-19.9,11.77-26.06,21.88-8.73,14.31-11.35,29.65-5.85,45.86a69.31,69.31,0,0,0,12.14,21.62C153.19,247.13,154.23,248.36,155.25,249.6Z"/><path class="cls-1" d="M411.67,249.6c6.81-3,13.7-5.06,21.2-5,22.78.23,39.13,22.54,32.4,44.27-2.91,9.4-8.55,16.52-17.62,20.44-8.17,3.53-20.4,2.7-26.34-6.7-3.1-4.92-2.26-11.66,1.89-14.57,2.31-1.62,2.95-1.34,3.27,1.4.75,6.41,8.36,9.82,14.35,6.41,10-5.68,10.28-18.83.48-26.45-6.22-4.83-13.4-5.53-20.8-3.88-17.09,3.8-29.33,14.7-39.85,27.9-4,5.08-7.56,10.58-9.36,16.94-2,6.89-1.79,13.56,3,19.37,3.25,3.91,7.37,6.2,12.7,5.43,3.43-.5,5.53-2.47,6.47-6.3a8.92,8.92,0,0,1-8.64,1.11,9.93,9.93,0,0,1-6.2-5.78c-3.7-8.51.72-14.44,6.47-16.95,7.42-3.24,14.37-2.19,20.35,3.21,6.27,5.66,8.31,13,6.39,21.09-2.21,9.31-8.8,14.68-17.5,17.58-15.26,5.07-32.63-.19-41.37-17-4-7.76-4.89-16.28-4.56-25,.27-6.88.82-13.75-.06-20.65-1.46-11.59-8.31-20.76-20.75-22.22-2.62-.3-1.59-1.68-.71-2.75,4.42-5.4,10.32-7.61,17.11-7.54,11.46.13,20.7,7.44,24.1,18.76a41.35,41.35,0,0,1,1.51,11.53c6.16-12.58,14.63-23.1,22.9-33.76,5.61-7.23,10.87-14.65,14.23-23.27,7.13-18.28-.83-39.74-17.72-47.51a28.41,28.41,0,0,0-36.08,11.48c-4.06,7.08-3.4,18.09,1.44,24,3.53,4.33,7.63,5.35,13.1,3.09-3.74-1.7-5.52-4.76-6.16-8.46C360.09,202.7,366.5,197,374.47,198c8.68,1.09,14.88,9.7,13.45,19.07-1.36,8.94-6.72,14.5-15.09,17.72-13.43,5.17-31.52.33-40-17.34-7.81-16.24-3.19-36.82,9.92-48.9,14.94-13.78,32.52-18.68,52.24-12,11.38,3.85,19.9,11.77,26.07,21.88,8.73,14.31,11.35,29.65,5.85,45.86a69.31,69.31,0,0,1-12.14,21.62C413.74,247.13,412.7,248.36,411.67,249.6Z"/><path class="cls-1" d="M277.64,321.79A229,229,0,0,0,278,407c1.08,5.47,8.92,5.43,9.85-.07,3.38-19.95,6.32-51.74-.36-85.12C286.39,316.39,278.65,316.36,277.64,321.79Z"/><path class="cls-1" d="M282.92,445.52s-24.8-10.24-31.2-18.77S232,415,233.25,423.69s38.09,54,49.4,54Z"/><path class="cls-1" d="M282.92,445.52s24.26-10.24,30.65-18.77,19.8-13.37,18.51-4.62-38.13,55.6-49.43,55.6Z"/></svg>