<svg xmlns="http://www.w3.org/2000/svg" viewBox="0 0 1070.54 1193.33"><defs><style>.cls-1{fill:#707071;}.cls-2,.cls-4{fill:#fff;}.cls-2{stroke:#000;stroke-linecap:round;stroke-linejoin:round;}.cls-3{fill:#1c1c1d;}.cls-5{fill:#ce443b;}.cls-6{fill:#ab5c9e;}.cls-7{fill:#e9bbd3;}.cls-8{fill:#d86f3a;}.cls-9{fill:#233565;}.cls-10{fill:#9bc652;}.cls-11{fill:#be986a;}.cls-12{fill:#81cde8;}</style></defs><g id="kerah_koko" data-name="kerah koko"><path class="cls-1" d="M233.7,30.81c-2.23,5.44-7.19,8.31-12.62,12.38-5.75,4.32-27.9,13.67-34.94,13.67s-22.24-6.75-31.45-11.74c-5.95-3.23-14.19-8.22-16.11-14.31C155,32,168.11,33.69,186.14,33.69S217.27,32,233.7,30.81Z" transform="translate(-131.6 -20.88)"/><path class="cls-2" d="M142,21.38a27.71,27.71,0,0,0,2.74,10.33c1.79.42.21.77,2,1.09,12.58,2.2,26.6,2.74,39.4,2.74S213,35,225.54,32.8c2.23-.39,1-.82,3.14-1.39a39.37,39.37,0,0,0,1.52-10c-16.44,1.21-26,2.88-44.06,2.88S158.41,22.59,142,21.38Z" transform="translate(-131.6 -20.88)"/><path class="cls-2" d="M230.29,21.38S219,29.81,209.07,34.9c-10.39,5.32-16.36,5.55-20.14,8.16-2.84,2-.6,13.8-.6,13.8s15.65-5,26.95-10.56,24.89-15.45,24.89-15.45Z" transform="translate(-131.6 -20.88)"/><path class="cls-2" d="M142,21.38s11.24,8.43,21.21,13.52c10.39,5.32,16.36,5.55,20.14,8.16,2.84,2,.6,13.8.6,13.8s-15.65-5-26.94-10.56-24.9-15.45-24.9-15.45Z" transform="translate(-131.6 -20.88)"/><polygon class="cls-2" points="549.77 648.23 492.68 658.18 490.2 673.8 555.5 660.19 549.77 648.23"/><polygon class="cls-3" points="911.99 648.23 969.08 658.18 971.56 673.8 906.26 660.19 911.99 648.23"/><polygon class="cls-2" points="6.95 646.96 3.75 657.29 106.72 658.19 102.07 646.96 6.95 646.96"/></g><g id="warna"><rect class="cls-4" x="802.81" y="1170.06" width="23.28" height="23.28"/><rect class="cls-5" x="829.97" y="1170.06" width="23.28" height="23.28"/><rect class="cls-6" x="857.13" y="1170.06" width="23.28" height="23.28"/><rect class="cls-7" x="884.29" y="1170.06" width="23.28" height="23.28"/><rect class="cls-8" x="911.46" y="1170.06" width="23.28" height="23.28"/><rect class="cls-9" x="938.62" y="1170.06" width="23.28" height="23.28"/><rect class="cls-10" x="965.78" y="1170.06" width="23.28" height="23.28"/><rect class="cls-11" x="992.94" y="1170.06" width="23.28" height="23.28"/><rect class="cls-12" x="1020.11" y="1170.06" width="23.28" height="23.28"/><rect class="cls-3" x="1047.27" y="1170.06" width="23.28" height="23.28"/></g></svg>