<svg id="Layer_1" data-name="Layer 1" xmlns="http://www.w3.org/2000/svg" viewBox="0 0 595.28 566.93"><defs><style>.cls-1{fill:#80cce8;}</style></defs><path class="cls-1" d="M309.38,138.82c1.05-20.44,5.09-40,18.25-56.45C339.14,68,353.87,58.82,372.45,56.81c6.47-.7,13-.57,19.56-.75a19.22,19.22,0,0,1,3.33.58c-1.12,1.15-1.69,2.14-2.55,2.57-9.86,4.84-18.46,11.48-26.64,18.65-19.36,17-36.17,36.35-52.32,56.32a33.14,33.14,0,0,0-2.29,3.44c-.42.7-.72,1.48-1.08,2.23Z"/><path class="cls-1" d="M199.61,57a27.11,27.11,0,0,1,4.76-1.11c15.12-.52,29.87,1.11,43.25,8.9,16.89,9.84,27.17,24.79,32.85,43.25a110.23,110.23,0,0,1,4.67,26.4,15.68,15.68,0,0,1,.06,4.42,13.87,13.87,0,0,1-1.83-1.57c-15.3-19-30.86-37.77-48.7-54.49-9.84-9.22-20.22-17.82-32.34-24C201.65,58.39,201,57.9,199.61,57Z"/><path class="cls-1" d="M282.27,527.9a16.24,16.24,0,0,0-2.33-4c-6.17-9.5-14.51-16.83-23.42-23.64-14.49-11.09-29-22.15-40.52-36.55a71.51,71.51,0,0,1-16-40c-.95-12.3,1.16-24.24,4.49-36,1.95-6.87,5.24-13.09,8.88-19.17,1.69-2.83.91-4.14-2.36-4.23a27.86,27.86,0,0,0-17.18,5.56c-11.74,8.39-16.53,20.4-17.05,34.39-.44,11.6,2.64,22.52,6.87,33.18.41,1,1.72,7,1.72,7-4.6-1.63-13.12-5.86-22.36-10.73l.15.17c-5.94-2.83-11.47-6-17.16-8.9-9-4.53-18.25-8.39-28.47-8.58-17.3-.32-30.47,7.51-40.25,21.42a16.12,16.12,0,0,0-3.06,12.34c1.31-.51,2.51-.88,3.62-1.44a61.76,61.76,0,0,1,20.45-6.08,95.32,95.32,0,0,1,28.9,1c24.18,4.37,46.14,14.24,66.86,27.13a29.05,29.05,0,0,1,3.23,2.66,15.34,15.34,0,0,1-4.54-1.09,143.22,143.22,0,0,0-34-7.41c-7.74-.61-15.45-.68-22.74,2.12-17.29,6.65-28.24,18.69-30.58,37.6a15.35,15.35,0,0,0,.3,3.28,16,16,0,0,0,3.38-1.32c3.42-2.33,6.63-5,10.12-7.2,11-6.95,22.78-12.08,35.6-14a100.27,100.27,0,0,1,36.56,1.61c1,.22,2,.5,2.93.74-2.25.74-4.41.9-6.48,1.42-18,4.49-29.72,18.57-32.26,37-.22,1.56.14,3.2.26,5.5a113.22,113.22,0,0,1,20-15.74c17.5-10.85,36.24-14.22,56.32-9.38,9.67,2.33,18.22,7.18,26.63,12.34C265.6,523,272.44,527,279.29,531a8,8,0,0,0,2.56.49C282,530.31,282.58,529,282.27,527.9Z"/><path class="cls-1" d="M313,527.9a16.52,16.52,0,0,1,2.32-4c6.17-9.5,14.52-16.83,23.42-23.64,14.5-11.09,29-22.15,40.53-36.55a71.51,71.51,0,0,0,16-40c.94-12.3-1.16-24.24-4.5-36-1.94-6.87-5.23-13.09-8.87-19.17-1.69-2.83-.92-4.14,2.35-4.23a27.86,27.86,0,0,1,17.18,5.56c11.75,8.39,16.54,20.4,17.06,34.39.43,11.6-2.65,22.52-6.88,33.18-.4,1-1.72,7-1.72,7,4.61-1.63,13.13-5.86,22.36-10.73a1.15,1.15,0,0,1-.14.17c5.94-2.83,11.46-6,17.15-8.9,9-4.53,18.25-8.39,28.48-8.58,17.3-.32,30.46,7.51,40.25,21.42A16.17,16.17,0,0,1,521,450.18c-1.31-.51-2.52-.88-3.63-1.44a61.62,61.62,0,0,0-20.45-6.08,95.26,95.26,0,0,0-28.89,1c-24.19,4.37-46.14,14.24-66.87,27.13a30,30,0,0,0-3.23,2.66,15.41,15.41,0,0,0,4.55-1.09,143,143,0,0,1,34-7.41c7.75-.61,15.46-.68,22.74,2.12,17.3,6.65,28.25,18.69,30.59,37.6a15.35,15.35,0,0,1-.3,3.28,16.24,16.24,0,0,1-3.39-1.32c-3.42-2.33-6.62-5-10.11-7.2-11-6.95-22.78-12.08-35.6-14a100.32,100.32,0,0,0-36.57,1.61c-1,.22-2,.5-2.92.74,2.25.74,4.41.9,6.48,1.42,18,4.49,29.72,18.57,32.26,37a33,33,0,0,1-.27,5.5,112.81,112.81,0,0,0-20-15.74c-17.51-10.85-36.25-14.22-56.32-9.38-9.68,2.33-18.23,7.18-26.63,12.34C329.68,523,322.83,527,316,531a8,8,0,0,1-2.56.49C313.25,530.31,312.7,529,313,527.9Z"/><path class="cls-1" d="M321.15,323.73h0l0,0Z"/><path class="cls-1" d="M517.85,256.21c-2.79-17.44-10-33.08-20.5-47.22-11.75-15.89-26.2-28.59-44.3-36.93a104.19,104.19,0,0,0-35.85-9.18,102.62,102.62,0,0,0-35.68,3c-17.3,4.76-31.83,14.28-45.06,26.07-9.39,8.36-16.5,18.57-23.5,28.87-3.65,5.37-15.07,29.26-15.07,29.26S285,226.3,281.58,220.76c-7.87-12.63-17.11-24-28.6-33.61q-34.87-29-79.93-24.05c-19.17,2.12-36.8,8.8-52,20.64-23.06,18-38.16,41.24-44.46,70a68.74,68.74,0,0,0-1.07,23.19C89.41,241.63,113.7,216,147,198.73c.17.53.07.85-.14,1-8.13,7.31-13.68,16.39-18,26.3a67.63,67.63,0,0,0-5.54,32.77c.06.79.79,1.53,1.21,2.29a9.38,9.38,0,0,0,2-1.6c5.6-7.76,10.86-15.79,16.77-23.32,11.15-14.21,24.34-26.19,40.36-34.8,4-2.13,8.07-4,12.11-6-4.1,4.89-8.57,9.23-12.38,14.08-9,11.5-14.58,24.39-14,39.37a11.57,11.57,0,0,0,.86,2.74,14.54,14.54,0,0,0,2.71-1.6,27.76,27.76,0,0,0,2.5-3c11.18-13.48,24-24.88,40.54-31.38,6.64-2.62,13.76-4.06,20.66-6,.13,1,.07,1.25-.1,1.39a7.76,7.76,0,0,1-1.31.82,41.87,41.87,0,0,0-15.14,12.32c-5.38,7-9.11,14.59-9,23.65a5.61,5.61,0,0,0,.46,1.55,5.62,5.62,0,0,0,1.52-.65c2.26-1.88,4.35-4,6.7-5.7,11.37-8.41,23.72-13.17,38.22-10.58,12,2.14,20,9.19,25.35,19.67,4.16,8.13,5.3,17.06,6.36,26,.44,3.67.48,7.4.71,11.1l-.79.11c-.21-.23-.43-.46-.63-.71-4.8-6-9.25-12.3-14.49-17.86-11.21-11.9-25.34-16.45-41.22-13.07s-28.54,11.3-34.65,28.11a20.71,20.71,0,0,0,3-.65c3-1.2,6.07-2.46,9.1-3.71,14.29-5.92,29-7.65,44.06-3.68,13.69,3.61,25.23,10.29,31.3,23.93,1.32,3,2.39,6,3.57,9.17l-.53.12-.57.14h0q-1.56.43-3.15.84l-2,.49-.52.12c-2.81.69-5.64,1.37-8.4,2.17.1.16,24.13,36.57,46.56,0h0l0,0-3.54-1.21q-2.88-.9-5.88-1.6l-.2,0c-.94-.21-1.88-.42-2.83-.6s-1.91-.35-2.88-.5l-.24,0-1.33-.16c1.86-6.44,4.14-12.37,8.61-17.28,10.91-12,24.82-16.9,40.65-17.53,11.39-.46,22,2.29,32.36,6.83,2.8,1.23,5.65,2.34,8.79,3.63a7.08,7.08,0,0,0-.14-2.16c-1.51-3.09-2.7-6.43-4.72-9.14-10.94-14.66-31.65-21.26-49.37-16.55-10.95,2.92-18.84,9.77-25.87,18.06-3.23,3.8-6.35,7.71-9.75,11.86-.11-.85-.19-1.27-.21-1.69a68.75,68.75,0,0,1,3.21-24.5c1.85-5.69,3.55-11.93,7.16-16.43,9.19-11.44,21.8-15.68,36.32-13.36,11.3,1.81,20.52,7.78,28.81,15.37.88.81,1.91,1.45,3.4,2.57,0-2.6.31-4.42-.05-6.11-3.09-14.46-11.36-25.08-24.21-32.24a15.3,15.3,0,0,1-1.54-1.14,1.5,1.5,0,0,1,1.29-.29c.42.09.84.18,1.26.25a82.92,82.92,0,0,1,44.83,22c5.69,5.38,10.64,11.55,16,17.31a13,13,0,0,0,2.46,1.68c.42-1,1.23-1.94,1.2-2.89-.13-4-.08-8-.87-11.84-3.3-16.22-12.05-29.16-24.62-39.68a9.86,9.86,0,0,0-1.63-.9c.78-.61,1-.7,1.11-.65.64.24,1.28.5,1.91.78,17.35,7.46,32,18.66,44.67,32.53a190.56,190.56,0,0,1,22.35,30.15c.56.93,1.67,1.53,3,2.67,1.58-6.15.87-11.51.26-16.76-2.11-18-11.22-32.48-23.35-45.74.63,0,.91-.09,1.1,0,2,1,4,1.94,6,3,14.3,7.82,26.13,18.66,36.86,30.73,11.08,12.47,20.54,26,25.33,42.28.16.55,1,.9,1.54,1.35.27-.56.79-1.13.76-1.67C518.77,268.75,518.84,262.4,517.85,256.21Z"/><path class="cls-1" d="M321.19,323.75l0,0h0Z"/><path class="cls-1" d="M369.65,385.76a79.65,79.65,0,0,0-20.76-43.5,71.27,71.27,0,0,0-27.66-18.49c-22.43,36.56-46.46.15-46.56,0l-7.2,2.57a69.63,69.63,0,0,0-30.85,27.21c-8.7,13.92-13.19,28.88-13,44.8,17.49,14.37,56.58,44.83,73.65,44.83,16.3,0,54.09-27.79,73.32-42.81A86.24,86.24,0,0,0,369.65,385.76Zm-71.7,22c-16.46,0-47.43-34.46-47.43-34.46s28.88,19.15,46.54,19.15,45.81-19.15,45.81-19.15S314.41,407.73,298,407.73Z"/></svg>