<svg width="60" height="63" viewBox="0 0 60 63" fill="none" xmlns="http://www.w3.org/2000/svg">
<path d="M28.6465 43.5022C28.9271 43.3265 29.1262 43.0343 29.4626 42.9416C29.7279 42.8598 30.0118 42.8587 30.2778 42.9382C30.5438 43.0177 30.7798 43.1742 30.9554 43.3877C31.1206 45.2413 32.1497 46.6252 33.3798 47.928C35 49.6751 36.9208 51.0036 39.0306 52.0893C39.3053 52.2295 39.7253 52.3124 39.7392 52.6697C39.7532 53.027 39.3113 53.1001 39.0466 53.2619C37.4841 54.1759 35.8499 54.9754 34.4685 56.1638C32.8965 57.5085 31.5424 59.0852 30.4538 60.8384C30.3138 61.1273 30.1223 61.3888 29.8885 61.6102C29.8218 61.6685 29.7416 61.7095 29.655 61.7297C29.5684 61.7498 29.4781 61.7483 29.3922 61.7255C29.3063 61.7026 29.2274 61.659 29.1626 61.5986C29.0978 61.5382 29.049 61.4629 29.0207 61.3792C28.6365 60.1178 27.8125 59.1308 26.9825 58.1556C25.6415 56.5347 23.9621 55.2214 22.0601 54.3062C21.3464 53.952 20.6521 53.5606 19.9801 53.1336C19.4745 52.8276 19.5303 52.575 20.0438 52.271C22.8623 50.5989 25.6349 48.8716 27.5179 46.0783C28.0494 45.2788 28.3041 44.3767 28.6465 43.5022Z" fill="#1C1B1C"/>
<path d="M30.418 19.6892C30.1154 20.007 29.4228 19.9794 29.0127 19.7188C28.8615 19.6221 28.7182 19.5214 28.5729 19.4089C28.0872 17.6559 27.0342 16.2504 25.8439 14.91C24.4268 13.3308 22.6473 12.2055 20.8798 11.0705C20.6071 10.8967 20.3364 10.723 20.0717 10.5414C19.574 10.2058 19.584 9.88406 20.1194 9.59979C20.5627 9.35165 21.0229 9.13462 21.4968 8.95033C22.6384 8.50979 23.6949 7.87739 24.6198 7.0809C26.3256 5.66747 27.8901 4.13363 28.8436 2.09443C28.9291 1.91282 28.965 1.67396 29.1043 1.55947C29.6099 1.14294 30.0239 1.10741 30.3523 1.8003C30.9691 3.08089 31.8033 4.24677 32.8185 5.247C34.7015 7.12611 36.9253 8.63572 39.373 9.69652C39.5721 9.78141 39.8348 9.79522 39.8348 10.0913C39.8348 10.3874 39.6218 10.498 39.4188 10.6204C38.4236 11.2126 37.4045 11.7535 36.461 12.4089C34.7054 13.6308 33.0633 14.9751 31.9248 16.8426C31.3714 17.7447 30.6967 19.397 30.418 19.6892Z" fill="#1C1B1C"/>
</svg>
