<svg width="90" height="95" viewBox="0 0 90 95" fill="none" xmlns="http://www.w3.org/2000/svg">
<path d="M42.9697 65.5986C43.3907 65.3336 43.6893 64.8931 44.1939 64.7532C44.5918 64.63 45.0177 64.6282 45.4167 64.748C45.8157 64.8679 46.1697 65.104 46.4331 65.4259C46.6809 68.2211 48.2245 70.3078 50.0697 72.2724C52.5 74.9069 55.3812 76.9102 58.546 78.5474C58.958 78.7588 59.588 78.8838 59.6089 79.4226C59.6298 79.9614 58.9669 80.0715 58.5699 80.3156C56.2261 81.6939 53.7749 82.8994 51.7028 84.6914C49.3447 86.7192 47.3136 89.0967 45.6807 91.7404C45.4707 92.1761 45.1834 92.5704 44.8328 92.9043C44.7327 92.9922 44.6123 93.0541 44.4824 93.0844C44.3525 93.1147 44.2171 93.1126 44.0883 93.0781C43.9594 93.0436 43.8411 92.9779 43.7439 92.8868C43.6467 92.7957 43.5736 92.6821 43.531 92.556C42.9548 90.6539 41.7187 89.1655 40.4737 87.695C38.4622 85.2508 35.9432 83.2704 33.0902 81.8903C32.0196 81.3562 30.9781 80.766 29.9701 80.1221C29.2118 79.6607 29.2954 79.2797 30.0657 78.8213C34.2934 76.3 38.4524 73.6953 41.2769 69.4832C42.074 68.2776 42.4562 66.9173 42.9697 65.5986Z" fill="#80CCE8"/>
<path d="M45.627 29.6901C45.1732 30.1693 44.1342 30.1276 43.5191 29.7347C43.2922 29.5888 43.0772 29.437 42.8593 29.2674C42.1308 26.624 40.5513 24.5046 38.7659 22.4833C36.6401 20.1019 33.9709 18.4052 31.3197 16.6936C30.9106 16.4316 30.5046 16.1697 30.1075 15.8958C29.3611 15.3897 29.376 14.9045 30.1791 14.4759C30.844 14.1017 31.5344 13.7744 32.2452 13.4965C33.9576 12.8322 35.5423 11.8786 36.9297 10.6776C39.4885 8.5462 41.8352 6.23326 43.2653 3.15828C43.3937 2.88442 43.4474 2.52423 43.6564 2.35158C44.4148 1.72349 45.0358 1.66991 45.5285 2.71475C46.4537 4.64579 47.705 6.40386 49.2277 7.91215C52.0522 10.7457 55.3879 13.0221 59.0595 14.6217C59.3581 14.7497 59.7522 14.7706 59.7522 15.2171C59.7522 15.6636 59.4327 15.8303 59.1282 16.0149C57.6353 16.9079 56.1067 17.7235 54.6915 18.7118C52.0581 20.5544 49.5949 22.5816 47.8871 25.3976C47.0571 26.758 46.045 29.2495 45.627 29.6901Z" fill="#80CCE8"/>
</svg>
