<svg id="Layer_1" data-name="Layer 1" xmlns="http://www.w3.org/2000/svg" viewBox="0 0 301.44 319.14"><defs><style>.cls-1{fill:#be986a;}</style></defs><path class="cls-1" d="M143.92,220.37c1.41-.89,2.41-2.37,4.1-2.84a7,7,0,0,1,7.5,2.26c.83,9.39,6,16.4,12.18,23,8.14,8.85,17.79,15.58,28.39,21.08,1.38.71,3.49,1.13,3.56,2.94s-2.15,2.18-3.48,3c-7.85,4.63-16.06,8.68-23,14.7A101.67,101.67,0,0,0,153,308.19a13.48,13.48,0,0,1-2.84,3.91,2.71,2.71,0,0,1-4.36-1.17c-1.93-6.39-6.07-11.39-10.24-16.33a73.48,73.48,0,0,0-24.73-19.5,113.6,113.6,0,0,1-10.45-5.94c-2.54-1.55-2.26-2.83.32-4.37,14.16-8.47,28.09-17.22,37.55-31.37C140.92,229.37,142.2,224.8,143.92,220.37Z"/><path class="cls-1" d="M152.82,99.74c-1.52,1.61-5,1.47-7.06.15-.76-.49-1.48-1-2.21-1.57-2.44-8.88-7.73-16-13.71-22.79-7.12-8-16.06-13.7-24.94-19.45-1.37-.88-2.73-1.76-4.06-2.68-2.5-1.7-2.45-3.33.24-4.77A54.71,54.71,0,0,1,108,45.34a53.55,53.55,0,0,0,15.69-9.47c8.57-7.16,16.43-14.93,21.22-25.26.43-.92.61-2.13,1.31-2.71,2.54-2.11,4.62-2.29,6.27,1.22a62.72,62.72,0,0,0,12.39,17.46,106.61,106.61,0,0,0,32.93,22.54c1,.43,2.32.5,2.32,2s-1.07,2.06-2.09,2.68c-5,3-10.12,5.74-14.86,9.06-8.82,6.19-17.07,13-22.79,22.46C157.61,89.89,154.22,98.26,152.82,99.74Z"/></svg>