<svg width="90" height="95" viewBox="0 0 90 95" fill="none" xmlns="http://www.w3.org/2000/svg">
<path d="M42.9697 65.5986C43.3907 65.3337 43.6893 64.8931 44.1939 64.7532C44.5919 64.63 45.0177 64.6282 45.4167 64.7481C45.8157 64.868 46.1697 65.104 46.4331 65.426C46.6809 68.2212 48.2245 70.3079 50.0697 72.2725C52.5 74.9069 55.3812 76.9103 58.546 78.5475C58.958 78.7588 59.588 78.8839 59.6089 79.4227C59.6298 79.9615 58.967 80.0716 58.5699 80.3157C56.2261 81.6939 53.7749 82.8995 51.7028 84.6915C49.3447 86.7193 47.3136 89.0967 45.6807 91.7405C45.4707 92.1762 45.1835 92.5705 44.8328 92.9044C44.7327 92.9923 44.6123 93.0542 44.4824 93.0845C44.3525 93.1148 44.2171 93.1126 44.0883 93.0781C43.9594 93.0437 43.8411 92.978 43.7439 92.8869C43.6467 92.7958 43.5736 92.6822 43.5311 92.5561C42.9548 90.6539 41.7188 89.1656 40.4737 87.6951C38.4622 85.2509 35.9432 83.2705 33.0902 81.8904C32.0196 81.3563 30.9781 80.7661 29.9701 80.1222C29.2118 79.6608 29.2954 79.2798 30.0657 78.8214C34.2934 76.3001 38.4524 73.6954 41.2769 69.4833C42.074 68.2777 42.4562 66.9173 42.9697 65.5986Z" fill="#9AC552"/>
<path d="M45.627 29.6901C45.1732 30.1694 44.1342 30.1277 43.5191 29.7348C43.2922 29.5889 43.0772 29.4371 42.8593 29.2674C42.1308 26.6241 40.5513 24.5046 38.7659 22.4834C36.6401 20.102 33.9709 18.4053 31.3197 16.6936C30.9106 16.4317 30.5046 16.1697 30.1075 15.8959C29.3611 15.3898 29.376 14.9046 30.1791 14.4759C30.844 14.1018 31.5344 13.7745 32.2452 13.4966C33.9576 12.8323 35.5423 11.8787 36.9297 10.6776C39.4885 8.54626 41.8352 6.23333 43.2653 3.15834C43.3937 2.88448 43.4474 2.5243 43.6564 2.35164C44.4148 1.72355 45.0358 1.66997 45.5285 2.71481C46.4537 4.64585 47.705 6.40393 49.2277 7.91221C52.0522 10.7458 55.3879 13.0222 59.0595 14.6218C59.3581 14.7498 59.7522 14.7706 59.7522 15.2172C59.7522 15.6637 59.4327 15.8304 59.1282 16.0149C57.6353 16.908 56.1067 17.7236 54.6915 18.7119C52.0581 20.5545 49.5949 22.5816 47.8871 25.3976C47.0571 26.758 46.045 29.2496 45.627 29.6901Z" fill="#9AC552"/>
</svg>
