<svg width="60" height="63" viewBox="0 0 60 63" fill="none" xmlns="http://www.w3.org/2000/svg">
<path d="M28.6465 43.5023C28.9271 43.3266 29.1262 43.0344 29.4626 42.9416C29.7279 42.8599 30.0118 42.8587 30.2778 42.9382C30.5438 43.0177 30.7798 43.1743 30.9554 43.3878C31.1206 45.2414 32.1497 46.6252 33.3798 47.9281C35 49.6751 36.9208 51.0037 39.0306 52.0894C39.3053 52.2296 39.7253 52.3125 39.7392 52.6698C39.7532 53.0271 39.3113 53.1001 39.0466 53.262C37.4841 54.176 35.8499 54.9755 34.4685 56.1639C32.8965 57.5086 31.5424 59.0852 30.4538 60.8384C30.3138 61.1274 30.1223 61.3889 29.8885 61.6103C29.8218 61.6686 29.7416 61.7096 29.655 61.7297C29.5684 61.7498 29.4781 61.7484 29.3922 61.7255C29.3063 61.7027 29.2274 61.6591 29.1626 61.5987C29.0978 61.5383 29.049 61.4629 29.0207 61.3793C28.6365 60.1179 27.8125 59.1309 26.9825 58.1557C25.6415 56.5348 23.9621 55.2215 22.0601 54.3063C21.3464 53.9521 20.6521 53.5607 19.9801 53.1337C19.4745 52.8277 19.5303 52.575 20.0438 52.271C22.8623 50.599 25.6349 48.8717 27.5179 46.0784C28.0494 45.2789 28.3041 44.3768 28.6465 43.5023Z" fill="#9AC552"/>
<path d="M30.418 19.6892C30.1154 20.0071 29.4228 19.9794 29.0127 19.7189C28.8615 19.6221 28.7182 19.5215 28.5729 19.4089C28.0872 17.656 27.0342 16.2504 25.8439 14.9101C24.4268 13.3308 22.6473 12.2056 20.8798 11.0705C20.6071 10.8968 20.3364 10.7231 20.0717 10.5415C19.574 10.2059 19.584 9.88412 20.1194 9.59985C20.5627 9.35171 21.0229 9.13469 21.4968 8.95039C22.6384 8.50985 23.6949 7.87745 24.6198 7.08096C26.3256 5.66754 27.8901 4.13369 28.8436 2.0945C28.9291 1.91288 28.965 1.67402 29.1043 1.55953C29.6099 1.143 30.0239 1.10747 30.3523 1.80036C30.9691 3.08095 31.8033 4.24683 32.8185 5.24706C34.7015 7.12617 36.9253 8.63578 39.373 9.69658C39.5721 9.78147 39.8348 9.79528 39.8348 10.0914C39.8348 10.3875 39.6218 10.498 39.4188 10.6204C38.4236 11.2127 37.4045 11.7535 36.461 12.4089C34.7054 13.6309 33.0633 14.9752 31.9248 16.8427C31.3714 17.7448 30.6967 19.3971 30.418 19.6892Z" fill="#9AC552"/>
</svg>
