<svg width="100" height="106" viewBox="0 0 100 106" fill="none" xmlns="http://www.w3.org/2000/svg">
<path d="M47.7442 73.1943C48.2119 72.8986 48.5437 72.4071 49.1043 72.251C49.5465 72.1135 50.0197 72.1115 50.463 72.2452C50.9064 72.379 51.2996 72.6424 51.5924 73.0016C51.8677 76.1204 53.5828 78.4488 55.633 80.6409C58.3333 83.5804 61.5346 85.8157 65.0511 87.6425C65.5089 87.8783 66.2089 88.0178 66.2321 88.619C66.2553 89.2201 65.5188 89.343 65.0776 89.6154C62.4735 91.1532 59.7499 92.4984 57.4476 94.4979C54.8274 96.7604 52.5706 99.4132 50.7564 102.363C50.523 102.849 50.2038 103.289 49.8142 103.662C49.703 103.76 49.5693 103.829 49.4249 103.863C49.2806 103.897 49.1301 103.894 48.987 103.856C48.8438 103.817 48.7124 103.744 48.6043 103.642C48.4963 103.541 48.4151 103.414 48.3678 103.273C47.7276 101.151 46.3542 99.49 44.9708 97.8492C42.7358 95.122 39.9369 92.9123 36.7669 91.3724C35.5773 90.7765 34.4201 90.1179 33.3002 89.3995C32.4575 88.8847 32.5504 88.4595 33.4063 87.948C38.1038 85.1348 42.7249 82.2285 45.8632 77.5287C46.7489 76.1835 47.1736 74.6656 47.7442 73.1943Z" fill="#E9BAD2"/>
<path d="M50.6967 33.1279C50.1924 33.6626 49.038 33.6161 48.3546 33.1777C48.1025 33.015 47.8636 32.8456 47.6214 32.6563C46.812 29.7068 45.0571 27.342 43.0733 25.0867C40.7113 22.4296 37.7455 20.5364 34.7997 18.6266C34.3452 18.3343 33.894 18.042 33.4528 17.7364C32.6234 17.1718 32.64 16.6304 33.5324 16.1521C34.2712 15.7346 35.0383 15.3694 35.828 15.0593C37.7307 14.3181 39.4915 13.2541 41.0331 11.9139C43.8761 9.53581 46.4836 6.95506 48.0726 3.52403C48.2153 3.21845 48.275 2.81656 48.5072 2.62392C49.3498 1.9231 50.0398 1.86331 50.5872 3.02913C51.6152 5.18377 53.0055 7.14541 54.6975 8.82834C57.8358 11.99 61.5421 14.53 65.6217 16.3148C65.9534 16.4577 66.3913 16.4809 66.3913 16.9791C66.3913 17.4773 66.0364 17.6633 65.698 17.8693C64.0393 18.8657 62.3408 19.7758 60.7683 20.8785C57.8424 22.9344 55.1055 25.1963 53.208 28.3384C52.2857 29.8563 51.1611 32.6363 50.6967 33.1279Z" fill="#E9BAD2"/>
</svg>
