<svg id="Layer_1" data-name="Layer 1" xmlns="http://www.w3.org/2000/svg" viewBox="0 0 566.93 566.93"><defs><style>.cls-1{fill:#ce433a;}</style></defs><path class="cls-1" d="M276.67,344.26c1.41-.88,2.41-2.36,4.09-2.84a7,7,0,0,1,7.5,2.27c.84,9.38,6.06,16.39,12.18,23,8.15,8.85,17.79,15.58,28.4,21.07,1.38.72,3.49,1.14,3.55,2.95s-2.15,2.18-3.47,3c-7.85,4.64-16.06,8.69-23,14.71a101.82,101.82,0,0,0-20.18,23.66,13.58,13.58,0,0,1-2.84,3.91,2.7,2.7,0,0,1-4.36-1.17c-1.93-6.39-6.08-11.38-10.25-16.32A73.16,73.16,0,0,0,243.53,399a114.78,114.78,0,0,1-10.44-5.94c-2.55-1.55-2.27-2.83.31-4.37,14.17-8.47,28.09-17.23,37.56-31.37C273.67,353.27,275,348.69,276.67,344.26Z"/><path class="cls-1" d="M285.57,223.64c-1.52,1.61-5,1.47-7.06.14-.76-.48-1.48-1-2.22-1.56-2.43-8.88-7.72-16-13.71-22.79-7.11-8.05-16-13.7-24.94-19.45-1.36-.88-2.72-1.77-4.06-2.68-2.49-1.7-2.44-3.33.25-4.77a56.19,56.19,0,0,1,6.92-3.3,53.16,53.16,0,0,0,15.68-9.47c8.58-7.15,16.43-14.92,21.23-25.25.43-.92.6-2.13,1.31-2.71,2.54-2.12,4.61-2.29,6.26,1.22a62.92,62.92,0,0,0,12.4,17.45A106.88,106.88,0,0,0,330.55,173c1,.43,2.32.49,2.33,2s-1.07,2.07-2.09,2.69c-5,3-10.12,5.73-14.86,9.06-8.82,6.19-17.08,13-22.8,22.45C290.35,213.79,287,222.16,285.57,223.64Z"/></svg>