<svg id="badan" xmlns="http://www.w3.org/2000/svg" viewBox="0 0 371.66 471.35"><defs><style>.cls-1{fill:#fff;stroke:#010101;stroke-miterlimit:10;}</style></defs><path class="cls-1" d="M160.85,208.2s2.29,22,3.1,29c.75,6.54,5.48,26.15,5.48,26.15l-1,10s11.17,3.93,20.47,6.17c20.07,4.85,22.61,3.9,22.61,3.9l2.32-9.64a100.79,100.79,0,0,0,11.48-24.43c3-10,2.74-22.66,2.93-25.6.71-11-5.72-82.83-15.43-129.37-4.05-19.39-9.74-23.58-14.56-27.26-6.91-5.27-31.09-7.64-37.81,20.14C151.24,125.35,160.85,208.2,160.85,208.2Z"/><path class="cls-1" d="M169.43,263.35s17.57,8,44.42,10.39"/></svg>