<svg width="80" height="62" viewBox="0 0 80 62" fill="none" xmlns="http://www.w3.org/2000/svg">
<path d="M77.4457 52.0997C76.4154 50.0864 76.0843 47.784 76.5051 45.5594C76.658 44.6822 77.0328 43.8794 77.3693 43.0458C77.0371 42.9528 76.6881 42.9387 76.3496 43.0048C76.0106 43.0048 75.6741 42.9843 75.3299 42.9843C66.0944 42.9843 43.0577 42.9843 33.8247 42.9843C28.1579 42.9843 8.94751 42.9971 3.28329 43.0048C2.64091 43.0971 2.99269 43.4896 3.10485 43.7281C3.64247 44.8068 3.94739 45.9876 3.9996 47.1932C4.02111 48.8677 3.64071 50.5227 2.89072 52.0177C2.57973 52.6871 2.81425 52.7871 3.38781 52.7153C4.83063 52.5486 19.8222 52.6307 21.2676 52.5871C22.5906 52.546 23.9161 52.6255 25.234 52.4563H34.4416C35.3185 52.6281 36.203 52.5614 37.0876 52.5614H42.6957C43.4358 52.6355 44.1826 52.6027 44.9135 52.464H53.6826C53.8204 52.5024 53.961 52.5298 54.1032 52.546C57.1621 52.6743 74.012 52.4819 77.0608 52.7333C77.6395 52.7769 77.6675 52.5383 77.4457 52.0997ZM40.4295 50.8635C40.3097 51.0918 40.2179 51.4508 39.9681 51.4534C39.652 51.4534 39.5756 51.0635 39.4736 50.8148C38.9407 49.6152 38.8337 48.2678 39.1702 46.9983C39.3053 46.5135 39.443 46.0262 39.6138 45.5517C39.6699 45.3927 39.6979 45.1285 39.9426 45.1388C40.1287 45.1388 40.1975 45.3516 40.2485 45.5055C40.636 46.4904 41.026 47.4779 40.9699 48.6064C40.9983 49.3943 40.8114 50.175 40.4295 50.8635ZM21.4383 46.552C22.2592 45.6338 23.3833 45.4363 24.5126 45.3362C26.6278 45.1234 28.7579 45.5503 30.6306 46.5622C31.1956 46.8836 31.794 47.1417 32.415 47.3317C33.8553 47.7395 34.592 47.5292 36.2387 46.3622C36.2806 46.6987 36.2495 47.0404 36.1474 47.3637C36.0453 47.687 35.8746 47.9841 35.6473 48.2345C34.5818 49.5169 32.7719 49.9478 30.9671 49.2605C29.9806 48.8886 29.0323 48.4166 28.0763 47.978C27.1209 47.4864 26.0534 47.2572 24.9817 47.3137C24.6454 47.3351 24.3196 47.44 24.0334 47.619C23.8756 47.7107 23.7502 47.8497 23.6748 48.0167C23.5994 48.1836 23.5777 48.3701 23.6128 48.55C23.6188 48.7334 23.6927 48.908 23.8201 49.0394C23.9474 49.1709 24.1189 49.2497 24.301 49.2605C24.6044 49.2912 24.8262 49.4272 24.4922 49.6914C23.8524 50.2043 23.1361 50.5378 22.2898 50.3197C20.6099 49.8914 20.1816 47.9627 21.4383 46.552ZM56.8282 50.3659C56.3559 50.2649 55.9108 50.0629 55.523 49.7734C55.4588 49.7385 55.4062 49.6854 55.3717 49.6206C55.3373 49.5559 55.3225 49.4824 55.3293 49.4092C55.3548 49.2374 55.495 49.2656 55.6072 49.263C55.6979 49.2693 55.789 49.2572 55.8751 49.2276C55.9612 49.1979 56.0405 49.1512 56.1084 49.0903C56.1763 49.0294 56.2315 48.9554 56.2706 48.8728C56.3097 48.7901 56.332 48.7004 56.3362 48.609C56.3642 48.4018 56.3244 48.1911 56.2227 48.0088C56.1211 47.8264 55.9632 47.6824 55.7729 47.5984C55.0081 47.1624 54.1873 47.2676 53.3818 47.424C52.0893 47.6805 50.9677 48.3525 49.7977 48.9091C48.8288 49.4146 47.7364 49.6309 46.6494 49.5323C45.0792 49.3502 43.7052 47.8908 43.7817 46.2775C45.3825 48.0165 47.0955 47.6959 48.8545 46.8264C50.1494 46.1852 51.452 45.544 52.9127 45.3952C54.3071 45.2465 55.6989 45.2311 57.0653 45.6338C58.22 45.9749 58.8726 46.7931 59.1581 47.9216C59.5099 49.2707 58.2124 50.6147 56.8282 50.3659Z" fill="#9AC552"/>
</svg>
