<svg id="Layer_1" data-name="Layer 1" xmlns="http://www.w3.org/2000/svg" viewBox="0 0 595.28 566.93"><defs><style>.cls-1{fill:#d86f3a;}</style></defs><path class="cls-1" d="M332,41.37c5.81-6.28,11.27-12.56,17.65-18.61a44.18,44.18,0,0,1,2.62,16.57,62.08,62.08,0,0,1-14.89,39c-.38.45-.74.91-1.12,1.36-3.94,4.59-3.92,4.55-9.32,2.2a30.23,30.23,0,0,0-11.66-2.68c-10.88-.11-21.77-.07-32.66-.11a37.59,37.59,0,0,0-16.93,4.17c-1.09.53-1.78.68-2.79-.28-14.84-14.14-24-37-17.27-58.9.11-.35.27-.69.43-1.08,6.3,5.73,12,11.91,18.13,18.3,1.15-6.77,4-12.7,6.47-18.78,1.44-3.55,1.48-3.53,4-.49a82,82,0,0,1,10.92,16.42,120.31,120.31,0,0,1,10.39-21c1.28-2.08,1.86-2.47,3.3,0,3.93,6.65,7.93,13.24,10.36,21.23,3.22-6.54,7.73-11.56,11.95-16.82,1.67-2.08,2.33-1.53,3.15.58C327.09,28.63,330.06,34.68,332,41.37Z"/><path class="cls-1" d="M403.81,530.84c-13.49-7.76-26.51-15.8-36.59-28.05-8.46,12.28-20.36,19.55-35.24,23.4,16.69-25.21,30.43-51,29.19-82.24,14.42,17,31.05,30.7,51.68,39.27a7.37,7.37,0,0,1-3.9,2.26c-5.7,1.71-11.27,3.91-17.19,4.85-2.19.35-1.37,1.57-.94,2.69,2.86,7.48,6.37,14.71,8.61,22.42C400.93,520.56,402.35,525.71,403.81,530.84Z"/><path class="cls-1" d="M182.4,483.52c21.13-8.52,36.72-22.92,52-39.56-1,31.6,12.59,57.23,29,81.84-7.84.2-24.16-10.22-35.58-22.73-10.19,11.56-22.61,20.22-36.2,28.25C195,517,200,503.93,205.94,491,198,488.88,190.38,487,182.4,483.52Z"/><path class="cls-1" d="M299.4,257.16c-9.56-.13-18.27-.21-26.88-1.9-2.23-.44-3.27-1.18-3.13-3.78.27-4.89.08-9.8,0-14.71,0-1.7.2-2.47,2.28-2.06,17.31,3.34,34.65,3,52,0,1.93-.33,2.42.09,2.39,2-.08,5.19-.15,10.4,0,15.59.07,2-.8,2.49-2.38,2.81A100.36,100.36,0,0,1,299.4,257.16Z"/><path class="cls-1" d="M493,317.64c9.62-9.08,18.78-17.79,28-26.39,1.59-1.48,1.76-2.24,0-3.77-5.23-4.58-10.29-9.38-15.39-14.11-4.22-3.91-8.4-7.85-12.75-11.92,42.95-12.87,59.57-53.3,50.35-82.51-1,.42-1.23,1.47-1.67,2.26-3.09,5.56-6,11.29-9.73,16.41a109.48,109.48,0,0,1-52.23,38.89,2.56,2.56,0,0,1-3.27-.8c-10.83-11.64-22.51-22.43-33.66-33.76-1.34-1.36-2.09-1.35-3.42,0-27.55,28.06-55.7,55.52-83.62,83.21-4.19,4.16-4.16,4.08.13,8.43,27.34,27.74,55,55.15,82.71,82.54,2.66,2.62,2.6,2.63,5.28-.12q16-16.41,32.11-32.8c.63-.65,1-1.4,2.37-1a103.32,103.32,0,0,1,48.77,32.32c6.69,7.87,11.68,16.8,16.12,26.62,3.64-9.43,3.43-27.6-.91-39C533.51,339.29,517.31,324.19,493,317.64Zm-3.78-25.9Q465.44,315,441.81,338.35c-.88.87-1.29,1.14-2.25.15C429.4,328,419.19,317.59,408.88,307c10.5-6.18,21.54-11.12,31.86-18.48l-31.83-17,17.55-17.65c4.42-4.46,8.86-8.89,13.21-13.41.84-.87,1.13-1.09,2.13-.1q23.65,23.37,47.46,46.6C491.16,288.86,491.14,289.91,489.26,291.74Z"/><path class="cls-1" d="M241.56,287.11q-42.23-42-84.34-84.19c-2.81-2.81-2.81-2.76-5.47-.06-10.81,11-21.65,21.9-32.43,32.9a2.54,2.54,0,0,1-3.29.69c-6.64-2.65-13.29-5.25-19.4-9-13.86-8.51-25.85-19-34.93-32.67-3.45-5.2-6.32-10.72-9.3-16.3-4,6.4-3.91,26,.65,38.06,8.72,23.09,25.91,37.06,49,44.32,0,.93-.73,1.22-1.18,1.69-8.38,8.85-17.42,17-26.62,24.94-1.41,1.22-1.68,1.89-.15,3.3,8.33,7.75,16.55,15.62,24.81,23.43,1.1,1,2.26,2,3.79,3.36-19,5.15-32.93,15.55-43.36,31.3C48.7,365,47.29,393.22,52.49,401c.91-1.83,1.78-3.56,2.64-5.3,12.78-26.08,33.31-43.24,60.51-52.82,2.06-.73,3.16-.21,4.5,1.27,10.17,11.19,21.35,21.39,31.7,32.39,1.9,2,3,1.93,4.86,0,7.19-7.38,14.56-14.58,21.84-21.87q31.52-31.54,63.08-63C243.55,289.69,243.31,288.85,241.56,287.11ZM156.2,338.16c-1.45,1.45-2.2,1.19-3.45-.05q-16.94-16.75-33.94-33.43c-4.47-4.4-8.89-8.85-13.38-13.22-1.4-1.36-1.86-2.25-.12-3.93q24.13-23.26,48.08-46.75c.75-.73,1.18-1.33,2.27-.22q14.55,14.77,29.25,29.4c1.58,1.59,1.72,2.29-.54,3.38-9.08,4.35-17.78,9.43-26.6,14.27-2.23,1.23-1.45,1.88.16,2.86,8.6,5.24,17.27,10.37,26.23,15,.93.48,1.83,1.06,3.25,1.89C176.83,317.77,166.46,327.9,156.2,338.16Z"/></svg>