<svg id="Layer_1" data-name="Layer 1" xmlns="http://www.w3.org/2000/svg" viewBox="0 0 512.55 545.81"><defs><style>.cls-1{fill:#e9bad2;}</style></defs><path class="cls-1" d="M290.6,30.81c5.81-6.28,11.26-12.56,17.65-18.61a44.38,44.38,0,0,1,2.62,16.57,62.14,62.14,0,0,1-14.89,39c-.38.45-.74.91-1.12,1.36-3.94,4.59-3.93,4.55-9.33,2.2a30,30,0,0,0-11.65-2.67c-10.88-.12-21.77-.08-32.66-.12a37.66,37.66,0,0,0-16.94,4.17c-1.08.53-1.77.68-2.78-.28-14.84-14.14-24-37-17.27-58.89a10.21,10.21,0,0,1,.43-1.09c6.3,5.74,12,11.91,18.13,18.31,1.14-6.78,4-12.71,6.46-18.78,1.44-3.56,1.49-3.53,4-.5a82,82,0,0,1,10.92,16.42,120,120,0,0,1,10.39-21c1.28-2.08,1.86-2.46,3.3,0,3.93,6.65,7.93,13.24,10.36,21.24,3.21-6.54,7.73-11.57,12-16.83,1.67-2.08,2.33-1.53,3.15.58C285.73,18.07,288.7,24.12,290.6,30.81Z"/><path class="cls-1" d="M362.45,520.28c-13.5-7.76-26.51-15.8-36.59-28-8.46,12.27-20.37,19.54-35.25,23.39,16.69-25.21,30.44-51,29.2-82.24,14.42,17,31.05,30.7,51.67,39.27a7.34,7.34,0,0,1-3.89,2.26c-5.7,1.72-11.28,3.91-17.19,4.85-2.2.36-1.37,1.57-.94,2.7,2.85,7.47,6.36,14.7,8.61,22.41C359.56,510,361,515.15,362.45,520.28Z"/><path class="cls-1" d="M141,473c21.12-8.51,36.72-22.92,52-39.56-.95,31.6,12.59,57.23,29,81.84-7.84.2-24.16-10.22-35.58-22.72-10.19,11.55-22.61,20.22-36.2,28.25,3.35-14.33,8.4-27.4,14.3-40.31C156.66,478.33,149,476.44,141,473Z"/><path class="cls-1" d="M258,246.61c-9.56-.14-18.27-.22-26.88-1.91-2.23-.44-3.27-1.18-3.13-3.78.27-4.89.08-9.8,0-14.7,0-1.71.19-2.47,2.27-2.07,17.32,3.34,34.66,3,52,0,1.93-.33,2.42.09,2.39,2-.09,5.2-.16,10.4,0,15.59.07,2-.8,2.49-2.38,2.81A100.47,100.47,0,0,1,258,246.61Z"/><path class="cls-1" d="M451.68,307.08c9.62-9.08,18.78-17.79,28-26.39,1.58-1.47,1.76-2.23,0-3.76-5.24-4.59-10.29-9.38-15.39-14.12-4.22-3.91-8.4-7.85-12.75-11.92,42.94-12.87,59.57-53.3,50.35-82.51-1,.42-1.23,1.47-1.67,2.27-3.09,5.56-5.95,11.28-9.73,16.4a109.48,109.48,0,0,1-52.23,38.89,2.56,2.56,0,0,1-3.27-.79c-10.83-11.64-22.51-22.44-33.67-33.76-1.34-1.37-2.08-1.36-3.42,0-27.55,28.06-55.7,55.52-83.61,83.21-4.19,4.16-4.16,4.08.12,8.43,27.35,27.74,55,55.15,82.72,82.54,2.65,2.63,2.6,2.63,5.28-.12q16-16.41,32.11-32.8c.63-.65,1-1.39,2.37-1A103.32,103.32,0,0,1,485.71,364c6.69,7.87,11.67,16.8,16.12,26.63,3.64-9.44,3.43-27.6-.91-39C492.15,328.73,476,313.63,451.68,307.08Zm-3.78-25.89q-23.82,23.21-47.45,46.6c-.88.87-1.29,1.15-2.25.15C388,317.47,377.83,307,367.52,296.48c10.49-6.19,21.54-11.13,31.86-18.48l-31.83-17q8.79-8.85,17.55-17.66c4.42-4.45,8.86-8.89,13.21-13.41.84-.87,1.13-1.09,2.13-.1q23.65,23.39,47.46,46.6C449.8,278.3,449.78,279.35,447.9,281.19Z"/><path class="cls-1" d="M200.2,276.55q-42.22-42-84.34-84.19c-2.81-2.81-2.82-2.76-5.48-.06-10.8,11-21.65,21.9-32.42,32.91a2.53,2.53,0,0,1-3.29.68c-6.64-2.65-13.3-5.25-19.41-9-13.85-8.51-25.84-19-34.92-32.67C16.89,179,14,173.51,11,167.92c-4,6.41-3.91,26,.65,38.07,8.71,23.08,25.91,37.06,49,44.31,0,.93-.74,1.23-1.18,1.7-8.38,8.84-17.43,17-26.62,24.93-1.41,1.22-1.68,1.89-.16,3.31,8.34,7.74,16.55,15.61,24.82,23.42,1.1,1,2.26,2,3.79,3.36-19,5.15-32.93,15.56-43.36,31.31-10.65,16.07-12,44.33-6.85,52.09.91-1.83,1.78-3.56,2.64-5.3C26.54,359,47.08,341.88,74.28,332.3c2.06-.73,3.16-.2,4.5,1.27C89,344.76,100.13,355,110.48,366c1.9,2,3,1.93,4.86,0,7.19-7.38,14.55-14.58,21.83-21.87q31.53-31.54,63.09-63C202.18,279.13,202,278.29,200.2,276.55ZM114.84,327.6c-1.45,1.45-2.2,1.19-3.45-.05q-16.94-16.76-33.95-33.43c-4.46-4.4-8.88-8.85-13.38-13.22-1.39-1.36-1.85-2.24-.11-3.92Q88.09,253.7,112,230.22c.74-.73,1.18-1.32,2.27-.22q14.55,14.77,29.25,29.41c1.58,1.58,1.72,2.28-.55,3.37-9.07,4.35-17.77,9.43-26.59,14.28-2.23,1.22-1.45,1.87.15,2.85,8.61,5.24,17.28,10.37,26.24,15,.93.48,1.82,1.06,3.25,1.89C135.47,307.21,125.1,317.35,114.84,327.6Z"/></svg>