<svg id="Layer_1" data-name="Layer 1" xmlns="http://www.w3.org/2000/svg" viewBox="0 0 535.42 515.28"><defs><style>.cls-1{fill:#ce433a;}</style></defs><path class="cls-1" d="M398.38,112.62c-1.19-6.8-2.91-13.56-3.48-20.41-1.3-15.82-1.1-31.68,7.2-45.88,3.15-5.39,7.9-10,12.45-14.41C427.42,19.42,443.24,14.1,461,13.77c18.41-.34,44.06,14.42,47.51,39.91,1.65,12.19-.23,23-7,33.16-9.06,13.63-27.8,19.26-41.92,12.25-7.45-3.7-12.8-9.49-12.6-18.39.13-6,3.21-10.87,8.45-14.11a7.09,7.09,0,0,1,2.32-.94c2.19-.42,2.7.47,2.21,2.68a35.65,35.65,0,0,0-1.26,9c.14,3.67,3.07,6.24,6.67,6.93,11.8,2.29,19.27-6.79,20.4-16.81,1.72-15.34-13.26-28.45-29.63-28.13-19.14.37-37.84,14.34-42.64,36.22-3,13.78-1.65,27.32.83,41,1.46,8.07,2.9,16.29,2.92,24.45,0,7.47-1.89,14.94-2.84,21.69,3.16-3.58,6.89-7.83,10.65-12.05a75.27,75.27,0,0,1,42.06-24.32c20-4,38.84,2.91,48.14,21.79,5.76,11.72,6,23.77-2.58,34.67-8.35,10.67-25.15,12-34.27,3.14-4.29-4.19-5.17-9.14-3.89-14.71.12-.52.71-1.28,1.14-1.31a2.86,2.86,0,0,1,1.83.8c.4.33.5,1,.78,1.48,3.89,6.94,11.11,8,16.93,2.57,6.31-5.91,5.21-16.49-2.28-22.07-5.74-4.27-12.28-5.42-19.18-4.59-14.28,1.7-26.06,8.88-37.09,17.49-11.78,9.19-21.35,20.47-30.4,32.27-3.13,4.07-7,7.61-10.58,11.28-.59.61-1.73.68-2.62,1a8.2,8.2,0,0,1-.34-2.81c1.67-7.09,3.71-14.1,5.15-21.23,3-14.87.58-29.25-4.89-43.19-6.66-17-18.09-30-33-40.26a56.08,56.08,0,0,1-5.21-3.81,3.47,3.47,0,0,1-1.19-2.54c.05-.54,1.31-1.22,2.13-1.39a34.83,34.83,0,0,1,18.77,1.39c7.59,2.62,14.34,6.4,19.56,12.63,1.19,1.42,2.55,2.69,3.83,4Z"/><path class="cls-1" d="M136.94,113c3.94-3.69,7.23-7.36,11.09-10.25,9.2-6.88,19.51-10.21,31.12-8.07,1,.19,2.72,1.08,2.72,1.64a4.8,4.8,0,0,1-1.58,3.31c-2.33,1.88-5,3.32-7.39,5.12-20.58,15.52-33.26,35.81-36.33,61.59a76,76,0,0,0,3.51,32.72c.89,2.76,1.78,5.51,2.49,8.32a8.17,8.17,0,0,1-.34,2.8c-.88-.35-2.06-.45-2.61-1.09-5.67-6.6-11.49-13.11-16.81-20-12.36-16-27.12-29-45.8-37.12-8.39-3.65-17.18-5.58-26.26-3-6.69,1.89-12.09,5.59-14.18,12.72-2,6.93,2.81,15,9.83,16.45,3.42.72,8.19-1.77,10.64-5.57a10.35,10.35,0,0,1,1-1.68c.51-.56,1.5-1.47,1.76-1.32a3.47,3.47,0,0,1,1.6,2c1.91,8.22-2.1,15.35-10.3,18.5-14.05,5.41-29.85-3.15-33.46-18.42-3.68-15.57,2.41-27.85,14.21-37.45s25.6-10.76,39.9-7c15.3,4.06,28.51,11.72,39,23.77,3.43,3.94,6.87,7.86,10.46,11.95-.77-4.52-1.54-8.87-2.25-13.23-1.57-9.77-.56-19.41,1.43-29,2.26-10.93,4.15-21.91,3.18-33.17-1.15-13.24-4-25.78-14.23-35.32C100,43.55,89.26,38.7,76.24,39.56c-12,.81-23.06,9.28-25.78,20.09-2.55,10.13,2.38,21.1,11.2,23.89a19.61,19.61,0,0,0,9.33.37c5.07-1,7.45-6.13,6.05-11.8-.32-1.26-1-2.44-1.26-3.71A3.05,3.05,0,0,1,76,66.06a2.8,2.8,0,0,1,2.29-.2c4.9,1.48,10,7.94,10.32,13,.68,9.71-5.36,18.31-15.27,21.55-13.48,4.4-25,.15-34.93-8.86s-13-20.7-11.61-33.72c.88-8,2.62-15.82,7.59-22.33C46.05,20.25,61.11,12.39,80.83,14.07c13.3,1.13,25.32,5.24,35.53,13.69a127.39,127.39,0,0,1,15.3,15.68c5.13,6,6.58,13.72,8.11,21.26,2.93,14.47.76,28.71-1.9,42.93C137.57,109.27,137.3,110.92,136.94,113Z"/><path class="cls-1" d="M274.07,317.59c-.62-10.5-1.16-20.7-1.87-30.89-.15-2.07.48-2.69,2.43-2.61,15,.68,30,1.29,45,2,3.31.15,3.54.82,3,3.71-1.38,7.34-3.15,14.69-3.61,22.11-.85,13.47-.85,27-1.23,40.5-.15,5.05-.34,10.11-.61,15.17a2.71,2.71,0,0,1-1,2c-9.56,4.52-16.2,12.31-22.64,20.26C284.7,400.7,278.27,413,272.1,425.44a20.33,20.33,0,0,1-1.36,2.77,16.54,16.54,0,0,1-2.05,2.05c-.56-1-1.64-2-1.58-3,.22-3.92.86-7.81,1.22-11.72.77-8.21,1.69-16.41,2.13-24.64C271.78,366.4,272.89,341.86,274.07,317.59Z"/><path class="cls-1" d="M208.18,342c8.26.34,16.38.7,24.5,1,8,.3,15.94.53,23.91.82,2.73.1,3,.55,1.89,3-4.14,9.06-5.75,18.77-7.19,28.49-2.59,17.46-2.23,35-.47,52.47A183.22,183.22,0,0,0,259,466.53a29,29,0,0,1,1.25,5.16,2.29,2.29,0,0,1-1,2,2.39,2.39,0,0,1-2-.91c-10.7-14.44-23.72-26.52-37.82-37.52-5.55-4.32-11.13-8.73-14.67-15-4.24-7.51-4.2-15.64-2.44-23.76,1.5-6.94,3.9-13.7,5.18-20.67,2-10.82,2.59-21.77.69-32.72A5,5,0,0,1,208.18,342Z"/><path class="cls-1" d="M327.36,179.58c-1,4.16-2.29,7.91-2.81,11.76-1,7-1.7,14.14-2.13,21.24-1.12,18.63-1.91,37.28-.7,55.94.21,3.22,1.15,6.39,1.78,9.7l-52-2.34c.44-2.47,1-4.89,1.28-7.34,1-10,2.31-19.94,2.66-29.93.49-14.05.51-28.14.15-42.2-.15-5.62-1.71-11.23-2.9-16.79-.64-3-.45-3.63,2.62-3.46q24.44,1.32,48.87,2.76A21.55,21.55,0,0,1,327.36,179.58Z"/><path class="cls-1" d="M211.63,236.74c4.85-.39,9.48-.84,14.13-1.14,11.6-.75,23.21-1.39,34.81-2.15,2.53-.16,3.1.49,2.78,3.19-1.22,10.32-2.41,20.66-3,31-.75,13.57-1.23,27.18-1.17,40.77,0,8.2,1.24,16.41,2,24.6.29,3,0,3.55-2.94,3.44-15.75-.59-31.5-1.21-47.24-1.76-1.8-.07-2.47-.4-2-2.48,1.54-7.41,3.35-14.82,4.12-22.33,1.05-10.15,1.51-20.38,1.71-30.59.19-9.08-.08-18.18-.63-27.25C213.91,247.18,212.61,242.34,211.63,236.74Z"/><path class="cls-1" d="M210.56,228.73A314.86,314.86,0,0,0,204,133.66l53.24-6.84c-.38,5.19-1.13,9.75-1,14.29.54,15.64,1.45,31.26,2.11,46.9a176.94,176.94,0,0,0,4.51,33.35c.9,3.81.42,4-3.48,4.19C243.36,226.54,227.28,227.63,210.56,228.73Z"/><path class="cls-1" d="M328.61,171.25l-55.47-3.44c.71-3.3,1.71-6.43,2-9.62,1-11.3,2-22.57,5-33.59C287.93,96,304.54,74.51,331.2,61.18c5.76-2.88,11.89-5,17.9-7.41a6.82,6.82,0,0,1,2.57.08c-.06.77.15,1.7-.2,2.29-10.68,17.79-15.8,37.54-20.12,57.52-3,13.67-4.93,27.51-4.59,41.56.11,4.27.89,8.54,1.37,12.8C328.24,169,328.43,170,328.61,171.25ZM316.84,90.11a10.87,10.87,0,0,0-1.46,1c-14.91,14.45-25.47,31.35-29.09,52.09-.55,3.15-.53,6.41-.77,9.62l.77,0C293.44,130.51,304,109.8,316.84,90.11Z"/><path class="cls-1" d="M256.61,118.79l-54.85,7.1a58.81,58.81,0,0,0,.62-6c.26-22.75-2-45.09-10.89-66.34-2.77-6.65-5.72-13.22-8.49-19.87a10.68,10.68,0,0,1-.29-3.13,13.27,13.27,0,0,1,2.9.19,134.87,134.87,0,0,1,45.81,22.52C245.35,63.82,252,77.62,252.88,94.64a123.68,123.68,0,0,0,.79,12.35C254.29,111,255.62,114.94,256.61,118.79Z"/><path class="cls-1" d="M46.24,365.82c14,.78,26,6.09,35.22,17,3.88,4.56,7.51,9.34,11.14,14.11.52.68.43,1.82.63,2.75-.94,0-2,.31-2.79-.07-10.18-5.2-21.1-7.51-32.39-8.14-8.32-.46-16.33.71-22.65,6.91-7.38,7.24-5.87,17.28,3.29,22.1,1.55.81,3.34,1.15,4.94,1.88a3.64,3.64,0,0,1,1.9,1.75c.14.47-.71,1.49-1.34,1.9a18.41,18.41,0,0,1-12.35,2.8C15.67,426.92,8.32,413,10,399.23c1.31-10.73,5.47-19.76,14.31-26.29C30.76,368.16,38.13,366.08,46.24,365.82Z"/><path class="cls-1" d="M525.66,402.09c0,13-6.85,22.71-18.27,25.88a19.5,19.5,0,0,1-15.69-2c-.76-.45-1.17-1.5-1.75-2.27a20.18,20.18,0,0,1,2.25-1.47A61.47,61.47,0,0,0,498,419.6c8.9-5.59,9.22-16.47.78-22.71-6.46-4.79-13.94-5.87-21.6-5.48a80.09,80.09,0,0,0-31.53,8.18,7.87,7.87,0,0,1-2.86.21c.11-.93-.1-2.1.38-2.77,6.49-9.1,13.09-18.19,22.89-24.07,10.86-6.51,22.57-9.22,35-5.5C515.77,371.87,525.65,386.12,525.66,402.09Z"/><path class="cls-1" d="M335.59,381.13a10.05,10.05,0,0,1-1.42,2.77c-11.77,11.88-18.61,26.75-25.64,41.57-6.24,13.18-12.43,26.44-19.74,39-4.61,7.94-11.26,14.69-17,22a41.58,41.58,0,0,1-3,3.72,12.85,12.85,0,0,1-2.66,1.62c-.42-.95-1.21-1.9-1.18-2.83a144.72,144.72,0,0,1,4.44-31c5.06-19.8,13.49-37.89,27.45-53,9.75-10.58,20.91-19.3,34.86-23.82a26,26,0,0,1,3.18-.65Z"/></svg>