<svg id="Layer_1" data-name="Layer 1" xmlns="http://www.w3.org/2000/svg" viewBox="0 0 595.28 566.93"><defs><style>.cls-1{fill:#d86f3a;}</style></defs><path class="cls-1" d="M398.53,357.25c-1.16,4.95-2.31,9.9-3.49,14.85-.54,2.29-1.34,2.71-3.27,1.47C376.87,364,360,359.91,343,356.25a223.44,223.44,0,0,0-55.08-4.48,228.17,228.17,0,0,0-46.18,6.75c-10.62,2.59-21.16,5.41-31,10.34a57.34,57.34,0,0,0-7.51,4.56c-1.52,1.08-2.62,1-3.08-1.05-1.11-4.87-2.24-9.75-3.36-14.62.84-2.16,2.64-3.46,4.37-4.78a92.65,92.65,0,0,1,25.45-13.24A190.93,190.93,0,0,1,271,330.19a245.25,245.25,0,0,1,32.51-1.42c24.81.73,49.16,4.1,72.37,13.48a86.94,86.94,0,0,1,20,11.71A7.8,7.8,0,0,1,398.53,357.25Z"/><path class="cls-1" d="M157.91,281.81c-1.68-2.29-1.66-5.06-2.06-7.67-1.61-10.53,0-21.07.05-31.61a64.07,64.07,0,0,0-7.16-30c-.37-.73-1.34-1.41-.64-2.46A65,65,0,0,1,156.43,236c.84,7.14-.09,14.17-.46,21.25-.42,7.91-.3,15.8,1.88,23.51A4.81,4.81,0,0,1,157.91,281.81Z"/><path class="cls-1" d="M446.06,212a3.64,3.64,0,0,1-.6,2.4,61.81,61.81,0,0,0-6.06,22.19c-.62,7.09.05,14.06.55,21.08.28,3.85.05,7.73.05,11.78-.75-.8-.25-1.64-.55-2.32,0-9.65-1.52-19.25-.92-28.91C439.12,228.92,441.25,220.06,446.06,212Z"/><path class="cls-1" d="M424.22,279.44a152.58,152.58,0,0,0,3.12-30.05,146.47,146.47,0,0,0-3-29.44c-.49-2.4-1.53-4.78-1.06-7.33A196.93,196.93,0,0,0,413,180.53c-15.19-36.87-37.94-68.7-65-97.67-14.65-15.67-31-29.45-47.89-42.57-1.94-1.5-3.1-1.2-4.79.08a407.13,407.13,0,0,0-35.4,30,341.72,341.72,0,0,0-34.09,37.54c-16.78,21.55-31.62,44.25-42.38,69.47A193.43,193.43,0,0,0,168,238.65a156.29,156.29,0,0,0,1.36,34.23,173.38,173.38,0,0,0,14,47.14c3.62,8,9.92,14.82,10.82,24,1.31,0,2.15-.86,3.06-1.59a64.18,64.18,0,0,1,15.15-9A178.4,178.4,0,0,1,253,321.61,223.92,223.92,0,0,1,284.85,318c.9,0,2.33.47,2.4-1.3-.13-.08-.26-.05-.36-.13.34.06-.06-.09.25,0a6.81,6.81,0,0,0,2.72.42,303.06,303.06,0,0,1,33.42,1.07,35.87,35.87,0,0,1,7.9,1.14c.66.82,1.64.77,2.54.89a218.85,218.85,0,0,1,34.52,7.54c11.09,3.45,21.76,7.73,30.87,15.19.57.47,1.11,1.08,2,.76.82-2.61.66-5.46,2.13-7.94a167.15,167.15,0,0,0,21-53.74A5.08,5.08,0,0,1,424.22,279.44Zm-108.9.51c-7.11,6.75-13.4,14.14-17.7,23.34-4.83-11.65-13.67-19.72-22.78-27.65-8.58-7.47-14.76-16.49-16.58-28a3.82,3.82,0,0,0-.15-.48c-1-4.84,0-5.7,4.86-4.93,8.74,1.38,15.44,6.2,21.46,12.26a36.34,36.34,0,0,0,3.27,3.43c1.11-2.18.25-3.88-.2-5.56-2.07-7.67-4.85-15.17-6-23.08-3.1-21.46.29-41.65,12.34-60,3.66-5.56,4-5.44,7.7.12a79.56,79.56,0,0,1,12.6,35.14c1.76,14.45-.3,28.44-4.89,42.16-1,2.93-1.6,6-2.37,9-.13.52-.69,1.17,0,1.57.57.32,1.16-.17,1.57-.52,1.35-1.13,2.69-2.29,3.93-3.55,5.47-5.59,11.71-9.77,19.62-11,.34-.05.66-.15,1-.19,3.68-.46,5,.74,4.22,4.33-1.6,7.52-4.27,14.6-9.09,20.75C324.39,271.91,319.72,275.78,315.32,280Zm96.09-26.31a144.43,144.43,0,0,1-4.24,31.85,23,23,0,0,0-.75,4.2,3.83,3.83,0,0,1-.85,2.72c-2.71,7.88-5.4,15.76-9.17,23.23-.95,1.88-1.79,2.35-3.83,1.31-16-8.17-33.19-12.25-50.94-14.36-5.46-.65-10.91-1.31-16.92-1.64a75.85,75.85,0,0,0,11.83-9.13c9.15-8.72,14.7-19.14,15.61-31.94a124.8,124.8,0,0,0,.1-14.6c-.34-7.42.79-14.55,4.72-21a7.27,7.27,0,0,1,1.65-2.76c1.45-1.87,1.3-2.37-1.07-3a38.5,38.5,0,0,0-22.77,2.85,4.27,4.27,0,0,1-1.93.51l-4.79,2.55c1.11-1.94,2-3.52,2.9-5,4.86-8,5.64-16.59,4.13-25.52-2.41-14.25-9.22-26.66-16.69-38.73a245,245,0,0,0-17.58-25.18c-2.58-3.2-3.11-3.34-5.7-.15-11.63,14.29-22.06,29.36-29.54,46.29a1.63,1.63,0,0,0-.06.5c-1.41,4.28-3.33,8.39-4.21,12.86-1.71,8.73-2.88,17.38,1.37,25.77a4.65,4.65,0,0,1,.5,1.94l3.59,7.2c-4.26-2.46-8-5-12.52-5.84-5.41-1-10.89-.94-16.36-.78A2.67,2.67,0,0,0,235.3,219c-.5,1.1.33,1.82,1,2.61,5,5.74,6.63,12.67,6.95,20,.25,5.79-.48,11.55-.06,17.38,1.09,15.31,7.9,27.33,19.91,36.59,2.23,1.72,4.59,3.28,7.26,5.17-3.37.29-6.4.52-9.41.82-20.22,2-39.83,6.33-58.15,15.43-2,1-3,.6-4-1.14-2-2.74-2.91-6-4.24-9a134.53,134.53,0,0,1-8.1-26.64,25.37,25.37,0,0,1-.91-6.89,139.43,139.43,0,0,1-1.3-31.21,172.27,172.27,0,0,1,9.7-44.82c10.07-28.52,25.36-54,44-77.76,14.43-18.4,31.74-33.85,48.9-49.5,3-2.77,6.26-5.37,9.25-8.21,1.29-1.23,2.08-1,3.26.06,8.52,7.51,17,15.11,25.24,22.89a317.39,317.39,0,0,1,24.57,25c18.76,22,34.65,45.89,46.59,72.31a13.43,13.43,0,0,0,.73,1.27c2.46,4.16,3.92,8.74,5.54,13.24a165,165,0,0,1,7.83,29.91c.79,5,1.65,9.94,1.53,15C411.32,245.57,411.5,249.61,411.41,253.64Z"/><path class="cls-1" d="M185.57,273.3a157.3,157.3,0,0,0,13.25,42.56c-1.24-.81-1.4-1.27-2.61-4.06a162,162,0,0,1-9.17-27c-.79-3.34-1.34-6.7-1.87-10.08A1.41,1.41,0,0,1,185.57,273.3Z"/><path class="cls-1" d="M263.18,217.15c-4.11-7.36-4.35-15.23-3-23.3a55.18,55.18,0,0,1,5.37-17.27c.32,1.89-.76,3.41-1.42,5-2.6,6.28-3.52,12.92-4,19.6a25,25,0,0,0,2.53,12.7C263.05,214.87,263.9,215.91,263.18,217.15Z"/><path class="cls-1" d="M331.13,318.92c-14.51-1.5-29-2.58-43.64-2l-2.69-.24c9.4-.06,18.79-.88,28.17.08,4.66.48,9.35.71,14,1.08a21.29,21.29,0,0,1,4.46.59C332.24,318.66,331.23,318.72,331.13,318.92Z"/><path class="cls-1" d="M332.85,221.87c7.47-4.17,15.57-4.68,23.85-4.06a8.32,8.32,0,0,1,2.37.77c1.22.5,1.43,1.27.55,2.33s-1.77,2.22-2.65,3.34c-.69-1.35.67-1.91,1.16-2.71,1.25-2,1.19-2.33-1.19-2.82a35.85,35.85,0,0,0-13.46.22,31.77,31.77,0,0,0-8.79,2.86C334.09,222.1,333.49,222.48,332.85,221.87Z"/><path class="cls-1" d="M516.52,173.67a2.37,2.37,0,0,0-2.2-1,56,56,0,0,0-12.27,1.12,87.85,87.85,0,0,0-42.56,20.75A54,54,0,0,0,446.06,212a15,15,0,0,1-1,2.57c-5.55,10.9-6.82,22.56-6.13,34.57.35,6.13,1.1,12.23.87,18.39-.24,0-.12-.34-.33-.4a131.24,131.24,0,0,1-3.13,18.28c-.31,1.27,0,2.08.93,2.49s1.48-.65,1.87-1.32c1.53-2.68,3-5.4,4.44-8.13,3.72-7.11,6.94-14.48,12.82-20.26,6.17-6.09,12.56-12,18-18.73,7.09-8.72,12.15-18.65,16.65-28.85,5.91-13.41,12.81-26.06,24.62-35.34C516.17,174.87,517,174.46,516.52,173.67Zm-73,82.21c8.92-22.34,20.79-42.74,38.92-59C471,217.59,459.32,238.09,443.47,255.88Z"/><path class="cls-1" d="M158.94,285.88a12.39,12.39,0,0,0-1-4.07,35.74,35.74,0,0,1-2.27-11.7,175.45,175.45,0,0,1,.52-20.37,70.39,70.39,0,0,0-3.08-27.84c-1.35-4.09-3.56-7.76-5-11.79a63.6,63.6,0,0,0-16.46-19.18,86.2,86.2,0,0,0-41.51-17.65c-2.9-.42-5.86-.42-8.8-.6-1-.06-2.24.08-2.61,1.09-.32.86.81,1.32,1.38,1.87,2,1.93,4.08,3.77,6,5.76,7.8,8.06,13.09,17.73,17.55,27.89,7.3,16.68,16.52,32,30.43,44.13a64.35,64.35,0,0,1,8.59,8.87c4.56,5.87,7.36,12.69,10.58,19.29.88,1.8,1.84,3.57,2.86,5.3.42.71,1.1,1.41,2.07.95C159,287.46,159.05,286.71,158.94,285.88Zm-45.75-89c17.77,16.4,29.76,36.59,38.6,58.78C135.83,238,124.52,217.44,113.19,196.86Z"/><path class="cls-1" d="M399.39,454.53a51.72,51.72,0,0,1-4.9-11.78c-2.38-8.41-2.95-17.12-4.48-25.68-2-11.43-6.57-21.5-15.08-29.66-7.65-7.33-16.78-12.51-25.67-18.05-.28-.18-.56-.34-.9-.54-1.29.29-1.36,1-1.18,2.22,1,6.88,1.8,13.79,2.83,20.66,1.36,9.1,3.17,18.1,6.91,26.58,8.1,18.41,22.5,30.27,40.24,38.62.79.38,1.66,1.65,2.62.6S399.94,455.48,399.39,454.53Zm-40.78-70.44A249.73,249.73,0,0,1,388,447.84C373.52,428.72,364.45,407.12,358.61,384.09Z"/><path class="cls-1" d="M247.25,369.07c-.87-.47-1.38.26-2,.65l-8.5,5.34A86.63,86.63,0,0,0,216.54,392c-7.79,9.12-10.67,20-12.22,31.54-1.48,10.94-3,21.89-9.09,31.52-.52.83-.83,1.72,0,2.54s1.56-.14,2.22-.4a83.52,83.52,0,0,0,15.66-8.9c12.55-8.65,22.3-19.51,27.1-34.28a146.56,146.56,0,0,0,5.17-24c.92-6.21,1.71-12.45,2.56-18.67C247.88,370.52,248.21,369.6,247.25,369.07ZM207,447.67c8.58-21.8,16.34-43.71,29.54-63.58C234.18,402.92,218.37,436.89,207,447.67Z"/><path class="cls-1" d="M447.44,481.44c-4.28-.34-8.57-.33-12.86-.72-15.44-1.42-30.39-4.87-44.46-11.37-32.3-14.9-50.59-40.35-55.88-75.36a201.23,201.23,0,0,1-2-25.12,3.14,3.14,0,0,0-.84-2.53c-.3-.16-.66-.07-1-.22-5.28-2.47-19.18-5.28-32.93-5.28-14,0-27.67,2.67-33.58,5.28-.32.14-.67.06-1,.22a3.15,3.15,0,0,0-.85,2.53,201.22,201.22,0,0,1-2,25.12c-5.29,35-23.59,60.46-55.88,75.36-14.08,6.5-29,9.95-44.47,11.37-4.28.39-8.57.38-12.85.72-2.17.18-3.21,1-3.13,3.27.11,3.54.08,7.07.11,10.61.21.38.56-.67.57,0a31.66,31.66,0,0,1,.11,3.51c-.17,1.78.7,2.34,2.4,2.33,13.45-.07,26.9,0,40.34,0q12.19,0,24.38-.09c5.78-.05,11.56.25,17.34.1a12,12,0,0,0,5.26-1.4,108.1,108.1,0,0,0,16.83-15.94c10.16-11.53,18.44-24.25,23.38-38.93,1.17-3.47,2.05-7,3.14-10.8a75.17,75.17,0,0,1-.44,15.56,148.25,148.25,0,0,1-7,31.53,147.16,147.16,0,0,1-7.26,16.76c-1.23,2.49,15.5,14.27,34.19,29.67v.06l0,0,0,0v-.06c18.69-15.4,35.42-27.18,34.18-29.67a132.78,132.78,0,0,1-14.22-48.29,73.81,73.81,0,0,1-.44-15.56c1.08,3.76,2,7.33,3.13,10.8,4.94,14.68,13.22,27.4,23.38,38.93a108.55,108.55,0,0,0,16.83,15.94,12,12,0,0,0,5.26,1.4c5.79.15,11.56-.15,17.35-.1q12.18.09,24.37.09c13.45,0,26.9-.05,40.35,0,1.7,0,2.56-.55,2.39-2.33a31.66,31.66,0,0,1,.11-3.51c0-.66.37.39.58,0,0-3.54,0-7.07.11-10.61C450.64,482.44,449.61,481.62,447.44,481.44Z"/></svg>