<svg id="Layer_1" data-name="Layer 1" xmlns="http://www.w3.org/2000/svg" viewBox="0 0 273.28 335.21"><defs><style>.cls-1{fill:#80cce8;}</style></defs><path class="cls-1" d="M178.21,127.77c0-25.7-.06-51.39,0-77.09a3.77,3.77,0,0,0-2.67-4.08,114.1,114.1,0,0,0-16-5.29c-.46-.11-1.05-.65-1.57,0,0,1.1-.15,2.2-.15,3.3q0,67.29,0,134.59c0,11-.33,22.07.22,33.1a6.18,6.18,0,0,0,0,1c1.31,11.7,5.05,22.72,9.32,33.59a3.86,3.86,0,0,0,1.74,2.21c1.6-4.42,3.12-8.68,4.68-12.92,2.69-7.27,4.6-14.63,4.56-22.52C178.12,185,178.22,156.38,178.21,127.77Z"/><path class="cls-1" d="M229.64,227.61c0-29-.11-58-.09-87,0-14.2-.85-28.24-6.07-41.67-.77-2-1.2-4.09-2.39-5.89-.19-.31-.28-1.12-.76-.35-.26.43-.07,1.14-.07,1.72q0,54.79,0,109.58a30.86,30.86,0,0,0,.85,8.67c1.68,8,5.54,15.85,8.52,17.11Z"/><path class="cls-1" d="M115.15,53.45h0a106.67,106.67,0,0,0,.2-11.45c0-.91-.41-1.33-1.36-1A135.15,135.15,0,0,0,97,47c-.87.4-1.78.86-1.77,2.06,0,.65-.1,1.29-.1,1.94q0,74.49,0,149c0,7.07-.25,14.15.14,21.22h0a8.46,8.46,0,0,0,.08,1.34,97.5,97.5,0,0,0,5,16.92c1.19,3.11,1.94,6.43,3.9,9.26a3.39,3.39,0,0,0,1.34-1.9A86.48,86.48,0,0,0,111.19,232c1.51-5.74,3.36-11.41,3.82-17.39.11-3.17.32-6.35.32-9.53q0-47.29-.12-94.6Z"/><path class="cls-1" d="M83.34,212.85c0-.75.18-1.53.18-2.31V77.38c0-5.74,0-11.49,0-17.24,0-.81-.26-1.69.31-2.45q0,20.75.08,41.49,0,55.23,0,110.44C84,213.14,83.29,215.26,83.34,212.85Z"/><path class="cls-1" d="M52.77,92.31c-.63.66-.83,1.06-.83,1.54h0c-1.93,3.6-3,7.53-4.14,11.42A91,91,0,0,0,44.23,129a6.43,6.43,0,0,1,.14,2.31q0,40.29,0,80.58,0-14.18,0-28.37a1.07,1.07,0,0,0-.26-.89,10.32,10.32,0,0,0-.22,3.28q0,11.38-.06,22.77,0,9.84,0,19.66c0,.53-.2,1.33.51,1.52s1-.56,1.27-1a50.62,50.62,0,0,0,6.11-13,13.92,13.92,0,0,0,.94-5.9c0-.71.08-1.43.08-2.14q0-56.43,0-112.86Z"/><path class="cls-1" d="M44.23,129c.53.54.33,1.22.33,1.85q0,40,0,80c0,.51,0,1-.08,1.72a3.45,3.45,0,0,1-.27-2.08q-.06-13.9-.1-27.81C44.19,164.72,43.81,146.84,44.23,129Z"/><path class="cls-1" d="M147.07,214.81c0-.49,0-1,0-1.46l-.09-4.21q0-71.46,0-142.91,0-12.66,0-25.32c0-.95.2-2.23-1.18-2.27-6.23-.14-12.46-.48-18.67.28-.87.11-.88.59-.75,1.22-.32,4.93-.18,9.86-.18,14.78q0,41.37,0,82.74c0,20.5.15,66.21-.06,76.77a13.34,13.34,0,0,0,.65,4.38l9.71,30,9.87-29.43A13.39,13.39,0,0,0,147.07,214.81Z"/><path class="cls-1" d="M83.71,209.48q0-70.84,0-141.68c0-3.36-.17-6.72.12-10.07V55.94a3.77,3.77,0,0,0-.63.33,154.19,154.19,0,0,0-18,18.1,3.77,3.77,0,0,0-1.07,2L64,143.27h0c-.08.9-.23,1.8-.23,2.7q-.07,32.13-.1,64.27a78.88,78.88,0,0,1,0,8.7c-.37,3.05-.69,13.05-3.42,18.88a1.08,1.08,0,0,0,1.69,1.26l19.53-20.91a6.33,6.33,0,0,0,2.11-4.2C83.65,212.48,83.71,211,83.71,209.48Z"/><path class="cls-1" d="M188.05,209.48q0-70.84,0-141.68c0-3.36.18-6.72-.11-10.07,0,0,0,0,0-.07V55.94a3.39,3.39,0,0,1,.63.33,153.43,153.43,0,0,1,18,18.1,3.7,3.7,0,0,1,1.07,2l.12,66.89h0c.08.9.23,1.8.23,2.7q.09,32.13.11,64.27a81.43,81.43,0,0,0,0,8.7c.38,3.05.69,13.05,3.42,18.88a1.07,1.07,0,0,1-1.68,1.26l-19.53-20.91a6.24,6.24,0,0,1-2.11-4.2C188.11,212.48,188.05,211,188.05,209.48Z"/></svg>