<svg width="60" height="74" viewBox="0 0 60 74" fill="none" xmlns="http://www.w3.org/2000/svg">
<path d="M39.1269 28.206C39.1269 22.5325 39.1137 16.8613 39.1269 11.1878C39.1511 10.9922 39.1055 10.7943 38.9981 10.6294C38.8908 10.4644 38.7287 10.3431 38.5407 10.2871C37.4 9.81133 36.2258 9.421 35.0278 9.11933C34.9268 9.09504 34.7973 8.97583 34.6831 9.11933C34.6831 9.36216 34.6502 9.60499 34.6502 9.84782C34.6502 19.751 34.6502 29.6549 34.6502 39.5595C34.6502 41.9879 34.5777 44.4316 34.6985 46.8666C34.6925 46.9401 34.6925 47.0139 34.6985 47.0873C34.9861 49.6702 35.8072 52.103 36.7447 54.5026C36.8065 54.7077 36.9429 54.8819 37.1268 54.9905C37.478 54.0147 37.8118 53.0743 38.1543 52.1383C38.7449 50.5334 39.1642 48.9086 39.1554 47.1668C39.1071 40.8399 39.1291 34.5218 39.1269 28.206Z" fill="#9AC552"/>
<path d="M50.4186 50.2466C50.4186 43.8447 50.3945 37.4427 50.3989 31.0408C50.3989 27.906 50.2122 24.8066 49.0662 21.8418C48.8971 21.4003 48.8027 20.9389 48.5414 20.5416C48.4997 20.4731 48.4799 20.2943 48.3746 20.4643C48.3175 20.5592 48.3592 20.716 48.3592 20.844C48.3592 28.9075 48.3592 36.971 48.3592 45.0346C48.3311 45.6782 48.3939 46.3226 48.5458 46.9485C48.9147 48.7146 49.7622 50.4475 50.4164 50.7257L50.4186 50.2466Z" fill="#9AC552"/>
<path d="M25.2818 11.7995C25.3414 10.9583 25.3561 10.1146 25.3257 9.27181C25.3257 9.07092 25.2357 8.97821 25.0271 9.05106C23.7557 9.40865 22.5096 9.85114 21.2968 10.3756C21.1058 10.4639 20.906 10.5655 20.9082 10.8304C20.9082 10.9739 20.8863 11.1151 20.8863 11.2586C20.8863 22.2214 20.8863 33.1857 20.8863 44.1514C20.8863 45.7122 20.8314 47.2752 20.917 48.8359C20.9151 48.9348 20.9209 49.0337 20.9346 49.1317C21.1875 50.4076 21.5549 51.6578 22.0323 52.8669C22.2936 53.5535 22.4583 54.2864 22.8886 54.9111C23.0328 54.8106 23.137 54.662 23.1828 54.4917C23.6916 53.4399 24.1032 52.3432 24.4123 51.2157C24.7439 49.9485 25.15 48.6968 25.251 47.3767C25.2752 46.6769 25.3213 45.9749 25.3213 45.2729C25.3213 38.3132 25.3125 31.3519 25.2949 24.3893L25.2818 11.7995Z" fill="#9AC552"/>
<path d="M18.2977 46.988C18.2977 46.8225 18.3372 46.6503 18.3372 46.4781V17.0821C18.3372 15.8149 18.3372 14.5456 18.3372 13.2762C18.3372 13.0974 18.2802 12.9031 18.4053 12.7354C18.4053 15.7892 18.4112 18.8422 18.4229 21.8946C18.4229 30.0228 18.4229 38.1496 18.4229 46.275C18.4426 47.052 18.2867 47.5201 18.2977 46.988Z" fill="#9AC552"/>
<path d="M11.5859 20.3779C11.4476 20.5236 11.4037 20.6119 11.4037 20.7179C10.9799 21.5126 10.745 22.3802 10.4947 23.2389C10.0046 24.9427 9.74105 26.7042 9.71092 28.4775C9.75175 28.6442 9.76217 28.817 9.74166 28.9875C9.74166 34.917 9.74166 40.8465 9.74166 46.7761C9.74166 44.6892 9.74166 42.6016 9.74166 40.5132C9.74741 40.4782 9.74526 40.4424 9.73538 40.4084C9.7255 40.3744 9.70813 40.3431 9.68457 40.3167C9.6301 40.5539 9.61379 40.7984 9.63627 41.0408C9.63627 42.7156 9.63188 44.3912 9.6231 46.0674C9.6231 47.5156 9.6231 48.9623 9.6231 50.4075C9.6231 50.5245 9.57919 50.7011 9.73507 50.7431C9.89095 50.785 9.95462 50.6195 10.0139 50.5223C10.5945 49.6347 11.0462 48.6683 11.3554 47.6525C11.5171 47.2385 11.5875 46.7941 11.5618 46.35C11.5618 46.1933 11.5793 46.0343 11.5793 45.8776C11.5793 37.5727 11.5793 29.2678 11.5793 20.9629L11.5859 20.3779Z" fill="#9AC552"/>
<path d="M9.71092 28.4775C9.82728 28.5967 9.78337 28.7469 9.78337 28.8859C9.78337 34.7728 9.78337 40.6597 9.78337 46.5465C9.78337 46.6591 9.78337 46.7673 9.76581 46.9262C9.69913 46.7831 9.67841 46.6226 9.70653 46.467C9.69775 44.4214 9.69043 42.3749 9.68457 40.3278C9.70214 36.363 9.61871 32.4158 9.71092 28.4775Z" fill="#9AC552"/>
<path d="M32.29 47.4208C32.29 47.3126 32.29 47.2 32.29 47.0985L32.2702 46.1691C32.2702 35.6522 32.2702 25.1361 32.2702 14.6207C32.2702 12.7575 32.2702 10.8943 32.2702 9.03113C32.2702 8.82141 32.3141 8.53884 32.0111 8.53001C30.6433 8.4991 29.2755 8.42405 27.912 8.59182C27.721 8.6161 27.7188 8.72207 27.7474 8.86115C27.6771 9.94948 27.7078 11.0378 27.7078 12.1239C27.7078 18.2124 27.7078 24.3009 27.7078 30.3894C27.7078 34.9149 27.7408 45.0057 27.6947 47.3369C27.6883 47.665 27.7366 47.9918 27.8374 48.3038L29.9693 54.9265L32.1363 48.4297C32.2453 48.1049 32.2973 47.7635 32.29 47.4208Z" fill="#9AC552"/>
<path d="M18.379 46.2442C18.379 35.8185 18.379 25.3929 18.379 14.9673C18.379 14.2256 18.3416 13.4838 18.4053 12.7443V12.3491C18.357 12.369 18.3107 12.3934 18.267 12.422C16.8421 13.6418 15.5202 14.9782 14.315 16.4177C14.1935 16.5371 14.1114 16.6913 14.0801 16.8592L14.0515 31.6278C14.034 31.8265 14.001 32.0252 14.001 32.2239C13.9908 36.9525 13.9835 41.6819 13.9791 46.4119C14.0142 47.0517 14.0142 47.6928 13.9791 48.3325C13.8978 49.0058 13.8276 51.2134 13.2282 52.5004C13.2062 52.5499 13.2016 52.6054 13.2152 52.6579C13.2287 52.7103 13.2597 52.7566 13.3029 52.789C13.3461 52.8214 13.399 52.838 13.4529 52.8361C13.5067 52.8342 13.5584 52.8139 13.5992 52.7786L17.8871 48.1626C18.1542 47.9247 18.3201 47.5928 18.3504 47.2354C18.3658 46.9064 18.379 46.5797 18.379 46.2442Z" fill="#9AC552"/>
<path d="M41.2873 46.2442C41.2873 35.8185 41.2873 25.3929 41.2873 14.9673C41.2873 14.2256 41.3268 13.4838 41.2632 12.7443C41.2632 12.7443 41.2632 12.7443 41.2632 12.7288V12.3491C41.3117 12.3685 41.3581 12.3929 41.4015 12.422C42.8269 13.6412 44.1488 14.9777 45.3535 16.4177C45.4758 16.5365 45.558 16.6909 45.5884 16.8592L45.6148 31.6256C45.6323 31.8243 45.6653 32.023 45.6653 32.2217C45.6784 36.9503 45.6865 41.6797 45.6894 46.4097C45.6554 47.0495 45.6554 47.6906 45.6894 48.3303C45.7728 49.0036 45.8409 51.2112 46.4403 52.4982C46.464 52.5475 46.4699 52.6036 46.457 52.6568C46.4441 52.71 46.4133 52.757 46.3697 52.7899C46.3261 52.8228 46.2725 52.8394 46.2181 52.8369C46.1637 52.8344 46.1119 52.813 46.0714 52.7764L41.7835 48.1603C41.5148 47.9238 41.3486 47.5911 41.3203 47.2332C41.3005 46.9064 41.2873 46.5797 41.2873 46.2442Z" fill="#9AC552"/>
</svg>
