<svg width="120" height="180" viewBox="0 0 120 180" fill="none" xmlns="http://www.w3.org/2000/svg">
<path d="M111.293 97.3575C109.534 94.653 107.921 92.0617 105.94 89.721C102.782 86.0039 99.2035 82.664 95.2755 79.7682C85.7716 72.7657 74.7828 68.0342 63.1564 65.9385C56.2552 64.6556 49.1954 64.4565 42.2326 65.3483C31.175 66.7389 21.1629 70.7451 12.5608 77.9571C10.4315 79.7015 8.47858 81.6499 6.73014 83.7744C6.62251 83.9605 6.46871 84.1159 6.28351 84.2257C6.09831 84.3354 5.88794 84.3958 5.67261 84.401C5.76067 82.5051 6.07072 80.626 6.59643 78.802C8.62236 70.9715 12.269 64.0749 18.2982 58.5527C23.9392 53.3469 30.98 49.8964 38.5575 48.6241C42.4843 47.9098 46.4885 47.7167 50.466 48.0501C56.4027 48.6146 62.2285 50.0207 67.7674 52.2261C75.5809 55.2678 82.8308 59.5894 89.218 65.0128C95.7922 70.5714 101.45 77.1262 105.985 84.4374C108.319 88.0663 110.11 92.0157 111.301 96.1609C111.451 96.5461 111.449 96.9743 111.293 97.3575Z" fill="#1C1B1C"/>
<path d="M112.516 71.9576C111.601 69.5078 110.859 66.9934 109.838 64.5799C107.463 58.9416 104.724 53.4632 101.637 48.1792C98.677 43.0664 95.2998 38.2056 91.5397 33.6461C85.4619 26.329 78.5454 19.9013 70.308 14.9694C64.7117 11.5601 58.5288 9.21873 52.0746 8.06464C54.6136 6.61813 57.3544 5.55677 60.2067 4.91547C67.3198 3.27929 74.7575 3.75855 81.6005 6.29399C86.6725 8.19236 91.1871 11.3278 94.7326 15.4141C101.921 23.4709 105.673 33.161 108.339 43.3766C110.128 50.3792 111.377 57.5083 112.075 64.7012C112.322 67.1066 112.65 69.5038 112.938 71.9011L112.516 71.9576Z" fill="#1C1B1C"/>
<path d="M30.6118 118.702C38.9911 112.889 47.6742 107.306 57.3055 103.931C66.9368 100.555 77.6945 99.5285 87.3339 102.884C96.9732 106.239 105.194 114.482 106.811 124.54C108.278 133.676 104.4 142.699 102.411 151.738C100.421 160.778 101.126 171.879 108.833 177.025C101.945 177.275 97.1677 172.893 93.3266 167.209C89.4854 161.525 87.6296 154.774 85.6726 148.209C83.7155 141.644 81.5032 134.933 77.1151 129.654C71.5073 122.907 62.8647 119.232 54.1775 117.91C45.4903 116.588 39.3638 117.906 30.6118 118.702Z" fill="#1C1B1C"/>
</svg>
