<svg width="60" height="73" viewBox="0 0 60 73" fill="none" xmlns="http://www.w3.org/2000/svg">
<path d="M33.7721 17.5911L30.0077 2.32324L26.2279 17.5911C22.9828 13.6246 9.63904 16.085 9.63904 16.085C24.237 17.3549 30.0077 29.8468 30.0077 29.8468C30.0077 29.8468 35.2187 17.3549 49.8205 16.085C49.8205 16.085 37.0172 13.6246 33.7721 17.5911Z" fill="#E9BAD2"/>
<path d="M4.52618 41.9781C3.57019 40.2571 3.17967 38.2758 3.41051 36.3178C3.54996 35.0267 3.92148 33.7719 4.50694 32.6145C5.25481 31.1682 6.34235 29.9275 7.67506 29.0004C9.17694 27.9335 10.8891 27.204 12.6956 26.8613C14.6461 26.4662 16.6592 26.5092 18.5913 26.9871C19.8874 27.2984 21.1454 27.7528 22.3423 28.3422C24.037 29.1969 25.5466 30.3812 26.7838 31.8267C27.6674 32.8648 28.3587 34.0542 28.8247 35.3382C28.8632 35.4428 28.9209 35.5318 28.8247 35.6731C28.5381 35.3092 28.2476 34.9569 27.9803 34.6007C26.2183 32.3377 23.9658 30.8258 21.1554 30.2741C18.4891 29.7336 15.723 30.0107 13.2149 31.0697C11.7707 31.6648 10.4354 32.4984 9.26393 33.536C7.98686 34.6511 6.91338 35.9823 6.09196 37.4696C5.32131 38.8729 4.79192 40.3972 4.52618 41.9781Z" fill="#E9BAD2"/>
<path d="M31.2599 35.8126C31.3949 35.2632 31.5744 34.7258 31.7966 34.2059C32.2485 33.1316 32.8891 32.148 33.6875 31.3022C35.6341 29.1185 38.0867 27.8486 40.8605 27.1034C42.1477 26.739 43.4826 26.5745 44.8192 26.6155C46.6282 26.6746 48.4109 27.0683 50.0782 27.777C51.5498 28.41 52.8905 29.2386 53.9792 30.4388C55.1266 31.7224 55.9308 33.2785 56.3164 34.9609C56.8819 37.2606 56.5914 39.4907 55.7297 41.6666C55.6951 41.7556 55.6547 41.8427 55.5931 41.986C55.5142 41.6104 55.4585 41.2794 55.3777 40.9542C55.2969 40.629 55.2026 40.3057 55.093 39.9863C54.0321 36.9877 52.0636 34.3994 49.4646 32.5856C47.73 31.3777 45.7481 30.5773 43.6651 30.2433C42.451 30.0468 41.2171 30.0065 39.993 30.1232C37.8537 30.2962 35.8161 31.1153 34.1472 32.4733C33.0282 33.3784 32.0918 34.4909 31.3888 35.7507C31.3888 35.7662 31.3542 35.77 31.2599 35.8126Z" fill="#E9BAD2"/>
<path d="M28.615 32.6308C28.2003 31.9437 27.7422 31.2842 27.2435 30.6562C26.4339 29.6937 25.516 28.8291 24.5082 28.0796C22.0713 26.2693 19.254 25.046 16.2734 24.5042C14.5039 24.1728 12.6938 24.1212 10.9085 24.3512C8.07896 24.7113 5.50522 25.747 3.29696 27.6131C2.75137 28.0644 2.2508 28.5682 1.80235 29.1172C1.77542 29.1643 1.73719 29.2039 1.69116 29.2323C1.64512 29.2607 1.59275 29.2771 1.53882 29.2798C1.56063 28.7888 1.64004 28.3021 1.77542 27.8299C2.29093 25.807 3.23156 24.0221 4.77619 22.6032C6.2222 21.257 8.02723 20.3649 9.96983 20.0363C10.9763 19.8502 12.0029 19.8001 13.0225 19.8872C14.5447 20.0326 16.0384 20.3963 17.4583 20.9674C19.4617 21.7546 21.3209 22.872 22.9597 24.2738C24.645 25.7111 26.0952 27.4064 27.2569 29.2973C27.854 30.236 28.3122 31.2572 28.6169 32.3288C28.6539 32.4261 28.6532 32.5339 28.615 32.6308Z" fill="#E9BAD2"/>
<path d="M58.4342 29.2872C57.5278 28.2523 56.4822 27.3498 55.3277 26.6061C53.8446 25.6997 52.218 25.0561 50.5187 24.7032C48.795 24.3407 47.0295 24.2221 45.2732 24.3508C42.8995 24.4958 40.5767 25.1054 38.4349 26.1454C37.0148 26.8386 35.6942 27.7215 34.5089 28.7703C33.5126 29.6264 32.6238 30.6015 31.862 31.6741C31.737 31.8541 31.6697 32.0767 31.4465 32.2548C31.4754 31.8096 31.6793 31.465 31.8312 31.1166C32.3954 29.8172 33.1157 28.5924 33.976 27.4695C35.1764 25.9217 36.5837 24.5485 38.1579 23.3887C40.1428 21.9038 42.4022 20.8323 44.8038 20.2372C47.2833 19.639 49.732 19.6836 52.1134 20.6437C53.673 21.2707 55.0561 22.273 56.1413 23.563C57.357 24.9897 58.0495 26.6409 58.3977 28.4625C58.4119 28.5214 58.4177 28.582 58.415 28.6426C58.3919 28.8439 58.515 29.0375 58.4342 29.2872Z" fill="#E9BAD2"/>
</svg>
