<svg width="60" height="73" viewBox="0 0 60 73" fill="none" xmlns="http://www.w3.org/2000/svg">
<path d="M33.7721 17.5906L30.0077 2.32275L26.2279 17.5906C22.9828 13.6241 9.63904 16.0845 9.63904 16.0845C24.237 17.3544 30.0077 29.8463 30.0077 29.8463C30.0077 29.8463 35.2187 17.3544 49.8205 16.0845C49.8205 16.0845 37.0172 13.6241 33.7721 17.5906Z" fill="#CE433A"/>
<path d="M4.52618 41.9786C3.57019 40.2575 3.17967 38.2763 3.41051 36.3183C3.54996 35.0272 3.92148 33.7724 4.50694 32.615C5.25481 31.1687 6.34235 29.928 7.67506 29.0008C9.17694 27.934 10.8891 27.2045 12.6956 26.8618C14.6461 26.4667 16.6592 26.5097 18.5913 26.9876C19.8874 27.2989 21.1454 27.7533 22.3423 28.3427C24.037 29.1974 25.5466 30.3817 26.7838 31.8271C27.6674 32.8653 28.3587 34.0547 28.8247 35.3387C28.8632 35.4433 28.9209 35.5323 28.8247 35.6736C28.5381 35.3097 28.2476 34.9574 27.9803 34.6012C26.2183 32.3382 23.9658 30.8263 21.1554 30.2746C18.4891 29.7341 15.723 30.0112 13.2149 31.0702C11.7707 31.6653 10.4354 32.4988 9.26393 33.5365C7.98686 34.6516 6.91338 35.9828 6.09196 37.4701C5.32131 38.8734 4.79192 40.3977 4.52618 41.9786Z" fill="#CE433A"/>
<path d="M31.2599 35.8126C31.3949 35.2632 31.5744 34.7258 31.7966 34.2059C32.2485 33.1316 32.8891 32.148 33.6875 31.3022C35.6341 29.1185 38.0867 27.8486 40.8605 27.1034C42.1477 26.739 43.4826 26.5745 44.8192 26.6155C46.6282 26.6746 48.4109 27.0683 50.0782 27.777C51.5498 28.41 52.8905 29.2386 53.9792 30.4388C55.1266 31.7224 55.9308 33.2785 56.3164 34.9609C56.8819 37.2606 56.5914 39.4907 55.7297 41.6666C55.6951 41.7556 55.6547 41.8427 55.5931 41.986C55.5142 41.6104 55.4585 41.2794 55.3777 40.9542C55.2969 40.629 55.2026 40.3057 55.093 39.9863C54.0321 36.9877 52.0636 34.3994 49.4646 32.5856C47.73 31.3777 45.7481 30.5773 43.6651 30.2433C42.451 30.0468 41.2171 30.0065 39.993 30.1232C37.8537 30.2962 35.8161 31.1153 34.1472 32.4733C33.0282 33.3784 32.0918 34.4909 31.3888 35.7507C31.3888 35.7662 31.3542 35.77 31.2599 35.8126Z" fill="#CE433A"/>
<path d="M28.6151 32.6303C28.2003 31.9432 27.7422 31.2837 27.2435 30.6557C26.4339 29.6932 25.516 28.8286 24.5082 28.0791C22.0714 26.2688 19.2541 25.0455 16.2734 24.5037C14.5039 24.1724 12.6939 24.1208 10.9086 24.3507C8.07902 24.7108 5.50528 25.7465 3.29702 27.6126C2.75143 28.0639 2.25086 28.5677 1.80241 29.1167C1.77548 29.1639 1.73725 29.2034 1.69122 29.2318C1.64518 29.2602 1.59281 29.2766 1.53888 29.2794C1.56069 28.7883 1.6401 28.3017 1.77548 27.8294C2.291 25.8065 3.23162 24.0217 4.77625 22.6027C6.22226 21.2565 8.02729 20.3644 9.96989 20.0358C10.9763 19.8497 12.003 19.7996 13.0226 19.8867C14.5448 20.0321 16.0385 20.3958 17.4583 20.9669C19.4618 21.7541 21.321 22.8715 22.9598 24.2733C24.6451 25.7107 26.0952 27.4059 27.257 29.2968C27.8541 30.2355 28.3122 31.2567 28.617 32.3283C28.6539 32.4256 28.6532 32.5334 28.6151 32.6303Z" fill="#CE433A"/>
<path d="M58.4342 29.2872C57.5278 28.2523 56.4822 27.3498 55.3277 26.6061C53.8446 25.6997 52.218 25.0561 50.5187 24.7032C48.795 24.3407 47.0295 24.2221 45.2732 24.3508C42.8995 24.4958 40.5767 25.1054 38.4349 26.1454C37.0148 26.8386 35.6942 27.7215 34.5089 28.7703C33.5126 29.6264 32.6238 30.6015 31.862 31.6741C31.737 31.8541 31.6697 32.0767 31.4465 32.2548C31.4754 31.8096 31.6793 31.465 31.8312 31.1166C32.3954 29.8172 33.1157 28.5924 33.976 27.4695C35.1764 25.9217 36.5837 24.5485 38.1579 23.3887C40.1428 21.9038 42.4022 20.8323 44.8038 20.2372C47.2833 19.639 49.732 19.6836 52.1134 20.6437C53.673 21.2707 55.0561 22.273 56.1413 23.563C57.357 24.9897 58.0495 26.6409 58.3977 28.4625C58.4119 28.5214 58.4177 28.582 58.415 28.6426C58.3919 28.8439 58.515 29.0375 58.4342 29.2872Z" fill="#CE433A"/>
</svg>
