<svg id="Layer_1" data-name="Layer 1" xmlns="http://www.w3.org/2000/svg" viewBox="0 0 311.92 377.1"><defs><style>.cls-1{fill:#fff;}</style></defs><path class="cls-1" d="M175.57,90.87,156,12,136.35,90.87c-16.87-20.49-86.24-7.78-86.24-7.78C126,89.65,156,154.18,156,154.18S183.09,89.65,259,83.09C259,83.09,192.44,70.38,175.57,90.87Z"/><path class="cls-1" d="M23.53,216.85a48.27,48.27,0,0,1-5.8-29.24,55.35,55.35,0,0,1,5.7-19.13A51.72,51.72,0,0,1,39.9,149.81,66.69,66.69,0,0,1,66,138.76a70.3,70.3,0,0,1,30.65.65,94.05,94.05,0,0,1,19.5,7,74.57,74.57,0,0,1,23.09,18,59,59,0,0,1,10.61,18.14c.2.54.5,1,0,1.73-1.49-1.88-3-3.7-4.39-5.54-9.16-11.69-20.87-19.5-35.48-22.35a70.64,70.64,0,0,0-41.28,4.11,72.89,72.89,0,0,0-20.54,12.74,75.4,75.4,0,0,0-16.49,20.32A73.49,73.49,0,0,0,23.53,216.85Z"/><path class="cls-1" d="M162.51,185a53.5,53.5,0,0,1,2.79-8.3,50.18,50.18,0,0,1,9.83-15c10.12-11.28,22.87-17.84,37.29-21.69A68.31,68.31,0,0,1,233,137.49a76.66,76.66,0,0,1,27.34,6c7.65,3.27,14.62,7.55,20.28,13.75a52.61,52.61,0,0,1,12.15,23.36c2.94,11.88,1.43,23.4-3.05,34.64-.18.46-.39.91-.71,1.65-.41-1.94-.7-3.65-1.12-5.33s-.91-3.35-1.48-5a78.61,78.61,0,0,0-29.26-38.23A73.24,73.24,0,0,0,227,156.23a75.42,75.42,0,0,0-19.09-.62,55.39,55.39,0,0,0-30.39,12.14,58.42,58.42,0,0,0-14.34,16.93C163.18,184.76,163,184.78,162.51,185Z"/><path class="cls-1" d="M148.76,168.56a97.06,97.06,0,0,0-7.13-10.2,84.15,84.15,0,0,0-14.22-13.31A102.87,102.87,0,0,0,84.6,126.58a90,90,0,0,0-27.89-.79C42,127.65,28.62,133,17.14,142.64a56.49,56.49,0,0,0-7.77,7.77,1.68,1.68,0,0,1-1.37.84,32.21,32.21,0,0,1,1.23-7.49c2.68-10.45,7.57-19.67,15.6-27a52.6,52.6,0,0,1,27-13.26,59.83,59.83,0,0,1,15.87-.77,83.35,83.35,0,0,1,23.06,5.58,100.73,100.73,0,0,1,28.6,17.08,109.5,109.5,0,0,1,22.34,25.95A59.33,59.33,0,0,1,148.77,167,2.15,2.15,0,0,1,148.76,168.56Z"/><path class="cls-1" d="M303.78,151.29a76.51,76.51,0,0,0-16.15-13.85,78.87,78.87,0,0,0-25-9.83,98.39,98.39,0,0,0-27.27-1.82,95.06,95.06,0,0,0-35.55,9.27,91.18,91.18,0,0,0-20.41,13.56,83.8,83.8,0,0,0-13.76,15c-.65.93-1,2.08-2.16,3,.15-2.3,1.21-4.08,2-5.88a89.65,89.65,0,0,1,11.15-18.84,110,110,0,0,1,21.74-21.08,96.64,96.64,0,0,1,34.55-16.28c12.89-3.09,25.62-2.86,38,2.1a53.38,53.38,0,0,1,20.94,15.08c6.32,7.37,9.92,15.9,11.73,25.31a3.3,3.3,0,0,1,.09.93C303.56,149,304.2,150,303.78,151.29Z"/></svg>