<svg id="Layer_1" data-name="Layer 1" xmlns="http://www.w3.org/2000/svg" viewBox="0 0 566.93 566.93"><defs><style>.cls-1{fill:#aa5c9d;}</style></defs><path class="cls-1" d="M236.24,246.26c2.39-3.47,5.82-4.44,9.76-3.5,3.59.85,9.63-3.21,5.91-4.42-3.1-1-6.21-2.47-9.38-2.68-8-.52-12.55,4.4-15.51,11.1C224.5,252.48,234.05,249.44,236.24,246.26Zm-24.11,90a16.22,16.22,0,0,0-1.16-1.54c-3.66-3.88-7.65-7.5-10.95-11.67-8.57-10.83-9.81-22.8-4.43-35.44a69.8,69.8,0,0,1,3.77-6.66c-11.26,6.3-15.75,22-11.6,34C192.14,327.62,205.22,337.09,212.13,336.27Zm13.4,8.9c11.85,8.06,32.63,1.82,40-12.14C253.44,341.81,240.58,346.38,225.53,345.17ZM349.84,201.32a10.21,10.21,0,0,0-.85-1.7c-2.45-3-8-4.64-11.65-3.48a8.3,8.3,0,0,0-5.93,5.71,4.15,4.15,0,0,0,.67,3.51c.52.49,2.29-.09,3.4-.49,2.56-.94,5-2.31,7.61-3C345.1,201.3,347.3,201.49,349.84,201.32ZM184.57,271.53c.21-.1,14.21-19.42,24.48-22.47a4.19,4.19,0,0,0,2.94-2.57c2.71-6,5.15-12.13,9.92-16.9,6-5.94,13.23-8.1,21.43-7.13,4.31.51,8.57,1.48,12.84,2.28,6.79,1.27,13.25-.21,19.57-2.48,13.47-4.83,26.59-10.43,38.92-17.75a20.19,20.19,0,0,0,8.32-8.86c6.09-13,21.46-15.17,32.46-5.26a34.34,34.34,0,0,1,9,13.66c2.57,6.75,1.08,10.53-4.6,15.63-1.37,1.23-1.87,2.06-1.29,3.81,1.51,4.54.95,9.1-.34,13.59a8.28,8.28,0,0,1-1.72,2.94c-1.17,1.37-2.25,1.18-2.89-.57-.39-1.08-.66-2.21-1.07-3.28a39.66,39.66,0,0,0-2.09-5c-2.53-4.62-4.63-5-9-1.83.84,7.82,1,15.44-5.43,21.13l-1.09-.1a36.68,36.68,0,0,0-1.23-5.58,41.43,41.43,0,0,0-3.36-6.73c-.68-1.11-1.86-1.43-3.14-.36-2,1.63-4.1,3-6,4.7a3,3,0,0,0-.59,2.28c.62,5.46.57,10.84-1.79,16-.65,1.42-1.29,2.94-3,2.6-2-4.3-3.86-8.36-5.89-12.76-3,2.4-5.56,4.38-8,6.53-.45.4-.43,1.49-.41,2.26.13,4.93.64,9.92-1.55,14.57a29.87,29.87,0,0,1-2.76,4l-.8-.23c-1.48-3.84-2.95-7.69-4.65-12.14-3.19,2.37-6,4.42-8.76,6.54-6,4.6-11.86,9.38-18.93,12.38-6.15,2.61-12.55,2.42-18.95,1.75-14.09-1.49-25.18,3.5-33.26,15.42,1.79-.64,3.62-1.19,5.37-1.94,6.52-2.78,13.13-4.94,20.34-5.42,8.17-.54,15.24,1.53,21.45,6.81,5.2,4.42,10.36,8.92,16.65,11.79a30.27,30.27,0,0,0,13.2,3.07c-11.44-6-20.51-14.67-28.46-24.81,6.65-1.6,12.34.39,17.77,3.87a108.43,108.43,0,0,0,11,6.45c3.1,1.51,3.53,1.2,4.88-2.07a65.85,65.85,0,0,0,2.1-6.79c.29-1,.5-2,.87-3.51,6.11,4.38,6.27,10.59,6.88,16.9,2.68.36,5.42.81,8.17,1,.5,0,1.35-.84,1.57-1.46,1.15-3.24,2.29-6.5,3.15-9.82.43-1.69,1.41-2,2.36-1.1a16.5,16.5,0,0,1,4,5.11c1,2.43,1.33,5.19,2,8.11,2.39,0,4.93.11,7.45-.08.61,0,1.47-1,1.67-1.62,1.17-3.83,2.17-7.72,3.31-11.88,6.62,2.22,6.37,8.62,8.34,13.69a4.14,4.14,0,0,0,4.53-2.66c1.26-2.71,2-5.65,3.06-8.49.31-.86.77-1.67,1.16-2.51.89.53,2.05.85,2.61,1.62,2.35,3.15,2.21,6.93,2.41,10.63,0,.63.4,1.61.88,1.81,6.28,2.65,6.44,8,4,13.24-3.27,7.08-9.45,10.84-16.71,12.71a52.58,52.58,0,0,1-11.92,1.56c-9.14.22-18.3-.25-27.42.14-9.5.4-18.48,2.84-26.18,8.85-10.09,7.88-33.13,20.24-50.78,23.71C211.85,372.44,145.88,320.24,184.57,271.53Z"/></svg>