<svg id="Layer_1" data-name="Layer 1" xmlns="http://www.w3.org/2000/svg" viewBox="0 0 595.28 566.93"><defs><style>.cls-1{fill:#aa5c9d;}</style></defs><path class="cls-1" d="M296.2,456.41c1.91-3.49,2.38-6.78,3.37-9.86,2.34-7.26,5.61-13.91,11.14-19.34,9.27-9.1,22.11-9.29,31.56-.28,1.5,1.43,4.24,2.77,3.9,4.62-.37,2-3.42,1.29-5.25,1.64-20.37,3.93-40.7,27.13-39.28,52.49.73,13,8.36,24.13,19.4,27.63A22.74,22.74,0,0,0,347.74,503c5.36-9.35,3.87-20.44-3.7-27.41a16.42,16.42,0,0,0-22.87,0c-4.92,4.55-4.21,11.13,1.57,14.51,3.12,1.83,6.29,1.09,8.37-1.92.48-.69.74-1.9,1.78-1.73s1.29,1.33,1.63,2.28c1.83,5-2.63,11.53-8.47,12.36s-9.87-1.52-12.45-7.17c-6.51-14.28,3.49-34.79,18.7-38.34,16.65-3.88,35.57,8.23,38.87,25.21,2.35,12,1.17,23.72-7.12,33.31-15.55,18-42.41,20.61-59.45,4.88a24,24,0,0,1-4.73-6c-1.17-2.1-2.11-4.34-3.14-6.5-1.14.39-1.31,1.39-1.61,2.16-4.67,11.7-14.21,17.39-25.76,19.73-15.14,3.07-28.34-1.59-39.3-12.29-7.74-7.55-10.26-17.31-9.77-27.73.75-15.87,10.38-28.09,24.77-32.27,17.31-5,31.92,4.13,35.25,21.92,1,5.26,1,10.42-.84,15.41-3,8-11.34,10.41-17.84,5.38-3.43-2.66-4.76-7.67-2.95-11,.62-1.14,1-1.94,2.26-.39,3.44,4.29,7.33,4.77,10.92,1.54a8.83,8.83,0,0,0,.76-12.53c-8-8.72-21.72-6.7-27.85,4.1-5.47,9.64-3.13,21.09,5.86,28.68,8.14,6.88,20.75,6.88,29.17,0,7.41-6.09,10.61-14.11,11.25-23.56,1.72-25.83-19.12-46.21-34.58-51a50.13,50.13,0,0,0-7.73-1.81c-.93-.12-2.19-.24-2.53-1.18s.65-1.82,1.33-2.52c11.32-11.59,24.76-12,35.84-.47,6.49,6.74,9.05,15.32,11.56,23.95.15.53.26,1.07.43,1.59S295.75,455.21,296.2,456.41Z"/><path class="cls-1" d="M55.54,251.33c-8-8.36-15.8-17-25.54-23.51-.85-.56-2.16-1.2-1.57-2.59.5-1.19,1.76-.66,2.69-.7,4.62-.19,8.63,1.87,12.68,3.66,2.58,1.14,5.07,2.49,7.81,3.85-6.27-18.52-6.44-36.87.28-54.77,8.41-22.42,24.89-35.4,48.84-38.57,1.31-.18,3.32.34,3.78-1.21.41-1.36-1.06-2.6-2-3.69C94.6,124.2,78.19,121.92,67.9,129c-3.75,2.56-5,6.36-5.27,10.65-.07,1.18.29,2.84-1.12,3.2-1.66.41-2.1-1.38-2.64-2.51-6.39-13.29,3-28.89,18-30.31,18.29-1.74,31.49,10.73,36.45,25.78.65,2,1.35,2.5,3.3,2.75,21.63,2.82,37,14.14,44.62,34.67,4.1,11,3.89,22.18-3.65,32-6.68,8.7-15.94,11.75-26.69,11.33,0-.6,0-1,.08-1,12-5.63,16.62-15.93,16.35-28.23-.27-12-7.28-20.32-17.72-25.57C110,151.88,80.76,158.59,70,186.43c-5.59,14.39-4.7,29-1,43.64,3.9,15.5,31.72,57.35,42.2,70.1C85.85,287.62,65.59,261.77,55.54,251.33Z"/><path class="cls-1" d="M421.41,214.06c-8.74-.05-17.48-.8-26.23-1-4.12,0-57.13,0-87,0a5.11,5.11,0,0,0-.82,0l-2,0c-9.18,0-15.68,0-17,0a3.62,3.62,0,0,0-1.25.14c-29.77.1-81.71.17-86.85.29q-11.17.24-22.36.58c-1,0-2.76-.17-1.91,1.64a25.18,25.18,0,0,1,2.12,12c-.08,1.92.79,2.16,2.32,2,6.62-.87,13.27-.48,19.91-.46,4.46,0,66.87,0,92.21,0a6.59,6.59,0,0,0,1,.07c12.06,0,114.22-.78,126.27.4,1.5.14,1.75-.56,1.74-1.83-.05-3.81,0-7.61,1.73-11.15C424.37,214.33,424.21,214.08,421.41,214.06Z"/><path class="cls-1" d="M135.61,379.64c9.56.78,17.35,7.46,23.67,16.49,6.14,8.77,9.25,18.95,13.59,28.57,5,11.15,9.77,22.46,16.46,32.79.44.68,1.68,1.7.45,2.51s-2-.57-2.85-1.19a107.69,107.69,0,0,1-27.75-32.24C155,419.36,151,412,145,406.08c-3.54-3.53-7.46-6.05-12.84-4.54-5.8,1.63-9.52,5.19-10.85,11.19-1,4.54,1,7.9,3.88,11,.76.83,2.65,1.31,1.56,2.94-.85,1.25-2.35.65-3.56.46-12.57-2-16.63-10.84-15.93-22.06C108.15,390.85,120.09,379.59,135.61,379.64Z"/><path class="cls-1" d="M457.33,379.64c-9.56.78-17.35,7.46-23.67,16.49-6.14,8.77-9.25,18.95-13.59,28.57-5,11.15-9.78,22.46-16.46,32.79-.44.68-1.69,1.7-.45,2.51s2-.57,2.84-1.19a107.72,107.72,0,0,0,27.76-32.24c4.15-7.21,8.2-14.53,14.18-20.49,3.54-3.53,7.46-6.05,12.83-4.54,5.81,1.63,9.53,5.19,10.86,11.19,1,4.54-1,7.9-3.88,11-.76.83-2.65,1.31-1.56,2.94.85,1.25,2.35.65,3.56.46,12.57-2,16.62-10.84,15.93-22.06C484.79,390.85,472.85,379.59,457.33,379.64Z"/><path class="cls-1" d="M178.38,322.57c.05-14.87-6.43-26.1-16.64-35.54-2.53-2.34-1.56-2.94,1.09-3.73,6.26-1.87,11.68-.83,17.23,3.64,1.43-.72.72-2.05.68-3-.46-11.72.72-23.34,2.06-35,.09-.76-.32-1.76.77-2.12s1.54.53,1.93,1.19c8.8,15,17.22,30.29,13.49,48.73C196.56,308.75,187.3,315.49,178.38,322.57Z"/><path class="cls-1" d="M539.74,251.33c8-8.36,15.8-17,25.54-23.51.85-.56,2.15-1.2,1.57-2.59-.51-1.19-1.76-.66-2.7-.7-4.62-.19-8.62,1.87-12.67,3.66-2.59,1.14-5.08,2.49-7.82,3.85,6.28-18.52,6.45-36.87-.27-54.77-8.42-22.42-24.89-35.4-48.84-38.57-1.31-.18-3.32.34-3.79-1.21-.4-1.36,1.07-2.6,2-3.69,7.94-9.6,24.36-11.88,34.65-4.85,3.75,2.56,5,6.36,5.26,10.65.08,1.18-.28,2.84,1.13,3.2,1.66.41,2.1-1.38,2.64-2.51,6.39-13.29-3-28.89-18-30.31-18.28-1.74-31.48,10.73-36.44,25.78-.65,2-1.35,2.5-3.31,2.75C457,141.33,441.68,152.65,434,173.18c-4.1,11-3.89,22.18,3.66,32,6.67,8.7,15.94,11.75,26.69,11.33,0-.6,0-1-.08-1-12-5.63-16.62-15.93-16.35-28.23.26-12,7.27-20.32,17.71-25.57,19.6-9.85,48.88-3.14,59.69,24.7,5.59,14.39,4.7,29,1,43.64-3.89,15.5-31.71,57.35-42.19,70.1C509.42,287.62,529.69,261.77,539.74,251.33Z"/><path class="cls-1" d="M416.9,322.57c0-14.87,6.42-26.1,16.64-35.54,2.52-2.34,1.56-2.94-1.09-3.73-6.26-1.87-11.69-.83-17.24,3.64-1.42-.72-.72-2.05-.68-3,.46-11.72-.71-23.34-2.06-35-.08-.76.33-1.76-.77-2.12s-1.53.53-1.92,1.19c-8.81,15-17.22,30.29-13.49,48.73C398.71,308.75,408,315.49,416.9,322.57Z"/><path class="cls-1" d="M183,140.52c.61-.6,1.37-.38,2.08-.38q22.69,0,45.4,0c.71,0,1.48-.21,2.08.39Z"/><path class="cls-1" d="M367.5,140.52c.6-.6,1.37-.39,2.07-.39H412.8c.63,0,1.31-.16,1.83.39Z"/><path class="cls-1" d="M425.81,156.15c.13-2.79,1.21-5.4,2-8.34H381.7a163.64,163.64,0,0,0-18.66-.32l-39.29-.15a2.73,2.73,0,0,0-1.1-.17,5.29,5.29,0,0,0-.8-.07c-9.86-.06-19.72-.21-29.58-.11-5.38.06-10.76-.23-16.13.19H276a4.11,4.11,0,0,0-1.67.16l-2.82.08L239,147.5a162.77,162.77,0,0,0-17.67.32l-41.23.17c-2-.05-4.06,0-6.07-.17s-2.37.57-1.71,2.32c1.76,4.68,1.67,9.5,1,14.35-.42,1.54.53,1.46,1.6,1.46,58.12.12,116.25.43,174.37.19q37.46-.16,74.91-.15c1.42,0,2.69.08,2.08-2C425.7,161.42,426,158.77,425.81,156.15Z"/><path class="cls-1" d="M421.46,138.24c-4.06-3-8.11-5.92-12.2-8.83-19.2-13.68-38.34-27.48-56.11-43S317.08,55.73,301,38.27c-.87-1-1.33-1-2.23,0-7.43,8.29-15.62,15.79-23.84,23.27A889.5,889.5,0,0,1,199,123c-6.95,5-14,10-20.93,15-.56.4-1.55.64-1.3,1.52s1.2.69,1.9.74a16.71,16.71,0,0,0,4.35.27,3.84,3.84,0,0,1,1.68-.17h46.2a4,4,0,0,1,1.68.16c8.78-.88,15.79-4.7,20.42-12.61a6.15,6.15,0,0,1,.72.9c3.25,7.08,9.22,9.89,16.55,11,7.68,1.16,15.37.75,23.06.86,3.58.06,3.55,0,3.56-3.63.07-14.18-.52-28.38,2-42.44.23-1.25.15-2.65,1.5-3.91A127,127,0,0,1,302.66,107c.83,10.37.44,20.75.46,31.13,0,1.9.63,2.58,2.54,2.55,7.22-.11,14.45.23,21.64-.57,8-.89,15.3-3.07,19-11.24a6.56,6.56,0,0,1,.72-1,24.72,24.72,0,0,0,8.54,9c3.66,2.19,7.54,3.71,11.9,3.55a3.82,3.82,0,0,1,1.68-.17H413a3.84,3.84,0,0,1,1.68.17c2.12.26,4.2-.2,6.3-.33.51,0,1.23.2,1.49-.49C422.74,138.85,422,138.6,421.46,138.24Zm-47.92-6.31c-9.37-4.35-17.26-10.78-24.84-17.66-3.3-3-6.47-6.15-10.35-8.41-4.46-2.61-9.23-3.48-14.2-1.83-9.58,3.2-10,14.22-6.23,19.88,1.73,2.61,4.36,3.48,7.42,3.12.38,0,.9-.07,1.09-.31.42-.54-.19-.85-.5-1.16a6.51,6.51,0,0,1-1.92-6,5.79,5.79,0,0,1,4.55-4.77,8,8,0,0,1,8.25,3.9,7.83,7.83,0,0,1-.35,8.29c-3.6,6-12.18,8.16-18.11,4.46-4.69-2.93-7.73-7.09-8.36-12.72-.62-5.45-.48-10.87,2.16-15.85,2.21-4.16,5.47-7,10.46-7.23a4.34,4.34,0,0,0,.91-.23c.06,0,.1-.12.3-.36-8.42-7.3-16.94-14.52-24.21-23.16-7,9-15.83,16.11-24.28,23.77a4.15,4.15,0,0,0,.86.37c7.89,1.05,12.16,4.87,13.11,13,.59,5.06,1.23,10.39-1.2,15.29-2.59,5.23-6.77,8.48-12.67,8.86-5.73.37-9.93-2.43-12.67-7.36a6.62,6.62,0,0,1,.54-7.93,7.93,7.93,0,0,1,8.49-2.9c4.4,1.16,5.52,6.54,2.24,10.2-.34.38-1.13.58-.81,1.28s.95.49,1.51.55a7.17,7.17,0,0,0,8.08-4.79c2.06-5,1.82-9.9-1.65-14.15-3.9-4.77-9.21-5.56-15-4.36-3.36.7-6,2.68-8.62,4.75-6.34,5-12,10.89-18.6,15.65s-13.05,9-21.15,10.29a39.82,39.82,0,0,1-6.45.21c-.23-.91.36-1.1.83-1.37,12.95-7.35,24.49-16.64,36-26C260,97.65,271.75,88,283,77.67c5-4.61,10.07-9.18,15-13.9,1.37-1.33,2.07-1.55,3.58-.1a758.83,758.83,0,0,0,69.13,58.62A152.64,152.64,0,0,0,386.86,133c.53.31,1.23.48,1.59,1.6A28.62,28.62,0,0,1,373.54,131.93Z"/></svg>