<svg id="Layer_1" data-name="Layer 1" xmlns="http://www.w3.org/2000/svg" viewBox="0 0 513.68 514.28"><defs><style>.cls-1{fill:#fff;}</style></defs><path class="cls-1" d="M476.77,257.17c5,.44,8.94,2.45,12.76,4.88,11.5,7.3,16.4,18,15.55,31.32-.69,10.76-10.28,22-20.69,24.86a19.85,19.85,0,0,1-12.27-.8c-.82-.3-1.6-.81-1.6-1.79s1-1,1.67-1.22c8.53-3.49,13.91-11.54,12.91-19.37-1.23-9.72-8.3-17.05-18.06-17.83-17.64-1.42-31.53,5.6-41.7,19.9-5.32,7.47-9.65,18.17-10.79,25.31-1.88-2.41-1.62-5.26-2-7.85-2.77-17,2.51-31.35,13.64-44.27,7.27-8.45,16.43-13.9,25.89-19.07,11-6,20.23-14,26.68-24.85,4-6.76,6.55-13.83,4.87-21.88-1.92-9.17-13.81-15-21.93-7.44-1.52,1.43-1.81.91-2.21-.72-1.67-6.67,3.58-14.24,11.15-16,9.83-2.29,20.18,2.28,26.52,11.86,8.08,12.21,8,25,2.66,38.19-3.93,9.76-11.39,16.6-19.23,23.12-.94.79-1.86,1.61-2.77,2.44C477.52,256.2,477.32,256.51,476.77,257.17Z"/><path class="cls-1" d="M99.57,324.07c-1.39-4-2.5-7.25-3.71-10.5-4.32-11.61-10.57-22-21.22-28.77-9.8-6.21-20.43-9.86-32.36-6.48-9,2.54-14.85,11.81-13.93,21.16.84,8.62,6.06,13,13.48,15.78-2.35,2.34-7.81,3.9-10.94,3.2-13.37-3-22.16-13.75-22.38-27.78-.19-12.59,5.48-22.14,15.83-29.07,2.39-1.6,5.16-2.32,7.86-3.19a10.92,10.92,0,0,0,4.47-2c-3.22-3-7.08-5.18-10.2-8.23C15.5,237.43,8.6,225.09,9.89,209.1c.85-10.59,10.51-26.19,22.79-28.38a23.16,23.16,0,0,1,13.11.95,13,13,0,0,1,7.71,15.59c-.45,1.45-.77,1.73-1.92.54-3.74-3.86-8.21-5.64-13.36-3.44-5.54,2.36-8.46,6.93-8.79,12.89-.77,13.62,5.91,23.95,15.3,32.8,6.59,6.21,14.45,10.66,22.38,14.95,12.44,6.72,22.75,15.66,29.09,28.6a52,52,0,0,1,5.14,29.22C100.94,316.38,100.82,320,99.57,324.07Z"/><path class="cls-1" d="M38.6,163.92c-4-7.36-9.52-13.47-15.53-19.13-2.48-2.33-5.17-4.44-7.81-6.59-1-.83-1.34-1.46-.09-2.39a125.79,125.79,0,0,0,24-23.27,13.34,13.34,0,0,1,3.1,3.5A76.51,76.51,0,0,0,62,134.59c3.38,2.22,3.43,2.63.11,4.8-8.89,5.82-15.63,13.68-21.6,22.3-.37.55-.76,1.09-1.17,1.6A5.07,5.07,0,0,1,38.6,163.92Z"/><path class="cls-1" d="M474.08,163.53a67.68,67.68,0,0,0-13-16.72A96.2,96.2,0,0,0,450.64,138c-1.26-.91-2.12-1.81-.31-3.22,8.69-6.74,17.09-13.81,23.78-22.75,3,3.36,5.77,6.56,8.6,9.74a88.51,88.51,0,0,0,14.43,12.78c1.6,1.16,1.93,1.95.16,3.35-3.34,2.64-6.48,5.52-9.72,8.29C482.05,151,478.05,156.94,474.08,163.53Z"/><path class="cls-1" d="M328.76,506.54c-3.77-8.36-10.39-13.69-17.2-18.82-1.81-1.36-1-2.15.26-3.12a84.78,84.78,0,0,0,14.54-13.47c.83-1,1.59-2.09,2.62-3.45,4.18,6.33,9.65,11.16,15.45,15.68,3.56,2.78,3.6,2.92,0,5.47A46.1,46.1,0,0,0,328.76,506.54Z"/><path class="cls-1" d="M179.75,467.86c4,7.16,10.12,11.82,16.22,16.48,2.53,1.93,2.58,1.9,0,3.83-5.28,3.9-10.29,8.06-13.9,13.67a17.79,17.79,0,0,0-2.16,4.53c-3.46-7.69-9.31-12.87-15.6-17.66-2.78-2.12-2.75-2.32-.14-4.58C169.8,479.25,175.58,474.49,179.75,467.86Z"/><path class="cls-1" d="M317.42,187.79c0-37.54-.08-75.08,0-112.62,0-3.13-1-4.78-3.9-6a167.68,167.68,0,0,0-23.39-7.73c-.68-.17-1.54-.95-2.3,0-.07,1.61-.22,3.22-.22,4.82q0,98.32,0,196.66c0,16.12-.49,32.24.31,48.36a9.52,9.52,0,0,0,0,1.41c1.91,17.09,7.38,33.19,13.62,49.07A5.63,5.63,0,0,0,304,365c2.34-6.46,4.55-12.68,6.84-18.88,3.93-10.63,6.72-21.38,6.66-32.91C317.3,271.41,317.44,229.6,317.42,187.79Z"/><path class="cls-1" d="M392.57,333.68q-.07-63.56-.12-127.12c0-20.75-1.25-41.26-8.88-60.89-1.12-2.89-1.75-6-3.5-8.6-.26-.45-.39-1.64-1.09-.51-.39.62-.11,1.66-.11,2.51q0,80.06,0,160.11c0,4.27.05,8.53,1.25,12.67,2.45,11.67,8.09,23.17,12.44,25C392.57,335.73,392.58,334.71,392.57,333.68Z"/><path class="cls-1" d="M225.28,79.21h0c.6-5.57.31-11.16.3-16.74,0-1.32-.6-1.93-2-1.51-8.41,2.57-16.8,5.2-24.82,8.88-1.28.58-2.59,1.26-2.59,3-.05,1-.15,1.89-.15,2.84q0,108.84,0,217.69c0,10.33-.38,20.67.19,31h0a14.28,14.28,0,0,0,.12,2,143.32,143.32,0,0,0,7.29,24.71c1.75,4.55,2.84,9.4,5.7,13.53,1.19-.64,1.5-1.78,2-2.76a127.07,127.07,0,0,0,8.21-21.72c2.21-8.39,4.91-16.68,5.59-25.41.16-4.64.46-9.28.46-13.92q0-69.12-.17-138.23Q225.32,120.88,225.28,79.21Z"/><path class="cls-1" d="M178.8,312.11c0-1.09.27-2.24.27-3.37V114.18c0-8.4,0-16.8,0-25.2,0-1.19-.38-2.47.45-3.57q.06,30.3.11,60.62.06,80.68.08,161.37C179.73,312.53,178.73,315.64,178.8,312.11Z"/><path class="cls-1" d="M134.14,136c-.92,1-1.21,1.54-1.21,2.25h0c-2.83,5.26-4.36,11-6.05,16.68a132.28,132.28,0,0,0-5.22,34.63,9.4,9.4,0,0,1,.2,3.38q0,58.88,0,117.74,0-20.71,0-41.45a1.56,1.56,0,0,0-.38-1.31,14.85,14.85,0,0,0-.32,4.79q-.08,16.65-.08,33.28,0,14.37,0,28.73c0,.76-.28,1.94.76,2.21s1.41-.82,1.86-1.49a74.14,74.14,0,0,0,8.92-18.95c.89-2.75,1.72-5.62,1.38-8.62,0-1,.11-2.08.11-3.12q0-82.45,0-164.91Z"/><path class="cls-1" d="M121.66,189.55c.78.79.48,1.79.48,2.71q0,58.41,0,116.82c0,.73-.07,1.47-.12,2.51a5.15,5.15,0,0,1-.39-3q-.11-20.31-.15-40.63C121.61,241.79,121,215.67,121.66,189.55Z"/><path class="cls-1" d="M271.93,315c0-.71,0-1.42,0-2.13l-.14-6.16q0-104.41,0-208.81c0-12.33,0-24.67,0-37,0-1.38.3-3.26-1.73-3.31-9.09-.21-18.2-.71-27.28.41-1.26.15-1.28.85-1.09,1.78-.47,7.2-.27,14.4-.27,21.6q0,60.45,0,120.89c0,30,.22,96.74-.08,112.17a19.59,19.59,0,0,0,.94,6.4l14.19,43.77,14.42-43A19.76,19.76,0,0,0,271.93,315Z"/><path class="cls-1" d="M249.4,377.22v-4.71l-.17.51L234,320.33h0c-.08,1.47-.15,2.95-.23,4.42h0a8.32,8.32,0,0,0-.4,1.35,153.55,153.55,0,0,1-20.93,60.19c-4.39,7.27-9.71,13.84-17.38,18a21.64,21.64,0,0,1-14.74,2.63c-9.43-1.77-12.14-14.44-6.66-20.33.81-.87,1.61-1.75,2.53-2.76-3.8-.74-9.61.87-12.25,3.19-6.88,6.06-9.52,13.63-7.39,22.51,1.46,6.1,4.19,11.92,10.13,14.78A36.08,36.08,0,0,0,191.82,427c3.73-.94,7.42-2.06,11.53-3.43-5.29,7.43-11,13.61-18.64,17.58-5.81,3-11.86,4.14-18.39,2.32-9-2.51-17.37-6.45-25.77-10.38a72.59,72.59,0,0,0-13.24-5c-13.53-3.32-25.52,1.81-31.63,13.82-3.31,6.52-3.78,13.58-3,20.79,1.73,16.57,18.63,28,34.45,23.13a23.07,23.07,0,0,0,11.57-8.19c-8.77,2.3-14.71,1.32-20.11-3.14A15.1,15.1,0,0,1,122.2,449c5.47-2.4,11.06-2.35,16.68-.82,9.85,2.7,19.56,5.94,29.71,7.46,8.45,1.27,16.34.4,23.6-4.66A78.27,78.27,0,0,0,205,440.17c15.24-16.39,27.76-34.77,39.09-54,1.71-2.91,3.33-5.87,5.2-9.16Z"/><path class="cls-1" d="M263.7,377.22v-4.71l.17.51,15.25-52.69h0c.08,1.47.15,2.95.23,4.42h0a8.32,8.32,0,0,1,.4,1.35,153.55,153.55,0,0,0,20.93,60.19c4.39,7.27,9.71,13.84,17.39,18a21.6,21.6,0,0,0,14.73,2.63c9.43-1.77,12.14-14.44,6.66-20.33-.81-.87-1.61-1.75-2.53-2.76,3.8-.74,9.61.87,12.25,3.19,6.89,6.06,9.53,13.63,7.39,22.51-1.46,6.1-4.19,11.92-10.12,14.78A36.11,36.11,0,0,1,321.27,427c-3.73-.94-7.42-2.06-11.53-3.43,5.3,7.43,11,13.61,18.64,17.58,5.81,3,11.87,4.14,18.39,2.32,9-2.51,17.38-6.45,25.77-10.38a72.41,72.41,0,0,1,13.25-5c13.52-3.32,25.51,1.81,31.62,13.82,3.31,6.52,3.78,13.58,3,20.79-1.73,16.57-18.63,28-34.45,23.13a23.07,23.07,0,0,1-11.57-8.19c8.78,2.3,14.71,1.32,20.11-3.14A15.09,15.09,0,0,0,390.89,449c-5.47-2.4-11.06-2.35-16.68-.82-9.85,2.7-19.56,5.94-29.71,7.46-8.44,1.27-16.33.4-23.6-4.66a78.27,78.27,0,0,1-12.8-10.78c-15.24-16.39-27.75-34.77-39.09-54-1.71-2.91-3.33-5.87-5.2-9.16Z"/><path class="cls-1" d="M178.62,331.68c.17-1.08.31-2.17.44-3.25,0,0-38.13,50.49-77.79,73.47-10,5.79-20.1,11.33-30.26,16.82C59.34,425,48.4,432.35,40.3,443.08c-8.87,11.75-12,24.62-5.71,38.63,5.64,12.5,19.5,19.62,31.92,16.75,9.18-2.12,14.4-9.59,12.82-18.37-.8-.12-1.16.58-1.59,1-7.47,6.85-17.64,2.66-21.13-4.34s-2.17-13.79,1.66-20.27C64.7,445.58,74.36,438.14,85.06,432c8.86-5.07,18.89-8.21,27.11-14.27,34.37-25.32,44.33-41.71,54.45-55,6-7.92,10.82-20.8,12.15-29.15A3.25,3.25,0,0,1,178.62,331.68Z"/><path class="cls-1" d="M179.35,307.18q0-103.5,0-207c0-4.9-.26-9.81.16-14.71a.37.37,0,0,0,0-.11v-2.5a5.57,5.57,0,0,0-.92.48,223.89,223.89,0,0,0-26.36,26.44,5.56,5.56,0,0,0-1.56,2.94l-.18,97.74h0c-.12,1.32-.33,2.63-.34,3.94q-.1,47-.15,93.9c0,3.81.44,9,0,12.72-.55,4.45-1,19.07-5,27.6a1.57,1.57,0,0,0,2.46,1.83L176,319.88a9.11,9.11,0,0,0,3.08-6.13Q179.34,310.48,179.35,307.18Z"/><path class="cls-1" d="M332.54,331.68c-.17-1.08-.31-2.17-.44-3.25,0,0,38.13,50.49,77.79,73.47,10,5.79,20.1,11.33,30.25,16.82,11.68,6.3,22.62,13.63,30.72,24.36,8.87,11.75,12,24.62,5.71,38.63-5.64,12.5-19.5,19.62-31.93,16.75-9.17-2.12-14.39-9.59-12.81-18.37.8-.12,1.15.58,1.59,1,7.47,6.85,17.64,2.66,21.12-4.34s2.18-13.79-1.65-20.27c-6.43-10.88-16.1-18.32-26.79-24.43-8.86-5.07-18.89-8.21-27.11-14.27-34.37-25.32-44.33-41.71-54.45-55-6-7.92-10.82-20.8-12.15-29.15A3.25,3.25,0,0,0,332.54,331.68Z"/><path class="cls-1" d="M331.81,307.18q0-103.5,0-207c0-4.9.26-9.81-.16-14.71a.37.37,0,0,1,0-.11v-2.5a5.57,5.57,0,0,1,.92.48,223.89,223.89,0,0,1,26.36,26.44,5.56,5.56,0,0,1,1.56,2.94l.18,97.74h0c.11,1.32.33,2.63.33,3.94q.12,47,.15,93.9c0,3.81-.43,9,0,12.72.55,4.45,1,19.07,5,27.6a1.57,1.57,0,0,1-2.47,1.83l-28.53-30.56a9.16,9.16,0,0,1-3.09-6.13C331.9,311.57,331.81,309.38,331.81,307.18Z"/></svg>