<svg id="Layer_1" data-name="Layer 1" xmlns="http://www.w3.org/2000/svg" viewBox="0 0 290.52 348.6"><defs><style>.cls-1{fill:#1c1b1c;}</style></defs><path class="cls-1" d="M169.54,139.59a100.46,100.46,0,0,0,10.87,3.28c15.83,3.21,31.14,1.94,45.59-5.83A68.76,68.76,0,0,0,251.56,113a83.07,83.07,0,0,0,12.62-32.46c3.21-20.94-.37-40.78-9.86-59.64a12,12,0,0,0-2.68-3.59,11.84,11.84,0,0,0-4.1-1.81c-20.5-5.06-40.64-4.12-60.33,3.67a83,83,0,0,0-28.83,19.53A68.76,68.76,0,0,0,140.6,69c-4.35,15.82-2.18,31,4.47,45.75a102.48,102.48,0,0,0,5.62,9.86C153.08,128.54,165.13,138.15,169.54,139.59Zm75.85-86.2s-9.16,50.06-57.84,72.55c0,0,19.2-19.76,31.88-35.66S245.39,53.39,245.39,53.39Zm-87.95,48.54c11.09-52.46,57.84-72.55,57.84-72.55S197.78,47,185.1,62.91,157.44,101.93,157.44,101.93Z"/><path class="cls-1" d="M144,316.32a98.56,98.56,0,0,0,5.62-9.87c6.66-14.71,8.83-29.92,4.48-45.75a68.78,68.78,0,0,0-17.78-30.27,83.19,83.19,0,0,0-28.83-19.54c-19.69-7.79-39.83-8.72-60.33-3.67A11.76,11.76,0,0,0,43,209a11.73,11.73,0,0,0-2.68,3.6c-9.49,18.86-13.07,38.7-9.87,59.63A83.18,83.18,0,0,0,43.1,304.72a68.81,68.81,0,0,0,25.55,24.07c14.46,7.77,29.77,9,45.6,5.83a98.27,98.27,0,0,0,10.87-3.28C129.53,329.91,141.58,320.3,144,316.32ZM75.23,282c12.67,15.9,31.87,35.65,31.87,35.65-48.67-22.49-57.84-72.54-57.84-72.54S62.55,266.14,75.23,282Zm34.33-27.37c-12.68-15.9-30.18-33.53-30.18-33.53s46.75,20.08,57.84,72.54C137.22,293.68,122.23,270.57,109.56,254.67Z"/></svg>