<svg id="Layer_1" data-name="Layer 1" xmlns="http://www.w3.org/2000/svg" viewBox="0 0 566.93 566.93"><defs><style>.cls-1{fill:#d86f3a;}</style></defs><path class="cls-1" d="M307.74,248.75A98.27,98.27,0,0,0,318.61,252c15.83,3.22,31.14,1.95,45.6-5.82a68.83,68.83,0,0,0,25.55-24.08,83.12,83.12,0,0,0,12.63-32.46c3.2-20.93-.38-40.77-9.87-59.63a11.57,11.57,0,0,0-2.68-3.6,11.94,11.94,0,0,0-4.1-1.81c-20.5-5-40.64-4.12-60.33,3.67a83.19,83.19,0,0,0-28.83,19.54,68.76,68.76,0,0,0-17.78,30.28c-4.35,15.82-2.18,31,4.48,45.74a97.45,97.45,0,0,0,5.62,9.87C291.28,237.71,303.33,247.32,307.74,248.75Zm75.86-86.19s-9.17,50.05-57.84,72.55c0,0,19.2-19.76,31.87-35.66S383.6,162.56,383.6,162.56Zm-88,48.54c11.09-52.47,57.84-72.55,57.84-72.55S336,156.18,323.3,172.08,295.64,211.1,295.64,211.1Z"/><path class="cls-1" d="M282.17,425.48a101.29,101.29,0,0,0,5.62-9.86c6.65-14.72,8.82-29.93,4.47-45.75a68.76,68.76,0,0,0-17.78-30.28,83,83,0,0,0-28.83-19.53c-19.69-7.79-39.83-8.72-60.33-3.67a8.8,8.8,0,0,0-6.78,5.41c-9.49,18.85-13.07,38.69-9.86,59.63a83.23,83.23,0,0,0,12.62,32.46A68.76,68.76,0,0,0,206.86,438c14.45,7.77,29.76,9,45.59,5.83a100.46,100.46,0,0,0,10.87-3.28C267.73,439.07,279.78,429.46,282.17,425.48ZM213.43,391.2c12.68,15.9,31.88,35.66,31.88,35.66-48.68-22.49-57.84-72.54-57.84-72.54S200.75,375.3,213.43,391.2Zm34.33-27.37c-12.68-15.9-30.18-33.52-30.18-33.52s46.76,20.08,57.84,72.54C275.42,402.85,260.44,379.73,247.76,363.83Z"/></svg>