<svg width="50" height="60" viewBox="0 0 50 60" fill="none" xmlns="http://www.w3.org/2000/svg">
<path d="M29.1787 24.0258C29.7912 24.2491 30.4158 24.4376 31.0495 24.5903C33.7739 25.1428 36.4089 24.9242 38.8958 23.5869C40.6953 22.6113 42.2109 21.1857 43.2948 19.4492C44.4054 17.7613 45.1456 15.8571 45.4668 13.8623C46.0192 10.2582 45.4031 6.84335 43.7698 3.59722C43.6562 3.36412 43.4997 3.15451 43.3086 2.97932C43.0953 2.8315 42.8558 2.72576 42.6029 2.66779C39.0748 1.79688 35.6086 1.95867 32.2198 3.29946C30.3468 4.05646 28.6557 5.20215 27.258 6.6609C25.8037 8.10497 24.7492 9.90201 24.198 11.8761C23.4493 14.5989 23.8228 17.2117 24.9673 19.7504C25.2581 20.3335 25.581 20.9001 25.9345 21.4475C26.3459 22.1239 28.4197 23.7779 29.1787 24.0258ZM42.2329 9.1893C42.2329 9.1893 40.6564 17.8055 32.2783 21.6764C32.2783 21.6764 35.5828 18.2754 37.765 15.5387C39.9473 12.802 42.2329 9.1893 42.2329 9.1893ZM27.0962 17.5439C29.0049 8.51461 37.0508 5.05677 37.0508 5.05677C37.0508 5.05677 34.039 8.08948 31.8567 10.8279C29.6744 13.5662 27.0962 17.5439 27.0962 17.5439Z" fill="#AA5C9D"/>
<path d="M24.7832 54.444C25.1379 53.8968 25.4609 53.3296 25.7504 52.7453C26.8966 50.2134 27.2701 47.5955 26.5214 44.8709C25.9692 42.8988 24.9149 41.1036 23.4614 39.6609C22.0633 38.2023 20.3723 37.0561 18.4996 36.2977C15.1108 34.957 11.6446 34.7969 8.11648 35.6661C7.86025 35.7209 7.6171 35.8249 7.40053 35.9724C7.20833 36.1474 7.05172 36.3578 6.93928 36.5921C5.306 39.8382 4.68987 43.253 5.24061 46.8554C5.56314 48.8523 6.30515 50.7582 7.41774 52.4475C8.50072 54.1854 10.0158 55.6128 11.815 56.5903C14.3037 57.9277 16.9386 58.1394 19.663 57.5938C20.297 57.4418 20.9216 57.2533 21.5338 57.0292C22.2928 56.7831 24.3667 55.1291 24.7832 54.444ZM12.9475 48.537C15.128 51.2736 18.4325 54.673 18.4325 54.673C10.0561 50.802 8.4779 42.1876 8.4779 42.1876C8.4779 42.1876 10.7652 45.8072 12.9475 48.537ZM18.8558 43.8261C16.6736 41.0895 13.6617 38.0551 13.6617 38.0551C13.6617 38.0551 21.7076 41.5112 23.6163 50.5404C23.6163 50.5473 21.0364 46.5697 18.8558 43.833V43.8261Z" fill="#AA5C9D"/>
</svg>
