<svg id="Layer_1" data-name="Layer 1" xmlns="http://www.w3.org/2000/svg" viewBox="0 0 566.93 566.93"><defs><style>.cls-1{fill:#e9bad2;}</style></defs><path class="cls-1" d="M283.23,254.3c-.53.07-.74-.3-1-.55-9.51-9-20.15-16.51-30.53-24.37-5.23-4-5.26-3.91-.16-7.79q13.08-10,26.1-20c1.81-1.4,3.5-2.94,5.21-4.46,1.18-1.05,2.2-.92,3.38.07,4,3.33,7.92,6.68,12,9.88,6.77,5.32,13.55,10.61,20.76,15.33.45.29.92.56,1.34.88,1.81,1.36,1.81,2.47-.09,3.68-7.13,4.55-13.79,9.77-20.6,14.77-5,3.64-9.7,7.62-14.52,11.47A5.42,5.42,0,0,1,283.23,254.3Z"/><path class="cls-1" d="M284.49,370.76A4.91,4.91,0,0,1,283,370c-9.61-7.5-19-15.28-28.82-22.49-1.72-1.25-3.68-2.16-5.18-3.72-2.12-2.19-2.12-3.23.33-4.83,11.2-7.3,21.26-16.06,31.62-24.45,1.67-1.35,3-1.75,4.58-.1,6.08,6.16,13.35,10.86,20.13,16.15,4.26,3.32,8.6,6.55,12.91,9.82,2.21,1.67,2.15,2.17,0,3.87-9.37,7.3-19,14.24-28,22a45.73,45.73,0,0,0-3.54,3.56A2.26,2.26,0,0,1,284.49,370.76Z"/><path class="cls-1" d="M335.68,433.52a127.32,127.32,0,0,1-28.37-18.18c-9.57-8.27-17.09-17.73-20.58-30.07a7.77,7.77,0,0,0-2-3.57c-1.95-1.86-3.27-2.22-4.33.61-5.57,14.88-15.64,26.47-27.13,37-6.78,6.24-14.76,10.69-22.44,15.61-1.85,1.18-1.94,2.11-.08,3.28,1,.65,2.13,1.18,3.16,1.82,20,12.25,37.57,26.82,46,49.81a3.79,3.79,0,0,0,2.88,2.49,2.36,2.36,0,0,0,2.16-1.3,23.64,23.64,0,0,0,1.37-2.87c3.16-7,5.87-14.28,11.12-20.1a103.71,103.71,0,0,1,23.91-19.7,117.38,117.38,0,0,1,14.09-7c1.85-.78,4.14-1.77,4.23-4.06S337.44,434.37,335.68,433.52Zm-26.76,5c-4.71,3.23-9.6,6.21-13.83,10.1s-7.49,8.41-10.88,12.92c-1.46,1.94-2,2-3.19-.06-4.25-7.32-10.28-13-16.8-18.2a50.83,50.83,0,0,0-8.13-5c-2.18-1.16-2.15-1.81,0-3,10.11-5.64,18.06-13.64,25.06-22.7,1.93-2.51,2.93-2.57,4.56.06,5.72,9.23,13.65,16.09,23,21.47.9.52,2,.85,2,1.69A2.9,2.9,0,0,1,308.92,438.53Z"/><path class="cls-1" d="M336.75,125.87c-10.06-3.86-19-9.67-27.4-16.23-7.62-5.93-14.6-12.45-19.16-21.21-1.8-3.45-3.06-7.11-4.69-10.62-.63-1.37-1.18-3.27-2.85-3.24s-2.29,1.91-2.86,3.42a68.44,68.44,0,0,1-9.34,17.43A107.51,107.51,0,0,1,243.86,120c-4.3,2.88-8.81,5.41-13.15,8.22-1.76,1.13-1.82,2.61-.1,3.76a29.16,29.16,0,0,0,4.42,2.34,45.09,45.09,0,0,1,6.46,3.38,131,131,0,0,1,25.41,21.92,55.88,55.88,0,0,1,12.61,21.47,20,20,0,0,0,1.54,3.78c1.13,2.06,2.5,2.21,4.12.48a8.22,8.22,0,0,0,1.5-2.27c.84-2,1.65-3.94,2.31-6a43.82,43.82,0,0,1,9.33-16.37,112.29,112.29,0,0,1,32.07-24.32c2.44-1.23,4.8-2.63,7.17-4a4.44,4.44,0,0,0,2.43-3.51C339.83,127,338.22,126.43,336.75,125.87Zm-27.55,6.9c-9.56,4.82-16.29,12.61-22.45,21-.63.86-1.31,1.68-2,2.5a1.78,1.78,0,0,1-1.33.74,5.09,5.09,0,0,1-2.59-2.5,61.31,61.31,0,0,0-16-16.79,47.62,47.62,0,0,0-8-4.78c-1-.47-2.36-.89-2.41-2.19s1.35-1.46,2.24-2c9.73-5.73,17.95-13,23.84-22.79.23-.39.46-.79.73-1.16,1.25-1.74,2.18-1.77,3.23.07a61.37,61.37,0,0,0,11.59,14c4,3.73,8.61,6.52,13.12,9.49C311.91,130.23,312,131.36,309.2,132.77Z"/></svg>