<svg id="Layer_1" data-name="Layer 1" xmlns="http://www.w3.org/2000/svg" viewBox="0 0 247.73 492.58"><defs><style>.cls-1{fill:#be986a;}</style></defs><path class="cls-1" d="M76.64,209.08c2.39-3.47,5.82-4.44,9.76-3.5,3.59.86,9.63-3.21,5.91-4.42-3.1-1-6.21-2.47-9.38-2.67-8-.53-12.55,4.39-15.51,11.09C64.9,215.3,74.45,212.26,76.64,209.08Zm-24.11,90c-.53-.71-.8-1.16-1.16-1.54-3.66-3.88-7.65-7.5-10.95-11.66-8.57-10.83-9.81-22.8-4.43-35.45a69.8,69.8,0,0,1,3.77-6.66c-11.26,6.31-15.75,22-11.6,34C32.54,290.44,45.62,299.91,52.53,299.09Zm13.4,8.9c11.85,8.07,32.63,1.82,39.95-12.13C93.84,304.63,81,309.2,65.93,308ZM190.24,164.15a10.38,10.38,0,0,0-.85-1.71c-2.45-3-8-4.64-11.65-3.48a8.3,8.3,0,0,0-5.93,5.71,4.15,4.15,0,0,0,.66,3.51c.53.5,2.3-.08,3.41-.49,2.56-.93,5-2.31,7.61-3C185.49,164.12,187.7,164.31,190.24,164.15ZM25,234.35c.21-.1,14.21-19.41,24.48-22.46a4.2,4.2,0,0,0,2.93-2.57c2.72-6,5.16-12.13,9.93-16.9,6-5.95,13.23-8.11,21.43-7.14,4.31.52,8.57,1.48,12.84,2.28,6.79,1.27,13.25-.21,19.57-2.47,13.47-4.84,26.59-10.43,38.92-17.76a20.19,20.19,0,0,0,8.32-8.86c6.09-13,21.46-15.17,32.46-5.26a34.44,34.44,0,0,1,9,13.66c2.57,6.75,1.08,10.53-4.6,15.64-1.37,1.22-1.87,2.05-1.29,3.8,1.51,4.54.95,9.11-.34,13.59a8.28,8.28,0,0,1-1.72,2.94c-1.17,1.37-2.26,1.18-2.89-.57-.39-1.08-.66-2.2-1.07-3.27a41.35,41.35,0,0,0-2.09-5c-2.53-4.62-4.63-5-9-1.82.84,7.81,1,15.43-5.43,21.13l-1.09-.1a36.81,36.81,0,0,0-1.23-5.59,41.33,41.33,0,0,0-3.36-6.72c-.68-1.12-1.86-1.44-3.14-.37-2,1.63-4.1,3-6,4.7a3,3,0,0,0-.59,2.28c.62,5.47.57,10.84-1.79,16-.66,1.42-1.29,2.94-2.95,2.61l-5.89-12.76c-3,2.39-5.56,4.37-8,6.52-.46.4-.43,1.5-.41,2.27.13,4.93.64,9.91-1.55,14.56a29.87,29.87,0,0,1-2.76,4l-.8-.22c-1.48-3.85-2.95-7.7-4.65-12.15-3.19,2.38-6,4.42-8.76,6.54-6,4.6-11.86,9.39-18.93,12.39-6.15,2.61-12.55,2.42-19,1.74-14.09-1.49-25.18,3.51-33.26,15.42,1.79-.64,3.62-1.19,5.37-1.93,6.52-2.78,13.13-4.94,20.34-5.42,8.17-.54,15.24,1.52,21.45,6.8,5.2,4.43,10.36,8.92,16.65,11.79a30.42,30.42,0,0,0,13.2,3.08c-11.44-6-20.51-14.68-28.46-24.81,6.65-1.61,12.34.38,17.77,3.86a108.43,108.43,0,0,0,11,6.45c3.1,1.51,3.53,1.2,4.88-2.07a65.1,65.1,0,0,0,2.1-6.79c.29-1,.5-2,.87-3.5,6.11,4.37,6.27,10.59,6.88,16.89,2.68.36,5.42.81,8.17,1,.5,0,1.35-.84,1.57-1.46,1.15-3.24,2.29-6.49,3.15-9.82.43-1.69,1.41-2,2.36-1.1a16.5,16.5,0,0,1,4,5.11c1,2.44,1.33,5.19,2,8.11,2.39,0,4.93.11,7.45-.07a2.62,2.62,0,0,0,1.67-1.63c1.17-3.83,2.17-7.71,3.31-11.88,6.62,2.22,6.37,8.63,8.34,13.69a4.12,4.12,0,0,0,4.52-2.65c1.27-2.72,2-5.66,3.07-8.49.31-.87.77-1.68,1.16-2.51.89.52,2,.85,2.61,1.61,2.34,3.16,2.21,6.94,2.41,10.63,0,.64.4,1.62.88,1.82,6.28,2.65,6.44,8,4,13.23-3.27,7.08-9.46,10.85-16.71,12.72a53.14,53.14,0,0,1-11.92,1.55c-9.14.22-18.3-.24-27.42.14-9.5.4-18.48,2.84-26.18,8.86-10.09,7.87-33.14,20.23-50.78,23.71C52.25,335.26-13.72,283.07,25,234.35Z"/></svg>