<svg width="70" height="139" viewBox="0 0 70 139" fill="none" xmlns="http://www.w3.org/2000/svg">
<path d="M21.6558 58.9999C22.3312 58.0207 23.3004 57.7469 24.4137 58.0122C25.4281 58.2549 27.1348 57.1064 26.0836 56.7649C25.2077 56.4827 24.3289 56.0679 23.4332 56.0115C21.1726 55.8619 19.887 57.2503 19.0506 59.141C18.3385 60.7551 21.037 59.8972 21.6558 58.9999ZM14.8432 84.3967C14.6934 84.1964 14.6171 84.0694 14.5154 83.9622C13.4812 82.8673 12.3538 81.8458 11.4213 80.6719C8.99972 77.6158 8.64934 74.238 10.1695 70.6683C10.4899 70.0229 10.8456 69.3955 11.2348 68.7889C8.05312 70.5696 6.7844 74.9971 7.95705 78.3833C9.19469 81.9586 12.8906 84.631 14.8432 84.3996V84.3967ZM18.6296 86.9082C21.978 89.1855 27.8497 87.4218 29.9181 83.4853C26.516 85.9629 22.8878 87.2525 18.6296 86.9139V86.9082ZM53.7553 46.3212C53.6903 46.1533 53.6099 45.9918 53.5151 45.8386C52.8228 44.9921 51.2546 44.5293 50.2232 44.8566C49.8277 44.9565 49.4652 45.1576 49.1713 45.4402C48.8774 45.7228 48.6625 46.077 48.5476 46.4679C48.5029 46.6365 48.4964 46.8128 48.5287 46.9842C48.561 47.1556 48.6311 47.3176 48.7341 47.4584C48.8839 47.5995 49.384 47.4358 49.6977 47.3201C50.421 47.0577 51.1105 46.6683 51.848 46.4735C52.4131 46.3127 53.0376 46.3663 53.7553 46.3212ZM7.06414 66.1307C7.12348 66.1025 11.0794 60.6535 13.9814 59.7928C14.1678 59.7477 14.3405 59.6582 14.4846 59.5319C14.6288 59.4056 14.7402 59.2463 14.8093 59.0676C15.5778 57.3745 16.2673 55.6446 17.6151 54.2986C19.3105 52.6196 21.3535 52.0101 23.6705 52.2838C24.8884 52.4305 26.0921 52.7014 27.2987 52.9272C29.2173 53.2856 31.0427 52.8679 32.8285 52.2302C36.6346 50.8644 40.3419 49.287 43.8259 47.2185C44.8481 46.6461 45.669 45.7731 46.1769 44.7183C47.8977 41.0499 52.2408 40.4376 55.349 43.234C56.4944 44.2963 57.3667 45.6185 57.8921 47.0887C58.6183 48.9935 58.1972 50.0601 56.5923 51.5021C56.2051 51.8464 56.0639 52.0806 56.2278 52.5744C56.6544 53.8556 56.4962 55.1452 56.1317 56.4094C56.029 56.7166 55.8635 56.9991 55.6457 57.239C55.3151 57.6256 55.0071 57.572 54.829 57.0782C54.7188 56.7734 54.6426 56.4573 54.5267 56.1554C54.361 55.6727 54.1637 55.2014 53.9361 54.7445C53.2213 53.4408 52.6279 53.3335 51.3931 54.2309C51.6304 56.4348 51.6756 58.585 49.8587 60.1935L49.5507 60.1653C49.476 59.6313 49.3598 59.1039 49.2032 58.5879C48.945 57.9283 48.6272 57.2936 48.2537 56.6916C48.0616 56.3755 47.7282 56.2852 47.3665 56.5872C46.8014 57.0471 46.208 57.4337 45.6711 57.9134C45.6013 58.0039 45.5505 58.1075 45.5219 58.2181C45.4932 58.3287 45.4873 58.4439 45.5044 58.5568C45.6796 60.1004 45.6654 61.6157 44.9986 63.0718C44.8121 63.4725 44.6341 63.9015 44.165 63.8083L42.5007 60.2076C41.653 60.882 40.9296 61.4408 40.2402 62.0475C40.1102 62.1604 40.1187 62.4708 40.1243 62.688C40.1611 64.0792 40.3052 65.4845 39.6864 66.7967C39.4575 67.1935 39.1967 67.571 38.9065 67.9255L38.6804 67.8634C38.2622 66.777 37.8469 65.6905 37.3665 64.4348C36.4651 65.1064 35.6711 65.6821 34.8912 66.2803C33.1958 67.5784 31.54 68.93 29.5422 69.7766C27.8045 70.5131 25.996 70.4595 24.1735 70.2676C20.1921 69.8471 17.0585 71.2581 14.7754 74.6189C15.2812 74.4383 15.7982 74.2831 16.2927 74.0743C18.1351 73.2898 20.0028 72.6803 22.0401 72.5449C24.3487 72.3925 26.3464 72.9738 28.1012 74.4637C29.5705 75.7138 31.0285 76.9809 32.8059 77.7907C33.9679 78.3569 35.2428 78.654 36.5357 78.6599C33.3032 76.9667 30.7403 74.5174 28.4939 71.6588C30.373 71.2045 31.9808 71.766 33.5151 72.748C34.5145 73.4151 35.5524 74.0229 36.6233 74.5682C37.4993 74.9943 37.6208 74.9068 38.0023 73.984C38.2349 73.3566 38.4329 72.717 38.5956 72.068C38.6776 71.7858 38.7369 71.5036 38.8415 71.0803C40.568 72.3135 40.6132 74.0687 40.7855 75.8465C41.5428 75.948 42.317 76.075 43.0941 76.1286C43.2354 76.1286 43.4756 75.8916 43.5377 75.7167C43.8627 74.8024 44.1848 73.8853 44.4278 72.9456C44.5493 72.4687 44.8262 72.3812 45.0947 72.6352C45.5633 73.0364 45.9475 73.5265 46.2249 74.0771C46.5075 74.7657 46.6007 75.5417 46.7901 76.3657C47.4654 76.3657 48.1831 76.3967 48.8952 76.3459C49.0041 76.3109 49.1033 76.2511 49.1852 76.1713C49.2671 76.0915 49.3293 75.9938 49.3671 75.886C49.6977 74.8052 49.9802 73.7103 50.3023 72.5336C52.1729 73.16 52.1023 74.9689 52.6589 76.3967C52.9256 76.4394 53.1989 76.3881 53.4319 76.2517C53.6649 76.1153 53.8432 75.9022 53.9361 75.6489C54.295 74.8814 54.5013 74.0517 54.8036 73.2532C54.8912 73.0077 55.0212 72.7791 55.1314 72.5449C55.3829 72.6916 55.6965 72.7847 55.8689 72.9992C56.5301 73.8909 56.4934 74.9576 56.5499 75.9988C56.5499 76.1794 56.6629 76.456 56.7985 76.5124C58.573 77.2602 58.6183 78.7699 57.9288 80.2458C57.0048 82.2437 55.2557 83.3075 53.2071 83.8352C52.1046 84.1077 50.9746 84.2545 49.8389 84.2726C47.2563 84.3347 44.668 84.2049 42.091 84.3121C39.4066 84.425 36.8692 85.1135 34.6934 86.8123C31.8423 89.0331 25.3292 92.5209 20.3447 93.5029C14.7641 94.6063 -3.8768 79.8789 7.06414 66.1307Z" fill="#D86F3A"/>
</svg>
