<svg id="Layer_1" data-name="Layer 1" xmlns="http://www.w3.org/2000/svg" viewBox="0 0 566.93 566.93"><defs><style>.cls-1{fill:#fff;}</style></defs><path class="cls-1" d="M354.17,254.29a9.22,9.22,0,0,1-9.48,9.18,9.49,9.49,0,0,1,.06-19A9.39,9.39,0,0,1,354.17,254.29Z"/><path class="cls-1" d="M319.49,206.68a9.6,9.6,0,0,1,9.74,9.3c.13,4.93-4.49,9.61-9.55,9.68s-9.53-4.45-9.64-9.57C309.94,211.17,314.34,206.79,319.49,206.68Z"/><path class="cls-1" d="M257,216.28a9.28,9.28,0,0,1-9.56,9.39,9.53,9.53,0,0,1,.2-19.06A9.5,9.5,0,0,1,257,216.28Z"/><path class="cls-1" d="M360.71,305.34a9.21,9.21,0,0,1-9.42-9.48,9.34,9.34,0,0,1,9.3-9.43,9.75,9.75,0,0,1,9.67,9.65A9.54,9.54,0,0,1,360.71,305.34Z"/><path class="cls-1" d="M283.64,192.94a9.7,9.7,0,0,1-9.42-9.69c.06-4.9,4.65-9.32,9.64-9.3a9.8,9.8,0,0,1,9.44,9.66A9.42,9.42,0,0,1,283.64,192.94Z"/><path class="cls-1" d="M206.71,331.41A9.45,9.45,0,1,1,207,350.3a9.38,9.38,0,0,1-9.52-9.46A9.27,9.27,0,0,1,206.71,331.41Z"/><path class="cls-1" d="M202.43,287.32c3.18-2,8.46-.66,10.94,2.19a9.12,9.12,0,0,1,1.27,10.89c-1.84,1.78-3.39,3.8-6.21,4.36a9.34,9.34,0,0,1-10.61-5.29,9.1,9.1,0,0,1,3.38-11.2A4.19,4.19,0,0,0,202.43,287.32Z"/><path class="cls-1" d="M231.57,254.49a1.48,1.48,0,0,1-.29,1.43c-1,2-1.83,4.07-3.61,5.53-4.22,3.08-9,2.6-12.58-1.26-3.21-3.47-3.15-8.69.14-12.49a2.27,2.27,0,0,0,1.15-.66c5.76-5.18,14.06-.8,14.8,5.73A3.21,3.21,0,0,0,231.57,254.49Z"/><path class="cls-1" d="M354.78,348.15c-4.74-3.25-4.88-11.34.23-14.79,2.54-1.12,5.05-2.26,8-1.35,3.41,1.07,5.7,3.16,6.44,6.75a8.9,8.9,0,0,1-3.86,9.61,8.42,8.42,0,0,1-8.95.63A9.42,9.42,0,0,0,354.78,348.15Z"/></svg>