<svg id="Layer_1" data-name="Layer 1" xmlns="http://www.w3.org/2000/svg" viewBox="0 0 459.39 514.15"><defs><style>.cls-1{fill:#9ac552;}</style></defs><path class="cls-1" d="M415.7,361.94c6.83-.53,13.44-.16,19.91,2.23A31.59,31.59,0,0,1,450,412.57c-5.43,7.25-12.53,11.67-21.6,12.26-8.17.53-18.52-4-20.75-13.95-1.17-5.23,1.64-10.81,6.14-12.05,2.5-.69,3-.25,2.4,2.23-1.34,5.79,4.21,11.09,10.45,10,10.43-1.83,14.75-13.14,8.6-22.78-3.89-6.1-9.9-8.93-16.82-9.8-16-2-30,3.67-43.18,11.86-5.09,3.15-9.83,6.83-13.35,11.78-3.83,5.37-5.75,11.21-3.38,17.72,1.6,4.4,4.46,7.66,9.32,8.64,3.13.63,5.56-.43,7.56-3.45a8.22,8.22,0,0,1-7.84-1.72,9.15,9.15,0,0,1-3.58-6.92c-.57-8.53,5.1-12.3,10.86-12.7,7.43-.51,13.13,2.55,16.64,9.08,3.68,6.85,3.2,13.8-1,20.26-4.8,7.39-12.17,10-20.61,9.82-14.8-.32-28.22-10.26-30.59-27.56-1.09-8,.8-15.63,3.78-23.07,2.36-5.87,5-11.66,6.34-17.91,2.32-10.5-.78-20.57-11.12-25.68-2.17-1.08-.85-1.95.25-2.61,5.49-3.31,11.29-3.4,17.16-1.24,9.89,3.66,15.64,12.86,15.08,23.72A37.35,37.35,0,0,1,368.51,379c9.24-9,19.83-15.49,30.3-22.17,7.1-4.53,13.95-9.34,19.54-15.77,11.83-13.65,11.57-34.7-.66-46.67a26.17,26.17,0,0,0-34.83-1.21c-5.71,4.88-8.55,14.63-6.19,21.29,1.72,4.84,4.95,7,10.4,6.73a9.76,9.76,0,0,1-2.72-9.24c1.15-6.59,8.47-9.57,15.07-6.24,7.19,3.63,9.9,13,5.76,20.69-3.94,7.33-10.31,10.49-18.57,10.69-13.24.33-27.41-9.47-29.31-27.41-1.74-16.49,8.63-32.9,23.73-39.32,17.21-7.32,34-6.13,49,5.77,8.67,6.85,13.61,16.35,15.83,27,3.13,15.11.66,29.21-9.12,41.56a63.9,63.9,0,0,1-17.22,15Z"/><path class="cls-1" d="M8.77,210.08c18.94,1,35.56,7.33,48.71,21.39,6.2,6.63,9.74,14.75,12.5,23.27.45,1.38-.14,2.13-1.4,1.82-13.7-3.32-27.79-5.59-39.47-14.48-9.54-7.26-15.86-17-21.16-27.47-.34-.67-.68-1.35-1-2C6.05,210.4,6.39,209.93,8.77,210.08Z"/><path class="cls-1" d="M451.05,210c2.06,0,2.48.63,1.49,2.71-9.25,19.48-22.55,34.44-44.47,39.74-5.6,1.36-11.2,2.72-16.82,4-2.09.49-2.62-.12-1.95-2.14,7.37-22.48,23-36,45.63-41.8A110.79,110.79,0,0,1,451.05,210Z"/><path class="cls-1" d="M121.06,346.11a8.71,8.71,0,0,0-2-1.11c-11.62-5.38-27.07,2.73-29.71,15.66a32.19,32.19,0,0,0,1.73,18.62c-9.56-9.35-20.2-16.1-30.74-23a114.36,114.36,0,0,1-15.94-11.85c-13.91-12.92-16-33.18-4.86-47.75,9.51-12.4,29.74-13,39.16-.91,4.69,6,6.36,12.94,3,20.26-2,4.42-5.91,6.06-9.89,4.72,2.75-1.94,4-5,3.39-9.1-.46-3.18-2.5-5.26-5.38-6.47-5.3-2.24-11.87.07-15.12,5.25-4.66,7.41-1.84,17.62,6,23.15,8.53,6,23.49,3.8,31.82-4.14,9.23-8.8,12.19-23.67,7.19-36.34-8.55-21.67-31.11-31.07-53.19-25.67-16.09,3.93-26,14.78-31.39,30.08-.69,2.3-1.61,4.55-1.69,7h0a1.6,1.6,0,0,0-.39,1.53,49.41,49.41,0,0,0,4.12,29.84h0c5.67,11.68,14.91,19.8,26.69,26.42-5-.41-9.22-.73-13.44-.09A31.66,31.66,0,0,0,7.72,410c6.15,10.52,18.61,17.38,30.69,14,6.92-2,12-5.83,13.41-13.34,1-5.43-2.12-11-6.73-11.93-2.1-.43-2.55.05-2,2.09a7.49,7.49,0,0,1-3.79,9,12.07,12.07,0,0,1-15.27-3.55c-5-6.84-3.07-17.29,4.33-22.78,7.69-5.7,16.49-6.25,25.49-4.83A77.2,77.2,0,0,1,89.2,393.89c6.32,4.84,11.72,10.43,12.6,18.9.62,5.93-2.38,13-8.68,15.26-4,1.44-7.55.1-9.1-3.42,1.17.47,2.28,1.1,3.6.7,3.78-1.14,6.61-3.27,7.37-7.36.87-4.64.29-9-3.81-12-6.32-4.56-16.24-2.67-21.14,3.82a20.26,20.26,0,0,0,8.21,30.81c11.75,5.28,27.67.66,35.69-10.36,7-9.65,7.76-20.2,4.56-31.35-2.15-7.47-5.84-14.36-8-21.81-3.3-11.12-.85-22.56,10.47-28.51C122.4,347.84,122.1,347,121.06,346.11Z"/><path class="cls-1" d="M309,147.59a10.36,10.36,0,0,1-10.65,10.32,10.66,10.66,0,0,1,.07-21.32A10.54,10.54,0,0,1,309,147.59Z"/><path class="cls-1" d="M270,94.08a10.8,10.8,0,0,1,11,10.46c.14,5.54-5.05,10.8-10.73,10.88s-10.72-5-10.84-10.76C259.29,99.14,264.24,94.21,270,94.08Z"/><path class="cls-1" d="M199.81,104.87a10.45,10.45,0,0,1-10.75,10.56A10.71,10.71,0,0,1,189.29,94,10.68,10.68,0,0,1,199.81,104.87Z"/><path class="cls-1" d="M316.35,205a10.34,10.34,0,0,1-10.59-10.65,10.49,10.49,0,0,1,10.45-10.6,11,11,0,0,1,10.87,10.85A10.73,10.73,0,0,1,316.35,205Z"/><path class="cls-1" d="M229.73,78.65a10.91,10.91,0,0,1-10.59-10.89c.07-5.51,5.23-10.48,10.84-10.46a11,11,0,0,1,10.61,10.86A10.59,10.59,0,0,1,229.73,78.65Z"/><path class="cls-1" d="M143.27,234.27a10.77,10.77,0,0,1,10.84,10.58,10.89,10.89,0,0,1-10.56,10.64,10.54,10.54,0,0,1-10.69-10.63A10.41,10.41,0,0,1,143.27,234.27Z"/><path class="cls-1" d="M138.46,184.71c3.58-2.26,9.52-.74,12.3,2.47,3.16,3.63,3.76,8.23,1.43,12.23-2.07,2-3.81,4.27-7,4.91a10.54,10.54,0,0,1-11.93-5.95,10.25,10.25,0,0,1,3.8-12.59A4.35,4.35,0,0,0,138.46,184.71Z"/><path class="cls-1" d="M171.22,147.82a1.68,1.68,0,0,1-.33,1.61c-1.15,2.2-2.06,4.56-4.06,6.21-4.75,3.46-10.13,2.92-14.14-1.42-3.6-3.9-3.54-9.77.16-14a2.64,2.64,0,0,0,1.3-.73c6.47-5.83,15.79-.9,16.63,6.44A3.52,3.52,0,0,0,171.22,147.82Z"/><path class="cls-1" d="M309.67,253.07c-5.31-3.65-5.48-12.74.27-16.62,2.85-1.25,5.68-2.54,8.94-1.51,3.84,1.2,6.41,3.54,7.25,7.58a10,10,0,0,1-4.34,10.8,9.46,9.46,0,0,1-10.06.71A11,11,0,0,0,309.67,253.07Z"/><path class="cls-1" d="M226.05,159.17a151.33,151.33,0,0,0,.22,56.23,3.31,3.31,0,0,0,6.51-.05c2.22-13.16,4.16-34.15-.24-56.18A3.3,3.3,0,0,0,226.05,159.17Z"/><path class="cls-1" d="M229.53,240.83s-16.37-6.76-20.59-12.39-13-7.79-12.19-2,25.14,35.67,32.6,35.67Z"/><path class="cls-1" d="M229.53,240.83s16-6.76,20.24-12.39,13.06-8.82,12.21-3.05-25.17,36.7-32.63,36.7Z"/></svg>