<svg id="Layer_1" data-name="Layer 1" xmlns="http://www.w3.org/2000/svg" viewBox="0 0 566.93 566.93"><defs><style>.cls-1{fill:#aa5c9d;}</style></defs><path class="cls-1" d="M325,243.63c0-25.7-.06-51.39,0-77.09a3.75,3.75,0,0,0-2.67-4.08,114.41,114.41,0,0,0-16-5.29c-.47-.11-1.06-.65-1.58,0,0,1.1-.15,2.2-.15,3.3q0,67.29,0,134.59c0,11-.33,22.07.21,33.1a6.18,6.18,0,0,0,0,1c1.31,11.7,5,22.72,9.33,33.59a3.84,3.84,0,0,0,1.73,2.21c1.6-4.42,3.12-8.68,4.69-12.92,2.68-7.27,4.59-14.63,4.55-22.52C325,300.85,325,272.24,325,243.63Z"/><path class="cls-1" d="M376.47,343.47q-.06-43.5-.09-87c0-14.2-.86-28.24-6.08-41.67-.77-2-1.19-4.09-2.39-5.89-.18-.31-.27-1.12-.75-.35-.27.43-.07,1.14-.07,1.72q0,54.79,0,109.58a30.87,30.87,0,0,0,.86,8.67c1.67,8,5.54,15.85,8.52,17.11Z"/><path class="cls-1" d="M262,169.32h0a106.9,106.9,0,0,0,.21-11.46c0-.91-.42-1.32-1.36-1a134,134,0,0,0-17,6.08c-.88.4-1.78.86-1.78,2.06,0,.65-.1,1.29-.1,1.94q0,74.49,0,149c0,7.07-.26,14.15.13,21.22h0a12.08,12.08,0,0,0,.08,1.35,98.54,98.54,0,0,0,5,16.91c1.2,3.11,1.95,6.43,3.91,9.26a3.44,3.44,0,0,0,1.34-1.9A87.31,87.31,0,0,0,258,347.87c1.51-5.74,3.36-11.41,3.82-17.39.11-3.17.32-6.35.31-9.53q0-47.29-.11-94.6Q262,197.84,262,169.32Z"/><path class="cls-1" d="M230.16,328.71c0-.75.18-1.53.18-2.31q0-66.57,0-133.16c0-5.74,0-11.49,0-17.24,0-.81-.26-1.69.3-2.45,0,13.83.08,27.66.08,41.49q0,55.23,0,110.45C230.8,329,230.11,331.12,230.16,328.71Z"/><path class="cls-1" d="M199.59,208.17a2.16,2.16,0,0,0-.82,1.54h0c-1.94,3.6-3,7.53-4.15,11.42a90.53,90.53,0,0,0-3.56,23.7,6.66,6.66,0,0,1,.13,2.31q0,40.29,0,80.58,0-14.18,0-28.37a1.1,1.1,0,0,0-.26-.89,10.33,10.33,0,0,0-.23,3.28q0,11.38,0,22.77c0,6.56,0,13.11,0,19.67,0,.52-.2,1.32.52,1.51s1-.56,1.27-1a51,51,0,0,0,6.11-13,14.24,14.24,0,0,0,.94-5.9c0-.71.08-1.43.08-2.14q0-56.43,0-112.86Z"/><path class="cls-1" d="M191.06,244.83c.53.54.32,1.23.32,1.85q0,40,0,79.95c0,.51,0,1-.09,1.72a3.61,3.61,0,0,1-.27-2.08q-.06-13.9-.09-27.81C191,280.58,190.63,262.7,191.06,244.83Z"/><path class="cls-1" d="M293.9,330.67c0-.48,0-1,0-1.46l-.1-4.21,0-142.91c0-8.44,0-16.88,0-25.32,0-.94.2-2.23-1.19-2.27-6.22-.14-12.45-.48-18.67.28-.86.11-.87.59-.75,1.22-.32,4.93-.18,9.86-.18,14.78q0,41.37,0,82.74c0,20.5.15,66.21-.06,76.77a13.56,13.56,0,0,0,.64,4.38l9.72,30,9.86-29.43A13.65,13.65,0,0,0,293.9,330.67Z"/><path class="cls-1" d="M230.54,325.34q0-70.84,0-141.68c0-3.36-.18-6.72.11-10.07V171.8a3.58,3.58,0,0,0-.62.33,153.43,153.43,0,0,0-18,18.1,3.7,3.7,0,0,0-1.07,2l-.12,66.9h0c-.08.89-.23,1.79-.23,2.69q-.09,32.13-.11,64.27a81.43,81.43,0,0,1,0,8.7c-.38,3.05-.69,13.05-3.43,18.89a1.07,1.07,0,0,0,1.69,1.25L228.25,334a6.24,6.24,0,0,0,2.11-4.2C230.48,328.34,230.54,326.84,230.54,325.34Z"/><path class="cls-1" d="M334.88,325.34q0-70.84,0-141.68c0-3.36.17-6.72-.12-10.07V171.8a4.23,4.23,0,0,1,.63.33,154.19,154.19,0,0,1,18,18.1,3.68,3.68,0,0,1,1.06,2q.07,33.45.13,66.9h0c.08.89.23,1.79.23,2.69q.07,32.13.1,64.27a78.88,78.88,0,0,0,0,8.7c.37,3.05.68,13.05,3.42,18.89a1.07,1.07,0,0,1-1.69,1.25L337.16,334a6.33,6.33,0,0,1-2.11-4.2C334.94,328.34,334.88,326.84,334.88,325.34Z"/></svg>