<svg width="60" height="73" viewBox="0 0 60 73" fill="none" xmlns="http://www.w3.org/2000/svg">
<path d="M47.8854 36.353C45.6175 34.6436 43.0515 34.2236 40.3604 34.8198C36.948 35.5806 34.5897 37.7719 32.972 40.8209C32.3591 41.8927 31.8595 43.0262 31.4812 44.2027C30.8164 46.0795 30.3503 48.0215 30.0905 49.9967C29.9654 49.9754 29.952 49.8805 29.9423 49.7915C29.7127 48.0344 29.3159 46.3036 28.7574 44.6228C28.2746 43.0742 27.7379 41.5468 26.8204 40.1878C26.1915 39.115 25.3915 38.1536 24.4525 37.3422C22.1615 35.3541 19.5743 34.3262 16.5101 34.6785C14.4922 34.9127 12.7572 35.6832 11.3318 37.1738C9.30436 39.2974 9.06584 42.3405 10.7874 44.7177C11.8723 46.2102 13.9459 46.8664 15.5964 46.2663C16.787 45.8308 17.7007 44.4757 17.3853 43.4458C16.7967 44.6073 16.0888 45.0739 15.002 45.0061C14.0556 44.948 13.1361 44.1447 12.7706 43.0703C12.2513 41.5216 12.8899 39.671 14.2614 38.7089C15.2845 37.9766 16.5032 37.5718 17.7585 37.5474C19.0492 37.5164 20.2591 37.741 21.3844 38.3991C22.0057 38.7631 22.5385 39.249 23.1156 39.6632L24.2697 41.0183C25.0504 42.1964 25.6617 43.4797 26.0856 44.83C26.6627 46.7038 26.7588 66.4977 26.705 68.4354C26.6886 68.5592 26.7123 68.685 26.7726 68.7941C26.8329 68.9033 26.9266 68.99 27.0397 69.0413C27.7708 69.4488 28.4283 69.9776 28.9844 70.6055C29.4057 71.0778 29.6981 71.6392 30.0885 72.1696C30.1405 72.0806 30.1693 72.0302 30.1963 71.976C30.8964 70.6461 31.8563 69.5756 33.2124 68.902C33.2873 68.8715 33.3501 68.8171 33.3911 68.7471C33.4321 68.6771 33.4491 68.5955 33.4394 68.5148C33.4394 67.6882 33.4279 48.99 33.5048 48.1634C33.6015 47.0042 33.8136 45.8576 34.1377 44.7409C34.5875 43.3513 35.2355 42.0347 36.0612 40.8325C36.1536 40.7357 36.2536 40.6389 36.3363 40.5402C38.0175 38.5211 40.0218 37.2338 42.786 37.5396C44.2864 37.7042 45.556 38.2714 46.5716 39.4038C47.7257 40.7008 47.7969 42.8515 46.6812 44.1389C46.0907 44.8203 45.3348 45.1436 44.4441 44.9597C44.032 44.8882 43.6501 44.6954 43.3468 44.4056C43.0435 44.1158 42.8323 43.7421 42.7399 43.3316C42.5764 44.7041 43.2765 45.7979 44.5903 46.2354C46.3119 46.8161 48.2913 46.0824 49.3993 44.4621C51.1362 41.9243 50.4591 38.2946 47.8854 36.353Z" fill="#BE986A"/>
</svg>
