<svg width="60" height="73" viewBox="0 0 60 73" fill="none" xmlns="http://www.w3.org/2000/svg">
<path d="M47.8853 36.353C45.6175 34.6436 43.0514 34.2236 40.3603 34.8198C36.9479 35.5806 34.5896 37.7719 32.9719 40.8209C32.3591 41.8927 31.8594 43.0262 31.4811 44.2027C30.8164 46.0795 30.3502 48.0215 30.0904 49.9967C29.9654 49.9754 29.9519 49.8805 29.9423 49.7915C29.7126 48.0344 29.3158 46.3036 28.7574 44.6228C28.2745 43.0742 27.7379 41.5468 26.8203 40.1878C26.1915 39.115 25.3915 38.1536 24.4524 37.3422C22.1614 35.3541 19.5742 34.3262 16.51 34.6785C14.4922 34.9127 12.7571 35.6832 11.3317 37.1738C9.3043 39.2974 9.06578 42.3405 10.7874 44.7177C11.8723 46.2102 13.9459 46.8664 15.5963 46.2663C16.787 45.8308 17.7007 44.4757 17.3852 43.4458C16.7966 44.6073 16.0887 45.0739 15.0019 45.0061C14.0555 44.948 13.1361 44.1447 12.7706 43.0703C12.2512 41.5216 12.8898 39.671 14.2613 38.7089C15.2844 37.9766 16.5032 37.5718 17.7584 37.5474C19.0491 37.5164 20.259 37.741 21.3843 38.3991C22.0056 38.7631 22.5385 39.249 23.1155 39.6632L24.2697 41.0183C25.0504 42.1964 25.6617 43.4797 26.0855 44.83C26.6626 46.7038 26.7588 66.4977 26.7049 68.4354C26.6886 68.5592 26.7123 68.685 26.7726 68.7941C26.8329 68.9033 26.9265 68.99 27.0396 69.0413C27.7707 69.4488 28.4282 69.9776 28.9843 70.6055C29.4056 71.0778 29.698 71.6392 30.0885 72.1696C30.1404 72.0806 30.1693 72.0302 30.1962 71.976C30.8964 70.6461 31.8562 69.5756 33.2124 68.902C33.2872 68.8715 33.35 68.8171 33.391 68.7471C33.4321 68.6771 33.449 68.5955 33.4393 68.5148C33.4393 67.6882 33.4278 48.99 33.5047 48.1634C33.6015 47.0042 33.8135 45.8576 34.1376 44.7409C34.5874 43.3513 35.2354 42.0347 36.0612 40.8325C36.1535 40.7357 36.2535 40.6389 36.3362 40.5402C38.0174 38.5211 40.0218 37.2338 42.786 37.5396C44.2863 37.7042 45.5559 38.2714 46.5715 39.4038C47.7257 40.7008 47.7969 42.8515 46.6812 44.1389C46.0907 44.8203 45.3347 45.1436 44.4441 44.9597C44.0319 44.8882 43.6501 44.6954 43.3467 44.4056C43.0434 44.1158 42.8322 43.7421 42.7398 43.3316C42.5763 44.7041 43.2765 45.7979 44.5903 46.2354C46.3119 46.8161 48.2912 46.0824 49.3992 44.4621C51.1362 41.9243 50.4591 38.2946 47.8853 36.353Z" fill="#9AC552"/>
</svg>
