<svg width="60" height="73" viewBox="0 0 60 73" fill="none" xmlns="http://www.w3.org/2000/svg">
<path d="M47.8854 36.3525C45.6175 34.6431 43.0514 34.2231 40.3603 34.8193C36.9479 35.5801 34.5896 37.7714 32.9719 40.8204C32.3591 41.8922 31.8594 43.0257 31.4811 44.2023C30.8164 46.079 30.3502 48.021 30.0904 49.9962C29.9654 49.9749 29.9519 49.88 29.9423 49.791C29.7126 48.0339 29.3158 46.3031 28.7574 44.6223C28.2746 43.0737 27.7379 41.5463 26.8203 40.1874C26.1915 39.1145 25.3915 38.1531 24.4524 37.3417C22.1615 35.3536 19.5742 34.3257 16.51 34.678C14.4922 34.9122 12.7571 35.6827 11.3318 37.1733C9.30431 39.2969 9.06579 42.34 10.7874 44.7172C11.8723 46.2097 13.9459 46.866 15.5963 46.2658C16.787 45.8303 17.7007 44.4752 17.3852 43.4453C16.7966 44.6068 16.0887 45.0734 15.0019 45.0056C14.0555 44.9476 13.1361 44.1442 12.7706 43.0698C12.2512 41.5211 12.8898 39.6705 14.2613 38.7084C15.2844 37.9761 16.5032 37.5713 17.7584 37.5469C19.0491 37.5159 20.259 37.7405 21.3843 38.3987C22.0056 38.7626 22.5385 39.2485 23.1155 39.6627L24.2697 41.0178C25.0504 42.1959 25.6617 43.4792 26.0855 44.8295C26.6626 46.7033 26.7588 66.4972 26.7049 68.4349C26.6886 68.5587 26.7123 68.6845 26.7726 68.7937C26.8329 68.9028 26.9265 68.9895 27.0396 69.0408C27.7707 69.4483 28.4282 69.9772 28.9844 70.605C29.4056 71.0773 29.698 71.6387 30.0885 72.1691C30.1404 72.0801 30.1693 72.0298 30.1962 71.9756C30.8964 70.6456 31.8562 69.5751 33.2124 68.9015C33.2872 68.871 33.35 68.8166 33.391 68.7466C33.4321 68.6766 33.449 68.595 33.4393 68.5143C33.4393 67.6877 33.4278 48.9896 33.5047 48.163C33.6015 47.0037 33.8135 45.8571 34.1376 44.7404C34.5875 43.3508 35.2354 42.0342 36.0612 40.832C36.1535 40.7352 36.2535 40.6384 36.3362 40.5397C38.0174 38.5206 40.0218 37.2333 42.786 37.5391C44.2864 37.7037 45.5559 38.2709 46.5716 39.4033C47.7257 40.7003 47.7969 42.8511 46.6812 44.1384C46.0907 44.8198 45.3347 45.1431 44.4441 44.9592C44.0319 44.8877 43.6501 44.6949 43.3467 44.4051C43.0434 44.1154 42.8322 43.7416 42.7398 43.3311C42.5763 44.7036 43.2765 45.7974 44.5903 46.2349C46.3119 46.8156 48.2912 46.0819 49.3992 44.4617C51.1362 41.9238 50.4591 38.2941 47.8854 36.3525Z" fill="#E9BAD2"/>
</svg>
