<svg id="Layer_1" data-name="Layer 1" xmlns="http://www.w3.org/2000/svg" viewBox="0 0 311.92 377.1"><defs><style>.cls-1{fill:#fff;}</style></defs><path class="cls-1" d="M248.94,187.79c-11.79-8.83-25.13-11-39.12-7.92-17.74,3.93-30,15.25-38.41,31h0a91.51,91.51,0,0,0-7.75,17.47,146.33,146.33,0,0,0-7.23,29.93c-.65-.11-.72-.6-.77-1.06a143,143,0,0,0-6.16-26.7c-2.51-8-5.3-15.89-10.07-22.91a58.65,58.65,0,0,0-12.31-14.7c-11.91-10.27-25.36-15.58-41.29-13.76-10.49,1.21-19.51,5.19-26.92,12.89C48.37,203,47.13,218.72,56.08,231c5.64,7.71,16.42,11.1,25,8,6.19-2.25,10.94-9.25,9.3-14.57-3.06,6-6.74,8.41-12.39,8.06-4.92-.3-9.7-4.45-11.6-10-2.7-8,.62-17.56,7.75-22.53a32.45,32.45,0,0,1,18.18-6c6.71-.16,13,1,18.85,4.4,3.23,1.88,6,4.39,9,6.53h0l0,0h0l6,7h0a77.64,77.64,0,0,1,9.44,19.69c3,9.68,3.5,111.93,3.22,121.94a3,3,0,0,0,1.74,3.13,38.59,38.59,0,0,1,10.11,8.08c2.19,2.44,3.71,5.34,5.74,8.08.27-.46.42-.72.56-1,3.64-6.87,8.63-12.4,15.68-15.88a1.91,1.91,0,0,0,1.18-2c0-4.27-.06-100.86.34-105.13a89.9,89.9,0,0,1,3.29-17.68,78,78,0,0,1,10-20.19c.48-.5,1-1,1.43-1.51,8.74-10.43,19.16-17.08,33.53-15.5,7.8.85,14.4,3.78,19.68,9.63,6,6.7,6.37,17.81.57,24.46-3.07,3.52-7,5.19-11.63,4.24a11,11,0,0,1-8.86-8.41c-.85,7.09,2.79,12.74,9.62,15,8.95,3,19.24-.79,25-9.16C265.84,216.57,262.32,197.82,248.94,187.79Z"/></svg>