<svg id="Layer_1" data-name="Layer 1" xmlns="http://www.w3.org/2000/svg" viewBox="0 0 595.28 566.93"><defs><style>.cls-1{fill:#1c1b1c;}</style></defs><path class="cls-1" d="M340.84,478.87C320.46,487.38,306.67,503,297,523.1c-3.58-10.53-10.7-18.3-17.73-26.19-7.2-8.08-16.37-13.28-25.81-18.34C267,473.9,294.3,447,296.93,436.05,307.49,454.35,322,468.87,340.84,478.87Z"/><path class="cls-1" d="M102.07,415.19c-7.58-19.91-20.63-34.57-39.41-43.09,18.85-7.7,31.87-21.92,39.48-41,9.17,18.28,21.65,33.67,42,40.11C122.94,378.15,110.15,394.45,102.07,415.19Z"/><path class="cls-1" d="M451,370.62c16.51-4.18,35.23-25.21,41.64-40.5,8,18.65,19.86,33.75,38.95,40.81-20.43,7.25-30.54,24.69-39.11,42.89C485.49,394.15,472.67,378.56,451,370.62Z"/><path class="cls-1" d="M496.82,128.05c-6.74-17.77-17.07-32-35.27-38.84,17.15-8.7,29.81-21.37,35.4-40.49,5.85,18.64,17.31,32.36,35.44,40.92C515.2,97.36,504.08,110.92,496.82,128.05Z"/><path class="cls-1" d="M98.35,129.46c-5.4-18.14-16.87-31.63-34.81-40C79.71,82.57,96,62.83,98,48.38A54.25,54.25,0,0,0,111,72.72c6.27,7,13.25,12.92,22.17,16.31C115,97.11,103.44,110.82,98.35,129.46Z"/><path class="cls-1" d="M435.93,82.24a164.06,164.06,0,0,0-12-13.81c-2.77-2.72-5.62-5.36-8.61-7.82s-3.32-2.69-.11-5.35a124.68,124.68,0,0,0,16-15.68c1.52-1.8,3.06-3.58,4.72-5.52a142.32,142.32,0,0,0,20,20.27c4.31,3.52,4.24,3.53,0,7.15C448.6,67.62,442.29,74.67,435.93,82.24Z"/><path class="cls-1" d="M157.74,82.61a92.77,92.77,0,0,0-19.65-21.49c-.73-.59-1.41-1.26-2.12-1.89-1.06-.95-1.27-1.67,0-2.8,6.3-5.45,12.77-10.74,17.9-17.4,1.26-1.64,2.62-3.21,4.05-5A161.69,161.69,0,0,0,181.89,58,138.58,138.58,0,0,0,157.74,82.61Z"/><path class="cls-1" d="M523.48,439.58a16,16,0,0,1-15.8-15.92,16.61,16.61,0,0,1,16.67-16.5c8.3.09,16.29,7.77,15.83,16.17C539.63,433.33,531.65,440.22,523.48,439.58Z"/><path class="cls-1" d="M86.91,423.29c.58,8.44-6.27,15.49-15.38,16.33S55.15,432,54.92,424.45c-.28-9.07,5.36-16.62,15.79-17.17C78.46,406.87,86.6,412.84,86.91,423.29Z"/><path class="cls-1" d="M485.94,253.61c.47,8.41-8.41,15.61-14.56,15.74-10.48.22-16.9-7.43-17-15.51-.18-9.86,6.32-16.57,16.26-16.79C479,236.86,485.81,244.17,485.94,253.61Z"/><path class="cls-1" d="M124.52,269.23c-7.28,0-15.51-7.83-15.51-14.75,0-10,6.77-17.6,15.73-17.61a15.65,15.65,0,0,1,15.91,16.06C140.24,263,134.12,268.43,124.52,269.23Z"/><path class="cls-1" d="M475.14,193.48a174,174,0,0,0-3.74-19.2h0A165.75,165.75,0,0,0,462.51,147c-13.7-31.6-34.43-57.6-62.64-77.54a176.93,176.93,0,0,0-87.36-32.25A170.66,170.66,0,0,0,257,41.52Q194.7,56.35,155.47,106.91a172.86,172.86,0,0,0-28.75,55.39,183.59,183.59,0,0,0-7.52,34.8A120.23,120.23,0,0,0,117.87,214h0c-.3,1-.77,2,.09,2.92l27.92,0h0c.61-.21.44-.73.47-1.17a171.36,171.36,0,0,1,8.67-46c9.95-29.83,26.81-54.74,51.76-74.14s53.47-28.21,84.43-30.39c14.05-1,27.92,1,41.64,4,26,5.69,48.11,18.62,67.32,36.57,17.69,16.54,29.89,36.82,38.3,59.46,3,8.22,5.14,16.69,7.32,25.16a233.51,233.51,0,0,1,2.89,25.44c.07,1.33.86,1.22,1.72,1.22,8.35,0,16.69,0,25,0,1.4,0,1.64-.41,1.65-1.79A141.32,141.32,0,0,0,475.14,193.48Z"/></svg>