<svg id="Layer_1" data-name="Layer 1" xmlns="http://www.w3.org/2000/svg" viewBox="0 0 150.52 421.93"><defs><style>.cls-1{fill:#1c1b1c;}</style></defs><path class="cls-1" d="M131.24,125.56a36.71,36.71,0,0,1,3.07,3.8,52.53,52.53,0,0,1,7.67,27A42.29,42.29,0,0,1,139.46,173c-3.92,9.89-11.55,15.89-21.31,19-5.06,1.64-10.53,2-15.84,2.86-2.92.46-5.88.78-8.83,1.06-1.4.13-2.82,0-4.85,0,.82-1.39,1.27-2.16,1.73-2.92,2.83-4.68,6-9.17,8.39-14.08,3-6.3,7.46-11.27,12.57-15.82,8.48-7.57,15.26-16.3,18-27.6a88.41,88.41,0,0,0,1.22-9.38Z"/><path class="cls-1" d="M95.93,327.22c.89-2.48,1.5-4.31,2.19-6.12,1.58-4.16,3.44-8.23,4.74-12.48,2-6.47,6.18-11.59,9.78-17.1,3.1-4.74,6.32-9.49,8.61-14.63,1.85-4.15,2.35-8.89,3.55-13.35a17.72,17.72,0,0,1,1.44-3,9.46,9.46,0,0,1,2.66,1.66c6.25,7.91,11.09,16.45,11.75,26.83.82,13-8.78,28.69-23,32.75q-9.37,2.69-18.77,5.28A16,16,0,0,1,95.93,327.22Z"/><path class="cls-1" d="M23.31,205.05a36,36,0,0,1-4.38-3.72c-6.81-8.05-10-17.63-10.39-28C8,158.65,19.33,145.24,33.85,142.81c4.39-.73,8.83-1.22,13.26-1.72,3.52-.39,4.24.5,3,3.84-2.28,6.17-4.45,12.4-7.19,18.36-1.32,2.87-3.83,5.2-5.83,7.75C31.93,177.65,27,184.41,25,192.75,24.11,196.42,23.94,200.26,23.31,205.05Z"/><path class="cls-1" d="M92.79,239c-.53-3.73-1.22-8.39-1.85-13.05a2.4,2.4,0,0,1,.26-1.75,1.75,1.75,0,0,1,1.66.14c6.33,5,13.2,9.51,18.73,15.29s9.2,12.91,8.91,21.31c-.19,5.22-1.12,10.34-3.83,14.95-3.15,5.36-6.29,10.74-9.57,16a4.14,4.14,0,0,1-2.79,1.77c-.69,0-1.65-1.19-2.13-2-3.4-6.17-6.59-12.45-10.09-18.56a12.14,12.14,0,0,1-1.3-7.5C91.48,257,92.08,248.51,92.79,239Z"/><path class="cls-1" d="M63.38,198.35c2,1.65,4.21,3.34,6.25,5.2,3.24,2.94,6.36,6,9.54,9,5.47,5.15,7.36,11.89,8.42,19,1.59,10.73-.49,21.3-1.57,31.9-.23,2.29-1.68,2.92-3.59,1.56a43.79,43.79,0,0,1-5.36-4.45c-4.09-4-8.29-8-12-12.39a29.4,29.4,0,0,1-6.91-22.59c.68-7.1,1.7-14.17,2.69-21.24C61.12,202.25,60.29,199.67,63.38,198.35Z"/><path class="cls-1" d="M54.65,238.94A13.72,13.72,0,0,1,52,237.7c-6.89-5.36-14-10.51-19.26-17.64-3.64-4.93-4.44-10.57-4.42-16.6,0-10.86,4.46-19.75,11.29-27.75a12.57,12.57,0,0,1,2.56-2.54c1.56-1,3.43-1.44,4.51.58,2.48,4.66,4.71,9.45,7.12,14.14,3.92,7.64,2.75,15.57,1.27,23.45-1.64,8.75-2.55,17.45-.43,26.24A7.31,7.31,0,0,1,54.65,238.94Z"/><path class="cls-1" d="M94.08,98.78c10.86,3.35,21,6.44,28.14,15.06a16.4,16.4,0,0,1,3.46,9.5c1,12.42-4.3,22.35-12.11,31.29-2.19,2.5-4.79,4.65-7.76,7.5-.83-1.17-2.17-2.32-2.56-3.73-1.55-5.61-3.36-11.25-4-17-.49-4.33.45-8.86,1.07-13.25,1.24-8.85.46-17.21-4.76-24.81C94.81,102.26,94.69,100.75,94.08,98.78Z"/><path class="cls-1" d="M39.07,104.74a13.21,13.21,0,0,0,2.56-1.15,35.11,35.11,0,0,1,19.25-7.26c5.28-.28,10.63-.86,15.84-.33,8.91.9,15.77,7.92,18.17,17,2,7.74.65,15.3-.55,22.91-.29,1.81-1.28,1.52-2.38.85-5.83-3.58-11.71-7.07-17.42-10.83a24.82,24.82,0,0,1-4.66-4.72c-5.77-6.64-12.1-12.4-21.18-14-2-.34-4-.39-6-.61-.93-.1-1.84-.31-2.76-.47Z"/><path class="cls-1" d="M10.83,151.4c0-2.41-.37-4.4.07-6.2,2.24-9,5.16-17.79,11.71-24.89,9.59-10.39,29-13.38,40.5.81,1.64,2,3.54,3.82,5.18,5.83a4.13,4.13,0,0,1,1.13,2.79c-.12.62-1.48,1.15-2.38,1.46-11.09,3.85-22.66,5.36-34.2,7.18A32.65,32.65,0,0,0,12.47,150,16.28,16.28,0,0,1,10.83,151.4Z"/><path class="cls-1" d="M134.9,189.27c-1.36,3.77-2.34,7.73-4.14,11.29-5.52,10.94-13.69,19.4-24.87,24.67a4.24,4.24,0,0,1-3.71-.46c-6.72-5.43-13.32-11-19.88-16.65-1.77-1.51-1.56-3.17.83-4a84.68,84.68,0,0,1,13-3.73c5.45-1,11-1.39,16.53-2.23a39.74,39.74,0,0,0,18.84-7.84c.71-.56,1.5-1,2.25-1.54Z"/><path class="cls-1" d="M15.82,275.94a28.61,28.61,0,0,1,.58-3.7c4.38-14.68,14.26-24.68,27.31-32a3.76,3.76,0,0,1,5,.55c5.77,5.55,11.68,10.93,17.5,16.41,2.79,2.63,2.52,4.37-1.14,5.16-7.32,1.57-14.69,3.05-22.11,4-7.91,1.05-15.52,2.71-22.32,7.09-1.1.71-2.23,1.34-3.37,2A8.72,8.72,0,0,1,15.82,275.94Z"/><path class="cls-1" d="M68.1,267.72s-46.91,3.94-49.45,13.52,31.92,51.24,39.33,51S42,280.67,68.1,267.72Z"/></svg>