<svg width="30" height="84" viewBox="0 0 30 84" fill="none" xmlns="http://www.w3.org/2000/svg">
<path d="M26.1573 24.9971C26.3779 25.2354 26.5823 25.4881 26.7692 25.7536C27.7574 27.3737 28.2859 29.2318 28.2979 31.1289C28.3544 32.2556 28.1836 33.3822 27.7956 34.4417C27.0144 36.4106 25.4936 37.6051 23.5484 38.2243C22.5399 38.5508 21.4496 38.6225 20.3913 38.7937C19.8093 38.8853 19.2194 38.949 18.6314 39.0047C18.3524 39.0306 18.0694 39.0047 17.6648 39.0047C17.8282 38.728 17.9179 38.5747 18.0096 38.4234C18.5736 37.4917 19.2054 36.5978 19.6818 35.6203C20.2797 34.366 21.1686 33.3766 22.1871 32.4707C23.8772 30.9637 25.2285 29.2256 25.7747 26.976C25.889 26.3583 25.9702 25.7349 26.0178 25.1086L26.1573 24.9971Z" fill="#CE433A"/>
<path d="M19.1197 65.1451C19.2971 64.6514 19.4187 64.2871 19.5562 63.9267C19.8711 63.0985 20.2418 62.2882 20.5009 61.4421C20.8996 60.154 21.7327 59.1347 22.4502 58.0378C23.068 57.0941 23.7098 56.1485 24.1662 55.1252C24.5349 54.299 24.6346 53.3553 24.8738 52.4674C24.9505 52.2597 25.0466 52.0598 25.1608 51.8701C25.3547 51.9501 25.5339 52.0617 25.6909 52.2006C26.9366 53.7754 27.9013 55.4755 28.0328 57.5421C28.1963 60.1302 26.2829 63.2538 23.4487 64.0621C22.2037 64.4191 20.9567 64.7695 19.7077 65.1133C19.5131 65.142 19.3163 65.1526 19.1197 65.1451Z" fill="#CE433A"/>
<path d="M4.6459 40.8227C4.33561 40.5995 4.04369 40.3519 3.77292 40.0822C2.41563 38.4795 1.77983 36.5723 1.7021 34.5078C1.59448 31.5852 3.85265 28.9155 6.74662 28.4317C7.62158 28.2864 8.50651 28.1888 9.38945 28.0893C10.091 28.0116 10.2345 28.1888 9.98738 28.8537C9.53296 30.0821 9.10045 31.3224 8.55435 32.509C8.29126 33.0803 7.791 33.5442 7.39238 34.0519C6.36394 35.3678 5.38135 36.7136 4.98273 38.374C4.80535 39.1046 4.77146 39.8691 4.6459 40.8227Z" fill="#CE433A"/>
<path d="M18.4939 47.5811C18.3883 46.8385 18.2507 45.9107 18.1252 44.983C18.0974 44.8645 18.1159 44.7399 18.177 44.6346C18.2301 44.6114 18.2882 44.6018 18.3459 44.6067C18.4037 44.6116 18.4594 44.6307 18.5078 44.6625C19.7695 45.6579 21.1387 46.5558 22.2409 47.7065C23.3431 48.8572 24.0745 50.2767 24.0167 51.949C23.9789 52.9882 23.7935 54.0075 23.2534 54.9253C22.6256 55.9924 21.9997 57.0635 21.346 58.1107C21.2825 58.2044 21.2004 58.2841 21.1047 58.3447C21.009 58.4053 20.9019 58.4456 20.7899 58.4631C20.6524 58.4631 20.4611 58.2262 20.3654 58.0649C19.6878 56.8365 19.052 55.5863 18.3544 54.3699C18.11 53.9128 18.0192 53.3893 18.0953 52.8767C18.2328 51.1646 18.3524 49.4744 18.4939 47.5811Z" fill="#CE433A"/>
<path d="M12.6322 39.4883C13.0308 39.8168 13.4713 40.1532 13.8779 40.5235C14.5237 41.1088 15.1455 41.718 15.7793 42.3153C16.8695 43.3406 17.2462 44.6824 17.4575 46.0979C17.7744 48.2341 17.3598 50.3384 17.1446 52.4487C17.0987 52.9046 16.8097 53.0301 16.429 52.7593C16.05 52.4928 15.6927 52.1965 15.3608 51.8734C14.5456 51.077 13.7085 50.2807 12.969 49.4067C12.4406 48.793 12.0454 48.0764 11.8083 47.3023C11.5713 46.5282 11.4975 45.7134 11.5918 44.9094C11.7273 43.4959 11.9306 42.0883 12.128 40.6808C12.1818 40.2647 12.0163 39.7511 12.6322 39.4883Z" fill="#CE433A"/>
<path d="M10.8922 47.5693C10.7079 47.5061 10.5308 47.4233 10.3641 47.3224C8.99083 46.2553 7.57375 45.23 6.52538 43.8106C5.7999 42.8291 5.64045 41.7062 5.64444 40.5058C5.64444 38.3437 6.53335 36.5738 7.89464 34.9811C8.0395 34.789 8.21134 34.6187 8.40487 34.4755C8.71579 34.2764 9.0885 34.1888 9.30375 34.5909C9.79804 35.5187 10.2425 36.4723 10.7228 37.406C11.5041 38.927 11.2709 40.5058 10.976 42.0745C10.6491 43.8165 10.4677 45.5486 10.8902 47.2985C10.8993 47.3885 10.9 47.4792 10.8922 47.5693Z" fill="#CE433A"/>
<path d="M18.751 19.666C20.9155 20.333 22.9365 20.9481 24.3595 22.6642C24.7831 23.2064 25.0244 23.8683 25.0492 24.5555C25.2485 27.0282 24.1921 29.0051 22.6355 30.7849C22.199 31.2826 21.6808 31.7107 21.0889 32.2781C20.9235 32.0451 20.6564 31.8162 20.5787 31.5355C20.2697 30.4186 19.909 29.2958 19.7814 28.151C19.6838 27.289 19.8711 26.3871 19.9947 25.5131C20.2418 23.7512 20.0864 22.0869 19.046 20.5738C18.8965 20.3588 18.8726 20.0582 18.751 19.666Z" fill="#CE433A"/>
<path d="M7.787 20.8522C7.96474 20.7942 8.13578 20.7175 8.29723 20.6233C9.40296 19.7696 10.7392 19.2662 12.1339 19.1779C13.1863 19.1222 14.2526 19.0067 15.291 19.1122C17.0668 19.2914 18.4341 20.689 18.9124 22.4967C19.3111 24.0376 19.042 25.5427 18.8028 27.0577C18.745 27.4181 18.5477 27.3603 18.3285 27.2269C17.1665 26.5142 15.9945 25.8194 14.8565 25.0709C14.5062 24.8005 14.1938 24.4845 13.9277 24.1312C12.7777 22.8092 11.5161 21.6625 9.70635 21.344C9.30773 21.2763 8.90911 21.2663 8.51049 21.2225C8.32514 21.2026 8.14377 21.1608 7.9604 21.129L7.787 20.8522Z" fill="#CE433A"/>
<path d="M2.15852 30.1419C2.15852 29.6621 2.08477 29.2659 2.17247 28.9076C2.61892 27.1158 3.20091 25.3659 4.50638 23.9524C6.41775 21.8839 10.2863 21.2886 12.5784 24.1136C12.9053 24.5118 13.284 24.8741 13.6108 25.2743C13.7532 25.4245 13.8336 25.6229 13.836 25.8297C13.8121 25.9532 13.5411 26.0587 13.3617 26.1204C11.1513 26.8869 8.84534 27.1875 6.54531 27.5498C4.95189 27.7921 3.50518 28.6165 2.48539 29.8632C2.38272 29.9632 2.27352 30.0563 2.15852 30.1419Z" fill="#CE433A"/>
<path d="M26.8868 37.6806C26.6157 38.4311 26.4204 39.2195 26.0617 39.9282C24.9615 42.1062 23.3331 43.7905 21.1048 44.8397C20.9828 44.8819 20.8527 44.8955 20.7245 44.8797C20.5963 44.8638 20.4734 44.8188 20.3654 44.7481C19.026 43.6671 17.7106 42.5581 16.4031 41.4333C16.0504 41.1327 16.0922 40.8022 16.5686 40.637C17.411 40.3208 18.2775 40.0725 19.1596 39.8944C20.2458 39.6953 21.352 39.6177 22.4542 39.4504C23.8205 39.2655 25.1148 38.7275 26.2091 37.8896C26.3507 37.7781 26.5081 37.6905 26.6576 37.583L26.8868 37.6806Z" fill="#CE433A"/>
<path d="M3.15308 54.9356C3.17546 54.6878 3.21408 54.4417 3.26868 54.1989C4.14165 51.2764 6.11082 49.2855 8.71181 47.8282C8.86212 47.7203 9.04711 47.6718 9.23111 47.692C9.41511 47.7122 9.58511 47.7997 9.70835 47.9377C10.8584 49.0426 12.0363 50.1137 13.1963 51.2047C13.7523 51.7283 13.6985 52.0747 12.969 52.232C11.5101 52.5445 10.0412 52.8392 8.56232 53.0283C6.98579 53.2374 5.46905 53.5678 4.11375 54.4398C3.89451 54.5812 3.66929 54.7066 3.44207 54.838C3.34879 54.8789 3.25209 54.9116 3.15308 54.9356Z" fill="#CE433A"/>
<path d="M13.5729 53.2988C13.5729 53.2988 4.22336 54.0832 3.71711 55.9905C3.21087 57.8977 10.0791 66.1916 11.5559 66.1438C13.0328 66.096 8.37098 55.877 13.5729 53.2988Z" fill="#CE433A"/>
</svg>
