<svg width="140" height="187" viewBox="0 0 140 187" fill="none" xmlns="http://www.w3.org/2000/svg">
<path d="M80.0155 97.8637C79.7301 96.4252 78.9779 95.1208 77.8756 94.1527C77.7515 94.0365 77.6585 93.7886 77.391 93.9552C76.7892 94.2556 76.1674 94.5145 75.5301 94.7299C75.1425 94.7686 74.7548 94.85 74.3439 94.85C71.4635 94.85 68.5831 94.85 65.7065 94.85C64.7606 94.6524 63.7914 94.5323 62.9192 94.0752C62.7021 93.9629 62.6362 94.1488 62.5315 94.2379C61.3864 95.1543 60.599 96.4427 60.3063 97.8791C60.095 98.9561 60.095 100.064 60.3063 101.141C61.2522 104.592 63.2913 106.924 66.9393 107.606C69.1025 107.687 71.2696 107.683 73.4328 107.606C73.9711 107.568 74.4973 107.429 74.9835 107.195C77.5305 105.905 79.2906 103.961 79.9845 101.141C80.2401 100.064 80.2507 98.9446 80.0155 97.8637Z" fill="#BE986A"/>
<path d="M17.833 131.801C21.0506 135.519 25.1212 136.79 29.9012 135.945C31.0642 135.74 32.2272 135.415 33.4949 135.12C32.8532 136.716 32.3588 138.366 32.0179 140.051C30.9401 145.963 33.4368 151.835 38.3214 154.655C40.8374 156.108 43.5279 156.871 46.4625 156.166C46.8076 156.081 47.2611 155.988 47.3658 155.693C47.5054 155.287 46.9781 155.19 46.7339 154.992C43.8613 152.738 41.8803 149.98 41.8919 146.16C41.8919 142.724 43.2604 139.726 45.0592 136.891C47.4744 133.087 50.0989 129.414 51.9946 125.297C54.9448 118.898 56.0768 112.305 54.3788 105.363C54.2199 104.91 54.247 104.402 53.9911 103.98C54.028 103.898 54.0396 103.808 54.0244 103.719C54.0092 103.631 53.9679 103.549 53.9058 103.484C53.712 102.942 53.681 102.345 53.3592 101.842C53.3881 101.772 53.3972 101.696 53.3856 101.622C53.3739 101.547 53.342 101.477 53.2933 101.42C52.4789 99.1364 51.4577 96.9322 50.2423 94.8345C49.6453 93.99 49.1917 92.9945 47.8892 92.6459C48.1605 94.4123 48.4086 96.0508 48.6645 97.6816L48.7343 99.0761C49.1569 106.878 47.5713 114.079 42.3959 120.207C40.7181 122.139 38.7944 123.844 36.6738 125.277C35.2789 126.054 33.8213 126.712 32.3164 127.245C32.1593 127.236 32.0018 127.246 31.8473 127.276C29.8094 127.879 27.6786 128.106 25.5593 127.946C21.95 127.702 18.7828 126.323 15.9372 124.139C15.7744 124.015 15.6194 123.751 15.3829 123.84C15.1464 123.929 15.1813 124.266 15.1735 124.503C15.1393 125.61 15.2967 126.715 15.6387 127.768C16.1359 129.227 16.8779 130.591 17.833 131.801Z" fill="#BE986A"/>
<path d="M122.469 54.6184C119.252 50.8997 115.181 49.6291 110.401 50.4736C109.238 50.6828 108.075 51.0043 106.808 51.3025C107.449 49.7059 107.944 48.054 108.285 46.3675C109.362 40.4563 106.866 34.5878 101.981 31.7639C99.465 30.3113 96.7746 29.5482 93.8399 30.2532C93.4949 30.3384 93.0413 30.4314 92.9366 30.7258C92.7971 31.1131 93.3243 31.2293 93.5685 31.4269C96.4451 33.6852 98.4222 36.4626 98.4144 40.2588C98.4144 43.6947 97.0421 46.6929 95.2433 49.5284C92.8281 53.3323 90.2035 57.0045 88.3078 61.1261C85.3576 67.5215 84.2256 74.1144 85.9236 81.056C86.0826 81.5092 86.0555 82.0205 86.3307 82.4389C86.2938 82.5206 86.2822 82.6115 86.2974 82.6998C86.3126 82.7882 86.3539 82.87 86.416 82.9347C86.6098 83.477 86.6408 84.0774 86.9626 84.5771C86.9338 84.6468 86.9246 84.723 86.9363 84.7975C86.9479 84.8719 86.9798 84.9418 87.0285 84.9993C87.8418 87.2892 88.863 89.5 90.0795 91.6039C90.6765 92.4483 91.1301 93.4439 92.4327 93.7964C92.1652 92.0261 91.9132 90.3876 91.6573 88.7606C91.6302 88.2958 91.6069 87.831 91.5837 87.3661C91.165 79.5646 92.7467 72.3635 97.9221 66.2354C99.5999 64.303 101.524 62.5983 103.644 61.1648C105.039 60.3884 106.497 59.7301 108.002 59.197C108.159 59.2063 108.316 59.1959 108.471 59.166C110.506 58.5628 112.634 58.3344 114.751 58.492C118.36 58.7322 121.527 60.1112 124.373 62.2959C124.536 62.4199 124.691 62.6833 124.927 62.5942C125.164 62.5051 125.129 62.1681 125.137 61.9318C125.171 60.8247 125.013 59.72 124.671 58.6663C124.174 57.2015 123.429 55.8325 122.469 54.6184Z" fill="#BE986A"/>
<path d="M80.5001 85.5765C80.4006 84.612 80.0963 83.6799 79.6076 82.8422C79.1189 82.0046 78.4571 81.2807 77.6662 80.719C77.1118 80.3006 76.4024 80.2735 75.8558 79.8668C75.5445 79.7374 75.212 79.6665 74.8749 79.6576C74.8488 79.6203 74.8112 79.5925 74.7678 79.5786C74.7244 79.5646 74.6776 79.5651 74.6346 79.5801C73.4716 79.5801 72.3086 79.5414 71.1455 79.5491C69.2498 79.5491 67.3541 79.4871 65.4584 79.5956C65.2064 79.646 64.9467 79.677 64.6831 79.7428C60.8606 80.7654 58.6509 85.3828 60.2791 89.0395C60.713 90.0909 61.4228 91.0057 62.3337 91.6874C63.2446 92.3692 64.3228 92.7927 65.4545 92.9132H74.9292C77.608 92.4522 79.3448 90.8989 80.2171 88.35C80.4874 87.452 80.5834 86.5106 80.5001 85.5765Z" fill="#BE986A"/>
<path d="M75.9372 123.546L74.9913 123.802L73.3669 124.127L72.4482 124.162C72.1263 124.119 71.799 124.142 71.4867 124.232C71.227 124.433 71.3666 124.716 71.3666 124.952C71.2929 138.793 71.5061 152.637 71.2309 166.477C71.1372 166.635 71.1041 166.821 71.1378 167C71.0642 167.527 70.9789 168.054 70.9169 168.585C70.7967 169.631 70.4245 170.622 70.2617 171.66C70.1686 171.595 70.157 172.048 70.0523 171.711C69.8701 171.141 69.7345 170.549 69.5833 169.979C69.4437 169.115 69.308 168.252 69.1685 167.388C69.1844 167.336 69.1856 167.28 69.1719 167.228C69.1582 167.175 69.1302 167.127 69.0909 167.089C69.0909 166.497 69.0638 165.9 69.0483 165.304C69.0838 164.902 69.059 164.497 68.9746 164.103C68.9746 163.503 68.9746 162.902 68.9746 162.302C68.9746 149.87 68.9682 137.441 68.9552 125.014C68.9552 124.754 69.0832 124.456 68.8467 124.22C68.5768 124.118 68.2834 124.097 68.0016 124.158L66.6098 124.123C66.5508 124.08 66.4832 124.05 66.4116 124.036C66.3401 124.021 66.2662 124.022 66.195 124.038L65.1289 123.895C65.0971 123.852 65.053 123.819 65.0025 123.802C64.9519 123.785 64.8973 123.783 64.8459 123.798C64.5009 123.623 64.4156 123.705 64.4195 124.108C64.4195 136.4 64.4195 148.691 64.4195 160.981C64.3857 163.338 64.666 165.689 65.253 167.973C65.3383 168.298 65.4197 168.627 65.5127 168.949C66.3578 171.819 67.5286 174.573 68.5249 177.39C69.0948 178.997 70.1764 182.259 70.1764 182.259C70.8665 179.807 71.1146 179.474 71.6612 177.874C72.3125 175.96 73.0452 174.078 73.743 172.183C74.1954 170.968 74.5772 169.728 74.8866 168.469C75.2668 167.326 75.5343 166.149 75.6852 164.955C75.8442 163.566 75.9296 162.17 75.9411 160.772C75.9411 149.876 75.9411 138.98 75.9411 128.082L75.9372 123.546ZM74.9913 123.802C75.0739 123.796 75.1568 123.796 75.2394 123.802H74.9913Z" fill="#BE986A"/>
<path d="M75.9373 58.9142C75.9373 48.0163 75.9373 37.1198 75.9373 26.2245C75.9256 24.8278 75.8402 23.4326 75.6814 22.0449C75.5304 20.8505 75.263 19.6738 74.8828 18.5315C74.574 17.2721 74.1921 16.0317 73.7392 14.8166C73.0413 12.9186 72.3086 11.036 71.6574 9.12239C71.1107 7.52257 70.8626 7.18557 70.1726 4.73743C70.1726 4.73743 69.091 7.99903 68.5211 9.61047C67.5248 12.4227 66.354 15.1808 65.5089 18.0473C65.4158 18.3726 65.3344 18.698 65.2491 19.0234C64.6641 21.3006 64.3838 23.6452 64.4156 25.996C64.4156 38.2909 64.4156 50.5833 64.4156 62.873C64.4156 63.2604 64.497 63.3572 64.8421 63.179C64.8931 63.1939 64.9475 63.1929 64.998 63.1763C65.0485 63.1597 65.0928 63.1283 65.1251 63.0861L66.1912 62.9428C66.2624 62.959 66.3363 62.9597 66.4078 62.945C66.4794 62.9303 66.5469 62.9005 66.606 62.8575L67.9977 62.8188C68.2795 62.8799 68.573 62.8584 68.8429 62.7568C69.0793 62.5205 68.9514 62.2261 68.9514 61.9627C68.9514 49.5361 68.9579 37.1081 68.9708 24.6789C68.9708 24.0746 68.9708 23.4742 68.9708 22.8738C69.0553 22.4795 69.0801 22.0747 69.0444 21.673C69.0444 21.0803 69.0755 20.4838 69.0871 19.8872C69.126 19.8501 69.1538 19.803 69.1675 19.751C69.1812 19.699 69.1802 19.6443 69.1646 19.5928C69.3042 18.729 69.4399 17.8652 69.5794 17.0014C69.7306 16.4203 69.8663 15.8393 70.0485 15.266C70.1532 14.9445 70.1648 15.3822 70.2579 15.3202C70.4207 16.3545 70.7928 17.35 70.913 18.3959C70.975 18.9227 71.0603 19.4495 71.134 19.9763C71.0995 20.1561 71.1327 20.3423 71.227 20.4993C71.5023 34.3437 71.2891 48.1842 71.3627 62.0247C71.3627 62.2649 71.2232 62.5438 71.4829 62.7491C71.7951 62.8388 72.1228 62.8612 72.4443 62.8149L73.3631 62.8537L74.9875 63.1752L75.9334 63.4308L75.9373 58.9142ZM75.2394 63.1752C75.1569 63.1829 75.0739 63.1829 74.9913 63.1752H75.2394Z" fill="#BE986A"/>
</svg>
