<svg width="140" height="187" viewBox="0 0 140 187" fill="none" xmlns="http://www.w3.org/2000/svg">
<path d="M80.0155 97.8638C79.7301 96.4253 78.9779 95.121 77.8756 94.1528C77.7515 94.0366 77.6585 93.7887 77.391 93.9553C76.7892 94.2558 76.1674 94.5146 75.5301 94.73C75.1425 94.7687 74.7548 94.8501 74.3439 94.8501C71.4635 94.8501 68.5831 94.8501 65.7065 94.8501C64.7606 94.6525 63.7914 94.5324 62.9192 94.0754C62.7021 93.963 62.6362 94.149 62.5315 94.238C61.3864 95.1544 60.599 96.4429 60.3063 97.8793C60.095 98.9562 60.095 100.064 60.3063 101.141C61.2522 104.592 63.2913 106.924 66.9393 107.606C69.1025 107.687 71.2696 107.683 73.4328 107.606C73.9711 107.568 74.4973 107.429 74.9835 107.195C77.5305 105.905 79.2906 103.961 79.9845 101.141C80.2401 100.065 80.2507 98.9447 80.0155 97.8638Z" fill="#D86F3A"/>
<path d="M17.8329 131.801C21.0506 135.519 25.1211 136.79 29.9011 135.945C31.0642 135.74 32.2272 135.415 33.4949 135.12C32.8532 136.716 32.3588 138.366 32.0178 140.051C30.9401 145.963 33.4367 151.835 38.3214 154.655C40.8374 156.108 43.5278 156.871 46.4625 156.166C46.8075 156.08 47.2611 155.988 47.3658 155.693C47.5053 155.286 46.9781 155.19 46.7339 154.992C43.8612 152.738 41.8802 149.98 41.8918 146.16C41.8918 142.724 43.2603 139.726 45.0591 136.89C47.4743 133.087 50.0989 129.414 51.9946 125.297C54.9448 118.897 56.0768 112.304 54.3788 105.363C54.2198 104.91 54.2469 104.402 53.9911 103.98C54.028 103.898 54.0396 103.807 54.0244 103.719C54.0092 103.631 53.9679 103.549 53.9058 103.484C53.712 102.942 53.6809 102.345 53.3592 101.842C53.388 101.772 53.3972 101.696 53.3855 101.621C53.3739 101.547 53.342 101.477 53.2933 101.42C52.4789 99.1363 51.4577 96.9321 50.2423 94.8344C49.6453 93.9899 49.1917 92.9944 47.8891 92.6458C48.1605 94.4121 48.4086 96.0507 48.6645 97.6815L48.7342 99.076C49.1568 106.878 47.5712 114.079 42.3958 120.207C40.7181 122.139 38.7944 123.844 36.6738 125.277C35.2789 126.054 33.8213 126.712 32.3163 127.245C32.1593 127.236 32.0017 127.246 31.8473 127.276C29.8093 127.879 27.6786 128.106 25.5592 127.946C21.95 127.702 18.7827 126.323 15.9372 124.138C15.7744 124.014 15.6193 123.751 15.3828 123.84C15.1463 123.929 15.1812 124.266 15.1735 124.503C15.1393 125.61 15.2967 126.714 15.6387 127.768C16.1358 129.227 16.8778 130.59 17.8329 131.801Z" fill="#D86F3A"/>
<path d="M122.469 54.6184C119.252 50.8997 115.181 49.6291 110.401 50.4736C109.238 50.6828 108.075 51.0043 106.808 51.3025C107.449 49.7059 107.944 48.054 108.285 46.3675C109.362 40.4563 106.866 34.5878 101.981 31.7639C99.465 30.3113 96.7746 29.5482 93.8399 30.2532C93.4949 30.3384 93.0413 30.4314 92.9366 30.7258C92.797 31.1131 93.3243 31.2293 93.5685 31.4269C96.445 33.6852 98.4222 36.4626 98.4144 40.2588C98.4144 43.6947 97.0421 46.6929 95.2433 49.5284C92.8281 53.3323 90.2035 57.0045 88.3078 61.1261C85.3576 67.5215 84.2256 74.1144 85.9236 81.056C86.0826 81.5092 86.0554 82.0205 86.3307 82.4389C86.2938 82.5206 86.2822 82.6115 86.2974 82.6998C86.3126 82.7882 86.3539 82.87 86.416 82.9347C86.6098 83.477 86.6408 84.0774 86.9626 84.5771C86.9337 84.6468 86.9246 84.723 86.9362 84.7975C86.9479 84.8719 86.9798 84.9418 87.0285 84.9993C87.8418 87.2892 88.863 89.5 90.0795 91.6039C90.6765 92.4483 91.1301 93.4439 92.4326 93.7964C92.1651 92.0261 91.9132 90.3876 91.6573 88.7606C91.6302 88.2958 91.6069 87.831 91.5836 87.3661C91.165 79.5646 92.7467 72.3635 97.9221 66.2354C99.5998 64.303 101.524 62.5983 103.644 61.1648C105.039 60.3884 106.497 59.7301 108.002 59.197C108.159 59.2063 108.316 59.1959 108.471 59.166C110.506 58.5628 112.634 58.3344 114.751 58.492C118.36 58.7322 121.527 60.1112 124.373 62.2959C124.536 62.4199 124.691 62.6833 124.927 62.5942C125.164 62.5051 125.129 62.1681 125.137 61.9318C125.171 60.8247 125.013 59.72 124.671 58.6663C124.174 57.2015 123.429 55.8325 122.469 54.6184Z" fill="#D86F3A"/>
<path d="M80.5001 85.5765C80.4006 84.612 80.0963 83.6799 79.6077 82.8422C79.119 82.0046 78.4571 81.2807 77.6662 80.719C77.1118 80.3006 76.4024 80.2735 75.8558 79.8668C75.5445 79.7374 75.212 79.6665 74.875 79.6576C74.8488 79.6203 74.8112 79.5925 74.7678 79.5786C74.7244 79.5646 74.6777 79.5651 74.6346 79.5801C73.4716 79.5801 72.3086 79.5414 71.1456 79.5491C69.2499 79.5491 67.3541 79.4871 65.4584 79.5956C65.2064 79.646 64.9467 79.677 64.6831 79.7428C60.8606 80.7654 58.6509 85.3828 60.2791 89.0395C60.713 90.0909 61.4229 91.0057 62.3338 91.6874C63.2447 92.3692 64.3228 92.7927 65.4545 92.9132H74.9292C77.6081 92.4522 79.3448 90.8989 80.2171 88.35C80.4874 87.452 80.5835 86.5106 80.5001 85.5765Z" fill="#D86F3A"/>
<path d="M75.9372 123.546L74.9913 123.802L73.3669 124.127L72.4481 124.162C72.1263 124.119 71.799 124.142 71.4867 124.232C71.227 124.433 71.3665 124.716 71.3665 124.952C71.2929 138.793 71.5061 152.637 71.2309 166.477C71.1372 166.635 71.1041 166.821 71.1378 167C71.0642 167.527 70.9789 168.054 70.9168 168.585C70.7967 169.631 70.4245 170.622 70.2617 171.66C70.1686 171.595 70.157 172.048 70.0523 171.711C69.8701 171.141 69.7344 170.549 69.5832 169.979C69.4437 169.115 69.308 168.252 69.1684 167.388C69.1844 167.336 69.1855 167.28 69.1719 167.228C69.1582 167.175 69.1301 167.127 69.0909 167.089C69.0909 166.497 69.0638 165.9 69.0483 165.304C69.0838 164.902 69.059 164.497 68.9746 164.103C68.9746 163.503 68.9746 162.902 68.9746 162.302C68.9746 149.87 68.9681 137.441 68.9552 125.014C68.9552 124.754 69.0831 124.456 68.8467 124.22C68.5768 124.118 68.2833 124.097 68.0015 124.158L66.6098 124.123C66.5508 124.08 66.4832 124.05 66.4116 124.036C66.3401 124.021 66.2662 124.022 66.195 124.038L65.1289 123.895C65.0971 123.852 65.053 123.819 65.0025 123.802C64.9519 123.785 64.8973 123.783 64.8459 123.798C64.5009 123.623 64.4156 123.705 64.4195 124.108C64.4195 136.4 64.4195 148.691 64.4195 160.981C64.3857 163.338 64.666 165.689 65.253 167.973C65.3382 168.298 65.4197 168.627 65.5127 168.949C66.3578 171.819 67.5286 174.573 68.5249 177.39C69.0948 178.997 70.1764 182.259 70.1764 182.259C70.8664 179.807 71.1146 179.474 71.6612 177.874C72.3125 175.96 73.0452 174.078 73.743 172.183C74.1954 170.968 74.5772 169.728 74.8866 168.469C75.2668 167.326 75.5343 166.149 75.6852 164.955C75.8442 163.566 75.9296 162.17 75.9411 160.772C75.9411 149.876 75.9411 138.98 75.9411 128.082L75.9372 123.546ZM74.9913 123.802C75.0739 123.796 75.1568 123.796 75.2394 123.802H74.9913Z" fill="#D86F3A"/>
<path d="M75.9372 58.9143C75.9372 48.0164 75.9372 37.1199 75.9372 26.2246C75.9256 24.8279 75.8402 23.4327 75.6813 22.045C75.5304 20.8506 75.2629 19.6739 74.8827 18.5316C74.5739 17.2722 74.192 16.0318 73.7391 14.8168C73.0413 12.9187 72.3086 11.0361 71.6573 9.12251C71.1107 7.5227 70.8626 7.18569 70.1725 4.73755C70.1725 4.73755 69.0909 7.99915 68.521 9.61059C67.5247 12.4229 66.3539 15.1809 65.5088 18.0474C65.4158 18.3728 65.3344 18.6981 65.2491 19.0235C64.6641 21.3007 64.3838 23.6453 64.4156 25.9961C64.4156 38.291 64.4156 50.5834 64.4156 62.8731C64.4156 63.2605 64.497 63.3574 64.842 63.1792C64.8931 63.194 64.9474 63.193 64.9979 63.1765C65.0484 63.1599 65.0927 63.1284 65.125 63.0862L66.1911 62.9429C66.2623 62.9591 66.3362 62.9599 66.4078 62.9452C66.4793 62.9305 66.5469 62.9006 66.6059 62.8577L67.9977 62.8189C68.2795 62.8801 68.573 62.8585 68.8428 62.7569C69.0793 62.5206 68.9513 62.2263 68.9513 61.9628C68.9513 49.5362 68.9578 37.1083 68.9707 24.6791C68.9707 24.0748 68.9707 23.4743 68.9707 22.8739C69.0552 22.4796 69.0801 22.0748 69.0444 21.6731C69.0444 21.0804 69.0754 20.4839 69.087 19.8874C69.1259 19.8503 69.1538 19.8031 69.1675 19.7511C69.1812 19.6991 69.1802 19.6444 69.1646 19.593C69.3041 18.7291 69.4398 17.8653 69.5794 17.0015C69.7306 16.4204 69.8663 15.8394 70.0485 15.2661C70.1531 14.9446 70.1648 15.3823 70.2578 15.3203C70.4206 16.3546 70.7928 17.3501 70.913 18.396C70.975 18.9228 71.0603 19.4496 71.1339 19.9765C71.0995 20.1563 71.1326 20.3425 71.227 20.4994C71.5022 34.3438 71.289 48.1843 71.3627 62.0248C71.3627 62.265 71.2231 62.5439 71.4828 62.7492C71.795 62.8389 72.1227 62.8613 72.4443 62.815L73.3631 62.8538L74.9874 63.1753L75.9333 63.431L75.9372 58.9143ZM75.2394 63.1753C75.1569 63.1831 75.0738 63.1831 74.9913 63.1753H75.2394Z" fill="#D86F3A"/>
</svg>
