<svg width="40" height="73" viewBox="0 0 40 73" fill="none" xmlns="http://www.w3.org/2000/svg">
<path d="M13.1383 8.44145V26.4997H6.27055C6.27055 26.4997 5.87939 23.312 7.61424 22.1791C7.21087 21.9973 6.86764 21.7052 6.62448 21.3367C6.38132 20.9682 6.24823 20.5385 6.24069 20.0977C6.24561 19.6453 6.35128 19.1997 6.55008 18.793C6.74888 18.3863 7.03585 18.0285 7.39029 17.7456C7.03172 17.5375 6.73585 17.2373 6.53363 16.8764C6.3314 16.5154 6.23023 16.107 6.24069 15.6939C6.22498 15.2851 6.3082 14.8786 6.48333 14.5086C6.65846 14.1386 6.92037 13.8159 7.24696 13.5678C7.24696 13.5678 2.8994 10.0888 5.78981 6.43135C8.06213 3.56785 12.5053 4.90296 13.1383 8.44145Z" fill="#1C1B1C"/>
<path d="M7.665 26.5C7.665 26.5 2.94419 65.5305 11.1317 69.3514C13.883 70.5498 16.9556 70.806 19.8686 70.08C19.8686 70.08 16.4228 67.2819 15.2912 64.4749C14.694 63.0089 13.9743 61.3794 13.4667 56.9132C12.1828 45.6435 11.8663 26.5 11.8663 26.5H7.665Z" fill="#1C1B1C"/>
<path d="M26.5901 8.44145V26.4997H33.4578C33.4578 26.4997 33.8579 23.312 32.1231 22.1791C32.5265 21.9973 32.8697 21.7052 33.1128 21.3367C33.356 20.9682 33.4891 20.5385 33.4966 20.0977C33.4916 19.6451 33.3855 19.1992 33.1862 18.7924C32.9868 18.3857 32.6992 18.0281 32.344 17.7456C32.7032 17.5379 32.9996 17.2378 33.2024 16.8769C33.4052 16.5159 33.5068 16.1073 33.4966 15.6939C33.5123 15.2851 33.4291 14.8786 33.254 14.5086C33.0789 14.1386 32.817 13.8159 32.4904 13.5678C32.4904 13.5678 36.8349 10.0888 33.9445 6.43135C31.6901 3.56785 27.2351 4.90296 26.5901 8.44145Z" fill="#1C1B1C"/>
<path d="M32.0753 26.5C32.0753 26.5 36.7961 65.5305 28.6086 69.3514C25.8563 70.55 22.7827 70.8062 19.8687 70.08C19.8687 70.08 23.3145 67.2819 24.4491 64.4749C25.0463 63.0089 25.7629 61.3794 26.2735 56.9132C27.5575 45.6435 27.874 26.5 27.874 26.5H32.0753Z" fill="#1C1B1C"/>
</svg>
