<svg id="Layer_1" data-name="Layer 1" xmlns="http://www.w3.org/2000/svg" viewBox="0 0 206.1 400.8"><defs><style>.cls-1{fill:#9ac552;}</style></defs><path class="cls-1" d="M64.72,33.78V136H26s-2.26-18,7.52-24.46c0,0-7.75-3.2-7.75-11.82a17.3,17.3,0,0,1,6.49-13.31,13.08,13.08,0,0,1-6.49-11.63c0-8.37,5.68-12,5.68-12S6.93,43.07,23.23,22.38C36,6.21,61.09,13.75,64.72,33.78Z"/><path class="cls-1" d="M33.79,136S7.18,357,53.35,378.67a76.56,76.56,0,0,0,49.27,4.13S83.18,367,76.79,351.07c-3.34-8.31-7.41-17.53-10.28-42.83-7.24-63.82-9-172.21-9-172.21Z"/><path class="cls-1" d="M140.51,33.78V136h38.74s2.25-18-7.53-24.46c0,0,7.75-3.2,7.75-11.82A17.3,17.3,0,0,0,173,86.44a13.08,13.08,0,0,0,6.49-11.63c0-8.37-5.68-12-5.68-12S198.3,43.07,182,22.38C169.27,6.21,144.14,13.75,140.51,33.78Z"/><path class="cls-1" d="M171.44,136s26.61,221-19.56,242.64a76.54,76.54,0,0,1-49.26,4.13s19.43-15.84,25.82-31.73c3.34-8.31,7.41-17.53,10.28-42.83,7.24-63.82,9-172.21,9-172.21Z"/></svg>