<svg width="30" height="60" viewBox="0 0 30 60" fill="none" xmlns="http://www.w3.org/2000/svg">
<path d="M9.86272 6.93872V21.7811H4.7097C4.7097 21.7811 4.40959 19.1611 5.71072 18.23C5.71072 18.23 4.68056 17.7656 4.68056 16.5143C4.68056 15.263 5.54501 14.5835 5.54501 14.5835C5.54501 14.5835 4.68056 14.1118 4.68056 12.8972C4.68056 11.6825 5.43529 11.1522 5.43529 11.1522C5.43529 11.1522 2.17461 8.29027 4.34242 5.2866C6.03547 2.93547 9.37901 4.03038 9.86272 6.93872Z" fill="#233565"/>
<path d="M5.74872 21.7808C5.74872 21.7808 2.21033 53.8632 8.35095 57.0011C8.35095 57.0011 11.2824 58.6117 14.9037 57.6024C14.9037 57.6024 12.3193 55.3024 11.4683 52.9954C11.0227 51.7881 10.4829 50.4513 10.1 46.7779C9.13703 37.5152 8.89965 21.7808 8.89965 21.7808H5.74872Z" fill="#233565"/>
<path d="M19.9424 6.93872V21.7811H25.0954C25.0954 21.7811 25.3955 19.1611 24.0943 18.23C24.0943 18.23 25.1245 17.7656 25.1245 16.5143C25.1245 15.263 24.2601 14.5835 24.2601 14.5835C24.2601 14.5835 25.1245 14.1118 25.1245 12.8972C25.1245 11.6825 24.3698 11.1522 24.3698 11.1522C24.3698 11.1522 27.6305 8.29027 25.4627 5.2866C23.7674 2.93547 20.4261 4.03038 19.9424 6.93872Z" fill="#233565"/>
<path d="M24.0564 21.7808C24.0564 21.7808 27.5947 53.8632 21.4541 57.0011C21.4541 57.0011 18.5226 58.6117 14.9014 57.6024C14.9014 57.6024 17.4857 55.3024 18.3367 52.9954C18.7824 51.7881 19.3221 50.4513 19.705 46.7779C20.668 37.5152 20.9054 21.7808 20.9054 21.7808H24.0564Z" fill="#233565"/>
</svg>
