<svg width="80" height="147" viewBox="0 0 80 147" fill="none" xmlns="http://www.w3.org/2000/svg">
<path d="M26.3004 16.9993V53.3631H12.559C12.559 53.3631 11.7587 46.9442 15.2284 44.6629C15.2284 44.6629 12.4813 43.5252 12.4813 40.4594C12.4813 37.3937 14.7865 35.7291 14.7865 35.7291C14.7865 35.7291 12.4813 34.5734 12.4813 31.5975C12.4813 28.6216 14.4939 27.3222 14.4939 27.3222C14.4939 27.3222 5.79875 20.3106 11.5796 12.9516C16.0944 7.19133 25.0105 9.87385 26.3004 16.9993Z" fill="#233565"/>
<path d="M15.33 53.3631C15.33 53.3631 5.8943 131.965 22.2693 139.653C22.2693 139.653 30.0866 143.599 39.7432 141.126C39.7432 141.126 32.8516 135.491 30.5823 129.839C29.3939 126.881 27.9546 123.606 26.9334 114.606C24.3655 91.9124 23.7325 53.3631 23.7325 53.3631H15.33Z" fill="#233565"/>
<path d="M53.1801 16.9993V53.3631H66.9215C66.9215 53.3631 67.7217 46.9442 64.252 44.6629C64.252 44.6629 66.9991 43.5252 66.9991 40.4594C66.9991 37.3937 64.6939 35.7291 64.6939 35.7291C64.6939 35.7291 66.9991 34.5734 66.9991 31.5975C66.9991 28.6216 64.9866 27.3222 64.9866 27.3222C64.9866 27.3222 73.6817 20.3106 67.9009 12.9516C63.3801 7.19133 54.47 9.87385 53.1801 16.9993Z" fill="#233565"/>
<path d="M64.1505 53.3631C64.1505 53.3631 73.5861 131.965 57.2111 139.653C57.2111 139.653 49.3938 143.599 39.7372 141.126C39.7372 141.126 46.6288 135.491 48.8982 129.839C50.0866 126.881 51.5258 123.606 52.547 114.606C55.115 91.9124 55.748 53.3631 55.748 53.3631H64.1505Z" fill="#233565"/>
</svg>
