<svg width="40" height="73" viewBox="0 0 40 73" fill="none" xmlns="http://www.w3.org/2000/svg">
<path d="M13.1502 8.4421V26.5003H6.27951C6.27951 26.5003 5.87939 23.3127 7.61424 22.1798C7.61424 22.1798 6.24069 21.6148 6.24069 20.0924C6.24069 18.5699 7.39328 17.7433 7.39328 17.7433C7.39328 17.7433 6.24069 17.1694 6.24069 15.6915C6.24069 14.2137 7.24696 13.5685 7.24696 13.5685C7.24696 13.5685 2.8994 10.0865 5.78981 6.432C8.0472 3.57147 12.5053 4.9036 13.1502 8.4421Z" fill="#233565"/>
<path d="M7.665 26.5C7.665 26.5 2.94717 65.5334 11.1347 69.3514C11.1347 69.3514 15.0433 71.311 19.8716 70.0829C19.8716 70.0829 16.4258 67.2848 15.2912 64.4778C14.6969 63.0089 13.9773 61.3824 13.4667 56.9132C12.1828 45.6435 11.8663 26.5 11.8663 26.5H7.665Z" fill="#233565"/>
<path d="M26.59 8.4421V26.5003H33.4607C33.4607 26.5003 33.8609 23.3127 32.126 22.1798C32.126 22.1798 33.4996 21.6148 33.4996 20.0924C33.4996 18.5699 32.347 17.7433 32.347 17.7433C32.347 17.7433 33.4996 17.1694 33.4996 15.6915C33.4996 14.2137 32.4933 13.5685 32.4933 13.5685C32.4933 13.5685 36.8408 10.0865 33.9504 6.432C31.6901 3.57147 27.235 4.9036 26.59 8.4421Z" fill="#233565"/>
<path d="M32.0752 26.5C32.0752 26.5 36.793 65.5334 28.6055 69.3514C28.6055 69.3514 24.6969 71.311 19.8686 70.0829C19.8686 70.0829 23.3144 67.2848 24.4491 64.4778C25.0433 63.0089 25.7629 61.3824 26.2735 56.9132C27.5575 45.6435 27.874 26.5 27.874 26.5H32.0752Z" fill="#233565"/>
</svg>
