<svg id="Layer_1" data-name="Layer 1" xmlns="http://www.w3.org/2000/svg" viewBox="0 0 97.98 198.2"><defs><style>.cls-1{fill:#233565;}</style></defs><path class="cls-1" d="M30.73,19.29V68.58H12.05S11,59.88,15.68,56.79a6.37,6.37,0,0,1-3.74-5.7,8.35,8.35,0,0,1,3.13-6.42,6.29,6.29,0,0,1-3.13-5.6,7,7,0,0,1,2.74-5.8s-11.81-9.5-4-19.48C16.86,6,29,9.63,30.73,19.29Z"/><path class="cls-1" d="M15.81,68.58S3,175.12,25.24,185.54a36.91,36.91,0,0,0,23.75,2s-9.37-7.63-12.45-15.29c-1.61-4-3.57-8.46-4.95-20.65-3.49-30.76-4.35-83-4.35-83Z"/><path class="cls-1" d="M67.26,19.29V68.58H85.93S87,59.88,82.3,56.79A6.37,6.37,0,0,0,86,51.09a8.35,8.35,0,0,0-3.13-6.42A6.29,6.29,0,0,0,86,39.07a7,7,0,0,0-2.74-5.8s11.82-9.5,4-19.48C81.12,6,69,9.63,67.26,19.29Z"/><path class="cls-1" d="M82.17,68.58s12.83,106.54-9.43,117a36.91,36.91,0,0,1-23.75,2s9.37-7.63,12.45-15.29c1.61-4,3.57-8.46,5-20.65,3.49-30.76,4.35-83,4.35-83Z"/></svg>