<?xml version="1.0" encoding="utf-8"?>
<!-- Generator: Adobe Illustrator 25.0.0, SVG Export Plug-In . SVG Version: 6.00 Build 0)  -->
<svg version="1.1" id="Layer_1" xmlns="http://www.w3.org/2000/svg" xmlns:xlink="http://www.w3.org/1999/xlink" x="0px" y="0px"
	 viewBox="0 0 133.96 245.5" enable-background="new 0 0 133.96 245.5" xml:space="preserve">
<path fill="#233565" d="M44.04,28.39v60.73H21.03c0,0-1.34-10.72,4.47-14.53c0,0-4.6-1.9-4.6-7.02s3.86-7.9,3.86-7.9
	s-3.86-1.93-3.86-6.9s3.37-7.14,3.37-7.14s-14.56-11.71-4.88-24C26.95,12.01,41.88,16.49,44.04,28.39z"/>
<path fill="#233565" d="M25.67,89.12c0,0-15.8,131.27,11.62,144.11c0,0,13.09,6.59,29.26,2.46c0,0-11.54-9.41-15.34-18.85
	c-1.99-4.94-4.4-10.41-6.11-25.44c-4.3-37.9-5.36-102.28-5.36-102.28H25.67z"/>
<path fill="#233565" d="M89.05,28.39v60.73h23.01c0,0,1.34-10.72-4.47-14.53c0,0,4.6-1.9,4.6-7.02s-3.86-7.9-3.86-7.9
	s3.86-1.93,3.86-6.9s-3.37-7.14-3.37-7.14s14.56-11.71,4.88-24C106.13,12.01,91.21,16.49,89.05,28.39z"/>
<path fill="#233565" d="M107.42,89.12c0,0,15.8,131.27-11.62,144.11c0,0-13.09,6.59-29.26,2.46c0,0,11.54-9.41,15.34-18.85
	c1.99-4.94,4.4-10.41,6.11-25.44c4.3-37.9,5.36-102.28,5.36-102.28H107.42z"/>
</svg>
