<svg id="Layer_1" data-name="Layer 1" xmlns="http://www.w3.org/2000/svg" viewBox="0 0 133.96 245.5"><defs><style>.cls-1{fill:#d86f3a;}</style></defs><path class="cls-1" d="M44,28.39V89.12H21S19.69,78.4,25.5,74.59a7.83,7.83,0,0,1-4.6-7,10.28,10.28,0,0,1,3.85-7.91,7.76,7.76,0,0,1-3.85-6.9,8.58,8.58,0,0,1,3.37-7.15s-14.56-11.7-4.88-24C27,12,41.88,16.49,44,28.39Z"/><path class="cls-1" d="M25.67,89.12S9.86,220.38,37.28,233.23a45.47,45.47,0,0,0,29.26,2.45S55,226.27,51.21,216.83c-2-4.93-4.41-10.41-6.11-25.43-4.3-37.9-5.36-102.28-5.36-102.28Z"/><path class="cls-1" d="M89.05,28.39V89.12h23s1.34-10.72-4.47-14.53a7.83,7.83,0,0,0,4.6-7,10.27,10.27,0,0,0-3.86-7.91,7.76,7.76,0,0,0,3.86-6.9,8.58,8.58,0,0,0-3.37-7.15s14.55-11.7,4.87-24C106.13,12,91.21,16.49,89.05,28.39Z"/><path class="cls-1" d="M107.42,89.12s15.81,131.26-11.61,144.11a45.49,45.49,0,0,1-29.27,2.45s11.54-9.41,15.34-18.85c2-4.93,4.4-10.41,6.11-25.43,4.3-37.9,5.36-102.28,5.36-102.28Z"/></svg>