<svg id="Layer_1" data-name="Layer 1" xmlns="http://www.w3.org/2000/svg" viewBox="0 0 97.98 198.2"><defs><style>.cls-1{fill:#ce433a;}</style></defs><path class="cls-1" d="M30.29,17.64V66.93H11.62s-1.09-8.71,3.62-11.79a6.37,6.37,0,0,1-3.73-5.7A8.35,8.35,0,0,1,14.64,43a6.29,6.29,0,0,1-3.13-5.6,7,7,0,0,1,2.74-5.8s-11.82-9.5-4-19.48C16.42,4.35,28.54,8,30.29,17.64Z"/><path class="cls-1" d="M15.38,66.93s-12.83,106.53,9.43,117a36.91,36.91,0,0,0,23.75,2s-9.37-7.63-12.45-15.3c-1.61-4-3.57-8.45-5-20.64-3.49-30.76-4.35-83-4.35-83Z"/><path class="cls-1" d="M66.82,17.64V66.93H85.49s1.09-8.71-3.62-11.79a6.37,6.37,0,0,0,3.73-5.7A8.35,8.35,0,0,0,82.47,43a6.29,6.29,0,0,0,3.13-5.6,7,7,0,0,0-2.73-5.8s11.81-9.5,3.95-19.48C80.69,4.35,68.57,8,66.82,17.64Z"/><path class="cls-1" d="M81.73,66.93s12.83,106.53-9.42,117a36.93,36.93,0,0,1-23.75,2s9.36-7.63,12.44-15.3c1.62-4,3.58-8.45,5-20.64,3.49-30.76,4.35-83,4.35-83Z"/></svg>