<svg width="85" height="116" viewBox="0 0 85 116" fill="none" xmlns="http://www.w3.org/2000/svg">
<path d="M61.9712 70.4948C62.7754 69.7387 63.6355 69.1114 64.7536 68.9245C65.1686 68.8558 65.5793 68.7613 65.9921 68.6796C67.2723 68.4225 68.4986 67.9473 69.6174 67.2748C71.2924 66.2737 72.1976 64.7336 72.6384 62.8776C72.9352 61.6081 72.8857 60.3278 72.7803 59.0411C72.6642 57.619 72.4815 56.1948 72.6427 54.7642C72.6704 54.449 72.7156 54.1356 72.7782 53.8255C72.8363 53.5655 72.7395 53.514 72.518 53.5505C71.1399 53.734 69.7931 54.1033 68.5143 54.6482C66.949 55.3592 65.5406 56.2872 64.4289 57.6255C63.4458 58.7994 62.8145 60.2268 62.6077 61.7434C62.4561 63.0023 62.4496 64.2744 62.5883 65.5348C62.6699 66.2858 62.5863 67.0455 62.3434 67.7609C62.1005 68.4762 61.7042 69.1299 61.1821 69.6764C60.5779 70.3208 59.892 70.9072 59.2297 71.5065C59.0685 71.6354 58.8982 71.7524 58.7201 71.8567L58.6492 71.8116C58.6567 71.7074 58.6784 71.6048 58.7137 71.5065C58.8921 71.1779 59.0685 70.8492 59.2749 70.5399C59.7049 69.8955 60.1629 69.2639 60.6037 68.6238C61.3305 67.5712 61.5627 66.3855 61.524 65.131C61.4659 63.2449 60.7134 61.6467 59.4856 60.2483C59.3093 60.0464 59.1136 59.8595 58.9502 59.6468C58.7868 59.4342 58.5933 59.4535 58.432 59.6468C58.2019 59.9175 57.9804 60.1946 57.7719 60.4803C57.0881 61.4233 56.4817 62.4136 56.1657 63.5435C55.9108 64.3988 55.8329 65.297 55.9368 66.1833C56.0407 67.0697 56.3241 67.9256 56.7699 68.699C56.9763 69.067 57.172 69.4401 57.3569 69.8181C57.9331 71.0039 57.7869 71.9963 56.858 72.9415C56.5081 73.2964 56.1126 73.6034 55.6819 73.8544C54.4068 74.5955 53.708 74.965 52.4135 75.676C53.4028 75.672 54.3899 75.5821 55.3636 75.4075C56.6753 75.1755 57.7289 74.2969 59.0641 74.0026C59.6826 73.8501 60.3327 73.886 60.9305 74.1058C61.3543 74.256 61.768 74.4332 62.1691 74.6363C64.0311 75.6309 65.8889 75.5514 67.7359 74.6363C69.3916 73.8072 70.7054 72.5741 71.8084 71.1005C71.9461 70.918 71.8816 70.7762 71.7095 70.7096C71.2009 70.4936 70.6812 70.3043 70.1528 70.1425C69.1799 69.8753 68.1751 69.7416 67.1661 69.7451C65.649 69.748 64.1729 70.2383 62.956 71.1435C62.311 71.6139 61.6487 72.0844 60.9993 72.5634C60.5693 72.8835 60.1221 72.9393 59.5393 72.7116C59.5769 72.6511 59.6201 72.5943 59.6684 72.5419C60.4403 71.8588 61.2273 71.1994 61.9712 70.4948Z" fill="#233565"/>
<path d="M43.9439 68.578C44.4951 68.3932 45.0356 68.178 45.563 67.9336C47.7712 66.8058 49.4893 65.1926 50.4827 62.8791C51.196 61.1989 51.4598 59.3624 51.2481 57.5496C51.0896 55.7572 50.5516 54.019 49.6699 52.45C48.0551 49.6317 45.7286 47.5931 42.7892 46.2377C42.5813 46.1363 42.3556 46.0765 42.1248 46.0615C41.8936 46.0767 41.6674 46.1358 41.4582 46.2355C38.5124 47.5888 36.1838 49.6231 34.5625 52.4393C33.6775 54.0071 33.1345 55.7443 32.9692 57.5367C32.7555 59.3489 33.0171 61.1854 33.7282 62.8662C34.7173 65.1818 36.4332 66.7972 38.6393 67.9271C39.1654 68.1728 39.7053 68.388 40.2563 68.5716C40.9099 68.825 43.2773 68.8272 43.9439 68.578ZM44.804 50.9914C44.804 50.9914 48.4873 57.8654 44.804 65.2205C44.804 65.2205 45.2211 61.0145 45.2233 57.8976C45.2254 54.7807 44.8147 50.9914 44.8147 50.9914H44.804ZM38.8909 65.2162C35.2076 57.8611 38.8909 50.9871 38.8909 50.9871C38.8909 50.9871 38.4888 54.7764 38.4888 57.8912C38.4888 61.0059 38.8909 65.2162 38.8909 65.2162Z" fill="#233565"/>
<path d="M38.0781 68.6733C38.0781 68.6733 30.4943 78.1099 28.2839 83.4071C27.441 85.4307 26.4519 88.0191 27.5141 89.9374C28.3206 91.4014 28.6128 93.0933 28.3441 94.7427C27.7571 98.2935 24.7575 100.878 21.9558 103.14C21.8397 100.973 21.725 98.8055 21.6118 96.6373C21.5365 95.1938 21.4613 93.7223 21.8268 92.3261C22.1923 90.9298 23.1427 89.5851 24.4909 89.0631C25.0306 84.3566 26.3465 83.3427 26.611 81.6371C23.5513 81.3879 20.427 83.2933 19.2487 86.1395C18.6337 87.6174 18.5133 89.2758 17.8123 90.715C16.5222 93.3464 13.628 94.7062 10.9424 95.8705L2.12656 99.6919C3.71915 95.2267 5.30385 90.7623 6.88067 86.2985C7.32147 85.0569 7.78161 83.7852 8.6374 82.782C9.49318 81.7789 10.5984 79.7747 13.9635 80.1119C15.5095 80.2666 15.5353 81.2204 17.0877 81.1301C20.313 80.9454 25.1059 80.1119 27.7807 78.3097C28.6688 76.473 36.1235 67.4961 36.1235 67.4961C36.1235 67.4961 36.4891 67.7603 37.0804 68.1276C37.5341 68.4112 38.0781 68.6733 38.0781 68.6733Z" fill="#233565"/>
<path d="M47.395 48.0858C47.395 48.0858 54.8454 38.8167 57.0559 33.5108C57.8987 31.4873 58.8878 28.8989 57.8256 26.9806C57.0191 25.5165 56.7269 23.8247 56.9957 22.1753C57.5827 18.6245 60.5822 16.0403 63.3839 13.7783C63.5 15.945 63.6147 18.1125 63.728 20.2806C63.8054 21.7242 63.8785 23.1956 63.5129 24.5919C63.1474 25.9882 62.197 27.3329 60.8488 27.8549C60.3091 32.5614 58.9932 33.5753 58.7287 35.2809C61.7971 35.5301 64.9192 33.6247 66.0996 30.7849C66.7146 29.307 66.835 27.6487 67.536 26.2094C68.8261 23.5801 71.7203 22.2182 74.4059 21.054L83.2218 17.2325C81.6349 21.6934 80.0488 26.1557 78.4634 30.6195C78.0226 31.8611 77.5624 33.1328 76.7066 34.1359C75.8509 35.1391 74.7456 37.1433 71.3806 36.806C69.8346 36.6514 69.8088 35.6976 68.2563 35.7878C65.031 35.9726 60.2382 36.806 57.5633 38.6105C56.6774 40.4385 49.0549 49.6818 49.0549 49.6818C48.8334 49.3504 48.568 49.0505 48.2658 48.7903C47.8594 48.4445 47.395 48.0858 47.395 48.0858Z" fill="#233565"/>
<path d="M26.7873 21.6142C26.8365 21.6671 26.8804 21.7247 26.9185 21.786C26.3358 22.0137 25.8928 21.9579 25.4585 21.6378C24.8134 21.1588 24.1555 20.6884 23.5018 20.2179C22.2841 19.3127 20.8074 18.8224 19.2895 18.8195C18.2813 18.8161 17.2772 18.9498 16.305 19.2169C15.7768 19.3786 15.2572 19.5672 14.7483 19.7819C14.5763 19.8506 14.5118 19.9967 14.6494 20.175C15.7524 21.6486 17.0641 22.8816 18.7219 23.7107C20.5689 24.6323 22.4267 24.7118 24.2866 23.7107C24.6884 23.5076 25.1028 23.3304 25.5273 23.1802C26.1244 22.9605 26.7738 22.9246 27.3915 23.0771C28.7182 23.3713 29.7826 24.2499 31.0942 24.4819C32.0672 24.6565 33.0536 24.7463 34.0421 24.7504C32.752 24.0394 32.051 23.6764 30.7738 22.9288C30.3442 22.6772 29.9494 22.3702 29.5998 22.0159C28.6666 21.0707 28.5247 20.0826 29.101 18.8925C29.2844 18.5145 29.4801 18.1414 29.688 17.7734C30.1336 17 30.417 16.1441 30.5208 15.2577C30.6247 14.3714 30.5469 13.4732 30.2922 12.6179C29.9804 11.4837 29.3697 10.4977 28.6838 9.55471C28.4688 9.26901 28.2538 8.98976 28.0237 8.72125C27.8624 8.53007 27.6904 8.48925 27.5076 8.72125C27.3249 8.95324 27.1486 9.1208 26.9701 9.32272C25.7423 10.7211 24.9919 12.3301 24.9338 14.2054C24.8951 15.4599 25.1274 16.6456 25.8541 17.6982C26.2949 18.3426 26.7486 18.9677 27.183 19.6143C27.398 19.9215 27.5657 20.2587 27.742 20.581C27.7783 20.679 27.8 20.7817 27.8065 20.886L27.7377 20.9311C27.5592 20.8263 27.3882 20.7093 27.226 20.581C26.568 19.9816 25.8799 19.4038 25.2736 18.7508C24.7512 18.2041 24.3547 17.55 24.1118 16.8343C23.8689 16.1185 23.7855 15.3584 23.8673 14.6071C24.005 13.3466 23.9985 12.0746 23.848 10.8157C23.6403 9.29931 23.0091 7.87213 22.0268 6.69773C20.9216 5.35946 19.5132 4.42933 17.9414 3.72045C16.6626 3.17554 15.3157 2.80628 13.9377 2.62277C13.7226 2.58625 13.6194 2.6378 13.6775 2.89773C13.7392 3.20722 13.7837 3.51989 13.8108 3.8343C13.9721 5.26709 13.7893 6.69129 13.6732 8.11333C13.5678 9.4022 13.5184 10.6803 13.8151 11.9499C14.2451 13.8058 15.1633 15.346 16.8383 16.3449C17.9586 17.0201 19.1872 17.4968 20.47 17.754C20.8828 17.8357 21.2935 17.9302 21.7085 17.9989C22.8288 18.1858 23.6889 18.8109 24.4909 19.5692C25.237 20.2738 26.0176 20.9332 26.7873 21.6142Z" fill="#233565"/>
</svg>
