<svg id="Layer_1" data-name="Layer 1" xmlns="http://www.w3.org/2000/svg" viewBox="0 0 395.31 540.01"><defs><style>.cls-1{fill:#233565;}</style></defs><path class="cls-1" d="M288.21,328.17c3.74-3.52,7.74-6.44,12.94-7.31,1.93-.32,3.84-.76,5.76-1.14a52.94,52.94,0,0,0,16.86-6.54c7.79-4.66,12-11.83,14.05-20.47,1.38-5.91,1.15-11.87.66-17.86-.54-6.62-1.39-13.25-.64-19.91a39.63,39.63,0,0,1,.63-4.37c.27-1.21-.18-1.45-1.21-1.28a71.56,71.56,0,0,0-18.62,5.11c-7.28,3.31-13.83,7.63-19,13.86a37.83,37.83,0,0,0-8.47,19.17,77.18,77.18,0,0,0-.09,17.65,24.15,24.15,0,0,1-6.54,19.28c-2.81,3-6,5.73-9.08,8.52a19.86,19.86,0,0,1-2.37,1.63l-.33-.21a5.35,5.35,0,0,1,.3-1.42c.83-1.53,1.65-3.06,2.61-4.5,2-3,4.13-5.94,6.18-8.92,3.38-4.9,4.46-10.42,4.28-16.26-.27-8.78-3.77-16.22-9.48-22.73-.82-.94-1.73-1.81-2.49-2.8s-1.66-.9-2.41,0c-1.07,1.26-2.1,2.55-3.07,3.88-3.18,4.39-6,9-7.47,14.26a30.6,30.6,0,0,0,2.81,24q1.44,2.57,2.73,5.21c2.68,5.52,2,10.14-2.32,14.54a26.24,26.24,0,0,1-5.47,4.25c-5.93,3.45-9.18,5.17-15.2,8.48a79.49,79.49,0,0,0,13.72-1.25c6.1-1.08,11-5.17,17.21-6.54a14.84,14.84,0,0,1,8.68.48,48.93,48.93,0,0,1,5.76,2.47c8.66,4.63,17.3,4.26,25.89,0,7.7-3.86,13.81-9.6,18.94-16.46.64-.85.34-1.51-.46-1.82a73.85,73.85,0,0,0-7.24-2.64,51.72,51.72,0,0,0-13.89-1.85,32.89,32.89,0,0,0-19.58,6.51c-3,2.19-6.08,4.38-9.1,6.61-2,1.49-4.08,1.75-6.79.69a5.26,5.26,0,0,1,.6-.79C281.09,334.52,284.75,331.45,288.21,328.17Z"/><path class="cls-1" d="M204.37,319.25a73.32,73.32,0,0,0,7.53-3c10.27-5.25,18.26-12.76,22.88-23.53a49,49,0,0,0,3.56-24.81A59.13,59.13,0,0,0,231,244.17c-7.51-13.12-18.33-22.61-32-28.92a8.27,8.27,0,0,0-3.09-.82,8.49,8.49,0,0,0-3.1.81c-13.7,6.3-24.53,15.77-32.07,28.88a59.4,59.4,0,0,0-7.41,23.73,49,49,0,0,0,3.53,24.81c4.6,10.78,12.58,18.3,22.84,23.56a70.22,70.22,0,0,0,7.52,3C190.26,320.4,201.27,320.41,204.37,319.25Zm4-81.87s17.13,32,0,66.24c0,0,1.94-19.58,1.95-34.09S208.42,237.38,208.42,237.38ZM180.87,303.6c-17.13-34.24,0-66.24,0-66.24S179,255,179,269.5,180.87,303.6,180.87,303.6Z"/><path class="cls-1" d="M177.09,319.69s-35.27,43.93-45.55,68.59c-3.92,9.42-8.52,21.47-3.58,30.4a34.8,34.8,0,0,1,3.86,22.37c-2.73,16.53-16.68,28.56-29.71,39.09q-.81-15.13-1.6-30.27c-.35-6.72-.7-13.57,1-20.07s6.12-12.76,12.39-15.19c2.51-21.91,8.63-26.63,9.86-34.57C109.53,378.88,95,387.75,89.52,401c-2.86,6.88-3.42,14.6-6.68,21.3-6,12.25-19.46,18.58-31.95,24l-41,17.79Q21,432.91,32,401.74c2.05-5.78,4.19-11.7,8.17-16.37s9.12-14,24.77-12.43c7.19.72,7.31,5.16,14.53,4.74,15-.86,37.29-4.74,49.73-13.13C133.33,356,168,314.21,168,314.21s1.7,1.23,4.45,2.94C174.56,318.47,177.09,319.69,177.09,319.69Z"/><path class="cls-1" d="M220.42,223.85S255.07,180.7,265.35,156c3.92-9.42,8.52-21.47,3.58-30.4a34.8,34.8,0,0,1-3.86-22.37c2.73-16.53,16.68-28.56,29.71-39.09q.81,15.13,1.6,30.27c.36,6.72.7,13.57-1,20.07s-6.12,12.76-12.39,15.19c-2.51,21.91-8.63,26.63-9.86,34.57,14.27,1.16,28.79-7.71,34.28-20.93,2.86-6.88,3.42-14.6,6.68-21.3,6-12.24,19.46-18.58,31.95-24l41-17.79q-11.07,31.15-22.13,62.32c-2.05,5.78-4.19,11.7-8.17,16.37s-9.12,14-24.77,12.43c-7.19-.72-7.31-5.16-14.53-4.74-15,.86-37.29,4.74-49.73,13.14-4.12,8.51-39.57,51.54-39.57,51.54a20.51,20.51,0,0,0-3.67-4.15C222.58,225.52,220.42,223.85,220.42,223.85Z"/><path class="cls-1" d="M124.58,100.62a5.24,5.24,0,0,1,.61.8c-2.71,1.06-4.77.8-6.79-.69-3-2.23-6.06-4.42-9.1-6.61a32.92,32.92,0,0,0-19.59-6.51,51.7,51.7,0,0,0-13.88,1.85,75.45,75.45,0,0,0-7.24,2.63c-.8.32-1.1,1-.46,1.83,5.13,6.86,11.23,12.6,18.94,16.46,8.59,4.29,17.23,4.66,25.88,0a49.07,49.07,0,0,1,5.77-2.47,14.81,14.81,0,0,1,8.67-.48c6.17,1.37,11.12,5.46,17.22,6.54a79.42,79.42,0,0,0,13.71,1.25c-6-3.31-9.26-5-15.2-8.48a26.45,26.45,0,0,1-5.46-4.25c-4.34-4.4-5-9-2.32-14.54q1.28-2.64,2.73-5.21a30.61,30.61,0,0,0,2.81-24c-1.45-5.28-4.29-9.87-7.48-14.26-1-1.33-2-2.63-3.07-3.88-.75-.89-1.55-1.08-2.4,0s-1.67,1.86-2.5,2.8c-5.71,6.51-9.2,14-9.47,22.73-.18,5.84.9,11.36,4.28,16.26,2.05,3,4.16,5.91,6.18,8.92,1,1.43,1.78,3,2.6,4.5a5,5,0,0,1,.3,1.42l-.32.21a20.82,20.82,0,0,1-2.38-1.63c-3.06-2.79-6.26-5.48-9.08-8.52A24.15,24.15,0,0,1,111,68a77.75,77.75,0,0,0-.09-17.65,37.91,37.91,0,0,0-8.47-19.17c-5.14-6.23-11.69-10.56-19-13.86a71.56,71.56,0,0,0-18.62-5.11c-1-.17-1.48.07-1.21,1.28a39.78,39.78,0,0,1,.62,4.36c.75,6.67-.1,13.3-.64,19.92-.49,6-.72,11.95.66,17.86,2,8.64,6.27,15.81,14.06,20.46A52.82,52.82,0,0,0,95.2,82.65c1.92.38,3.83.82,5.76,1.14,5.21.87,9.21,3.78,12.94,7.31C117.37,94.38,121,97.45,124.58,100.62Z"/></svg>