<svg id="badan" xmlns="http://www.w3.org/2000/svg" viewBox="0 0 371.66 471.35"><defs><style>.cls-1{fill:#83516a;stroke:#010101;stroke-miterlimit:10;}</style></defs><path class="cls-1" d="M150.4,33.32a22.34,22.34,0,0,0,2.21,8.29c1.44.34.16.62,1.62.88,10.09,1.76,21.34,2.2,31.62,2.2s21.52-.44,31.62-2.2c1.79-.32.76-.66,2.52-1.11a31.41,31.41,0,0,0,1.21-8.06c-13.18,1-20.88,2.31-35.35,2.31S163.59,34.29,150.4,33.32Z"/><path class="cls-1" d="M221.28,33.32a142,142,0,0,1-17,10.86c-8.34,4.26-13.13,4.45-16.16,6.54-2.28,1.58-.49,11.08-.49,11.08a188.48,188.48,0,0,0,21.63-8.48c9-4.44,20-12.39,20-12.39Z"/><path class="cls-1" d="M150.41,33.32a142,142,0,0,0,17,10.86c8.34,4.26,13.13,4.45,16.16,6.54,2.28,1.58.48,11.08.48,11.08a188.66,188.66,0,0,1-21.62-8.48c-9-4.44-20-12.39-20-12.39Z"/></svg>