<svg id="Layer_1" data-name="Layer 1" xmlns="http://www.w3.org/2000/svg" viewBox="0 0 595.28 566.93"><defs><style>.cls-1{fill:#aa5c9d;}</style></defs><path class="cls-1" d="M155.31,481.9c-19.85,4.54-38.62,10.51-55.89,20.25C91.31,506.72,84,512.66,76.29,518c-.84.59-1.54,1.37-2.36,2-2.15,1.67-3.35,1.22-3.71-1.53a24.44,24.44,0,0,1-.09-5.06A94,94,0,0,1,91,461c8.83-10.92,20.5-17.12,34.25-19.14,23.12-3.4,45.29.38,66.58,9.79,5.68,2.51,11.37,5,17.46,7-4.94-4.52-9.87-9.07-14.83-13.57-14.24-12.9-30.68-22.4-47.77-30.87-24.9-12.35-45.93-29.65-63.9-50.67-9.49-11.1-18.16-22.92-27.39-34.25-3-3.62-6.56-6.7-9.78-10.11a13.48,13.48,0,0,1-1.59-2.72,12.55,12.55,0,0,1,2.75-.88C67.23,314.06,86,319.17,103.19,330c7.17,4.51,14.2,9.24,21.36,13.91-2.28-4.13-4.46-8.53-7-12.66A422.43,422.43,0,0,0,69.17,267.5c-5.65-6.08-12.41-11.14-18.67-16.65a13.93,13.93,0,0,1-2-1.54c-.65-.83-1.51-1.93-1.37-2.77.1-.62,1.61-1.34,2.55-1.44A82.92,82.92,0,0,1,84.86,249c25.12,8.4,43.49,25.15,56.85,47.39,6.46,10.76,11.18,22.58,16.68,33.93a3.26,3.26,0,0,0,1.25,1.6c-.19-1-.36-2-.58-3-2.35-10.67-4.32-21.45-7.15-32a137.86,137.86,0,0,0-29-54.27c-4.14-4.83-8.76-9.24-13.08-13.91a8.13,8.13,0,0,1-1.07-2.55,6.78,6.78,0,0,1,2.54-.32c42.34,12.25,73.77,38,93.41,77.35,7.34,14.7,9.77,30.91,9.19,47.51-.53,15.41-4.94,30-8.24,44.87-4.91,22.16-1.05,42.37,16.09,58.57,8.52,8.05,17.51,15.6,26.14,23.53a139.46,139.46,0,0,1,27.54,35c.94,1.67,3.33,4,1,5.67s-3.49-1.38-4.73-2.72a105.92,105.92,0,0,0-49.18-30.69c-10.07-2.95-20.14-2.91-30,1.3a23.69,23.69,0,0,0-10.71,8.35,12.5,12.5,0,0,0,.67,14.67c3.36,4.26,8,5.46,13.33,3.67a20.53,20.53,0,0,1,4.4-.5c-.62,1.43-.91,3.17-1.92,4.24-14.17,15.07-36.68,14.47-49.15-4.51-5.68-8.66-3.71-20.87,3.81-28.14C153.61,483.44,154.23,482.89,155.31,481.9Zm18.17-77.19.92-.43c-.12-.53-.19-1.08-.36-1.6-2.55-7.42-5.17-14.81-7.66-22.25-9.31-27.9-21.59-54.22-40.76-76.89-1.92-2.28-4-4.44-6-6.66,1.79,3.64,4,6.85,6,10.25,10.87,19.12,20.47,38.86,29.5,58.91C161,379.05,167.35,391.83,173.48,404.71Zm2.16-104.4c.39,4.46.68,8.93,1.17,13.39.95,8.55,2.31,17.07,2.94,25.65,1,14,1.49,28.07,2.42,42.09.38,5.61,1.38,11.17,2.09,16.76l1.17-.13C187.07,365,187.27,332.14,175.64,300.31ZM96.35,349.08c21,19.7,43.34,37.93,65.34,56.53C144.39,381.59,121.83,363.65,96.35,349.08ZM174.47,467.5c-16.1-10.14-54.46-3.57-68.94,11.85C127.72,470,150.71,467.18,174.47,467.5Z"/><path class="cls-1" d="M436.14,332.77c2.29-5.29,4.6-10.57,6.85-15.87,8.8-20.77,21.55-38.67,39.57-52.35,18.31-13.9,38.89-21.47,62.26-19.73a14.46,14.46,0,0,1,3.66,1.3c-.66,1.15-1.07,2.64-2,3.39C538,256.09,529.79,263,523,271.32q-14.12,17.15-27.61,34.79c-6.12,8-11.84,16.4-17.4,24.85a70.47,70.47,0,0,0-6.46,13.45c2.36-1.86,4.65-3.82,7.1-5.56,14.51-10.31,29.68-19.46,47.63-22.15,7.63-1.15,15.49-.77,23.25-1a2.94,2.94,0,0,1,1.83.83,4.91,4.91,0,0,1-1,2.38c-6.22,7-12.67,13.82-18.7,21-5.84,7-11,14.49-16.91,21.4-20.51,24-44.29,43.8-73.37,56.88-20.63,9.27-37.85,23.4-53.75,39.25-.46.46-.87,1-1.3,1.47,0,0,.05.13,0,.07,7.77-3.36,15.45-6.94,23.33-10a121.1,121.1,0,0,1,49.81-8.1c19,.78,35.28,7.59,47.25,23.23a95.5,95.5,0,0,1,14.55,28.3c2.68,8,4.35,16.28,3.95,24.82a37.28,37.28,0,0,1-.85,4.41C500,499.86,471.48,488.88,441,482.27l-.86,1a10.63,10.63,0,0,1,2.41,1.35c7.69,7.41,9.16,20.61,2.65,29.09-13.85,18-35.77,17.59-49.44,2.23a36.32,36.32,0,0,1-2.31-3.48,17.08,17.08,0,0,1,3.64-.26c1.65.27,3.22,1,4.86,1.25a11.14,11.14,0,0,0,11.74-5.92c2.61-4.85,2.18-9.84-1.36-13.86-5.5-6.23-12.74-9-20.72-10.19-12.37-1.79-23.4,2.42-34.21,7.7A108.6,108.6,0,0,0,325,515a19.43,19.43,0,0,1-3,2.91,8,8,0,0,1-2.67.63c-.13-.95-.68-2.11-.32-2.8,1.86-3.67,3.79-7.33,6-10.79,9.61-15,22.1-27.36,35.92-38.52,8.7-7,16.85-14.7,22.56-24.52,6.93-11.91,9.7-24.76,7.27-38.37-2.17-12.22-5.14-24.3-7.44-36.5-6.13-32.46,1.42-61.66,21.51-87.72,15.87-20.59,35.24-36.79,59.44-46.74,6.2-2.56,12.66-4.48,19-6.57,1-.32,2.22,0,3.34.07-.51,1.08-.76,2.42-1.55,3.2-14.48,14.21-25.76,30.7-34.73,48.81-6.61,13.37-9.63,27.84-12.43,42.36-.77,4-1.51,8.05-2.26,12.07Zm42.67-37.15c-1,.84-1.51,1.19-1.93,1.61A167.94,167.94,0,0,0,453.47,327c-12.3,19.93-20.92,41.53-28.57,63.55-1.75,5-3.4,10.13-5.09,15.19a2.11,2.11,0,0,0,1.4-1.13c4.11-8,8.41-15.87,12.26-24,12.06-25.34,23.89-50.79,38.17-75C473.59,302.35,476.12,299.37,478.81,295.62ZM410,397.89c4.13-16,3.42-32.36,4.73-48.55s3.26-32.44,4.93-48.66l-.92-.08C408,332.31,408,365,410,397.89Zm23.29,7.92c9.93-6.54,63.75-53.25,65.59-56.93C478.65,358.83,440.07,392.31,433.25,405.81Zm57.43,73.59c-10-9-26.45-16-40.43-16.66A84.37,84.37,0,0,0,419.78,467c12.05.88,24,1.35,35.81,2.72S478.85,474.73,490.68,479.4Z"/><path class="cls-1" d="M187.5,208.3c-.37-12.38,3.66-23.21,11.17-32.86a30,30,0,0,1,2.53-2.64c1.79-1.8,3.48-1.76,5.32.08,9.3,9.34,15.12,20.46,15.29,33.68.11,8.56-1.17,17.18-2.33,25.7-1.74,12.72-2.25,25.35.54,38a37.32,37.32,0,0,1,.69,7.24c0,.77-.79,1.56-1.23,2.33-.73-.46-1.84-.76-2.14-1.42-7.46-16.17-19.41-29.9-25.46-46.81A78,78,0,0,1,188.59,220C187.87,216.19,187.84,212.21,187.5,208.3Z"/><path class="cls-1" d="M407.83,212.53c-.3,9.92-4.25,20.52-9.82,30.5-5.11,9.16-10.75,18-16.11,27.06-1.33,2.25-2.38,4.68-3.73,6.92a13.1,13.1,0,0,1-2.38,2.32c-.33-1.22-1.07-2.49-.92-3.65.43-3.43,1.18-6.82,1.86-10.21,1.83-9.28.6-18.49-.39-27.74s-2.48-18.46-2.32-27.67c.27-15.13,7.05-27.72,17.73-38.3,1.81-1.8,2.81-1.32,4.11.54C404.18,184.13,407.93,196.05,407.83,212.53Z"/></svg>