<svg width="70" height="94" viewBox="0 0 70 94" fill="none" xmlns="http://www.w3.org/2000/svg">
<path d="M61.062 85.7352C60.7625 87.008 60.4621 88.2818 60.1607 89.5565C60.0216 90.1351 59.8158 90.2537 59.3173 89.9326C55.4743 87.4622 51.1299 86.4179 46.742 85.4778C42.0745 84.5071 37.3044 84.1185 32.5409 84.3207C28.5224 84.4917 24.532 85.0733 20.6323 86.0563C17.8935 86.7216 15.175 87.4477 12.6361 88.7176C11.9611 89.0581 11.3138 89.4508 10.7002 89.8921C10.3089 90.1814 10.0249 90.1496 9.90315 89.6202C9.61526 88.3647 9.32544 87.1112 9.03369 85.8596C9.24816 85.3042 9.71477 84.9686 10.1611 84.6302C12.1576 83.161 14.3714 82.0113 16.7226 81.2225C20.4253 79.9537 24.2665 79.1302 28.1646 78.7695C30.9481 78.4591 33.749 78.3335 36.5491 78.3934C42.9454 78.5814 49.2287 79.4493 55.2135 81.8647C57.0604 82.6346 58.7955 83.6484 60.3722 84.879C60.6768 85.0955 60.9155 85.3918 61.062 85.7352Z" fill="#CE433A"/>
<path d="M67.6872 65.7061C68.209 63.1603 68.4779 60.5694 68.49 57.9709C68.4902 55.4249 68.2309 52.8855 67.7162 50.3919C67.5916 49.7757 67.322 49.1625 67.4438 48.5058C66.797 45.6813 65.9088 42.9172 64.789 40.2441C60.862 30.7559 55.0047 22.5636 48.0259 15.1061C44.2582 11.0707 40.0414 7.52418 35.6767 4.14834C35.1782 3.76071 34.8768 3.83882 34.4421 4.16859C31.2539 6.56938 28.2059 9.15006 25.3128 11.898C22.1467 14.8975 19.2077 18.1269 16.5197 21.5598C12.1956 27.1081 8.36705 32.9515 5.59348 39.4428C3.40907 44.4443 2.06469 49.7708 1.61427 55.2083C1.40643 58.1484 1.52403 61.1024 1.96495 64.0167C2.58094 68.212 3.79299 72.2981 5.5645 76.1518C6.49772 78.2115 8.1236 79.9645 8.35256 82.3394C8.69165 82.3394 8.90901 82.1196 9.14087 81.9316C10.3315 80.9847 11.6471 80.206 13.0505 79.6174C16.4109 78.1868 19.9299 77.1604 23.5333 76.5597C26.2444 76.0543 28.9883 75.743 31.7439 75.6283C31.9757 75.6283 32.3467 75.7498 32.3641 75.2927C32.3293 75.2753 32.2974 75.2927 32.2713 75.2609C32.3554 75.2753 32.2539 75.2377 32.3351 75.2609C32.5595 75.3425 32.7979 75.3789 33.0364 75.3679C35.9124 75.3003 38.7899 75.3921 41.6557 75.6427C42.3405 75.6644 43.0209 75.7614 43.6844 75.932C43.8554 76.1432 44.1075 76.1316 44.3394 76.1634C47.3575 76.5704 50.3377 77.2195 53.2513 78.1044C56.1089 78.9925 58.8622 80.0918 61.2098 82.0126C61.3576 82.1341 61.4996 82.3018 61.7256 82.2093C61.9372 81.5381 61.8966 80.8034 62.2763 80.167C64.8729 75.9045 66.7068 71.2237 67.6959 66.3338C67.6414 66.1285 67.6384 65.9129 67.6872 65.7061ZM39.6009 65.8363C37.7663 67.5719 36.1462 69.4783 35.0391 71.8445C33.7929 68.8476 31.512 66.7678 29.1616 64.7284C26.9503 62.8047 25.3562 60.4847 24.8896 57.5138C24.8896 57.4733 24.8578 57.4328 24.8491 57.3895C24.594 56.1456 24.8491 55.9257 26.1011 56.1224C28.3559 56.4782 30.0832 57.7192 31.6366 59.2784C31.8986 59.5893 32.1793 59.8839 32.4771 60.1607C32.7669 59.5995 32.5438 59.1627 32.4278 58.7317C31.8946 56.7559 31.1758 54.8265 30.8831 52.79C30.0832 47.2648 30.9555 42.0694 34.0711 37.3542C35.0159 35.9252 35.0971 35.957 36.0564 37.3861C37.8437 40.1009 38.9574 43.2017 39.3052 46.4317C39.7603 50.1489 39.2299 53.7504 38.0474 57.2824C37.7953 58.0374 37.633 58.8243 37.4359 59.5966C37.4011 59.7326 37.2562 59.8859 37.4359 60.0016C37.6156 60.1173 37.7257 59.9582 37.8417 59.8685C38.1894 59.5793 38.5343 59.29 38.8531 58.9544C40.2645 57.5081 41.8759 56.4406 43.9163 56.1253C44.0003 56.1253 44.0844 56.0877 44.1713 56.0761C45.119 55.9575 45.4552 56.2671 45.2581 57.1899C44.8466 59.128 44.1568 60.9504 42.9135 62.5328C41.9426 63.768 40.7369 64.7631 39.6009 65.8363ZM64.3804 59.0644C64.3247 61.8292 63.9582 64.5792 63.2878 67.2624C63.1927 67.617 63.1277 67.9789 63.0936 68.3443C63.1159 68.5966 63.039 68.8477 62.8791 69.0444C62.1778 71.0693 61.4851 73.0942 60.5113 75.0237C60.2678 75.5097 60.0505 75.6283 59.5259 75.3621C55.396 73.2562 50.9647 72.209 46.3855 71.6623C44.9799 71.4974 43.5743 71.3267 42.0237 71.2428C43.1157 70.5605 44.1378 69.7728 45.0755 68.891C47.4318 66.6463 48.8635 63.9734 49.0982 60.6698C49.1819 59.418 49.1916 58.1623 49.1272 56.9093C49.0374 55 49.3301 53.1487 50.3444 51.4969C50.4295 51.2315 50.5742 50.9891 50.7676 50.7882C51.1414 50.3051 51.1038 50.1749 50.4923 50.0187C49.5832 49.828 48.6483 49.7928 47.7274 49.9146C46.6462 49.9852 45.5899 50.2704 44.6205 50.7535C44.4679 50.8356 44.2982 50.8811 44.1249 50.8865L42.8932 51.5432C43.183 51.0428 43.4004 50.6378 43.6409 50.2444C44.8958 48.1992 45.09 45.9746 44.7075 43.6749C44.0872 40.0069 42.3281 36.8104 40.4037 33.7036C39.0273 31.4522 37.5125 29.2882 35.868 27.2238C35.2014 26.3994 35.0681 26.356 34.3986 27.1862C31.3932 30.8629 28.6921 34.7421 26.7735 39.1015C26.766 39.1436 26.766 39.1866 26.7735 39.2288C26.4112 40.3309 25.904 41.3867 25.6895 42.541C25.2316 44.7857 24.9244 47.0131 26.0257 49.1769C26.1054 49.3312 26.1499 49.5011 26.1561 49.6745C26.446 50.253 26.7358 50.8489 27.0836 51.5287C25.9852 50.8952 25.0143 50.2472 23.8521 50.0245C22.4581 49.8035 21.0439 49.7366 19.6352 49.8249C19.5046 49.8095 19.3723 49.8315 19.2537 49.8883C19.1352 49.9452 19.0353 50.0346 18.9657 50.146C18.8382 50.4353 19.0498 50.6146 19.2266 50.8171C20.5105 52.2953 20.9365 54.0772 21.0177 55.9691C21.0814 57.4618 20.8959 58.9458 21.0177 60.4471C21.3075 64.3841 23.0464 67.4794 26.1503 69.863C26.73 70.3056 27.3357 70.7077 28.0226 71.1937C27.1531 71.2689 26.3764 71.3296 25.5968 71.4048C20.3801 71.9197 15.3256 73.0335 10.6016 75.3766C10.0828 75.634 9.81615 75.5299 9.5727 75.0873C9.06262 74.3815 8.82207 73.5455 8.48008 72.7731C7.54123 70.5613 6.83605 68.2578 6.37599 65.8999C6.21686 65.3223 6.13787 64.7257 6.14124 64.1267C5.72399 61.4694 5.60829 58.7737 5.79636 56.0906C6.11466 52.1486 6.95973 48.2669 8.30909 44.5485C10.903 37.2067 14.8474 30.6402 19.6468 24.5336C23.3681 19.8039 27.8226 15.8264 32.2568 11.7997C33.0422 11.0852 33.8711 10.414 34.642 9.68507C34.9753 9.36976 35.1782 9.43051 35.4825 9.69953C37.6765 11.6348 39.8559 13.5961 41.9919 15.5921C44.222 17.6223 46.3371 19.7749 48.3273 22.04C53.1644 27.7098 57.2653 33.8511 60.3432 40.652C60.3997 40.7644 60.4626 40.8736 60.5316 40.9789C61.1663 42.0492 61.5431 43.2294 61.9604 44.3865C62.8756 46.8846 63.5548 49.4627 63.9891 52.087C64.2379 53.3597 64.3698 54.6523 64.3833 55.9489C64.3572 56.9874 64.4036 58.0259 64.3804 59.0644Z" fill="#CE433A"/>
</svg>
