<svg id="Layer_1" data-name="Layer 1" xmlns="http://www.w3.org/2000/svg" viewBox="0 0 223.89 324.95"><defs><style>.cls-1{fill:#80cce8;}</style></defs><path class="cls-1" d="M201.87,296.38q-1.55,6.6-3.11,13.21c-.48,2-1.19,2.41-2.91,1.3-13.26-8.54-28.25-12.15-43.39-15.4a198.82,198.82,0,0,0-49-4,203.16,203.16,0,0,0-41.09,6c-9.45,2.3-18.83,4.81-27.59,9.2a50,50,0,0,0-6.68,4.06c-1.35,1-2.33.89-2.75-.94q-1.48-6.51-3-13c.74-1.92,2.35-3.08,3.89-4.25a82.38,82.38,0,0,1,22.64-11.79,169.89,169.89,0,0,1,39.48-8.48A218.45,218.45,0,0,1,117.29,271c22.07.65,43.75,3.65,64.4,12a77.18,77.18,0,0,1,17.8,10.42A7,7,0,0,1,201.87,296.38Z"/><path class="cls-1" d="M224.73,227.14a136.58,136.58,0,0,0,2.77-26.74,129.78,129.78,0,0,0-2.67-26.2c-.43-2.13-1.36-4.25-.94-6.52a175.27,175.27,0,0,0-9.16-28.56C201.22,106.32,181,78,156.89,52.22c-13-13.95-27.55-26.21-42.61-37.88-1.72-1.34-2.76-1.07-4.26.07a361.68,361.68,0,0,0-31.5,26.72,305,305,0,0,0-30.34,33.4c-14.92,19.18-28.13,39.38-37.7,61.82a171.81,171.81,0,0,0-13.73,54.5A138.6,138.6,0,0,0-2,221.3a154.22,154.22,0,0,0,12.42,41.95c3.22,7.12,8.83,13.18,9.62,21.39,1.17,0,1.92-.76,2.72-1.41a57.23,57.23,0,0,1,13.49-8,158.92,158.92,0,0,1,36.17-10.54,199.59,199.59,0,0,1,28.33-3.22c.8,0,2.08.42,2.14-1.16-.12-.06-.23,0-.32-.11.29.05-.06-.08.22,0a6.23,6.23,0,0,0,2.42.37,268.33,268.33,0,0,1,29.74.95,32.14,32.14,0,0,1,7,1c.59.73,1.46.69,2.26.8A195.59,195.59,0,0,1,174.92,270c9.86,3.07,19.36,6.87,27.46,13.51.51.42,1,1,1.78.68.73-2.32.59-4.86,1.9-7.06a148.68,148.68,0,0,0,18.7-47.82A4.59,4.59,0,0,1,224.73,227.14Zm-96.91.45c-6.33,6-11.92,12.59-15.74,20.77-4.3-10.36-12.17-17.55-20.27-24.6-7.64-6.65-13.14-14.67-14.75-24.94,0-.14-.11-.28-.14-.43-.88-4.3,0-5.06,4.32-4.38,7.78,1.23,13.74,5.52,19.1,10.91a33.33,33.33,0,0,0,2.91,3.05c1-1.94.22-3.45-.18-4.94-1.84-6.83-4.32-13.5-5.33-20.54-2.76-19.1.25-37.06,11-53.36,3.26-4.94,3.54-4.83,6.85.11a70.7,70.7,0,0,1,11.21,31.27c1.57,12.85-.26,25.3-4.34,37.51-.87,2.61-1.43,5.33-2.11,8-.12.47-.62,1,0,1.4s1-.15,1.4-.46c1.2-1,2.39-2,3.49-3.16,4.87-5,10.43-8.69,17.47-9.78.29,0,.58-.13.88-.17,3.27-.41,4.43.66,3.75,3.85-1.42,6.7-3.8,13-8.09,18.47C135.9,220.44,131.74,223.88,127.82,227.59Zm85.5-23.41a127.73,127.73,0,0,1-3.77,28.34,21.54,21.54,0,0,0-.66,3.74,3.42,3.42,0,0,1-.75,2.42c-2.42,7-4.81,14-8.17,20.67-.84,1.68-1.59,2.09-3.4,1.17-14.25-7.28-29.54-10.9-45.34-12.79-4.85-.57-9.7-1.16-15-1.45a67.44,67.44,0,0,0,10.53-8.13c8.13-7.76,13.07-17,13.88-28.42a110.41,110.41,0,0,0,.1-13c-.31-6.6.7-13,4.2-18.71a6.31,6.31,0,0,1,1.46-2.45c1.29-1.67,1.16-2.12-.95-2.66a28.31,28.31,0,0,0-9.54-.36,28.11,28.11,0,0,0-10.72,2.9,3.86,3.86,0,0,1-1.71.46l-4.27,2.26c1-1.73,1.75-3.13,2.58-4.49,4.33-7.07,5-14.76,3.68-22.71-2.14-12.68-8.21-23.73-14.85-34.47a220.68,220.68,0,0,0-15.65-22.4c-2.3-2.85-2.76-3-5.07-.13C99.5,106.69,90.22,120.1,83.56,135.17a1.56,1.56,0,0,0,0,.44c-1.25,3.81-3,7.46-3.74,11.45C78.24,154.82,77.2,162.52,81,170a4.07,4.07,0,0,1,.45,1.72c1,2,2,4.06,3.2,6.41-3.79-2.19-7.14-4.43-11.15-5.2a66.26,66.26,0,0,0-14.55-.69,2.39,2.39,0,0,0-2.31,1.11c-.44,1,.29,1.62.9,2.32,4.43,5.11,5.9,11.27,6.18,17.81.22,5.16-.42,10.29-.05,15.48,1,13.61,7,24.31,17.72,32.55,2,1.53,4.08,2.92,6.45,4.6-3,.26-5.68.47-8.37.73-18,1.78-35.44,5.63-51.74,13.73-1.79.89-2.71.53-3.55-1-1.76-2.44-2.59-5.33-3.77-8a119.43,119.43,0,0,1-7.21-23.7,22.64,22.64,0,0,1-.81-6.13,123.67,123.67,0,0,1-1.16-27.78A153.33,153.33,0,0,1,19.85,154c9-25.38,22.56-48.08,39.12-69.19,12.84-16.37,28.24-30.12,43.51-44,2.71-2.47,5.57-4.79,8.23-7.31,1.15-1.09,1.85-.88,2.9.05C121.19,40.22,128.7,47,136.07,53.9a278.66,278.66,0,0,1,21.86,22.29c16.7,19.6,30.84,40.83,41.46,64.34a11.42,11.42,0,0,0,.65,1.13c2.19,3.7,3.49,7.78,4.93,11.78a147.51,147.51,0,0,1,7,26.62,73.72,73.72,0,0,1,1.36,13.35C213.24,197,213.4,200.59,213.32,204.18Z"/></svg>