<svg width="50" height="67" viewBox="0 0 50 67" fill="none" xmlns="http://www.w3.org/2000/svg">
<path d="M43.6157 61.1091C43.4018 62.0163 43.1872 62.9242 42.9719 63.8328C42.8725 64.2451 42.7256 64.3297 42.3695 64.1008C39.6245 62.34 36.5214 61.5956 33.3872 60.9255C30.0532 60.2337 26.646 59.9567 23.2435 60.1008C20.3731 60.2227 17.5229 60.6373 14.7373 61.3379C12.781 61.8121 10.8393 62.3297 9.02582 63.2348C8.54364 63.4775 8.08127 63.7574 7.64296 64.0719C7.3635 64.2781 7.16062 64.2554 7.07368 63.8781C6.86804 62.9833 6.66103 62.0898 6.45264 61.1977C6.60583 60.8018 6.93912 60.5627 7.25792 60.3214C8.68402 59.2742 10.2653 58.4548 11.9447 57.8926C14.5895 56.9882 17.3332 56.4012 20.1176 56.1441C22.1058 55.9229 24.1065 55.8334 26.1065 55.8761C30.6753 56.0101 35.1634 56.6286 39.4382 58.3503C40.7574 58.899 41.9968 59.6216 43.123 60.4987C43.3406 60.6531 43.5111 60.8643 43.6157 61.1091Z" fill="#9AC552"/>
<path d="M48.348 46.8332C48.7207 45.0187 48.9128 43.1719 48.9215 41.3198C48.9216 39.5051 48.7364 37.6951 48.3687 35.9177C48.2797 35.4786 48.0872 35.0414 48.1741 34.5734C47.7122 32.5602 47.0777 30.5901 46.2779 28.6847C43.4729 21.9219 39.2891 16.0827 34.3042 10.7672C31.6131 7.89094 28.601 5.3631 25.4834 2.95692C25.1273 2.68063 24.912 2.7363 24.6015 2.97135C22.3243 4.68255 20.1471 6.52197 18.0806 8.48063C15.8191 10.6186 13.7198 12.9204 11.7998 15.3672C8.71113 19.3219 5.97648 23.4868 3.99536 28.1136C2.43507 31.6785 1.47479 35.475 1.15306 39.3507C1.00461 41.4463 1.08861 43.5518 1.40355 45.6291C1.84355 48.6193 2.70929 51.5317 3.97466 54.2786C4.64124 55.7466 5.80259 56.9961 5.96613 58.6889C6.20834 58.6889 6.3636 58.5322 6.52921 58.3982C7.37967 57.7233 8.31936 57.1682 9.32182 56.7487C11.7221 55.729 14.2357 54.9974 16.8095 54.5693C18.746 54.209 20.7059 53.9871 22.6742 53.9054C22.8398 53.9054 23.1048 53.992 23.1172 53.6662C23.0924 53.6538 23.0696 53.6662 23.051 53.6435C23.111 53.6538 23.0385 53.627 23.0965 53.6435C23.2568 53.7017 23.4271 53.7276 23.5975 53.7198C25.6517 53.6716 27.7071 53.737 29.7541 53.9157C30.2432 53.9311 30.7292 54.0003 31.2032 54.1219C31.3253 54.2724 31.5054 54.2641 31.671 54.2868C33.8268 54.5769 35.9556 55.0396 38.0367 55.6703C40.0778 56.3033 42.0445 57.0868 43.7213 58.4559C43.8269 58.5425 43.9283 58.6621 44.0898 58.5961C44.2409 58.1177 44.2119 57.594 44.4831 57.1404C46.3378 54.1023 47.6477 50.766 48.3542 47.2806C48.3153 47.1343 48.3132 46.9806 48.348 46.8332ZM28.2863 46.926C26.9759 48.1631 25.8187 49.5219 25.0279 51.2085C24.1378 49.0724 22.5086 47.5899 20.8297 46.1363C19.2502 44.7652 18.1116 43.1116 17.7783 40.994C17.7783 40.9652 17.7556 40.9363 17.7493 40.9054C17.5672 40.0188 17.7493 39.8621 18.6436 40.0023C20.2542 40.2559 21.488 41.1404 22.5976 42.2518C22.7847 42.4733 22.9852 42.6833 23.1979 42.8806C23.405 42.4806 23.2456 42.1693 23.1628 41.8621C22.7818 40.4538 22.2685 39.0786 22.0594 37.627C21.488 33.6889 22.1111 29.9858 24.3365 26.625C25.0114 25.6064 25.0693 25.6291 25.7546 26.6476C27.0312 28.5827 27.8267 30.7929 28.0752 33.0951C28.4002 35.7445 28.0214 38.3116 27.1767 40.8291C26.9966 41.3672 26.8807 41.928 26.7399 42.4786C26.7151 42.5755 26.6116 42.6847 26.7399 42.7672C26.8683 42.8497 26.947 42.7363 27.0298 42.6724C27.2782 42.4662 27.5245 42.26 27.7522 42.0208C28.7604 40.9899 29.9114 40.2291 31.3688 40.0043C31.4288 40.0043 31.4888 39.9775 31.5509 39.9693C32.2279 39.8848 32.468 40.1054 32.3272 40.7631C32.0333 42.1445 31.5406 43.4435 30.6525 44.5713C29.959 45.4518 29.0978 46.161 28.2863 46.926ZM45.986 42.0992C45.9462 44.0699 45.6844 46.0299 45.2056 47.9425C45.1376 48.1952 45.0912 48.4531 45.0669 48.7136C45.0828 48.8934 45.0279 49.0724 44.9137 49.2126C44.4127 50.6559 43.9179 52.0992 43.2224 53.4744C43.0485 53.8208 42.8932 53.9054 42.5185 53.7157C39.5686 52.2146 36.4033 51.4683 33.1325 51.0786C32.1285 50.961 31.1245 50.8394 30.017 50.7796C30.7969 50.2932 31.527 49.7318 32.1968 49.1033C33.8798 47.5033 34.9025 45.5982 35.0702 43.2435C35.1299 42.3512 35.1368 41.4562 35.0909 40.5631C35.0267 39.2023 35.2358 37.8827 35.9603 36.7054C36.0211 36.5162 36.1244 36.3434 36.2626 36.2002C36.5296 35.8559 36.5027 35.7631 36.0659 35.6518C35.4166 35.5158 34.7488 35.4907 34.091 35.5775C33.3187 35.6279 32.5643 35.8312 31.8718 36.1755C31.7628 36.234 31.6416 36.2665 31.5178 36.2703L30.638 36.7384C30.845 36.3817 31.0003 36.093 31.1721 35.8126C32.0685 34.3549 32.2072 32.7693 31.9339 31.1301C31.4909 28.5157 30.2343 26.2373 28.8598 24.0229C27.8767 22.4182 26.7947 20.8757 25.62 19.4043C25.1439 18.8167 25.0486 18.7858 24.5704 19.3775C22.4237 21.9982 20.4943 24.7631 19.1239 27.8703C19.1186 27.9003 19.1186 27.931 19.1239 27.961C18.8652 28.7466 18.5029 29.4992 18.3497 30.3219C18.0226 31.9219 17.8032 33.5095 18.5898 35.0518C18.6467 35.1617 18.6785 35.2828 18.683 35.4064C18.89 35.8188 19.097 36.2435 19.3454 36.7281C18.5608 36.2765 17.8673 35.8146 17.0372 35.6559C16.0415 35.4984 15.0314 35.4506 14.0252 35.5136C13.9319 35.5026 13.8374 35.5183 13.7527 35.5588C13.668 35.5993 13.5966 35.663 13.547 35.7425C13.4559 35.9487 13.607 36.0765 13.7333 36.2208C14.6504 37.2744 14.9547 38.5445 15.0126 39.893C15.0582 40.9569 14.9257 42.0146 15.0126 43.0848C15.2196 45.8909 16.4617 48.0971 18.6788 49.7961C19.0929 50.1116 19.5255 50.3982 20.0161 50.7445C19.3951 50.7982 18.8403 50.8415 18.2834 50.8951C14.5572 51.2621 10.9469 52.0559 7.57256 53.726C7.202 53.9095 7.01155 53.8353 6.83766 53.5198C6.47331 53.0167 6.30149 52.4208 6.05722 51.8703C5.38661 50.2938 4.88291 48.6519 4.5543 46.9713C4.44063 46.5597 4.38421 46.1344 4.38662 45.7074C4.08858 43.8134 4.00594 41.892 4.14027 39.9796C4.36763 37.1699 4.97125 34.4031 5.93508 31.7528C7.78785 26.5198 10.6053 21.8394 14.0335 17.4868C16.6915 14.1157 19.8733 11.2806 23.0406 8.41052C23.6016 7.90125 24.1937 7.42289 24.7443 6.90331C24.9824 6.67856 25.1273 6.72186 25.3447 6.91362C26.9118 8.293 28.4685 9.69094 29.9942 11.1136C31.5872 12.5607 33.098 14.095 34.5195 15.7095C37.9746 19.7507 40.9038 24.128 43.1023 28.9755C43.1427 29.0556 43.1876 29.1334 43.2369 29.2085C43.6902 29.9713 43.9593 30.8126 44.2574 31.6373C44.9112 33.4179 45.3963 35.2554 45.7065 37.126C45.8842 38.0331 45.9784 38.9544 45.9881 39.8786C45.9694 40.6188 46.0026 41.359 45.986 42.0992Z" fill="#9AC552"/>
</svg>
