<svg id="Layer_1" data-name="Layer 1" xmlns="http://www.w3.org/2000/svg" viewBox="0 0 566.93 566.93"><defs><style>.cls-1{fill:#d86f3a;}</style></defs><path class="cls-1" d="M384.39,364.24c4.47-8.18,8.66-16.5,14.83-23.6.54-.62,1.42-1.38.67-2.34s-1.5-.14-2.23,0c-3.62.83-6.29,3.26-9.05,5.5-1.76,1.43-3.41,3-5.25,4.63,1-15.67-2.78-29.92-11.76-42.36-11.25-15.6-26.75-22.19-46-19.59-1.05.14-2.5,1-3.19-.14s.28-2.24.75-3.27C327.32,274,339.55,268.76,349,272c3.44,1.2,5.21,3.87,6.32,7.14.31.9.38,2.27,1.55,2.24,1.37,0,1.33-1.51,1.52-2.49,2.14-11.65-8.46-21.75-20.36-19.69-14.53,2.51-22.13,15-22.8,27.66a2.63,2.63,0,0,1-2,2.83C297.1,296.47,287.61,308.47,286,326c-.86,9.38,1.67,18,9.59,24,7,5.33,14.82,5.74,23.06,3.14-.16-.45-.19-.73-.27-.75-10.47-1.83-16.24-8.83-18.62-18.42-2.32-9.31,1.35-17.28,8.33-23.54,13.11-11.76,37.21-12.74,51.45,6.55,7.37,10,9.76,21.47,10,33.59.25,12.83-12.47,51.12-17.91,63.21C368.56,398.74,378.81,374.45,384.39,364.24Z"/><path class="cls-1" d="M180,364.24c-4.47-8.18-8.65-16.5-14.83-23.6-.53-.62-1.41-1.38-.66-2.34s1.5-.14,2.23,0c3.62.83,6.29,3.26,9.05,5.5,1.76,1.43,3.41,3,5.24,4.63-1-15.67,2.78-29.92,11.76-42.36,11.25-15.6,26.75-22.19,46-19.59,1.05.14,2.5,1,3.18-.14s-.27-2.24-.74-3.27C237.1,274,224.86,268.76,215.41,272c-3.45,1.2-5.22,3.87-6.33,7.14-.3.9-.37,2.27-1.54,2.24-1.38,0-1.34-1.51-1.52-2.49-2.15-11.65,8.45-21.75,20.36-19.69,14.53,2.51,22.13,15,22.8,27.66a2.63,2.63,0,0,0,2,2.83c16.15,6.75,25.65,18.75,27.25,36.26.86,9.38-1.66,18-9.58,24-7,5.33-14.82,5.74-23.06,3.14.15-.45.18-.73.27-.75,10.46-1.83,16.23-8.83,18.62-18.42,2.31-9.31-1.35-17.28-8.34-23.54-13.1-11.76-37.2-12.74-51.45,6.55-7.36,10-9.75,21.47-10,33.59-.24,12.83,12.48,51.12,17.91,63.21C195.86,398.74,185.61,374.45,180,364.24Z"/><path class="cls-1" d="M401.88,236.83c-8.63-.05-17.24-.79-25.88-1-4.06,0-56.36,0-85.83,0a4.85,4.85,0,0,0-.8,0l-2,0-16.78,0a3.34,3.34,0,0,0-1.23.13c-29.38.1-80.62.17-85.68.28q-11,.26-22.07.58c-1,0-2.72-.17-1.88,1.61a25,25,0,0,1,2.09,11.89c-.08,1.89.78,2.13,2.29,1.93,6.53-.86,13.09-.47,19.65-.45,4.39,0,66,0,91,0a6.45,6.45,0,0,0,.94.07c11.9,0,112.7-.77,124.58.39,1.48.14,1.73-.55,1.71-1.81,0-3.75,0-7.5,1.71-11C404.8,237.1,404.64,236.85,401.88,236.83Z"/><path class="cls-1" d="M406.22,179.69c.13-2.75,1.2-5.32,1.95-8.22H362.7a161.56,161.56,0,0,0-18.41-.32L305.53,171a2.52,2.52,0,0,0-1.08-.16,5.42,5.42,0,0,0-.8-.08c-9.73-.06-19.45-.2-29.18-.1-5.3.06-10.62-.23-15.92.19h-.09a4,4,0,0,0-1.65.15l-2.78.08-32.13.08a161,161,0,0,0-17.44.32l-40.68.16c-2,0-4,0-6-.17s-2.35.57-1.69,2.3c1.74,4.61,1.65,9.37,1,14.16-.41,1.52.52,1.44,1.58,1.44,57.35.12,114.69.41,172,.18q36.94-.17,73.9-.15c1.4,0,2.66.08,2.05-1.94C406.11,184.89,406.42,182.28,406.22,179.69Z"/><path class="cls-1" d="M401.93,162c-4-2.92-8-5.85-12-8.72-18.95-13.49-37.83-27.11-55.37-42.4s-35.59-30.29-51.45-47.52c-.86-.93-1.32-1-2.21,0-7.33,8.18-15.41,15.58-23.52,23A878.6,878.6,0,0,1,182.42,147c-6.85,5-13.76,9.86-20.64,14.8-.55.39-1.53.63-1.29,1.5s1.19.68,1.88.73a16.25,16.25,0,0,0,4.29.26,3.89,3.89,0,0,1,1.66-.16H213.9a3.91,3.91,0,0,1,1.66.16c8.66-.88,15.58-4.64,20.14-12.44a5,5,0,0,1,.71.89c3.21,7,9.1,9.75,16.33,10.84,7.58,1.14,15.17.73,22.75.85,3.54.05,3.5,0,3.52-3.59.07-14-.52-28,2-41.87.22-1.23.15-2.61,1.48-3.85a126.46,126.46,0,0,1,2.26,16.11c.82,10.23.44,20.48.45,30.72,0,1.87.62,2.54,2.51,2.51,7.12-.1,14.26.23,21.35-.56,7.88-.88,15.1-3,18.78-11.09a7.17,7.17,0,0,1,.71-.95,24.4,24.4,0,0,0,8.43,8.93c3.61,2.17,7.43,3.66,11.74,3.5a3.73,3.73,0,0,1,1.66-.16h43.18a3.6,3.6,0,0,1,1.66.17c2.09.25,4.14-.21,6.21-.34.51,0,1.22.21,1.48-.48S402.41,162.38,401.93,162Zm-47.28-6.23c-9.24-4.29-17-10.64-24.51-17.42-3.25-2.95-6.38-6.07-10.21-8.31-4.4-2.57-9.11-3.43-14-1.79-9.45,3.15-9.87,14-6.14,19.61,1.71,2.57,4.3,3.43,7.32,3.08.37-.05.88-.07,1.07-.31.41-.53-.19-.84-.5-1.15a6.42,6.42,0,0,1-1.89-5.87,5.71,5.71,0,0,1,4.49-4.71,7.92,7.92,0,0,1,8.14,3.85,7.68,7.68,0,0,1-.35,8.17c-3.54,5.92-12,8.05-17.86,4.4-4.63-2.88-7.63-7-8.25-12.54-.61-5.39-.47-10.73,2.13-15.64,2.18-4.11,5.4-6.9,10.32-7.14a3.7,3.7,0,0,0,.9-.22c.06,0,.1-.12.29-.36-8.3-7.2-16.71-14.32-23.88-22.85-6.9,8.91-15.62,15.9-23.95,23.46a4.54,4.54,0,0,0,.84.36c7.79,1,12,4.81,12.94,12.82.58,5,1.21,10.25-1.19,15.09-2.55,5.16-6.68,8.36-12.49,8.74s-9.81-2.4-12.51-7.26a6.56,6.56,0,0,1,.54-7.83,7.84,7.84,0,0,1,8.37-2.86c4.35,1.15,5.45,6.46,2.21,10.06-.33.38-1.11.58-.8,1.27s.94.49,1.5.55a7.09,7.09,0,0,0,8-4.73c2-4.93,1.8-9.77-1.63-14-3.85-4.71-9.09-5.49-14.78-4.3-3.32.69-5.94,2.64-8.51,4.68-6.25,5-11.85,10.75-18.34,15.45S209,157,201,158.28a37.72,37.72,0,0,1-6.36.21c-.23-.89.35-1.08.82-1.35,12.77-7.25,24.15-16.42,35.49-25.66,11.65-9.5,23.26-19,34.34-29.22,5-4.54,9.94-9.05,14.78-13.71,1.36-1.31,2-1.52,3.54-.09a747.52,747.52,0,0,0,68.2,57.83,151.63,151.63,0,0,0,16,10.57,2.47,2.47,0,0,1,1.57,1.58A28.29,28.29,0,0,1,354.65,155.8Z"/></svg>