<svg width="70" height="94" viewBox="0 0 70 94" fill="none" xmlns="http://www.w3.org/2000/svg">
<path d="M55.4917 38.5576C55.4906 38.9135 55.4183 39.2656 55.2788 39.5932C55.1393 39.9208 54.9355 40.2172 54.6794 40.4649C54.4234 40.7127 54.1203 40.9068 53.7879 41.0358C53.4555 41.1648 53.1006 41.226 52.7442 41.216C52.014 41.2137 51.3146 40.922 50.7999 40.405C50.2851 39.888 49.9973 39.188 49.9996 38.4592C50.0019 37.7304 50.2942 37.0323 50.8122 36.5185C51.3301 36.0048 52.0313 35.7175 52.7616 35.7198C53.1303 35.7178 53.4955 35.7907 53.8351 35.9341C54.1747 36.0775 54.4815 36.2883 54.7369 36.5538C54.9922 36.8192 55.1909 37.1337 55.3206 37.4782C55.4504 37.8227 55.5086 38.1899 55.4917 38.5576Z" fill="#AA5C9D"/>
<path d="M45.4407 24.7879C46.1708 24.7769 46.876 25.0528 47.404 25.5561C47.9321 26.0594 48.2408 26.7497 48.2636 27.4782C48.3013 28.9043 46.9623 30.2581 45.4987 30.2784C44.0351 30.2986 42.7338 28.9911 42.7019 27.51C42.673 26.0868 43.9511 24.8168 45.4407 24.7879Z" fill="#AA5C9D"/>
<path d="M27.3328 27.5622C27.3373 27.9245 27.2683 28.2839 27.1301 28.6188C26.9918 28.9538 26.7871 29.2574 26.5283 29.5114C26.2695 29.7654 25.9619 29.9645 25.624 30.0969C25.2862 30.2292 24.925 30.292 24.5622 30.2814C23.8296 30.2718 23.1309 29.9722 22.6198 29.4484C22.1086 28.9246 21.8268 28.2196 21.8364 27.4884C21.846 26.7573 22.1462 26.0599 22.671 25.5497C23.1958 25.0395 23.9021 24.7582 24.6346 24.7678C25.3634 24.7823 26.0566 25.0845 26.5624 25.6084C27.0682 26.1322 27.3453 26.8348 27.3328 27.5622Z" fill="#AA5C9D"/>
<path d="M57.3842 53.3281C57.0218 53.3369 56.6614 53.2719 56.325 53.137C55.9886 53.0021 55.6833 52.8001 55.4278 52.5434C55.1723 52.2868 54.9719 51.9808 54.8388 51.6442C54.7058 51.3076 54.6429 50.9474 54.6541 50.5858C54.6499 50.2298 54.7163 49.8765 54.8496 49.5463C54.983 49.2161 55.1805 48.9155 55.4308 48.6619C55.6811 48.4082 55.9793 48.2066 56.3081 48.0686C56.6369 47.9307 56.9898 47.859 57.3465 47.8579C58.0869 47.8647 58.7953 48.1607 59.3197 48.6825C59.8441 49.2043 60.1429 49.9104 60.1519 50.6494C60.1294 51.3672 59.8279 52.0481 59.3114 52.548C58.7948 53.048 58.1037 53.3277 57.3842 53.3281Z" fill="#AA5C9D"/>
<path d="M35.0507 20.8278C34.3198 20.8068 33.6258 20.5023 33.1161 19.9789C32.6064 19.4556 32.3211 18.7546 32.3206 18.0248C32.338 16.6073 33.6683 15.3287 35.1145 15.3345C35.8428 15.3611 36.5331 15.6659 37.0428 16.1859C37.5525 16.706 37.8426 17.4015 37.8533 18.1289C37.8499 18.4907 37.7744 18.8482 37.6312 19.1806C37.4879 19.513 37.2798 19.8136 37.0189 20.0648C36.758 20.3161 36.4496 20.5129 36.1117 20.6439C35.7738 20.7749 35.4131 20.8374 35.0507 20.8278Z" fill="#AA5C9D"/>
<path d="M12.752 60.8692C13.4834 60.8645 14.1872 61.1481 14.7103 61.6583C15.2334 62.1686 15.5337 62.8642 15.5459 63.5942C15.5299 64.3117 15.2388 64.9958 14.7325 65.5055C14.2261 66.0152 13.5432 66.3116 12.8245 66.3336C12.4622 66.3386 12.1026 66.2714 11.7668 66.1359C11.4309 66.0003 11.1255 65.7992 10.8685 65.5443C10.6115 65.2895 10.4081 64.9859 10.2702 64.6515C10.1323 64.3172 10.0627 63.9587 10.0654 63.5971C10.0593 63.241 10.1242 62.8874 10.2565 62.5566C10.3887 62.2259 10.5856 61.9248 10.8357 61.6709C11.0858 61.417 11.3841 61.2153 11.7131 61.0777C12.0421 60.94 12.3953 60.8691 12.752 60.8692Z" fill="#AA5C9D"/>
<path d="M11.5145 48.115C12.4361 47.5365 13.9664 47.9241 14.6851 48.7485C15.0804 49.1628 15.33 49.6941 15.3964 50.2623C15.4628 50.8305 15.3423 51.4048 15.0532 51.8987C14.5199 52.4107 14.0707 52.998 13.2534 53.16C12.6427 53.2984 12.0028 53.2216 11.4423 52.9427C10.8818 52.6638 10.4352 52.1999 10.1784 51.6297C9.93469 51.0608 9.89925 50.4244 10.0784 49.8321C10.2575 49.2397 10.6397 48.7292 11.158 48.3898C11.293 48.3212 11.4139 48.228 11.5145 48.115Z" fill="#AA5C9D"/>
<path d="M19.9627 38.6185C19.9851 38.6891 19.9888 38.7642 19.9736 38.8367C19.9583 38.9091 19.9247 38.9765 19.8758 39.0321C19.586 39.6107 19.3454 40.2066 18.8296 40.6318C17.6065 41.5228 16.2212 41.384 15.1836 40.2674C14.2533 39.2636 14.2707 37.7507 15.2242 36.6543C15.3517 36.6247 15.4676 36.5583 15.5575 36.4634C17.2298 34.9649 19.6324 36.232 19.8497 38.1209C19.8366 38.2943 19.876 38.4677 19.9627 38.6185Z" fill="#AA5C9D"/>
<path d="M55.6685 65.7116C54.2947 64.7714 54.2541 62.4283 55.7351 61.4332C56.4713 61.1092 57.1987 60.7765 58.0537 61.0427C59.0419 61.3522 59.7056 61.9568 59.9201 62.9953C60.048 63.5172 60.0088 64.066 59.8082 64.5646C59.6075 65.0632 59.2555 65.4866 58.8014 65.7752C58.4302 66.0466 57.9898 66.2076 57.5308 66.2399C57.0719 66.2721 56.6131 66.1742 56.2075 65.9574C56.0373 65.8562 55.8565 65.7738 55.6685 65.7116Z" fill="#AA5C9D"/>
</svg>
