<svg id="Layer_1" data-name="Layer 1" xmlns="http://www.w3.org/2000/svg" viewBox="0 0 566.93 566.93"><defs><style>.cls-1{fill:#80cce8;}</style></defs><path class="cls-1" d="M409.91,437.05c-8-11.65-11.94-24.51-10.5-38.65,1.69-16.79,8.44-31.87,17.41-45.83S438.23,328,452.2,319.2c2.86-1.81,2.84-2.12-.16-3.79-8-4.44-16.39-4.7-25.1-3.06-14.07,2.65-24.68,10-30.81,23.07a94.36,94.36,0,0,0-8.4,33.74c-.42,6.1-.07,12.25-.07,18.38l-1.06.1c-.27-.77-.59-1.53-.79-2.32A132.8,132.8,0,0,1,382,349.49c.24-11.49.84-23,1.7-34.44.61-8.22,1.81-16.4,3-24.56.5-3.59,0-4.36-3.58-3.54-7.77,1.78-12.73,7-15.93,13.89-5.85,12.54-5.3,25.79-3.7,39.1a32.6,32.6,0,0,1,0,3.83,79.41,79.41,0,0,1-5.21-7.51c-8.09-11.76-18-21.1-32.72-23.65-7.86-1.36-15.67-1.81-23,2.16-2.83,1.53-2.8,1.79-.46,3.93,13.06,11.91,25.94,24,39.19,35.71a138.26,138.26,0,0,1,29.89,36.33c.78,1.39,1.36,2.89,2,4.35l-.72.36a3.19,3.19,0,0,1-.63-.51,66.31,66.31,0,0,0-32-24.09c-17.39-6.32-34.05-5.74-49.28,6a3.12,3.12,0,0,0-1.2,2.44,3.37,3.37,0,0,0,2.06,2c13.46,3.61,26.73,7.68,39.36,13.72,23.36,11.16,45.23,24.44,63.11,43.52.76.81,21.7,12.52,26.76,14.31C420.55,452.83,412.16,440.34,409.91,437.05Z"/><path class="cls-1" d="M238.89,264.5c8-11.66,11.94-24.51,10.5-38.66C247.7,209.06,241,194,232,180s-21.41-24.55-35.38-33.38c-2.86-1.81-2.84-2.11.16-3.79,8-4.44,16.39-4.7,25.1-3,14.07,2.65,24.68,10,30.81,23.07a94.31,94.31,0,0,1,8.4,33.73c.42,6.1.07,12.26.07,18.38l1.06.1c.27-.77.59-1.52.79-2.31a132.83,132.83,0,0,0,3.84-35.84c-.24-11.48-.84-23-1.7-34.44-.61-8.21-1.81-16.39-3-24.55-.5-3.59,0-4.36,3.58-3.54,7.77,1.78,12.73,7,15.93,13.89,5.85,12.54,5.3,25.79,3.7,39.1a32.6,32.6,0,0,0,0,3.83,80.71,80.71,0,0,0,5.21-7.51c8.09-11.77,18-21.1,32.72-23.65,7.85-1.36,15.67-1.82,23,2.15,2.83,1.53,2.8,1.79.45,3.93-13,11.91-25.93,24-39.18,35.72a138.37,138.37,0,0,0-29.89,36.32c-.78,1.4-1.36,2.9-2,4.35l.72.37a3.19,3.19,0,0,0,.63-.51,66.25,66.25,0,0,1,32-24.09c17.39-6.33,34.05-5.75,49.28,6a3.12,3.12,0,0,1,1.2,2.44,3.39,3.39,0,0,1-2.06,2c-13.46,3.61-26.73,7.68-39.36,13.71C294.76,233.61,272.89,246.88,255,266c-.76.81-21.7,12.52-26.76,14.31C228.25,280.28,236.64,267.79,238.89,264.5Z"/></svg>