<svg width="140" height="170" viewBox="0 0 140 170" fill="none" xmlns="http://www.w3.org/2000/svg">
<path d="M29.5945 42.134C28.039 47.8979 29.4312 53.1491 32.6162 57.9808C35.6456 62.5678 39.8573 66.0518 43.9367 69.6601C46.8417 72.2274 50.1084 74.3558 52.8812 77.1019C53.2001 77.4203 53.5695 77.9641 54.149 77.4903C54.7906 76.9698 54.6779 76.3056 54.359 75.6725C53.363 73.6787 52.2123 71.7658 50.9173 69.9514C47.4445 65.1468 44.1079 60.284 41.8834 54.7648C40.9656 52.481 40.254 50.1506 40.3006 47.6648C40.3006 47.2259 40.2773 46.5501 40.9151 46.453C41.4595 46.3714 41.6073 46.9346 41.759 47.3347C42.6145 49.6301 44.3295 50.8769 46.7095 50.8924C49.4667 50.9119 52.1306 50.2982 53.5812 47.6221C57.0267 41.2639 52.5117 33.9503 46.7367 32.2025C39.0523 29.8682 31.3912 35.4495 29.5945 42.134Z" fill="#E9BAD2"/>
<path d="M3.65937 63.8068C5.57271 55.1493 14.3227 51.1022 21.7233 51.9333C26.1756 52.6 30.502 53.933 34.5566 55.8873C38.3055 58.0429 41.9144 60.4005 44.9944 63.4767C50.0499 68.5259 54.7166 73.8898 57.6216 80.5431C58.1844 81.6932 58.5536 82.928 58.7144 84.198C58.7533 84.6874 58.621 85.2195 57.9833 85.3632C57.3455 85.5069 57.081 85.2 56.8788 84.6407C56.6825 84.1206 56.4211 83.6273 56.101 83.1726C49.6105 73.9636 41.3894 67.1626 30.1038 64.7234C28.1949 64.3441 26.2584 64.1194 24.3133 64.0515C23.3022 64.001 22.256 64.2341 22.9016 65.811C23.9633 68.39 23.6327 71.0661 23.0649 73.6761C22.4777 76.395 20.6538 77.9913 18.0094 78.6322C10.4999 80.4188 1.49715 73.5984 3.65937 63.8068Z" fill="#E9BAD2"/>
<path d="M110.406 42.134C111.961 47.8979 110.569 53.1491 107.384 57.9808C104.355 62.5678 100.143 66.0518 96.0634 69.6601C93.1584 72.2274 89.8917 74.3558 87.119 77.1019C86.8001 77.4203 86.4306 77.9641 85.8512 77.4903C85.2095 76.9698 85.3223 76.3056 85.6412 75.6725C86.6372 73.6787 87.7879 71.7658 89.0829 69.9514C92.5284 65.1429 95.8729 60.2801 98.0973 54.7532C99.0151 52.4694 99.7267 50.1389 99.6801 47.6532C99.6801 47.2143 99.7034 46.5384 99.0656 46.4413C98.5212 46.3598 98.3734 46.923 98.2217 47.323C97.3662 49.6185 95.6512 50.8653 93.2712 50.8808C90.514 50.9002 87.8501 50.2865 86.3995 47.6104C82.954 41.2523 87.469 33.9387 93.244 32.1908C100.948 29.8682 108.609 35.4495 110.406 42.134Z" fill="#E9BAD2"/>
<path d="M136.341 63.8068C134.427 55.1493 125.677 51.1022 118.277 51.9333C113.824 52.6 109.498 53.933 105.443 55.8873C101.694 58.0429 98.0855 60.4005 95.0055 63.4767C89.9499 68.5259 85.2833 73.8898 82.3783 80.5431C81.8155 81.6932 81.4463 82.928 81.2855 84.198C81.2466 84.6874 81.3788 85.2195 82.0166 85.3632C82.6544 85.5069 82.9188 85.2 83.1211 84.6407C83.3174 84.1206 83.5787 83.6273 83.8988 83.1726C90.3894 73.9636 98.6105 67.1626 109.896 64.7234C111.805 64.3441 113.741 64.1194 115.687 64.0515C116.698 64.001 117.744 64.2341 117.098 65.811C116.037 68.39 116.367 71.0661 116.935 73.6761C117.522 76.395 119.346 77.9913 122.01 78.6322C129.5 80.4188 138.503 73.5984 136.341 63.8068Z" fill="#E9BAD2"/>
<path d="M29.5945 127.804C28.039 122.036 29.4312 116.785 32.6162 111.953C35.6456 107.366 39.8573 103.882 43.9367 100.274C46.8417 97.7065 50.1084 95.582 52.8812 92.8321C53.2001 92.5136 53.5695 91.9737 54.149 92.4437C54.7906 92.9641 54.6779 93.6283 54.359 94.2614C53.3639 96.257 52.2131 98.1712 50.9173 99.9865C47.4717 104.791 44.1273 109.654 41.9029 115.181C40.9851 117.465 40.2734 119.795 40.3201 122.281C40.3201 122.72 40.2967 123.399 40.9345 123.493C41.479 123.574 41.6267 123.015 41.7784 122.611C42.634 120.315 44.349 119.069 46.729 119.053C49.4862 119.034 52.1501 119.647 53.6006 122.324C57.0462 128.682 52.5312 135.995 46.7562 137.743C39.0523 140.066 31.3912 134.484 29.5945 127.804Z" fill="#E9BAD2"/>
<path d="M3.65937 106.131C5.57271 114.785 14.3227 118.832 21.7233 118.001C26.176 117.336 30.5027 116.003 34.5566 114.047C38.3055 111.891 41.9144 109.533 44.9944 106.457C50.0499 101.408 54.7166 96.0443 57.6216 89.3909C58.1851 88.2411 58.5543 87.0062 58.7144 85.7361C58.7533 85.2467 58.621 84.7146 57.9833 84.5709C57.3455 84.4271 57.081 84.7379 56.8788 85.2933C56.6818 85.8143 56.4205 86.3088 56.101 86.7653C49.6105 95.9705 41.3894 102.771 30.1038 105.211C28.1949 105.59 26.2584 105.815 24.3133 105.883C23.3022 105.937 22.256 105.7 22.9016 104.123C23.9633 101.544 23.6327 98.868 23.0649 96.2579C22.4777 93.5624 20.6538 91.9427 18.0094 91.3019C10.4999 89.5152 1.49715 96.3239 3.65937 106.131Z" fill="#E9BAD2"/>
<path d="M110.406 127.804C111.961 122.036 110.569 116.785 107.384 111.953C104.355 107.366 100.143 103.882 96.0634 100.274C93.1584 97.7065 89.8917 95.582 87.119 92.8321C86.8001 92.5136 86.4306 91.9737 85.8512 92.4437C85.2095 92.9641 85.3223 93.6283 85.6412 94.2614C86.6362 96.257 87.787 98.1712 89.0829 99.9865C92.5284 104.791 95.8729 109.654 98.0973 115.181C99.0151 117.465 99.7267 119.795 99.6801 122.281C99.6801 122.72 99.7034 123.399 99.0656 123.493C98.5212 123.574 98.3734 123.015 98.2217 122.611C97.3662 120.315 95.6512 119.069 93.2712 119.053C90.514 119.034 87.8501 119.647 86.3995 122.324C82.954 128.682 87.469 135.995 93.244 137.743C100.948 140.066 108.609 134.484 110.406 127.804Z" fill="#E9BAD2"/>
<path d="M136.341 106.131C134.427 114.785 125.677 118.832 118.277 118.001C113.824 117.336 109.497 116.003 105.443 114.047C101.694 111.891 98.0855 109.533 95.0055 106.457C89.9499 101.408 85.2833 96.0443 82.3783 89.3909C81.8148 88.2411 81.4456 87.0062 81.2855 85.7361C81.2466 85.2467 81.3788 84.7146 82.0166 84.5709C82.6544 84.4271 82.9188 84.7379 83.1211 85.2933C83.3181 85.8143 83.5794 86.3088 83.8988 86.7653C90.3894 95.9705 98.6105 102.771 109.896 105.211C111.805 105.59 113.741 105.815 115.687 105.883C116.698 105.937 117.744 105.7 117.098 104.123C116.037 101.544 116.367 98.868 116.935 96.2579C117.522 93.5624 119.346 91.9427 122.01 91.3019C129.5 89.5152 138.503 96.3239 136.341 106.131Z" fill="#E9BAD2"/>
<path d="M74.9623 86.5556C74.9001 86.7265 74.7523 86.7925 74.6123 86.8702C73.465 87.4917 72.3937 88.2438 71.4195 89.1113C70.9179 89.5774 70.4434 90.0707 69.9573 90.5523C69.6034 90.9057 69.5412 90.9174 69.1795 90.5523C68.4306 89.7712 67.6413 89.0296 66.8151 88.3306C66.148 87.7721 65.4277 87.2804 64.6645 86.8625C64.2212 86.6255 64.2134 86.5012 64.6645 86.2604C65.7261 85.6879 66.7212 85.0002 67.6317 84.2097C68.2301 83.7247 68.7856 83.1893 69.2923 82.6094C69.5101 82.3453 69.6812 82.3376 69.9262 82.59C71.3052 84.0059 72.876 85.2217 74.5929 86.2022C74.7524 86.275 74.8826 86.3996 74.9623 86.5556Z" fill="#E9BAD2"/>
<path d="M74.9623 25.4481C74.9001 25.619 74.7523 25.6812 74.6123 25.7628C73.465 26.3843 72.3937 27.1363 71.4195 28.0038C70.9179 28.4699 70.4434 28.9593 69.9573 29.4448C69.6034 29.7983 69.5412 29.8099 69.1795 29.4448C68.4315 28.6627 67.6423 27.9211 66.8151 27.2231C66.1472 26.6647 65.427 26.1718 64.6645 25.7511C64.2212 25.5181 64.2134 25.3938 64.6645 25.153C65.7261 24.5804 66.7212 23.8927 67.6317 23.1022C68.2301 22.6172 68.7856 22.0818 69.2923 21.502C69.5101 21.2379 69.6812 21.2301 69.9262 21.502C71.3052 22.9178 72.876 24.1337 74.5929 25.1141C74.7494 25.182 74.8792 25.2993 74.9623 25.4481Z" fill="#E9BAD2"/>
<path d="M74.9623 144.521C74.9001 144.692 74.7523 144.754 74.6123 144.832C73.4641 145.453 72.3926 146.206 71.4195 147.076C70.9179 147.539 70.4434 148.032 69.9573 148.514C69.6034 148.871 69.5412 148.883 69.1795 148.514C68.4316 147.73 67.6423 146.987 66.8151 146.288C66.1471 145.731 65.4269 145.239 64.6645 144.82C64.2212 144.587 64.2134 144.459 64.6645 144.218C65.7252 143.645 66.7201 142.959 67.6317 142.171C68.2301 141.686 68.7856 141.151 69.2923 140.571C69.5101 140.303 69.6812 140.299 69.9262 140.547C71.3052 141.963 72.876 143.179 74.5929 144.16C74.7536 144.234 74.884 144.362 74.9623 144.521Z" fill="#E9BAD2"/>
</svg>
