<svg width="140" height="170" viewBox="0 0 140 170" fill="none" xmlns="http://www.w3.org/2000/svg">
<path d="M29.5944 42.134C28.0388 47.8979 29.4311 53.1491 32.6161 57.9808C35.6455 62.5678 39.8572 66.0518 43.9366 69.6601C46.8416 72.2274 50.1083 74.3558 52.8811 77.1019C53.2 77.4203 53.5694 77.9641 54.1488 77.4903C54.7905 76.9698 54.6777 76.3056 54.3588 75.6725C53.3629 73.6787 52.2121 71.7658 50.9172 69.9514C47.4444 65.1468 44.1077 60.284 41.8833 54.7648C40.9655 52.481 40.2538 50.1506 40.3005 47.6648C40.3005 47.2259 40.2772 46.5501 40.915 46.453C41.4594 46.3714 41.6072 46.9346 41.7588 47.3347C42.6144 49.6301 44.3294 50.8769 46.7094 50.8924C49.4666 50.9119 52.1305 50.2982 53.5811 47.6221C57.0266 41.2639 52.5116 33.9503 46.7366 32.2025C39.0522 29.8682 31.3911 35.4495 29.5944 42.134Z" fill="#AA5C9D"/>
<path d="M3.6595 63.8068C5.57283 55.1493 14.3228 51.1022 21.7234 51.9333C26.1757 52.6 30.5021 53.933 34.5567 55.8873C38.3056 58.0429 41.9145 60.4005 44.9945 63.4767C50.05 68.5259 54.7167 73.8898 57.6217 80.5431C58.1845 81.6932 58.5537 82.928 58.7145 84.198C58.7534 84.6874 58.6212 85.2195 57.9834 85.3632C57.3456 85.5069 57.0812 85.2 56.8789 84.6407C56.6826 84.1206 56.4213 83.6273 56.1012 83.1726C49.6106 73.9636 41.3895 67.1626 30.1039 64.7234C28.195 64.3441 26.2585 64.1194 24.3134 64.0515C23.3023 64.001 22.2562 64.2341 22.9017 65.811C23.9634 68.39 23.6328 71.0661 23.0651 73.6761C22.4778 76.395 20.6539 77.9913 18.0095 78.6322C10.5001 80.4188 1.49727 73.5984 3.6595 63.8068Z" fill="#AA5C9D"/>
<path d="M110.406 42.134C111.961 47.8979 110.569 53.1491 107.384 57.9808C104.354 62.5678 100.143 66.0518 96.0633 69.6601C93.1583 72.2274 89.8916 74.3558 87.1188 77.1019C86.8 77.4203 86.4305 77.9641 85.8511 77.4903C85.2094 76.9698 85.3222 76.3056 85.6411 75.6725C86.637 73.6787 87.7878 71.7658 89.0827 69.9514C92.5283 65.1429 95.8727 60.2801 98.0972 54.7532C99.015 52.4694 99.7266 50.1389 99.68 47.6532C99.68 47.2143 99.7033 46.5384 99.0655 46.4413C98.5211 46.3598 98.3733 46.923 98.2216 47.323C97.3661 49.6185 95.6511 50.8653 93.2711 50.8808C90.5138 50.9002 87.85 50.2865 86.3994 47.6104C82.9538 41.2523 87.4688 33.9387 93.2438 32.1908C100.948 29.8682 108.609 35.4495 110.406 42.134Z" fill="#AA5C9D"/>
<path d="M136.341 63.8068C134.427 55.1493 125.677 51.1022 118.277 51.9333C113.824 52.6 109.498 53.933 105.443 55.8873C101.694 58.0429 98.0855 60.4005 95.0055 63.4767C89.9499 68.5259 85.2833 73.8898 82.3783 80.5431C81.8155 81.6932 81.4463 82.928 81.2855 84.198C81.2466 84.6874 81.3788 85.2195 82.0166 85.3632C82.6544 85.5069 82.9188 85.2 83.1211 84.6407C83.3174 84.1206 83.5787 83.6273 83.8988 83.1726C90.3894 73.9636 98.6105 67.1626 109.896 64.7234C111.805 64.3441 113.741 64.1194 115.687 64.0515C116.698 64.001 117.744 64.2341 117.098 65.811C116.037 68.39 116.367 71.0661 116.935 73.6761C117.522 76.395 119.346 77.9913 122.01 78.6322C129.5 80.4188 138.503 73.5984 136.341 63.8068Z" fill="#AA5C9D"/>
<path d="M29.5944 127.804C28.0388 122.036 29.4311 116.785 32.6161 111.953C35.6455 107.366 39.8572 103.882 43.9366 100.274C46.8416 97.7065 50.1083 95.582 52.8811 92.8321C53.2 92.5136 53.5694 91.9737 54.1488 92.4437C54.7905 92.9641 54.6777 93.6283 54.3588 94.2614C53.3638 96.257 52.213 98.1712 50.9172 99.9865C47.4716 104.791 44.1272 109.654 41.9027 115.181C40.985 117.465 40.2733 119.795 40.32 122.281C40.32 122.72 40.2966 123.399 40.9344 123.493C41.4788 123.574 41.6266 123.015 41.7783 122.611C42.6338 120.315 44.3488 119.069 46.7288 119.053C49.4861 119.034 52.15 119.647 53.6005 122.324C57.0461 128.682 52.5311 135.995 46.7561 137.743C39.0522 140.066 31.3911 134.484 29.5944 127.804Z" fill="#AA5C9D"/>
<path d="M3.6595 106.131C5.57283 114.785 14.3228 118.832 21.7234 118.001C26.1762 117.336 30.5028 116.003 34.5567 114.047C38.3056 111.891 41.9145 109.533 44.9945 106.457C50.05 101.408 54.7167 96.0443 57.6217 89.3909C58.1852 88.2411 58.5544 87.0062 58.7145 85.7361C58.7534 85.2467 58.6212 84.7146 57.9834 84.5709C57.3456 84.4271 57.0812 84.7379 56.8789 85.2933C56.6819 85.8143 56.4206 86.3088 56.1012 86.7653C49.6106 95.9705 41.3895 102.771 30.1039 105.211C28.195 105.59 26.2585 105.815 24.3134 105.883C23.3023 105.937 22.2562 105.7 22.9017 104.123C23.9634 101.544 23.6328 98.868 23.0651 96.2579C22.4778 93.5624 20.6539 91.9427 18.0095 91.3019C10.5001 89.5152 1.49727 96.3239 3.6595 106.131Z" fill="#AA5C9D"/>
<path d="M110.406 127.804C111.961 122.036 110.569 116.785 107.384 111.953C104.354 107.366 100.143 103.882 96.0633 100.274C93.1583 97.7065 89.8916 95.582 87.1188 92.8321C86.8 92.5136 86.4305 91.9737 85.8511 92.4437C85.2094 92.9641 85.3222 93.6283 85.6411 94.2614C86.6361 96.257 87.7869 98.1712 89.0827 99.9865C92.5283 104.791 95.8727 109.654 98.0972 115.181C99.015 117.465 99.7266 119.795 99.68 122.281C99.68 122.72 99.7033 123.399 99.0655 123.493C98.5211 123.574 98.3733 123.015 98.2216 122.611C97.3661 120.315 95.6511 119.069 93.2711 119.053C90.5138 119.034 87.85 119.647 86.3994 122.324C82.9538 128.682 87.4688 135.995 93.2438 137.743C100.948 140.066 108.609 134.484 110.406 127.804Z" fill="#AA5C9D"/>
<path d="M136.341 106.131C134.427 114.785 125.677 118.832 118.277 118.001C113.824 117.336 109.497 116.003 105.443 114.047C101.694 111.891 98.0855 109.533 95.0055 106.457C89.9499 101.408 85.2833 96.0443 82.3783 89.3909C81.8148 88.2411 81.4456 87.0062 81.2855 85.7361C81.2466 85.2467 81.3788 84.7146 82.0166 84.5709C82.6544 84.4271 82.9188 84.7379 83.1211 85.2933C83.3181 85.8143 83.5794 86.3088 83.8988 86.7653C90.3894 95.9705 98.6105 102.771 109.896 105.211C111.805 105.59 113.741 105.815 115.687 105.883C116.698 105.937 117.744 105.7 117.098 104.123C116.037 101.544 116.367 98.868 116.935 96.2579C117.522 93.5624 119.346 91.9427 122.01 91.3019C129.5 89.5152 138.503 96.3239 136.341 106.131Z" fill="#AA5C9D"/>
<path d="M74.9622 86.5556C74.9 86.7265 74.7522 86.7925 74.6122 86.8702C73.4649 87.4917 72.3935 88.2438 71.4194 89.1113C70.9177 89.5774 70.4433 90.0707 69.9572 90.5523C69.6033 90.9057 69.5411 90.9174 69.1794 90.5523C68.4304 89.7712 67.6412 89.0296 66.815 88.3306C66.1479 87.7721 65.4276 87.2804 64.6644 86.8625C64.2211 86.6255 64.2133 86.5012 64.6644 86.2604C65.726 85.6879 66.7211 85.0002 67.6316 84.2097C68.2299 83.7247 68.7855 83.1893 69.2922 82.6094C69.51 82.3453 69.6811 82.3376 69.9261 82.59C71.3051 84.0059 72.8759 85.2217 74.5927 86.2022C74.7523 86.275 74.8825 86.3996 74.9622 86.5556Z" fill="#AA5C9D"/>
<path d="M74.9622 25.4481C74.9 25.619 74.7522 25.6812 74.6122 25.7628C73.4649 26.3843 72.3935 27.1363 71.4194 28.0038C70.9177 28.4699 70.4433 28.9593 69.9572 29.4448C69.6033 29.7983 69.5411 29.8099 69.1794 29.4448C68.4314 28.6627 67.6422 27.9211 66.815 27.2231C66.147 26.6647 65.4269 26.1718 64.6644 25.7511C64.2211 25.5181 64.2133 25.3938 64.6644 25.153C65.726 24.5804 66.7211 23.8927 67.6316 23.1022C68.2299 22.6172 68.7855 22.0818 69.2922 21.502C69.51 21.2379 69.6811 21.2301 69.9261 21.502C71.3051 22.9178 72.8759 24.1337 74.5927 25.1141C74.7492 25.182 74.879 25.2993 74.9622 25.4481Z" fill="#AA5C9D"/>
<path d="M74.9622 144.521C74.9 144.692 74.7522 144.754 74.6122 144.832C73.464 145.453 72.3925 146.206 71.4194 147.076C70.9177 147.539 70.4433 148.032 69.9572 148.514C69.6033 148.871 69.5411 148.883 69.1794 148.514C68.4315 147.73 67.6422 146.987 66.815 146.288C66.147 145.731 65.4268 145.239 64.6644 144.82C64.2211 144.587 64.2133 144.459 64.6644 144.218C65.725 143.645 66.72 142.959 67.6316 142.171C68.2299 141.686 68.7855 141.151 69.2922 140.571C69.51 140.303 69.6811 140.299 69.9261 140.547C71.3051 141.963 72.8759 143.179 74.5927 144.16C74.7535 144.234 74.8839 144.362 74.9622 144.521Z" fill="#AA5C9D"/>
</svg>
