<svg id="Layer_1" data-name="Layer 1" xmlns="http://www.w3.org/2000/svg" viewBox="0 0 512.55 545.81"><defs><style>.cls-1{fill:#ce433a;}</style></defs><path class="cls-1" d="M191.08,321h0a3.31,3.31,0,0,0-1.88-3c-.71-.27-.83.78-1.09,1.33q-2.78,9.07-5.54,18.13h0a10.26,10.26,0,0,0-.52,1c-8.64,20.38-22.29,36.26-41.94,46.71-7.41,3.95-15.44,6.14-23.64,7.76l-14.39,0h0a4.44,4.44,0,0,0-1.06-.45c-19.5-2.51-33.65-12.61-42.69-30-.46-.9-.7-2-1.92-2.53a6.15,6.15,0,0,0-1.51,3.58c-.49.06-.49.47-.64.82-3,7-3,14.28-1.62,21.65h0c4.11,14.5,14,23.22,28,27.61,3.43,1.08,7,1.67,11,2.6-2.46,2.37-4.62,4.37-6.68,6.46-10.7,10.83-15.52,23.75-13,38.9,1.65,9.74,6.24,18,14.43,23.93a28.39,28.39,0,0,0,13.28,5.59c1.07.13,2.76.49,1.63-1.54-2.09-3.76-3.1-7.9-4.57-11.88a34.78,34.78,0,0,1,2.34-21h0c4.55-8.23,11.24-14.32,19-19.49,6.73-4.51,13.86-8.3,20.84-12.36,16.43-9.56,30.13-22,39.95-38.37,6.73-11.25,10.47-23.55,12.51-36.42a3.31,3.31,0,0,1-.12-.42c0,.14.07.28.12.42.36-3.37.85-6.73,1.07-10.11C192.9,333.58,193,327.2,191.08,321Z"/><path class="cls-1" d="M304.49,168.09h0c-1.31-7.3-5.16-13.15-10.45-18.15-.61-.57-1.07-1.78-2.39-1-2.81,1.76-6.09,2.42-9.09,3.76a56.78,56.78,0,0,1-5.79.59c-14.08,0-28.15,0-42.22,0h0c-4.63-1-9.37-1.55-13.63-3.8-1.06-.56-1.38.36-1.92.8a30.7,30.7,0,0,0-10.88,17.8,41.6,41.6,0,0,0,0,16h0c4.62,16.88,14.58,28.28,32.41,31.62,10.58.39,21.16.38,31.74,0h0a20.44,20.44,0,0,0,7.55-2c12.45-6.3,21.06-15.81,24.45-29.61C305.72,178.77,305.42,173.44,304.49,168.09Z"/><path class="cls-1" d="M192.23,214.39a68.74,68.74,0,0,0-1.52-12.78h0c-.15-1-.25-1.94-.46-2.9-6.21-28-22.15-49.06-46.27-64.16-11-6.92-23-12.45-33.15-20.78-13.78-11.3-19.35-25.53-11.33-43,.72-1.56,2.85-3.52,1.53-4.83s-3.72.06-5.52.69C83,70.94,76,80.25,72.66,92.66a44.43,44.43,0,0,0-1.15,15.28h0c1.58,13.87,9.33,24.24,19.56,33.56-9,1.57-17.38,3.62-24.23,9.23s-12.22,12.05-14.16,20.89a41.49,41.49,0,0,0,0,16.54h0a24.73,24.73,0,0,0,4.3,9.6c.7-1.38,1.25-2.52,1.83-3.63,7.46-14.38,19.17-23.55,34.55-28.24a63.52,63.52,0,0,1,24.56-1.28h0a1.31,1.31,0,0,0,1.24.42c4.21.52,8.15,2.12,12.24,3.12a5.33,5.33,0,0,0,1,.55c22.38,8.43,38,24,47.74,45.57a160.87,160.87,0,0,1,8,21.87c.21.72.27,1.77,1,1.93,1.09.24,1.24-1,1.74-1.68a3.48,3.48,0,0,0,.55-1.33A56.38,56.38,0,0,0,192.23,214.39Zm-.39,0c0-.4,0-.8,0-1.2.05.45.08.89.1,1.34C191.92,214.55,191.83,214.47,191.84,214.43Z"/><path class="cls-1" d="M460,171.69h0c-3.78-14.6-13.23-23.64-27.52-27.82-3.48-1-7.07-1.69-11-2.61a86.79,86.79,0,0,0,10.77-11.56c11-14.78,12.15-34.32,2.57-48.73-4.93-7.41-11.28-13.17-20.32-15.23-1.05-.24-2.43-.6-3.11.07-.95.92.35,1.89.77,2.79C417,78.71,418.65,89,413.42,99.47c-4.7,9.43-12.52,15.83-21.33,21.17-11.81,7.18-24,13.71-34.84,22.45-16.82,13.57-28.91,30.15-33.7,51.55-.18,1.46-.95,2.83-.76,4.36a1.37,1.37,0,0,0-.44,1.48c-.21,1.76-.94,3.44-.73,5.25h0a1.25,1.25,0,0,0-.4,1.26,122.18,122.18,0,0,0-.61,22.3h0c.49,3.14.38,6.5,3.48,9.23l4.76-14.92h0l1.69-3.93c9.48-22,23.62-39.68,46.2-49.47a90.17,90.17,0,0,1,22.62-6.15,86.4,86.4,0,0,1,14.65.52,6.34,6.34,0,0,0,1.33.55,53.75,53.75,0,0,1,18.19,6.72c9.58,5.58,16.4,13.68,21.25,23.55.28.57.34,1.51,1.11,1.58.94.08,1.14-.89,1.49-1.54a29.61,29.61,0,0,0,3.16-9.61A41.42,41.42,0,0,0,460,171.69Z"/><path class="cls-1" d="M306.85,108h0c-1.14-10-5.86-17.76-13.85-23.77-2.71-2-6.18-2.18-8.84-4.16a13.36,13.36,0,0,0-4.79-1h0a1.05,1.05,0,0,0-1.19-.38c-5.66-.06-11.32-.19-17-.15-9.26.06-18.53-.29-27.79.23h0c-1.25.24-2.51.4-3.73.72-18.67,5-29.48,27.59-21.51,45.49,4.83,10.87,13.43,17.17,25.28,18.86l46.31,0h0c13.09-2.26,21.58-9.86,25.84-22.33A35.79,35.79,0,0,0,306.85,108Z"/><path class="cls-1" d="M284.55,253.51l-4.62,1.26L272,256.34l-4.49.19h0a11.14,11.14,0,0,0-4.7.33c-1.26,1-.58,2.36-.59,3.53-.35,67.7.69,135.4-.65,203.1a3.59,3.59,0,0,0-.46,2.56c-.36,2.58-.78,5.15-1.08,7.74-.58,5.12-2.4,10-3.2,15-.45-.31-.51,1.83-1,.25-.9-2.78-1.55-5.65-2.3-8.47q-1-6.35-2-12.68h0a1.52,1.52,0,0,0-.37-1.45c-.08-2.91-.15-5.83-.23-8.74h0a19.3,19.3,0,0,0-.35-5.87c0-2.94,0-5.88,0-8.82q0-91.18-.09-182.37c0-1.28.63-2.73-.53-3.88h0c-1.33-.76-2.75-.34-4.13-.3l-6.82-.18a2.41,2.41,0,0,0-2-.42l-5.21-.7a1.3,1.3,0,0,0-1.38-.46c-1.68-.87-2.1-.47-2.1,1.5q.09,90.18,0,180.36a130.16,130.16,0,0,0,4.07,34.2h0c.43,1.59.81,3.19,1.27,4.77,4.14,14,9.84,27.51,14.72,41.28,2.78,7.87,8.07,23.82,8.07,23.82,3.38-12,4.59-13.62,7.26-21.45,3.17-9.35,6.76-18.57,10.17-27.84a162.21,162.21,0,0,0,5.59-18.17h0A90.22,90.22,0,0,0,283.31,456a194.19,194.19,0,0,0,1.24-20.46q0-79.93,0-159.88Zm-4.62,1.26a6.09,6.09,0,0,1,1.21,0C280.78,254.76,280.39,254.77,279.93,254.77Z"/><path class="cls-1" d="M458.43,364.58h0a2.35,2.35,0,0,0-.14-.86c-.73-1.22-.82-3.36-2.24-3.45-1.25-.08-1.54,2-2.17,3.13-6.2,11.27-14.65,20.13-26.66,25.31-5,2.17-10.39,3-15.66,4.28h0l-13.72-.07c-1.14-.82-2.48-.35-3.71-.6C373.72,388.09,357,378,343.86,361.65a88.85,88.85,0,0,1-15.08-28l-2.19-7.87h0v-.06c-.48-2.17-.71-4.41-1.85-6.39h.08c-.34-1.56-.93-2.21-2.07-.52a6,6,0,0,0-1.26,2.88.46.46,0,0,0-.3.67c-1.4,8.81-.91,17.62,0,26.43h0c.41,2.49.74,5,1.24,7.48,5.94,29,22.09,50.68,47,66.2,8.84,5.51,18.35,9.87,26.9,15.84,12.33,8.59,21.68,18.93,20.24,35.41h0a52.84,52.84,0,0,1-3.95,13.55h0a6.28,6.28,0,0,0-.56,1c-.29.89-1.51,1.65-.9,2.58.71,1.11,1.91.36,2.94.21a26.48,26.48,0,0,0,14.8-7.64c14.92-14.38,16.42-37.61,3.72-55.21-3.32-4.6-7.43-8.47-11.72-12.88,20.34-2.14,34.74-11.07,39.61-31.67C461.22,377.15,461.38,370.7,458.43,364.58ZM416.89,473.72a.44.44,0,0,0,.2-.08h0a.32.32,0,0,1,0,.09h-.17Z"/></svg>