<svg id="Layer_1" data-name="Layer 1" xmlns="http://www.w3.org/2000/svg" viewBox="0 0 285.67 368.99"><defs><style>.cls-1{fill:#233565;}</style></defs><path class="cls-1" d="M175.87,76.65h0a21.84,21.84,0,0,0-9.05-15.55c-1.78-1.33-4-1.42-5.79-2.72a8.82,8.82,0,0,0-3.13-.67h0a.68.68,0,0,0-.78-.25c-3.7,0-7.4-.12-11.1-.1-6.06,0-12.12-.19-18.18.15h0c-.81.16-1.64.26-2.44.47C113.19,61.26,106.13,76,111.33,87.73c3.17,7.11,8.79,11.23,16.54,12.34l30.29,0h0c8.56-1.47,14.11-6.44,16.9-14.6A23.57,23.57,0,0,0,175.87,76.65Z"/><path class="cls-1" d="M161.29,171.81l-3,.82-5.2,1-2.93.13h0a7.28,7.28,0,0,0-3.08.21c-.82.65-.38,1.55-.38,2.31-.23,44.28.45,88.56-.43,132.83a2.38,2.38,0,0,0-.3,1.67c-.24,1.69-.51,3.37-.7,5.06-.39,3.35-1.57,6.53-2.09,9.85-.3-.21-.34,1.19-.67.16-.6-1.82-1-3.69-1.51-5.54l-1.32-8.29h0a1,1,0,0,0-.24-.95l-.15-5.71h0a12.69,12.69,0,0,0-.23-3.84c0-1.92,0-3.85,0-5.77q0-59.64,0-119.27c0-.84.4-1.79-.35-2.54h0c-.87-.5-1.8-.22-2.71-.2l-4.45-.12a1.63,1.63,0,0,0-1.32-.27l-3.41-.46a.86.86,0,0,0-.9-.3c-1.1-.56-1.37-.31-1.37,1q.06,59,0,118a85.12,85.12,0,0,0,2.66,22.36h0c.28,1.05.53,2.09.83,3.13,2.7,9.17,6.44,18,9.63,27,1.82,5.15,5.28,15.58,5.28,15.58,2.21-7.85,3-8.91,4.74-14,2.08-6.11,4.43-12.14,6.66-18.21a106.52,106.52,0,0,0,3.65-11.88h0a59.14,59.14,0,0,0,2.56-11.23,127.26,127.26,0,0,0,.81-13.38q0-52.29,0-104.57Zm-3,.82a5.19,5.19,0,0,1,.79,0Z"/></svg>