<svg id="Layer_1" data-name="Layer 1" xmlns="http://www.w3.org/2000/svg" viewBox="0 0 566.93 566.93"><defs><style>.cls-1{fill:#aa5c9d;}</style></defs><path class="cls-1" d="M316.5,175.62h0a21.82,21.82,0,0,0-9.06-15.55c-1.77-1.33-4-1.43-5.78-2.72a8.62,8.62,0,0,0-3.13-.68h0a.71.71,0,0,0-.78-.25c-3.7,0-7.4-.11-11.1-.09-6.06,0-12.12-.19-18.18.15h0c-.81.16-1.64.26-2.44.47-12.21,3.28-19.28,18-14.07,29.75,3.17,7.11,8.79,11.23,16.54,12.34l30.28,0h0c8.56-1.48,14.11-6.45,16.9-14.6A23.57,23.57,0,0,0,316.5,175.62Z"/><path class="cls-1" d="M301.92,270.78l-3,.82-5.2,1-2.93.12h0a7.44,7.44,0,0,0-3.08.22c-.82.65-.38,1.55-.38,2.31-.23,44.27.45,88.55-.43,132.83a2.38,2.38,0,0,0-.3,1.67c-.24,1.69-.51,3.37-.7,5.06-.39,3.35-1.57,6.53-2.09,9.84-.3-.2-.34,1.2-.67.17-.6-1.82-1-3.69-1.51-5.54L280.29,411h0a1,1,0,0,0-.24-.95l-.15-5.72h0a12.64,12.64,0,0,0-.23-3.83c0-1.93,0-3.85,0-5.77q0-59.64-.05-119.27c0-.84.4-1.79-.35-2.54h0a4.73,4.73,0,0,0-2.71-.2l-4.45-.12a1.59,1.59,0,0,0-1.32-.27l-3.41-.46a.84.84,0,0,0-.9-.3c-1.1-.57-1.37-.31-1.37,1q0,59,0,118a84.72,84.72,0,0,0,2.66,22.37h0c.28,1,.53,2.09.83,3.12,2.7,9.18,6.44,18,9.63,27,1.82,5.15,5.28,15.58,5.28,15.58,2.21-7.85,3-8.91,4.74-14,2.08-6.12,4.42-12.14,6.66-18.21a106.52,106.52,0,0,0,3.65-11.88h0a58.36,58.36,0,0,0,2.55-11.23,124.82,124.82,0,0,0,.82-13.39q0-52.28,0-104.56Zm-3,.82a5.19,5.19,0,0,1,.79,0Z"/></svg>