<svg width="60" height="77" viewBox="0 0 60 77" fill="none" xmlns="http://www.w3.org/2000/svg">
<path d="M36.9384 15.9951C36.8718 15.3512 36.6677 14.7287 36.34 14.1692C36.0122 13.6097 35.5683 13.1259 35.0377 12.7502C34.6638 12.4727 34.1975 12.4539 33.8216 12.1826C33.6128 12.0966 33.39 12.0492 33.1642 12.0428C33.1463 12.0176 33.1206 11.9989 33.091 11.9894C33.0615 11.98 33.0296 11.9804 33.0003 11.9906C32.2232 11.9906 31.4461 11.9656 30.669 11.9698C29.3962 11.9698 28.1234 11.9301 26.8506 12.0011C26.6805 12.0344 26.5061 12.0553 26.3381 12.0991C23.7736 12.7836 22.2908 15.8595 23.3829 18.3073C24.0488 19.791 25.2291 20.6507 26.8569 20.8824H33.2188C35.0167 20.5756 36.1823 19.5385 36.7683 17.8357C36.9416 17.2384 36.9993 16.6138 36.9384 15.9951Z" fill="#CE433A"/>
<path d="M33.8761 35.8529L33.246 36.024L32.1539 36.2327L31.5385 36.2598C31.3222 36.2283 31.1016 36.2433 30.8916 36.3037C30.7193 36.4393 30.8118 36.6271 30.8118 36.7857C30.7634 46.026 30.9063 55.2662 30.7214 64.5044C30.6581 64.6089 30.6356 64.733 30.6584 64.8529C30.608 65.2055 30.5513 65.5561 30.5114 65.9088C30.4295 66.6078 30.1817 67.2714 30.0724 67.9643C30.0094 67.9204 30.001 68.2126 29.9317 67.9976C29.8057 67.6178 29.7217 67.2276 29.6146 66.8416L29.3373 65.1116C29.3467 65.0771 29.3471 65.0407 29.3382 65.0059C29.3294 64.9712 29.3117 64.9394 29.2869 64.9134L29.2554 63.7218C29.2804 63.4538 29.2641 63.1836 29.2071 62.9205C29.2071 62.5198 29.2071 62.1171 29.2071 61.7164C29.2071 53.4194 29.2071 45.1231 29.2071 36.8274C29.2071 36.6522 29.2911 36.4539 29.1336 36.2974C28.9509 36.1931 28.7555 36.2515 28.5644 36.2557L27.6298 36.2306C27.5903 36.2021 27.5451 36.1824 27.4973 36.1727C27.4495 36.1629 27.4001 36.1635 27.3525 36.1743L26.6363 36.0783C26.6144 36.0506 26.5849 36.0299 26.5513 36.0188C26.5177 36.0076 26.4815 36.0066 26.4473 36.0157C26.2162 35.8988 26.1595 35.951 26.1595 36.2244C26.1679 44.4324 26.1679 52.6403 26.1595 60.8483C26.137 62.4214 26.3248 63.9905 26.7182 65.5144C26.777 65.7335 26.8295 65.9505 26.8925 66.1675C27.4596 68.0811 28.2452 69.9237 28.9152 71.8018C29.2974 72.8765 30.0241 75.053 30.0241 75.053C30.4883 73.4149 30.6542 73.1937 31.0197 72.1315C31.4566 70.8565 31.9501 69.5982 32.4185 68.3315C32.7224 67.5207 32.9784 66.6929 33.1851 65.8524C33.4407 65.0905 33.6207 64.3057 33.7228 63.509C33.8288 62.5819 33.8856 61.6499 33.8929 60.7169C33.8929 53.4424 33.8929 46.1686 33.8929 38.8954L33.8761 35.8529ZM33.246 36.024C33.3013 36.0198 33.3567 36.0198 33.412 36.024H33.246Z" fill="#CE433A"/>
<path d="M36.8502 24.3193C36.6514 23.3287 36.1304 22.4305 35.3674 21.763C35.2791 21.6816 35.214 21.5105 35.0292 21.6274C34.6301 21.8757 34.1639 21.9675 33.7396 22.1553C33.4668 22.1976 33.192 22.2254 32.9163 22.2388C30.921 22.2388 28.9257 22.2388 26.9283 22.2388C26.273 22.1011 25.5988 22.0301 24.996 21.7025C24.8447 21.6232 24.7985 21.7526 24.7229 21.8152C23.9298 22.4452 23.3836 23.3311 23.1792 24.3193C23.0332 25.0621 23.0332 25.826 23.1792 26.5688C23.8345 28.9478 25.2459 30.5546 27.7747 31.0241C29.2764 31.0805 30.7761 31.0784 32.2778 31.0241C32.6498 30.9996 33.0135 30.904 33.349 30.7424C35.1153 29.8534 36.3356 28.5137 36.8166 26.5688C36.9961 25.8308 37.0076 25.0623 36.8502 24.3193Z" fill="#CE433A"/>
</svg>
