<svg width="125" height="167" viewBox="0 0 125 167" fill="none" xmlns="http://www.w3.org/2000/svg">
<path d="M103.629 23.0122C104.912 21.9403 106.339 21.467 107.836 21.1356C112.328 20.1213 116.057 21.5245 119.014 24.8955C121.419 27.6241 121.809 32.5843 120.007 35.7457C119.283 36.9643 118.191 37.9221 116.887 38.4811C116.765 38.5619 116.621 38.6013 116.475 38.5933C116.329 38.5854 116.19 38.5306 116.077 38.4371C115.83 38.1903 116.094 37.9638 116.186 37.7609C117.392 34.897 116.752 31.6984 114.645 30.0687C112.029 28.04 108.595 27.9825 106.078 30.1228C101.528 33.9875 99.8889 38.9714 100.871 44.8005C101.386 47.8436 102.904 51.431 104.34 53.4022C103.324 53.2771 102.697 52.5367 101.969 52.0193C97.2535 48.6382 95.0855 43.9485 94.6587 38.2207C94.3775 34.4744 95.2616 30.9918 96.288 27.5058C97.4838 23.4483 97.7887 19.3639 96.7216 15.2287C96.0645 12.6624 94.9873 10.3699 92.6567 8.85516C90.0077 7.12738 85.7666 8.55762 85.6447 12.304C85.6244 13.0106 85.4313 12.9532 84.9435 12.6624C82.9551 11.4688 82.3995 8.41561 83.7884 6.19079C85.6176 3.28974 89.1778 1.91698 92.9785 2.70479C97.8226 3.68534 100.854 6.76221 102.731 11.1577C104.12 14.424 103.971 17.8288 103.659 21.2506C103.618 21.6631 103.598 22.0756 103.581 22.4915C103.587 22.6658 103.603 22.8396 103.629 23.0122Z" fill="#CE433A"/>
<path d="M21.3714 23.0127C20.0875 21.9409 18.6614 21.4675 17.1642 21.1362C12.6758 20.1218 8.94623 21.525 5.98561 24.8961C3.58053 27.6247 3.18758 32.5849 4.9897 35.7463C5.71411 36.9641 6.80626 37.9216 8.10954 38.4816C8.23119 38.5624 8.37575 38.6018 8.52165 38.5939C8.66755 38.586 8.80698 38.5312 8.91913 38.4377C9.16642 38.1909 8.9022 37.9643 8.81074 37.7615C7.60481 34.8976 8.24503 31.699 10.352 30.0693C12.9671 28.0406 16.402 27.9831 18.9189 30.1234C23.4682 33.9881 25.1077 38.9719 24.1254 44.8011C23.6105 47.8441 22.0929 51.4316 20.6566 53.4028C21.6729 53.2777 22.2995 52.5372 23.0278 52.0199C27.7432 48.6387 29.9111 43.949 30.3413 38.2213C30.6191 34.4749 29.735 30.9923 28.7086 27.5063C27.5128 23.4489 27.2079 19.3644 28.275 15.2293C28.9321 12.6629 30.0127 10.3705 32.3399 8.85572C34.9889 7.12794 39.23 8.55818 39.3519 12.3045C39.3756 13.0112 39.5653 12.9537 40.0531 12.6629C42.0415 11.4694 42.5971 8.41617 41.2082 6.19135C39.4095 3.30382 35.8459 1.93106 32.0621 2.70197C27.2181 3.68251 24.1863 6.75939 22.3097 11.1549C20.9208 14.4212 21.0699 17.826 21.3849 21.2478C21.4222 21.6603 21.4425 22.0728 21.4594 22.4887C21.4399 22.6649 21.4105 22.8398 21.3714 23.0127Z" fill="#CE433A"/>
<path d="M60.0492 127.545V125.959L59.9916 126.128L54.8427 108.377C54.8156 108.871 54.7919 109.368 54.7648 109.865C54.7068 110.012 54.6614 110.163 54.6293 110.318C53.7209 117.499 51.3137 124.41 47.5631 130.605C46.0828 133.053 44.284 135.268 41.6926 136.664C40.1937 137.541 38.4303 137.855 36.7199 137.55C33.5357 136.955 32.6211 132.684 34.4706 130.7C34.745 130.405 35.0126 130.111 35.3242 129.77C34.0404 129.519 32.0791 130.064 31.1916 130.845C28.8644 132.874 27.9735 135.44 28.6916 138.429C29.1862 140.485 30.1076 142.446 32.113 143.413C34.742 144.733 37.7606 145.06 40.612 144.332C41.8722 144.015 43.1154 143.639 44.5042 143.173C42.7156 145.675 40.8051 147.758 38.2137 149.11C36.249 150.124 34.2064 150.506 32.0012 149.891C28.9525 149.046 26.1375 147.717 23.3022 146.392C21.8709 145.683 20.3732 145.117 18.8308 144.701C14.2679 143.582 10.2165 145.313 8.15696 149.357C7.03572 151.555 6.87989 153.935 7.14073 156.363C7.72337 161.948 13.4312 165.81 18.7732 164.156C20.3318 163.67 21.6973 162.706 22.6755 161.401C19.7149 162.172 17.7129 161.844 15.9007 160.342C15.2216 159.79 14.6971 159.072 14.378 158.258C14.0589 157.444 13.956 156.561 14.0794 155.696C14.2028 154.83 14.5482 154.011 15.0822 153.318C15.6162 152.625 16.3205 152.082 17.1269 151.741C18.9731 150.933 20.8531 150.946 22.7602 151.467C26.0867 152.373 29.3623 153.465 32.7871 153.979C35.6393 154.408 38.3052 154.111 40.7577 152.407C42.3156 151.352 43.7556 150.133 45.053 148.772C50.1985 143.247 54.4226 137.053 58.2471 130.574C58.8263 129.594 59.3717 128.596 60.0018 127.487L60.0492 127.545Z" fill="#CE433A"/>
<path d="M64.8763 127.545V125.959L64.9339 126.128L70.0828 108.377C70.1099 108.871 70.137 109.368 70.1607 109.865C70.2198 110.011 70.2662 110.163 70.2996 110.318C71.2048 117.5 73.6122 124.411 77.3658 130.605C78.8427 133.053 80.6415 135.268 83.2328 136.664C84.7319 137.541 86.4952 137.855 88.2056 137.55C91.3932 136.955 92.3078 132.684 90.4549 130.7C90.1805 130.405 89.9129 130.111 89.6012 129.77C90.8851 129.519 92.8464 130.064 93.7373 130.845C96.0611 132.874 96.952 135.44 96.2338 138.429C95.7393 140.485 94.8179 142.446 92.8125 143.413C90.1835 144.733 87.1648 145.06 84.3134 144.332C83.0533 144.015 81.8101 143.639 80.4213 143.173C82.2098 145.675 84.1204 147.758 86.7185 149.11C88.6799 150.124 90.7259 150.506 92.9277 149.891C95.9764 149.046 98.7914 147.717 101.627 146.392C103.058 145.683 104.556 145.117 106.098 144.701C110.664 143.582 114.712 145.313 116.775 149.357C117.893 151.555 118.052 153.935 117.792 156.363C117.209 161.948 111.501 165.81 106.162 164.156C104.603 163.669 103.237 162.705 102.257 161.401C105.217 162.172 107.223 161.844 109.032 160.342C109.711 159.79 110.235 159.072 110.554 158.258C110.873 157.444 110.976 156.561 110.853 155.696C110.729 154.83 110.384 154.011 109.85 153.318C109.316 152.625 108.612 152.082 107.805 151.741C105.959 150.933 104.079 150.946 102.172 151.467C98.8489 152.373 95.5733 153.465 92.1452 153.979C89.293 154.408 86.6304 154.111 84.1746 152.407C82.6123 151.354 81.1688 150.135 79.8691 148.772C74.7236 143.247 70.4994 137.053 66.6581 130.574C66.0822 129.594 65.5335 128.596 64.9034 127.487L64.8763 127.545Z" fill="#CE433A"/>
<path d="M39.9244 126.909C40.2326 127.119 40.5443 127.322 40.8593 127.521C40.8593 127.521 30.9375 108.421 29.6977 92.8844C29.3861 88.9656 29.1659 85.0536 28.9728 81.1348C28.7492 76.6311 28.0988 72.1983 25.9918 68.1409C23.6816 63.698 20.1925 60.8376 14.9556 60.726C10.2843 60.6245 6.06352 63.8333 5.13197 68.0665C4.43416 71.1907 5.96529 73.8889 8.89881 74.6903C9.05463 74.4637 8.89881 74.2507 8.82767 74.058C7.81144 70.7647 10.6027 68.2592 13.2686 68.2153C15.9345 68.1713 17.8247 69.5678 19.2542 71.6945C21.6525 75.2617 22.5231 79.3157 22.8314 83.4949C23.0888 86.9538 22.5807 90.4939 23.2345 93.9055C25.958 108.161 29.5351 113.608 32.1265 118.679C33.6746 121.695 36.9333 125.05 39.3045 126.679C39.53 126.69 39.7466 126.77 39.9244 126.909Z" fill="#CE433A"/>
<path d="M85.0756 126.909C84.7673 127.119 84.4557 127.322 84.1407 127.521C84.1407 127.521 94.0625 108.421 95.3023 92.8844C95.6173 88.9656 95.8341 85.0536 96.0306 81.1348C96.2508 76.6311 96.9012 72.1983 99.0082 68.1409C101.318 63.698 104.807 60.8376 110.044 60.726C114.716 60.6245 118.936 63.8333 119.868 68.0665C120.566 71.1907 119.035 73.8889 116.105 74.6903C115.945 74.4637 116.105 74.2507 116.172 74.058C117.189 70.7647 114.397 68.2592 111.735 68.2153C109.072 68.1713 107.175 69.5678 105.746 71.6945C103.347 75.2617 102.48 79.3157 102.169 83.4949C101.915 86.9538 102.419 90.4939 101.766 93.9055C99.0285 108.161 95.4513 113.618 92.8599 118.669C91.3254 121.685 88.0735 125.039 85.7023 126.669C85.4733 126.681 85.254 126.765 85.0756 126.909Z" fill="#CE433A"/>
</svg>
