<svg xmlns="http://www.w3.org/2000/svg" viewBox="0 0 371.66 471.35"><defs><style>.cls-1{fill:#717071;}.cls-1,.cls-2{stroke:#000;stroke-linecap:round;stroke-linejoin:round;}.cls-2{fill:#666766;}</style></defs><g id="dalam"><path class="cls-1" d="M233.7,18.68c-2.23,5.43-7.19,8.3-12.62,12.38-5.75,4.31-27.9,13.66-34.94,13.66S163.9,38,154.69,33c-5.95-3.23-14.19-8.21-16.11-14.3,16.43,1.21,29.53,2.88,47.56,2.88S217.27,19.89,233.7,18.68Z"/></g><g id="kerah_koko" data-name="kerah koko"><path class="cls-2" d="M142,9.24a27.66,27.66,0,0,0,2.74,10.33c1.79.42.21.78,2,1.09,12.58,2.2,26.6,2.74,39.4,2.74s26.82-.54,39.4-2.74c2.23-.39,1-.82,3.14-1.38a39.51,39.51,0,0,0,1.52-10c-16.44,1.21-26,2.88-44.06,2.88S158.41,10.45,142,9.24Z"/><path class="cls-2" d="M230.29,9.24S219,17.67,209.07,22.77c-10.39,5.31-16.36,5.54-20.14,8.15-2.84,2-.6,13.8-.6,13.8s15.65-5,26.95-10.56,24.89-15.44,24.89-15.44Z"/><path class="cls-2" d="M142,9.24s11.24,8.43,21.21,13.53c10.39,5.31,16.36,5.54,20.14,8.15,2.84,2,.6,13.8.6,13.8s-15.65-5-26.94-10.56-24.9-15.44-24.9-15.44Z"/></g></svg>