<svg width="80" height="103" viewBox="0 0 80 103" fill="none" xmlns="http://www.w3.org/2000/svg">
<path d="M46.2772 7.30232C47.3273 6.15784 48.3383 5.02453 49.5089 3.90797C49.8599 4.87615 50.0224 5.90218 49.9877 6.93106C49.9297 9.54503 48.9671 12.0587 47.2629 14.0463C47.1929 14.1273 47.1257 14.211 47.0557 14.2948C46.3332 15.1322 46.336 15.1322 45.3474 14.6967C44.6764 14.3924 43.9506 14.2262 43.2135 14.2083C41.2196 14.1859 39.2257 14.2083 37.2318 14.1859C36.152 14.1948 35.0893 14.4558 34.1289 14.948C34.0535 15.0065 33.9584 15.0337 33.8633 15.0238C33.7683 15.0139 33.6808 14.9677 33.6192 14.8949C30.9028 12.3157 29.2253 8.13695 30.4575 4.14524C30.4802 4.07788 30.5064 4.01173 30.5359 3.94705C31.6897 4.99383 32.7343 6.12155 33.8572 7.29674C34.0673 6.06014 34.5882 4.97708 35.039 3.86889C35.3051 3.21849 35.3191 3.22408 35.7699 3.77678C36.5547 4.69255 37.226 5.69911 37.7695 6.77474C38.2771 5.43649 38.9149 4.15096 39.6738 2.93656C39.9062 2.55693 40.0126 2.48715 40.2786 2.93656C40.9984 4.15082 41.7293 5.35392 42.1745 6.81382C42.7626 5.6191 43.5916 4.70073 44.3617 3.74328C44.6697 3.36086 44.7901 3.46414 44.9414 3.84656C45.3838 4.97708 45.9271 6.08247 46.2772 7.30232Z" fill="#1C1B1C"/>
<path d="M40.3262 46.7002C38.576 46.6751 36.9797 46.6611 35.4031 46.3513C34.9942 46.2703 34.8038 46.1363 34.829 45.6618C34.8794 44.7685 34.8458 43.8725 34.829 42.9765C34.829 42.6638 34.8626 42.527 35.2463 42.5996C38.394 43.1736 41.62 43.1736 44.7677 42.5996C45.1206 42.541 45.2102 42.6192 45.2046 42.9597C45.1878 43.9088 45.1766 44.8579 45.2046 45.8069C45.2186 46.1642 45.059 46.2619 44.7677 46.3178C43.3082 46.6238 41.8168 46.7522 40.3262 46.7002Z" fill="#1C1B1C"/>
<path d="M28.0491 60.2943C28.0515 60.1782 28.0203 60.0637 27.9592 59.9648C27.8981 59.8658 27.8098 59.7864 27.7047 59.7361C27.5759 59.6858 27.5507 59.8784 27.5031 59.9789C27.167 61.0806 26.8291 62.1841 26.4893 63.2895C26.4585 63.3481 26.4221 63.4068 26.3941 63.4682C24.8146 67.1863 22.3111 70.0866 18.7125 71.9959C17.3478 72.6773 15.89 73.1551 14.3858 73.4139H11.7618C11.7003 73.3778 11.6344 73.3497 11.5658 73.3302C7.99524 72.8724 5.40484 71.0301 3.74698 67.8535C3.66297 67.6916 3.61816 67.485 3.39692 67.3929C3.23473 67.5744 3.13641 67.8038 3.11688 68.0461C3.03007 68.0461 3.02727 68.1326 3.00206 68.1968C2.44198 69.4808 2.44198 70.804 2.70522 72.1466C3.45853 74.7957 5.26201 76.3896 7.83561 77.1907C8.46291 77.3861 9.11821 77.495 9.85192 77.6625C9.40105 78.0951 9.01179 78.4608 8.62813 78.8432C6.66783 80.8195 5.78569 83.1783 6.25617 85.9446C6.38023 86.8123 6.67822 87.6462 7.13239 88.3967C7.58656 89.1472 8.18763 89.799 8.89978 90.3131C9.60851 90.8557 10.4458 91.2066 11.3306 91.332C11.5294 91.3571 11.8374 91.4213 11.6302 91.0528C11.2465 90.3661 11.0701 89.6097 10.7901 88.8839C10.5262 87.5956 10.6701 86.2574 11.2017 85.0541C12.0419 83.5495 13.2601 82.4385 14.6771 81.4951C15.9093 80.6716 17.2171 79.9821 18.4941 79.2396C21.5045 77.495 24.0137 75.2311 25.8116 72.2332C26.9997 70.1898 27.7804 67.9367 28.1108 65.598C28.1108 65.5701 28.094 65.545 28.0884 65.5198C28.0884 65.545 28.0883 65.5701 28.1108 65.598C28.178 64.9811 28.2648 64.3698 28.3068 63.7529C28.3824 62.5777 28.4048 61.4109 28.0491 60.2943Z" fill="#1C1B1C"/>
<path d="M28.2592 40.8187C28.2404 40.0337 28.1466 39.2523 27.9791 38.4851C27.9511 38.3092 27.9315 38.1306 27.8951 37.9575C26.7553 32.8409 23.8373 28.9971 19.421 26.2336C17.3963 24.9719 15.2204 23.9614 13.3469 22.4401C10.8265 20.3772 9.80432 17.7784 11.2745 14.5823C11.4062 14.3032 11.7954 13.9403 11.5546 13.7002C11.3138 13.4601 10.8713 13.7002 10.5408 13.8258C8.24448 14.6214 6.97588 16.3213 6.35698 18.588C6.12488 19.4992 6.05381 20.4438 6.14695 21.3794C6.427 23.9112 7.85522 25.8037 9.72871 27.5204C8.07085 27.7996 6.54741 28.182 5.29002 29.1953C4.03262 30.2086 3.04967 31.3949 2.69682 33.0111C2.49519 34.0069 2.49519 35.0328 2.69682 36.0286C2.83107 36.6618 3.1004 37.2587 3.48654 37.7789C3.61256 37.5276 3.71337 37.3211 3.81979 37.1145C5.1864 34.4906 7.33153 32.8185 10.146 31.9616C11.6165 31.5925 13.1451 31.5128 14.6463 31.7271C14.6737 31.759 14.7093 31.7828 14.7492 31.7961C14.7892 31.8094 14.832 31.8116 14.8731 31.8025C15.6432 31.8974 16.3657 32.1905 17.1135 32.3607C17.17 32.398 17.229 32.4315 17.2899 32.4612C21.3869 33.9993 24.2434 36.8381 26.0328 40.7796C26.6151 42.0731 27.1018 43.4072 27.4891 44.7713C27.5255 44.9025 27.5367 45.0951 27.6767 45.1258C27.8755 45.1677 27.9035 44.936 27.9959 44.816C28.0458 44.7428 28.0802 44.6601 28.0968 44.5731C28.3808 43.3421 28.4358 42.0695 28.2592 40.8187ZM28.1864 40.8187C28.1864 40.7461 28.1864 40.6735 28.1864 40.601C28.1864 40.6819 28.2032 40.7629 28.206 40.8466C28.2032 40.8466 28.1864 40.8326 28.1864 40.8243V40.8187Z" fill="#1C1B1C"/>
<path d="M77.292 33.0223C76.5975 30.3565 74.8668 28.7068 72.2512 27.9447C71.6127 27.7577 70.9546 27.6349 70.2377 27.4674C70.9549 26.8256 71.6112 26.1192 72.198 25.3571C74.2171 22.6578 74.4243 19.0904 72.6685 16.4609C71.7667 15.1099 70.6018 14.0575 68.9495 13.6695C68.7535 13.6248 68.5014 13.5606 68.3894 13.6835C68.2158 13.8509 68.4538 14.0268 68.5294 14.1915C69.4144 16.0366 69.7224 17.9124 68.7647 19.8273C67.9021 21.5496 66.4711 22.7164 64.8581 23.6934C62.6961 25.0026 60.4614 26.2057 58.4759 27.7884C55.3954 30.2672 53.183 33.2959 52.3149 37.201C52.2349 37.4593 52.1878 37.7266 52.1749 37.9966C52.134 38.029 52.1042 38.0733 52.0897 38.1233C52.0751 38.1733 52.0765 38.2265 52.0937 38.2757C52.0112 38.5894 51.966 38.9117 51.9593 39.236C51.9268 39.2635 51.9027 39.2995 51.8898 39.34C51.877 39.3805 51.8758 39.4237 51.8864 39.4649C51.7246 40.8152 51.6871 42.1775 51.7744 43.5347C51.864 44.107 51.8444 44.7211 52.4129 45.2096L53.2839 42.4852L53.5947 41.7678C55.3282 37.7482 57.9186 34.5241 62.0548 32.7376C63.3812 32.1857 64.7748 31.8103 66.1995 31.621C67.0938 31.5749 67.9905 31.6057 68.8795 31.7131C68.9562 31.7565 69.0381 31.7903 69.1231 31.8136C70.6858 32.0844 72.1594 32.7287 73.4177 33.6913C74.676 34.6538 75.6816 35.906 76.3482 37.3406C76.3986 37.4439 76.4098 37.6197 76.5527 37.6197C76.6955 37.6197 76.7599 37.4578 76.8327 37.3406C77.1246 36.7926 77.3197 36.1987 77.4096 35.5848C77.5172 34.7302 77.4774 33.8635 77.292 33.0223Z" fill="#1C1B1C"/>
<path d="M77.0119 68.2359C77.0127 68.1827 77.0042 68.1298 76.9867 68.0796C76.8523 67.8562 76.8355 67.4654 76.5751 67.4487C76.3146 67.4319 76.295 67.8116 76.1774 68.0209C75.0572 70.0782 73.4946 71.6944 71.2962 72.6407C70.3721 73.0371 69.3919 73.199 68.4286 73.4223H65.9082C65.701 73.2716 65.4545 73.3581 65.2305 73.3106C61.5839 72.6128 58.3135 70.624 56.0227 67.7111C54.7996 66.1865 53.8632 64.454 53.2586 62.5972C53.127 62.1199 52.9786 61.6426 52.861 61.1625C52.81 60.7573 52.6957 60.3627 52.5221 59.9929H52.5389C52.4745 59.7137 52.3681 59.5909 52.1581 59.8979C52.0356 60.0505 51.9555 60.2324 51.9256 60.4255C51.9131 60.4282 51.9013 60.4338 51.8913 60.4419C51.8814 60.4499 51.8735 60.4603 51.8683 60.472C51.8631 60.4837 51.8607 60.4965 51.8615 60.5093C51.8622 60.5221 51.8659 60.5345 51.8724 60.5455C51.6596 62.1473 51.6596 63.7701 51.8724 65.3719C51.948 65.8269 52.0069 66.2847 52.0993 66.7369C53.1886 72.0238 56.1459 75.9876 60.705 78.8237C62.3237 79.8286 64.0655 80.6241 65.631 81.7128C67.8909 83.2815 69.602 85.1713 69.3359 88.1777C69.2081 89.0317 68.9651 89.8645 68.6134 90.6536C68.5744 90.7119 68.5406 90.7736 68.5126 90.8379C68.4594 90.997 68.2326 91.1365 68.3474 91.3096C68.4622 91.4827 68.6974 91.3738 68.8851 91.3459C69.916 91.184 70.8668 90.6945 71.5959 89.9502C74.3291 87.3263 74.6036 83.0861 72.2764 79.8704C71.6189 79.0366 70.902 78.2511 70.1313 77.5201C73.8558 77.1293 76.4938 75.4991 77.3844 71.7391C77.5244 70.5304 77.5524 69.3524 77.0119 68.2359ZM69.4031 88.1609C69.4164 88.1582 69.4289 88.1525 69.4396 88.1442C69.4408 88.1497 69.4408 88.1554 69.4396 88.1609H69.4088H69.4031Z" fill="#1C1B1C"/>
</svg>
