<svg width="80" height="103" viewBox="0 0 80 103" fill="none" xmlns="http://www.w3.org/2000/svg">
<path d="M46.2771 7.30232C47.3273 6.15784 48.3383 5.02453 49.5088 3.90797C49.8599 4.87615 50.0224 5.90218 49.9877 6.93106C49.9296 9.54503 48.967 12.0587 47.2629 14.0463C47.1929 14.1273 47.1257 14.211 47.0557 14.2948C46.3332 15.1322 46.336 15.1322 45.3474 14.6967C44.6763 14.3924 43.9505 14.2262 43.2135 14.2083C41.2196 14.1859 39.2256 14.2083 37.2317 14.1859C36.1519 14.1948 35.0892 14.4558 34.1289 14.948C34.0535 15.0065 33.9583 15.0337 33.8633 15.0238C33.7683 15.0139 33.6808 14.9677 33.6192 14.8949C30.9028 12.3157 29.2253 8.13695 30.4575 4.14524C30.4802 4.07788 30.5064 4.01173 30.5359 3.94705C31.6897 4.99383 32.7342 6.12155 33.8572 7.29674C34.0673 6.06014 34.5881 4.97708 35.039 3.86889C35.305 3.21849 35.319 3.22408 35.7699 3.77678C36.5546 4.69255 37.226 5.69911 37.7694 6.77474C38.277 5.43649 38.9148 4.15096 39.6737 2.93656C39.9062 2.55693 40.0126 2.48715 40.2786 2.93656C40.9983 4.15082 41.7292 5.35392 42.1745 6.81382C42.7626 5.6191 43.5915 4.70073 44.3616 3.74328C44.6697 3.36086 44.7901 3.46414 44.9413 3.84656C45.3838 4.97708 45.9271 6.08247 46.2771 7.30232Z" fill="#9AC552"/>
<path d="M40.3262 46.7002C38.576 46.6751 36.9797 46.6611 35.4031 46.3513C34.9942 46.2703 34.8038 46.1363 34.829 45.6618C34.8794 44.7685 34.8458 43.8725 34.829 42.9765C34.829 42.6638 34.8626 42.527 35.2463 42.5996C38.394 43.1736 41.62 43.1736 44.7677 42.5996C45.1206 42.541 45.2102 42.6192 45.2046 42.9597C45.1878 43.9088 45.1766 44.8579 45.2046 45.8069C45.2186 46.1642 45.059 46.2619 44.7677 46.3178C43.3082 46.6238 41.8168 46.7522 40.3262 46.7002Z" fill="#9AC552"/>
<path d="M28.0492 60.2943C28.0515 60.1781 28.0203 60.0637 27.9592 59.9647C27.8982 59.8657 27.8098 59.7863 27.7047 59.736C27.5759 59.6858 27.5507 59.8784 27.5031 59.9789C27.167 61.0806 26.8291 62.1841 26.4893 63.2895C26.4585 63.3481 26.4221 63.4067 26.3941 63.4681C24.8147 67.1863 22.3111 70.0866 18.7125 71.9959C17.3478 72.6773 15.89 73.1551 14.3859 73.4139H11.7619C11.7003 73.3778 11.6345 73.3497 11.5658 73.3302C7.99527 72.8724 5.40487 71.03 3.74702 67.8534C3.663 67.6915 3.6182 67.485 3.39696 67.3928C3.23477 67.5744 3.13644 67.8037 3.11692 68.046C3.03011 68.046 3.02731 68.1326 3.0021 68.1968C2.44201 69.4808 2.44201 70.8039 2.70526 72.1466C3.45857 74.7956 5.26205 76.3895 7.83565 77.1907C8.46295 77.3861 9.11825 77.4949 9.85196 77.6624C9.40109 78.0951 9.01183 78.4608 8.62817 78.8432C6.66787 80.8195 5.78573 83.1782 6.25621 85.9445C6.38027 86.8122 6.67826 87.6462 7.13243 88.3967C7.5866 89.1472 8.18766 89.7989 8.89982 90.3131C9.60854 90.8556 10.4458 91.2066 11.3306 91.3319C11.5294 91.357 11.8375 91.4213 11.6302 91.0528C11.2466 90.3661 11.0702 89.6096 10.7901 88.8839C10.5263 87.5956 10.6701 86.2574 11.2018 85.0541C12.0419 83.5495 13.2601 82.4385 14.6771 81.495C15.9093 80.6716 17.2171 79.9821 18.4941 79.2396C21.5046 77.4949 24.0138 75.2311 25.8116 72.2331C26.9997 70.1897 27.7804 67.9367 28.1108 65.598C28.1108 65.5701 28.094 65.5449 28.0884 65.5198C28.0884 65.5449 28.0884 65.5701 28.1108 65.598C28.178 64.9811 28.2648 64.3698 28.3068 63.7529C28.3824 62.5777 28.4048 61.4109 28.0492 60.2943Z" fill="#9AC552"/>
<path d="M28.2592 40.8187C28.2404 40.0337 28.1467 39.2523 27.9792 38.4851C27.9512 38.3092 27.9316 38.1306 27.8952 37.9575C26.7554 32.8409 23.8374 28.9971 19.4211 26.2336C17.3964 24.9719 15.2204 23.9614 13.3469 22.4401C10.8265 20.3772 9.80438 17.7784 11.2746 14.5823C11.4062 14.3032 11.7955 13.9403 11.5546 13.7002C11.3138 13.4601 10.8713 13.7002 10.5409 13.8258C8.24454 14.6214 6.97594 16.3213 6.35705 18.588C6.12494 19.4992 6.05387 20.4438 6.14701 21.3794C6.42706 23.9112 7.85528 25.8037 9.72877 27.5204C8.07091 27.7996 6.54747 28.182 5.29008 29.1953C4.03268 30.2086 3.04973 31.3949 2.69688 33.0111C2.49525 34.0069 2.49525 35.0328 2.69688 36.0286C2.83113 36.6618 3.10046 37.2587 3.4866 37.7789C3.61262 37.5276 3.71344 37.3211 3.81985 37.1145C5.18646 34.4906 7.3316 32.8185 10.146 31.9616C11.6166 31.5925 13.1452 31.5128 14.6463 31.7271C14.6737 31.759 14.7093 31.7828 14.7493 31.7961C14.7892 31.8094 14.8321 31.8116 14.8732 31.8025C15.6433 31.8974 16.3658 32.1905 17.1135 32.3607C17.1701 32.398 17.229 32.4315 17.2899 32.4612C21.387 33.9993 24.2434 36.8381 26.0329 40.7796C26.6151 42.0731 27.1018 43.4072 27.4891 44.7713C27.5255 44.9025 27.5367 45.0951 27.6767 45.1258C27.8756 45.1677 27.9036 44.936 27.996 44.816C28.0459 44.7428 28.0802 44.6601 28.0968 44.5731C28.3808 43.3421 28.4359 42.0695 28.2592 40.8187ZM28.1864 40.8187C28.1864 40.7461 28.1864 40.6735 28.1864 40.601C28.1864 40.6819 28.2032 40.7629 28.206 40.8466C28.2032 40.8466 28.1864 40.8326 28.1864 40.8243V40.8187Z" fill="#9AC552"/>
<path d="M77.2919 33.0223C76.5974 30.3565 74.8667 28.7068 72.2511 27.9447C71.6126 27.7577 70.9545 27.6349 70.2376 27.4674C70.9549 26.8256 71.6111 26.1192 72.1979 25.3571C74.217 22.6578 74.4243 19.0904 72.6684 16.4609C71.7667 15.1099 70.6017 14.0575 68.9494 13.6695C68.7534 13.6248 68.5014 13.5606 68.3893 13.6835C68.2157 13.8509 68.4538 14.0268 68.5294 14.1915C69.4143 16.0366 69.7224 17.9124 68.7646 19.8273C67.9021 21.5496 66.471 22.7164 64.858 23.6934C62.6961 25.0026 60.4613 26.2057 58.4758 27.7884C55.3953 30.2672 53.183 33.2959 52.3149 37.201C52.2348 37.4593 52.1878 37.7266 52.1748 37.9966C52.1339 38.029 52.1042 38.0733 52.0896 38.1233C52.0751 38.1733 52.0765 38.2265 52.0936 38.2757C52.0111 38.5894 51.966 38.9117 51.9592 39.236C51.9267 39.2635 51.9027 39.2995 51.8898 39.34C51.8769 39.3805 51.8757 39.4237 51.8864 39.4649C51.7245 40.8152 51.687 42.1775 51.7744 43.5347C51.864 44.107 51.8444 44.7211 52.4129 45.2096L53.2838 42.4852L53.5947 41.7678C55.3281 37.7482 57.9185 34.5241 62.0548 32.7376C63.3812 32.1857 64.7747 31.8103 66.1994 31.621C67.0937 31.5749 67.9904 31.6057 68.8794 31.7131C68.9562 31.7565 69.038 31.7903 69.1231 31.8136C70.6858 32.0844 72.1594 32.7287 73.4177 33.6913C74.676 34.6538 75.6815 35.906 76.3482 37.3406C76.3986 37.4439 76.4098 37.6197 76.5526 37.6197C76.6954 37.6197 76.7598 37.4578 76.8327 37.3406C77.1245 36.7926 77.3197 36.1987 77.4095 35.5848C77.5171 34.7302 77.4774 33.8635 77.2919 33.0223Z" fill="#9AC552"/>
<path d="M77.0119 68.2359C77.0127 68.1827 77.0041 68.1298 76.9867 68.0796C76.8523 67.8562 76.8355 67.4654 76.575 67.4487C76.3146 67.4319 76.295 67.8116 76.1774 68.0209C75.0572 70.0782 73.4946 71.6944 71.2962 72.6407C70.3721 73.0371 69.3919 73.199 68.4286 73.4223H65.9082C65.7009 73.2716 65.4545 73.3581 65.2305 73.3106C61.5839 72.6128 58.3135 70.624 56.0226 67.7111C54.7995 66.1865 53.8631 64.454 53.2586 62.5972C53.127 62.1199 52.9786 61.6426 52.861 61.1625C52.81 60.7573 52.6957 60.3627 52.5221 59.9929H52.5389C52.4745 59.7137 52.3681 59.5909 52.158 59.8979C52.0356 60.0505 51.9554 60.2324 51.9256 60.4255C51.913 60.4282 51.9013 60.4338 51.8913 60.4419C51.8813 60.4499 51.8734 60.4603 51.8682 60.472C51.863 60.4837 51.8607 60.4965 51.8614 60.5093C51.8622 60.5221 51.8659 60.5345 51.8724 60.5455C51.6596 62.1473 51.6596 63.7701 51.8724 65.3719C51.948 65.8269 52.0068 66.2847 52.0992 66.7369C53.1886 72.0238 56.1459 75.9876 60.705 78.8237C62.3236 79.8286 64.0655 80.6241 65.6309 81.7128C67.8909 83.2815 69.6019 85.1713 69.3359 88.1777C69.2081 89.0317 68.965 89.8645 68.6134 90.6536C68.5744 90.7119 68.5406 90.7736 68.5126 90.8379C68.4594 90.997 68.2325 91.1365 68.3474 91.3096C68.4622 91.4827 68.6974 91.3738 68.885 91.3459C69.9159 91.184 70.8668 90.6945 71.5959 89.9502C74.3291 87.3263 74.6035 83.0861 72.2764 79.8704C71.6189 79.0366 70.902 78.2511 70.1312 77.5201C73.8558 77.1293 76.4938 75.4991 77.3844 71.7391C77.5244 70.5304 77.5524 69.3524 77.0119 68.2359ZM69.4031 88.1609C69.4164 88.1582 69.4289 88.1525 69.4395 88.1442C69.4407 88.1497 69.4407 88.1554 69.4395 88.1609H69.4087H69.4031Z" fill="#9AC552"/>
</svg>
