<svg id="Layer_1" data-name="Layer 1" xmlns="http://www.w3.org/2000/svg" viewBox="0 0 566.93 566.93"><defs><style>.cls-1{fill:#9ac552;}</style></defs><path class="cls-1" d="M297.32,125.09c4.36-1.41,7.9-2.8,11.56-3.68,6.29-1.52,12.48-1.32,18.37,1.83,8,4.29,11.47,14.07,7.39,22a13.08,13.08,0,0,1-4.41,4.53,3.3,3.3,0,0,1-5.06-1.35c-4.2-8.8-11.95-10.2-20.18-8.9-6.44,1-12.76,3.29-18.9,5.61-7.45,2.81-14.66,6.26-22.06,9.46,3.84.06,7.67,0,11.49.2,8.46.38,16,3.08,22,9.25,12.26,12.57,7.05,30.44-6.52,38.38-8,4.65-16.16,5.57-24.17-.06a11.48,11.48,0,0,1-4.94-11.3,4.38,4.38,0,0,1,2.32-2.93,3.68,3.68,0,0,1,3.26.94c3.12,3.43,4.92,4.15,8,2.64a8.22,8.22,0,0,0,4.14-9c-1.42-5.93-6-8.9-11.12-10.88-12.49-4.8-24.86-3.46-36.73,2-5.68,2.63-10.88,6.32-16.29,9.55a10.78,10.78,0,0,0-1.35,1.35c3.31-1,5.95-2.05,8.67-2.68,10.19-2.38,19.6,2.3,22.6,11.23,1.5,4.47,1.23,8.74-2.27,12.35-1.66,1.71-3.64,2.33-5.39.37-4-4.51-9.25-5.22-14.8-5.12-11.3.23-20.29,5.76-28.58,12.71a68.66,68.66,0,0,0-19,25.25c-.28.63-.41,1.5-.89,1.84-1.27.88-2.77,2.19-4,2.06-1-.11-2.62-2-2.68-3.19a52.28,52.28,0,0,1,.32-12.26c2.07-11.28,8.49-20.36,15.5-29.13,5.92-7.4,11.49-15.16,13.79-24.51.93-3.77.61-7.95.21-11.88-.17-1.72-1.69-3.54-3-4.85-3.08-3-6.25-2.67-9.23.48-2.29,2.41-3.65,2.12-4.62-1.14-1.75-5.92.31-10.92,4.28-15.15A15.58,15.58,0,0,1,201,136.5a18.12,18.12,0,0,1,14.29,17.1c.24,4.21-.45,8.48-.72,12.78,9.57-7.91,19.7-15.57,25.48-27.31,2.23-4.52,3.33-9.29,1.4-14.27-1.38-3.59-3.85-6-7.84-6.26-3.49-.23-5.63,1.61-7.46,5.92a26.78,26.78,0,0,1-1.36,2.44c-3.15-1.69-4.12-4.48-4.75-7.34-1.36-6.17,1.6-12.49,7.49-16.44,9.3-6.23,22.8-4.58,31.24,3.81a23.37,23.37,0,0,1,2.93,30l-.95,1.44.51.56c4-3.3,8.15-6.39,11.89-9.94,9.14-8.66,15.7-18.92,18.13-31.46,1.66-8.49.5-16.52-5.05-23.45-3.82-4.78-9-6.55-15-5.6a8.12,8.12,0,0,0-7.26,7.76c-.32,3.28,1.49,5.7,5.51,7.41,2.54,1.07,2.94,2.49,1.34,4.81-2.81,4.1-10.57,5.32-15.67,2.47-9.79-5.48-13.13-18.9-7.86-29.55,6.9-14,22.86-19.31,37.19-15.8,20.18,4.94,30.77,22.13,26.17,42.4-.39,1.73-.69,3.47-1.12,5.7,2.89-2.72,5.43-5.21,8.09-7.58,6.71-6,13.53-11.88,22.37-14.56,11-3.31,21.43-2.3,30.27,5.37,14.14,12.25,6,29.8-5.84,34.12-5.3,1.93-10.48,1.66-15-2.15a8.91,8.91,0,0,1-2-2.86c-.68-1.38-.33-2.41,1.34-2.89,4.08-1.17,5.6-2.76,5.58-5.61s-2.95-5.86-6.57-6.73c-4.67-1.13-9,.14-13.18,2-8.58,3.86-15.72,9.76-22.28,16.34C307.25,114.17,302.59,119.45,297.32,125.09Z"/><path class="cls-1" d="M269.6,441.84c-4.35,1.41-7.89,2.8-11.56,3.68-6.28,1.52-12.47,1.32-18.36-1.83-8-4.29-11.47-14.07-7.39-22a13.08,13.08,0,0,1,4.41-4.53,3.31,3.31,0,0,1,5.06,1.34c4.2,8.81,12,10.21,20.18,8.91,6.44-1,12.76-3.3,18.9-5.61,7.45-2.82,14.66-6.26,22.06-9.46-3.84-.06-7.67,0-11.49-.2-8.46-.39-16-3.08-22-9.25-12.26-12.57-7.05-30.44,6.52-38.38,7.95-4.65,16.15-5.57,24.17.06A11.47,11.47,0,0,1,305,375.9a4.38,4.38,0,0,1-2.32,2.93,3.68,3.68,0,0,1-3.26-.94c-3.12-3.44-4.92-4.15-8-2.64a8.23,8.23,0,0,0-4.13,8.95c1.42,5.93,6,8.9,11.12,10.88,12.49,4.8,24.86,3.45,36.72-2,5.69-2.63,10.89-6.32,16.3-9.55a10.39,10.39,0,0,0,1.35-1.36c-3.31,1-5.95,2.06-8.67,2.69-10.19,2.37-19.6-2.3-22.6-11.23-1.5-4.47-1.23-8.75,2.27-12.35,1.66-1.71,3.64-2.33,5.39-.37,4,4.51,9.25,5.22,14.79,5.11,11.31-.22,20.3-5.75,28.59-12.7a68.66,68.66,0,0,0,19-25.25c.28-.63.41-1.5.89-1.84,1.27-.88,2.77-2.19,4-2.06,1,.11,2.62,2,2.68,3.19a51.75,51.75,0,0,1-.33,12.26c-2.07,11.28-8.48,20.36-15.49,29.13-5.92,7.4-11.49,15.16-13.8,24.51-.93,3.77-.6,7.95-.2,11.88.17,1.72,1.69,3.54,3,4.85,3.08,3,6.25,2.67,9.23-.48,2.29-2.42,3.65-2.12,4.62,1.14,1.75,5.92-.31,10.92-4.28,15.15A15.58,15.58,0,0,1,366,430.43c-8.28-2.05-13.79-8.42-14.29-17.1-.24-4.21.45-8.48.72-12.78-9.57,7.91-19.7,15.57-25.48,27.31-2.23,4.52-3.33,9.29-1.4,14.27,1.38,3.59,3.85,6,7.84,6.25,3.49.24,5.63-1.6,7.46-5.91a25.51,25.51,0,0,1,1.36-2.44c3.15,1.69,4.12,4.48,4.75,7.34,1.35,6.17-1.6,12.49-7.49,16.44-9.3,6.23-22.8,4.58-31.24-3.81A23.37,23.37,0,0,1,305.28,430l1-1.44-.51-.56c-4,3.29-8.15,6.39-11.89,9.94-9.14,8.65-15.7,18.92-18.14,31.46-1.65,8.49-.49,16.52,5.06,23.45,3.82,4.78,9,6.55,15,5.6a8.12,8.12,0,0,0,7.26-7.76c.31-3.28-1.49-5.7-5.51-7.41-2.54-1.07-2.94-2.49-1.34-4.82,2.81-4.09,10.57-5.31,15.67-2.46,9.79,5.48,13.13,18.9,7.86,29.55-6.9,14-22.86,19.3-37.19,15.8-20.18-4.94-30.77-22.13-26.17-42.4.39-1.73.69-3.48,1.12-5.7-2.89,2.72-5.43,5.21-8.09,7.58-6.72,6-13.54,11.88-22.37,14.55-11,3.32-21.43,2.31-30.27-5.36-14.14-12.25-6-29.8,5.84-34.12,5.3-1.93,10.48-1.66,15,2.14a9.06,9.06,0,0,1,2,2.87c.68,1.38.33,2.4-1.34,2.89-4.08,1.17-5.6,2.76-5.58,5.6s2.95,5.87,6.57,6.74c4.67,1.13,9-.14,13.18-2,8.58-3.86,15.71-9.76,22.28-16.34C259.68,452.76,264.34,447.48,269.6,441.84Z"/></svg>