<svg id="badan" xmlns="http://www.w3.org/2000/svg" viewBox="0 0 371.66 471.35"><defs><style>.cls-1{fill:#d2d2d1;stroke:#010101;stroke-miterlimit:10;}</style></defs><path class="cls-1" d="M85,209.49s-5.81,25.27-8.85,33.34a59.08,59.08,0,0,1-10.59,17.48l-1.14,10.63s-11.32.78-20.89.78c-20.65,0-20.41-.58-20.41-.58l.18-10.83a34.24,34.24,0,0,1-8.44-19.45c-1.11-12.29,2.92-29.16,3.52-32.58,1.9-10.88,30.69-79.06,51.06-122,8.48-17.91,14.67-18,18.46-21.22,1.35-1.17,2.75,27,2.76,55.57C90.63,159.85,85,209.49,85,209.49Z"/><path class="cls-1" d="M65.51,260.31s-15.59,4-42.26,0"/><path class="cls-1" d="M285.73,209.49s5.82,25.27,8.85,33.34a59.08,59.08,0,0,0,10.59,17.48l1.15,10.63s11.31.78,20.88.78c20.65,0,20.41-.58,20.41-.58l-.18-10.83a34.24,34.24,0,0,0,8.44-19.45c1.12-12.29-2.92-29.16-3.52-32.58-1.89-10.88-30.69-79.06-51.05-122-8.49-17.91-14.67-18-18.47-21.22-1.34-1.17-2.75,27-2.76,55.57C280.06,159.85,285.73,209.49,285.73,209.49Z"/><path class="cls-1" d="M305.17,260.31s15.59,4,42.26,0"/></svg>