<svg id="Layer_1" data-name="Layer 1" xmlns="http://www.w3.org/2000/svg" viewBox="0 0 371.66 471.35"><defs><style>.cls-1{fill:#ce453a;stroke:#010101;stroke-miterlimit:10;}</style></defs><path class="cls-1" d="M85,209.49l-8,50.82-1.38,9.91s-22.52,1.5-32.09,1.5a316,316,0,0,1-33.39-1.5v-9.91s7.06-45.27,8.24-52c1.9-10.88,30.69-79.06,51.06-122,8.48-17.91,14.67-18,18.46-21.22,1.35-1.17,2.75,27,2.76,55.57C90.63,159.85,85,209.49,85,209.49Z"/><path class="cls-1" d="M77.36,260.31s-40.6,4-67.27,0"/><path class="cls-1" d="M285.73,209.49l8,50.82,1.39,9.91s22.51,1.5,32.08,1.5a316.32,316.32,0,0,0,33.4-1.5v-9.91s-7.07-45.27-8.25-52c-1.89-10.88-30.69-79.06-51.05-122-8.49-17.91-14.67-18-18.47-21.22-1.34-1.17-2.75,27-2.76,55.57C280.06,159.85,285.73,209.49,285.73,209.49Z"/><path class="cls-1" d="M293.32,260.31s40.61,4,67.28,0"/></svg>