<svg id="lengan_pendek" data-name="lengan pendek" xmlns="http://www.w3.org/2000/svg" viewBox="0 0 371.66 471.35"><defs><style>.cls-1{fill:#667b4d;stroke:#000;stroke-miterlimit:10;}</style></defs><path class="cls-1" d="M78.72,206.65,75,223.94,8.68,207.41s2.62-17.35,12.16-68.88c7.05-38.14,23-66.92,24.24-71.53,2.79-10.36,36.77-25.72,36.77-25.72s8.9,32.7,6.72,80.33C86.88,158.49,78.72,206.65,78.72,206.65Z"/><path class="cls-1" d="M292.56,206.65l3.75,17.29,66.28-16.53s-2.61-17.35-12.15-68.88c-7.06-38.14-23-66.92-24.25-71.53-2.79-10.36-36.76-25.72-36.76-25.72s-8.91,32.7-6.73,80.33C284.39,158.49,292.56,206.65,292.56,206.65Z"/></svg>