<svg id="Layer_1" data-name="Layer 1" xmlns="http://www.w3.org/2000/svg" viewBox="0 0 566.93 566.93"><defs><style>.cls-1{fill:#9ac552;}</style></defs><path class="cls-1" d="M212.36,179.37c-.38-2.71-.78-5.42-1.12-8.14-1-8.3-2.1-16.6-3.05-24.91-1.13-9.95-2.33-19.92-6.21-29.23-1.77-4.24-4.83-7.69-9.62-9.07a5.48,5.48,0,0,0-5.41.81c-1.53,1.28-1.2,3-.8,4.72a11.22,11.22,0,0,0,.57,1.66c1.59,3.78,0,6.23-4.14,6.11-6.28-.18-10.85-3.36-13.79-8.76-3.82-7-2-16.86,4.12-22.94,7-6.92,15.39-10.23,25.28-8.58a27.49,27.49,0,0,1,18.9,12.58c4.84,7.31,6.18,15.63,6.41,24.18.13,4.37,0,8.74,0,13.12.19,0,.4,0,.43-.1,3.76-9.27,7.79-18.46,9.36-28.43.88-5.65,1.51-11.38-.45-17a15.68,15.68,0,0,0-9.36-9.93c-4-1.61-5-4.62-2.51-8.19,4.91-7.13,12.08-9,20.16-8,13.6,1.61,19,12.15,18.35,24.87l-.14,2.5a43.21,43.21,0,0,1,12.69-8c12.83-5.53,25,1.14,30.59,11.3,3.57,6.5,1.85,16-3.67,21.16-1.26,1.16-2.72,1.08-3.19-.46-1.67-5.44-10.43-8.73-15.45-7.37A96.82,96.82,0,0,0,266.43,108c-13.56,6-22.83,16.73-31,28.61a10.71,10.71,0,0,0-1.48,3.52c1.48-1.64,2.93-3.33,4.46-4.92,7.32-7.59,16.2-12,26.79-12.19,8.37-.17,19.93,7.12,18.31,19.22a15.62,15.62,0,0,1-6.83,10.66c-1.45,1-3.38,1.17-4.59-.48-4.73-6.41-11.13-5.69-17.58-4-8.28,2.13-13.48,8.09-17.56,15.14-5.25,9.09-8,18.86-6.33,29.37.85,5.34,2.7,10.52,4.12,15.77.05.22.34.37.37.4.07-3.06-.26-6.23.31-9.23.91-4.75,2.72-9.25,7.23-11.86,3.28-1.9,6.66-1.71,8.66.19s2.82,6.3,1.39,9.26a37,37,0,0,0-2.91,23.84c1.35,6.74,3.66,13.31,5.78,19.88.74,2.31.64,4-1.2,5.7-2.89,2.75-5.68,5.5-9.47,7.07-1.75.72-2.61.2-3.64-1.12-3.34-4.29-6.6-8.67-10.26-12.67-6.33-6.94-13.48-13-22.34-16.42a73.45,73.45,0,0,0-15.15-3.58c-3.76-.58-7.23,1-10.16,3.51-2.59,2.18-3.2,5.52-1.73,9,.54,1.27,1.22,2.72-.2,3.54a5.13,5.13,0,0,1-3.8.51c-4-1.34-8.24-2.44-10.75-6.39a16.33,16.33,0,0,1-1-16.9c3.7-7.8,10.27-11.66,18.2-13.16,3.52-.67,7.49,0,11.06.83a57.36,57.36,0,0,1,11.72,4.52c2.76,1.36,5.12,3.5,7.64,5.28a1.09,1.09,0,0,0-.08-.74c-3.8-6-7.38-12.22-11.54-18a151.28,151.28,0,0,0-12.43-15.12,28.55,28.55,0,0,0-17.7-9.22c-6.38-.8-10.68,4.81-11.25,8.69-.37,2.52.51,3.95,2.63,5.3.82.52,1.84,1.65,1.77,2.43a3.69,3.69,0,0,1-1.93,2.53c-6.19,2.82-15.83.7-20.86-6.43-10.84-15.34-1.17-33.5,12.27-38.24,10.69-3.77,20.31-2,29.86,3.13,8.72,4.68,14.26,12.36,19.27,20.45,2.46,4,4.29,8.35,6.41,12.54.22.45.47.88.7,1.32Z"/><path class="cls-1" d="M299.63,456.87c1.26.56,2.43,1,3.56,1.59,7.57,3.67,14.2,8.6,18.19,16.1,4.22,7.91,4.1,19.86-2.47,27.73a14.79,14.79,0,0,1-22.22,1.17,15.87,15.87,0,0,1-3.05-3.42c-1.28-2.28,0-4.27,2.62-4.41,4.22-.23,7-3.4,6.86-7.66-.18-7.09-3.53-12.6-8.35-17.43-8-8-17.9-12.22-28.63-14.78-5.43-1.29-10.94-2.25-16.44-3.21-2.29-.39-2.11-2.42-2-3.5a75.11,75.11,0,0,1,2.25-11.4c.25-.91,1.86-1.85,3-2,9.52-1.67,19-3.58,27.54-8.28A77.12,77.12,0,0,0,291,420.11c1.81-1.42,3-3.61,4.71-5.18,2-1.8,4.24-2.9,7-1.45s4.05,3.74,4.16,6.93c.2,5.85-3.73,9.23-7.41,12.67-1.67,1.57-3.93,2.51-5.94,3.7a5.41,5.41,0,0,0-2.1,1.66c2.23-.43,4.45-.85,6.67-1.29,7.35-1.45,14.56-3.42,20.36-8.39,8.61-7.38,15.9-15.83,18.25-27.36a23.22,23.22,0,0,0-4.26-18.6c-1.9-2.66-5-3.47-7.91-4.55-2.56-1-3.17-1.76-2.74-4.43,1-5.91,3.83-10.46,9.62-12.71s10.9-.66,15.73,2.78c7.54,5.36,9.55,13.25,10,21.82a36.22,36.22,0,0,1-3.69,18.15,1.16,1.16,0,0,0,.19,1.23c1-1.64,2.1-3.24,3-4.95,6.41-12.28,10.74-25.11,10.11-39.21-.3-6.65-1.53-13-6.39-18.06-3-3.1-5.92-5.92-10.75-5.1-1.41.23-2.12-1.14-1.55-2.56,5.47-13.51,16.89-15.41,28-10.45,9.52,4.24,14.17,12.06,14,22.51-.07,3.69-.68,7.37-1.06,11.12,2.09-1.13,4.2-2.41,6.42-3.47,10.83-5.15,22.65-.92,27.81,9.95,2.74,5.78,4.17,11.72.81,17.72a11.73,11.73,0,0,1-3.92,3.78c-1.44.92-2.95.17-4.16-1-4.91-4.62-10.65-4.74-16.67-2.93-4.56,1.36-8.38,4.11-12.38,6.6-7.24,4.5-11.62,11.69-17.37,17.58a18,18,0,0,0-3.38,4.64,11.84,11.84,0,0,0,1.19-.57c8.95-5.33,18.16-10,28.64-11.48,11.44-1.6,24.38,5.16,29.73,15.44,5.65,10.84,2.51,26.1-6.74,32.8-6.66,4.82-15.08,4.83-21.48-.31a15.42,15.42,0,0,1-4-5.43c-1.33-2.85.13-4.89,3.2-5.14a11,11,0,0,0,2.38-.34c4.27-1.38,5.24-6.1,1.85-9.09a14.91,14.91,0,0,0-11.1-3.82c-5.9.3-11.46,1.93-17,3.75a140.73,140.73,0,0,0-17,6.37,136.57,136.57,0,0,1-26,9.55c-.41.1-.73.57-1.08.88l.26.47c1.43-.14,2.85-.34,4.29-.4a83.53,83.53,0,0,1,33.28,5.33,34.74,34.74,0,0,1,18.26,15.51c5.62,9.72,5.79,20.05-.15,29.76S369,507.89,358.21,505.3c-7-1.68-11.57-6.51-12.67-13.94a4.13,4.13,0,0,1,1-3.27c.61-.52,2.23-.3,3.19.11,3.47,1.44,4.38,1.39,6.59-1.56,3.44-4.58,4-8.39,1.1-13.39-3.73-6.4-9.67-9.32-16.25-11.19-11.21-3.2-22.77-4.45-34.39-5.21-2.19-.15-4.38-.35-6.58-.5C300.08,456.34,300,456.53,299.63,456.87Z"/></svg>