<svg id="Layer_1" data-name="Layer 1" xmlns="http://www.w3.org/2000/svg" viewBox="0 0 521.56 503.84"><defs><style>.cls-1{fill:#9ac552;}</style></defs><path class="cls-1" d="M452.59,315.69c7.67,6.11,15.14,12.15,24.36,15.57,7.51,2.79,15.07,4.35,23.08,2.37,2.79-.69,4.94.8,5.92,3.58A17.7,17.7,0,0,1,490,360.78c-5.78.32-11.07-1.29-16.25-3.44-1.59-.66-2.93-1.94-4.64-3.11a4.55,4.55,0,0,0,.17,1.39c8.54,15.68,13.92,32.56,19.13,49.53,2.1,6.86,4.92,13.51,7.64,20.16,1.84,4.5,5.63,7.1,10.08,8.63a10.62,10.62,0,0,0,4.43.13c3.41-.36,4.93.48,5.57,3.72,2.22,11.28-3,20.17-14.65,23.13-8,2-14.26-.45-19.73-6.3-6.88-7.37-10-16.4-12.11-26-.22-1-.45-2-.67-3h-.77c0,2.54.17,5.1,0,7.63-1.36,17.17-8.58,31.53-21.16,43.19-10.17,9.43-21.7,16.78-35.19,20.23-12.48,3.19-25.44,3.91-37.77,0-22.14-7-38.82-20.13-43.35-44.41-2.73-14.63,1.06-27.6,11-39.06,8.81-10.16,19.92-14.17,32.69-13.44,17,1,29.67,13.6,28.77,30.15a18.65,18.65,0,0,1-22.26,17.66c-7.07-1.52-12.44-8.13-5.9-16.66l1-1.34c-5.06-1.39-8.83.69-12.33,3.31-4.21,3.15-5.07,7.73-4.24,12.56,2.14,12.36,10.27,20.22,22.73,22.1,16.77,2.53,31.09-2.26,42.88-14.53,12.84-13.35,19.3-29.76,22.81-47.55a94.36,94.36,0,0,0,.12-37.1c-3.64-18.08-10.87-34.51-22.74-48.76-1-1.23-2-2.52-3-3.76-.15-.18-.51-.19-.53-.2,1.35,5.5,3.05,11,4,16.71,2.11,12.44,1.48,24.92-6.4,35.14-8.14,10.57-18.33,18.79-32.85,19.66q-17.46,1-27.06-13c-4.37-6.36-6.2-13.66-3.51-21.41a15.25,15.25,0,0,1,7.76-9.07c3.67-1.82,6.65-.77,8.47,2.87,1.5,3,3.15,5.89,6.36,7.42,4.42,2.11,9.64,1,13.59-2.73a17.91,17.91,0,0,0,5.72-11.79c.55-7.35,1.49-14.76-1.2-22-4.81-12.88-21.63-25-36-21.57a22.16,22.16,0,0,0-4.22,1.59c-2.85,1.36-5.38.33-6-2.73-2.06-9.62,1.47-16.05,10.67-20.76,7.64-3.91,15.73-3.42,23.71-2.45,11.29,1.36,21.67,6,32.23,10,12.15,4.6,24.28,9.22,37.74,8.47a37.67,37.67,0,0,0,25.61-11.43,14.86,14.86,0,0,0,4-9.52c.08-.95.09-1.9.14-2.85.4-7.7,6-9.32,11.8-6.62,5.55,2.58,8.29,7.72,10.3,13.12,6.81,18.34-3.1,37.85-23.39,42.43-9.88,2.23-19.88,3-29.82,0C453.26,315.25,453.07,315.44,452.59,315.69Z"/><path class="cls-1" d="M98,315.74c-5.67,9.28-11.58,18.43-17,27.87-6.17,10.84-8.7,22.77-9.69,35.13a105.52,105.52,0,0,0,7.7,49c5.7,13.91,14.64,25.4,27.49,33.64,12,7.7,24.89,9,38.14,4.44,9.13-3.11,17-11.9,16.77-22.49-.15-6.94-3.29-13.53-11.93-13.66-2,0-3.91-.4-6.71-.7,1.23,1.13,1.78,1.71,2.4,2.21,4.47,3.62,4.64,9,.4,13-5,4.67-13.9,4.76-20,.2-5.91-4.42-8.91-13.67-7.3-20.93,2.91-13,11-21.28,23.85-23.29,13.75-2.14,26.41,1.35,36.53,11.69,9.11,9.3,13,20.73,12.49,33.42A51.77,51.77,0,0,1,179.85,476c-8.35,10.67-19.52,16.53-32.2,20.25-12.33,3.63-24.93,4.49-37.12.82-22.75-6.84-41.25-19.62-52.09-41.61a56.89,56.89,0,0,1-5.64-23.94c0-1.6-.17-3.21-.29-4.81,0-.11-.28-.19-.28-.19-1.94,5.65-3.58,11.47-5.95,17-3,6.93-7.51,12.78-14.43,16.31C20.2,465.73,4.48,458.25,4.9,443.66c.06-2.06.4-4.12.56-6.19.21-2.79,2-3.62,4.37-3.17,6.22,1.19,10.38-1.86,13.86-6.41,3.87-5.09,5.48-11.17,7.49-17.11q8.12-24,16.63-47.79c1.09-3,3.26-5.69,5.3-9.15A21,21,0,0,0,50.77,355a31.39,31.39,0,0,1-20,5.21c-10.15-.67-15.13-7.08-16.1-16a23.06,23.06,0,0,1,.66-7c.73-3.52,2.79-4.59,6.25-3.71,7.29,1.84,14.31.44,21.25-1.88,8.23-2.73,14.73-8.18,21.43-13.34l4-3.09a70.13,70.13,0,0,1-7.84,1.38c-12.19.71-24.05,0-34.68-7.22S12.05,291.86,13.1,279.82A28.16,28.16,0,0,1,20,264.13a14.21,14.21,0,0,1,11.7-5.46,5.16,5.16,0,0,1,5.38,4.8c.19,1.21.43,2.42.71,3.61,2.85,12.07,12.13,20.45,24.46,22.47,12.09,2,23.52-.07,34.84-4.44C109,280.5,121,276,133.23,272.36a41.17,41.17,0,0,1,25.26.67c9.62,3.31,15.24,11.32,12.13,22.42-.76,2.72-3.48,3.42-6.83,2.3-2.93-1-6-2.06-9-2.08-16.91-.16-31.68,14.56-31.79,31.51a95,95,0,0,0,.63,13.07c.75,5.73,3.56,10.36,8.85,13.16,6.73,3.56,13.52,1,16.28-6,1.81-4.62,6.07-5.67,10-2.46,6,4.9,7.49,11.23,6.39,18.66-1.71,11.58-13,21.75-24.92,23.38-13.51,1.84-24.35-3.54-33.26-13.13a44.84,44.84,0,0,1-11.45-21.37A57.65,57.65,0,0,1,95.83,329c.73-3.61,1.84-7.15,2.78-10.72.19-.69.37-1.39.55-2.08Z"/><path class="cls-1" d="M317.65,123.57a36.11,36.11,0,0,1,3.14,3.89A53.53,53.53,0,0,1,328.63,155a43.24,43.24,0,0,1-2.58,17.05c-4,10.1-11.8,16.23-21.77,19.46-5.17,1.67-10.77,2.05-16.19,2.91-3,.48-6,.8-9,1.09-1.43.13-2.88,0-4.95,0,.84-1.42,1.29-2.2,1.76-3,2.89-4.78,6.17-9.38,8.58-14.39,3.09-6.44,7.62-11.52,12.84-16.18,8.68-7.73,15.6-16.65,18.35-28.2a87.13,87.13,0,0,0,1.26-9.58Z"/><path class="cls-1" d="M202.73,341.11c-1-.79-2.39-1.36-2.95-2.39a64.28,64.28,0,0,1-7.65-22.46,52.13,52.13,0,0,1,.8-16.68c2.61-13.65,11.46-21.66,24.22-25.28,6.87-1.95,14.19-2.35,21.29-3.51,2.68-.44,5.33-1.06,8.75-1.75-.77,1.57-1.24,2.72-1.86,3.77-3.3,5.55-6.35,11.26-10.05,16.52a84.3,84.3,0,0,1-9.61,10.76C221.91,303.84,217.55,307,214,311c-7.51,8.29-11.41,18.07-10.55,29.48Z"/><path class="cls-1" d="M281.57,329.67c.9-2.54,1.53-4.41,2.23-6.26,1.62-4.25,3.52-8.41,4.85-12.75,2-6.62,6.31-11.85,10-17.48,3.16-4.84,6.45-9.7,8.79-14.95,1.89-4.25,2.41-9.09,3.63-13.64a18.16,18.16,0,0,1,1.47-3.09,9.87,9.87,0,0,1,2.72,1.69c6.39,8.09,11.34,16.81,12,27.43.84,13.31-9,29.31-23.51,33.47q-9.57,2.75-19.18,5.39A17.42,17.42,0,0,1,281.57,329.67Z"/><path class="cls-1" d="M207.35,204.81a36,36,0,0,1-4.47-3.8c-7-8.23-10.22-18-10.62-28.57-.58-15.05,11-28.75,25.86-31.23,4.49-.76,9-1.26,13.55-1.76,3.6-.4,4.34.51,3.08,3.92-2.33,6.3-4.54,12.67-7.35,18.76-1.35,2.93-3.92,5.31-6,7.92-5.28,6.76-10.37,13.67-12.38,22.19C208.17,196,208,199.91,207.35,204.81Z"/><path class="cls-1" d="M278.36,239.48c-.55-3.82-1.25-8.58-1.89-13.34a2.49,2.49,0,0,1,.26-1.79,1.81,1.81,0,0,1,1.7.14c6.47,5.12,13.49,9.72,19.14,15.62s9.4,13.2,9.1,21.79c-.18,5.33-1.14,10.57-3.91,15.28-3.22,5.48-6.42,11-9.78,16.36a4.16,4.16,0,0,1-2.85,1.81c-.7,0-1.69-1.21-2.18-2.09-3.47-6.3-6.73-12.72-10.3-19a12.43,12.43,0,0,1-1.34-7.67C277,257.93,277.63,249.22,278.36,239.48Z"/><path class="cls-1" d="M248.3,198c2,1.69,4.3,3.41,6.39,5.31,3.31,3,6.5,6.14,9.75,9.2,5.59,5.26,7.52,12.15,8.6,19.39,1.63,11-.5,21.77-1.6,32.61-.24,2.33-1.72,3-3.67,1.59a45,45,0,0,1-5.48-4.55c-4.18-4.14-8.47-8.2-12.28-12.67A30,30,0,0,1,243,225.76c.69-7.26,1.73-14.49,2.74-21.71C246,202,245.15,199.31,248.3,198Z"/><path class="cls-1" d="M240,331.45c2.49,1.57,4.38,2.54,6,3.83,3.64,2.88,7.08,6,10.74,8.88,8.22,6.44,13,14.93,13.74,25.2.33,4.78-1.29,9.71-2.16,14.55-.68,3.73-1.55,7.43-2.39,11.13-.69,3.07-1.67,3.65-4.17,1.71-4.42-3.42-8.71-7.06-12.77-10.9-2.58-2.44-5.22-5.1-6.83-8.19-3-5.79-3.83-12.19-3.31-18.77.54-6.82.79-13.66,1.12-20.49C240.09,336.43,240,334.44,240,331.45Z"/><path class="cls-1" d="M239.38,239.44a14.36,14.36,0,0,1-2.71-1.26c-7-5.48-14.3-10.75-19.68-18-3.72-5-4.54-10.81-4.52-17,0-11.1,4.55-20.18,11.54-28.35a12.65,12.65,0,0,1,2.62-2.6c1.59-1,3.5-1.47,4.6.59,2.53,4.76,4.82,9.65,7.28,14.45,4,7.81,2.81,15.92,1.3,24-1.68,8.94-2.61,17.83-.44,26.81A7.65,7.65,0,0,1,239.38,239.44Z"/><path class="cls-1" d="M234.83,372.28a12.58,12.58,0,0,1-3.27-.75c-4.95-2.86-9.71-5.93-13.27-10.58-2-2.62-4.67-4.78-6.42-7.53-6.2-9.7-5.54-19.85-.87-29.85,3.17-6.81,8.21-12.3,14-17.05,3.36-2.76,4.18-2.28,5.22,1.91,1.53,6.15,3.39,12.21,5,18.32a12.38,12.38,0,0,1,.4,3.63c-.46,11.11-1,22.21-1.43,33.31A84.44,84.44,0,0,0,234.83,372.28Z"/><path class="cls-1" d="M325.51,313.56c.68,9.07-2.48,16.37-6,23.55a55,55,0,0,1-26.08,25.68c-3.92,1.9-5,1.81-8.38-.94-5.55-4.45-11.17-8.81-16.71-13.28-2.88-2.33-2.77-3.73.5-5.49,5.78-3.14,10.84-7.52,17.61-9,6.36-1.37,12.58-3.51,18.8-5.5a37,37,0,0,0,17.59-12.07C323.54,315.68,324.31,314.89,325.51,313.56Z"/><path class="cls-1" d="M274.76,360.32c3.16,2.67,6.8,4.94,9.37,8.09A129.19,129.19,0,0,1,295.7,384.9c6.53,11.11,4.58,21.89-2.64,31.92-3.94,5.47-8.33,10.6-12.56,15.85a7.16,7.16,0,0,1-1.76,1.19c-.39-.61-1.06-1.18-1.13-1.82-.27-2.64,0-5.37-.59-7.93-1.31-5.91-2.8-11.8-4.55-17.59a31.76,31.76,0,0,1-.59-16.25c1.31-6.1,2.34-12.28,3.06-18.48.31-2.66-.48-5.44-.76-8.16-.1-.91-.17-1.83-.25-2.74Z"/><path class="cls-1" d="M279.67,96.21c11.1,3.42,21.42,6.58,28.76,15.38A16.65,16.65,0,0,1,312,121.3c1.08,12.69-4.39,22.85-12.38,32-2.24,2.56-4.9,4.76-7.93,7.67-.85-1.2-2.21-2.37-2.61-3.81-1.59-5.74-3.43-11.51-4.1-17.38-.5-4.42.46-9,1.09-13.55,1.27-9,.47-17.58-4.86-25.34C280.42,99.76,280.3,98.22,279.67,96.21Z"/><path class="cls-1" d="M223.46,102.3a14.14,14.14,0,0,0,2.62-1.18,35.89,35.89,0,0,1,19.67-7.43c5.39-.27,10.85-.87,16.19-.33,9.1.92,16.11,8.09,18.56,17.35,2.09,7.92.66,15.64-.56,23.41-.29,1.86-1.31,1.56-2.43.87-6-3.65-12-7.22-17.8-11.06a25.39,25.39,0,0,1-4.77-4.83c-5.89-6.78-12.37-12.67-21.64-14.28-2-.35-4.07-.4-6.11-.63-.94-.1-1.88-.31-2.82-.47Z"/><path class="cls-1" d="M194.6,150c0-2.46-.39-4.5.07-6.33,2.29-9.26,5.27-18.19,12-25.44,9.8-10.62,29.65-13.68,41.4.82,1.67,2.06,3.61,3.91,5.29,6a4.18,4.18,0,0,1,1.15,2.84c-.11.64-1.51,1.18-2.43,1.5-11.34,3.93-23.16,5.47-34.95,7.33a33.39,33.39,0,0,0-20.82,11.9A15.81,15.81,0,0,1,194.6,150Z"/><path class="cls-1" d="M321.39,188.68c-1.39,3.86-2.39,7.91-4.22,11.54-5.65,11.18-14,19.83-25.42,25.22A4.38,4.38,0,0,1,288,225c-6.86-5.55-13.61-11.26-20.32-17-1.8-1.54-1.58-3.25.86-4.13A87.24,87.24,0,0,1,281.81,200c5.57-1.07,11.28-1.42,16.89-2.28a40.5,40.5,0,0,0,19.26-8c.73-.58,1.53-1.06,2.3-1.58Z"/><path class="cls-1" d="M199.7,277.26a29.47,29.47,0,0,1,.58-3.78c4.49-15,14.59-25.23,27.92-32.67a3.84,3.84,0,0,1,5.12.57c5.89,5.66,11.93,11.17,17.88,16.77,2.86,2.69,2.58,4.47-1.16,5.27-7.48,1.6-15,3.11-22.59,4.12-8.09,1.08-15.87,2.77-22.82,7.26-1.12.72-2.28,1.36-3.44,2A10.23,10.23,0,0,1,199.7,277.26Z"/><path class="cls-1" d="M213.87,418.38c.92-11.84,3.73-22.95,11.17-32.38,1.9-2.41,4.56-4.26,7-6.2,1.82-1.44,3.36.07,4.49,1.17,5.1,5,10,10.11,15.09,15.12,1.56,1.54.63,2.34-.68,3-10.39,5.27-19.06,12.78-27.21,20.95-1.74,1.75-3.28,3.7-5,5.44-.6.59-1.8,1.3-2.32,1.06a3.72,3.72,0,0,1-1.75-2.31A53.74,53.74,0,0,1,213.87,418.38Z"/></svg>