<svg id="Layer_1" data-name="Layer 1" xmlns="http://www.w3.org/2000/svg" viewBox="0 0 566.93 566.93"><defs><style>.cls-1{fill:#d86f3a;}</style></defs><path class="cls-1" d="M303.07,185.79l-19.61-78.88-19.61,78.88C247,165.29,177.61,178,177.61,178c75.94,6.56,105.85,71.09,105.85,71.09S310.59,184.56,386.53,178C386.53,178,320,165.29,303.07,185.79Z"/><path class="cls-1" d="M151,311.76a48.31,48.31,0,0,1-5.8-29.23,55.09,55.09,0,0,1,5.71-19.13,51.71,51.71,0,0,1,16.46-18.68,66.67,66.67,0,0,1,26.08-11.05,70.3,70.3,0,0,1,30.65.66,93,93,0,0,1,19.49,7,74.43,74.43,0,0,1,23.1,18,58.55,58.55,0,0,1,10.6,18.14c.2.53.5,1,0,1.73-1.49-1.88-3-3.71-4.4-5.55-9.16-11.69-20.87-19.5-35.48-22.35a70.81,70.81,0,0,0-41.28,4.11,73,73,0,0,0-20.53,12.75,75.13,75.13,0,0,0-16.5,20.32A73.44,73.44,0,0,0,151,311.76Z"/><path class="cls-1" d="M290,280a53.15,53.15,0,0,1,2.8-8.3c2.22-5.66,5.76-10.46,9.82-15,10.12-11.28,22.88-17.83,37.29-21.69a68.33,68.33,0,0,1,20.54-2.57,76.62,76.62,0,0,1,27.33,6c7.66,3.27,14.63,7.55,20.28,13.75a52.69,52.69,0,0,1,12.16,23.35c2.93,11.88,1.42,23.4-3.05,34.65-.19.45-.4.9-.72,1.65-.4-1.95-.7-3.66-1.12-5.34s-.91-3.35-1.48-5a78.48,78.48,0,0,0-29.26-38.22,73.1,73.1,0,0,0-30.06-12.12,75,75,0,0,0-19.09-.63,55.39,55.39,0,0,0-30.39,12.14,58.54,58.54,0,0,0-14.33,16.93C290.68,279.67,290.52,279.7,290,280Z"/><path class="cls-1" d="M276.27,263.47a100.84,100.84,0,0,0-7.14-10.2A84,84,0,0,0,254.92,240a102.93,102.93,0,0,0-42.82-18.48,89.68,89.68,0,0,0-27.89-.78c-14.74,1.85-28.08,7.19-39.56,16.84a56,56,0,0,0-7.78,7.77,1.65,1.65,0,0,1-1.37.84,32.66,32.66,0,0,1,1.23-7.48c2.69-10.46,7.57-19.68,15.6-27.06a52.63,52.63,0,0,1,27-13.26,60.25,60.25,0,0,1,15.87-.76,83.4,83.4,0,0,1,23.07,5.57,100.85,100.85,0,0,1,28.59,17.09,109.58,109.58,0,0,1,22.35,26,59,59,0,0,1,7.08,15.68A2.11,2.11,0,0,1,276.27,263.47Z"/><path class="cls-1" d="M431.28,246.21a76,76,0,0,0-16.15-13.85,78.56,78.56,0,0,0-25-9.84,98.34,98.34,0,0,0-27.26-1.81A94.86,94.86,0,0,0,327.28,230a92,92,0,0,0-20.41,13.56,84.9,84.9,0,0,0-13.76,15c-.65.93-1,2.08-2.16,3,.16-2.31,1.22-4.08,2-5.88a89.93,89.93,0,0,1,11.14-18.85,110.23,110.23,0,0,1,21.74-21.08,97,97,0,0,1,34.56-16.28c12.89-3.09,25.61-2.86,38,2.11a53.3,53.3,0,0,1,20.93,15.07c6.32,7.38,9.93,15.9,11.74,25.31a3.33,3.33,0,0,1,.09.94C431.07,243.87,431.7,244.89,431.28,246.21Z"/></svg>