<svg id="Layer_1" data-name="Layer 1" xmlns="http://www.w3.org/2000/svg" viewBox="0 0 566.93 566.93"><defs><style>.cls-1{fill:#be986a;}</style></defs><path class="cls-1" d="M344,224.94c0-37.41-.09-74.83,0-112.25,0-3.12-1-4.76-3.88-5.94A165.69,165.69,0,0,0,316.82,99c-.68-.16-1.54-1-2.29,0-.08,1.6-.22,3.2-.22,4.8q0,98,0,196c0,16.07-.48,32.14.32,48.2a9.53,9.53,0,0,0,0,1.41c1.91,17,7.36,33.08,13.58,48.9a5.6,5.6,0,0,0,2.53,3.23c2.33-6.44,4.54-12.64,6.82-18.81,3.91-10.59,6.7-21.31,6.64-32.81C343.91,308.28,344,266.61,344,224.94Z"/><path class="cls-1" d="M252.2,116.73h0c.59-5.56.3-11.12.29-16.69,0-1.32-.6-1.92-2-1.5-8.39,2.56-16.75,5.18-24.73,8.84-1.28.59-2.59,1.26-2.59,3,0,1-.14,1.89-.14,2.83q0,108.48,0,217c0,10.3-.38,20.61.19,30.9h0a16,16,0,0,0,.12,2,142.56,142.56,0,0,0,7.27,24.62c1.74,4.53,2.83,9.37,5.68,13.49,1.19-.65,1.49-1.78,1.95-2.76a126.17,126.17,0,0,0,8.19-21.64c2.2-8.37,4.89-16.62,5.56-25.33.16-4.62.46-9.25.46-13.87q0-68.88-.17-137.77Z"/><path class="cls-1" d="M298.69,351.7c0-.71,0-1.42,0-2.13l-.14-6.13q0-104.05,0-208.11c0-12.29,0-24.58,0-36.88,0-1.37.29-3.24-1.72-3.29-9.07-.21-18.15-.71-27.2.4-1.25.16-1.27.85-1.08,1.78-.47,7.17-.27,14.35-.27,21.53q0,60.24,0,120.48c0,29.86.22,96.41-.08,111.79a19.43,19.43,0,0,0,.94,6.38l14.14,43.63,14.37-42.86A19.9,19.9,0,0,0,298.69,351.7Z"/></svg>