<svg id="Layer_1" data-name="Layer 1" xmlns="http://www.w3.org/2000/svg" viewBox="0 0 595.28 566.93"><defs><style>.cls-1{fill:#be986a;}</style></defs><path class="cls-1" d="M443,466.48c-1.15-.54-2.52-.6-3.69-1.1-.53-.23-.81-1-1.2-1.53a12,12,0,0,1,1.67-.86c8.06-2.75,16.13-5.48,24.65-8.37-4.65-8.18-9.11-15.22-17.57-18.79-4.63-1.95-9.12-1.75-13.88-.9-8.54,1.54-17,2-25.35-1.58-2.33-1-16.22-4.12-30.53-4.61-23.78-.82-28.86,1.36-40.49,7.16a73,73,0,0,0-28.09,25q-1.74,2.68-3.46,5.37l-.68-.29c0-1.85,0-3.71,0-5.56-.06-21-.22-42.08-.17-63.12,0-13.81.31-27.63.55-41.45.12-6.5,3.68-10.48,9.61-12.7,4.84-1.81,9.81-3.41,14.39-5.75,19.64-10.05,34.9-24.43,43.72-45,6.51-15.21,8.49-31.06,6.79-47.45-1.67-16.09-6.08-31.34-14.15-45.4-14.4-25.08-35.1-43.21-61.29-55.27a12,12,0,0,0-11.84,0c-26.19,12.06-46.89,30.19-61.29,55.27-8.07,14.06-12.48,29.31-14.15,45.4-1.7,16.39.28,32.24,6.79,47.45,8.82,20.61,24.08,35,43.72,45,4.58,2.34,9.55,3.94,14.39,5.75,5.94,2.22,9.49,6.2,9.61,12.7.24,13.82.52,27.64.55,41.45.05,21-.11,42.08-.17,63.12,0,1.85,0,3.71,0,5.56l-.68.29q-1.72-2.69-3.46-5.37a73,73,0,0,0-28.09-25c-11.63-5.8-16.71-8-40.49-7.16-14.31.49-28.2,3.6-30.53,4.61-8.33,3.62-16.81,3.12-25.35,1.58-4.76-.85-9.25-1.05-13.88.9-8.46,3.57-12.92,10.61-17.57,18.79,8.52,2.89,16.59,5.62,24.65,8.37a12,12,0,0,1,1.67.86c-.39.53-.67,1.3-1.2,1.53-1.17.5-2.54.56-3.69,1.1a17.43,17.43,0,0,0-10.18,12.67c-2.12,10.19,2.75,13.7,11.7,13.75,8.52.05,15.9-10.08,14.28-18.42a60,60,0,0,0-1.92-7.37,8.23,8.23,0,0,1,2.62-9.49,26.74,26.74,0,0,1,3.35-2.56q8.53-5.46,17.14-10.8c.28-.18.76-.06,2-.12-1.53,1.55-2.47,2.66-3.57,3.58-1.49,1.24-3.15,2.26-4.63,3.5-6.89,5.79-9.09,13-6.79,21.74,1.68,6.35,3.17,12.74,4.76,19.11.32,1.28.67,2.55,1,3.94,7.87-2.9,13.35-7.94,18.06-14a23.51,23.51,0,0,0,5.3-16.14q-.37-6.72-.58-13.45c-.19-6.41,1.34-8.82,7.19-11.4a28.22,28.22,0,0,1,4.71-1.63c11.38-2.77,22.32-.88,32.4,4.5,17.43,9.31,30.74,22.69,37.95,41.47.42,1.08.07,2.47.08,3.71-1.09-.54-2.43-.85-3.25-1.67-5.18-5.15-10.15-10.51-15.38-15.61a27.9,27.9,0,0,0-18.67-8.09c-15.22-.73-24.62,9.14-32.62,20.32-.91,1.26-.56,2.5.87,3.31,3.42,2,6.73,4.17,10.28,5.85,11.64,5.49,23.94,5.85,36.38,3.94,7.17-1.1,14.17-1.37,20.06,3.54,3,2.48,5.24,5.82,7.87,8.74.61.68,1.32,1.71,2.05,1.77s1.75.14,2.63.16,1.77-.09,2.63-.16,1.44-1.09,2.05-1.77c2.63-2.92,4.89-6.26,7.87-8.74,5.89-4.91,12.89-4.64,20.06-3.54,12.44,1.91,24.74,1.55,36.38-3.94,3.55-1.68,6.86-3.89,10.28-5.85,1.43-.81,1.78-2.05.87-3.31-8-11.18-17.4-21.05-32.62-20.32a27.9,27.9,0,0,0-18.67,8.09c-5.23,5.1-10.2,10.46-15.38,15.61-.82.82-2.16,1.13-3.25,1.67,0-1.24-.34-2.63.08-3.71,7.21-18.78,20.52-32.16,37.95-41.47,10.08-5.38,21-7.27,32.4-4.5A28.22,28.22,0,0,1,383.3,441c5.85,2.58,7.38,5,7.19,11.4q-.21,6.74-.58,13.45a23.51,23.51,0,0,0,5.3,16.14c4.71,6.09,10.19,11.13,18.06,14,.36-1.39.71-2.66,1-3.94,1.59-6.37,3.08-12.76,4.76-19.11,2.3-8.7.1-15.95-6.79-21.74-1.48-1.24-3.14-2.26-4.63-3.5-1.1-.92-2-2-3.57-3.58,1.22.06,1.7-.06,2,.12q8.59,5.36,17.14,10.8a26.74,26.74,0,0,1,3.35,2.56,8.23,8.23,0,0,1,2.62,9.49,60,60,0,0,0-1.92,7.37c-1.62,8.34,5.76,18.47,14.28,18.42,9,0,13.82-3.56,11.7-13.75A17.43,17.43,0,0,0,443,466.48Zm-121-280s32.82,61.23,0,126.68c0,0,3.68-37.43,3.68-65.2S322,186.52,322,186.52ZM269.42,313.2c-32.82-65.45,0-126.68,0-126.68s-3.68,33.72-3.68,61.48S269.42,313.2,269.42,313.2Zm28.12,8.43c-11.83-72.78,0-158.16,0-158.16C308.44,255.85,297.54,321.63,297.54,321.63Z"/><path class="cls-1" d="M195.09,399.48a51.64,51.64,0,0,1-10.76-8.38c-8.54-8.65-9.84-17.76-4.57-28.63,1.69-3.47,3.47-6.9,5.37-10.26,8.49-15,10.07-30.86,5.54-47.35-2.86-10.39-8.45-19.44-14.73-28.08-1.9-2.62-3.93-5.17-6-7.65-1.49-1.75-3.07-2.13-4.74,0-1.51,1.94-3.29,3.66-4.92,5.51-11.25,12.82-18.13,27.47-18.66,44.76-.36,11.51,1.77,22.38,8.43,32,4,5.86,8.21,11.64,12.17,17.55,1.9,2.83,3.51,5.86,5.13,8.87a10.32,10.32,0,0,1,.6,2.79l-.65.42a39.27,39.27,0,0,1-4.67-3.2c-6-5.51-12.35-10.8-17.89-16.78-9.86-10.64-14.14-23.37-12.86-38,1-11.57,1.45-23.16-.18-34.75A74.65,74.65,0,0,0,115,250.62c-10.11-12.27-23-20.78-37.36-27.29C65.94,218,53.55,215.25,41,213.26c-2.05-.33-2.93.14-2.39,2.52a82.41,82.41,0,0,1,1.23,8.6c1.48,13.13-.2,26.18-1.26,39.22-1,11.8-1.42,23.54,1.3,35.17,4,17,12.33,31.14,27.68,40.31A103.88,103.88,0,0,0,100.71,352c3.78.76,7.55,1.62,11.35,2.26,10.26,1.71,18.13,7.44,25.48,14.39,6.82,6.45,14,12.5,21,18.75a10.22,10.22,0,0,1,1.19,1.57c-5.34,2.09-9.39,1.57-13.38-1.37q-8.91-6.56-17.91-13c-11.52-8.3-24.37-12.8-38.58-12.81a101,101,0,0,0-27.34,3.64,143.86,143.86,0,0,0-14.26,5.19c-1.57.62-2.17,1.9-.9,3.6,10.09,13.5,22.12,24.81,37.29,32.4,16.92,8.46,33.94,9.19,51,.07A97.39,97.39,0,0,1,147,401.78a29.2,29.2,0,0,1,17.09-.94c12.15,2.7,21.9,10.76,33.9,12.87a156.28,156.28,0,0,0,27,2.46C213.18,409.67,206.78,406.26,195.09,399.48ZM76,295.48c-4.43-25.47-21-60.9-21-60.9s32.48,39.49,38.39,59,3.32,24.36,22.14,43.19C115.47,336.82,80.41,321,76,295.48Z"/><path class="cls-1" d="M457.74,368.62c7.34-6.95,15.22-12.68,25.48-14.39,3.8-.64,7.56-1.5,11.35-2.26a104,104,0,0,0,33.19-12.89c15.34-9.17,23.7-23.28,27.68-40.31,2.72-11.63,2.26-23.37,1.3-35.17-1.07-13-2.74-26.09-1.26-39.22a77.4,77.4,0,0,1,1.23-8.6c.53-2.38-.34-2.85-2.39-2.52-12.6,2-25,4.78-36.66,10.07-14.34,6.51-27.25,15-37.37,27.29a74.64,74.64,0,0,0-16.68,37.77c-1.63,11.59-1.19,23.18-.18,34.75,1.27,14.61-3,27.34-12.86,38-5.55,6-11.85,11.27-17.89,16.78a40.1,40.1,0,0,1-4.67,3.2l-.65-.42a10.32,10.32,0,0,1,.59-2.79c1.62-3,3.24-6,5.14-8.87,4-5.91,8.13-11.69,12.17-17.55,6.66-9.66,8.79-20.53,8.43-32-.54-17.29-7.42-31.94-18.67-44.76-1.62-1.85-3.41-3.57-4.91-5.51-1.68-2.16-3.26-1.78-4.74,0-2.1,2.48-4.13,5-6,7.65-6.27,8.64-11.87,17.69-14.72,28.08-4.53,16.49-3,32.33,5.53,47.35,1.9,3.36,3.69,6.79,5.37,10.26,5.28,10.87,4,20-4.57,28.63a51.58,51.58,0,0,1-10.75,8.38c-11.7,6.78-18.09,10.19-29.94,16.69a156.2,156.2,0,0,0,27-2.46c12-2.11,21.75-10.17,33.9-12.87a29.19,29.19,0,0,1,17.09.94,97.54,97.54,0,0,1,11.36,4.87c17,9.12,34.05,8.39,51-.07,15.18-7.59,27.2-18.9,37.3-32.4,1.27-1.7.67-3-.9-3.6a143.86,143.86,0,0,0-14.26-5.19,101.08,101.08,0,0,0-27.34-3.64c-14.21,0-27.07,4.51-38.58,12.81q-9,6.48-17.92,13c-4,2.94-8,3.46-13.38,1.37a10.9,10.9,0,0,1,1.19-1.57C443.71,381.12,450.91,375.07,457.74,368.62Zm42.12-75c5.91-19.56,38.39-59,38.39-59s-16.61,35.43-21,60.9-39.49,41.34-39.49,41.34C496.54,318,494,313.19,499.86,293.63Z"/></svg>