<svg id="Layer_1" data-name="Layer 1" xmlns="http://www.w3.org/2000/svg" viewBox="0 0 566.93 566.93"><defs><style>.cls-1{fill:#80cce8;}</style></defs><path class="cls-1" d="M339.44,198.06a36.82,36.82,0,0,1,3.08,3.8,52.53,52.53,0,0,1,7.67,27c.11,5.74-.41,11.32-2.53,16.67-3.91,9.89-11.55,15.89-21.3,19-5.06,1.63-10.54,2-15.84,2.85-2.93.46-5.89.78-8.84,1.06-1.4.13-2.81,0-4.84,0,.82-1.39,1.26-2.16,1.72-2.92,2.83-4.68,6-9.17,8.4-14.08,3-6.3,7.45-11.27,12.56-15.82,8.49-7.57,15.27-16.3,18-27.6a85.91,85.91,0,0,0,1.23-9.38Z"/><path class="cls-1" d="M304.14,399.72c.88-2.48,1.5-4.31,2.18-6.12,1.59-4.16,3.44-8.23,4.75-12.48,2-6.47,6.17-11.59,9.78-17.1,3.1-4.74,6.31-9.49,8.6-14.63,1.85-4.15,2.36-8.89,3.55-13.35a17.77,17.77,0,0,1,1.45-3,9.54,9.54,0,0,1,2.65,1.66c6.25,7.91,11.1,16.45,11.75,26.84.83,13-8.77,28.68-23,32.75q-9.37,2.67-18.77,5.27A15.86,15.86,0,0,1,304.14,399.72Z"/><path class="cls-1" d="M231.52,277.55a34.55,34.55,0,0,1-4.38-3.72c-6.82-8.05-10-17.63-10.39-27.95-.57-14.73,10.79-28.14,25.31-30.56,4.39-.74,8.82-1.23,13.25-1.72,3.52-.4,4.25.49,3,3.83-2.28,6.17-4.44,12.4-7.18,18.36-1.32,2.87-3.84,5.2-5.84,7.75-5.16,6.61-10.15,13.37-12.12,21.71C232.32,268.92,232.14,272.76,231.52,277.55Z"/><path class="cls-1" d="M301,311.47c-.53-3.73-1.21-8.39-1.84-13.05a2.4,2.4,0,0,1,.26-1.75,1.79,1.79,0,0,1,1.66.14c6.32,5,13.19,9.51,18.73,15.29s9.2,12.91,8.9,21.31c-.18,5.22-1.12,10.34-3.83,14.95-3.14,5.36-6.28,10.74-9.57,16a4.09,4.09,0,0,1-2.79,1.77c-.68,0-1.65-1.19-2.12-2-3.4-6.17-6.59-12.45-10.09-18.56A12.22,12.22,0,0,1,299,338C299.68,329.53,300.28,321,301,311.47Z"/><path class="cls-1" d="M271.58,270.85c2,1.65,4.21,3.34,6.26,5.2,3.23,2.94,6.36,6,9.54,9,5.47,5.15,7.36,11.89,8.41,19,1.59,10.73-.49,21.3-1.57,31.9-.23,2.29-1.67,2.92-3.58,1.56a42.33,42.33,0,0,1-5.36-4.45c-4.09-4-8.29-8-12-12.39a29.33,29.33,0,0,1-6.91-22.59c.68-7.1,1.7-14.17,2.68-21.24C269.32,274.75,268.5,272.17,271.58,270.85Z"/><path class="cls-1" d="M262.86,311.44a13.55,13.55,0,0,1-2.66-1.24c-6.89-5.36-14-10.51-19.25-17.64-3.64-4.93-4.44-10.57-4.43-16.6,0-10.86,4.46-19.75,11.29-27.75a12.37,12.37,0,0,1,2.57-2.54c1.55-1,3.43-1.44,4.5.58,2.48,4.66,4.72,9.45,7.12,14.14,3.92,7.64,2.75,15.57,1.28,23.45-1.64,8.75-2.56,17.45-.43,26.24A7.31,7.31,0,0,1,262.86,311.44Z"/><path class="cls-1" d="M302.28,171.28c10.86,3.35,21,6.44,28.14,15.06a16.34,16.34,0,0,1,3.47,9.5c1.05,12.42-4.3,22.35-12.12,31.29-2.19,2.5-4.79,4.65-7.76,7.5-.83-1.17-2.16-2.32-2.55-3.73-1.56-5.61-3.36-11.25-4-17-.5-4.33.45-8.86,1.06-13.25,1.24-8.84.47-17.21-4.76-24.8C303,174.76,302.89,173.25,302.28,171.28Z"/><path class="cls-1" d="M247.28,177.24a13.49,13.49,0,0,0,2.56-1.15,35.07,35.07,0,0,1,19.24-7.26c5.28-.28,10.63-.86,15.85-.33,8.9.9,15.76,7.92,18.16,17,2.05,7.74.65,15.3-.55,22.91-.28,1.81-1.28,1.52-2.38.85-5.82-3.58-11.71-7.07-17.42-10.83a24.82,24.82,0,0,1-4.66-4.72c-5.77-6.64-12.1-12.4-21.17-14-2-.34-4-.39-6-.61-.93-.1-1.84-.31-2.76-.47Z"/><path class="cls-1" d="M219,223.9c0-2.41-.38-4.4.06-6.2,2.24-9,5.16-17.79,11.71-24.89,9.59-10.39,29-13.38,40.51.81,1.63,2,3.53,3.82,5.17,5.83a4.19,4.19,0,0,1,1.14,2.79c-.12.62-1.49,1.15-2.38,1.46-11.1,3.85-22.67,5.36-34.2,7.18a32.62,32.62,0,0,0-20.37,11.64A16.28,16.28,0,0,1,219,223.9Z"/><path class="cls-1" d="M343.1,261.77c-1.35,3.77-2.34,7.73-4.13,11.29-5.52,10.94-13.69,19.4-24.87,24.67a4.24,4.24,0,0,1-3.71-.46c-6.72-5.43-13.33-11-19.89-16.64-1.76-1.52-1.55-3.18.84-4.05a84.88,84.88,0,0,1,13-3.73c5.45-1.05,11-1.39,16.53-2.23a39.7,39.7,0,0,0,18.84-7.84c.72-.56,1.5-1,2.25-1.54Z"/><path class="cls-1" d="M224,348.45a28.64,28.64,0,0,1,.57-3.71c4.39-14.68,14.27-24.68,27.32-32a3.75,3.75,0,0,1,5,.56c5.76,5.54,11.67,10.92,17.5,16.4,2.79,2.63,2.52,4.37-1.14,5.16-7.33,1.57-14.69,3.05-22.11,4-7.91,1.05-15.52,2.71-22.33,7.09-1.09.71-2.23,1.34-3.37,2A9.63,9.63,0,0,1,224,348.45Z"/><path class="cls-1" d="M276.3,340.22s-46.91,3.94-49.44,13.52,31.92,51.24,39.33,51S250.17,353.17,276.3,340.22Z"/></svg>