<svg id="Layer_1" data-name="Layer 1" xmlns="http://www.w3.org/2000/svg" viewBox="0 0 554.22 517.66"><defs><style>.cls-1{fill:#aa5c9d;}</style></defs><path class="cls-1" d="M275.67,431.77c1.91-3.49,2.38-6.77,3.37-9.86,2.34-7.25,5.61-13.91,11.14-19.34,9.27-9.09,22.11-9.28,31.57-.28,1.5,1.43,4.23,2.78,3.89,4.63-.37,2-3.42,1.28-5.25,1.64-20.36,3.93-40.7,27.12-39.28,52.48.73,13,8.36,24.13,19.41,27.64a22.74,22.74,0,0,0,26.69-10.28c5.36-9.34,3.87-20.44-3.7-27.41a16.4,16.4,0,0,0-22.86,0c-4.93,4.54-4.22,11.12,1.56,14.51,3.12,1.83,6.29,1.08,8.37-1.92.48-.7.75-1.9,1.78-1.73s1.29,1.32,1.64,2.27c1.82,5-2.64,11.54-8.48,12.36s-9.87-1.52-12.45-7.17c-6.51-14.27,3.5-34.79,18.7-38.34,16.65-3.88,35.57,8.24,38.88,25.22,2.34,12,1.17,23.71-7.13,33.31-15.55,18-42.41,20.61-59.45,4.87a24,24,0,0,1-4.73-6c-1.17-2.11-2.11-4.35-3.14-6.51-1.14.39-1.3,1.4-1.61,2.16-4.67,11.7-14.21,17.4-25.75,19.74-15.14,3.06-28.35-1.6-39.31-12.29-7.74-7.55-10.25-17.31-9.77-27.73.75-15.88,10.38-28.1,24.77-32.27,17.31-5,31.92,4.13,35.26,21.92,1,5.26,1,10.41-.85,15.41-3,8-11.34,10.4-17.84,5.37-3.43-2.66-4.76-7.66-2.95-11,.62-1.14,1-1.94,2.26-.39,3.44,4.29,7.34,4.77,10.92,1.54a8.81,8.81,0,0,0,.76-12.52c-8-8.72-21.72-6.71-27.85,4.09-5.46,9.64-3.13,21.09,5.86,28.69,8.14,6.88,20.76,6.87,29.17,0,7.42-6.1,10.62-14.11,11.25-23.56,1.73-25.84-19.11-46.22-34.58-51a47.67,47.67,0,0,0-7.73-1.81c-.93-.13-2.19-.24-2.53-1.19s.66-1.82,1.33-2.51c11.33-11.6,24.76-12,35.84-.47,6.49,6.73,9.06,15.31,11.56,23.95.16.52.26,1.06.43,1.58S275.22,430.57,275.67,431.77Z"/><path class="cls-1" d="M35,226.69c-8-8.36-15.8-17-25.54-23.5-.85-.57-2.16-1.2-1.57-2.59.51-1.2,1.76-.67,2.69-.7,4.63-.19,8.63,1.86,12.68,3.65,2.58,1.15,5.08,2.49,7.82,3.85-6.28-18.52-6.45-36.86.27-54.76,8.42-22.42,24.89-35.41,48.84-38.58,1.31-.17,3.32.35,3.78-1.21.41-1.35-1.06-2.59-2-3.69-7.94-9.59-24.36-11.87-34.65-4.85-3.75,2.56-5,6.36-5.27,10.65-.07,1.19.29,2.85-1.12,3.2-1.66.42-2.1-1.38-2.64-2.5-6.39-13.29,3-28.9,18-30.32,18.28-1.73,31.48,10.74,36.44,25.78.65,2,1.35,2.5,3.31,2.76,21.62,2.82,36.95,14.13,44.61,34.66,4.11,11,3.89,22.18-3.65,32-6.68,8.7-15.94,11.75-26.69,11.33,0-.59,0-.95.08-1,12-5.63,16.62-15.92,16.35-28.23-.26-11.95-7.27-20.32-17.72-25.57C89.51,127.25,60.23,134,49.42,161.8c-5.59,14.39-4.7,29-1,43.63,3.9,15.5,31.72,57.36,42.2,70.11C65.32,263,45.06,237.14,35,226.69Z"/><path class="cls-1" d="M400.89,189.43c-8.75-.05-17.48-.8-26.24-1-4.11,0-57.12,0-87,0a6.62,6.62,0,0,0-.82,0l-2,0c-9.18,0-15.68,0-17,0a3.57,3.57,0,0,0-1.24.13c-29.78.11-81.72.18-86.85.29q-11.19.26-22.37.59c-1,0-2.76-.17-1.9,1.63a25.31,25.31,0,0,1,2.11,12.05c-.07,1.91.79,2.16,2.32,2,6.62-.87,13.28-.48,19.92-.46,4.45,0,66.87,0,92.2,0a6.59,6.59,0,0,0,.95.07c12.06,0,114.23-.78,126.27.39,1.5.15,1.75-.55,1.74-1.83,0-3.8,0-7.6,1.73-11.15C403.84,189.7,403.69,189.44,400.89,189.43Z"/><path class="cls-1" d="M115.08,355c9.56.77,17.35,7.45,23.67,16.49,6.14,8.76,9.25,18.94,13.59,28.56,5,11.16,9.78,22.47,16.46,32.8.44.68,1.69,1.69.45,2.5s-2-.57-2.84-1.19a107.6,107.6,0,0,1-27.76-32.24c-4.15-7.2-8.2-14.53-14.18-20.49-3.54-3.53-7.46-6.05-12.83-4.54-5.81,1.63-9.53,5.19-10.86,11.19-1,4.54,1,7.9,3.88,11,.76.82,2.66,1.31,1.56,2.93-.85,1.25-2.35.66-3.56.47-12.57-2-16.62-10.84-15.93-22.07C87.62,366.22,99.56,355,115.08,355Z"/><path class="cls-1" d="M436.8,355c-9.56.77-17.35,7.45-23.67,16.49-6.14,8.76-9.25,18.94-13.59,28.56-5,11.16-9.77,22.47-16.46,32.8-.44.68-1.68,1.69-.45,2.5s2-.57,2.85-1.19a107.57,107.57,0,0,0,27.75-32.24c4.15-7.2,8.2-14.53,14.18-20.49,3.54-3.53,7.47-6.05,12.84-4.54,5.8,1.63,9.52,5.19,10.85,11.19,1,4.54-1,7.9-3.88,11-.76.82-2.65,1.31-1.56,2.93.85,1.25,2.35.66,3.56.47,12.57-2,16.63-10.84,15.93-22.07C464.26,366.22,452.32,355,436.8,355Z"/><path class="cls-1" d="M157.85,297.93c.05-14.87-6.42-26.1-16.64-35.54-2.53-2.34-1.56-2.94,1.09-3.73,6.26-1.87,11.68-.83,17.23,3.65,1.43-.73.73-2.05.69-3-.46-11.72.71-23.34,2.05-34.95.09-.76-.32-1.75.78-2.12s1.53.53,1.92,1.19c8.8,15.06,17.22,30.29,13.49,48.74C176,284.11,166.78,290.85,157.85,297.93Z"/><path class="cls-1" d="M519.21,226.69c8-8.36,15.8-17,25.54-23.5.85-.57,2.16-1.2,1.57-2.59-.5-1.2-1.76-.67-2.69-.7-4.62-.19-8.63,1.86-12.68,3.65-2.58,1.15-5.08,2.49-7.82,3.85,6.28-18.52,6.45-36.86-.27-54.76C514.44,130.22,498,117.23,474,114.06c-1.31-.17-3.32.35-3.78-1.21-.41-1.35,1.06-2.59,2-3.69,7.95-9.59,24.36-11.87,34.65-4.85,3.75,2.56,5,6.36,5.27,10.65.07,1.19-.29,2.85,1.12,3.2,1.66.42,2.1-1.38,2.64-2.5,6.39-13.29-3-28.9-18-30.32-18.29-1.73-31.49,10.74-36.45,25.78-.65,2-1.35,2.5-3.3,2.76-21.63,2.82-37,14.13-44.62,34.66-4.11,11-3.89,22.18,3.65,32,6.68,8.7,15.94,11.75,26.69,11.33,0-.59,0-.95-.08-1-12-5.63-16.62-15.92-16.35-28.23.26-11.95,7.28-20.32,17.72-25.57C464.71,127.25,494,134,504.8,161.8c5.59,14.39,4.7,29,1,43.63-3.9,15.5-31.72,57.36-42.2,70.11C488.9,263,509.16,237.14,519.21,226.69Z"/><path class="cls-1" d="M396.37,297.93c-.05-14.87,6.43-26.1,16.64-35.54,2.53-2.34,1.56-2.94-1.09-3.73-6.26-1.87-11.68-.83-17.23,3.65-1.43-.73-.72-2.05-.69-3,.46-11.72-.71-23.34-2.05-34.95-.09-.76.32-1.75-.77-2.12s-1.54.53-1.93,1.19c-8.8,15.06-17.22,30.29-13.49,48.74C378.18,284.11,387.44,290.85,396.37,297.93Z"/><path class="cls-1" d="M162.47,115.88c.61-.59,1.38-.38,2.08-.38q22.71,0,45.41,0c.7,0,1.47-.21,2.07.39Z"/><path class="cls-1" d="M347,115.88c.6-.6,1.37-.39,2.08-.39q21.6,0,43.22,0c.63,0,1.31-.16,1.83.39Z"/><path class="cls-1" d="M405.28,131.51c.13-2.79,1.21-5.39,2-8.33H361.17a163.64,163.64,0,0,0-18.66-.32l-39.29-.16a2.54,2.54,0,0,0-1.09-.16,5.56,5.56,0,0,0-.81-.08c-9.86-.06-19.72-.2-29.58-.1-5.37,0-10.76-.23-16.13.19h-.1a3.94,3.94,0,0,0-1.67.16l-2.81.07-32.57.08a162.91,162.91,0,0,0-17.68.33l-41.23.16c-2,0-4.05,0-6.06-.17s-2.38.57-1.72,2.33c1.77,4.67,1.68,9.49,1,14.35-.42,1.54.53,1.46,1.61,1.46,58.12.12,116.24.42,174.36.18q37.45-.15,74.91-.15c1.42,0,2.7.08,2.08-2C405.17,136.78,405.49,134.13,405.28,131.51Z"/><path class="cls-1" d="M400.93,113.61c-4.06-3-8.1-5.93-12.19-8.84-19.21-13.67-38.34-27.47-56.12-43s-36.07-30.7-52.15-48.16c-.87-1-1.33-1-2.24,0-7.42,8.29-15.61,15.8-23.84,23.28a893.38,893.38,0,0,1-75.94,61.43c-6.94,5-14,10-20.93,15-.56.4-1.55.64-1.3,1.52s1.2.69,1.9.75a16.28,16.28,0,0,0,4.35.26,3.83,3.83,0,0,1,1.68-.16q23.1,0,46.2,0a3.83,3.83,0,0,1,1.68.16c8.78-.89,15.79-4.71,20.42-12.61a6.15,6.15,0,0,1,.72.9c3.26,7.08,9.23,9.89,16.55,11,7.68,1.15,15.37.74,23.06.86,3.58,0,3.55,0,3.57-3.64.07-14.17-.53-28.38,2-42.44.22-1.24.14-2.64,1.49-3.9a126.6,126.6,0,0,1,2.29,16.33c.84,10.37.45,20.76.46,31.14,0,1.89.63,2.57,2.55,2.55,7.21-.11,14.44.23,21.63-.58,8-.89,15.31-3.07,19-11.24a8.19,8.19,0,0,1,.72-1,24.77,24.77,0,0,0,8.55,9.06c3.65,2.19,7.53,3.7,11.89,3.54a3.83,3.83,0,0,1,1.68-.16q21.89,0,43.77,0a3.68,3.68,0,0,1,1.68.17c2.12.25,4.2-.21,6.3-.34.52,0,1.24.21,1.5-.49C402.22,114.21,401.42,114,400.93,113.61ZM353,107.3c-9.37-4.35-17.26-10.79-24.84-17.66-3.29-3-6.47-6.16-10.35-8.42-4.45-2.61-9.23-3.48-14.2-1.82-9.58,3.19-10,14.22-6.23,19.88,1.74,2.6,4.36,3.48,7.42,3.12.38-.05.9-.07,1.09-.31.42-.54-.19-.86-.5-1.17a6.51,6.51,0,0,1-1.92-6A5.79,5.79,0,0,1,308,90.19a8,8,0,0,1,8.25,3.91,7.81,7.81,0,0,1-.35,8.28c-3.59,6-12.17,8.16-18.11,4.46-4.69-2.92-7.73-7.09-8.36-12.72-.62-5.45-.48-10.86,2.16-15.85,2.21-4.16,5.47-7,10.46-7.23a3.69,3.69,0,0,0,.91-.23c.06,0,.1-.12.3-.36-8.42-7.3-16.94-14.52-24.21-23.16-7,9-15.83,16.12-24.27,23.77a4.13,4.13,0,0,0,.85.37c7.9,1,12.17,4.88,13.11,13,.59,5.06,1.23,10.39-1.2,15.3-2.59,5.23-6.77,8.47-12.67,8.85-5.73.38-9.93-2.43-12.67-7.35a6.65,6.65,0,0,1,.55-7.94,7.91,7.91,0,0,1,8.48-2.9c4.41,1.16,5.52,6.54,2.24,10.2-.34.38-1.13.58-.81,1.28s1,.49,1.51.56a7.18,7.18,0,0,0,8.08-4.79c2.07-5,1.83-9.91-1.65-14.16-3.9-4.77-9.21-5.56-15-4.35-3.36.7-6,2.67-8.62,4.75-6.34,5-12,10.88-18.59,15.65s-13.06,9-21.16,10.28a38.63,38.63,0,0,1-6.44.21c-.23-.9.35-1.09.83-1.36,12.94-7.35,24.48-16.65,36-26C239.45,73,251.22,63.34,262.45,53c5-4.6,10.07-9.18,15-13.9,1.38-1.32,2.07-1.54,3.58-.09a759.2,759.2,0,0,0,69.14,58.62,154.59,154.59,0,0,0,16.18,10.71,2.49,2.49,0,0,1,1.59,1.6A28.72,28.72,0,0,1,353,107.3Z"/></svg>