<svg width="60" height="74" viewBox="0 0 60 74" fill="none" xmlns="http://www.w3.org/2000/svg">
<path d="M17.1363 61.0127C16.4716 60.8196 15.8646 60.4648 15.3689 59.9796C13.832 58.6131 13.3687 56.889 13.8122 54.933C14.1723 53.3436 15.8651 51.8998 17.4766 51.7232C18.106 51.6657 18.7373 51.811 19.2791 52.1383C19.3399 52.1611 19.3916 52.2031 19.4264 52.2581C19.4613 52.3131 19.4774 52.3779 19.4723 52.4429C19.4504 52.5974 19.2989 52.5599 19.1957 52.5842C17.8476 52.8999 16.8574 53.9705 16.8179 55.1626C16.7674 56.6417 17.6391 57.9044 19.0684 58.2532C21.6503 58.889 23.881 58.176 25.7319 56.2885C26.6919 55.2779 27.4388 54.0824 27.9274 52.774C28.147 53.178 28.0416 53.5953 28.0416 53.9926C28.0416 56.5931 26.9197 58.6087 24.9678 60.2687C23.6856 61.3527 22.197 61.9465 20.6689 62.4896C18.8817 63.1364 17.3295 64.0856 16.111 65.5647C15.3557 66.4764 14.8068 67.4698 14.8639 68.7105C14.9298 70.1256 16.5523 71.2867 17.9377 70.3485C18.1989 70.1719 18.2297 70.2558 18.2494 70.5097C18.3372 71.5428 17.3712 72.5473 16.212 72.6267C14.6992 72.7305 13.2743 71.7989 12.563 70.2183C11.6562 68.2028 11.9789 66.2932 13.0833 64.4587C13.9 63.0966 15.1691 62.2511 16.4886 61.4741C16.6467 61.3792 16.8026 61.2776 16.9584 61.1761C17.0024 61.1496 17.0397 61.0988 17.1363 61.0127Z" fill="#233565"/>
<path d="M42.6244 61.0126C43.2918 60.8214 43.9014 60.4664 44.3984 59.9795C45.9353 58.613 46.3986 56.8889 45.9551 54.933C45.595 53.3435 43.9044 51.8998 42.2907 51.7232C41.662 51.6658 41.0314 51.8112 40.4903 52.1382C40.4294 52.1609 40.3774 52.2029 40.3422 52.2578C40.307 52.3127 40.2904 52.3777 40.2949 52.4428C40.3191 52.5974 40.4684 52.5598 40.5716 52.5841C41.9218 52.8998 42.912 53.9705 42.9516 55.1626C43.0021 56.6416 42.1282 57.9044 40.6989 58.2532C38.117 58.889 35.8885 58.1759 34.0376 56.2884C33.0757 55.2797 32.3266 54.0857 31.8355 52.7784C31.6159 53.1824 31.7213 53.5996 31.7191 53.997C31.7191 56.5975 32.8432 58.613 34.8039 60.2731C36.0839 61.357 37.5725 61.9509 39.1006 62.4939C40.8833 63.1275 42.4356 64.0856 43.6541 65.558C44.4094 66.4698 44.9561 67.4632 44.899 68.7038C44.8331 70.1189 43.2128 71.2801 41.8252 70.3418C41.5662 70.1652 41.5354 70.2491 41.5135 70.503C41.4278 71.5361 42.3917 72.5406 43.5509 72.62C45.0659 72.7238 46.4908 71.7922 47.2021 70.2116C48.1089 68.1961 47.784 66.2865 46.6818 64.452C45.865 63.09 44.5938 62.2445 43.2765 61.4674C43.1162 61.3725 42.9603 61.2709 42.8066 61.1694C42.7583 61.1495 42.721 61.0987 42.6244 61.0126Z" fill="#233565"/>
<path d="M58.3182 34.1712C58.3885 35.4427 57.0536 36.5288 56.1227 36.5487C54.5485 36.5818 53.5846 35.4273 53.5627 34.2065C53.5363 32.7164 54.5133 31.7031 56.0063 31.67C57.2797 31.6413 58.2985 32.7473 58.3182 34.1712Z" fill="#233565"/>
<path d="M4.0113 36.5307C2.91353 36.5307 1.67963 35.3497 1.67963 34.3033C1.67963 32.7867 2.69617 31.6542 4.04204 31.6542C4.35966 31.6484 4.67515 31.7074 4.96943 31.8277C5.26372 31.948 5.53068 32.1271 5.75418 32.3541C5.97768 32.5811 6.15306 32.8513 6.26974 33.1484C6.38641 33.4454 6.44195 33.7632 6.43299 34.0825C6.36713 35.5947 5.45378 36.4115 4.0113 36.5307Z" fill="#233565"/>
<path d="M56.6935 25.0868C56.5613 24.1099 56.3736 23.1414 56.1315 22.1861C55.8065 20.7737 55.3599 19.3924 54.7966 18.0579C52.8087 13.3456 49.5481 9.28722 45.3842 6.34232C41.5186 3.57091 36.9864 1.88882 32.257 1.47021C29.4587 1.23116 26.6403 1.45488 23.914 2.13248C17.6742 3.6248 12.59 6.91629 8.66147 12.0069C6.72847 14.5101 5.26436 17.3459 4.34063 20.3759C3.79503 22.0875 3.41706 23.8487 3.21211 25.6343C3.08561 26.4769 3.01812 27.3275 3.01012 28.1796C2.96621 28.3275 2.89595 28.4776 3.02549 28.6211H7.21899C7.31121 28.5902 7.28706 28.5085 7.28925 28.4423C7.40602 26.0754 7.84482 23.7356 8.59341 21.4885C10.0996 16.9784 12.6222 13.2145 16.37 10.285C20.1179 7.3556 24.4036 6.02222 29.0559 5.6933C31.1681 5.54318 33.2516 5.84562 35.3133 6.30038C39.2169 7.15912 42.5432 9.11282 45.4282 11.8193C48.0892 14.3161 49.9203 17.3824 51.1849 20.8019C51.6153 22.0493 51.9817 23.3181 52.2827 24.6034C52.4993 25.8754 52.6459 27.1585 52.7218 28.4467C52.7349 28.6476 52.8513 28.6322 52.983 28.6322C54.2367 28.6322 55.4904 28.6322 56.744 28.6322C56.9526 28.6322 56.9877 28.5704 56.9899 28.3628C56.9754 27.2648 56.8763 26.1695 56.6935 25.0868Z" fill="#233565"/>
</svg>
