<svg id="Layer_1" data-name="Layer 1" xmlns="http://www.w3.org/2000/svg" viewBox="0 0 273.28 335.21"><defs><style>.cls-1{fill:#e9bad2;}</style></defs><path class="cls-1" d="M78.05,276.38A19.17,19.17,0,0,1,70,271.7c-7-6.19-9.11-14-7.09-22.86,1.64-7.2,9.35-13.74,16.69-14.54a13.56,13.56,0,0,1,8.21,1.88,1.36,1.36,0,0,1,.88,1.38c-.1.7-.79.53-1.26.64-6.14,1.43-10.65,6.28-10.83,11.68-.23,6.7,3.74,12.42,10.25,14,11.76,2.88,21.92-.35,30.35-8.9a46.94,46.94,0,0,0,10-15.92c1,1.83.52,3.72.52,5.52,0,11.78-5.11,20.91-14,28.43-5.84,4.91-12.62,7.6-19.58,10.06C86,286,78.93,290.3,73.38,297c-3.44,4.13-5.94,8.63-5.68,14.25.3,6.41,7.69,11.67,14,7.42,1.19-.8,1.33-.42,1.42.73.4,4.68-4,9.23-9.28,9.59-6.89.47-13.38-3.75-16.62-10.91-4.13-9.13-2.66-17.78,2.37-26.09,3.72-6.17,9.5-10,15.51-13.52.72-.43,1.43-.89,2.14-1.35C77.44,277,77.61,276.77,78.05,276.38Z"/><path class="cls-1" d="M194.14,276.38a19.07,19.07,0,0,0,8.08-4.68c7-6.19,9.11-14,7.09-22.86-1.64-7.2-9.34-13.74-16.69-14.54a13.54,13.54,0,0,0-8.2,1.88,1.37,1.37,0,0,0-.89,1.38c.11.7.79.53,1.26.64,6.15,1.43,10.66,6.28,10.84,11.68.23,6.7-3.75,12.42-10.26,14-11.76,2.88-21.91-.35-30.34-8.9A46.94,46.94,0,0,1,145,239.08c-1,1.83-.52,3.72-.53,5.52,0,11.78,5.12,20.91,14.05,28.43,5.83,4.91,12.61,7.6,19.57,10.06,8.12,2.87,15.19,7.21,20.74,13.88,3.44,4.13,5.93,8.63,5.67,14.25-.3,6.41-7.68,11.67-14,7.42-1.18-.8-1.32-.42-1.42.73-.39,4.68,4,9.23,9.28,9.59,6.9.47,13.39-3.75,16.63-10.91,4.13-9.13,2.65-17.78-2.37-26.09-3.72-6.17-9.51-10-15.51-13.52-.73-.43-1.44-.89-2.14-1.35C194.75,277,194.58,276.77,194.14,276.38Z"/><path class="cls-1" d="M265.62,154.79c.32,5.76-5.76,10.68-10,10.77-7.17.15-11.56-5.08-11.66-10.61-.12-6.75,4.33-11.34,11.13-11.49C260.89,143.33,265.53,148.34,265.62,154.79Z"/><path class="cls-1" d="M18.27,165.48c-5,0-10.62-5.35-10.62-10.09,0-6.87,4.63-12,10.76-12a10.7,10.7,0,0,1,10.89,11C29,161.24,24.84,164.94,18.27,165.48Z"/><path class="cls-1" d="M258.22,113.64a117.25,117.25,0,0,0-2.56-13.14h0a113.12,113.12,0,0,0-6.08-18.7,124.16,124.16,0,0,0-42.87-53.07A121.31,121.31,0,0,0,146.92,6.66a117.06,117.06,0,0,0-38,3Q66.29,19.8,39.45,54.39A118.39,118.39,0,0,0,19.77,92.3a125,125,0,0,0-5.14,23.82,82.46,82.46,0,0,0-.92,11.53h0c-.2.67-.52,1.35.07,2h19.1c.42-.14.31-.51.32-.81a117.51,117.51,0,0,1,5.94-31.5C46,76.91,57.49,59.86,74.56,46.59s36.59-19.31,57.78-20.8c9.62-.68,19.11.69,28.5,2.75,17.78,3.89,32.93,12.74,46.07,25,12.12,11.31,20.46,25.2,26.22,40.69a174.72,174.72,0,0,1,5,17.22,158.79,158.79,0,0,1,2,17.41c.06.91.59.84,1.19.84,5.71,0,11.42,0,17.13,0,.95,0,1.11-.28,1.12-1.22A96.36,96.36,0,0,0,258.22,113.64Z"/></svg>