<svg id="Layer_1" data-name="Layer 1" xmlns="http://www.w3.org/2000/svg" viewBox="0 0 566.93 566.93"><defs><style>.cls-1{fill:#ce433a;}</style></defs><path class="cls-1" d="M112.72,384.19a17.62,17.62,0,0,1,2.55-4.4c6.78-10.44,16-18.5,25.74-26,15.93-12.18,31.89-24.34,44.54-40.17a78.61,78.61,0,0,0,17.55-43.92c1-13.52-1.28-26.64-4.95-39.59-2.14-7.56-5.75-14.4-9.75-21.08-1.86-3.11-1-4.55,2.59-4.65a30.6,30.6,0,0,1,18.88,6.12c12.91,9.22,18.17,22.41,18.75,37.79.47,12.76-2.91,24.75-7.56,36.47-.45,1.12-1.89,7.71-1.89,7.71,5.06-1.79,14.43-6.44,24.58-11.79l-.16.18c6.52-3.12,12.6-6.63,18.85-9.79,9.86-5,20.06-9.22,31.3-9.43,19-.35,33.48,8.27,44.24,23.55a17.75,17.75,0,0,1,3.36,13.57c-1.44-.57-2.76-1-4-1.59a67.71,67.71,0,0,0-22.48-6.68,105.1,105.1,0,0,0-31.76,1.09c-26.58,4.81-50.71,15.65-73.49,29.82a32.65,32.65,0,0,0-3.55,2.93,16.66,16.66,0,0,0,5-1.2c12.16-4.05,24.51-7.12,37.36-8.14,8.51-.68,17-.75,25,2.33,19,7.31,31.05,20.54,33.62,41.32a17.14,17.14,0,0,1-.33,3.61A16.84,16.84,0,0,1,303,360.8c-3.76-2.56-7.28-5.48-11.12-7.91-12-7.64-25-13.27-39.13-15.37a110.36,110.36,0,0,0-40.19,1.78c-1.08.24-2.14.54-3.21.82,2.47.81,4.84,1,7.12,1.55,19.78,4.93,32.67,20.42,35.46,40.63.23,1.71-.15,3.52-.29,6a124.41,124.41,0,0,0-22-17.3c-19.24-11.92-39.84-15.63-61.9-10.31-10.64,2.56-20,7.9-29.27,13.56-7.43,4.55-15,8.95-22.49,13.34a8.61,8.61,0,0,1-2.81.55C113,386.83,112.37,385.37,112.72,384.19Z"/></svg>