<svg width="80" height="97" viewBox="0 0 80 97" fill="none" xmlns="http://www.w3.org/2000/svg">
<path d="M63.8472 48.3044C60.8233 46.0331 57.4019 45.4749 53.8138 46.2672C49.2639 47.2781 46.1195 50.1899 43.9626 54.2412C43.1454 55.6654 42.4792 57.1716 41.9749 58.7349C41.0885 61.2287 40.467 63.8092 40.1206 66.4337C39.9539 66.4054 39.9359 66.2794 39.9231 66.1611C39.6169 63.8263 39.0878 61.5264 38.3432 59.2931C37.6994 57.2353 36.9839 55.2058 35.7605 53.4001C34.922 51.9745 33.8554 50.697 32.6033 49.6188C29.5486 46.9771 26.099 45.6113 22.0134 46.0794C19.3229 46.3907 17.0095 47.4144 15.109 49.3951C12.4058 52.2168 12.0877 56.2604 14.3832 59.4192C15.8297 61.4024 18.5945 62.2744 20.7951 61.477C22.3827 60.8982 23.601 59.0976 23.1803 57.7292C22.3955 59.2725 21.4517 59.8925 20.0026 59.8024C18.7407 59.7253 17.5148 58.6578 17.0275 57.2302C16.335 55.1724 17.1865 52.7133 19.0152 51.4349C20.3793 50.4618 22.0043 49.924 23.6779 49.8915C25.3988 49.8504 27.0121 50.1487 28.5125 51.0233C29.3409 51.5069 30.0513 52.1525 30.8208 52.703L32.3596 54.5036C33.4005 56.069 34.2156 57.7741 34.7807 59.5684C35.5502 62.0583 35.6784 88.3597 35.6066 90.9345C35.5848 91.099 35.6164 91.2662 35.6968 91.4112C35.7772 91.5562 35.9021 91.6714 36.0529 91.7396C37.0277 92.2811 37.9043 92.9838 38.6458 93.818C39.2075 94.4457 39.5974 95.1916 40.118 95.8964C40.1873 95.7781 40.2257 95.7112 40.2616 95.6392C41.1952 93.872 42.475 92.4496 44.2832 91.5544C44.383 91.5139 44.4667 91.4416 44.5214 91.3486C44.5761 91.2556 44.5987 91.1472 44.5858 91.04C44.5858 89.9416 44.5704 65.0961 44.673 63.9978C44.802 62.4574 45.0847 60.9339 45.5168 59.45C46.1166 57.6035 46.9806 55.8542 48.0816 54.2566C48.2047 54.128 48.3381 53.9994 48.4483 53.8682C50.6899 51.1854 53.3624 49.4748 57.048 49.8812C59.0485 50.0999 60.7412 50.8535 62.0954 52.3583C63.6343 54.0817 63.7292 56.9395 62.2416 58.6501C61.4542 59.5555 60.4463 59.9851 59.2588 59.7407C58.7093 59.6457 58.2001 59.3895 57.7957 59.0045C57.3912 58.6195 57.1096 58.1229 56.9864 57.5774C56.7684 59.4012 57.702 60.8545 59.4537 61.4358C61.7492 62.2075 64.3883 61.2326 65.8656 59.0796C68.1816 55.7074 67.2788 50.8844 63.8472 48.3044Z" fill="#9AC552"/>
</svg>
