<svg width="80" height="97" viewBox="0 0 80 97" fill="none" xmlns="http://www.w3.org/2000/svg">
<path d="M63.8471 48.3049C60.8233 46.0336 57.4019 45.4754 53.8138 46.2677C49.2639 47.2786 46.1195 50.1904 43.9626 54.2417C43.1454 55.6659 42.4792 57.172 41.9749 58.7354C41.0885 61.2291 40.467 63.8097 40.1205 66.4342C39.9538 66.4059 39.9359 66.2799 39.9231 66.1615C39.6168 63.8268 39.0878 61.5269 38.3432 59.2936C37.6994 57.2358 36.9838 55.2063 35.7604 53.4006C34.922 51.975 33.8553 50.6975 32.6032 49.6193C29.5486 46.9776 26.099 45.6117 22.0133 46.0799C19.3229 46.3911 17.0095 47.4149 15.109 49.3955C12.4057 52.2173 12.0877 56.2609 14.3832 59.4197C15.8297 61.4029 18.5945 62.2749 20.7951 61.4775C22.3827 60.8987 23.6009 59.0981 23.1803 57.7297C22.3955 59.273 21.4517 59.8929 20.0026 59.8029C18.7407 59.7258 17.5147 58.6583 17.0274 57.2307C16.335 55.1728 17.1865 52.7138 19.0151 51.4354C20.3793 50.4623 22.0042 49.9245 23.6779 49.892C25.3988 49.8508 27.0121 50.1492 28.5124 51.0238C29.3409 51.5074 30.0513 52.153 30.8207 52.7035L32.3596 54.5041C33.4005 56.0695 34.2156 57.7746 34.7807 59.5688C35.5501 62.0588 35.6784 88.3602 35.6066 90.935C35.5848 91.0995 35.6164 91.2666 35.6968 91.4117C35.7772 91.5567 35.902 91.6719 36.0528 91.7401C37.0277 92.2816 37.9043 92.9843 38.6458 93.8185C39.2075 94.4461 39.5973 95.1921 40.118 95.8969C40.1872 95.7786 40.2257 95.7117 40.2616 95.6397C41.1952 93.8725 42.475 92.4501 44.2831 91.5549C44.3829 91.5144 44.4667 91.4421 44.5214 91.3491C44.5761 91.2561 44.5987 91.1477 44.5858 91.0405C44.5858 89.9421 44.5704 65.0966 44.673 63.9983C44.802 62.4579 45.0847 60.9343 45.5168 59.4505C46.1166 57.604 46.9805 55.8546 48.0816 54.2571C48.2047 54.1285 48.338 53.9999 48.4483 53.8687C50.6899 51.1858 53.3624 49.4753 57.048 49.8817C59.0485 50.1003 60.7412 50.854 62.0954 52.3588C63.6343 54.0822 63.7292 56.94 62.2416 58.6505C61.4542 59.556 60.4463 59.9855 59.2588 59.7412C58.7092 59.6462 58.2001 59.39 57.7956 59.005C57.3912 58.62 57.1096 58.1234 56.9864 57.5779C56.7684 59.4016 57.702 60.855 59.4537 61.4363C61.7492 62.208 64.3883 61.2331 65.8656 59.0801C68.1816 55.7079 67.2788 50.8849 63.8471 48.3049Z" fill="#E9BAD2"/>
</svg>
