<svg id="Layer_1" data-name="Layer 1" xmlns="http://www.w3.org/2000/svg" viewBox="0 0 351.34 438.7"><defs><style>.cls-1{fill:#80cce8;}</style></defs><path class="cls-1" d="M177.22,272.1c-.56-9.59-1.06-18.9-1.71-28.21-.13-1.89.44-2.46,2.22-2.38,13.69.62,27.38,1.18,41.06,1.81,3,.14,3.24.76,2.74,3.39-1.26,6.7-2.87,13.42-3.29,20.19-.78,12.3-.78,24.65-1.13,37-.13,4.62-.3,9.23-.55,13.85a2.48,2.48,0,0,1-.94,1.85c-8.73,4.13-14.79,11.25-20.67,18.5-8,9.91-13.9,21.14-19.52,32.49a19.19,19.19,0,0,1-1.25,2.53,14.36,14.36,0,0,1-1.87,1.87c-.51-.9-1.49-1.83-1.44-2.71.2-3.57.78-7.13,1.11-10.7.7-7.49,1.54-15,2-22.49C175.13,316.67,176.15,294.26,177.22,272.1Z"/><path class="cls-1" d="M117.06,294.4c7.53.32,14.95.65,22.37.92s14.55.49,21.83.76c2.49.09,2.77.5,1.73,2.77-3.78,8.27-5.25,17.14-6.57,26-2.36,15.94-2,31.95-.43,47.9a166.87,166.87,0,0,0,7.44,35.32,25.77,25.77,0,0,1,1.14,4.72,2.14,2.14,0,0,1-.91,1.81,2.25,2.25,0,0,1-1.85-.84c-9.77-13.18-21.65-24.21-34.53-34.26-5.06-3.94-10.16-8-13.39-13.68-3.87-6.86-3.84-14.29-2.23-21.7,1.37-6.34,3.56-12.51,4.73-18.87a84.27,84.27,0,0,0,.63-29.88A4.19,4.19,0,0,1,117.06,294.4Z"/><path class="cls-1" d="M227,143.6c-.93,3.8-2.09,7.22-2.57,10.73-.87,6.44-1.54,12.92-1.94,19.4-1,17-1.74,34-.64,51.08a73.71,73.71,0,0,0,1.63,8.86L176,231.53c.4-2.25.95-4.46,1.17-6.71.9-9.1,2.11-18.2,2.43-27.32.45-12.83.47-25.7.14-38.53-.13-5.14-1.56-10.26-2.65-15.34-.59-2.71-.41-3.31,2.39-3.16q22.32,1.22,44.63,2.52A20.19,20.19,0,0,1,227,143.6Z"/><path class="cls-1" d="M120.2,198.27c4.44-.36,8.67-.77,12.91-1,10.59-.68,21.19-1.27,31.79-2,2.3-.15,2.83.45,2.54,2.91-1.12,9.42-2.21,18.86-2.73,28.33-.68,12.4-1.12,24.82-1.07,37.23,0,7.49,1.13,15,1.86,22.46.27,2.74,0,3.24-2.69,3.14-14.38-.53-28.76-1.1-43.14-1.61-1.64-.05-2.25-.36-1.85-2.26,1.4-6.76,3.05-13.53,3.76-20.39,1-9.26,1.37-18.61,1.56-27.93.17-8.29-.07-16.6-.58-24.88C122.29,207.8,121.1,203.38,120.2,198.27Z"/><path class="cls-1" d="M120.3,188.47a287.35,287.35,0,0,0-6-86.8L163,95.42c-.35,4.74-1,8.91-.89,13,.49,14.28,1.32,28.54,1.92,42.82a162.08,162.08,0,0,0,4.12,30.46c.82,3.47.39,3.61-3.18,3.83C150.25,186.47,135.57,187.47,120.3,188.47Z"/><path class="cls-1" d="M228.1,136l-50.65-3.14a76.59,76.59,0,0,0,1.81-8.78c.9-10.32,1.8-20.62,4.55-30.67,7.13-26.11,22.31-45.74,46.64-57.92,5.27-2.63,10.87-4.59,16.35-6.77a6.28,6.28,0,0,1,2.35.08c-.05.71.14,1.55-.18,2.09-9.76,16.24-14.43,34.28-18.38,52.52-2.7,12.48-4.5,25.13-4.18,37.95.09,3.91.8,7.8,1.25,11.69C227.76,134,227.92,134.86,228.1,136ZM217.35,61.9a10.64,10.64,0,0,0-1.34.93C202.4,76,192.75,91.46,189.45,110.39c-.51,2.88-.48,5.86-.7,8.79l.7,0C196,98.79,205.61,79.88,217.35,61.9Z"/><path class="cls-1" d="M162.35,88.08l-50.08,6.49c.18-1.67.54-3.56.56-5.46.24-20.77-1.86-41.17-9.94-60.57-2.53-6.08-5.22-12.08-7.75-18.15a9.9,9.9,0,0,1-.27-2.86,12.79,12.79,0,0,1,2.64.17,123.37,123.37,0,0,1,41.84,20.57C152.07,37.9,158.1,50.5,158.94,66c.21,3.76.15,7.57.72,11.27S161.45,84.57,162.35,88.08Z"/><path class="cls-1" d="M233.4,330.12a9.83,9.83,0,0,1-1.3,2.52c-10.74,10.85-17,24.43-23.41,38-5.7,12-11.35,24.15-18,35.63-4.21,7.25-10.28,13.41-15.51,20.06a39,39,0,0,1-2.73,3.4,12,12,0,0,1-2.43,1.48c-.38-.86-1.11-1.74-1.08-2.58A132.43,132.43,0,0,1,173,400.24c4.63-18.07,12.32-34.6,25.07-48.42,8.91-9.66,19.09-17.63,31.83-21.76a26.14,26.14,0,0,1,2.9-.59Z"/></svg>