<svg width="85" height="106" viewBox="0 0 85 106" fill="none" xmlns="http://www.w3.org/2000/svg">
<path d="M42.875 65.7465C42.7395 63.4293 42.6185 61.1798 42.4613 58.9303C42.4298 58.4737 42.5677 58.3359 42.9983 58.3553C46.3104 58.5051 49.6224 58.6404 52.932 58.7926C53.6578 58.8264 53.7159 58.9762 53.5949 59.6117C53.2901 61.2306 52.9006 62.8543 52.799 64.4901C52.6103 67.462 52.6103 70.4461 52.5256 73.4301C52.4941 74.5464 52.453 75.6603 52.3925 76.7766C52.3892 76.8631 52.3671 76.9478 52.3279 77.025C52.2886 77.1022 52.2331 77.1699 52.1651 77.2236C50.0531 78.2215 48.587 79.9419 47.1644 81.6936C45.229 84.0881 43.8016 86.8015 42.4419 89.544C42.3563 89.7549 42.2552 89.9592 42.1395 90.1553C42.0029 90.3195 41.8515 90.4707 41.6871 90.6071C41.5637 90.3896 41.3266 90.1649 41.3387 89.9523C41.3871 89.0897 41.5274 88.2295 41.6072 87.3669C41.7766 85.5572 41.9798 83.7426 42.0911 81.9328C42.3693 76.5156 42.6161 71.1009 42.875 65.7465Z" fill="#9AC552"/>
<path d="M28.3205 71.1348C30.1422 71.2121 31.9373 71.2918 33.7325 71.3571C35.5276 71.4223 37.2526 71.4755 39.0138 71.5407C39.6162 71.5624 39.684 71.6615 39.4324 72.21C38.5179 74.2082 38.1622 76.3514 37.8429 78.4922C37.2719 82.3437 37.359 86.212 37.7388 90.0659C38.0281 92.9673 38.6316 95.8287 39.5388 98.6001C39.6665 98.9707 39.7588 99.3525 39.8146 99.7405C39.8169 99.8259 39.798 99.9105 39.7596 99.9868C39.7212 100.063 39.6645 100.129 39.5945 100.178C39.5091 100.181 39.4242 100.165 39.3464 100.13C39.2687 100.094 39.2003 100.041 39.1469 99.9749C36.7832 96.7903 33.9091 94.1252 30.793 91.6969C29.5688 90.7449 28.335 89.7639 27.5536 88.3915C26.6173 86.7339 26.6245 84.9387 27.014 83.1483C27.3455 81.6164 27.8753 80.1256 28.1584 78.5888C28.6395 76.2106 28.6911 73.7656 28.3108 71.3691C28.3049 71.2909 28.3082 71.2123 28.3205 71.1348Z" fill="#9AC552"/>
<path d="M54.9183 34.697C54.6933 35.6151 54.4127 36.4415 54.2965 37.2896C54.0861 38.8456 53.924 40.4114 53.8272 41.9771C53.5853 46.0847 53.4062 50.1923 53.6724 54.3192C53.76 55.0401 53.8917 55.7551 54.0667 56.46L42.5798 55.9429C42.6766 55.3992 42.8097 54.8652 42.8629 54.3216C43.0806 52.1228 43.3734 49.9241 43.4508 47.7205C43.5597 44.6204 43.5645 41.5107 43.4847 38.4107C43.4532 37.1688 43.1072 35.9317 42.8435 34.7042C42.7008 34.0494 42.7443 33.9044 43.4218 33.9407C47.0217 34.1372 50.6208 34.3402 54.2191 34.5496C54.4555 34.5816 54.6892 34.6309 54.9183 34.697Z" fill="#9AC552"/>
<path d="M29.0801 47.9058C30.1543 47.8189 31.1776 47.7198 32.2034 47.6642C34.7655 47.4999 37.3299 47.3574 39.8944 47.181C40.4508 47.1447 40.5791 47.2897 40.5089 47.8841C40.2379 50.1602 39.9742 52.4411 39.8484 54.7293C39.6839 57.7254 39.5775 60.7264 39.5896 63.7249C39.5896 65.5347 39.8629 67.3492 40.0396 69.1518C40.1049 69.8138 40.0396 69.9346 39.3888 69.9104C35.9098 69.7824 32.4308 69.6447 28.9519 69.5214C28.5551 69.5094 28.4075 69.4345 28.5043 68.9754C28.843 67.342 29.2422 65.7062 29.414 64.0487C29.6559 61.8112 29.7454 59.5521 29.7914 57.3001C29.8325 55.2971 29.7744 53.2892 29.651 51.2886C29.5857 50.2085 29.2978 49.1405 29.0801 47.9058Z" fill="#9AC552"/>
<path d="M29.1043 45.5377C29.6891 38.5137 29.1997 31.4417 27.6527 24.5648L39.4347 23.0547C39.3501 24.2 39.1928 25.2075 39.2194 26.1958C39.338 29.6462 39.5388 33.0917 39.6839 36.5421C39.782 39.0214 40.1157 41.4857 40.6807 43.9019C40.8791 44.7404 40.775 44.7742 39.9113 44.8273C36.3501 45.0545 32.7986 45.2961 29.1043 45.5377Z" fill="#9AC552"/>
<path d="M55.1845 32.8612L42.9307 32.1025C43.118 31.4045 43.2642 30.6962 43.3686 29.9811C43.5863 27.4875 43.804 24.9988 44.4693 22.5705C46.1943 16.2617 49.8668 11.5187 55.753 8.57569C57.028 7.94022 58.3828 7.46664 59.7086 6.9399C59.8976 6.91054 60.0905 6.9171 60.2771 6.95923C60.265 7.13078 60.311 7.33375 60.2336 7.46422C57.8723 11.3882 56.7425 15.7471 55.7869 20.1543C55.1337 23.1697 54.6982 26.2262 54.7756 29.3239C54.7974 30.2686 54.9691 31.2085 55.078 32.1484C55.1022 32.378 55.1409 32.5858 55.1845 32.8612ZM52.5837 14.957C52.47 15.0235 52.3617 15.0986 52.2595 15.1817C48.9668 18.3638 46.6322 22.0993 45.8338 26.6732C45.7105 27.3691 45.7177 28.0892 45.6645 28.7971H45.8338C47.4185 23.8704 49.7434 19.3013 52.5837 14.957Z" fill="#9AC552"/>
<path d="M39.2775 21.2815L27.1616 22.8497C27.2052 22.4461 27.2923 21.9895 27.2971 21.5304C27.3552 16.5119 26.8471 11.5828 24.8923 6.89529C24.2802 5.42622 23.6294 3.97649 23.0173 2.50983C22.962 2.28388 22.94 2.05109 22.952 1.81879C23.1658 1.8104 23.3798 1.82416 23.5907 1.85987C27.2505 2.859 30.6859 4.54584 33.7131 6.83005C36.7905 9.15688 38.2493 12.2013 38.4525 15.9465C38.5033 16.855 38.4888 17.7756 38.6267 18.6696C38.7646 19.5636 39.0598 20.4334 39.2775 21.2815Z" fill="#9AC552"/>
<path d="M56.4667 79.7645C56.3918 79.9816 56.2859 80.1867 56.1522 80.3734C53.5538 82.995 52.0393 86.2762 50.4886 89.555C49.1095 92.4545 47.7426 95.3902 46.1338 98.1641C45.1153 99.9158 43.6467 101.404 42.3814 103.011C42.1768 103.297 41.9563 103.571 41.721 103.833C41.5399 103.975 41.3426 104.095 41.1331 104.19C41.0412 103.982 40.8645 103.77 40.8718 103.567C40.9496 101.251 41.279 98.9514 41.854 96.7071C42.9742 92.3409 44.8346 88.3469 47.9192 85.0077C50.0749 82.6736 52.5377 80.7479 55.6199 79.75C55.8509 79.6893 56.0851 79.6417 56.3215 79.6074L56.4667 79.7645Z" fill="#9AC552"/>
</svg>
