<svg width="85" height="106" viewBox="0 0 85 106" fill="none" xmlns="http://www.w3.org/2000/svg">
<path d="M42.8751 65.7465C42.7396 63.4293 42.6186 61.1798 42.4614 58.9303C42.4299 58.4737 42.5678 58.3359 42.9985 58.3553C46.3105 58.5051 49.6225 58.6404 52.9322 58.7926C53.6579 58.8264 53.716 58.9762 53.595 59.6117C53.2902 61.2306 52.9007 62.8543 52.7991 64.4901C52.6104 67.462 52.6104 70.4461 52.5257 73.4301C52.4943 74.5464 52.4531 75.6603 52.3926 76.7766C52.3893 76.8631 52.3673 76.9478 52.328 77.025C52.2887 77.1022 52.2332 77.1699 52.1652 77.2236C50.0532 78.2215 48.5871 79.9419 47.1645 81.6936C45.2291 84.0881 43.8017 86.8015 42.442 89.544C42.3564 89.7549 42.2553 89.9592 42.1396 90.1553C42.003 90.3195 41.8516 90.4707 41.6872 90.6071C41.5638 90.3896 41.3267 90.1649 41.3388 89.9523C41.3872 89.0897 41.5275 88.2295 41.6074 87.3669C41.7767 85.5572 41.9799 83.7426 42.0912 81.9328C42.3695 76.5156 42.6162 71.1009 42.8751 65.7465Z" fill="#233565"/>
<path d="M28.3203 71.1348C30.1421 71.2121 31.9372 71.2918 33.7323 71.3571C35.5275 71.4223 37.2524 71.4755 39.0137 71.5407C39.6161 71.5624 39.6838 71.6615 39.4322 72.21C38.5177 74.2082 38.1621 76.3514 37.8427 78.4922C37.2718 82.3437 37.3589 86.212 37.7387 90.0659C38.028 92.9673 38.6315 95.8287 39.5387 98.6001C39.6664 98.9707 39.7587 99.3525 39.8145 99.7405C39.8168 99.8259 39.7979 99.9105 39.7595 99.9868C39.7211 100.063 39.6643 100.129 39.5943 100.178C39.509 100.181 39.424 100.165 39.3463 100.13C39.2685 100.094 39.2002 100.041 39.1468 99.9749C36.7831 96.7903 33.909 94.1252 30.7929 91.6969C29.5687 90.7449 28.3349 89.7639 27.5534 88.3915C26.6172 86.7339 26.6244 84.9387 27.0139 83.1483C27.3454 81.6164 27.8752 80.1256 28.1583 78.5888C28.6394 76.2106 28.691 73.7656 28.3107 71.3691C28.3048 71.2909 28.308 71.2123 28.3203 71.1348Z" fill="#233565"/>
<path d="M54.9183 34.697C54.6933 35.6151 54.4127 36.4415 54.2965 37.2896C54.0861 38.8456 53.924 40.4114 53.8272 41.9771C53.5853 46.0847 53.4062 50.1923 53.6724 54.3192C53.76 55.0401 53.8917 55.7551 54.0667 56.46L42.5798 55.9429C42.6766 55.3992 42.8097 54.8652 42.8629 54.3216C43.0806 52.1228 43.3734 49.9241 43.4508 47.7205C43.5597 44.6204 43.5645 41.5107 43.4847 38.4107C43.4532 37.1688 43.1072 35.9317 42.8435 34.7042C42.7008 34.0494 42.7443 33.9044 43.4218 33.9407C47.0217 34.1372 50.6208 34.3402 54.2191 34.5496C54.4555 34.5816 54.6892 34.6309 54.9183 34.697Z" fill="#233565"/>
<path d="M29.0801 47.9058C30.1543 47.8189 31.1776 47.7198 32.2034 47.6642C34.7655 47.4999 37.3299 47.3574 39.8944 47.181C40.4508 47.1447 40.5791 47.2897 40.5089 47.8841C40.2379 50.1602 39.9742 52.4411 39.8484 54.7293C39.6839 57.7254 39.5775 60.7264 39.5896 63.7249C39.5896 65.5347 39.8629 67.3492 40.0396 69.1518C40.1049 69.8138 40.0396 69.9346 39.3888 69.9104C35.9098 69.7824 32.4308 69.6447 28.9519 69.5214C28.5551 69.5094 28.4075 69.4345 28.5043 68.9754C28.843 67.342 29.2422 65.7062 29.414 64.0487C29.6559 61.8112 29.7454 59.5521 29.7914 57.3001C29.8325 55.2971 29.7744 53.2892 29.651 51.2886C29.5857 50.2085 29.2978 49.1405 29.0801 47.9058Z" fill="#233565"/>
<path d="M29.1042 45.5377C29.689 38.5137 29.1995 31.4417 27.6526 24.5648L39.4346 23.0547C39.3499 24.2 39.1927 25.2075 39.2193 26.1958C39.3378 29.6462 39.5387 33.0917 39.6838 36.5421C39.7819 39.0214 40.1156 41.4857 40.6806 43.9019C40.8789 44.7404 40.7749 44.7742 39.9112 44.8273C36.35 45.0545 32.7985 45.2961 29.1042 45.5377Z" fill="#233565"/>
<path d="M55.1845 32.8612L42.9307 32.1025C43.118 31.4045 43.2642 30.6962 43.3686 29.9811C43.5863 27.4875 43.804 24.9988 44.4693 22.5705C46.1943 16.2617 49.8668 11.5187 55.753 8.57569C57.028 7.94022 58.3828 7.46664 59.7086 6.9399C59.8976 6.91054 60.0905 6.9171 60.2771 6.95923C60.265 7.13078 60.311 7.33375 60.2336 7.46422C57.8723 11.3882 56.7425 15.7471 55.7869 20.1543C55.1337 23.1697 54.6982 26.2262 54.7756 29.3239C54.7974 30.2686 54.9691 31.2085 55.078 32.1484C55.1022 32.378 55.1409 32.5858 55.1845 32.8612ZM52.5837 14.957C52.47 15.0235 52.3617 15.0986 52.2595 15.1817C48.9668 18.3638 46.6322 22.0993 45.8338 26.6732C45.7105 27.3691 45.7177 28.0892 45.6645 28.7971H45.8338C47.4185 23.8704 49.7434 19.3013 52.5837 14.957Z" fill="#233565"/>
<path d="M39.2774 21.2815L27.1615 22.8497C27.205 22.4461 27.2921 21.9895 27.297 21.5304C27.355 16.5119 26.847 11.5828 24.8922 6.89529C24.2801 5.42622 23.6293 3.97649 23.0172 2.50983C22.9619 2.28388 22.9399 2.05109 22.9519 1.81879C23.1657 1.8104 23.3797 1.82416 23.5906 1.85987C27.2504 2.859 30.6858 4.54584 33.713 6.83005C36.7904 9.15688 38.2492 12.2013 38.4524 15.9465C38.5032 16.855 38.4887 17.7756 38.6266 18.6696C38.7645 19.5636 39.0597 20.4334 39.2774 21.2815Z" fill="#233565"/>
<path d="M56.4667 79.7645C56.3918 79.9816 56.2859 80.1867 56.1522 80.3734C53.5538 82.995 52.0393 86.2762 50.4886 89.555C49.1095 92.4545 47.7426 95.3902 46.1338 98.1641C45.1153 99.9158 43.6467 101.404 42.3814 103.011C42.1768 103.297 41.9563 103.571 41.721 103.833C41.5399 103.975 41.3426 104.095 41.1331 104.19C41.0412 103.982 40.8645 103.77 40.8718 103.567C40.9496 101.251 41.279 98.9514 41.854 96.7071C42.9742 92.3409 44.8346 88.3469 47.9192 85.0077C50.0749 82.6736 52.5377 80.7479 55.6199 79.75C55.8509 79.6893 56.0851 79.6417 56.3215 79.6074L56.4667 79.7645Z" fill="#233565"/>
</svg>
