<svg width="30" height="84" viewBox="0 0 30 84" fill="none" xmlns="http://www.w3.org/2000/svg">
<path d="M12.1698 11.3477C12.0403 10.6469 11.8748 9.95407 11.7891 9.24732C11.5284 7.2145 11.911 5.15113 12.8833 3.34644C12.9272 3.26481 12.979 3.18916 13.0288 3.10952C14.0593 1.45513 15.6996 1.31776 16.7978 2.91044C18.0466 4.66415 18.5856 6.82464 18.3065 8.95865C18.2148 9.68133 18.0355 10.396 17.8661 11.266C18.0155 11.0411 18.0953 10.9376 18.159 10.8261C19.0719 9.23338 20.2418 7.93933 22.1452 7.54315C22.6002 7.44233 23.0714 7.43827 23.5281 7.53122C23.9848 7.62417 24.4168 7.81205 24.796 8.08267C25.0889 8.27078 25.3195 8.54137 25.4585 8.86027C25.5976 9.17918 25.6389 9.53209 25.5773 9.87444C25.4697 10.5752 24.8897 10.83 24.2838 11.0152C23.5643 11.2342 22.795 11.3596 22.1313 11.6941C20.5951 12.4664 19.3225 13.676 18.4739 15.1701C18.3752 15.3498 18.2626 15.5215 18.1371 15.6837C17.6687 16.2611 17.1565 16.705 16.3114 16.6135C15.1535 16.488 13.9855 16.4622 12.8235 16.3666C12.1578 16.3109 11.7672 15.839 11.3706 15.3533C10.5733 14.3797 9.7761 13.4162 8.92306 12.4964C8.23943 11.7558 7.31862 11.3895 6.36393 11.1187C6.18654 11.0689 6.01514 11.0052 5.84174 10.9435C4.88306 10.5911 4.55221 10.195 4.57812 9.42849C4.60403 8.66201 5.27371 7.83581 6.01514 7.63672C7.51195 7.2286 8.84333 7.58496 10.0013 8.58038C10.8344 9.29709 11.5798 10.0934 11.9366 11.1685C11.975 11.2457 12.0255 11.3162 12.0861 11.3775L12.1698 11.3477Z" fill="#BE986A"/>
<path d="M18.0076 72.6657C18.1371 73.3664 18.3026 74.0593 18.3863 74.766C18.6482 76.7982 18.2655 78.8613 17.2921 80.6649C17.2482 80.7465 17.1984 80.8242 17.1486 80.9038C16.1181 82.5562 14.4758 82.6956 13.3776 81.1029C12.1282 79.3472 11.5899 77.1844 11.8709 75.0487C11.9625 74.324 12.1419 73.6113 12.3113 72.7393C12.1599 72.9663 12.0801 73.0698 12.0164 73.1813C11.1035 74.774 9.93557 76.068 8.04214 76.4642C7.58712 76.565 7.11596 76.5691 6.65927 76.4761C6.20258 76.3832 5.77057 76.1953 5.39133 75.9247C5.09862 75.7363 4.86813 75.4657 4.72878 75.147C4.58943 74.8282 4.54743 74.4754 4.60804 74.1329C4.71766 73.4341 5.29566 73.1793 5.90156 72.9941C6.62306 72.7752 7.39239 72.6497 8.0541 72.3153C9.5871 71.5403 10.8562 70.3294 11.7015 68.8353C11.7976 68.6558 11.9076 68.4841 12.0303 68.3216C12.5007 67.7443 13.0109 67.3003 13.858 67.3919C15.016 67.5153 16.1839 67.5432 17.3459 67.6388C18.0116 67.6945 18.4022 68.1643 18.7988 68.6521C19.5961 69.6256 20.3933 70.5892 21.2444 71.509C21.928 72.2476 22.8388 72.6159 23.8055 72.8847C23.9809 72.9344 24.1543 73.0001 24.3277 73.0618C25.2864 73.4142 25.6172 73.8104 25.5913 74.5769C25.5654 75.3434 24.8957 76.1696 24.1523 76.3686C22.6555 76.7668 21.3261 76.4204 20.1661 75.425C19.335 74.7083 18.5896 73.9099 18.2328 72.8369C18.193 72.7601 18.142 72.6896 18.0813 72.6278L18.0076 72.6657Z" fill="#BE986A"/>
</svg>
