<svg id="Layer_1" data-name="Layer 1" xmlns="http://www.w3.org/2000/svg" viewBox="0 0 150.52 421.93"><defs><style>.cls-1{fill:#aa5c9d;}</style></defs><path class="cls-1" d="M61.06,57c-.65-3.52-1.48-7-1.91-10.55a49.32,49.32,0,0,1,5.49-29.64c.22-.41.48-.79.73-1.19,5.17-8.31,13.4-9,18.91-1A42.84,42.84,0,0,1,91.85,45c-.46,3.63-1.36,7.22-2.21,11.59.75-1.13,1.15-1.65,1.47-2.21,4.58-8,10.45-14.5,20-16.49a16.67,16.67,0,0,1,13.3,2.71,8.84,8.84,0,0,1,3.92,9c-.54,3.52-3.45,4.8-6.49,5.73-3.61,1.1-7.47,1.73-10.8,3.41A43.67,43.67,0,0,0,92.69,76.2,19.82,19.82,0,0,1,91,78.78c-2.35,2.9-4.92,5.13-9.16,4.67-5.81-.63-11.67-.76-17.5-1.24-3.34-.28-5.3-2.65-7.29-5.09-4-4.89-8-9.73-12.28-14.35-3.43-3.72-8.05-5.56-12.84-6.92-.89-.25-1.75-.57-2.62-.88-4.81-1.77-6.47-3.76-6.34-7.61s3.49-8,7.21-9c7.51-2.05,14.19-.26,20,4.74,4.18,3.6,7.92,7.6,9.71,13a4.07,4.07,0,0,0,.75,1.05Z"/><path class="cls-1" d="M90.35,365c.65,3.52,1.48,7,1.9,10.55a49.2,49.2,0,0,1-5.49,29.63c-.22.41-.47.8-.72,1.2-5.17,8.3-13.41,9-18.92,1a42.85,42.85,0,0,1-7.56-30.41c.46-3.64,1.36-7.22,2.21-11.6-.76,1.14-1.16,1.66-1.48,2.22-4.58,8-10.44,14.5-19.94,16.49a16.67,16.67,0,0,1-13.3-2.71,8.87,8.87,0,0,1-3.93-9c.55-3.51,3.45-4.79,6.49-5.72,3.62-1.1,7.48-1.73,10.8-3.41a43.67,43.67,0,0,0,18.3-17.48,19.82,19.82,0,0,1,1.65-2.58c2.36-2.9,4.92-5.13,9.17-4.67,5.81.62,11.67.76,17.5,1.24,3.34.28,5.3,2.64,7.29,5.09,4,4.89,8,9.73,12.27,14.35,3.43,3.71,8,5.56,12.85,6.91.88.25,1.75.58,2.62.89,4.81,1.77,6.47,3.76,6.34,7.61s-3.49,8-7.22,9c-7.51,2-14.18.26-20-4.74-4.17-3.6-7.91-7.61-9.7-13a4.37,4.37,0,0,0-.76-1.05Z"/></svg>