<svg width="75" height="100" viewBox="0 0 75 100" fill="none" xmlns="http://www.w3.org/2000/svg">
<path d="M49.8096 38.1505C49.8096 30.5762 49.7913 22.9999 49.8096 15.4237C49.8096 14.794 49.6063 14.4599 49.021 14.221C47.4828 13.585 45.8992 13.0639 44.2833 12.662C44.1451 12.6276 43.9723 12.4697 43.8179 12.662C43.8016 12.986 43.7732 13.3099 43.7732 13.6339C43.7732 26.8616 43.7732 40.0894 43.7732 53.3172C43.7732 56.5708 43.6756 59.8245 43.8382 63.0781C43.8311 63.1724 43.8311 63.2672 43.8382 63.3615C44.2264 66.8035 45.3341 70.0591 46.5983 73.2641C46.6813 73.5382 46.8649 73.7709 47.1125 73.9161C47.5861 72.6142 48.0352 71.3589 48.4986 70.1077C49.2933 67.9636 49.8604 65.7932 49.8482 63.4668C49.7954 55.024 49.8116 46.5872 49.8096 38.1505Z" fill="#E9BAD2"/>
<path d="M31.1456 16.2417C31.2655 15.118 31.2065 13.9903 31.2045 12.8625C31.2045 12.5973 31.0826 12.4738 30.798 12.5588C29.0845 13.0435 27.4054 13.6414 25.7717 14.3486C25.5116 14.4681 25.2453 14.6037 25.2453 14.956C25.2453 15.1463 25.2169 15.3367 25.2169 15.527C25.2169 30.1693 25.2169 44.8144 25.2169 59.4621C25.2169 61.5475 25.1417 63.6349 25.2575 65.7183C25.2554 65.8536 25.2629 65.9889 25.2799 66.1232C25.6209 67.8264 26.1154 69.4954 26.7575 71.11C27.1111 72.0271 27.3327 73.0051 27.9119 73.8392C28.1538 73.7096 28.2148 73.4788 28.3082 73.2804C28.9967 71.8738 29.5539 70.4072 29.9728 68.899C30.42 67.2064 30.9667 65.5341 31.1049 63.7726C31.1354 62.8352 31.1964 61.8978 31.1964 60.9624C31.1964 51.6651 31.1849 42.3672 31.1618 33.0686L31.1456 16.2417Z" fill="#E9BAD2"/>
<path d="M40.5945 63.815C40.5945 63.6712 40.5945 63.5275 40.5945 63.3857L40.566 62.1426C40.566 48.0982 40.566 34.0531 40.566 20.0074C40.566 17.5191 40.566 15.0308 40.566 12.5425C40.566 12.2631 40.6249 11.8844 40.2164 11.8743C38.373 11.8318 36.5295 11.7306 34.6881 11.9553C34.4341 11.9877 34.43 12.1274 34.4686 12.3157C34.3731 13.7674 34.4158 15.2211 34.4158 16.6748C34.4158 24.8058 34.4158 32.9375 34.4158 41.0699C34.4158 47.1135 34.4605 60.5897 34.3995 63.7016C34.3905 64.1398 34.4551 64.5763 34.5906 64.9933L37.4645 73.8269L40.3851 65.1492C40.5308 64.7196 40.6016 64.2683 40.5945 63.815Z" fill="#E9BAD2"/>
</svg>
