<svg id="Layer_1" data-name="Layer 1" xmlns="http://www.w3.org/2000/svg" viewBox="0 0 369.01 493.91"><defs><style>.cls-1{fill:#aa5c9d;}</style></defs><path class="cls-1" d="M245.07,188.43c0-37.41-.09-74.83,0-112.25,0-3.11-1-4.76-3.88-5.94a165.22,165.22,0,0,0-23.31-7.7c-.68-.17-1.53-.95-2.29,0-.08,1.6-.22,3.2-.22,4.8q0,98,0,196c0,16.07-.48,32.14.32,48.21a9.4,9.4,0,0,0,0,1.4c1.91,17,7.36,33.08,13.58,48.91a5.62,5.62,0,0,0,2.53,3.22c2.33-6.43,4.54-12.63,6.82-18.81,3.91-10.59,6.7-21.31,6.64-32.8C245,271.77,245.08,230.1,245.07,188.43Z"/><path class="cls-1" d="M153.24,80.22h0c.59-5.55.3-11.12.29-16.69,0-1.31-.6-1.92-2-1.5a197.21,197.21,0,0,0-24.73,8.84c-1.28.59-2.59,1.26-2.59,3,0,.94-.14,1.88-.14,2.82q0,108.48,0,217c0,10.3-.37,20.61.2,30.9h0a14.28,14.28,0,0,0,.11,2,142.66,142.66,0,0,0,7.27,24.63c1.74,4.53,2.83,9.36,5.68,13.48,1.19-.64,1.49-1.78,1.95-2.76a126.17,126.17,0,0,0,8.19-21.64c2.2-8.36,4.89-16.62,5.57-25.32.15-4.63.45-9.26.45-13.88q0-68.88-.17-137.77Z"/><path class="cls-1" d="M199.73,315.19c0-.71,0-1.42,0-2.12l-.14-6.14q0-104.05,0-208.11c0-12.29,0-24.58,0-36.87,0-1.38.29-3.25-1.72-3.3-9.07-.21-18.14-.71-27.2.4-1.25.16-1.27.85-1.08,1.78-.47,7.17-.26,14.35-.26,21.53q0,60.24,0,120.49c0,29.85.22,96.41-.08,111.78a19.43,19.43,0,0,0,.94,6.38l14.14,43.63,14.37-42.86A19.64,19.64,0,0,0,199.73,315.19Z"/></svg>