<svg id="Layer_2" data-name="Layer 2" xmlns="http://www.w3.org/2000/svg" viewBox="0 0 566.93 566.93"><defs><style>.cls-1{fill:#094e92;}.cls-2{fill:#c19560;}</style></defs><path class="cls-1" d="M283.23,254.3c-.53.07-.74-.3-1-.55-9.51-9-20.15-16.51-30.53-24.37-5.23-4-5.26-3.91-.16-7.79q13.08-10,26.1-20c1.81-1.4,3.5-2.94,5.21-4.46,1.18-1.05,2.2-.92,3.38.07,4,3.33,7.92,6.68,12,9.88,6.77,5.32,13.55,10.61,20.76,15.33.45.29.92.56,1.34.88,1.81,1.36,1.81,2.47-.09,3.68-7.13,4.55-13.79,9.77-20.6,14.77-5,3.64-9.7,7.62-14.52,11.47A5.42,5.42,0,0,1,283.23,254.3Z"/><path class="cls-1" d="M284.49,370.76A4.91,4.91,0,0,1,283,370c-9.61-7.5-19-15.28-28.82-22.49-1.72-1.25-3.68-2.16-5.18-3.72-2.12-2.19-2.12-3.23.33-4.83,11.2-7.3,21.26-16.06,31.62-24.45,1.67-1.35,3-1.75,4.58-.1,6.08,6.16,13.35,10.86,20.13,16.15,4.26,3.32,8.6,6.55,12.91,9.82,2.21,1.67,2.15,2.17,0,3.87-9.37,7.3-19,14.24-28,22a45.73,45.73,0,0,0-3.54,3.56A2.26,2.26,0,0,1,284.49,370.76Z"/><path class="cls-2" d="M179.56,173.09c-4,14.85-.42,28.37,7.78,40.81,7.78,11.81,18.62,20.78,29.1,30.07,7.47,6.61,15.88,12.08,22.95,19.16.83.82,1.78,2.21,3.27,1,1.65-1.34,1.35-3.05.54-4.68a110.51,110.51,0,0,0-8.86-14.74c-8.85-12.37-17.46-24.89-23.18-39.12-2.36-5.88-4.19-11.88-4.07-18.28,0-1.13-.06-2.88,1.58-3.12,1.41-.21,1.78,1.23,2.17,2.27,2.21,5.91,6.61,9.11,12.74,9.16,7.08.05,13.94-1.53,17.66-8.42,8.86-16.37-2.75-35.2-17.6-39.7C203.88,141.52,184.19,155.89,179.56,173.09Z"/><path class="cls-2" d="M112.88,228.89c4.92-22.28,27.42-32.7,46.44-30.56a114.83,114.83,0,0,1,33,10.18h0c9.65,5.55,18.93,11.62,26.84,19.54,13,13,25,26.81,32.47,43.94a29.39,29.39,0,0,1,2.81,9.41c.11,1.26-.23,2.63-1.87,3s-2.32-.43-2.85-1.86a16.85,16.85,0,0,0-2-3.79C231,255,209.85,237.51,180.82,231.23a93.83,93.83,0,0,0-14.88-1.74c-2.6-.13-5.3.48-3.63,4.54,2.73,6.64,1.87,13.53.41,20.25-1.5,6.94-6.2,11.11-13.05,12.76C130.42,271.67,107.31,254.11,112.88,228.89Z"/><path class="cls-2" d="M387.37,173.09c4,14.85.42,28.37-7.78,40.81-7.78,11.81-18.62,20.78-29.1,30.07-7.47,6.61-15.88,12.08-22.95,19.16-.83.82-1.78,2.21-3.27,1-1.65-1.34-1.36-3.05-.54-4.68a109.46,109.46,0,0,1,8.86-14.74c8.85-12.37,17.46-24.89,23.17-39.12,2.37-5.88,4.2-11.88,4.08-18.28,0-1.13.06-2.88-1.58-3.12-1.41-.21-1.78,1.23-2.17,2.27-2.21,5.91-6.61,9.11-12.74,9.16-7.09.05-13.94-1.53-17.66-8.42-8.86-16.37,2.75-35.2,17.6-39.7C363.05,141.52,382.74,155.89,387.37,173.09Z"/><path class="cls-2" d="M454.05,228.89c-4.92-22.28-27.42-32.7-46.44-30.56a114.83,114.83,0,0,0-33,10.18h0c-9.65,5.55-18.93,11.62-26.84,19.54-13,13-25,26.81-32.47,43.94a29.66,29.66,0,0,0-2.82,9.41c-.1,1.26.24,2.63,1.88,3s2.32-.43,2.85-1.86a16.85,16.85,0,0,1,2-3.79c16.68-23.7,37.82-41.21,66.85-47.49A93.83,93.83,0,0,1,401,229.49c2.6-.13,5.3.48,3.63,4.54-2.73,6.64-1.87,13.53-.41,20.25,1.5,6.94,6.2,11.11,13.05,12.76C436.51,271.67,459.62,254.11,454.05,228.89Z"/><path class="cls-2" d="M179.56,393.66c-4-14.84-.42-28.37,7.78-40.8,7.78-11.81,18.62-20.78,29.1-30.07,7.47-6.61,15.88-12.09,22.95-19.16.83-.82,1.78-2.22,3.27-1,1.65,1.34,1.35,3.05.54,4.68A111,111,0,0,1,234.34,322c-8.85,12.38-17.46,24.9-23.18,39.13C208.8,367,207,373,207.09,379.44c0,1.13-.06,2.87,1.58,3.12,1.41.21,1.78-1.24,2.17-2.27,2.21-5.91,6.61-9.12,12.74-9.16,7.08-.05,13.94,1.53,17.66,8.42,8.86,16.37-2.75,35.2-17.6,39.7C203.88,425.24,184.19,410.87,179.56,393.66Z"/><path class="cls-2" d="M112.88,337.86c4.92,22.29,27.42,32.71,46.44,30.57a115.14,115.14,0,0,0,33-10.18h0c9.65-5.55,18.93-11.62,26.84-19.54,13-13,25-26.81,32.47-43.94a29.47,29.47,0,0,0,2.81-9.41c.11-1.26-.23-2.63-1.87-3s-2.32.42-2.85,1.86a16.57,16.57,0,0,1-2,3.78c-16.68,23.71-37.82,41.22-66.85,47.5a92.67,92.67,0,0,1-14.88,1.73c-2.6.13-5.3-.47-3.63-4.53,2.73-6.64,1.87-13.53.41-20.25-1.5-7-6.2-11.11-13.05-12.76C130.42,295.09,107.31,312.65,112.88,337.86Z"/><path class="cls-2" d="M387.37,393.66c4-14.84.42-28.37-7.78-40.8-7.78-11.81-18.62-20.78-29.1-30.07-7.47-6.61-15.88-12.09-22.95-19.16-.83-.82-1.78-2.22-3.27-1-1.65,1.34-1.36,3.05-.54,4.68A110,110,0,0,0,332.59,322c8.85,12.38,17.46,24.9,23.17,39.13,2.37,5.88,4.2,11.88,4.08,18.28,0,1.13.06,2.87-1.58,3.12-1.41.21-1.78-1.24-2.17-2.27-2.21-5.91-6.61-9.12-12.74-9.16-7.09-.05-13.94,1.53-17.66,8.42-8.86,16.37,2.75,35.2,17.6,39.7C363.05,425.24,382.74,410.87,387.37,393.66Z"/><path class="cls-2" d="M454.05,337.86c-4.92,22.29-27.42,32.71-46.44,30.57a115.14,115.14,0,0,1-33-10.18h0c-9.65-5.55-18.93-11.62-26.84-19.54-13-13-25-26.81-32.47-43.94a29.74,29.74,0,0,1-2.82-9.41c-.1-1.26.24-2.63,1.88-3s2.32.42,2.85,1.86a16.57,16.57,0,0,0,2,3.78c16.68,23.71,37.82,41.22,66.85,47.5A92.67,92.67,0,0,0,401,337.26c2.6.13,5.3-.47,3.63-4.53-2.73-6.64-1.87-13.53-.41-20.25,1.5-7,6.2-11.11,13.05-12.76C436.51,295.09,459.62,312.65,454.05,337.86Z"/><path class="cls-1" d="M335.68,433.52a127.32,127.32,0,0,1-28.37-18.18c-9.57-8.27-17.09-17.73-20.58-30.07a7.77,7.77,0,0,0-2-3.57c-1.95-1.86-3.27-2.22-4.33.61-5.57,14.88-15.64,26.47-27.13,37-6.78,6.24-14.76,10.69-22.44,15.61-1.85,1.18-1.94,2.11-.08,3.28,1,.65,2.13,1.18,3.16,1.82,20,12.25,37.57,26.82,46,49.81a3.79,3.79,0,0,0,2.88,2.49,2.36,2.36,0,0,0,2.16-1.3,23.64,23.64,0,0,0,1.37-2.87c3.16-7,5.87-14.28,11.12-20.1a103.71,103.71,0,0,1,23.91-19.7,117.38,117.38,0,0,1,14.09-7c1.85-.78,4.14-1.77,4.23-4.06S337.44,434.37,335.68,433.52Zm-26.76,5c-4.71,3.23-9.6,6.21-13.83,10.1s-7.49,8.41-10.88,12.92c-1.46,1.94-2,2-3.19-.06-4.25-7.32-10.28-13-16.8-18.2a50.83,50.83,0,0,0-8.13-5c-2.18-1.16-2.15-1.81,0-3,10.11-5.64,18.06-13.64,25.06-22.7,1.93-2.51,2.93-2.57,4.56.06,5.72,9.23,13.65,16.09,23,21.47.9.52,2,.85,2,1.69A2.9,2.9,0,0,1,308.92,438.53Z"/><path class="cls-1" d="M336.75,125.87c-10.06-3.86-19-9.67-27.4-16.23-7.62-5.93-14.6-12.45-19.16-21.21-1.8-3.45-3.06-7.11-4.69-10.62-.63-1.37-1.18-3.27-2.85-3.24s-2.29,1.91-2.86,3.42a68.44,68.44,0,0,1-9.34,17.43A107.51,107.51,0,0,1,243.86,120c-4.3,2.88-8.81,5.41-13.15,8.22-1.76,1.13-1.82,2.61-.1,3.76a29.16,29.16,0,0,0,4.42,2.34,45.09,45.09,0,0,1,6.46,3.38,131,131,0,0,1,25.41,21.92,55.88,55.88,0,0,1,12.61,21.47,20,20,0,0,0,1.54,3.78c1.13,2.06,2.5,2.21,4.12.48a8.22,8.22,0,0,0,1.5-2.27c.84-2,1.65-3.94,2.31-6a43.82,43.82,0,0,1,9.33-16.37,112.29,112.29,0,0,1,32.07-24.32c2.44-1.23,4.8-2.63,7.17-4a4.44,4.44,0,0,0,2.43-3.51C339.83,127,338.22,126.43,336.75,125.87Zm-27.55,6.9c-9.56,4.82-16.29,12.61-22.45,21-.63.86-1.31,1.68-2,2.5a1.78,1.78,0,0,1-1.33.74,5.09,5.09,0,0,1-2.59-2.5,61.31,61.31,0,0,0-16-16.79,47.62,47.62,0,0,0-8-4.78c-1-.47-2.36-.89-2.41-2.19s1.35-1.46,2.24-2c9.73-5.73,17.95-13,23.84-22.79.23-.39.46-.79.73-1.16,1.25-1.74,2.18-1.77,3.23.07a61.37,61.37,0,0,0,11.59,14c4,3.73,8.61,6.52,13.12,9.49C311.91,130.23,312,131.36,309.2,132.77Z"/><path class="cls-2" d="M296.23,287.47c-.16.44-.55.6-.91.81a43,43,0,0,0-8.2,5.77c-1.29,1.2-2.52,2.46-3.76,3.71-.92.91-1.07.94-2,0a78.19,78.19,0,0,0-6.08-5.72,35.3,35.3,0,0,0-5.52-3.79c-1.15-.6-1.17-.92,0-1.54a42.26,42.26,0,0,0,7.64-5.28,35.28,35.28,0,0,0,4.26-4.12c.57-.68,1-.7,1.64-.05a54.21,54.21,0,0,0,12,9.3A2,2,0,0,1,296.23,287.47Z"/><path class="cls-2" d="M296.23,130.14c-.16.44-.55.6-.91.8a43,43,0,0,0-8.2,5.78c-1.29,1.2-2.52,2.46-3.76,3.7-.92.92-1.07,1-2,0a78.19,78.19,0,0,0-6.08-5.72,34.63,34.63,0,0,0-5.52-3.79c-1.15-.6-1.17-.92,0-1.55a42.72,42.72,0,0,0,7.64-5.27,35.28,35.28,0,0,0,4.26-4.12c.57-.69,1-.7,1.64-.06a53.91,53.91,0,0,0,12,9.3A2.11,2.11,0,0,1,296.23,130.14Z"/><path class="cls-2" d="M296.23,436.71c-.16.43-.55.6-.91.8a43.43,43.43,0,0,0-8.2,5.77c-1.29,1.2-2.52,2.47-3.76,3.71-.92.92-1.07.94-2,0a80.15,80.15,0,0,0-6.08-5.72,34.57,34.57,0,0,0-5.52-3.78c-1.15-.61-1.17-.93,0-1.55a42.26,42.26,0,0,0,7.64-5.28,35.28,35.28,0,0,0,4.26-4.12c.57-.68,1-.7,1.64-.05a54.21,54.21,0,0,0,12,9.3A2,2,0,0,1,296.23,436.71Z"/></svg>