<svg id="Layer_2" data-name="Layer 2" xmlns="http://www.w3.org/2000/svg" viewBox="0 0 566.93 566.93"><defs><style>.cls-1{fill:#c19560;}.cls-2{fill:#094e92;}</style></defs><path class="cls-1" d="M276.67,344.26c1.41-.88,2.41-2.36,4.09-2.84a7,7,0,0,1,7.5,2.27c.84,9.38,6.06,16.39,12.18,23,8.15,8.85,17.79,15.58,28.4,21.07,1.38.72,3.49,1.14,3.55,2.95s-2.15,2.18-3.47,3c-7.85,4.64-16.06,8.69-23,14.71a101.82,101.82,0,0,0-20.18,23.66,13.58,13.58,0,0,1-2.84,3.91,2.7,2.7,0,0,1-4.36-1.17c-1.93-6.39-6.08-11.38-10.25-16.32A73.16,73.16,0,0,0,243.53,399a114.78,114.78,0,0,1-10.44-5.94c-2.55-1.55-2.27-2.83.31-4.37,14.17-8.47,28.09-17.23,37.56-31.37C273.67,353.27,275,348.69,276.67,344.26Z"/><path class="cls-1" d="M285.57,223.64c-1.52,1.61-5,1.47-7.06.14-.76-.48-1.48-1-2.22-1.56-2.43-8.88-7.72-16-13.71-22.79-7.11-8.05-16-13.7-24.94-19.45-1.36-.88-2.72-1.77-4.06-2.68-2.49-1.7-2.44-3.33.25-4.77a56.19,56.19,0,0,1,6.92-3.3,53.16,53.16,0,0,0,15.68-9.47c8.58-7.15,16.43-14.92,21.23-25.25.43-.92.6-2.13,1.31-2.71,2.54-2.12,4.61-2.29,6.26,1.22a62.92,62.92,0,0,0,12.4,17.45A106.88,106.88,0,0,0,330.55,173c1,.43,2.32.49,2.33,2s-1.07,2.07-2.09,2.69c-5,3-10.12,5.73-14.86,9.06-8.82,6.19-17.08,13-22.8,22.45C290.35,213.79,287,222.16,285.57,223.64Z"/><path class="cls-2" d="M219.07,251c-23.21-7.26-43.87-17.9-65.25-26.74-11.7-4.84-16.18-22.21-10.14-34,5.95-11.6,22.25-16.23,34.18-9.68,8.55,4.68,15.31,11.58,18.1,20.67,7.12,23.26,26,34.9,44.4,47.27,2.55,1.71,7.49,2.87,6.16,6.12-1.49,3.61-6,1.71-9.5,1A127.61,127.61,0,0,1,219.07,251Z"/><path class="cls-2" d="M219.07,321c-23.21,7.27-43.87,17.9-65.25,26.74-11.7,4.84-16.18,22.21-10.14,34,5.95,11.59,22.25,16.22,34.18,9.68,8.55-4.69,15.31-11.59,18.1-20.68,7.12-23.26,26-34.9,44.4-47.26,2.55-1.72,7.49-2.88,6.16-6.12-1.49-3.62-6-1.72-9.5-1A126.3,126.3,0,0,0,219.07,321Z"/><path class="cls-2" d="M347.86,251c23.21-7.26,43.87-17.9,65.25-26.74,11.7-4.84,16.18-22.21,10.13-34-5.94-11.6-22.24-16.23-34.17-9.68-8.55,4.68-15.31,11.58-18.1,20.67-7.12,23.26-26,34.9-44.4,47.27-2.55,1.71-7.49,2.87-6.16,6.12,1.49,3.61,6,1.71,9.5,1A127.61,127.61,0,0,0,347.86,251Z"/><path class="cls-2" d="M347.86,321c23.21,7.27,43.87,17.9,65.25,26.74,11.7,4.84,16.18,22.21,10.13,34C417.3,393.36,401,398,389.07,391.45c-8.55-4.69-15.31-11.59-18.1-20.68-7.12-23.26-26-34.9-44.4-47.26-2.55-1.72-7.49-2.88-6.16-6.12,1.49-3.62,6-1.72,9.5-1A126.3,126.3,0,0,1,347.86,321Z"/><path class="cls-2" d="M342.59,280.72a.53.53,0,0,1,0-.21.89.89,0,0,0-.62-1.17,56.27,56.27,0,0,0-5.81-2.78c-10.9-3.56-21-8.55-29.88-16s-15.64-16.26-19-27.49c-.32-1.59-1.13-1.75-2.44-1a5.23,5.23,0,0,1-6.35-.27c-.38-.29-.82-.88-1.42-.27a7.39,7.39,0,0,1-.3,2.12c-2.51,8.68-7.6,15.83-13.73,22.19-6.62,6.87-14.68,11.86-23.33,15.82-5.54,2.54-10.95,5.47-17,6.65a2.25,2.25,0,0,0-1.47,1.21c-1.25,2.37.18,6.11,2.73,7.1s5.13,1.88,7.64,2.94c7.28,3.07,14.69,5.89,21,10.82a123.87,123.87,0,0,1,13.61,12.7,24.31,24.31,0,0,1,4.54,5.75,114.49,114.49,0,0,1,6.61,15.91c.74.24,1.24-.25,1.74-.63,2.27-1.74,4.55-2,6.9-.16.32.26.69.55,1.16.31.56-3.23,2.17-6,3.4-9,5-12.1,14.07-20.65,24.87-27.41a105.32,105.32,0,0,1,22.56-11.1C341.23,285.78,343.31,284.4,342.59,280.72Zm-31.86,4.16a97.44,97.44,0,0,0-18.51,13c-2.9,2.7-5.67,5.55-8.48,8.35-2.06,2.07-2.41,2.13-4.52,0a174,174,0,0,0-13.71-12.9,78.53,78.53,0,0,0-12.46-8.54c-2.58-1.36-2.63-2.09,0-3.49a95.32,95.32,0,0,0,17.22-11.9,77.41,77.41,0,0,0,9.61-9.29c1.28-1.54,2.31-1.58,3.69-.12,7.93,8.39,17.16,15.11,27.06,21a4.58,4.58,0,0,1,2.15,2.07C312.41,284.05,311.54,284.42,310.73,284.88Z"/></svg>