<svg width="60" height="63" viewBox="0 0 60 63" fill="none" xmlns="http://www.w3.org/2000/svg">
<path d="M17.1815 25.0823C12.5617 23.6472 8.44941 21.5468 4.19384 19.8017C1.86502 18.8483 0.975289 15.4174 2.17752 13.0919C3.35984 10.804 6.60427 9.88804 8.98086 11.181C10.6807 12.1069 12.0262 13.467 12.5816 15.2634C13.9988 19.855 17.7567 22.1528 21.4192 24.5928C21.9267 24.9323 22.91 25.1613 22.6453 25.8009C22.3487 26.5155 21.451 26.1385 20.7543 25.9983C19.5428 25.7784 18.3488 25.4723 17.1815 25.0823Z" fill="#80CCE8"/>
<path d="M17.1815 38.9146C12.5617 40.3497 8.44941 42.4422 4.19384 44.1952C1.86502 45.1486 0.975289 48.5796 2.17752 50.907C3.35984 53.1949 6.60427 54.1109 8.98086 52.8179C10.6807 51.892 12.0262 50.5319 12.5816 48.7355C13.9988 44.1439 17.7567 41.8461 21.4192 39.4061C21.9267 39.0666 22.91 38.8376 22.6453 38.198C22.3487 37.4834 21.451 37.8604 20.7543 38.0006C19.5428 38.2199 18.3488 38.5253 17.1815 38.9146Z" fill="#80CCE8"/>
<path d="M42.8165 25.0824C47.4383 23.6472 51.5485 21.5468 55.8061 19.8018C58.1329 18.8483 59.0247 15.4174 57.8224 13.09C56.6381 10.802 53.3937 9.88609 51.0191 11.1791C49.3173 12.1049 47.9717 13.465 47.4184 15.2614C45.9992 19.8531 42.2432 22.1509 38.5808 24.5908C38.0732 24.9304 37.09 25.1594 37.3547 25.7989C37.6493 26.5136 38.5489 26.1365 39.2456 25.9964C40.4565 25.7773 41.6499 25.4718 42.8165 25.0824Z" fill="#80CCE8"/>
<path d="M42.8165 38.9146C47.4383 40.3497 51.5525 42.4422 55.8061 44.1952C58.1329 45.1486 59.0247 48.5796 57.8224 50.907C56.6381 53.1949 53.3937 54.1109 51.0191 52.8179C49.3173 51.892 47.9717 50.5319 47.4184 48.7355C45.9992 44.1439 42.2432 41.8461 38.5808 39.4061C38.0732 39.0666 37.09 38.8376 37.3547 38.198C37.6493 37.4834 38.5489 37.8604 39.2456 38.0006C40.4565 38.2197 41.6499 38.5251 42.8165 38.9146Z" fill="#80CCE8"/>
<path d="M41.7695 30.9591C41.7657 30.9449 41.7657 30.9299 41.7695 30.9157C41.7778 30.8924 41.781 30.8676 41.779 30.843C41.7771 30.8184 41.77 30.7945 41.7582 30.7728C41.7464 30.751 41.7302 30.732 41.7105 30.7168C41.6909 30.7016 41.6683 30.6907 41.6442 30.6847C41.2693 30.4804 40.8832 30.2972 40.4877 30.1359C38.3201 29.4331 36.3078 28.4481 34.5422 26.9774C32.7767 25.5067 31.4292 23.7696 30.7604 21.5527C30.6987 21.2388 30.5355 21.2053 30.2767 21.3553C30.0892 21.4858 29.8635 21.5513 29.6346 21.5417C29.4058 21.532 29.1865 21.4478 29.0108 21.302C28.9352 21.2448 28.8476 21.1283 28.7281 21.2487C28.73 21.3904 28.7099 21.5316 28.6684 21.6672C28.1688 23.3807 27.1557 24.7941 25.9375 26.0496C24.6199 27.4058 23.0136 28.3908 21.2918 29.1726C20.1891 29.672 19.1143 30.2504 17.9081 30.4833C17.8444 30.4996 17.7852 30.5296 17.7346 30.5713C17.684 30.6129 17.6433 30.6651 17.6155 30.7242C17.3667 31.192 17.6513 31.9283 18.1589 32.1257C18.6664 32.3232 19.18 32.4949 19.6796 32.7041C21.1306 33.3102 22.6035 33.8669 23.8595 34.8401C24.8251 35.6067 25.7307 36.4448 26.5685 37.3471C26.9329 37.6801 27.2431 38.067 27.4881 38.494C28.0072 39.5053 28.4471 40.5546 28.8038 41.6328C28.9511 41.6821 29.0506 41.5854 29.1501 41.5104C29.602 41.1669 30.0558 41.1156 30.5235 41.4768C30.5892 41.5282 30.6609 41.5854 30.7564 41.538C30.8659 40.9024 31.1863 40.3536 31.4332 39.7614C32.4284 37.3728 34.2337 35.685 36.3814 34.3505C37.7851 33.4457 39.2925 32.7101 40.8719 32.1593C41.4969 31.958 41.9129 31.6855 41.7695 30.9591ZM35.43 31.7823C34.1063 32.4931 32.8705 33.3543 31.7477 34.3485C31.1684 34.8815 30.6191 35.4441 30.0598 35.9969C29.6477 36.4055 29.5801 36.4173 29.1581 35.9969C28.2951 35.1009 27.3849 34.2508 26.4312 33.4503C25.6608 32.8106 24.8295 32.2467 23.9491 31.7665C23.4375 31.498 23.4256 31.3539 23.9491 31.0775C25.1747 30.421 26.324 29.6332 27.3766 28.7284C28.0659 28.1724 28.7058 27.5589 29.2895 26.8945C29.5442 26.5885 29.7492 26.5826 30.0239 26.8708C31.6023 28.5251 33.4415 29.8536 35.4121 31.0163C35.5958 31.1017 35.7462 31.2446 35.84 31.423C35.7604 31.6164 35.5872 31.6895 35.43 31.7823Z" fill="#80CCE8"/>
</svg>
