<svg width="100" height="106" viewBox="0 0 100 106" fill="none" xmlns="http://www.w3.org/2000/svg">
<path d="M28.6359 42.202C20.9362 39.7873 14.0824 36.2533 6.98981 33.3172C3.10845 31.713 1.62556 25.9403 3.62928 22.0277C5.59982 18.1781 11.0072 16.637 14.9682 18.8125C17.8013 20.3703 20.0438 22.6588 20.9694 25.6813C23.3314 33.4069 29.5946 37.273 35.6987 41.3783C36.5446 41.9496 38.1834 42.3349 37.7422 43.411C37.2479 44.6134 35.7518 43.979 34.5907 43.7432C32.5714 43.3731 30.5813 42.8581 28.6359 42.202Z" fill="#BE986A"/>
<path d="M28.6359 65.4753C20.9362 67.8899 14.0824 71.4107 6.98981 74.3601C3.10845 75.9643 1.62556 81.737 3.62928 85.6529C5.59982 89.5025 11.0072 91.0436 14.9682 88.8681C17.8013 87.3103 20.0438 85.0219 20.9694 81.9994C23.3314 74.2737 29.5946 70.4076 35.6987 66.3023C36.5446 65.731 38.1834 65.3457 37.7422 64.2696C37.2479 63.0672 35.7518 63.7016 34.5907 63.9374C32.5715 64.3064 30.5814 64.8203 28.6359 65.4753Z" fill="#BE986A"/>
<path d="M71.3608 42.202C79.0638 39.7874 85.9143 36.2534 93.0102 33.3172C96.8883 31.713 98.3745 25.9403 96.3708 22.0244C94.3969 18.1749 88.9895 16.6337 85.0319 18.8092C82.1955 20.367 79.9529 22.6555 79.0307 25.678C76.6654 33.4036 70.4054 37.2697 64.3014 41.375C63.4554 41.9463 61.8166 42.3316 62.2578 43.4077C62.7488 44.6101 64.2483 43.9757 65.4094 43.7399C67.4276 43.3713 69.4165 42.8573 71.3608 42.202Z" fill="#BE986A"/>
<path d="M71.3608 65.4753C79.0638 67.8899 85.9209 71.4107 93.0102 74.3601C96.8883 75.9643 98.3745 81.737 96.3708 85.6529C94.3969 89.5025 88.9895 91.0436 85.0319 88.8681C82.1955 87.3103 79.9529 85.0219 79.0307 81.9994C76.6654 74.2737 70.4054 70.4076 64.3014 66.3023C63.4554 65.731 61.8166 65.3457 62.2578 64.2696C62.7488 63.0672 64.2483 63.7016 65.4094 63.9374C67.4276 64.306 69.4165 64.82 71.3608 65.4753Z" fill="#BE986A"/>
<path d="M69.6158 52.0899C69.6094 52.066 69.6094 52.0408 69.6158 52.0169C69.6295 51.9777 69.6349 51.9361 69.6317 51.8947C69.6284 51.8533 69.6166 51.813 69.5969 51.7764C69.5772 51.7399 69.5502 51.7078 69.5175 51.6823C69.4847 51.6568 69.4471 51.6384 69.4068 51.6283C68.7821 51.2846 68.1387 50.9763 67.4794 50.7049C63.8668 49.5225 60.5129 47.8651 57.5703 45.3906C54.6278 42.9162 52.3819 39.9933 51.2672 36.2633C51.1644 35.7352 50.8924 35.6788 50.4611 35.9312C50.1486 36.1508 49.7724 36.261 49.391 36.2448C49.0095 36.2286 48.6441 36.0868 48.3512 35.8415C48.2252 35.7452 48.0792 35.5492 47.8802 35.7518C47.8833 35.9903 47.8497 36.2278 47.7806 36.456C46.948 39.339 45.2594 41.7171 43.2292 43.8296C41.033 46.1114 38.3559 47.7688 35.4863 49.0841C33.6485 49.9244 31.8571 50.8975 29.8467 51.2895C29.7406 51.3169 29.6419 51.3674 29.5576 51.4374C29.4733 51.5075 29.4055 51.5953 29.3591 51.6947C28.9444 52.4819 29.4188 53.7208 30.2647 54.0529C31.1107 54.385 31.9665 54.674 32.7992 55.0261C35.2176 56.0458 37.6725 56.9824 39.7658 58.6199C41.375 59.9097 42.8844 61.3198 44.2808 62.8381C44.8881 63.3983 45.4051 64.0492 45.8134 64.7678C46.6786 66.4692 47.4117 68.2348 48.0062 70.0489C48.2517 70.1319 48.4176 69.9692 48.5835 69.843C49.3365 69.265 50.0929 69.1787 50.8725 69.7865C50.9819 69.8729 51.1014 69.9692 51.2606 69.8895C51.4431 68.82 51.9772 67.8966 52.3885 66.9002C54.0472 62.8813 57.0561 60.0414 60.6356 57.7961C62.975 56.2737 65.4875 55.0361 68.1197 54.1094C69.1613 53.7706 69.8547 53.3122 69.6158 52.0899ZM59.0499 53.475C56.8437 54.671 54.7841 56.12 52.9127 57.7928C51.9473 58.6896 51.0317 59.6362 50.0995 60.5662C49.4128 61.2538 49.3 61.2737 48.5967 60.5662C47.1584 59.0586 45.6414 57.6284 44.0519 56.2816C42.7679 55.2052 41.3824 54.2564 39.9151 53.4484C39.0625 52.9967 39.0426 52.7542 39.9151 52.2892C41.9577 51.1845 43.8733 49.8591 45.6276 48.3367C46.7764 47.4012 47.843 46.3689 48.8157 45.2511C49.2403 44.7363 49.582 44.7263 50.0398 45.2113C52.6705 47.9946 55.7358 50.2299 59.02 52.1863C59.3263 52.3299 59.5769 52.5703 59.7333 52.8705C59.6006 53.196 59.312 53.3189 59.0499 53.475Z" fill="#BE986A"/>
</svg>
