<svg width="90" height="95" viewBox="0 0 90 95" fill="none" xmlns="http://www.w3.org/2000/svg">
<path d="M25.7723 37.8226C18.8426 35.6585 12.6742 32.4912 6.29082 29.8598C2.79759 28.422 1.46299 23.2484 3.26634 19.7418C5.03983 16.2917 9.90647 14.9105 13.4714 16.8603C16.0211 18.2564 18.0394 20.3074 18.8724 23.0162C20.9982 29.9401 26.6352 33.4051 32.1288 37.0843C32.8901 37.5963 34.3651 37.9416 33.968 38.9061C33.5231 39.9837 32.1766 39.4151 31.1316 39.2038C29.3142 38.8721 27.5232 38.4105 25.7723 37.8226Z" fill="#BE986A"/>
<path d="M25.7723 58.6807C18.8426 60.8448 12.6742 64.0001 6.29082 66.6435C2.79759 68.0812 1.46299 73.2548 3.26634 76.7644C5.03983 80.2145 9.90647 81.5957 13.4714 79.6459C16.0211 78.2498 18.0394 76.1988 18.8724 73.49C20.9982 66.5661 26.6352 63.1011 32.1288 59.4219C32.8901 58.9099 34.3651 58.5646 33.968 57.6001C33.5231 56.5225 32.1766 57.0911 31.1316 57.3024C29.3143 57.6331 27.5233 58.0937 25.7723 58.6807Z" fill="#BE986A"/>
<path d="M64.2247 37.8226C71.1574 35.6585 77.3229 32.4912 83.7092 29.8598C87.1994 28.422 88.537 23.2484 86.7337 19.7388C84.9572 16.2887 80.0906 14.9075 76.5287 16.8573C73.9759 18.2534 71.9576 20.3044 71.1276 23.0132C68.9988 29.9371 63.3649 33.4021 57.8712 37.0813C57.1099 37.5933 55.635 37.9387 56.0321 38.9031C56.4739 39.9807 57.8235 39.4121 58.8684 39.2008C60.6848 38.8705 62.4749 38.4098 64.2247 37.8226Z" fill="#BE986A"/>
<path d="M64.2247 58.6807C71.1574 60.8448 77.3288 64.0001 83.7092 66.6435C87.1994 68.0812 88.537 73.2548 86.7337 76.7644C84.9572 80.2145 80.0906 81.5957 76.5287 79.6459C73.9759 78.2498 71.9576 76.1988 71.1276 73.49C68.9988 66.5661 63.3649 63.1011 57.8712 59.4219C57.1099 58.9099 55.635 58.5646 56.0321 57.6001C56.4739 56.5225 57.8235 57.0911 58.8684 57.3024C60.6848 57.6328 62.4749 58.0934 64.2247 58.6807Z" fill="#BE986A"/>
<path d="M62.6543 46.6844C62.6484 46.6629 62.6484 46.6403 62.6543 46.6189C62.6666 46.5838 62.6714 46.5465 62.6685 46.5094C62.6656 46.4723 62.6549 46.4362 62.6372 46.4034C62.6195 46.3706 62.5952 46.3419 62.5657 46.319C62.5363 46.2962 62.5024 46.2797 62.4662 46.2706C61.9039 45.9626 61.3248 45.6863 60.7315 45.4431C57.4801 44.3834 54.4616 42.898 51.8133 40.6803C49.165 38.4626 47.1437 35.8431 46.1405 32.5002C46.048 32.0269 45.8031 31.9763 45.415 32.2025C45.1337 32.3993 44.7952 32.498 44.4519 32.4835C44.1086 32.469 43.7797 32.342 43.5161 32.1221C43.4027 32.0358 43.2713 31.8602 43.0922 32.0417C43.0949 32.2554 43.0647 32.4683 43.0026 32.6728C42.2532 35.2566 40.7335 37.388 38.9063 39.2812C36.9297 41.3262 34.5203 42.8116 31.9377 43.9904C30.2836 44.7435 28.6714 45.6157 26.8621 45.967C26.7666 45.9915 26.6777 46.0368 26.6018 46.0996C26.526 46.1624 26.465 46.2411 26.4232 46.3301C26.05 47.0356 26.4769 48.146 27.2383 48.4436C27.9996 48.7413 28.7699 49.0003 29.5193 49.3158C31.6959 50.2297 33.9053 51.0691 35.7892 52.5367C37.2375 53.6927 38.5959 54.9565 39.8527 56.3171C40.3993 56.8192 40.8646 57.4026 41.2321 58.0466C42.0108 59.5715 42.6706 61.1538 43.2056 62.7797C43.4266 62.8541 43.5758 62.7082 43.7251 62.5951C44.4029 62.0772 45.0836 61.9998 45.7852 62.5445C45.8838 62.6219 45.9912 62.7082 46.1346 62.6368C46.2988 61.6783 46.7795 60.8507 47.1497 59.9577C48.6425 56.3558 51.3505 53.8107 54.5721 51.7984C56.6776 50.434 58.9387 49.3248 61.3077 48.4942C62.2452 48.1906 62.8692 47.7798 62.6543 46.6844ZM53.1449 47.9257C51.1594 48.9976 49.3057 50.2962 47.6214 51.7955C46.7526 52.5992 45.9285 53.4476 45.0896 54.281C44.4715 54.8972 44.37 54.9151 43.7371 54.281C42.4426 52.9299 41.0772 51.6481 39.6467 50.441C38.4911 49.4764 37.2442 48.626 35.9236 47.9019C35.1563 47.497 35.1383 47.2797 35.9236 46.863C37.7619 45.8729 39.486 44.6851 41.0649 43.3207C42.0988 42.4822 43.0587 41.5571 43.9341 40.5553C44.3163 40.0939 44.6238 40.0849 45.0358 40.5195C47.4035 43.014 50.1622 45.0174 53.118 46.7707C53.3936 46.8994 53.6192 47.1149 53.76 47.3839C53.6405 47.6756 53.3808 47.7858 53.1449 47.9257Z" fill="#BE986A"/>
</svg>
