<svg id="Layer_1" data-name="Layer 1" xmlns="http://www.w3.org/2000/svg" viewBox="0 0 301.44 319.14"><defs><style>.cls-1{fill:#d86f3a;}</style></defs><path class="cls-1" d="M86.32,127.06c-23.21-7.27-43.87-17.91-65.25-26.75C9.37,95.48,4.9,78.1,10.94,66.32c5.94-11.59,22.24-16.23,34.18-9.68,8.54,4.69,15.3,11.58,18.09,20.68,7.12,23.26,26,34.9,44.4,47.26,2.55,1.72,7.49,2.88,6.16,6.12-1.49,3.62-6,1.71-9.5,1A129,129,0,0,1,86.32,127.06Z"/><path class="cls-1" d="M86.32,197.13C63.11,204.4,42.45,215,21.07,223.88c-11.7,4.83-16.17,22.21-10.13,34,5.94,11.59,22.24,16.23,34.18,9.68,8.54-4.69,15.3-11.58,18.09-20.68,7.12-23.26,26-34.9,44.4-47.26,2.55-1.72,7.49-2.88,6.16-6.12-1.49-3.62-6-1.71-9.5-1A129,129,0,0,0,86.32,197.13Z"/><path class="cls-1" d="M215.11,127.06c23.22-7.27,43.87-17.91,65.26-26.75,11.69-4.83,16.17-22.21,10.13-34-5.95-11.59-22.25-16.23-34.18-9.68-8.55,4.69-15.31,11.58-18.09,20.68-7.13,23.26-26,34.9-44.4,47.26-2.55,1.72-7.49,2.88-6.16,6.12,1.48,3.62,6,1.71,9.5,1A128.52,128.52,0,0,0,215.11,127.06Z"/><path class="cls-1" d="M215.11,197.13C238.33,204.4,259,215,280.37,223.88c11.69,4.83,16.17,22.21,10.13,34-5.95,11.59-22.25,16.23-34.18,9.68-8.55-4.69-15.31-11.58-18.09-20.68-7.13-23.26-26-34.9-44.4-47.26-2.55-1.72-7.49-2.88-6.16-6.12,1.48-3.62,6-1.71,9.5-1A128.52,128.52,0,0,1,215.11,197.13Z"/><path class="cls-1" d="M209.85,156.83a.42.42,0,0,1,0-.22.9.9,0,0,0-.63-1.17,57.37,57.37,0,0,0-5.81-2.78c-10.89-3.56-21-8.55-29.87-16s-15.64-16.25-19-27.48c-.31-1.59-1.13-1.76-2.43-1a5.23,5.23,0,0,1-6.36-.27c-.38-.29-.82-.88-1.42-.27a7,7,0,0,1-.3,2.12c-2.51,8.68-7.6,15.84-13.72,22.2-6.62,6.87-14.69,11.86-23.34,15.82-5.54,2.53-10.94,5.46-17,6.64a2.24,2.24,0,0,0-1.47,1.22c-1.25,2.37.18,6.1,2.73,7.1s5.13,1.87,7.64,2.93c7.29,3.07,14.69,5.89,21,10.82a123,123,0,0,1,13.61,12.7A24.11,24.11,0,0,1,138.1,195a112,112,0,0,1,6.61,15.9c.74.25,1.24-.24,1.74-.62,2.27-1.74,4.55-2,6.9-.17.33.26.69.55,1.17.31.55-3.22,2.16-6,3.4-9,5-12.1,14.07-20.65,24.86-27.41a105.79,105.79,0,0,1,22.56-11.1C208.48,161.89,210.57,160.51,209.85,156.83ZM178,161a97.45,97.45,0,0,0-18.5,13c-2.91,2.7-5.67,5.55-8.48,8.35-2.07,2.07-2.41,2.13-4.53,0a177.67,177.67,0,0,0-13.7-12.9,77.9,77.9,0,0,0-12.47-8.53c-2.57-1.36-2.63-2.09,0-3.49a95.83,95.83,0,0,0,17.22-11.9,78.14,78.14,0,0,0,9.61-9.29c1.28-1.55,2.31-1.58,3.69-.12,7.93,8.38,17.17,15.11,27.07,21a4.65,4.65,0,0,1,2.15,2.06C179.66,160.16,178.79,160.53,178,161Z"/></svg>