<svg width="80" height="63" viewBox="0 0 80 63" fill="none" xmlns="http://www.w3.org/2000/svg">
<path d="M38.1953 43.5023C38.5695 43.3266 38.8349 43.0344 39.2834 42.9416C39.6372 42.8599 40.0157 42.8587 40.3704 42.9382C40.7251 43.0177 41.0397 43.1743 41.2739 43.3878C41.4942 45.2414 42.8662 46.6252 44.5064 47.9281C46.6667 49.6751 49.2277 51.0037 52.0409 52.0894C52.4071 52.2296 52.9671 52.3125 52.9857 52.6698C53.0042 53.0271 52.4151 53.1001 52.0621 53.262C49.9788 54.176 47.7999 54.9755 45.9581 56.1639C43.862 57.5086 42.0565 59.0852 40.6051 60.8384C40.4184 61.1274 40.1631 61.3889 39.8514 61.6103C39.7624 61.6686 39.6554 61.7096 39.5399 61.7297C39.4245 61.7498 39.3041 61.7484 39.1896 61.7255C39.075 61.7027 38.9699 61.6591 38.8835 61.5987C38.7971 61.5383 38.7321 61.4629 38.6943 61.3793C38.1821 60.1179 37.0833 59.1309 35.9766 58.1557C34.1887 56.5348 31.9495 55.2215 29.4135 54.3063C28.4619 53.9521 27.5361 53.5607 26.6401 53.1337C25.966 52.8277 26.0403 52.575 26.7251 52.271C30.483 50.599 34.1799 48.8717 36.6906 46.0784C37.3991 45.2789 37.7389 44.3768 38.1953 43.5023Z" fill="#9AC552"/>
<path d="M40.5573 19.6892C40.1539 20.0071 39.2304 19.9794 38.6837 19.7189C38.482 19.6221 38.2909 19.5215 38.0971 19.4089C37.4496 17.656 36.0456 16.2504 34.4586 14.9101C32.569 13.3308 30.1964 12.2056 27.8397 11.0705C27.4761 10.8968 27.1152 10.7231 26.7622 10.5415C26.0987 10.2059 26.112 9.88412 26.8259 9.59985C27.4169 9.35171 28.0306 9.13469 28.6624 8.95039C30.1845 8.50985 31.5932 7.87745 32.8264 7.08096C35.1008 5.66754 37.1868 4.13369 38.4581 2.0945C38.5722 1.91288 38.62 1.67402 38.8057 1.55953C39.4798 1.143 40.0318 1.10747 40.4697 1.80036C41.2921 3.08095 42.4044 4.24683 43.758 5.24706C46.2686 7.12617 49.2337 8.63578 52.4973 9.69658C52.7627 9.78147 53.1131 9.79528 53.1131 10.0914C53.1131 10.3875 52.8291 10.498 52.5584 10.6204C51.2314 11.2127 49.8726 11.7535 48.6146 12.4089C46.2739 13.6309 44.0844 14.9752 42.5663 16.8427C41.8286 17.7448 40.9289 19.3971 40.5573 19.6892Z" fill="#9AC552"/>
</svg>
