<svg width="80" height="63" viewBox="0 0 80 63" fill="none" xmlns="http://www.w3.org/2000/svg">
<path d="M38.1953 43.5022C38.5695 43.3265 38.8349 43.0343 39.2834 42.9416C39.6372 42.8598 40.0157 42.8587 40.3704 42.9382C40.7251 43.0177 41.0397 43.1742 41.2739 43.3877C41.4941 45.2413 42.8662 46.6252 44.5063 47.928C46.6666 49.6751 49.2277 51.0036 52.0408 52.0893C52.4071 52.2295 52.9671 52.3124 52.9856 52.6697C53.0042 53.027 52.415 53.1001 52.0621 53.2619C49.9787 54.1759 47.7999 54.9754 45.958 56.1638C43.8619 57.5085 42.0565 59.0852 40.6051 60.8384C40.4184 61.1273 40.1631 61.3888 39.8514 61.6102C39.7624 61.6685 39.6554 61.7095 39.5399 61.7297C39.4245 61.7498 39.3041 61.7483 39.1896 61.7255C39.075 61.7026 38.9699 61.659 38.8834 61.5986C38.797 61.5382 38.732 61.4629 38.6942 61.3792C38.182 60.1178 37.0833 59.1308 35.9766 58.1556C34.1886 56.5347 31.9495 55.2214 29.4135 54.3062C28.4618 53.952 27.5361 53.5606 26.6401 53.1336C25.966 52.8276 26.0403 52.575 26.725 52.271C30.483 50.5989 34.1799 48.8716 36.6905 46.0783C37.3991 45.2788 37.7388 44.3767 38.1953 43.5022Z" fill="#D86F3A"/>
<path d="M40.5573 19.6892C40.1539 20.007 39.2303 19.9794 38.6836 19.7188C38.4819 19.6221 38.2908 19.5214 38.0971 19.4089C37.4495 17.6559 36.0456 16.2504 34.4586 14.91C32.569 13.3308 30.1964 12.2055 27.8397 11.0705C27.4761 10.8967 27.1151 10.723 26.7622 10.5414C26.0987 10.2058 26.112 9.88406 26.8259 9.59979C27.4169 9.35165 28.0306 9.13462 28.6624 8.95033C30.1845 8.50979 31.5931 7.87739 32.8264 7.0809C35.1008 5.66747 37.1868 4.13363 38.458 2.09443C38.5722 1.91282 38.6199 1.67396 38.8057 1.55947C39.4798 1.14294 40.0318 1.10741 40.4697 1.8003C41.2921 3.08089 42.4044 4.24677 43.7579 5.247C46.2686 7.12611 49.2336 8.63572 52.4973 9.69652C52.7627 9.78141 53.113 9.79522 53.113 10.0913C53.113 10.3874 52.8291 10.498 52.5584 10.6204C51.2314 11.2126 49.8726 11.7535 48.6146 12.4089C46.2739 13.6308 44.0844 14.9751 42.5663 16.8426C41.8285 17.7447 40.9288 19.397 40.5573 19.6892Z" fill="#D86F3A"/>
</svg>
