<svg id="Layer_1" data-name="Layer 1" xmlns="http://www.w3.org/2000/svg" viewBox="0 0 595.28 566.93"><defs><style>.cls-1{fill:#80cce8;}</style></defs><path class="cls-1" d="M235.75,85.16v131H187s-2.84-23.14,9.47-31.35c0,0-9.75-4.1-9.75-15.15a22.24,22.24,0,0,1,8.17-17.05,16.78,16.78,0,0,1-8.17-14.9c0-10.74,7.15-15.42,7.15-15.42S163,97.06,183.5,70.54C199.53,49.82,231.17,59.49,235.75,85.16Z"/><path class="cls-1" d="M196.8,216.19s-33.51,283.22,24.62,310.92c0,0,27.75,14.21,62.05,5.3,0,0-24.47-20.3-32.52-40.66-4.21-10.65-9.33-22.47-12.95-54.88-9.12-81.78-11.37-220.68-11.37-220.68Z"/><path class="cls-1" d="M331.18,85.16v131H380s2.84-23.14-9.48-31.35c0,0,9.76-4.1,9.76-15.15a22.23,22.23,0,0,0-8.18-17.05,16.78,16.78,0,0,0,8.18-14.9c0-10.74-7.15-15.42-7.15-15.42S404,97.06,383.44,70.54C367.41,49.82,335.76,59.49,331.18,85.16Z"/><path class="cls-1" d="M370.14,216.19s33.51,283.22-24.63,310.92c0,0-27.75,14.21-62,5.3,0,0,24.47-20.3,32.52-40.66,4.21-10.65,9.33-22.47,12.95-54.88,9.12-81.78,11.36-220.68,11.36-220.68Z"/><path class="cls-1" d="M176.45,122.4s-19.67-17.12-13.26-44.14c8.53-35.9-40.57-35-42.69-3.69C118.71,101,132.41,130.53,176.45,122.4Z"/><path class="cls-1" d="M70.46,156.34c23.32-9,47.46.87,44.84,19.11-7.58,52.81-54,45.7-73.88,99.24C41.42,274.69,13.87,178.12,70.46,156.34Z"/><path class="cls-1" d="M126,274.69S72.67,319,54.2,309.72c0,0,47.75,117,83.12,141.38C137.32,451.1,103.65,339.78,126,274.69Z"/><path class="cls-1" d="M390.48,122.4s19.68-17.12,13.26-44.14c-8.52-35.9,40.58-35,42.7-3.69C448.22,101,434.53,130.53,390.48,122.4Z"/><path class="cls-1" d="M496.47,156.34c-23.32-9-47.45.87-44.83,19.11,7.57,52.81,54,45.7,73.88,99.24C525.52,274.69,553.07,178.12,496.47,156.34Z"/><path class="cls-1" d="M441,274.69s53.28,44.27,71.75,35c0,0-47.74,117-83.12,141.38C429.61,451.1,463.28,339.78,441,274.69Z"/></svg>