<svg id="Layer_1" data-name="Layer 1" xmlns="http://www.w3.org/2000/svg" viewBox="0 0 516.94 517.89"><defs><style>.cls-1{fill:#9ac552;}</style></defs><path class="cls-1" d="M209.81,53.54v131H161s-2.84-23.13,9.47-31.34c0,0-9.75-4.1-9.75-15.15A22.27,22.27,0,0,1,168.92,121a16.76,16.76,0,0,1-8.17-14.89c0-10.74,7.15-15.42,7.15-15.42S137,65.44,157.56,38.92C173.59,18.2,205.24,27.87,209.81,53.54Z"/><path class="cls-1" d="M170.86,184.56s-33.51,283.23,24.63,310.93c0,0,27.74,14.21,62,5.3,0,0-24.47-20.3-32.52-40.66-4.21-10.65-9.33-22.47-12.95-54.89-9.12-81.77-11.36-220.68-11.36-220.68Z"/><path class="cls-1" d="M305.25,53.54v131H354s2.84-23.13-9.47-31.34c0,0,9.75-4.1,9.75-15.15A22.27,22.27,0,0,0,346.14,121a16.76,16.76,0,0,0,8.17-14.89c0-10.74-7.15-15.42-7.15-15.42S378,65.44,357.5,38.92C341.47,18.2,309.82,27.87,305.25,53.54Z"/><path class="cls-1" d="M344.2,184.56s33.51,283.23-24.63,310.93c0,0-27.74,14.21-62,5.3,0,0,24.47-20.3,32.52-40.66,4.21-10.65,9.33-22.47,12.95-54.89,9.12-81.77,11.36-220.68,11.36-220.68Z"/><path class="cls-1" d="M150.52,90.78s-19.68-17.12-13.27-44.14c8.53-35.9-40.57-35-42.69-3.69C92.78,69.33,106.47,98.91,150.52,90.78Z"/><path class="cls-1" d="M44.53,124.71c23.32-9,47.45.87,44.83,19.12-7.58,52.81-54,45.7-73.88,99.23C15.48,243.06-12.07,146.5,44.53,124.71Z"/><path class="cls-1" d="M100,243.06s-53.28,44.28-71.75,35c0,0,47.74,117,83.12,141.38C111.39,419.48,77.72,308.16,100,243.06Z"/><path class="cls-1" d="M364.55,90.78s19.67-17.12,13.26-44.14c-8.53-35.9,40.57-35,42.69-3.69C422.28,69.33,408.59,98.91,364.55,90.78Z"/><path class="cls-1" d="M470.53,124.71c-23.31-9-47.45.87-44.83,19.12,7.58,52.81,54,45.7,73.88,99.23C499.58,243.06,527.13,146.5,470.53,124.71Z"/><path class="cls-1" d="M415,243.06s53.28,44.28,71.76,35c0,0-47.75,117-83.13,141.38C403.67,419.48,437.35,308.16,415,243.06Z"/></svg>