<svg id="Layer_1" data-name="Layer 1" xmlns="http://www.w3.org/2000/svg" viewBox="0 0 516.94 503.43"><defs><style>.cls-1{fill:#233565;}</style></defs><path class="cls-1" d="M209.81,41.66v131H161s-2.84-23.14,9.47-31.35c0,0-9.75-4.1-9.75-15.15a22.26,22.26,0,0,1,8.17-17,16.76,16.76,0,0,1-8.17-14.9c0-10.73,7.15-15.41,7.15-15.41S137,53.57,157.56,27C173.59,6.32,205.24,16,209.81,41.66Z"/><path class="cls-1" d="M170.86,172.69s-33.51,283.22,24.63,310.93c0,0,27.74,14.2,62,5.29,0,0-24.47-20.29-32.52-40.66-4.21-10.65-9.33-22.47-12.95-54.88-9.12-81.78-11.36-220.68-11.36-220.68Z"/><path class="cls-1" d="M305.25,41.66v131H354s2.84-23.14-9.47-31.35c0,0,9.75-4.1,9.75-15.15a22.26,22.26,0,0,0-8.17-17,16.76,16.76,0,0,0,8.17-14.9c0-10.73-7.15-15.41-7.15-15.41S378,53.57,357.5,27C341.47,6.32,309.82,16,305.25,41.66Z"/><path class="cls-1" d="M344.2,172.69s33.51,283.22-24.63,310.93c0,0-27.74,14.2-62,5.29,0,0,24.47-20.29,32.52-40.66,4.21-10.65,9.33-22.47,12.95-54.88,9.12-81.78,11.36-220.68,11.36-220.68Z"/><path class="cls-1" d="M150.52,78.91s-19.68-17.13-13.27-44.15c8.53-35.9-40.57-35-42.69-3.69C92.78,57.46,106.47,87,150.52,78.91Z"/><path class="cls-1" d="M44.53,112.84c23.32-9,47.45.87,44.83,19.11-7.58,52.81-54,45.71-73.88,99.24C15.48,231.19-12.07,134.63,44.53,112.84Z"/><path class="cls-1" d="M100,231.19s-53.28,44.27-71.75,35c0,0,47.74,117,83.12,141.38C111.39,407.6,77.72,296.29,100,231.19Z"/><path class="cls-1" d="M364.55,78.91s19.67-17.13,13.26-44.15c-8.53-35.9,40.57-35,42.69-3.69C422.28,57.46,408.59,87,364.55,78.91Z"/><path class="cls-1" d="M470.53,112.84c-23.31-9-47.45.87-44.83,19.11,7.58,52.81,54,45.71,73.88,99.24C499.58,231.19,527.13,134.63,470.53,112.84Z"/><path class="cls-1" d="M415,231.19s53.28,44.27,71.76,35c0,0-47.75,117-83.13,141.38C403.67,407.6,437.35,296.29,415,231.19Z"/></svg>