<?xml version="1.0" encoding="utf-8"?>
<!-- Generator: Adobe Illustrator 25.0.0, SVG Export Plug-In . SVG Version: 6.00 Build 0)  -->
<svg version="1.1" id="Layer_1" xmlns="http://www.w3.org/2000/svg" xmlns:xlink="http://www.w3.org/1999/xlink" x="0px" y="0px"
	 viewBox="0 0 516.94 517.89" enable-background="new 0 0 516.94 517.89" xml:space="preserve">
<path fill="#233565" d="M209.81,53.54v131.03h-48.78c0,0-2.84-23.13,9.47-31.34c0,0-9.76-4.1-9.76-15.16s8.18-17.05,8.18-17.05
	s-8.18-4.16-8.18-14.9s7.15-15.42,7.15-15.42s-30.86-25.26-10.34-51.78C173.59,18.2,205.24,27.87,209.81,53.54z"/>
<path fill="#233565" d="M170.86,184.56c0,0-33.51,283.22,24.63,310.93c0,0,27.75,14.21,62.04,5.3c0,0-24.47-20.3-32.52-40.66
	c-4.21-10.65-9.33-22.47-12.95-54.88c-9.12-81.78-11.37-220.68-11.37-220.68H170.86z"/>
<path fill="#233565" d="M305.25,53.54v131.03h48.78c0,0,2.84-23.13-9.47-31.34c0,0,9.76-4.1,9.76-15.16s-8.18-17.05-8.18-17.05
	s8.18-4.16,8.18-14.9s-7.15-15.42-7.15-15.42s30.86-25.26,10.34-51.78C341.47,18.2,309.82,27.87,305.25,53.54z"/>
<path fill="#233565" d="M344.2,184.56c0,0,33.51,283.22-24.63,310.93c0,0-27.75,14.21-62.04,5.3c0,0,24.47-20.3,32.52-40.66
	c4.21-10.65,9.33-22.47,12.95-54.88c9.12-81.78,11.37-220.68,11.37-220.68H344.2z"/>
<path fill="#233565" d="M150.52,90.78c0,0-19.68-17.12-13.26-44.14c8.53-35.9-40.57-35.03-42.69-3.69
	C92.78,69.33,106.47,98.91,150.52,90.78z"/>
<path fill="#233565" d="M44.53,124.71c23.32-8.98,47.45,0.87,44.84,19.11c-7.58,52.81-53.99,45.7-73.89,99.24
	C15.48,243.06-12.07,146.5,44.53,124.71z"/>
<path fill="#233565" d="M100.02,243.06c0,0-53.28,44.27-71.75,35.03c0,0,47.75,117.02,83.12,141.38
	C111.39,419.48,77.72,308.16,100.02,243.06z"/>
<path fill="#233565" d="M364.55,90.78c0,0,19.68-17.12,13.26-44.14c-8.53-35.9,40.57-35.03,42.69-3.69
	C422.28,69.33,408.59,98.91,364.55,90.78z"/>
<path fill="#233565" d="M470.53,124.71c-23.32-8.98-47.45,0.87-44.84,19.11c7.58,52.81,53.99,45.7,73.89,99.24
	C499.58,243.06,527.13,146.5,470.53,124.71z"/>
<path fill="#233565" d="M415.04,243.06c0,0,53.28,44.27,71.75,35.03c0,0-47.75,117.02-83.12,141.38
	C403.67,419.48,437.35,308.16,415.04,243.06z"/>
</svg>
