<svg width="140" height="169" viewBox="0 0 140 169" fill="none" xmlns="http://www.w3.org/2000/svg">
<path d="M23.1201 72.1513C20.6337 71.0573 18.1107 70.3062 15.3683 70.3281C7.03879 70.4119 1.06407 78.5471 3.52124 86.4743C4.58528 89.902 6.64755 92.4946 9.96765 93.9239C12.9514 95.2111 17.4232 94.9085 19.5952 91.4809C20.7287 89.6905 20.4216 87.2291 18.9041 86.168C18.0595 85.5773 17.8072 85.6794 17.7085 86.6822C17.4379 89.0195 14.6516 90.2593 12.465 89.0195C8.80854 86.9447 8.7025 82.1497 12.2895 79.3711C14.5602 77.6136 17.1892 77.3583 19.8914 77.9563C26.1403 79.342 30.6196 83.3166 34.4662 88.1298C35.9288 89.9858 37.2268 91.9877 37.8887 94.3068C38.6017 96.8192 38.5395 99.255 36.7917 101.37C35.6034 102.796 34.0969 103.631 32.1516 103.35C30.8938 103.168 30.1259 102.449 29.7822 101.056C30.2304 101.387 30.7562 101.598 31.3093 101.668C31.8625 101.738 32.4244 101.666 32.9414 101.457C33.4514 101.295 33.919 101.022 34.3109 100.658C34.7028 100.295 35.0093 99.849 35.2085 99.3535C36.5614 96.2467 34.9452 94.0844 32.8427 93.1546C30.1296 91.9731 27.5883 92.356 25.4017 94.3251C23.1091 96.3889 22.3632 99.0654 23.0689 102.015C23.8733 105.41 26.2829 107.372 29.4641 108.426C35.0476 110.274 41.3989 108.356 44.591 102.227C46.0536 99.3972 46.3827 96.2905 46.2584 93.1108C46.1633 90.6057 45.9622 88.097 46.2803 85.581C46.8178 81.3548 49.3225 78.011 53.8676 77.4823C54.8256 77.3693 54.4489 76.8661 54.1272 76.4759C52.5147 74.5068 50.3573 73.701 47.8709 73.7265C43.6806 73.7739 40.302 76.4431 39.0624 80.5672C38.6774 81.935 38.4914 83.3509 38.5103 84.7715C36.2542 80.1843 33.1572 76.3483 30.1332 72.4648C28.0819 69.8248 26.1586 67.1192 24.93 63.976C22.3047 57.325 25.2299 49.5034 31.402 46.6738C33.7336 45.6293 36.3693 45.478 38.8056 46.2489C41.2419 47.0197 43.3081 48.6587 44.6093 50.8526C46.0975 53.4343 45.8525 57.4526 44.0828 59.604C42.792 61.1829 41.2965 61.5548 39.2928 60.7307C40.664 60.1108 41.3112 58.995 41.5452 57.6459C41.9949 55.0387 39.6511 52.9456 36.7405 53.3103C33.5667 53.7077 31.2997 56.8473 31.8189 60.2676C32.3162 63.5239 34.2797 65.5513 37.3402 66.7291C42.2472 68.6142 48.8618 66.8457 51.9662 60.4062C54.8219 54.4808 53.1326 46.9765 48.3426 42.5716C42.8798 37.5469 36.4517 35.7601 29.2374 38.1959C25.0763 39.5998 21.961 42.4877 19.7049 46.1743C16.4982 51.4141 15.5438 57.0004 17.5512 62.9113C18.5435 65.7847 20.0486 68.4555 21.9939 70.7948C22.3632 71.2506 22.7435 71.7027 23.1201 72.1513Z" fill="#1C1B1C"/>
<path d="M116.88 72.1512C119.366 71.0573 121.889 70.3061 124.628 70.328C132.958 70.4119 138.936 78.547 136.475 86.4743C135.415 89.9019 133.349 92.4945 130.032 93.9239C127.049 95.2111 122.573 94.9084 120.405 91.4808C119.268 89.6904 119.575 87.2291 121.092 86.168C121.937 85.5773 122.171 85.6794 122.288 86.6821C122.562 89.0195 125.348 90.2592 127.535 89.0195C131.191 86.9447 131.294 82.1496 127.71 79.3711C125.436 77.6135 122.811 77.3583 120.105 77.9563C113.86 79.3419 109.38 83.3165 105.534 88.1297C104.053 89.9858 102.77 91.9876 102.111 94.3068C101.398 96.8191 101.457 99.2549 103.208 101.37C104.393 102.796 105.899 103.631 107.848 103.35C109.103 103.168 109.87 102.449 110.218 101.056C109.769 101.387 109.242 101.597 108.689 101.667C108.135 101.738 107.573 101.665 107.055 101.457C106.545 101.295 106.078 101.022 105.687 100.658C105.296 100.294 104.99 99.8488 104.792 99.3534C103.439 96.2466 105.055 94.0843 107.157 93.1545C109.867 91.9731 112.408 92.3559 114.595 94.325C116.887 96.3889 117.637 99.0653 116.931 102.015C116.123 105.41 113.717 107.372 110.532 108.426C104.952 110.274 98.6011 108.356 95.4053 102.227C93.9427 99.3971 93.6173 96.2904 93.7379 93.1107C93.8367 90.6057 94.0378 88.0969 93.7197 85.5809C93.1822 81.3547 90.6775 78.011 86.1288 77.4822C85.1708 77.3692 85.5511 76.866 85.8728 76.4758C87.4853 74.5068 89.6427 73.7009 92.1254 73.7264C96.3158 73.7738 99.6944 76.443 100.938 80.5671C101.323 81.9349 101.509 83.3508 101.49 84.7714C103.746 80.1842 106.843 76.3482 109.863 72.4648C111.914 69.8248 113.838 67.1192 115.066 63.976C117.673 57.3103 114.763 49.4888 108.587 46.6519C106.256 45.6122 103.623 45.4642 101.19 46.2362C98.7571 47.0083 96.6941 48.6463 95.3944 50.8379C93.9098 53.4196 94.1511 57.4379 95.9245 59.5893C97.2116 61.1682 98.7108 61.5401 100.715 60.7161C99.3434 60.0962 98.6925 58.9804 98.4621 57.6312C98.0124 55.024 100.353 52.931 103.267 53.2956C106.441 53.6931 108.708 56.8326 108.185 60.253C107.687 63.5092 105.728 65.5366 102.667 66.7144C97.7564 68.5996 91.1455 66.8311 88.0411 60.3915C85.1854 54.4661 86.871 46.9618 91.6647 42.557C97.1275 37.5322 103.556 35.7455 110.77 38.1813C114.927 39.5851 118.046 42.4731 120.302 46.1596C123.491 51.3776 124.449 56.9712 122.441 62.882C121.446 65.7541 119.941 68.4244 117.999 70.7656C117.631 71.2347 117.258 71.6966 116.88 72.1512Z" fill="#1C1B1C"/>
<path d="M67.8683 98.4746C65.9625 108.747 66.0046 119.285 67.9926 129.542C68.3875 131.537 71.2542 131.522 71.5979 129.516C72.8302 122.242 73.9052 110.65 71.4626 98.4782C71.0677 96.5055 68.2413 96.4946 67.8683 98.4746Z" fill="#1C1B1C"/>
<path d="M69.7989 143.592C69.7989 143.592 60.7308 139.858 58.3906 136.748C56.0505 133.638 51.1654 132.445 51.6371 135.632C52.1088 138.819 65.5647 155.323 69.7002 155.323L69.7989 143.592Z" fill="#1C1B1C"/>
<path d="M69.7989 143.592C69.7989 143.592 78.6696 139.858 81.0097 136.748C83.3499 133.638 88.246 131.873 87.7743 135.063C87.3026 138.254 73.832 155.337 69.7002 155.337L69.7989 143.592Z" fill="#1C1B1C"/>
</svg>
