<svg width="140" height="169" viewBox="0 0 140 169" fill="none" xmlns="http://www.w3.org/2000/svg">
<path d="M23.1199 72.1513C20.6335 71.0573 18.1105 70.3062 15.3682 70.3281C7.03867 70.4119 1.06395 78.5471 3.52112 86.4743C4.58516 89.902 6.64743 92.4946 9.96753 93.9239C12.9512 95.2111 17.4231 94.9085 19.5951 91.4809C20.7286 89.6905 20.4215 87.2291 18.904 86.168C18.0594 85.5773 17.8071 85.6794 17.7083 86.6822C17.4378 89.0195 14.6515 90.2593 12.4649 89.0195C8.80842 86.9447 8.70238 82.1497 12.2894 79.3711C14.5601 77.6136 17.1891 77.3583 19.8913 77.9563C26.1402 79.342 30.6194 83.3166 34.4661 88.1298C35.9287 89.9858 37.2267 91.9877 37.8885 94.3068C38.6016 96.8192 38.5394 99.255 36.7916 101.37C35.6032 102.796 34.0968 103.631 32.1515 103.35C30.8937 103.168 30.1258 102.449 29.7821 101.056C30.2302 101.387 30.7561 101.598 31.3092 101.668C31.8623 101.738 32.4243 101.666 32.9413 101.457C33.4512 101.295 33.9189 101.022 34.3108 100.658C34.7027 100.295 35.0092 99.849 35.2083 99.3535C36.5612 96.2467 34.9451 94.0844 32.8426 93.1546C30.1295 91.9731 27.5882 92.356 25.4016 94.3251C23.109 96.3889 22.3631 99.0654 23.0688 102.015C23.8732 105.41 26.2828 107.372 29.464 108.426C35.0474 110.274 41.3988 108.356 44.5909 102.227C46.0535 99.3972 46.3826 96.2905 46.2583 93.1108C46.1632 90.6057 45.9621 88.097 46.2802 85.581C46.8177 81.3548 49.3224 78.011 53.8674 77.4823C54.8254 77.3693 54.4488 76.8661 54.1271 76.4759C52.5145 74.5068 50.3572 73.701 47.8708 73.7265C43.6804 73.7739 40.3018 76.4431 39.0623 80.5672C38.6772 81.935 38.4913 83.3509 38.5102 84.7715C36.2541 80.1843 33.157 76.3483 30.1331 72.4648C28.0818 69.8248 26.1585 67.1192 24.9299 63.976C22.3046 57.325 25.2297 49.5034 31.4019 46.6738C33.7335 45.6293 36.3692 45.478 38.8055 46.2489C41.2418 47.0197 43.308 48.6587 44.6092 50.8526C46.0974 53.4343 45.8524 57.4526 44.0827 59.604C42.7919 61.1829 41.2964 61.5548 39.2926 60.7307C40.6638 60.1108 41.311 58.995 41.545 57.6459C41.9948 55.0387 39.651 52.9456 36.7404 53.3103C33.5666 53.7077 31.2995 56.8473 31.8188 60.2676C32.316 63.5239 34.2796 65.5513 37.3401 66.7291C42.2471 68.6142 48.8617 66.8457 51.9661 60.4062C54.8218 54.4808 53.1325 46.9765 48.3425 42.5716C42.8797 37.5469 36.4515 35.7601 29.2373 38.1959C25.0762 39.5998 21.9608 42.4877 19.7048 46.1743C16.498 51.4141 15.5437 57.0004 17.5511 62.9113C18.5434 65.7847 20.0485 68.4555 21.9937 70.7948C22.3631 71.2506 22.7433 71.7027 23.1199 72.1513Z" fill="#AA5C9D"/>
<path d="M116.88 72.1512C119.366 71.0573 121.889 70.3061 124.628 70.328C132.958 70.4119 138.936 78.547 136.475 86.4743C135.415 89.9019 133.349 92.4945 130.032 93.9239C127.049 95.2111 122.573 94.9084 120.405 91.4808C119.268 89.6904 119.575 87.2291 121.092 86.168C121.937 85.5773 122.171 85.6794 122.288 86.6821C122.562 89.0195 125.348 90.2592 127.535 89.0195C131.191 86.9447 131.294 82.1496 127.71 79.3711C125.436 77.6135 122.811 77.3583 120.105 77.9563C113.86 79.3419 109.38 83.3165 105.534 88.1297C104.053 89.9858 102.77 91.9876 102.111 94.3068C101.398 96.8191 101.457 99.2549 103.208 101.37C104.393 102.796 105.899 103.631 107.848 103.35C109.103 103.168 109.87 102.449 110.218 101.056C109.769 101.387 109.242 101.597 108.689 101.667C108.135 101.738 107.573 101.665 107.055 101.457C106.545 101.295 106.078 101.022 105.687 100.658C105.296 100.294 104.99 99.8488 104.792 99.3534C103.439 96.2466 105.055 94.0843 107.157 93.1545C109.867 91.9731 112.408 92.3559 114.595 94.325C116.887 96.3889 117.637 99.0653 116.931 102.015C116.123 105.41 113.717 107.372 110.532 108.426C104.952 110.274 98.6011 108.356 95.4053 102.227C93.9427 99.3971 93.6173 96.2904 93.7379 93.1107C93.8367 90.6057 94.0378 88.0969 93.7197 85.5809C93.1822 81.3547 90.6775 78.011 86.1288 77.4822C85.1708 77.3692 85.5511 76.866 85.8728 76.4758C87.4853 74.5068 89.6427 73.7009 92.1254 73.7264C96.3158 73.7738 99.6944 76.443 100.938 80.5671C101.323 81.9349 101.509 83.3508 101.49 84.7714C103.746 80.1842 106.843 76.3482 109.863 72.4648C111.914 69.8248 113.838 67.1192 115.066 63.976C117.673 57.3103 114.763 49.4888 108.587 46.6519C106.256 45.6122 103.623 45.4642 101.19 46.2362C98.7571 47.0083 96.6941 48.6463 95.3944 50.8379C93.9098 53.4196 94.1511 57.4379 95.9245 59.5893C97.2116 61.1682 98.7108 61.5401 100.715 60.7161C99.3434 60.0962 98.6925 58.9804 98.4621 57.6312C98.0124 55.024 100.353 52.931 103.267 53.2956C106.441 53.6931 108.708 56.8326 108.185 60.253C107.687 63.5092 105.728 65.5366 102.667 66.7144C97.7564 68.5996 91.1455 66.8311 88.0411 60.3915C85.1854 54.4661 86.871 46.9618 91.6647 42.557C97.1275 37.5322 103.556 35.7455 110.77 38.1813C114.927 39.5851 118.046 42.4731 120.302 46.1596C123.491 51.3776 124.449 56.9712 122.441 62.882C121.446 65.7541 119.941 68.4244 117.999 70.7656C117.631 71.2347 117.258 71.6966 116.88 72.1512Z" fill="#AA5C9D"/>
<path d="M67.8682 98.4746C65.9623 108.747 66.0045 119.285 67.9925 129.542C68.3874 131.537 71.2541 131.522 71.5978 129.516C72.83 122.242 73.905 110.65 71.4625 98.4782C71.0676 96.5055 68.2411 96.4946 67.8682 98.4746Z" fill="#AA5C9D"/>
<path d="M69.7989 143.592C69.7989 143.592 60.7308 139.858 58.3906 136.748C56.0505 133.638 51.1654 132.445 51.6371 135.632C52.1088 138.819 65.5647 155.323 69.7002 155.323L69.7989 143.592Z" fill="#AA5C9D"/>
<path d="M69.7989 143.592C69.7989 143.592 78.6696 139.858 81.0097 136.748C83.3499 133.638 88.246 131.873 87.7743 135.063C87.3026 138.254 73.832 155.337 69.7002 155.337L69.7989 143.592Z" fill="#AA5C9D"/>
</svg>
