<svg id="Layer_1" data-name="Layer 1" xmlns="http://www.w3.org/2000/svg" viewBox="0 0 459.39 514.15"><defs><style>.cls-1{fill:#233565;}</style></defs><path class="cls-1" d="M330.59,330.86c-1.16,4.95-2.31,9.9-3.49,14.85-.54,2.29-1.34,2.71-3.27,1.47-14.9-9.6-31.75-13.66-48.77-17.32A223.44,223.44,0,0,0,220,325.38a228.88,228.88,0,0,0-46.18,6.75c-10.63,2.59-21.16,5.41-31,10.35a56.21,56.21,0,0,0-7.51,4.55c-1.52,1.08-2.62,1-3.08-1-1.11-4.88-2.24-9.75-3.36-14.63.84-2.16,2.64-3.46,4.37-4.78a92.65,92.65,0,0,1,25.45-13.24A190.93,190.93,0,0,1,203,303.8a245.25,245.25,0,0,1,32.51-1.42c24.8.73,49.16,4.1,72.37,13.48a87.3,87.3,0,0,1,20,11.71A7.93,7.93,0,0,1,330.59,330.86Z"/><path class="cls-1" d="M90,255.42c-1.68-2.29-1.66-5.06-2.06-7.66-1.61-10.53,0-21.08,0-31.62a64.12,64.12,0,0,0-7.16-30c-.37-.73-1.34-1.41-.64-2.46a65,65,0,0,1,8.33,25.93c.84,7.14-.09,14.17-.46,21.25-.42,7.91-.3,15.8,1.88,23.51A4.81,4.81,0,0,1,90,255.42Z"/><path class="cls-1" d="M378.12,185.59a3.7,3.7,0,0,1-.6,2.4,61.87,61.87,0,0,0-6.06,22.19c-.62,7.1.05,14.06.55,21.08.28,3.85.05,7.74.05,11.78-.75-.8-.25-1.63-.55-2.31,0-9.65-1.52-19.26-.92-28.92C371.17,202.53,373.31,193.67,378.12,185.59Z"/><path class="cls-1" d="M356.28,253.05a153.23,153.23,0,0,0,3.12-30,146.65,146.65,0,0,0-3-29.45c-.49-2.4-1.53-4.77-1.06-7.33a198.22,198.22,0,0,0-10.29-32.09c-15.19-36.87-37.94-68.7-65-97.66C265.4,40.8,249.09,27,232.16,13.9c-1.94-1.5-3.1-1.19-4.79.08A407.13,407.13,0,0,0,192,44a342.63,342.63,0,0,0-34.09,37.54C141.1,103.1,126.26,125.8,115.5,151a193.3,193.3,0,0,0-15.43,61.24,156.2,156.2,0,0,0,1.36,34.22,173.56,173.56,0,0,0,14,47.15c3.62,8,9.92,14.81,10.82,24,1.31,0,2.15-.87,3.06-1.6a64.51,64.51,0,0,1,15.15-9,178.26,178.26,0,0,1,40.65-11.84,223.92,223.92,0,0,1,31.84-3.62c.9,0,2.33.47,2.4-1.3-.13-.07-.26-.05-.36-.13.33.06-.06-.09.25,0a7,7,0,0,0,2.72.43,300.7,300.7,0,0,1,33.42,1.06,36.47,36.47,0,0,1,7.9,1.14c.65.82,1.63.77,2.54.9a218,218,0,0,1,34.52,7.54c11.09,3.44,21.76,7.72,30.87,15.18.57.47,1.11,1.09,2,.76.82-2.61.66-5.46,2.13-7.93a167.2,167.2,0,0,0,21-53.75A5.08,5.08,0,0,1,356.28,253.05Zm-108.9.51c-7.11,6.75-13.4,14.14-17.7,23.34-4.83-11.64-13.67-19.72-22.78-27.65-8.58-7.46-14.76-16.49-16.58-28,0-.17-.12-.32-.15-.48-1-4.84,0-5.69,4.85-4.93,8.75,1.38,15.45,6.2,21.47,12.26a36.34,36.34,0,0,0,3.27,3.43c1.11-2.18.25-3.88-.2-5.55-2.07-7.68-4.85-15.18-6-23.08-3.1-21.47.28-41.66,12.34-60,3.66-5.56,4-5.44,7.7.12a79.56,79.56,0,0,1,12.6,35.14c1.76,14.45-.3,28.44-4.89,42.16-1,2.93-1.6,6-2.37,9-.13.53-.69,1.17,0,1.57s1.16-.17,1.57-.51c1.35-1.14,2.69-2.3,3.92-3.56,5.48-5.59,11.72-9.76,19.63-11,.33-.05.66-.16,1-.2,3.68-.46,5,.74,4.22,4.33-1.6,7.52-4.27,14.6-9.09,20.75C256.45,245.52,251.77,249.39,247.38,253.56Zm96.09-26.31a144.43,144.43,0,0,1-4.24,31.85,23,23,0,0,0-.75,4.2,3.83,3.83,0,0,1-.85,2.72c-2.71,7.88-5.4,15.77-9.17,23.24-.95,1.88-1.79,2.34-3.83,1.3-16-8.17-33.2-12.25-50.94-14.36-5.46-.65-10.91-1.31-16.93-1.63a75.52,75.52,0,0,0,11.84-9.14c9.14-8.72,14.7-19.14,15.61-31.94a124.8,124.8,0,0,0,.1-14.6c-.34-7.41.79-14.55,4.72-21a7.23,7.23,0,0,1,1.65-2.75c1.45-1.87,1.3-2.38-1.07-3A38.5,38.5,0,0,0,266.84,195a4.41,4.41,0,0,1-1.93.52L260.12,198c1.11-1.94,2-3.52,2.9-5.05,4.86-7.94,5.64-16.58,4.13-25.52-2.41-14.25-9.22-26.66-16.69-38.73a247.17,247.17,0,0,0-17.58-25.18c-2.58-3.2-3.11-3.34-5.71-.15-11.62,14.29-22,29.36-29.54,46.29a1.64,1.64,0,0,0,0,.5c-1.41,4.29-3.33,8.39-4.21,12.87-1.71,8.72-2.88,17.37,1.37,25.77a4.57,4.57,0,0,1,.5,1.93c1.13,2.28,2.27,4.56,3.59,7.2-4.26-2.45-8-5-12.52-5.84-5.42-1-10.89-.94-16.36-.78a2.67,2.67,0,0,0-2.59,1.25c-.5,1.1.33,1.83,1,2.61,5,5.74,6.63,12.67,6.95,20,.25,5.79-.48,11.56-.06,17.39,1.09,15.3,7.89,27.33,19.91,36.59,2.23,1.72,4.59,3.27,7.26,5.17-3.37.29-6.4.51-9.41.81-20.22,2-39.83,6.33-58.15,15.43-2,1-3,.6-4-1.14-2-2.74-2.91-6-4.24-9a134.64,134.64,0,0,1-8.1-26.63,25.88,25.88,0,0,1-.92-6.89,140.12,140.12,0,0,1-1.3-31.22A172.79,172.79,0,0,1,126,170.88c10.07-28.52,25.36-54,44-77.76,14.43-18.39,31.74-33.85,48.9-49.49,3-2.78,6.26-5.38,9.24-8.22,1.3-1.22,2.09-1,3.27.06,8.52,7.52,17,15.12,25.24,22.89a319.12,319.12,0,0,1,24.57,25c18.75,22,34.65,45.89,46.59,72.31a12.28,12.28,0,0,0,.73,1.27c2.46,4.16,3.92,8.74,5.54,13.24a165.19,165.19,0,0,1,7.83,29.91c.78,5,1.65,9.94,1.53,15C343.38,219.19,343.55,223.22,343.47,227.25Z"/><path class="cls-1" d="M117.62,246.92a157.36,157.36,0,0,0,13.26,42.55c-1.24-.81-1.4-1.27-2.61-4.05a162.46,162.46,0,0,1-9.17-27c-.8-3.33-1.34-6.7-1.87-10.07A1.41,1.41,0,0,1,117.62,246.92Z"/><path class="cls-1" d="M195.24,190.76c-4.11-7.36-4.35-15.23-3-23.3a55.18,55.18,0,0,1,5.37-17.27c.31,1.89-.76,3.42-1.42,5-2.6,6.29-3.52,12.92-4,19.6a25,25,0,0,0,2.53,12.71C195.11,188.48,196,189.52,195.24,190.76Z"/><path class="cls-1" d="M263.19,292.53c-14.51-1.5-29-2.57-43.64-2l-2.69-.24c9.4,0,18.79-.88,28.17.09,4.66.48,9.35.7,14,1.07a20.65,20.65,0,0,1,4.46.6C264.3,292.27,263.29,292.33,263.19,292.53Z"/><path class="cls-1" d="M264.91,195.49c7.47-4.18,15.57-4.69,23.85-4.06a8.3,8.3,0,0,1,2.37.76c1.22.5,1.43,1.28.55,2.33s-1.77,2.22-2.65,3.34c-.69-1.35.67-1.91,1.16-2.71,1.25-2,1.19-2.33-1.19-2.81a35.64,35.64,0,0,0-13.46.21,32.1,32.1,0,0,0-8.79,2.86C266.15,195.71,265.55,196.09,264.91,195.49Z"/><path class="cls-1" d="M448.58,147.28a2.37,2.37,0,0,0-2.2-1,56,56,0,0,0-12.27,1.12,87.85,87.85,0,0,0-42.56,20.75,54.19,54.19,0,0,0-13.43,17.4,14.22,14.22,0,0,1-1,2.57c-5.54,10.9-6.81,22.57-6.12,34.57.35,6.13,1.1,12.24.87,18.39-.24,0-.13-.34-.33-.39A131.5,131.5,0,0,1,368.38,259c-.31,1.26,0,2.08.93,2.48s1.48-.64,1.86-1.32c1.54-2.68,3-5.4,4.44-8.13,3.73-7.1,6.95-14.48,12.82-20.26,6.18-6.09,12.57-12,18.05-18.73,7.09-8.72,12.15-18.64,16.65-28.85,5.91-13.41,12.81-26.06,24.61-35.34C448.22,148.48,449,148.07,448.58,147.28Zm-73.05,82.21c8.92-22.34,20.79-42.74,38.92-59C403.09,191.21,391.37,211.71,375.53,229.49Z"/><path class="cls-1" d="M91,259.49a12.19,12.19,0,0,0-1-4.07,35.74,35.74,0,0,1-2.27-11.7,175.51,175.51,0,0,1,.52-20.37,70.33,70.33,0,0,0-3.08-27.83c-1.35-4.09-3.56-7.77-5-11.8A63.7,63.7,0,0,0,63.7,164.55a86.12,86.12,0,0,0-41.51-17.66c-2.9-.42-5.87-.41-8.8-.59-1.05-.07-2.24.07-2.61,1.09-.32.85.8,1.31,1.38,1.86,2,1.93,4.08,3.77,6,5.77,7.8,8.06,13.09,17.72,17.55,27.89,7.3,16.67,16.52,32,30.43,44.12a64.91,64.91,0,0,1,8.59,8.87c4.56,5.87,7.36,12.69,10.58,19.29.88,1.81,1.84,3.58,2.86,5.3.42.71,1.1,1.41,2.07.95C91,261.07,91.11,260.32,91,259.49Zm-45.74-89C63,186.87,75,207.06,83.85,229.25,67.89,211.63,56.58,191.05,45.25,170.48Z"/><path class="cls-1" d="M331.45,428.14a51.09,51.09,0,0,1-4.9-11.78c-2.38-8.4-3-17.12-4.48-25.67C320,379.26,315.5,369.18,307,361c-7.66-7.34-16.78-12.52-25.67-18.06-.28-.18-.57-.34-.9-.54-1.29.3-1.36,1-1.18,2.22,1,6.88,1.8,13.79,2.83,20.67,1.35,9.09,3.17,18.09,6.91,26.57,8.1,18.41,22.5,30.27,40.24,38.63.79.37,1.66,1.64,2.62.59S332,429.09,331.45,428.14Zm-40.78-70.43A249.51,249.51,0,0,1,320,421.45C305.58,402.33,296.51,380.73,290.67,357.71Z"/><path class="cls-1" d="M179.31,342.69c-.87-.48-1.38.25-2,.64-2.83,1.78-5.66,3.57-8.5,5.34a86.43,86.43,0,0,0-20.21,16.9c-7.79,9.12-10.67,20-12.23,31.55-1.47,10.93-3,21.89-9.08,31.51-.52.83-.83,1.72,0,2.54s1.56-.13,2.22-.4a83.52,83.52,0,0,0,15.66-8.9c12.55-8.65,22.3-19.51,27.1-34.28a146.56,146.56,0,0,0,5.17-24c.92-6.21,1.71-12.44,2.56-18.67C179.94,344.14,180.26,343.21,179.31,342.69ZM139.1,421.28c8.58-21.79,16.34-43.71,29.54-63.57C166.24,376.53,150.43,410.5,139.1,421.28Z"/><path class="cls-1" d="M379.49,455.06c-4.27-.35-8.56-.33-12.85-.73-15.44-1.42-30.39-4.87-44.46-11.37-32.3-14.9-50.59-40.34-55.88-75.36a199.35,199.35,0,0,1-2-25.12,3.14,3.14,0,0,0-.84-2.53c-.31-.16-.66-.07-1-.21-5.28-2.48-19.18-5.29-32.94-5.29-14,0-27.66,2.67-33.57,5.29-.32.13-.67.05-1,.21a3.18,3.18,0,0,0-.84,2.53,201.22,201.22,0,0,1-2,25.12c-5.29,35-23.59,60.46-55.88,75.36-14.08,6.5-29,10-44.47,11.37-4.28.4-8.57.38-12.85.73-2.17.17-3.21,1-3.13,3.27.11,3.53.08,7.07.11,10.6.21.38.56-.66.57,0a31.76,31.76,0,0,1,.11,3.52c-.17,1.77.7,2.34,2.4,2.33,13.45-.08,26.89,0,40.34,0q12.19,0,24.38-.09c5.78,0,11.56.25,17.34.1a11.76,11.76,0,0,0,5.26-1.4,108,108,0,0,0,16.83-15.93c10.16-11.53,18.44-24.26,23.38-38.94,1.17-3.47,2-7,3.14-10.8a74.48,74.48,0,0,1-.45,15.56,147,147,0,0,1-7,31.53A146.24,146.24,0,0,1,195,471.54c-1.23,2.49,15.5,14.26,34.19,29.66v.06l0,0,0,0v-.06c18.69-15.4,35.41-27.17,34.18-29.66a133,133,0,0,1-14.22-48.3,73.81,73.81,0,0,1-.44-15.56c1.08,3.77,2,7.33,3.13,10.8,4.94,14.68,13.22,27.41,23.38,38.94a108.48,108.48,0,0,0,16.83,15.93,11.76,11.76,0,0,0,5.26,1.4c5.78.15,11.56-.15,17.34-.1q12.19.09,24.38.09c13.45,0,26.9-.05,40.34,0,1.71,0,2.57-.56,2.4-2.33a31.76,31.76,0,0,1,.11-3.52c0-.65.36.39.58,0,0-3.53,0-7.07.11-10.6C382.7,456.06,381.66,455.23,379.49,455.06Z"/></svg>