<svg width="80" height="98" viewBox="0 0 80 98" fill="none" xmlns="http://www.w3.org/2000/svg">
<path d="M52.1692 37.3539C52.1692 29.8404 52.1517 22.3298 52.1692 14.8163C52.2015 14.5572 52.1406 14.2951 51.9975 14.0767C51.8544 13.8583 51.6382 13.6977 51.3876 13.6235C49.8666 12.9934 48.3011 12.4764 46.7038 12.0769C46.5691 12.0448 46.3964 11.8869 46.2442 12.0769C46.2442 12.3985 46.2003 12.7201 46.2003 13.0417C46.2003 26.1567 46.2003 39.2727 46.2003 52.3896C46.2003 55.6055 46.1036 58.8419 46.2647 62.0666C46.2567 62.1638 46.2567 62.2616 46.2647 62.3589C46.6481 65.7794 47.743 69.0012 48.993 72.1791C49.0754 72.4508 49.2572 72.6815 49.5024 72.8252C49.9707 71.533 50.4157 70.2875 50.8724 69.048C51.6599 66.9226 52.219 64.7708 52.2073 62.4642C52.1429 54.0853 52.1721 45.7181 52.1692 37.3539Z" fill="#80CCE8"/>
<path d="M67.2248 66.5426C67.2248 58.0644 67.1926 49.5861 67.1985 41.1078C67.1985 36.9564 66.9496 32.8518 65.4215 28.9254C65.1961 28.3407 65.0702 27.7297 64.7219 27.2035C64.6663 27.1129 64.6399 26.876 64.4994 27.1012C64.4233 27.2269 64.4789 27.4344 64.4789 27.604C64.4789 38.2827 64.4789 48.9614 64.4789 59.6402C64.4414 60.4926 64.5252 61.346 64.7277 62.1749C65.2195 64.5137 66.3495 66.8087 67.2219 67.1771L67.2248 66.5426Z" fill="#80CCE8"/>
<path d="M33.709 15.6261C33.7885 14.5122 33.8081 13.3947 33.7676 12.2787C33.7676 12.0126 33.6475 11.8898 33.3694 11.9863C31.6743 12.4599 30.0127 13.0459 28.3958 13.7404C28.1411 13.8574 27.8747 13.9919 27.8776 14.3427C27.8776 14.5327 27.8484 14.7198 27.8484 14.9099C27.8484 29.4282 27.8484 43.9484 27.8484 58.4706C27.8484 60.5375 27.7752 62.6074 27.8893 64.6744C27.8867 64.8054 27.8946 64.9364 27.9128 65.0661C28.25 66.7558 28.7399 68.4114 29.3765 70.0127C29.7248 70.922 29.9444 71.8926 30.5181 72.7199C30.7104 72.5868 30.8493 72.39 30.9104 72.1645C31.5888 70.7715 32.1375 69.3192 32.5498 67.8259C32.9918 66.1478 33.5334 64.4902 33.668 62.7419C33.7002 61.8151 33.7617 60.8855 33.7617 59.9558C33.7617 50.7388 33.75 41.5199 33.7266 32.2991L33.709 15.6261Z" fill="#80CCE8"/>
<path d="M24.397 62.2274C24.397 62.0081 24.4497 61.7801 24.4497 61.552V22.6222C24.4497 20.9441 24.4497 19.263 24.4497 17.582C24.4497 17.3452 24.3736 17.0879 24.5404 16.8657C24.5404 20.91 24.5482 24.9532 24.5638 28.9955C24.5638 39.76 24.5638 50.5225 24.5638 61.2831C24.5902 62.3122 24.3823 62.932 24.397 62.2274Z" fill="#80CCE8"/>
<path d="M15.4479 26.9873C15.2635 27.1803 15.2049 27.2972 15.2049 27.4375C14.6399 28.49 14.3267 29.639 13.993 30.7762C13.3395 33.0325 12.9881 35.3653 12.9479 37.7138C13.0023 37.9346 13.0162 38.1634 12.9889 38.3891C12.9889 46.2417 12.9889 54.0944 12.9889 61.947C12.9889 59.1833 12.9889 56.4186 12.9889 53.6529C12.9965 53.6066 12.9937 53.5592 12.9805 53.5142C12.9673 53.4691 12.9442 53.4276 12.9128 53.3927C12.8401 53.7069 12.8184 54.0306 12.8483 54.3516C12.8483 56.5696 12.8425 58.7886 12.8308 61.0085C12.8308 62.9264 12.8308 64.8423 12.8308 66.7562C12.8308 66.9112 12.7722 67.1451 12.9801 67.2006C13.1879 67.2562 13.2728 67.0369 13.3519 66.9083C14.1259 65.7327 14.7282 64.453 15.1405 63.1076C15.3562 62.5594 15.45 61.9708 15.4157 61.3828C15.4157 61.1752 15.4391 60.9647 15.4391 60.7571C15.4391 49.7588 15.4391 38.7604 15.4391 27.762L15.4479 26.9873Z" fill="#80CCE8"/>
<path d="M12.9479 37.7139C13.103 37.8717 13.0445 38.0705 13.0445 38.2547C13.0445 46.0508 13.0445 53.8469 13.0445 61.643C13.0445 61.7921 13.0445 61.9354 13.0211 62.1459C12.9322 61.9563 12.9046 61.7438 12.942 61.5378C12.9303 58.8287 12.9206 56.1185 12.9128 53.4074C12.9362 48.1568 12.8249 42.9295 12.9479 37.7139Z" fill="#80CCE8"/>
<path d="M43.0533 62.8006C43.0533 62.6574 43.0533 62.5083 43.0533 62.3738L43.0269 61.143C43.0269 47.2152 43.0269 33.2885 43.0269 19.3627C43.0269 16.8952 43.0269 14.4277 43.0269 11.9603C43.0269 11.6825 43.0855 11.3083 42.6815 11.2966C40.8577 11.2557 39.0339 11.1563 37.216 11.3785C36.9613 11.4106 36.9584 11.551 36.9965 11.7351C36.9028 13.1765 36.9438 14.6178 36.9438 16.0561C36.9438 24.1193 36.9438 32.1824 36.9438 40.2455C36.9438 46.2388 36.9877 59.6023 36.9262 62.6895C36.9178 63.124 36.9821 63.5568 37.1165 63.9701L39.959 72.7407L42.8483 64.1367C42.9937 63.7066 43.063 63.2545 43.0533 62.8006Z" fill="#80CCE8"/>
<path d="M24.5052 61.2425C24.5052 47.4356 24.5052 33.6287 24.5052 19.8218C24.5052 18.8395 24.4555 17.8572 24.5404 16.8778V16.3545C24.476 16.3808 24.4142 16.4131 24.3559 16.451C22.4561 18.0664 20.6936 19.8363 19.0866 21.7426C18.9246 21.9007 18.8152 22.1049 18.7734 22.3273L18.7353 41.8858C18.7119 42.1489 18.668 42.412 18.668 42.6751C18.6544 48.9374 18.6446 55.2005 18.6387 61.4647C18.6856 62.3119 18.6856 63.161 18.6387 64.0082C18.5304 64.8999 18.4367 67.8234 17.6376 69.5278C17.6082 69.5934 17.6021 69.6669 17.6202 69.7364C17.6383 69.8058 17.6796 69.8671 17.7372 69.91C17.7948 69.9529 17.8653 69.9749 17.9372 69.9724C18.009 69.9699 18.0778 69.943 18.1323 69.8962L23.8495 63.7831C24.2056 63.4681 24.4267 63.0285 24.4672 62.5552C24.4877 62.1196 24.5052 61.6869 24.5052 61.2425Z" fill="#80CCE8"/>
<path d="M55.0498 61.2425C55.0498 47.4356 55.0498 33.6287 55.0498 19.8218C55.0498 18.8395 55.1025 17.8572 55.0176 16.8778C55.0176 16.8778 55.0176 16.8778 55.0176 16.8573V16.3545C55.0823 16.3801 55.1441 16.4124 55.202 16.451C57.1026 18.0656 58.8651 19.8356 60.4713 21.7426C60.6345 21.8999 60.744 22.1044 60.7846 22.3273L60.8197 41.8828C60.8431 42.146 60.887 42.4091 60.887 42.6722C60.9046 48.9344 60.9153 55.1976 60.9192 61.4618C60.8738 62.309 60.8738 63.1581 60.9192 64.0053C61.0305 64.897 61.1212 67.8205 61.9204 69.5249C61.952 69.5902 61.9598 69.6645 61.9427 69.7349C61.9255 69.8054 61.8843 69.8677 61.8263 69.9112C61.7682 69.9547 61.6967 69.9767 61.6242 69.9735C61.5517 69.9702 61.4825 69.9419 61.4286 69.8933L55.7114 63.7802C55.3531 63.4669 55.1315 63.0263 55.0937 62.5523C55.0673 62.1196 55.0498 61.6869 55.0498 61.2425Z" fill="#80CCE8"/>
</svg>
