<svg id="Layer_1" data-name="Layer 1" xmlns="http://www.w3.org/2000/svg" viewBox="0 0 566.93 566.93"><defs><style>.cls-1{fill:#ce433a;}</style></defs><path class="cls-1" d="M305.88,125.13c3.79-4.1,7.36-8.21,11.54-12.17a29,29,0,0,1,1.71,10.84,40.56,40.56,0,0,1-9.74,25.48c-.24.3-.48.6-.73.89-2.58,3-2.57,3-6.1,1.45a19.56,19.56,0,0,0-7.62-1.76c-7.12-.07-14.24,0-21.36-.07a24.68,24.68,0,0,0-11.08,2.73,1.33,1.33,0,0,1-1.82-.19c-9.7-9.24-15.69-24.21-11.29-38.51a5.79,5.79,0,0,1,.28-.71c4.12,3.75,7.85,7.79,11.86,12,.75-4.43,2.61-8.31,4.22-12.28.95-2.33,1-2.31,2.61-.33a53.79,53.79,0,0,1,7.14,10.74,78.55,78.55,0,0,1,6.8-13.75c.83-1.36,1.21-1.61,2.15,0,2.58,4.35,5.19,8.66,6.78,13.89,2.1-4.28,5.06-7.57,7.81-11,1.1-1.36,1.53-1,2.07.38C302.69,116.8,304.63,120.76,305.88,125.13Z"/><path class="cls-1" d="M284.58,266.26c-6.25-.08-11.95-.14-17.58-1.24-1.46-.29-2.14-.77-2.05-2.47.18-3.2.06-6.42,0-9.62,0-1.12.12-1.62,1.49-1.35a94.7,94.7,0,0,0,34,0c1.26-.21,1.58.06,1.56,1.28-.06,3.4-.1,6.81,0,10.2.05,1.29-.52,1.63-1.56,1.84A65.33,65.33,0,0,1,284.58,266.26Z"/><path class="cls-1" d="M240.79,314.91h0a2.15,2.15,0,0,0-1.23-1.94c-.47-.18-.55.51-.72.87q-1.8,5.93-3.62,11.85h0c-.11.22-.24.43-.34.65-5.64,13.32-14.58,23.71-27.43,30.55A55.23,55.23,0,0,1,192,362l-9.4,0h0a2.78,2.78,0,0,0-.69-.3c-12.75-1.64-22-8.24-27.92-19.62-.3-.58-.46-1.32-1.25-1.66a4.1,4.1,0,0,0-1,2.35c-.31,0-.32.3-.41.53-2,4.6-2,9.35-1.06,14.16h0c2.69,9.49,9.13,15.19,18.32,18.06,2.24.7,4.58,1.09,7.2,1.7-1.61,1.55-3,2.86-4.37,4.22-7,7.09-10.15,15.54-8.47,25.44a23.42,23.42,0,0,0,9.44,15.66,18.53,18.53,0,0,0,8.68,3.65c.7.09,1.81.32,1.07-1-1.37-2.46-2-5.17-3-7.78a22.72,22.72,0,0,1,1.53-13.73h0c3-5.39,7.35-9.37,12.41-12.75,4.4-2.95,9.07-5.43,13.63-8.08,10.75-6.26,19.71-14.36,26.13-25.1A65.64,65.64,0,0,0,241,333.92a2.76,2.76,0,0,1-.08-.27c0,.09,0,.18.08.27.24-2.2.55-4.4.7-6.61C242,323.14,242.06,319,240.79,314.91Z"/><path class="cls-1" d="M241.54,245.2a44.49,44.49,0,0,0-1-8.37h0c-.1-.63-.17-1.27-.3-1.89-4.07-18.33-14.49-32.09-30.26-42-7.23-4.53-15-8.14-21.69-13.59-9-7.39-12.65-16.7-7.4-28.15.47-1,1.86-2.3,1-3.16s-2.44,0-3.62.45c-8.2,2.85-12.73,8.94-14.94,17.05a29,29,0,0,0-.75,10h0c1,9.06,6.1,15.85,12.79,21.94-5.92,1-11.36,2.37-15.85,6s-8,7.88-9.26,13.67a27.14,27.14,0,0,0,0,10.81h0a16.13,16.13,0,0,0,2.82,6.28c.45-.91.81-1.65,1.19-2.38,4.88-9.4,12.54-15.4,22.59-18.46a41.64,41.64,0,0,1,16.07-.84h0a.85.85,0,0,0,.81.27c2.75.34,5.33,1.39,8,2.05a5.67,5.67,0,0,0,.63.36c14.63,5.5,24.83,15.67,31.22,29.79a106.25,106.25,0,0,1,5.19,14.31c.14.47.18,1.16.68,1.26.71.16.81-.67,1.14-1.1a2.4,2.4,0,0,0,.36-.87A37,37,0,0,0,241.54,245.2Zm-.26,0q0-.39,0-.78c0,.29.06.58.07.87C241.34,245.3,241.28,245.24,241.28,245.22Z"/><path class="cls-1" d="M416.64,217.27h0c-2.47-9.55-8.65-15.46-18-18.19-2.28-.67-4.63-1.11-7.19-1.72a57.08,57.08,0,0,0,7-7.55c7.21-9.67,7.95-22.45,1.68-31.87-3.22-4.85-7.38-8.62-13.29-10-.69-.16-1.59-.4-2,0-.62.61.23,1.24.5,1.82,3.16,6.62,4.26,13.34.84,20.2-3.08,6.17-8.19,10.35-13.95,13.84-7.72,4.69-15.7,9-22.79,14.68-11,8.88-18.9,19.72-22,33.72a11,11,0,0,0-.5,2.85.9.9,0,0,0-.29,1,14.78,14.78,0,0,0-.48,3.43h0a.82.82,0,0,0-.26.82,79.93,79.93,0,0,0-.4,14.59h0c.32,2.05.25,4.25,2.28,6l3.11-9.76h0l1.11-2.58c6.19-14.4,15.44-25.94,30.21-32.34a58.51,58.51,0,0,1,14.8-4,56.67,56.67,0,0,1,9.57.34,4.33,4.33,0,0,0,.87.36,35.05,35.05,0,0,1,25.8,19.8c.18.37.22,1,.73,1s.74-.58,1-1a19.38,19.38,0,0,0,2.06-6.29A26.82,26.82,0,0,0,416.64,217.27Z"/><path class="cls-1" d="M415.64,343.42h0a1.75,1.75,0,0,0-.09-.57c-.48-.79-.54-2.19-1.47-2.25s-1,1.3-1.42,2c-4.06,7.37-9.58,13.16-17.43,16.55-3.3,1.42-6.8,2-10.24,2.8h0l-9-.05c-.74-.53-1.62-.22-2.43-.39a55,55,0,0,1-32.87-20.06,58,58,0,0,1-9.87-18.32L329.42,318h0v0a13.93,13.93,0,0,0-1.21-4.18h.06c-.23-1-.61-1.45-1.36-.34a4,4,0,0,0-.83,1.88.3.3,0,0,0-.19.44,65.34,65.34,0,0,0,0,17.28h0c.27,1.64.48,3.28.81,4.9,3.89,18.94,14.45,33.14,30.73,43.29,5.78,3.61,12,6.46,17.59,10.36,8.07,5.62,14.17,12.38,13.23,23.16h0a34.14,34.14,0,0,1-2.58,8.86h0a4.73,4.73,0,0,0-.36.66c-.19.58-1,1.08-.59,1.69s1.25.23,1.92.14a17.35,17.35,0,0,0,9.68-5c9.76-9.41,10.74-24.6,2.43-36.11a78.1,78.1,0,0,0-7.66-8.42c13.3-1.4,22.72-7.24,25.9-20.71C417.46,351.64,417.56,347.42,415.64,343.42ZM388.47,414.8a.31.31,0,0,0,.13-.06h0a.14.14,0,0,1,0,.06h-.11Z"/></svg>