<svg id="Layer_1" data-name="Layer 1" xmlns="http://www.w3.org/2000/svg" viewBox="0 0 566.93 566.93"><defs><style>.cls-1{fill:#e9bad2;}</style></defs><path class="cls-1" d="M181.5,227.18l48.13,62.5,23.41-18s-7.13-12.09-16.06-11.45a10.17,10.17,0,0,0-.88-10.84,13.39,13.39,0,0,0-10.19-5.11,10.08,10.08,0,0,0-1.55-10.13,11.16,11.16,0,0,0-9.09-4.71S220.8,206,201.21,200.9C185.91,196.94,174.27,213.25,181.5,227.18Z"/><path class="cls-1" d="M332.72,506.09l-48.13-62.51-23.41,18s7.13,12.09,16.06,11.45a10.19,10.19,0,0,0,.88,10.84A13.39,13.39,0,0,0,288.31,489a10.11,10.11,0,0,0,1.55,10.13,11.16,11.16,0,0,0,9.09,4.71S293.42,527.3,313,532.37C328.32,536.33,340,520,332.72,506.09Z"/><path class="cls-1" d="M149.93,301.61s8.93-40.2,42.73-38.77a61,61,0,0,1-28.31-45.25s-10.74,20.93-17.27,37.85C137.38,280.58,149.93,301.61,149.93,301.61Z"/><path class="cls-1" d="M363.83,431.12s-8.93,40.2-42.73,38.77a61,61,0,0,1,28.31,45.25s10.75-20.93,17.28-37.85C376.39,452.15,363.83,431.12,363.83,431.12Z"/><path class="cls-1" d="M205.43,286.55s14.64,73.62,99.68,157C305.11,443.58,276.39,342.86,205.43,286.55Z"/><path class="cls-1" d="M225.89,60.84,274,123.35l23.41-18s-7.13-12.09-16.05-11.45A10.19,10.19,0,0,0,280.49,83a13.39,13.39,0,0,0-10.19-5.11,10.09,10.09,0,0,0-1.54-10.13,11.19,11.19,0,0,0-9.1-4.71s5.54-23.45-14.05-28.52C230.3,30.6,218.66,46.91,225.89,60.84Z"/><path class="cls-1" d="M377.11,339.75,329,277.24l-23.41,18s7.13,12.09,16.05,11.45a10.19,10.19,0,0,0,.89,10.84,13.39,13.39,0,0,0,10.19,5.11,10.09,10.09,0,0,0,1.54,10.13,11.19,11.19,0,0,0,9.1,4.71S337.81,361,357.4,366C372.71,370,384.35,353.68,377.11,339.75Z"/><path class="cls-1" d="M194.33,135.27s8.93-40.2,42.73-38.77a61,61,0,0,1-28.31-45.25S198,72.18,191.47,89.1C181.77,114.24,194.33,135.27,194.33,135.27Z"/><path class="cls-1" d="M408.23,264.78S399.3,305,365.5,303.55a61,61,0,0,1,28.31,45.26s10.74-20.94,17.27-37.86C420.78,285.82,408.23,264.78,408.23,264.78Z"/><path class="cls-1" d="M249.83,120.21s14.64,73.62,99.67,157C349.5,277.24,320.78,176.52,249.83,120.21Z"/></svg>