<svg id="Layer_1" data-name="Layer 1" xmlns="http://www.w3.org/2000/svg" viewBox="0 0 566.93 566.93"><defs><style>.cls-1{fill:#fff;}</style></defs><path class="cls-1" d="M233.35,344.59c-1.64-1.52-2.89-2.69-4.16-3.84-7.52-6.79-16.27-10.64-26.49-10.2-13.28.57-24.46,5.72-32.53,16.56-4.11,5.54-4.42,11.63-1.41,17.84,1.84,3.77,4.9,6.3,9.08,6.06,4.49-.26,8.84-1.7,11.32-6.05a38.33,38.33,0,0,0,2.21-5c.79-2,1.85-2.35,3.5-.93,4.18,3.59,6.27,11.59,4.49,16.86-3,8.83-8.89,14.51-17.91,16.82-14.84,3.79-32.61-8.46-34.27-23.69-2.57-23.46,11.79-48.15,38.89-53.46,16.47-3.23,32,.35,44.61,11.12,15.64,13.35,26.91,30.12,31.68,50.56a31.91,31.91,0,0,1-.15,16.63,8.26,8.26,0,0,1-1.65,2.22,8.09,8.09,0,0,1-1.46-2.13c-4.15-14.85-13.47-25-27.71-30.77-3.23-1.31-6.62-2.23-9.87-3.5s-3.8-3.33-1.69-6.1A21.61,21.61,0,0,1,230,345.93C230.92,345.59,231.85,345.18,233.35,344.59Z"/><path class="cls-1" d="M364.54,337.91h0l0,0Z"/><path class="cls-1" d="M512.81,303.39c-.21-.59-.24-1.38-.65-1.75-4.74-4.27-9.24-8.89-14.37-12.63-14.47-10.55-30.86-16.61-48.49-19.3-19.82-3-39.29-1.83-58.26,5.12a105.7,105.7,0,0,0-32.35,19,104.33,104.33,0,0,0-23.54,27.63c-9,15.78-12.67,33-13.76,51-.77,12.72-1.61,44.3,13.37,68.05,29.59,46.9,66.68,61.68,66.68,61.68-14.68-18.68-21.24-26.14-24.6-40-4.8-19.86,5.12-37.48,13.55-45.74,10.26-10.07,37-16.51,40.22-17.82-.77-.7-1.14-1.28-1.65-1.46-3.29-1.14-6.53-2.69-9.93-3.2-18.34-2.72-38,7.34-47.32,23.4-5.79,9.93-6.57,20.5-5.7,31.48.39,5.05.95,10.08,1.47,15.5-.69-.54-1.05-.78-1.36-1.07a69.55,69.55,0,0,1-15.21-19.91c-2.73-5.41-6-11.11-6.59-16.93-1.57-14.8,4.46-26.85,16.56-35.57,9.42-6.78,20.31-9.08,31.71-9.55,1.2-.05,2.4-.32,4.28-.58-1.86-1.87-2.94-3.41-4.4-4.36-12.56-8.19-26.11-9.9-40.47-5.87a13.45,13.45,0,0,1-1.92.27,1.52,1.52,0,0,1,.72-1.12c.37-.24.74-.47,1.09-.72a84.07,84.07,0,0,1,48-16.22c7.94-.19,15.91.7,23.87,1a13,13,0,0,0,3-.55c-.39-1-.51-2.27-1.21-2.93-2.92-2.76-5.77-5.7-9.09-7.9-14-9.3-29.51-12.35-46.07-10.92a9.24,9.24,0,0,0-1.81.51c.12-1,.19-1.2.33-1.26.63-.29,1.28-.55,1.93-.81,17.81-7,36.36-9.47,55.38-8.54a193.16,193.16,0,0,1,37.62,5.7c1.07.27,2.29-.1,4-.2-3.27-5.55-7.61-8.9-11.8-12.24-14.35-11.4-31.29-15.33-49.49-16.19.45-.45.6-.71.8-.78,2.15-.73,4.3-1.49,6.48-2.12,15.87-4.6,32.13-5.27,48.47-4.26,16.89,1,33.36,4,48.44,12.29C511.25,303.8,512.11,303.45,512.81,303.39Z"/><path class="cls-1" d="M333.58,222.34c1.64,1.52,2.88,2.69,4.15,3.84,7.53,6.79,16.28,10.64,26.5,10.2,13.28-.57,24.45-5.72,32.52-16.56,4.12-5.54,4.43-11.64,1.42-17.84-1.84-3.77-4.9-6.3-9.08-6.06-4.49.26-8.84,1.7-11.32,6a39.05,39.05,0,0,0-2.21,5c-.79,2-1.85,2.35-3.51.93-4.17-3.59-6.26-11.59-4.48-16.86,3-8.83,8.89-14.51,17.91-16.82,14.83-3.79,32.6,8.46,34.27,23.69,2.57,23.45-11.79,48.15-38.89,53.46-16.47,3.23-32-.35-44.61-11.12-15.64-13.35-26.91-30.12-31.68-50.56a31.91,31.91,0,0,1,.15-16.63,8.11,8.11,0,0,1,1.65-2.22,8.09,8.09,0,0,1,1.46,2.13c4.15,14.85,13.47,25,27.71,30.77,3.23,1.31,6.62,2.23,9.87,3.5s3.8,3.33,1.69,6.1A21.67,21.67,0,0,1,337,221C336,221.34,335.08,221.75,333.58,222.34Z"/><path class="cls-1" d="M54.12,263.54c.21.59.24,1.38.65,1.75,4.74,4.27,9.23,8.89,14.37,12.63,14.47,10.55,30.86,16.61,48.49,19.3,19.82,3,39.29,1.83,58.26-5.12a105.7,105.7,0,0,0,32.35-19,104.33,104.33,0,0,0,23.54-27.63c9-15.78,12.67-33,13.76-51,.77-12.72,1.61-44.3-13.37-68.06-29.59-46.89-66.68-61.67-66.68-61.67,14.67,18.68,21.24,26.13,24.6,40,4.79,19.85-5.13,37.48-13.55,45.74-10.26,10.07-37,16.51-40.22,17.82.77.7,1.14,1.28,1.65,1.46,3.29,1.14,6.53,2.69,9.93,3.2,18.34,2.72,38-7.34,47.32-23.4,5.79-9.93,6.57-20.5,5.7-31.48-.4-5-.95-10.08-1.47-15.5.69.54,1.05.78,1.36,1.07A69.73,69.73,0,0,1,216,123.59c2.73,5.41,6,11.11,6.59,16.93,1.57,14.8-4.46,26.85-16.56,35.57-9.42,6.78-20.32,9.08-31.71,9.55-1.2.05-2.4.32-4.28.58,1.86,1.87,2.94,3.4,4.4,4.36,12.56,8.19,26.11,9.9,40.47,5.87a13.45,13.45,0,0,1,1.92-.27,1.52,1.52,0,0,1-.72,1.12c-.37.24-.74.47-1.09.72a84.07,84.07,0,0,1-48,16.22c-7.94.19-15.91-.7-23.87-1a13,13,0,0,0-3,.55c.39,1,.51,2.27,1.21,2.93,2.92,2.76,5.77,5.69,9.08,7.9,14,9.3,29.52,12.35,46.08,10.92a9.24,9.24,0,0,0,1.81-.51c-.12,1-.19,1.2-.33,1.26-.63.29-1.28.55-1.93.81-17.81,7-36.36,9.47-55.38,8.54a193.16,193.16,0,0,1-37.62-5.7c-1.07-.27-2.3.1-4,.2,3.27,5.55,7.6,8.9,11.8,12.23,14.35,11.41,31.29,15.34,49.49,16.2-.45.45-.6.71-.8.78-2.15.73-4.3,1.49-6.48,2.12-15.88,4.6-32.13,5.27-48.48,4.26-16.88-1-33.35-4-48.43-12.29C55.68,263.13,54.82,263.48,54.12,263.54Z"/><path class="cls-1" d="M298.65,242.89h0Z"/></svg>