<svg id="Layer_1" data-name="Layer 1" xmlns="http://www.w3.org/2000/svg" viewBox="0 0 371.66 471.35"><defs><style>.cls-1{fill:#ab5d9d;stroke:#010101;stroke-miterlimit:10;}.cls-2{fill:#231f20;}</style></defs><path class="cls-1" d="M28.43,395.05v13.22s25.35.81,35.64-1.35l-.14-12.85s-5.16,1.28-17.68,1.79C34.17,396.35,28.43,395.05,28.43,395.05Z"/><circle class="cls-2" cx="34.81" cy="402.1" r="2.49"/><path class="cls-1" d="M85,209.49s-8,21.57-9.56,60.73c-1,26.57,3.23,63.77,2.78,90.68-.17,10.21-14.24,23-14.24,33.17a85.92,85.92,0,0,1-35.5,1c-2.23-10-17.64-16.12-17.58-30.57.14-32.62,3.9-135.66,7.48-156.2,1.9-10.88,30.69-79.06,51.06-122,8.48-17.91,14.67-18,18.46-21.22,1.35-1.17,2.75,27,2.76,55.57C90.63,159.85,85,209.49,85,209.49Z"/><path class="cls-1" d="M342,395.05v13.22s-25.35.81-35.64-1.35l.14-12.85s5.16,1.28,17.68,1.79C336.29,396.35,342,395.05,342,395.05Z"/><circle class="cls-2" cx="335.64" cy="402.1" r="2.49"/><path class="cls-1" d="M285.5,209.49s8.06,21.57,9.57,60.73c1,26.57-3.23,63.77-2.78,90.68.17,10.21,14.24,23,14.24,33.17a85.91,85.91,0,0,0,35.5,1c2.23-10,17.64-16.12,17.58-30.57-.14-32.62-3.9-135.66-7.48-156.2-1.9-10.88-30.7-79.06-51.06-122-8.48-17.91-14.67-18-18.46-21.22-1.35-1.17-2.75,27-2.76,55.57C279.83,159.85,285.5,209.49,285.5,209.49Z"/></svg>