<svg width="80" height="62" viewBox="0 0 80 62" fill="none" xmlns="http://www.w3.org/2000/svg">
<path d="M76.1278 55.0519C73.5277 55.0365 70.9327 54.8134 68.33 54.7621C67.1064 54.7621 51.345 54.7621 42.4663 54.7621C42.3815 54.7541 42.2962 54.7541 42.2114 54.7621H41.6072C38.8796 54.7621 36.9474 54.7621 36.5497 54.7621C36.4252 54.7531 36.3001 54.7661 36.1801 54.8005C27.3269 54.8339 11.8867 54.8544 10.3597 54.8877C8.15046 54.9356 5.9344 54.9938 3.71154 55.0622C3.41329 55.0622 2.89072 55.0109 3.14563 55.552C3.64438 56.6836 3.8597 57.9209 3.77272 59.1556C3.75233 59.7276 4.00979 59.7994 4.46354 59.7404C6.43149 59.4839 8.40963 59.5968 10.3852 59.6045C11.7082 59.6045 30.2686 59.5917 37.7962 59.6045C37.889 59.6196 37.9827 59.6273 38.0766 59.6276C41.6633 59.6276 72.0364 59.3942 75.618 59.7456C76.0641 59.7892 76.1278 59.5788 76.1278 59.1967C76.1151 58.0579 76.1278 56.9217 76.6377 55.8624C77.0073 55.1442 76.9614 55.057 76.1278 55.0519Z" fill="#BE986A"/>
<path d="M5.24872 33.0531C5.42971 32.8735 5.65658 32.9376 5.86816 32.9376C10.3683 32.9376 14.8718 32.9376 19.3787 32.9376C19.5877 32.9376 19.8171 32.8735 19.9956 33.0531H5.24872Z" fill="#BE986A"/>
<path d="M60.1013 33.0532C60.2798 32.8737 60.5066 32.9352 60.7157 32.9352C64.9999 32.9352 69.2842 32.9352 73.5685 32.9352C73.7546 32.9352 73.956 32.8865 74.1115 33.0507L60.1013 33.0532Z" fill="#BE986A"/>
<path d="M77.4356 37.7288C77.4764 36.8927 77.7976 36.113 78.0219 35.2332H64.3202C62.4746 35.046 60.6239 35.1153 58.7732 35.1383L47.093 35.0947C46.9898 35.0522 46.878 35.0346 46.7667 35.0434C46.6885 35.0294 46.6092 35.0217 46.5297 35.0204C43.5981 35.0024 40.6666 34.9614 37.7351 34.9896C36.1368 35.005 34.5359 34.9203 32.9376 35.046H32.9096C32.7423 35.0262 32.5728 35.0429 32.4125 35.0947L31.5764 35.1178L21.8896 35.1409C20.1379 35.0759 18.3839 35.1085 16.6358 35.2384L4.37946 35.2871C3.77786 35.2717 3.17371 35.2871 2.57466 35.2358C1.97561 35.1845 1.86855 35.4077 2.06483 35.9309C2.58996 37.3313 2.57466 38.7727 2.36308 40.2244C2.23817 40.6861 2.51858 40.6605 2.83977 40.6605C20.1179 40.6964 37.3986 40.7887 54.6793 40.7143C62.1024 40.6835 69.5256 40.6699 76.9487 40.6733C77.3718 40.6733 77.7491 40.6964 77.5656 40.0834C77.4024 39.3062 77.4942 38.5111 77.4356 37.7288Z" fill="#BE986A"/>
<path d="M76.1406 32.3708C74.9349 31.4885 73.7317 30.6011 72.5183 29.729C66.8082 25.6253 61.1185 21.5215 55.8341 16.8715C50.5497 12.2214 45.12 7.69445 40.3276 2.46473C40.0727 2.18259 39.9325 2.16977 39.6623 2.46473C37.4572 4.94493 35.0228 7.18917 32.5756 9.42572C25.39 15.963 17.8527 22.098 9.99779 27.8028C7.93553 29.311 5.85032 30.7909 3.77786 32.2887C3.60962 32.4067 3.31646 32.4811 3.39039 32.7427C3.46431 33.0043 3.74727 32.9505 3.9563 32.9659C4.38711 32.9992 4.81282 33.1275 5.24872 33.0454C5.41263 32.9897 5.58694 32.9722 5.75855 32.9941H19.4832C19.6546 32.9727 19.8286 32.9893 19.993 33.0428C22.6033 32.7863 24.6885 31.6373 26.0651 29.2725C26.144 29.3506 26.2149 29.4365 26.2767 29.529C27.2453 31.645 29.0196 32.4862 31.1991 32.8145C33.4933 33.1608 35.7672 33.0377 38.0537 33.071C39.1193 33.0864 39.1091 33.071 39.1142 31.981C39.1346 27.7413 38.9587 23.4913 39.7081 19.2875C39.7744 18.9156 39.7515 18.495 40.1517 18.1205C40.4841 19.7327 40.7123 21.3648 40.8349 23.0066C41.0898 26.1075 40.9649 29.2135 40.97 32.3195C40.97 32.8864 41.1561 33.089 41.7347 33.089C43.8786 33.0556 46.03 33.1582 48.1662 32.9171C50.5395 32.6607 52.7165 31.9989 53.8279 29.5546C53.8906 29.4526 53.9622 29.3565 54.042 29.2674C54.6472 30.3749 55.5249 31.3076 56.5912 31.9758C57.6797 32.6324 58.8319 33.0839 60.1294 33.0377C60.2895 32.985 60.459 32.9675 60.6265 32.9864H73.6424C73.8141 32.9642 73.9884 32.9818 74.1523 33.0377C74.7819 33.1146 75.4013 32.9761 76.0259 32.9377C76.1788 32.9377 76.393 32.9992 76.4694 32.7915C76.523 32.5529 76.2885 32.4785 76.1406 32.3708ZM61.896 30.4831C59.1123 29.1827 56.7645 27.2591 54.5034 25.2021C53.5245 24.307 52.5788 23.3605 51.4266 22.6834C50.101 21.914 48.6837 21.6575 47.2026 22.1397C44.3552 23.0835 44.238 26.3922 45.3596 28.085C45.8694 28.8544 46.6571 29.1263 47.5672 29.0186C47.6793 29.0186 47.8348 28.9981 47.8909 28.9262C48.0158 28.7647 47.8323 28.6698 47.7405 28.5774C47.5026 28.3509 47.3255 28.0675 47.2257 27.7536C47.1258 27.4397 47.1065 27.1055 47.1695 26.782C47.2248 26.4343 47.3838 26.1116 47.6256 25.8569C47.8674 25.6022 48.1804 25.4275 48.5231 25.356C49.0017 25.2767 49.4928 25.3459 49.9313 25.5544C50.3698 25.7629 50.7349 26.1007 50.9779 26.523C51.447 27.3642 51.345 28.2055 50.8709 29.0006C49.8028 30.796 47.2511 31.4423 45.4871 30.3343C44.0952 29.4597 43.1928 28.2132 43.0016 26.5307C42.8181 24.8994 42.8589 23.281 43.6466 21.7883C44.3017 20.5443 45.2704 19.6979 46.754 19.6261C46.8465 19.6143 46.9373 19.591 47.0242 19.5569C47.0446 19.5569 47.0548 19.5209 47.1134 19.4491C44.6102 17.2665 42.0789 15.1069 39.9172 12.5241C37.8371 15.2248 35.2089 17.346 32.7005 19.6364C32.7819 19.681 32.8672 19.718 32.9554 19.7467C35.3032 20.0596 36.5727 21.2035 36.8556 23.635C37.0315 25.1482 37.2202 26.7436 36.4962 28.2106C35.7315 29.7752 34.4849 30.7447 32.7311 30.8601C31.0257 30.9704 29.7767 30.1317 28.9635 28.6595C28.5225 27.8593 28.5199 27.0154 29.1266 26.2844C29.4105 25.9005 29.8034 25.6121 30.2535 25.4574C30.7035 25.3026 31.1897 25.2887 31.6477 25.4175C32.958 25.7638 33.2894 27.3745 32.3156 28.4671C32.2136 28.5825 31.9791 28.6415 32.0607 28.8519C32.1423 29.0622 32.3436 28.9981 32.5093 29.0186C33.6361 29.1468 34.4671 28.6698 34.9132 27.5848C35.525 26.0895 35.4536 24.6224 34.4212 23.3503C33.2613 21.9242 31.6834 21.6882 29.9678 22.0473C28.9686 22.2576 28.1834 22.8476 27.4034 23.4682C25.5196 24.9789 23.8346 26.7256 21.8768 28.1491C19.9599 29.5469 17.9945 30.8345 15.5881 31.2269C14.9519 31.3011 14.3107 31.3217 13.6711 31.2885C13.6023 31.032 13.7756 30.9627 13.926 30.8806C17.7752 28.6826 21.2039 25.9023 24.6325 23.0989C28.1452 20.2186 31.6452 17.3254 34.9846 14.2425C36.4758 12.8652 37.9773 11.4981 39.4354 10.0849C39.8458 9.68733 40.0523 9.62064 40.5009 10.0567C46.9981 16.3088 53.8617 22.1637 61.0547 27.59C62.5892 28.759 64.1959 29.829 65.865 30.7934C66.0256 30.8858 66.2321 30.9371 66.3391 31.2731C64.8144 31.4168 63.2794 31.1439 61.896 30.4831Z" fill="#BE986A"/>
</svg>
