<svg width="150" height="153" viewBox="0 0 150 153" fill="none" xmlns="http://www.w3.org/2000/svg">
<path d="M59.1063 95.9234C58.5862 95.4404 58.1929 95.0686 57.7901 94.7032C55.402 92.5455 52.6302 91.3222 49.389 91.462C45.1741 91.6431 41.6316 93.2796 39.0722 96.7241C37.7656 98.4846 37.6673 100.423 38.6251 102.393C39.2054 103.591 40.1759 104.398 41.5016 104.319C42.9256 104.239 44.3051 103.778 45.0917 102.412C45.362 101.9 45.5962 101.369 45.7925 100.823C46.0431 100.188 46.3824 100.077 46.9057 100.528C48.2314 101.669 48.8911 104.211 48.3297 105.885C47.3783 108.691 45.5103 110.496 42.6465 111.23C37.9432 112.434 32.3075 108.545 31.7779 103.702C30.966 96.2507 35.5202 88.4019 44.1117 86.7146C49.3351 85.6882 54.2603 86.8258 58.2595 90.2481C63.2197 94.4903 66.7939 99.8223 68.3098 106.314C68.7591 108.049 68.7427 109.872 68.2623 111.599C68.1283 111.862 67.9502 112.101 67.7358 112.304C67.5455 112.106 67.39 111.877 67.2759 111.627C65.9566 106.908 63.004 103.683 58.4879 101.85C57.4603 101.433 56.3852 101.141 55.3545 100.737C54.3237 100.334 54.1493 99.6793 54.8185 98.7991C55.6218 97.6773 56.7434 96.8237 58.0375 96.3492C58.3547 96.2443 58.6306 96.114 59.1063 95.9234Z" fill="#1C1B1C"/>
<path d="M147.736 82.8315C147.672 82.644 147.659 82.393 147.529 82.2754C146.026 80.9186 144.602 79.4505 142.972 78.262C138.383 74.9096 133.201 72.984 127.594 72.1324C121.311 71.1791 115.136 71.5509 109.117 73.7593C105.367 75.144 101.893 77.1886 98.8604 79.7968C95.8771 82.2629 93.3492 85.2346 91.3916 88.5767C88.5373 93.5941 87.3734 99.0629 87.0277 104.783C86.7835 108.825 86.5171 118.86 91.2711 126.41C100.652 141.31 112.418 146.006 112.418 146.006C107.763 140.07 105.679 137.703 104.617 133.296C103.094 126.988 106.24 121.386 108.911 118.761C112.165 115.561 120.645 113.515 121.666 113.098C121.422 112.876 121.305 112.692 121.143 112.635C120.1 112.272 119.072 111.78 117.994 111.618C112.177 110.753 105.942 113.95 102.986 119.053C101.15 122.209 100.903 125.568 101.179 129.057C101.306 130.645 101.496 132.26 101.645 133.982C101.429 133.81 101.328 133.734 101.214 133.642C99.2376 131.843 97.6042 129.699 96.393 127.315C95.524 125.596 94.4901 123.785 94.2998 121.935C93.8019 117.236 95.7143 113.404 99.5518 110.633C102.539 108.478 105.996 107.751 109.608 107.598C109.992 107.582 110.373 107.496 110.966 107.414C110.376 106.819 110.033 106.333 109.57 106.028C105.587 103.426 101.293 102.882 96.7387 104.163C96.537 104.206 96.3324 104.235 96.1266 104.249C96.1352 104.176 96.1603 104.107 96.1999 104.046C96.2394 103.985 96.2925 103.933 96.3549 103.896C96.4723 103.817 96.5896 103.744 96.7006 103.664C101.125 100.419 106.441 98.619 111.924 98.5099C114.442 98.4496 116.969 98.7324 119.494 98.8277C119.817 98.8071 120.136 98.7484 120.445 98.6529C120.325 98.3352 120.287 97.9316 120.062 97.7219C119.135 96.8449 118.232 95.9138 117.182 95.2116C112.742 92.2564 107.82 91.2872 102.568 91.7416C102.371 91.7759 102.179 91.8302 101.994 91.9036C102.032 91.5859 102.054 91.5223 102.098 91.5033C102.298 91.4111 102.504 91.3285 102.711 91.2459C108.359 89.0215 114.245 88.2366 120.274 88.5322C124.301 88.7426 128.297 89.3493 132.205 90.3434C132.544 90.4292 132.934 90.3148 133.474 90.2799C132.44 88.5163 131.063 87.4518 129.731 86.3936C125.18 82.7679 119.808 81.5191 114.036 81.2458C114.182 81.1028 114.226 81.0202 114.289 80.998C114.975 80.766 115.653 80.5245 116.345 80.3243C121.381 78.8626 126.538 78.6497 131.72 78.9707C137.073 79.3043 142.297 80.2417 147.082 82.876C147.241 82.9618 147.514 82.8506 147.736 82.8315Z" fill="#1C1B1C"/>
<path d="M90.8969 57.0767C91.4138 57.5597 91.8103 57.9315 92.213 58.297C94.598 60.4546 97.373 61.6811 100.614 61.5381C104.826 61.357 108.372 59.7205 110.931 56.276C112.238 54.5187 112.336 52.5804 111.378 50.6071C110.798 49.4091 109.824 48.6052 108.498 48.6814C107.074 48.764 105.695 49.2216 104.908 50.6039C104.637 51.1156 104.404 51.6466 104.211 52.1927C103.957 52.8282 103.621 52.9395 103.097 52.4882C101.772 51.3506 101.112 48.8054 101.673 47.1307C102.625 44.3249 104.493 42.52 107.357 41.786C112.06 40.5816 117.696 44.4742 118.222 49.317C119.037 56.7685 114.483 64.6141 105.891 66.3014C100.668 67.3278 95.7429 66.1902 91.7437 62.7679C86.7803 58.5257 83.2093 53.1968 81.6933 46.7018C81.2427 44.967 81.2592 43.1436 81.7409 41.4173C81.8202 41.1536 82.0866 40.9471 82.2642 40.7119C82.453 40.9118 82.6093 41.1402 82.7272 41.3888C84.0434 46.1075 86.9992 49.3487 91.5153 51.1695C92.5429 51.5826 93.6148 51.875 94.6487 52.2785C95.6826 52.6821 95.8507 53.3367 95.1815 54.2169C94.379 55.3318 93.2609 56.1798 91.972 56.6509C91.6549 56.759 91.3694 56.8797 90.8969 57.0767Z" fill="#1C1B1C"/>
<path d="M2.26441 70.1685C2.33101 70.3591 2.34053 70.607 2.47056 70.7246C3.97382 72.0814 5.40098 73.5495 7.02793 74.7379C11.617 78.0903 16.815 80.016 22.4095 80.8708C28.6921 81.8241 34.8669 81.4523 40.8831 79.2438C44.6353 77.8611 48.11 75.8164 51.1428 73.2063C54.1252 70.7394 56.653 67.7678 58.6115 64.4265C61.4658 59.4122 62.6266 53.9403 62.9723 48.2364C63.2197 44.1913 63.4829 34.1563 58.7321 26.6094C49.3509 11.6968 37.5848 6.99072 37.5848 6.99072C42.2405 12.9297 44.321 15.2971 45.3866 19.7013C46.9089 26.0121 43.7628 31.611 41.0893 34.2358C37.8386 37.4357 29.3549 39.4821 28.3337 39.9015C28.5811 40.1208 28.6984 40.3051 28.857 40.3623C29.9004 40.7245 30.9311 41.2202 32.0063 41.3791C37.8227 42.2434 44.0578 39.0467 47.0167 33.9434C48.8403 30.823 49.0972 27.4452 48.8403 23.9561C48.7134 22.3673 48.5232 20.7531 48.3709 19.034C48.5898 19.2024 48.7039 19.2786 48.8023 19.3708C50.7698 21.1726 52.3945 23.3174 53.5975 25.7006C54.4633 27.4166 55.5003 29.2278 55.6875 31.0772C56.1854 35.7801 54.273 39.6123 50.4355 42.3801C47.448 44.5345 43.9943 45.2654 40.3821 45.4147C39.9983 45.4306 39.6177 45.5164 39.0215 45.599C39.6114 46.1932 39.9729 46.6826 40.4201 46.9845C44.4034 49.5869 48.6976 50.1335 53.2518 48.8497C53.4527 48.8083 53.6561 48.7796 53.8607 48.7639C53.8521 48.8367 53.8271 48.9066 53.7875 48.9683C53.7479 49.0299 53.6949 49.0818 53.6324 49.1198C53.5182 49.1961 53.4009 49.2692 53.2867 49.3486C48.8628 52.5956 43.5465 54.3955 38.0637 54.5027C35.5456 54.5631 33.018 54.2803 30.4966 54.185C30.174 54.2072 29.8548 54.2659 29.5452 54.3597C29.6689 54.6775 29.707 55.0811 29.929 55.294C30.855 56.1678 31.7589 57.102 32.8118 57.8011C37.2518 60.7563 42.1707 61.7255 47.4227 61.2743C47.6189 61.2378 47.8111 61.1825 47.9967 61.109C47.9586 61.4268 47.9364 61.4904 47.8952 61.5094C47.6922 61.6016 47.4861 61.6842 47.2831 61.7668C41.6316 63.9912 35.7486 64.776 29.7165 64.4805C25.6897 64.2714 21.6933 63.6647 17.7855 62.6693C17.4461 62.5835 17.0592 62.701 16.5169 62.7328C17.554 64.4964 18.9304 65.5609 20.2592 66.6222C24.8229 70.2257 30.1954 71.4967 35.9674 71.7573C35.8247 71.9003 35.7803 71.9829 35.7137 72.0052C35.0318 72.2371 34.35 72.4786 33.6586 72.682C28.6255 74.1405 23.4687 74.3566 18.2866 74.0388C12.9332 73.7211 7.70979 72.7678 2.92408 70.1335C2.76233 70.0382 2.48642 70.1526 2.26441 70.1685Z" fill="#1C1B1C"/>
</svg>
