<svg id="Layer_1" data-name="Layer 1" xmlns="http://www.w3.org/2000/svg" viewBox="0 0 497.13 477.75"><defs><style>.cls-1{fill:#aa5c9d;}</style></defs><path class="cls-1" d="M46.05,186.81c.23-.11,15.35-21,26.44-24.27a4.51,4.51,0,0,0,3.17-2.77c2.94-6.45,5.57-13.1,10.72-18.25,6.42-6.43,14.29-8.76,23.15-7.71,4.65.55,9.25,1.6,13.87,2.46,7.34,1.38,14.31-.22,21.14-2.67,14.54-5.22,28.72-11.27,42-19.18a21.81,21.81,0,0,0,9-9.57c6.57-14.06,23.18-16.39,35.07-5.68a37.16,37.16,0,0,1,9.72,14.76c2.78,7.28,1.17,11.36-5,16.88-1.47,1.32-2,2.22-1.39,4.11,1.63,4.9,1,9.84-.36,14.68a9,9,0,0,1-1.86,3.17c-1.27,1.49-2.44,1.28-3.13-.61-.42-1.17-.7-2.38-1.15-3.54a43.07,43.07,0,0,0-2.26-5.38c-2.73-5-5-5.41-9.67-2,.9,8.44,1.07,16.67-5.87,22.82l-1.18-.11a38.74,38.74,0,0,0-1.33-6,44.69,44.69,0,0,0-3.62-7.26c-.74-1.21-2-1.55-3.4-.4-2.11,1.76-4.43,3.28-6.5,5.08a3.22,3.22,0,0,0-.64,2.46c.67,5.9.62,11.71-1.93,17.24-.71,1.53-1.4,3.17-3.19,2.81l-6.36-13.78c-3.21,2.59-6,4.72-8.64,7.05-.49.43-.46,1.61-.44,2.45.14,5.32.69,10.71-1.68,15.73a31.85,31.85,0,0,1-3,4.34l-.87-.24-5-13.12c-3.44,2.56-6.48,4.77-9.46,7.06-6.48,5-12.81,10.14-20.44,13.38-6.65,2.82-13.56,2.61-20.47,1.88-15.22-1.61-27.2,3.79-35.93,16.66,1.93-.69,3.91-1.29,5.8-2.09,7-3,14.18-5.34,22-5.85,8.82-.59,16.47,1.64,23.17,7.35,5.62,4.78,11.19,9.63,18,12.73a32.77,32.77,0,0,0,14.26,3.32c-12.36-6.52-22.16-15.85-30.75-26.79,7.19-1.74,13.33.41,19.19,4.17a117.3,117.3,0,0,0,11.9,7c3.35,1.64,3.81,1.3,5.27-2.23a71.43,71.43,0,0,0,2.27-7.33c.32-1.07.54-2.17.94-3.79,6.6,4.72,6.77,11.44,7.43,18.25,2.89.39,5.85.88,8.82,1.1.54,0,1.46-.9,1.7-1.57,1.24-3.5,2.48-7,3.4-10.61.47-1.83,1.52-2.17,2.55-1.19a17.88,17.88,0,0,1,4.28,5.52c1.12,2.63,1.44,5.61,2.18,8.76,2.58,0,5.33.11,8.05-.08.66,0,1.58-1,1.81-1.76,1.25-4.14,2.34-8.33,3.57-12.83,7.15,2.4,6.88,9.32,9,14.79a4.45,4.45,0,0,0,4.88-2.87c1.37-2.93,2.2-6.11,3.31-9.17.34-.93.83-1.81,1.26-2.71.95.57,2.21.92,2.82,1.74,2.53,3.41,2.38,7.49,2.6,11.48,0,.69.43,1.75,1,2,6.78,2.86,6.95,8.67,4.36,14.29-3.53,7.65-10.21,11.72-18,13.73a57.42,57.42,0,0,1-12.87,1.69c-9.87.23-19.76-.27-29.62.14-10.26.43-20,3.07-28.28,9.57-10.9,8.5-12.29,16.77-5.7,29.16a40.94,40.94,0,0,0,7,9c3.21,3.31,6.88,6.17,10.31,9.28s6.77,6.23,9.87,9.09c-1.19-5.51-2.6-11.3-3.67-17.16-2.45-13.51,7.09-27,20.34-29.07,13.44-2.06,26.45,7.83,28.3,21.49,1,7.44-3.42,14.86-10,16.51a11.32,11.32,0,0,1-5,.1A3.88,3.88,0,0,1,201,312c-.2-.56.61-1.84,1.29-2.29,5.32-3.54,5.16-10-.41-13.26-5.26-3.05-11.47-1-14,4.71-2.61,5.91-2.4,12.11-1.36,18.32,1.79,10.67,4,21.28,5.36,32,1.38,11.16-.5,22.12-4.19,32.74q-4.5,12.94-9.08,25.86c-.73,2.06-1.75,4.06-4.38,4a4.55,4.55,0,0,1-4.46-4.24,71.46,71.46,0,0,1-.72-11.59c.29-9.5,1.05-19-2.07-28.25-3.32-9.86-9.77-16.73-19-21.17-9.59-4.6-19.85-7-30.16-9.25-11.88-2.62-19.34-11.65-30-17.85C79.73,317,70,305.55,61.09,293,52.52,282.24,4.26,239.43,46.05,186.81Zm55.81-27.29c2.58-3.75,6.28-4.8,10.55-3.78,3.87.92,10.4-3.47,6.37-4.78-3.35-1.08-6.7-2.66-10.13-2.89-8.6-.57-13.55,4.75-16.75,12C89.18,166.23,99.5,163,101.86,159.52ZM82.12,265.16c-.65-.71-1-1.17-1.4-1.54-4.33-3.81-9-7.31-12.93-11.46C57.49,241.35,55,228.6,59.52,214.47a73.9,73.9,0,0,1,3.4-7.54c-11.49,7.9-14.77,25.27-9.12,37.75C59.76,257.83,74.76,266.73,82.12,265.16Zm95.33,91c-5.27-18.91-23.89-34.37-41.38-34.45C152.87,330.06,167.14,340.77,177.45,356.18ZM86,286.47c2.76,21.18,20.52,32.1,34.25,29.67C105.26,310.78,94.12,300.9,86,286.47ZM96.12,264.8c9.33,12.35,32.74,13.16,45.07,1.43C125.84,271,111.1,271.25,96.12,264.8ZM224.56,111a10,10,0,0,0-.92-1.84c-2.65-3.22-8.62-5-12.58-3.76-3.14,1-5.52,3-6.41,6.16a4.54,4.54,0,0,0,.72,3.8c.57.53,2.48-.09,3.68-.53,2.77-1,5.39-2.5,8.22-3.27C219.44,111,221.82,111.16,224.56,111ZM113.66,290.5c6.44,10.39,16.09,14.65,23.27,10.22C128.12,299.41,120.75,295.34,113.66,290.5Z"/><path class="cls-1" d="M435.82,293c-9,12.6-18.65,24.05-26.76,28.78-10.64,6.2-18.1,15.23-30,17.85-10.31,2.27-20.57,4.65-30.16,9.25-9.25,4.44-15.7,11.31-19,21.17-3.12,9.28-2.35,18.75-2.07,28.25a70.35,70.35,0,0,1-.72,11.59,4.54,4.54,0,0,1-4.46,4.24c-2.63.1-3.65-1.9-4.38-4q-4.59-12.92-9.08-25.86c-3.69-10.62-5.57-21.58-4.19-32.74,1.33-10.73,3.58-21.34,5.36-32,1-6.21,1.25-12.41-1.36-18.32-2.54-5.74-8.75-7.76-14-4.71-5.57,3.23-5.73,9.72-.41,13.26.68.45,1.49,1.73,1.29,2.29a3.88,3.88,0,0,1-2.23,2.32,11.32,11.32,0,0,1-5-.1c-6.6-1.65-11-9.07-10-16.51,1.85-13.66,14.87-23.55,28.3-21.49,13.25,2,22.79,15.56,20.34,29.07-1.07,5.86-2.48,11.65-3.67,17.16,3.1-2.86,6.46-6,9.87-9.09s7.1-6,10.32-9.28a41.19,41.19,0,0,0,7-9c6.59-12.39,5.2-20.66-5.7-29.16-8.32-6.5-18-9.14-28.28-9.57-9.86-.41-19.75.09-29.62-.14a57.42,57.42,0,0,1-12.87-1.69c-7.84-2-14.52-6.08-18.05-13.73-2.59-5.62-2.42-11.43,4.36-14.29.52-.22.92-1.28.95-2,.22-4,.07-8.07,2.6-11.48.61-.82,1.87-1.17,2.83-1.74.42.9.91,1.78,1.25,2.71,1.11,3.06,1.94,6.24,3.31,9.17a4.45,4.45,0,0,0,4.88,2.87c2.14-5.47,1.86-12.39,9-14.79,1.23,4.5,2.32,8.69,3.58,12.83a2.8,2.8,0,0,0,1.8,1.76c2.72.19,5.47.08,8.05.08.74-3.15,1.06-6.13,2.18-8.76a18,18,0,0,1,4.28-5.52c1-1,2.08-.64,2.55,1.19.92,3.59,2.16,7.11,3.4,10.61.24.67,1.16,1.61,1.7,1.57,3-.22,5.93-.71,8.82-1.1.66-6.81.83-13.53,7.43-18.25.4,1.62.63,2.72.94,3.79a74,74,0,0,0,2.27,7.33c1.46,3.53,1.92,3.87,5.28,2.23a118.26,118.26,0,0,0,11.89-7c5.86-3.76,12-5.91,19.19-4.17-8.59,10.94-18.39,20.27-30.75,26.79a32.77,32.77,0,0,0,14.26-3.32c6.8-3.1,12.37-8,18-12.73,6.7-5.71,14.35-7.94,23.17-7.35,7.79.51,14.93,2.85,22,5.85,1.89.8,3.87,1.4,5.8,2.09-8.73-12.87-20.71-18.27-35.93-16.66-6.91.73-13.82.94-20.47-1.88-7.63-3.24-14-8.41-20.44-13.38-3-2.29-6-4.5-9.46-7.06l-5,13.12-.87.24a31.85,31.85,0,0,1-3-4.34c-2.37-5-1.82-10.41-1.68-15.73,0-.84.05-2-.44-2.45-2.63-2.33-5.42-4.46-8.64-7.05L309,177.88c-1.79.36-2.48-1.28-3.19-2.81-2.55-5.53-2.6-11.34-1.93-17.24a3.22,3.22,0,0,0-.64-2.46c-2.07-1.8-4.39-3.32-6.5-5.08-1.39-1.15-2.66-.81-3.39.4a43.94,43.94,0,0,0-3.63,7.26,38.74,38.74,0,0,0-1.33,6l-1.18.11c-6.94-6.15-6.77-14.38-5.86-22.82-4.68-3.44-7-3-9.68,2a44.62,44.62,0,0,0-2.26,5.38c-.44,1.16-.73,2.37-1.15,3.54-.69,1.89-1.86,2.1-3.13.61a9,9,0,0,1-1.86-3.17c-1.38-4.84-2-9.78-.36-14.68.62-1.89.08-2.79-1.39-4.11-6.14-5.52-7.75-9.6-5-16.88a37.07,37.07,0,0,1,9.73-14.76c11.88-10.71,28.49-8.38,35.06,5.68a21.81,21.81,0,0,0,9,9.57c13.32,7.91,27.5,14,42,19.18,6.83,2.45,13.81,4.05,21.14,2.67,4.62-.86,9.22-1.91,13.88-2.46,8.85-1.05,16.72,1.28,23.14,7.71,5.15,5.15,7.78,11.8,10.72,18.25a4.53,4.53,0,0,0,3.17,2.77c11.09,3.3,26.21,24.16,26.44,24.27C492.64,239.43,444.38,282.24,435.82,293ZM405,160.06c-3.19-7.24-8.15-12.56-16.75-12-3.43.23-6.78,1.81-10.13,2.89-4,1.31,2.51,5.7,6.38,4.78,4.26-1,8,0,10.54,3.78C397.4,163,407.72,166.23,405,160.06Zm38.1,84.62c5.65-12.48,2.38-29.85-9.12-37.75a73.9,73.9,0,0,1,3.4,7.54c4.54,14.13,2,26.88-8.27,37.69-4,4.15-8.6,7.65-12.93,11.46-.41.37-.75.83-1.4,1.54C422.14,266.73,437.14,257.83,443.1,244.68Zm-82.27,77.05c-17.49.08-36.1,15.54-41.38,34.45C329.76,340.77,344,330.06,360.83,321.73Zm15.81-5.59c13.73,2.43,31.49-8.49,34.25-29.67C402.78,300.9,391.64,310.78,376.64,316.14Zm-20.93-49.91C368,278,391.45,277.15,400.78,264.8,385.81,271.25,371.06,271,355.71,266.23ZM279.63,111.54c2.83.77,5.45,2.26,8.22,3.27,1.2.44,3.11,1.06,3.68.53a4.51,4.51,0,0,0,.72-3.8,9,9,0,0,0-6.4-6.16c-4-1.26-9.94.54-12.59,3.76a10,10,0,0,0-.92,1.84C275.08,111.16,277.46,111,279.63,111.54ZM360,300.72c7.18,4.43,16.83.17,23.27-10.22C376.15,295.34,368.78,299.41,360,300.72Z"/><path class="cls-1" d="M71.47,376.86c-2.44-3.34-4.62-6-6.42-8.86-3.07-4.95-4.64-10.31-3.61-16.24,1.41-8.09,8.81-13.8,16.73-12.54a11.8,11.8,0,0,1,5.12,2.5,3,3,0,0,1,.28,4.71c-6.36,6.09-5.37,13.12-1.93,19.8,2.68,5.23,6.42,10,10.14,14.6,4.51,5.58,9.49,10.78,14.33,16.22-1-3.31-2.15-6.58-3.08-9.9-2.06-7.35-1.89-14.58,1.7-21.48,7.31-14.05,24.08-14.63,34.71-5.25,6.23,5.49,9.33,12.26,6.77,20.71a10.36,10.36,0,0,1-8.28,7.42,3.94,3.94,0,0,1-3.17-1.16,3.38,3.38,0,0,1-.12-3.06c2.07-3.64,2.17-5.38,0-7.61a7.4,7.4,0,0,0-8.82-1c-4.68,2.89-5.94,7.63-6.18,12.6-.59,12,4,22.26,12.1,30.87,3.86,4.13,8.49,7.54,12.78,11.25a9.21,9.21,0,0,0,1.54.78c-1.83-2.54-3.44-4.51-4.75-6.66-4.91-8.06-3.56-17.44,3.24-22.52,3.4-2.55,7.14-3.53,11.21-1.55,1.94.94,3,2.46,1.84,4.51-2.73,4.72-1.86,9.4-.2,14.11,3.38,9.62,10.65,15.76,18.95,20.9a62,62,0,0,0,27,9.12c.62.06,1.4-.08,1.82.25,1.11.83,2.66,1.74,2.91,2.87.2.92-1,2.81-2,3.2a47.44,47.44,0,0,1-10.59,3.18c-10.24,1.41-19.83-1.52-29.31-5.05-8-3-16.23-5.55-24.89-4.89-3.49.27-7,1.73-10.23,3.18-1.42.63-2.55,2.44-3.29,4-1.67,3.47-.52,6.11,3,7.77,2.72,1.27,2.85,2.53.33,4.28-4.57,3.17-9.44,2.81-14.18.61a14.06,14.06,0,0,1-8.48-12.32,16.32,16.32,0,0,1,10.61-17.06c3.54-1.4,7.39-2,11.14-3-9.47-6-18.89-12.47-30.57-14.11-4.51-.63-8.9-.23-12.62,2.82-2.69,2.2-4,5-3.14,8.48.78,3.06,3,4.38,7.17,4.72.76.07,1.51.29,2.47.48-.56,3.17-2.67,4.79-4.94,6.14-4.91,2.9-11.16,2.15-16.2-1.78-8-6.2-10.36-18.23-5.55-27.82a21.06,21.06,0,0,1,24.9-11l1.5.4.34-.59c-3.94-2.47-7.77-5.17-11.87-7.38-10-5.38-20.63-8.09-32-6.64-7.74,1-14.29,4.24-18.66,11-3,4.62-3.07,9.55-.56,14.43a7.33,7.33,0,0,0,8.69,4c2.9-.66,4.47-2.89,4.79-6.82.21-2.47,1.31-3.21,3.75-2.5,4.3,1.25,7.54,7.55,6.54,12.72-1.93,9.93-12.48,16.58-23.1,15.07-13.88-2-23-14.12-24-27.38C5.61,391.67,17.33,377.75,36,376c1.59-.15,3.17-.39,5.2-.65-3.14-1.71-6-3.18-8.78-4.79-7-4.06-14-8.23-18.78-15-5.93-8.44-8-17.69-4-27.43,6.51-15.57,23.83-13.55,30.87-4.63,3.15,4,4.38,8.5,2.4,13.45a8,8,0,0,1-1.88,2.54c-1,1-2,1-2.85-.33-2.16-3.16-3.95-4-6.38-3.19s-4.19,4.18-3.91,7.52c.35,4.32,2.66,7.67,5.45,10.72,5.72,6.26,12.79,10.7,20.28,14.47C59.32,371.44,65.16,373.94,71.47,376.86Z"/><path class="cls-1" d="M402.78,404.4c5.51-1.41,10.93-1.89,16.2.49,8.54,3.86,12.87,10.77,13.24,19.94.34,8.63-3,15.66-10.88,19.87-4.67,2.5-9.63,2.67-14.16-.38-1.78-1.2-3-3.16-4.53-4.77l.5-1a31,31,0,0,1,3.17-.57c6.13-.43,8.85-5.91,5.44-11-2.18-3.28-5.41-4.76-9.2-5.12-7.18-.67-13.71,1.69-19.9,4.83-5.59,2.84-10.87,6.29-16.58,9.64a77.14,77.14,0,0,1,8.76,1.22c10.29,2.71,15.92,11.91,13.33,21.45s-15.2,14.3-22.77,8.8c-2.39-1.74-2.43-3.21.2-4.12,3.79-1.3,5.12-5,2.44-9.42-2.44-4-6.42-5.38-10.86-5.7-9.2-.68-17.68,2.28-26.15,5.24-7.22,2.52-14.49,4.76-22.2,5.13a37.19,37.19,0,0,1-16.45-2.47c-1.86-.77-4.15-1.56-3.69-4.18s2.69-2.88,4.92-3.15c16.75-2.09,31.28-8.5,41.81-22.22,4-5.26,6.49-11.21,5.3-18.09a12.06,12.06,0,0,0-1.16-3.22c-1.22-2.39-.75-4.45,1.81-5.25a12.13,12.13,0,0,1,6.19-.46,14.61,14.61,0,0,1,10.23,18.55c-1.54,4.57-4.35,8.7-6.73,13.32,4.71-4.17,9.66-8,14-12.5a41.82,41.82,0,0,0,12.26-26.78c.35-5,0-9.78-3-14-2.77-4-7.63-5.09-11.17-2.61-2.89,2-3.42,4.72-1.89,7.93.53,1.13,1,3.3.43,3.72a5.2,5.2,0,0,1-4,.63c-6-1.54-8.41-9.3-7.68-14.28,1.65-11.26,12.65-20.1,24.29-19.72,10.92.35,19.86,9.39,21,21,.68,7.06-1.45,13.49-4,19.86a10.21,10.21,0,0,0-.9,2.83c1.38-1.64,2.77-3.26,4.13-4.91,5.95-7.18,12-14.27,17.8-21.6A23.92,23.92,0,0,0,417.57,356a12.25,12.25,0,0,0-3.67-9.1c-2.23-2.19-2.09-4,.35-6,2.82-2.32,6.14-2.31,9.38-1.53,8.63,2.08,13.43,10.69,11.32,20-1.33,5.89-4.42,10.8-8.42,15.2a2.29,2.29,0,0,0-.7,1.64c4.59-2,9.23-3.88,13.76-6,9.15-4.27,17.68-9.49,24.57-17,2.95-3.23,5.16-6.81,4.66-11.46-.31-3-2-5.34-4.28-5.86a4.59,4.59,0,0,0-5.3,2.08c-.59.91-1.88,2.23-2.52,2.06a4.76,4.76,0,0,1-2.7-2.49c-2.67-5.95.09-13.42,6.29-17.57,11.77-7.86,26-1.33,28.22,13,1.68,10.6-1.73,19.4-9.38,26.71-6.43,6.14-14.2,10.31-21.88,14.58-.44.24-.86.5-1.39.81,4.13.81,8.18,1.23,12,2.42,22.48,7,25.64,30.11,18.61,44.92-4.67,9.85-12.67,15.38-23.87,15.41-9.67,0-18-6.48-19.73-15.13-.89-4.5,1.29-10,4.86-12.16,3-1.87,4.69-1.11,5.06,2.34a7.28,7.28,0,0,0,4.67,6.25,7.17,7.17,0,0,0,7.79-2.72c4-5.08,3.38-13.28-1.56-18.59-6-6.48-13.88-8.31-22.28-8.31-13,0-24.38,4.84-34.83,12.22Z"/></svg>