<svg id="Layer_1" data-name="Layer 1" xmlns="http://www.w3.org/2000/svg" viewBox="0 0 360 437.69"><defs><style>.cls-1{fill:#9ac552;}</style></defs><path class="cls-1" d="M76.1,108.48c-4,14.84-.42,28.36,7.77,40.8,7.79,11.81,18.62,20.78,29.11,30.07,7.47,6.61,15.87,12.09,23,19.16.82.82,1.77,2.22,3.26,1,1.65-1.34,1.36-3.05.54-4.68a109.91,109.91,0,0,0-8.85-14.73C122,167.73,113.42,155.21,107.7,141c-2.36-5.88-4.19-11.88-4.07-18.28,0-1.13-.06-2.87,1.58-3.12,1.4-.21,1.78,1.24,2.17,2.27,2.2,5.91,6.61,9.12,12.73,9.16,7.09.05,13.94-1.53,17.67-8.42,8.86-16.37-2.75-35.2-17.6-39.7C100.42,76.9,80.72,91.27,76.1,108.48Z"/><path class="cls-1" d="M9.41,164.28c4.92-22.29,27.42-32.71,46.45-30.57a115.24,115.24,0,0,1,33,10.18h0c9.64,5.55,18.92,11.62,26.84,19.54,13,13,25,26.81,32.47,43.94a30,30,0,0,1,2.81,9.41c.1,1.26-.24,2.63-1.88,3s-2.32-.42-2.84-1.86a17,17,0,0,0-2-3.78c-16.69-23.71-37.83-41.22-66.85-47.5a92.93,92.93,0,0,0-14.89-1.73c-2.6-.13-5.29.47-3.63,4.53,2.73,6.64,1.88,13.53.42,20.25-1.51,7-6.2,11.11-13,12.76C27,207.05,3.85,189.49,9.41,164.28Z"/><path class="cls-1" d="M283.9,108.48c4,14.84.42,28.36-7.77,40.8-7.79,11.81-18.62,20.78-29.11,30.07-7.47,6.61-15.87,12.09-23,19.16-.82.82-1.77,2.22-3.26,1-1.65-1.34-1.36-3.05-.54-4.68a109.91,109.91,0,0,1,8.85-14.73c8.86-12.38,17.46-24.9,23.18-39.13,2.36-5.88,4.19-11.88,4.07-18.28,0-1.13.06-2.87-1.58-3.12-1.4-.21-1.78,1.24-2.17,2.27-2.2,5.91-6.61,9.12-12.73,9.16-7.09.05-13.94-1.53-17.67-8.42-8.86-16.37,2.75-35.2,17.6-39.7C259.58,76.9,279.28,91.27,283.9,108.48Z"/><path class="cls-1" d="M350.59,164.28c-4.92-22.29-27.42-32.71-46.45-30.57a115.24,115.24,0,0,0-33,10.18h0c-9.64,5.55-18.92,11.62-26.84,19.54-13,13-25,26.81-32.47,43.94a30,30,0,0,0-2.81,9.41c-.1,1.26.24,2.63,1.88,3s2.32-.42,2.84-1.86a17,17,0,0,1,2-3.78c16.69-23.71,37.83-41.22,66.85-47.5a92.93,92.93,0,0,1,14.89-1.73c2.6-.13,5.29.47,3.63,4.53-2.73,6.64-1.88,13.53-.42,20.25,1.51,7,6.2,11.11,13.05,12.76C333,207.05,356.15,189.49,350.59,164.28Z"/><path class="cls-1" d="M76.1,329.05c-4-14.85-.42-28.37,7.77-40.81,7.79-11.81,18.62-20.78,29.11-30.07,7.47-6.61,15.87-12.08,23-19.16.82-.82,1.77-2.21,3.26-1,1.65,1.34,1.36,3.05.54,4.68a109.39,109.39,0,0,1-8.85,14.74c-8.86,12.37-17.46,24.89-23.18,39.12-2.36,5.88-4.19,11.88-4.07,18.28,0,1.13-.06,2.88,1.58,3.12,1.4.21,1.78-1.23,2.17-2.27,2.2-5.91,6.61-9.12,12.73-9.16,7.09-.05,13.94,1.53,17.67,8.42,8.86,16.37-2.75,35.2-17.6,39.7C100.42,360.62,80.72,346.25,76.1,329.05Z"/><path class="cls-1" d="M9.41,273.25c4.92,22.28,27.42,32.7,46.45,30.56a114.92,114.92,0,0,0,33-10.18h0c9.64-5.55,18.92-11.62,26.84-19.54,13-13,25-26.81,32.47-43.94a29.9,29.9,0,0,0,2.81-9.41c.1-1.26-.24-2.63-1.88-3s-2.32.43-2.84,1.86a17.26,17.26,0,0,1-2,3.79c-16.69,23.7-37.83,41.21-66.85,47.49a92.93,92.93,0,0,1-14.89,1.73c-2.6.14-5.29-.47-3.63-4.53,2.73-6.64,1.88-13.53.42-20.25-1.51-6.94-6.2-11.11-13-12.76C27,230.47,3.85,248,9.41,273.25Z"/><path class="cls-1" d="M283.9,329.05c4-14.85.42-28.37-7.77-40.81-7.79-11.81-18.62-20.78-29.11-30.07-7.47-6.61-15.87-12.08-23-19.16-.82-.82-1.77-2.21-3.26-1-1.65,1.34-1.36,3.05-.54,4.68a109.39,109.39,0,0,0,8.85,14.74c8.86,12.37,17.46,24.89,23.18,39.12,2.36,5.88,4.19,11.88,4.07,18.28,0,1.13.06,2.88-1.58,3.12-1.4.21-1.78-1.23-2.17-2.27-2.2-5.91-6.61-9.12-12.73-9.16-7.09-.05-13.94,1.53-17.67,8.42-8.86,16.37,2.75,35.2,17.6,39.7C259.58,360.62,279.28,346.25,283.9,329.05Z"/><path class="cls-1" d="M350.59,273.25c-4.92,22.28-27.42,32.7-46.45,30.56a114.92,114.92,0,0,1-33-10.18h0c-9.64-5.55-18.92-11.62-26.84-19.54-13-13-25-26.81-32.47-43.94a29.9,29.9,0,0,1-2.81-9.41c-.1-1.26.24-2.63,1.88-3s2.32.43,2.84,1.86a17.26,17.26,0,0,0,2,3.79c16.69,23.7,37.83,41.21,66.85,47.49a92.93,92.93,0,0,0,14.89,1.73c2.6.14,5.29-.47,3.63-4.53-2.73-6.64-1.88-13.53-.42-20.25,1.51-6.94,6.2-11.11,13.05-12.76C333,230.47,356.15,248,350.59,273.25Z"/><path class="cls-1" d="M192.76,222.85c-.16.44-.54.61-.9.81a43.5,43.5,0,0,0-8.21,5.77c-1.29,1.2-2.51,2.47-3.76,3.71-.91.91-1.07.94-2,0a80.15,80.15,0,0,0-6.08-5.72,34.21,34.21,0,0,0-5.53-3.78c-1.14-.61-1.16-.93,0-1.55a42.18,42.18,0,0,0,7.63-5.28,34.65,34.65,0,0,0,4.27-4.12c.56-.68,1-.7,1.63-.05a54.44,54.44,0,0,0,12,9.3A2,2,0,0,1,192.76,222.85Z"/><path class="cls-1" d="M192.76,65.52c-.16.44-.54.6-.9.81a43.5,43.5,0,0,0-8.21,5.77c-1.29,1.2-2.51,2.46-3.76,3.71-.91.91-1.07.94-2,0a78.19,78.19,0,0,0-6.08-5.72,34.92,34.92,0,0,0-5.53-3.79c-1.14-.6-1.16-.92,0-1.54a42.18,42.18,0,0,0,7.63-5.28,34.65,34.65,0,0,0,4.27-4.12c.56-.68,1-.7,1.63,0a54.44,54.44,0,0,0,12,9.3A2,2,0,0,1,192.76,65.52Z"/><path class="cls-1" d="M192.76,372.09c-.16.44-.54.6-.9.8a43.1,43.1,0,0,0-8.21,5.78c-1.29,1.19-2.51,2.46-3.76,3.7-.91.92-1.07.95-2,0a78.32,78.32,0,0,0-6.08-5.73,34.86,34.86,0,0,0-5.53-3.78c-1.14-.6-1.16-.93,0-1.55a42.64,42.64,0,0,0,7.63-5.27,34.65,34.65,0,0,0,4.27-4.12c.56-.69,1-.7,1.63-.06a54.44,54.44,0,0,0,12,9.3A2,2,0,0,1,192.76,372.09Z"/></svg>