<svg width="85" height="103" viewBox="0 0 85 103" fill="none" xmlns="http://www.w3.org/2000/svg">
<path d="M17.9681 25.5282C17.0237 29.0204 17.8689 32.2021 19.8027 35.1295C21.642 37.9087 24.1991 40.0196 26.6759 42.2058C28.4396 43.7613 30.423 45.0509 32.1064 46.7146C32.3001 46.9076 32.5244 47.2371 32.8762 46.95C33.2657 46.6346 33.1973 46.2322 33.0037 45.8486C32.399 44.6406 31.7003 43.4816 30.9141 42.3823C28.8056 39.4713 26.7798 36.525 25.4292 33.181C24.872 31.7973 24.4399 30.3853 24.4682 28.8793C24.4682 28.6133 24.4541 28.2039 24.8413 28.145C25.1719 28.0956 25.2616 28.4368 25.3537 28.6792C25.8731 30.07 26.9144 30.8254 28.3594 30.8348C30.0334 30.8466 31.6507 30.4748 32.5314 28.8534C34.6234 25.0011 31.8821 20.5699 28.3759 19.5109C23.7103 18.0966 19.0589 21.4782 17.9681 25.5282Z" fill="#233565"/>
<path d="M2.22174 38.6594C3.3834 33.414 8.6959 30.9619 13.1891 31.4655C15.8923 31.8694 18.519 32.677 20.9808 33.8611C23.2569 35.1672 25.448 36.5956 27.318 38.4594C30.3874 41.5186 33.2208 44.7685 34.9845 48.7996C35.3262 49.4964 35.5504 50.2446 35.648 51.0141C35.6716 51.3106 35.5913 51.633 35.2041 51.72C34.8169 51.8071 34.6563 51.6212 34.5335 51.2823C34.4143 50.9672 34.2557 50.6683 34.0613 50.3928C30.1206 44.8132 25.1292 40.6926 18.2773 39.2148C17.1183 38.9849 15.9426 38.8488 14.7616 38.8077C14.1477 38.7771 13.5126 38.9183 13.9045 39.8737C14.5491 41.4363 14.3484 43.0577 14.0037 44.6391C13.6472 46.2863 12.5398 47.2535 10.9342 47.6418C6.37493 48.7243 0.908959 44.592 2.22174 38.6594Z" fill="#233565"/>
<path d="M67.0319 25.5282C67.9763 29.0204 67.1311 32.2021 65.1973 35.1295C63.358 37.9087 60.8009 40.0196 58.3241 42.2058C56.5604 43.7613 54.577 45.0509 52.8936 46.7146C52.7 46.9076 52.4757 47.2371 52.1238 46.95C51.7343 46.6346 51.8027 46.2322 51.9963 45.8486C52.601 44.6406 53.2997 43.4816 54.0859 42.3823C56.1779 39.4689 58.2084 36.5227 59.559 33.174C60.1162 31.7902 60.5483 30.3783 60.52 28.8722C60.52 28.6063 60.5341 28.1968 60.1469 28.138C59.8163 28.0886 59.7266 28.4298 59.6345 28.6722C59.1151 30.0629 58.0738 30.8183 56.6288 30.8278C54.9548 30.8395 53.3375 30.4677 52.4568 28.8463C50.3648 24.994 53.1061 20.5628 56.6123 19.5038C61.2897 18.0966 65.9411 21.4782 67.0319 25.5282Z" fill="#233565"/>
<path d="M82.7782 38.6594C81.6165 33.414 76.304 30.9619 71.8108 31.4655C69.1076 31.8694 66.4809 32.677 64.0191 33.8611C61.743 35.1672 59.5519 36.5956 57.6819 38.4594C54.6125 41.5186 51.7791 44.7685 50.0154 48.7996C49.6737 49.4964 49.4495 50.2446 49.3519 51.0141C49.3283 51.3106 49.4086 51.633 49.7958 51.72C50.183 51.8071 50.3436 51.6212 50.4664 51.2823C50.5856 50.9672 50.7442 50.6683 50.9386 50.3928C54.8793 44.8132 59.8707 40.6926 66.7226 39.2148C67.8816 38.9849 69.0573 38.8488 70.2383 38.8077C70.8522 38.7771 71.4873 38.9183 71.0954 39.8737C70.4508 41.4363 70.6515 43.0577 70.9962 44.6391C71.3527 46.2863 72.4601 47.2535 74.0775 47.6418C78.625 48.7243 84.0909 44.592 82.7782 38.6594Z" fill="#233565"/>
<path d="M17.9681 77.4341C17.0237 73.9395 17.8689 70.7579 19.8027 67.8305C21.642 65.0513 24.1991 62.9404 26.6759 60.7542C28.4396 59.1987 30.423 57.9115 32.1064 56.2454C32.3001 56.0524 32.5244 55.7253 32.8762 56.01C33.2658 56.3254 33.1973 56.7278 33.0037 57.1114C32.3995 58.3204 31.7008 59.4803 30.9141 60.5801C28.8221 63.4911 26.7916 66.4373 25.441 69.786C24.8838 71.1698 24.4517 72.5817 24.4801 74.0878C24.4801 74.3537 24.4659 74.7655 24.8531 74.822C25.1837 74.8714 25.2734 74.5326 25.3655 74.2878C25.8849 72.8971 26.9262 72.1417 28.3712 72.1322C30.0452 72.1205 31.6626 72.4923 32.5433 74.1137C34.6352 77.966 31.8939 82.3972 28.3877 83.4562C23.7103 84.8634 19.0589 81.4818 17.9681 77.4341Z" fill="#233565"/>
<path d="M2.22174 64.3029C3.3834 69.546 8.6959 71.9981 13.1891 71.4945C15.8926 71.0917 18.5194 70.284 20.9808 69.0989C23.2569 67.7928 25.448 66.3644 27.318 64.5006C30.3874 61.4414 33.2208 58.1915 34.9845 54.1604C35.3266 53.4637 35.5508 52.7155 35.648 51.9459C35.6716 51.6494 35.5913 51.327 35.2041 51.24C34.8169 51.1529 34.6563 51.3412 34.5335 51.6777C34.4139 51.9934 34.2553 52.293 34.0613 52.5696C30.1206 58.1468 25.1292 62.2674 18.2773 63.7452C17.1183 63.975 15.9426 64.1112 14.7616 64.1523C14.1477 64.1853 13.5126 64.0417 13.9045 63.0863C14.5491 61.5237 14.3484 59.9023 14.0037 58.3209C13.6472 56.6878 12.5398 55.7065 10.9342 55.3182C6.37493 54.2357 0.908959 58.3609 2.22174 64.3029Z" fill="#233565"/>
<path d="M67.0319 77.4341C67.9763 73.9395 67.1311 70.7579 65.1973 67.8305C63.358 65.0513 60.8009 62.9404 58.3241 60.7542C56.5604 59.1987 54.577 57.9115 52.8936 56.2454C52.7 56.0524 52.4757 55.7253 52.1238 56.01C51.7343 56.3254 51.8027 56.7278 51.9963 57.1114C52.6005 58.3204 53.2992 59.4803 54.0859 60.5801C56.1779 63.4911 58.2084 66.4373 59.559 69.786C60.1162 71.1698 60.5483 72.5817 60.52 74.0878C60.52 74.3537 60.5341 74.7655 60.1469 74.822C59.8163 74.8714 59.7266 74.5326 59.6345 74.2878C59.1151 72.8971 58.0738 72.1417 56.6288 72.1322C54.9548 72.1205 53.3375 72.4923 52.4568 74.1137C50.3648 77.966 53.1061 82.3972 56.6123 83.4562C61.2897 84.8634 65.9411 81.4818 67.0319 77.4341Z" fill="#233565"/>
<path d="M82.7782 64.3029C81.6165 69.546 76.304 71.9981 71.8108 71.4945C69.1073 71.0917 66.4805 70.284 64.0191 69.0989C61.743 67.7928 59.5519 66.3644 57.6819 64.5006C54.6125 61.4414 51.7791 58.1915 50.0154 54.1604C49.6733 53.4637 49.4491 52.7155 49.3519 51.9459C49.3283 51.6494 49.4086 51.327 49.7958 51.24C50.183 51.1529 50.3436 51.3412 50.4664 51.6777C50.586 51.9934 50.7446 52.293 50.9386 52.5696C54.8793 58.1468 59.8707 62.2674 66.7226 63.7452C67.8816 63.975 69.0573 64.1112 70.2383 64.1523C70.8522 64.1853 71.4873 64.0417 71.0954 63.0863C70.4508 61.5237 70.6515 59.9023 70.9962 58.3209C71.3527 56.6878 72.4601 55.7065 74.0775 55.3182C78.625 54.2357 84.0909 58.3609 82.7782 64.3029Z" fill="#233565"/>
<path d="M45.5128 52.4425C45.475 52.546 45.3853 52.586 45.3003 52.6331C44.6037 53.0097 43.9532 53.4653 43.3618 53.9909C43.0572 54.2733 42.7691 54.5722 42.474 54.864C42.2591 55.0781 42.2214 55.0852 42.0018 54.864C41.5471 54.3908 41.0679 53.9415 40.5662 53.5179C40.1612 53.1796 39.7239 52.8816 39.2605 52.6284C38.9914 52.4848 38.9866 52.4095 39.2605 52.2636C39.9051 51.9168 40.5092 51.5001 41.0621 51.0211C41.4253 50.7273 41.7626 50.4029 42.0703 50.0516C42.2025 49.8915 42.3064 49.8868 42.4551 50.0398C43.2924 50.8976 44.2461 51.6343 45.2885 52.2283C45.3853 52.2725 45.4644 52.3479 45.5128 52.4425Z" fill="#233565"/>
<path d="M45.5128 15.4186C45.475 15.5221 45.3853 15.5598 45.3003 15.6092C44.6037 15.9858 43.9532 16.4414 43.3618 16.967C43.0572 17.2494 42.7691 17.5459 42.474 17.8401C42.2591 18.0542 42.2214 18.0613 42.0018 17.8401C41.5477 17.3662 41.0685 16.9169 40.5662 16.494C40.1607 16.1557 39.7235 15.857 39.2605 15.6021C38.9914 15.4609 38.9866 15.3856 39.2605 15.2397C39.9051 14.8929 40.5092 14.4762 41.0621 13.9972C41.4253 13.7034 41.7626 13.379 42.0703 13.0277C42.2025 12.8676 42.3064 12.8629 42.4551 13.0277C43.2924 13.8855 44.2461 14.6222 45.2885 15.2162C45.3835 15.2573 45.4623 15.3284 45.5128 15.4186Z" fill="#233565"/>
<path d="M45.5128 87.5626C45.475 87.6661 45.3853 87.7038 45.3003 87.7509C44.6031 88.1274 43.9526 88.5839 43.3618 89.111C43.0572 89.3911 42.7691 89.6899 42.474 89.9817C42.2591 90.1982 42.2214 90.2053 42.0018 89.9817C41.5477 89.5071 41.0685 89.057 40.5662 88.6333C40.1607 88.2957 39.7234 87.9978 39.2605 87.7438C38.9914 87.6026 38.9866 87.5249 39.2605 87.379C39.9045 87.0322 40.5086 86.6163 41.0621 86.1389C41.4253 85.845 41.7626 85.5206 42.0703 85.1693C42.2025 85.007 42.3064 85.0046 42.4551 85.1552C43.2924 86.013 44.2461 86.7497 45.2885 87.3437C45.3861 87.3891 45.4652 87.4663 45.5128 87.5626Z" fill="#233565"/>
</svg>
