<svg width="90" height="109" viewBox="0 0 90 109" fill="none" xmlns="http://www.w3.org/2000/svg">
<path d="M19.025 27.0154C18.025 30.7111 18.92 34.078 20.9675 37.176C22.915 40.1171 25.6225 42.351 28.245 44.6645C30.1125 46.3106 32.2125 47.6753 33.995 49.436C34.2 49.6402 34.4375 49.9889 34.81 49.685C35.2225 49.3513 35.15 48.9255 34.945 48.5196C34.3047 47.2411 33.565 46.0146 32.7325 44.8513C30.5 41.7707 28.355 38.6528 26.925 35.114C26.335 33.6497 25.8775 32.1555 25.9075 30.5617C25.9075 30.2803 25.8925 29.8469 26.3025 29.7847C26.6525 29.7324 26.7475 30.0935 26.845 30.35C27.395 31.8218 28.4975 32.6212 30.0275 32.6311C31.8 32.6436 33.5125 32.2501 34.445 30.5343C36.66 26.4576 33.7575 21.7682 30.045 20.6476C25.105 19.1509 20.18 22.7295 19.025 27.0154Z" fill="#AA5C9D"/>
<path d="M2.35251 40.9114C3.58251 35.3604 9.20751 32.7655 13.965 33.2984C16.8272 33.7259 19.6085 34.5806 22.215 35.8336C24.625 37.2157 26.945 38.7274 28.925 40.6997C32.175 43.9372 35.175 47.3764 37.0425 51.6423C37.4043 52.3797 37.6417 53.1715 37.745 53.9857C37.77 54.2995 37.685 54.6407 37.275 54.7329C36.865 54.825 36.695 54.6283 36.565 54.2696C36.4388 53.9361 36.2708 53.6199 36.065 53.3283C31.8925 47.4237 26.6075 43.0631 19.3525 41.4991C18.1253 41.2559 16.8805 41.1118 15.63 41.0683C14.98 41.0359 14.3075 41.1854 14.7225 42.1964C15.405 43.85 15.1925 45.5659 14.8275 47.2394C14.45 48.9826 13.2775 50.0062 11.5775 50.4171C6.75001 51.5626 0.962512 47.1896 2.35251 40.9114Z" fill="#AA5C9D"/>
<path d="M70.975 27.0152C71.975 30.7109 71.08 34.0779 69.0325 37.1758C67.085 40.1169 64.3775 42.3508 61.755 44.6643C59.8875 46.3104 57.7875 47.6751 56.005 49.4358C55.8 49.64 55.5625 49.9887 55.19 49.6849C54.7775 49.3512 54.85 48.9253 55.055 48.5194C55.6953 47.241 56.435 46.0145 57.2675 44.8511C59.4825 41.768 61.6325 38.6501 63.0625 35.1064C63.6525 33.642 64.11 32.1478 64.08 30.554C64.08 30.2726 64.095 29.8393 63.685 29.777C63.335 29.7247 63.24 30.0858 63.1425 30.3423C62.5925 31.8141 61.49 32.6135 59.96 32.6235C58.1875 32.6359 56.475 32.2425 55.5425 30.5266C53.3275 26.4499 56.23 21.7606 59.9425 20.6399C64.895 19.1507 69.82 22.7293 70.975 27.0152Z" fill="#AA5C9D"/>
<path d="M87.6475 40.9114C86.4175 35.3604 80.7925 32.7655 76.035 33.2984C73.1728 33.7259 70.3916 34.5806 67.785 35.8336C65.375 37.2157 63.055 38.7274 61.075 40.6997C57.825 43.9372 54.825 47.3764 52.9575 51.6423C52.5957 52.3797 52.3584 53.1715 52.255 53.9857C52.23 54.2995 52.315 54.6407 52.725 54.7329C53.135 54.825 53.305 54.6283 53.435 54.2696C53.5612 53.9361 53.7292 53.6199 53.935 53.3283C58.1075 47.4237 63.3925 43.0631 70.6475 41.4991C71.8747 41.2559 73.1195 41.1118 74.37 41.0683C75.02 41.0359 75.6925 41.1854 75.2775 42.1964C74.595 43.85 74.8075 45.5659 75.1725 47.2394C75.55 48.9826 76.7225 50.0062 78.435 50.4171C83.25 51.5626 89.0375 47.1896 87.6475 40.9114Z" fill="#AA5C9D"/>
<path d="M19.025 81.9448C18.025 78.2467 18.92 74.8797 20.9675 71.7817C22.915 68.8406 25.6225 66.6068 28.245 64.2932C30.1125 62.6471 32.2125 61.2849 33.995 59.5217C34.2 59.3175 34.4375 58.9714 34.81 59.2727C35.2225 59.6064 35.15 60.0323 34.945 60.4382C34.3053 61.7177 33.5655 62.9451 32.7325 64.109C30.5175 67.1895 28.3675 70.3074 26.9375 73.8512C26.3475 75.3155 25.89 76.8097 25.92 78.4035C25.92 78.685 25.905 79.1208 26.315 79.1805C26.665 79.2328 26.76 78.8742 26.8575 78.6152C27.4075 77.1434 28.51 76.344 30.04 76.3341C31.8125 76.3216 33.525 76.7151 34.4575 78.4309C36.6725 82.5076 33.77 87.197 30.0575 88.3176C25.105 89.8069 20.18 86.2282 19.025 81.9448Z" fill="#AA5C9D"/>
<path d="M2.35251 68.0487C3.58251 73.5972 9.20751 76.1922 13.965 75.6592C16.8275 75.2329 19.6089 74.3782 22.215 73.1241C24.625 71.7419 26.945 70.2303 28.925 68.2579C32.175 65.0205 35.175 61.5813 37.0425 57.3153C37.4047 56.5781 37.6421 55.7863 37.745 54.9719C37.77 54.6581 37.685 54.317 37.275 54.2248C36.865 54.1327 36.695 54.3319 36.565 54.688C36.4384 55.0221 36.2704 55.3392 36.065 55.6319C31.8925 61.534 26.6075 65.8946 19.3525 67.4585C18.1253 67.7017 16.8805 67.8458 15.63 67.8893C14.98 67.9242 14.3075 67.7723 14.7225 66.7612C15.405 65.1076 15.1925 63.3918 14.8275 61.7183C14.45 59.99 13.2775 58.9515 11.5775 58.5406C6.75001 57.395 0.962512 61.7606 2.35251 68.0487Z" fill="#AA5C9D"/>
<path d="M70.975 81.9448C71.975 78.2467 71.08 74.8797 69.0325 71.7817C67.085 68.8406 64.3775 66.6068 61.755 64.2932C59.8875 62.6471 57.7875 61.2849 56.005 59.5217C55.8 59.3175 55.5625 58.9714 55.19 59.2727C54.7775 59.6064 54.85 60.0323 55.055 60.4382C55.6947 61.7177 56.4345 62.9451 57.2675 64.109C59.4825 67.1895 61.6325 70.3074 63.0625 73.8512C63.6525 75.3155 64.11 76.8097 64.08 78.4035C64.08 78.685 64.095 79.1208 63.685 79.1805C63.335 79.2328 63.24 78.8742 63.1425 78.6152C62.5925 77.1434 61.49 76.344 59.96 76.3341C58.1875 76.3216 56.475 76.7151 55.5425 78.4309C53.3275 82.5076 56.23 87.197 59.9425 88.3176C64.895 89.8069 69.82 86.2282 70.975 81.9448Z" fill="#AA5C9D"/>
<path d="M87.6475 68.0487C86.4175 73.5972 80.7925 76.1922 76.035 75.6592C73.1725 75.2329 70.3911 74.3782 67.785 73.1241C65.375 71.7419 63.055 70.2303 61.075 68.2579C57.825 65.0205 54.825 61.5813 52.9575 57.3153C52.5953 56.5781 52.3579 55.7863 52.255 54.9719C52.23 54.6581 52.315 54.317 52.725 54.2248C53.135 54.1327 53.305 54.3319 53.435 54.688C53.5617 55.0221 53.7296 55.3392 53.935 55.6319C58.1075 61.534 63.3925 65.8946 70.6475 67.4585C71.8747 67.7017 73.1195 67.8458 74.37 67.8893C75.02 67.9242 75.6925 67.7723 75.2775 66.7612C74.595 65.1076 74.8075 63.3918 75.1725 61.7183C75.55 59.99 76.7225 58.9515 78.435 58.5406C83.25 57.395 89.0375 61.7606 87.6475 68.0487Z" fill="#AA5C9D"/>
<path d="M48.19 55.4974C48.15 55.607 48.055 55.6493 47.965 55.6991C47.2275 56.0976 46.5387 56.5798 45.9125 57.136C45.59 57.4349 45.285 57.7511 44.9725 58.0599C44.745 58.2866 44.705 58.294 44.4725 58.0599C43.991 57.5591 43.4837 57.0837 42.9525 56.6355C42.5237 56.2774 42.0606 55.9621 41.57 55.6941C41.285 55.5422 41.28 55.4625 41.57 55.3081C42.2524 54.941 42.8921 54.5001 43.4775 53.9932C43.8621 53.6822 44.2193 53.339 44.545 52.9672C44.685 52.7978 44.795 52.7929 44.9525 52.9547C45.839 53.8625 46.8488 54.6421 47.9525 55.2708C48.0551 55.3175 48.1388 55.3973 48.19 55.4974Z" fill="#AA5C9D"/>
<path d="M48.19 16.3168C48.15 16.4264 48.055 16.4662 47.965 16.5185C47.2275 16.917 46.5387 17.3992 45.9125 17.9554C45.59 18.2543 45.285 18.5681 44.9725 18.8794C44.745 19.106 44.705 19.1134 44.4725 18.8794C43.9917 18.3779 43.4843 17.9024 42.9525 17.4549C42.5231 17.0968 42.0602 16.7808 41.57 16.511C41.285 16.3616 41.28 16.2819 41.57 16.1275C42.2524 15.7604 42.8921 15.3195 43.4775 14.8126C43.8621 14.5016 44.2193 14.1584 44.545 13.7866C44.685 13.6173 44.795 13.6123 44.9525 13.7866C45.839 14.6944 46.8488 15.474 47.9525 16.1026C48.0531 16.1461 48.1366 16.2214 48.19 16.3168Z" fill="#AA5C9D"/>
<path d="M48.19 92.6632C48.15 92.7728 48.055 92.8126 47.965 92.8625C47.2269 93.261 46.538 93.7441 45.9125 94.3019C45.59 94.5982 45.285 94.9145 44.9725 95.2233C44.745 95.4524 44.705 95.4599 44.4725 95.2233C43.9917 94.721 43.4843 94.2447 42.9525 93.7963C42.5231 93.4391 42.0601 93.1238 41.57 92.855C41.285 92.7056 41.28 92.6234 41.57 92.469C42.2518 92.1019 42.8915 91.6618 43.4775 91.1566C43.8621 90.8456 44.2193 90.5023 44.545 90.1305C44.685 89.9587 44.795 89.9562 44.9525 90.1156C45.839 91.0234 46.8488 91.803 47.9525 92.4316C48.0559 92.4796 48.1397 92.5613 48.19 92.6632Z" fill="#AA5C9D"/>
</svg>
