<svg id="Layer_1" data-name="Layer 1" xmlns="http://www.w3.org/2000/svg" viewBox="0 0 566.93 566.93"><defs><style>.cls-1{fill:#ce433a;}</style></defs><path class="cls-1" d="M179.56,173.09c-4,14.85-.42,28.37,7.78,40.81,7.78,11.81,18.62,20.78,29.1,30.07,7.47,6.61,15.88,12.08,22.95,19.16.83.82,1.78,2.21,3.27,1,1.65-1.34,1.35-3.05.54-4.68a110.51,110.51,0,0,0-8.86-14.74c-8.85-12.37-17.46-24.89-23.18-39.12-2.36-5.88-4.19-11.88-4.07-18.28,0-1.13-.06-2.88,1.58-3.12,1.41-.21,1.78,1.23,2.17,2.27,2.21,5.91,6.61,9.11,12.74,9.16,7.08.05,13.94-1.53,17.66-8.42,8.86-16.37-2.75-35.2-17.6-39.7C203.88,141.52,184.19,155.89,179.56,173.09Z"/><path class="cls-1" d="M112.88,228.89c4.92-22.28,27.42-32.7,46.44-30.56a114.83,114.83,0,0,1,33,10.18h0c9.65,5.55,18.93,11.62,26.84,19.54,13,13,25,26.81,32.47,43.94a29.39,29.39,0,0,1,2.81,9.41c.11,1.26-.23,2.63-1.87,3s-2.32-.43-2.85-1.86a16.85,16.85,0,0,0-2-3.79C231,255,209.85,237.51,180.82,231.23a93.83,93.83,0,0,0-14.88-1.74c-2.6-.13-5.3.48-3.63,4.54,2.73,6.64,1.87,13.53.41,20.25-1.5,6.94-6.2,11.11-13.05,12.76C130.42,271.67,107.31,254.11,112.88,228.89Z"/><path class="cls-1" d="M387.37,173.09c4,14.85.42,28.37-7.78,40.81-7.78,11.81-18.62,20.78-29.1,30.07-7.47,6.61-15.88,12.08-22.95,19.16-.83.82-1.78,2.21-3.27,1-1.65-1.34-1.36-3.05-.54-4.68a109.46,109.46,0,0,1,8.86-14.74c8.85-12.37,17.46-24.89,23.17-39.12,2.37-5.88,4.2-11.88,4.08-18.28,0-1.13.06-2.88-1.58-3.12-1.41-.21-1.78,1.23-2.17,2.27-2.21,5.91-6.61,9.11-12.74,9.16-7.09.05-13.94-1.53-17.66-8.42-8.86-16.37,2.75-35.2,17.6-39.7C363.05,141.52,382.74,155.89,387.37,173.09Z"/><path class="cls-1" d="M454.05,228.89c-4.92-22.28-27.42-32.7-46.44-30.56a114.83,114.83,0,0,0-33,10.18h0c-9.65,5.55-18.93,11.62-26.84,19.54-13,13-25,26.81-32.47,43.94a29.66,29.66,0,0,0-2.82,9.41c-.1,1.26.24,2.63,1.88,3s2.32-.43,2.85-1.86a16.85,16.85,0,0,1,2-3.79c16.68-23.7,37.82-41.21,66.85-47.49A93.83,93.83,0,0,1,401,229.49c2.6-.13,5.3.48,3.63,4.54-2.73,6.64-1.87,13.53-.41,20.25,1.5,6.94,6.2,11.11,13.05,12.76C436.51,271.67,459.62,254.11,454.05,228.89Z"/><path class="cls-1" d="M179.56,393.66c-4-14.84-.42-28.37,7.78-40.8,7.78-11.81,18.62-20.78,29.1-30.07,7.47-6.61,15.88-12.09,22.95-19.16.83-.82,1.78-2.22,3.27-1,1.65,1.34,1.35,3.05.54,4.68A111,111,0,0,1,234.34,322c-8.85,12.38-17.46,24.9-23.18,39.13C208.8,367,207,373,207.09,379.44c0,1.13-.06,2.87,1.58,3.12,1.41.21,1.78-1.24,2.17-2.27,2.21-5.91,6.61-9.12,12.74-9.16,7.08-.05,13.94,1.53,17.66,8.42,8.86,16.37-2.75,35.2-17.6,39.7C203.88,425.24,184.19,410.87,179.56,393.66Z"/><path class="cls-1" d="M112.88,337.86c4.92,22.29,27.42,32.71,46.44,30.57a115.14,115.14,0,0,0,33-10.18h0c9.65-5.55,18.93-11.62,26.84-19.54,13-13,25-26.81,32.47-43.94a29.47,29.47,0,0,0,2.81-9.41c.11-1.26-.23-2.63-1.87-3s-2.32.42-2.85,1.86a16.57,16.57,0,0,1-2,3.78c-16.68,23.71-37.82,41.22-66.85,47.5a92.67,92.67,0,0,1-14.88,1.73c-2.6.13-5.3-.47-3.63-4.53,2.73-6.64,1.87-13.53.41-20.25-1.5-7-6.2-11.11-13.05-12.76C130.42,295.09,107.31,312.65,112.88,337.86Z"/><path class="cls-1" d="M387.37,393.66c4-14.84.42-28.37-7.78-40.8-7.78-11.81-18.62-20.78-29.1-30.07-7.47-6.61-15.88-12.09-22.95-19.16-.83-.82-1.78-2.22-3.27-1-1.65,1.34-1.36,3.05-.54,4.68A110,110,0,0,0,332.59,322c8.85,12.38,17.46,24.9,23.17,39.13,2.37,5.88,4.2,11.88,4.08,18.28,0,1.13.06,2.87-1.58,3.12-1.41.21-1.78-1.24-2.17-2.27-2.21-5.91-6.61-9.12-12.74-9.16-7.09-.05-13.94,1.53-17.66,8.42-8.86,16.37,2.75,35.2,17.6,39.7C363.05,425.24,382.74,410.87,387.37,393.66Z"/><path class="cls-1" d="M454.05,337.86c-4.92,22.29-27.42,32.71-46.44,30.57a115.14,115.14,0,0,1-33-10.18h0c-9.65-5.55-18.93-11.62-26.84-19.54-13-13-25-26.81-32.47-43.94a29.74,29.74,0,0,1-2.82-9.41c-.1-1.26.24-2.63,1.88-3s2.32.42,2.85,1.86a16.57,16.57,0,0,0,2,3.78c16.68,23.71,37.82,41.22,66.85,47.5A92.67,92.67,0,0,0,401,337.26c2.6.13,5.3-.47,3.63-4.53-2.73-6.64-1.87-13.53-.41-20.25,1.5-7,6.2-11.11,13.05-12.76C436.51,295.09,459.62,312.65,454.05,337.86Z"/><path class="cls-1" d="M296.23,287.47c-.16.44-.55.6-.91.81a43,43,0,0,0-8.2,5.77c-1.29,1.2-2.52,2.46-3.76,3.71-.92.91-1.07.94-2,0a78.19,78.19,0,0,0-6.08-5.72,35.3,35.3,0,0,0-5.52-3.79c-1.15-.6-1.17-.92,0-1.54a42.26,42.26,0,0,0,7.64-5.28,35.28,35.28,0,0,0,4.26-4.12c.57-.68,1-.7,1.64-.05a54.21,54.21,0,0,0,12,9.3A2,2,0,0,1,296.23,287.47Z"/><path class="cls-1" d="M296.23,130.14c-.16.44-.55.6-.91.8a43,43,0,0,0-8.2,5.78c-1.29,1.2-2.52,2.46-3.76,3.7-.92.92-1.07,1-2,0a78.19,78.19,0,0,0-6.08-5.72,34.63,34.63,0,0,0-5.52-3.79c-1.15-.6-1.17-.92,0-1.55a42.72,42.72,0,0,0,7.64-5.27,35.28,35.28,0,0,0,4.26-4.12c.57-.69,1-.7,1.64-.06a53.91,53.91,0,0,0,12,9.3A2.11,2.11,0,0,1,296.23,130.14Z"/><path class="cls-1" d="M296.23,436.71c-.16.43-.55.6-.91.8a43.43,43.43,0,0,0-8.2,5.77c-1.29,1.2-2.52,2.47-3.76,3.71-.92.92-1.07.94-2,0a80.15,80.15,0,0,0-6.08-5.72,34.57,34.57,0,0,0-5.52-3.78c-1.15-.61-1.17-.93,0-1.55a42.26,42.26,0,0,0,7.64-5.28,35.28,35.28,0,0,0,4.26-4.12c.57-.68,1-.7,1.64-.05a54.21,54.21,0,0,0,12,9.3A2,2,0,0,1,296.23,436.71Z"/></svg>