<svg width="80" height="97" viewBox="0 0 80 97" fill="none" xmlns="http://www.w3.org/2000/svg">
<path d="M16.9111 24.0411C16.0222 27.3299 16.8178 30.3262 18.6378 33.0831C20.3689 35.7004 22.7756 37.6883 25.1067 39.7472C26.7667 41.2121 28.6333 42.4265 30.2178 43.9934C30.4 44.1751 30.6111 44.4854 30.9422 44.215C31.3089 43.918 31.2444 43.5391 31.0622 43.1778C30.4931 42.0402 29.8355 40.9487 29.0956 39.9134C27.1111 37.172 25.2044 34.3973 23.9333 31.2481C23.4089 29.945 23.0022 28.6153 23.0289 27.1969C23.0289 26.9465 23.0156 26.5609 23.38 26.5055C23.6911 26.459 23.7756 26.7803 23.8622 27.0086C24.3511 28.3183 25.3311 29.0297 26.6911 29.0386C28.2667 29.0497 29.7889 28.6995 30.6178 27.1726C32.5867 23.5447 30.0067 19.3716 26.7067 18.3743C22.3156 17.0424 17.9378 20.2271 16.9111 24.0411Z" fill="#CE433A"/>
<path d="M2.09111 36.4073C3.18445 31.4675 8.18445 29.1582 12.4133 29.6325C14.9575 30.0129 17.4297 30.7734 19.7467 31.8885C21.8889 33.1185 23.9511 34.4637 25.7111 36.219C28.6 39.1 31.2667 42.1605 32.9267 45.9569C33.2483 46.6131 33.4592 47.3177 33.5511 48.0423C33.5733 48.3215 33.4978 48.6251 33.1333 48.7071C32.7689 48.7891 32.6178 48.6141 32.5022 48.2949C32.39 47.9981 32.2407 47.7167 32.0578 47.4572C28.3489 42.2027 23.6511 38.3221 17.2022 36.9304C16.1114 36.7139 15.0049 36.5857 13.8933 36.547C13.3156 36.5181 12.7178 36.6511 13.0867 37.5509C13.6933 39.0224 13.5044 40.5494 13.18 42.0387C12.8444 43.59 11.8022 44.5008 10.2911 44.8665C6 45.8859 0.855559 41.9943 2.09111 36.4073Z" fill="#CE433A"/>
<path d="M63.0889 24.0412C63.9778 27.33 63.1822 30.3263 61.3622 33.0832C59.6311 35.7005 57.2244 37.6884 54.8933 39.7472C53.2333 41.2121 51.3667 42.4266 49.7822 43.9934C49.6 44.1752 49.3889 44.4854 49.0578 44.2151C48.6911 43.9181 48.7556 43.5391 48.9378 43.1779C49.5069 42.0402 50.1645 40.9487 50.9044 39.9135C52.8733 37.1698 54.7844 34.3952 56.0556 31.2415C56.58 29.9384 56.9867 28.6087 56.96 27.1904C56.96 26.9399 56.9733 26.5543 56.6089 26.4989C56.2978 26.4524 56.2133 26.7737 56.1267 27.002C55.6378 28.3117 54.6578 29.0231 53.2978 29.032C51.7222 29.0431 50.2 28.6929 49.3711 27.166C47.4022 23.5381 49.9822 19.365 53.2822 18.3677C57.6844 17.0425 62.0622 20.2271 63.0889 24.0412Z" fill="#CE433A"/>
<path d="M77.9089 36.4073C76.8156 31.4675 71.8156 29.1582 67.5867 29.6325C65.0425 30.0129 62.5703 30.7734 60.2533 31.8885C58.1111 33.1185 56.0489 34.4637 54.2889 36.219C51.4 39.1 48.7333 42.1605 47.0733 45.9569C46.7517 46.6131 46.5408 47.3177 46.4489 48.0423C46.4267 48.3215 46.5022 48.6251 46.8667 48.7071C47.2311 48.7891 47.3822 48.6141 47.4978 48.2949C47.61 47.9981 47.7593 47.7167 47.9422 47.4572C51.6511 42.2027 56.3489 38.3221 62.7978 36.9304C63.8886 36.7139 64.9952 36.5857 66.1067 36.547C66.6844 36.5181 67.2822 36.6511 66.9133 37.5509C66.3067 39.0224 66.4956 40.5494 66.82 42.0387C67.1556 43.59 68.1978 44.5008 69.72 44.8665C74 45.8859 79.1444 41.9943 77.9089 36.4073Z" fill="#CE433A"/>
<path d="M16.9111 72.9233C16.0222 69.6323 16.8178 66.636 18.6378 63.8791C20.3689 61.2618 22.7756 59.2739 25.1067 57.2151C26.7667 55.7502 28.6333 54.5379 30.2178 52.9689C30.4 52.7871 30.6111 52.4791 30.9422 52.7472C31.3089 53.0442 31.2444 53.4232 31.0622 53.7844C30.4936 54.9231 29.836 56.0153 29.0956 57.0511C27.1267 59.7925 25.2156 62.5671 23.9444 65.7208C23.42 67.0239 23.0133 68.3536 23.04 69.7719C23.04 70.0224 23.0267 70.4102 23.3911 70.4634C23.7022 70.5099 23.7867 70.1908 23.8733 69.9603C24.3622 68.6506 25.3422 67.9392 26.7022 67.9303C28.2778 67.9192 29.8 68.2694 30.6289 69.7963C32.5978 73.4242 30.0178 77.5973 26.7178 78.5946C22.3156 79.9198 17.9378 76.7352 16.9111 72.9233Z" fill="#CE433A"/>
<path d="M2.09111 60.5571C3.18445 65.4947 8.18445 67.804 12.4133 67.3297C14.9578 66.9504 17.4301 66.1898 19.7467 65.0737C21.8889 63.8437 23.9511 62.4984 25.7111 60.7432C28.6 57.8622 31.2667 54.8017 32.9267 51.0053C33.2486 50.3493 33.4596 49.6446 33.5511 48.9199C33.5733 48.6407 33.4978 48.3371 33.1333 48.2551C32.7689 48.1731 32.6178 48.3504 32.5022 48.6673C32.3896 48.9646 32.2403 49.2467 32.0578 49.5072C28.3489 54.7595 23.6511 58.6401 17.2022 60.0318C16.1114 60.2483 15.0049 60.3765 13.8933 60.4152C13.3156 60.4463 12.7178 60.3111 13.0867 59.4113C13.6933 57.9398 13.5044 56.4128 13.18 54.9235C12.8444 53.3855 11.8022 52.4614 10.2911 52.0957C6 51.0763 0.855559 54.9612 2.09111 60.5571Z" fill="#CE433A"/>
<path d="M63.0889 72.9233C63.9778 69.6323 63.1822 66.636 61.3622 63.8791C59.6311 61.2618 57.2244 59.2739 54.8933 57.2151C53.2333 55.7502 51.3667 54.5379 49.7822 52.9689C49.6 52.7871 49.3889 52.4791 49.0578 52.7472C48.6911 53.0442 48.7556 53.4232 48.9378 53.7844C49.5064 54.9231 50.164 56.0153 50.9044 57.0511C52.8733 59.7925 54.7844 62.5671 56.0556 65.7208C56.58 67.0239 56.9867 68.3536 56.96 69.7719C56.96 70.0224 56.9733 70.4102 56.6089 70.4634C56.2978 70.5099 56.2133 70.1908 56.1267 69.9603C55.6378 68.6506 54.6578 67.9392 53.2978 67.9303C51.7222 67.9192 50.2 68.2694 49.3711 69.7963C47.4022 73.4242 49.9822 77.5973 53.2822 78.5946C57.6844 79.9198 62.0622 76.7352 63.0889 72.9233Z" fill="#CE433A"/>
<path d="M77.9089 60.5571C76.8156 65.4947 71.8156 67.804 67.5867 67.3297C65.0422 66.9504 62.5699 66.1898 60.2533 65.0737C58.1111 63.8437 56.0489 62.4984 54.2889 60.7432C51.4 57.8622 48.7333 54.8017 47.0733 51.0053C46.7514 50.3493 46.5404 49.6446 46.4489 48.9199C46.4267 48.6407 46.5022 48.3371 46.8667 48.2551C47.2311 48.1731 47.3822 48.3504 47.4978 48.6673C47.6104 48.9646 47.7597 49.2467 47.9422 49.5072C51.6511 54.7595 56.3489 58.6401 62.7978 60.0318C63.8886 60.2483 64.9952 60.3765 66.1067 60.4152C66.6844 60.4463 67.2822 60.3111 66.9133 59.4113C66.3067 57.9398 66.4956 56.4128 66.82 54.9235C67.1556 53.3855 68.1978 52.4614 69.72 52.0957C74 51.0763 79.1444 54.9612 77.9089 60.5571Z" fill="#CE433A"/>
<path d="M42.8356 49.3876C42.8 49.4851 42.7156 49.5228 42.6356 49.5671C41.98 49.9217 41.3678 50.3508 40.8111 50.8458C40.5244 51.1118 40.2533 51.3932 39.9756 51.668C39.7733 51.8697 39.7378 51.8763 39.5311 51.668C39.1031 51.2223 38.6521 50.7992 38.18 50.4004C37.7988 50.0817 37.3872 49.8011 36.9511 49.5626C36.6978 49.4275 36.6933 49.3565 36.9511 49.2191C37.5577 48.8925 38.1264 48.5 38.6467 48.049C38.9886 47.7723 39.306 47.4668 39.5956 47.1359C39.72 46.9852 39.8178 46.9808 39.9578 47.1248C40.7458 47.9327 41.6434 48.6265 42.6244 49.1859C42.7156 49.2275 42.79 49.2985 42.8356 49.3876Z" fill="#CE433A"/>
<path d="M42.8356 14.5204C42.8 14.6179 42.7156 14.6534 42.6356 14.6999C41.98 15.0545 41.3678 15.4836 40.8111 15.9786C40.5244 16.2446 40.2533 16.5238 39.9756 16.8008C39.7733 17.0025 39.7378 17.0092 39.5311 16.8008C39.1037 16.3546 38.6527 15.9314 38.18 15.5332C37.7983 15.2145 37.3868 14.9333 36.9511 14.6932C36.6978 14.5603 36.6933 14.4894 36.9511 14.352C37.5577 14.0253 38.1264 13.6329 38.6467 13.1818C38.9886 12.9051 39.306 12.5996 39.5956 12.2687C39.72 12.118 39.8178 12.1136 39.9578 12.2687C40.7458 13.0766 41.6434 13.7704 42.6244 14.3298C42.7139 14.3685 42.7881 14.4355 42.8356 14.5204Z" fill="#CE433A"/>
<path d="M42.8356 82.4619C42.8 82.5594 42.7156 82.5949 42.6356 82.6392C41.9794 82.9939 41.3671 83.4238 40.8111 83.9202C40.5244 84.1839 40.2533 84.4654 39.9756 84.7402C39.7733 84.9441 39.7378 84.9507 39.5311 84.7402C39.1037 84.2932 38.6527 83.8693 38.18 83.4703C37.7983 83.1524 37.3868 82.8718 36.9511 82.6326C36.6978 82.4996 36.6933 82.4265 36.9511 82.2891C37.5572 81.9624 38.1257 81.5708 38.6467 81.1211C38.9886 80.8444 39.306 80.5389 39.5956 80.2081C39.72 80.0552 39.8178 80.0529 39.9578 80.1948C40.7458 81.0026 41.6434 81.6964 42.6244 82.2558C42.7163 82.2985 42.7908 82.3712 42.8356 82.4619Z" fill="#CE433A"/>
</svg>
