<svg width="140" height="174" viewBox="0 0 140 174" fill="none" xmlns="http://www.w3.org/2000/svg">
<path d="M92.2995 124.31C91.8483 121.319 90.1979 119.11 87.7881 117.372C84.3594 114.893 79.239 114.795 75.7351 117.184C72.7679 119.174 70.629 122.181 69.7199 125.638C69.6563 125.516 69.601 125.391 69.5545 125.262C68.8499 122.805 67.4967 120.584 65.6371 118.832C63.0543 116.352 59.9979 115.137 56.4338 115.494C53.3097 115.807 50.7946 117.323 48.8885 119.829C48.0643 120.858 47.4753 122.055 47.1629 123.336C46.8505 124.617 46.8222 125.951 47.0802 127.244C47.4764 129.37 48.6061 131.289 50.272 132.666C52.1518 134.28 54.3699 135.048 56.8136 134.401C60.0166 133.554 61.3851 131.052 60.9828 127.91C60.746 126.029 59.7422 124.727 57.8023 124.287C56.7346 124.046 55.4714 124.539 55.0729 125.367C54.932 125.621 54.8439 125.902 54.8139 126.191C54.7839 126.48 54.8126 126.773 54.8982 127.051C54.9839 127.329 55.1248 127.586 55.3124 127.808C55.5001 128.03 55.7306 128.212 55.9902 128.343C56.7421 128.719 56.4827 129.318 56.4639 129.848C56.4639 130.269 55.9526 130.254 55.6594 130.307C54.7934 130.414 53.9163 130.236 53.1602 129.8C52.4041 129.365 51.81 128.695 51.4675 127.892C50.257 124.554 52.5954 120.134 57.1857 119.897C59.6595 119.769 61.6971 120.848 63.2611 122.658C65.6822 125.487 66.5055 128.78 65.5431 132.44C64.7912 135.319 63.0393 137.501 60.8249 139.371C60.2723 139.837 60.2234 140.059 60.7385 140.548C61.7911 141.557 62.7987 142.614 63.7461 143.72C65.2499 145.492 66.6672 147.355 67.4793 149.574C68.3439 151.948 68.7274 154.274 66.5319 156.241C66.1559 156.576 66.1973 156.994 66.5807 157.423C67.4041 158.329 68.2763 159.187 69.0206 160.162C69.4229 160.685 69.8816 160.677 70.3064 160.188C71.141 159.237 71.9706 158.283 72.7952 157.325C72.878 157.242 72.9421 157.142 72.983 157.031C73.024 156.921 73.041 156.804 73.0328 156.686C73.0246 156.569 72.9915 156.455 72.9356 156.352C72.8797 156.248 72.8023 156.158 72.7087 156.087C71.0884 154.857 70.9906 153.137 71.3064 151.388C71.8516 148.378 73.6185 145.962 75.5847 143.709C76.5848 142.557 77.6525 141.451 78.7014 140.36C78.9796 140.067 79.0021 139.871 78.6562 139.585C78.0961 139.115 77.5923 138.581 77.0697 138.08C75.0133 136.071 73.6561 133.644 73.4381 130.785C73.1223 126.627 74.6712 123.226 78.2765 120.98C80.5322 119.584 82.8782 119.422 85.2429 120.792C87.6076 122.161 88.9347 125.815 87.7505 128.147C86.9572 129.709 84.7692 130.759 83.2804 130.183C83.0925 130.108 82.8293 130.078 82.8255 129.807C82.8255 129.227 82.6902 128.678 83.4195 128.302C84.3481 127.839 84.6188 126.947 84.4797 125.95C84.3934 125.517 84.1712 125.122 83.8453 124.824C83.5194 124.525 83.1068 124.339 82.6676 124.291C82.1134 124.204 81.5464 124.253 81.0153 124.434C80.4843 124.615 80.005 124.922 79.6187 125.329C78.4119 126.575 78.16 128.114 78.3893 129.788C78.8367 133.114 81.818 134.999 84.882 134.57C89.5212 133.904 93.01 128.998 92.2995 124.31ZM72.6711 141.049C71.3295 142.435 70.3192 144.107 69.7162 145.94C69.4718 145.88 69.5094 145.628 69.4492 145.47C68.8528 143.83 67.9132 142.337 66.6935 141.09C66.2988 140.714 66.0958 140.236 66.4492 139.781C67.8462 138.041 68.9463 136.082 69.7049 133.983C70.333 136.049 71.3856 137.961 72.7952 139.596C73.2426 140.101 73.1749 140.522 72.6711 141.049Z" fill="#1C1B1C"/>
<path d="M57.4489 161.133C57.5501 160.997 57.6026 160.831 57.5978 160.661C57.593 160.492 57.5313 160.329 57.4226 160.2C55.4203 156.963 52.6569 154.266 49.3735 152.344C46.1629 150.406 42.659 149.386 39.1138 148.397C36.2566 147.595 33.4746 146.606 31.0347 144.864C27.895 142.687 25.4946 139.602 24.1548 136.022C23.7112 134.818 23.3615 133.577 23.0269 132.335C22.9254 131.959 22.557 131.421 23.0683 131.135C23.3138 131.001 23.5892 130.93 23.8691 130.93C24.1489 130.93 24.4243 131.001 24.6698 131.135L27.8804 132.847C31.7753 134.92 35.6927 136.955 39.565 139.077C41.5425 140.161 43.4448 141.376 45.3132 142.655C48.4457 144.861 51.2768 147.466 53.7345 150.406C56.0982 153.231 58.1915 156.272 59.9866 159.488C61.9152 162.822 63.6145 166.261 64.419 170.072C63.4453 169.591 58.2309 166.201 56.3962 165.072C53.4225 163.251 50.2457 162.118 46.7155 162.096C43.3057 162.073 40.0312 162.807 36.7792 163.721C34.1024 164.474 31.4144 165.192 28.591 165.143C26.2451 165.098 24.2037 164.391 22.8314 162.408C21.4592 160.425 21.9743 158.427 23.0495 156.505C24.6623 153.612 27.3692 152.547 30.4519 152.242C33.6287 151.926 36.7679 152.408 39.8507 153.047C43.7305 153.849 47.5351 154.906 51.0427 156.81C52.7082 157.72 54.3586 158.649 55.7835 159.929C56.2739 160.413 56.8355 160.819 57.4489 161.133Z" fill="#1C1B1C"/>
<path d="M81.1375 161.133C81.0363 160.997 80.9839 160.831 80.9886 160.661C80.9934 160.492 81.0551 160.329 81.1638 160.2C83.1675 156.964 85.9306 154.267 89.2129 152.344C92.4235 150.406 95.9274 149.386 99.4726 148.397C102.33 147.595 105.112 146.606 107.552 144.864C110.691 142.687 113.092 139.602 114.432 136.022C114.875 134.818 115.225 133.577 115.559 132.335C115.661 131.959 116.029 131.421 115.518 131.135C115.273 131.001 114.997 130.93 114.717 130.93C114.438 130.93 114.162 131.001 113.917 131.135L110.706 132.847C106.811 134.92 102.894 136.955 99.0215 139.077C97.044 140.161 95.1417 141.376 93.2732 142.655C90.1407 144.861 87.3096 147.466 84.8519 150.406C82.4882 153.231 80.395 156.272 78.5999 159.488C76.6712 162.822 74.9719 166.261 74.1674 170.072C75.1411 169.591 80.3555 166.201 82.1939 165.072C85.1639 163.251 88.3407 162.118 91.8709 162.096C95.2808 162.073 98.5553 162.807 101.807 163.721C104.488 164.474 107.172 165.192 109.999 165.143C112.341 165.098 114.383 164.391 115.755 162.408C117.127 160.425 116.612 158.427 115.537 156.505C113.924 153.615 111.217 152.551 108.142 152.246C104.965 151.93 101.826 152.411 98.7433 153.051C94.8634 153.852 91.0588 154.91 87.5512 156.813C85.8895 157.724 84.2353 158.653 82.8105 159.932C82.3175 160.416 81.7533 160.821 81.1375 161.133Z" fill="#1C1B1C"/>
<path d="M5.33097 94.7411C3.19933 91.2044 3.57528 86.8024 5.14299 82.3251C6.66559 77.972 9.4401 74.3225 11.7108 70.3908C14.3425 65.827 17.1057 61.3196 19.0343 56.3834C19.1622 56.0598 19.2035 55.3675 19.7862 55.597C20.369 55.8265 20.0983 56.4511 20.087 56.8913C19.8509 63.0526 18.3901 69.1051 15.7899 74.695C14.3124 77.9608 12.7823 81.219 12.1921 84.8083C11.8499 86.9379 11.9552 88.947 13.8312 90.4519C15.8613 92.0735 18.0381 92.4799 20.4705 91.4377C22.3089 90.6476 22.9856 89.1012 23.354 87.299C23.448 86.825 23.1435 86.0424 23.9856 86.0161C24.636 86.0161 24.8052 86.6707 25.042 87.1448C27.512 92.0359 25.418 95.6892 21.3352 98.2665C16.1658 101.528 9.21453 100.185 5.33097 94.7411Z" fill="#1C1B1C"/>
<path d="M134.669 94.7411C136.801 91.2044 136.425 86.8024 134.857 82.3251C133.353 77.972 130.56 74.3225 128.289 70.3908C125.658 65.827 122.894 61.3196 120.966 56.3834C120.838 56.0598 120.796 55.3675 120.214 55.597C119.631 55.8265 119.902 56.4511 119.913 56.8913C120.147 63.0549 121.606 69.1101 124.206 74.7025C125.684 77.9683 127.214 81.2265 127.804 84.8159C128.146 86.9454 128.041 88.9545 126.165 90.4595C124.135 92.0811 121.958 92.4874 119.526 91.4452C117.687 90.6551 117.011 89.1088 116.642 87.3066C116.548 86.8325 116.853 86.0499 116.011 86.0236C115.36 86.0236 115.191 86.6782 114.954 87.1523C112.484 92.0434 114.578 95.6967 118.661 98.274C123.849 101.528 130.785 100.185 134.669 94.7411Z" fill="#1C1B1C"/>
<path d="M116.169 65.7896C114.886 63.2919 114.473 60.4371 114.996 57.6779C115.243 56.6015 115.605 55.5546 116.075 54.5551C115.655 54.4403 115.215 54.4236 114.789 54.5062C114.368 54.5062 113.947 54.4798 113.526 54.4798C102.006 54.4798 73.2651 54.4798 61.7423 54.4798C54.6744 54.4798 30.7076 54.4798 23.6397 54.5024C22.839 54.6153 23.2638 55.1044 23.4179 55.4016C24.0934 56.7432 24.4777 58.2126 24.5458 59.7133C24.5717 61.7921 24.0972 63.8466 23.1623 65.7031C22.7863 66.5346 23.0645 66.6512 23.7826 66.5684C25.5796 66.3615 44.2869 66.4631 46.0877 66.4104C47.7381 66.3615 49.3923 66.4593 51.039 66.2486H62.5242C63.6178 66.3984 64.7233 66.4412 65.8251 66.3765H72.8215C73.7436 66.4683 74.6741 66.4278 75.5847 66.2562H86.5286C86.6996 66.3048 86.8745 66.3388 87.0512 66.3577C90.8558 66.5158 111.89 66.2787 115.695 66.591C116.405 66.6324 116.439 66.3352 116.169 65.7896ZM69.9868 64.2583C69.8402 64.5405 69.7237 64.9882 69.4116 65.0108C69.0169 65.0108 68.9191 64.5254 68.7951 64.2169C68.1234 62.7176 67.9919 61.0317 68.4229 59.4462C68.5921 58.8442 68.765 58.2385 68.9755 57.6515C69.047 57.4559 69.0808 57.1286 69.3853 57.1361C69.6184 57.1361 69.6936 57.4032 69.7613 57.5951C70.2462 58.8179 70.7312 60.0407 70.6636 61.444C70.6986 62.4273 70.4618 63.4011 69.9793 64.2583H69.9868ZM46.302 58.9082C47.3246 57.7795 48.7269 57.5236 50.1367 57.4032C52.7808 57.1388 55.4435 57.6707 57.7835 58.9307C58.4896 59.324 59.2357 59.6406 60.0091 59.8751C61.8099 60.3793 62.7272 60.1197 64.7987 58.6674C64.8498 59.0869 64.809 59.5126 64.6791 59.9147C64.5493 60.3169 64.3335 60.686 64.0468 60.9963C62.7197 62.5991 60.4603 63.1183 58.2083 62.2793C56.979 61.8165 55.7947 61.2333 54.603 60.6727C53.3958 60.0568 52.0456 59.7761 50.6931 59.8601C50.2744 59.8852 49.8687 60.0145 49.5126 60.2363C49.3146 60.349 49.1572 60.5212 49.0627 60.7286C48.9682 60.936 48.9415 61.1679 48.9863 61.3914C48.9926 61.619 49.0842 61.836 49.243 61.9991C49.4019 62.1622 49.6162 62.2596 49.8434 62.2718C50.2194 62.3094 50.5014 62.4787 50.0841 62.806C49.287 63.4306 48.3923 63.8557 47.3359 63.5886C45.2531 63.0506 44.738 60.6539 46.287 58.9082H46.302ZM90.4536 63.6413C89.8634 63.5099 89.3083 63.2533 88.8257 62.8888C88.7457 62.8446 88.6803 62.7779 88.6376 62.6971C88.5949 62.6162 88.5766 62.5246 88.5851 62.4335C88.6152 62.2229 88.7919 62.2567 88.931 62.253C89.0444 62.2611 89.1583 62.2464 89.266 62.2097C89.3736 62.173 89.4728 62.115 89.5576 62.0392C89.6425 61.9634 89.7112 61.8714 89.7599 61.7685C89.8085 61.6656 89.836 61.554 89.8408 61.4403C89.875 61.1834 89.8249 60.9224 89.6981 60.6964C89.5713 60.4705 89.3747 60.2919 89.1377 60.1874C88.1866 59.6456 87.1602 59.7773 86.1527 59.9692C84.5436 60.2814 83.1451 61.1242 81.6826 61.8127C80.477 62.4385 79.1181 62.7074 77.7652 62.5878C75.8065 62.3621 74.0885 60.5486 74.1862 58.547C76.1863 60.7066 78.3217 60.3078 80.5172 59.228C82.1338 58.4341 83.7541 57.644 85.5775 57.4521C87.307 57.2079 89.0678 57.3089 90.7581 57.7494C92.2017 58.1707 93.0138 59.1904 93.3709 60.5862C93.7845 62.283 92.1641 63.9611 90.4385 63.6413H90.4536Z" fill="#1C1B1C"/>
</svg>
