<svg id="Layer_1" data-name="Layer 1" xmlns="http://www.w3.org/2000/svg" viewBox="0 0 492.63 506.27"><defs><style>.cls-1{fill:#e9bad2;}</style></defs><path class="cls-1" d="M258.06,108.5c1.05-20.45,5.09-40,18.25-56.46,11.51-14.42,26.24-23.55,44.81-25.56,6.48-.7,13-.57,19.57-.75a19.22,19.22,0,0,1,3.33.58c-1.12,1.15-1.7,2.15-2.56,2.57-9.85,4.84-18.46,11.48-26.64,18.66-19.35,17-36.16,36.34-52.31,56.31a33.14,33.14,0,0,0-2.29,3.44,24.15,24.15,0,0,0-1.08,2.23Z"/><path class="cls-1" d="M148.28,26.64a27.19,27.19,0,0,1,4.77-1.11c15.12-.52,29.87,1.11,43.24,8.9,16.9,9.84,27.18,24.79,32.85,43.25a110.25,110.25,0,0,1,4.68,26.4,15.68,15.68,0,0,1,.06,4.42,12.1,12.1,0,0,1-1.83-1.57c-15.3-19-30.86-37.77-48.7-54.49-9.85-9.22-20.22-17.82-32.34-24C150.32,28.06,149.71,27.57,148.28,26.64Z"/><path class="cls-1" d="M230.94,497.57a15.89,15.89,0,0,0-2.32-4c-6.17-9.5-14.52-16.83-23.42-23.64-14.49-11.09-29-22.15-40.52-36.55a71.52,71.52,0,0,1-16-40c-.94-12.3,1.16-24.24,4.5-36,1.95-6.87,5.23-13.09,8.87-19.17,1.7-2.83.92-4.14-2.35-4.23a27.81,27.81,0,0,0-17.18,5.57C130.8,347.94,126,360,125.5,373.94c-.44,11.6,2.64,22.52,6.87,33.18.41,1,1.72,7,1.72,7-4.6-1.63-13.12-5.86-22.36-10.72l.14.16c-5.93-2.83-11.46-6-17.15-8.9-9-4.53-18.25-8.39-28.47-8.58-17.31-.32-30.47,7.52-40.25,21.42a16.13,16.13,0,0,0-3.07,12.34c1.31-.51,2.52-.88,3.63-1.44A61.69,61.69,0,0,1,47,412.33a95.25,95.25,0,0,1,28.89,1c24.19,4.37,46.15,14.24,66.87,27.13a29.05,29.05,0,0,1,3.23,2.66,15.41,15.41,0,0,1-4.55-1.09,143,143,0,0,0-34-7.41c-7.75-.61-15.45-.68-22.74,2.12-17.29,6.65-28.24,18.69-30.58,37.6a14.68,14.68,0,0,0,.3,3.28,16.38,16.38,0,0,0,3.38-1.32c3.42-2.33,6.62-5,10.11-7.2,11-7,22.79-12.08,35.61-14a100.06,100.06,0,0,1,36.56,1.62c1,.21,2,.49,2.93.73-2.25.74-4.41.91-6.48,1.42-18,4.49-29.72,18.57-32.26,37-.22,1.56.13,3.2.26,5.5a113.17,113.17,0,0,1,20-15.74c17.51-10.85,36.25-14.22,56.33-9.38,9.67,2.33,18.22,7.18,26.62,12.34,6.76,4.14,13.61,8.14,20.46,12.14a8,8,0,0,0,2.56.49C230.7,500,231.26,498.65,230.94,497.57Z"/><path class="cls-1" d="M261.69,497.57a15.89,15.89,0,0,1,2.32-4c6.17-9.5,14.52-16.83,23.42-23.64,14.49-11.09,29-22.15,40.52-36.55a71.52,71.52,0,0,0,16-40c.94-12.3-1.16-24.24-4.5-36-1.95-6.87-5.23-13.09-8.87-19.17-1.7-2.83-.92-4.14,2.35-4.23a27.81,27.81,0,0,1,17.18,5.57c11.75,8.38,16.53,20.39,17.06,34.38.43,11.6-2.65,22.52-6.88,33.18-.41,1-1.72,7-1.72,7,4.6-1.63,13.12-5.86,22.36-10.72l-.14.16c5.93-2.83,11.46-6,17.15-8.9,9-4.53,18.25-8.39,28.47-8.58,17.31-.32,30.47,7.52,40.26,21.42a16.17,16.17,0,0,1,3.06,12.34c-1.31-.51-2.52-.88-3.63-1.44a61.69,61.69,0,0,0-20.45-6.08,95.25,95.25,0,0,0-28.89,1c-24.19,4.37-46.15,14.24-66.87,27.13a29.05,29.05,0,0,0-3.23,2.66,15.41,15.41,0,0,0,4.55-1.09,143,143,0,0,1,34-7.41c7.75-.61,15.45-.68,22.74,2.12,17.29,6.65,28.24,18.69,30.58,37.6a14.68,14.68,0,0,1-.3,3.28,16.38,16.38,0,0,1-3.38-1.32c-3.42-2.33-6.62-5-10.11-7.2-11-7-22.79-12.08-35.61-14a100.06,100.06,0,0,0-36.56,1.62c-1,.21-1.95.49-2.93.73,2.25.74,4.41.91,6.48,1.42,18,4.49,29.72,18.57,32.26,37,.22,1.56-.13,3.2-.26,5.5a113.17,113.17,0,0,0-20-15.74c-17.51-10.85-36.25-14.22-56.33-9.38-9.67,2.33-18.22,7.18-26.62,12.34-6.76,4.14-13.61,8.14-20.46,12.14a8,8,0,0,1-2.56.49C261.93,500,261.37,498.65,261.69,497.57Z"/><path class="cls-1" d="M269.83,293.41h0l0,0Z"/><path class="cls-1" d="M466.53,225.88c-2.79-17.44-10-33.08-20.5-47.22-11.75-15.89-26.2-28.59-44.3-36.93a104.25,104.25,0,0,0-35.85-9.18,102.68,102.68,0,0,0-35.69,2.95c-17.29,4.76-31.82,14.28-45.05,26.07-9.39,8.36-16.51,18.57-23.5,28.87-3.66,5.37-15.07,29.26-15.07,29.26S233.71,196,230.26,190.43c-7.87-12.63-17.11-24.05-28.6-33.61q-34.87-29-79.93-24c-19.17,2.12-36.8,8.8-52,20.64-23.06,18-38.16,41.24-44.46,70a69,69,0,0,0-1.07,23.19c13.9-35.3,38.18-60.91,71.52-78.2.17.53.07.85-.14,1-8.14,7.31-13.68,16.4-18,26.3A67.64,67.64,0,0,0,72,228.51c.07.79.8,1.53,1.22,2.29a9.09,9.09,0,0,0,2-1.6c5.6-7.76,10.86-15.79,16.77-23.32,11.15-14.2,24.34-26.19,40.36-34.8,4-2.13,8.07-4,12.11-6-4.1,4.89-8.57,9.23-12.38,14.08-9,11.5-14.58,24.39-13.95,39.37a11.12,11.12,0,0,0,.86,2.74,14.87,14.87,0,0,0,2.71-1.6,27.37,27.37,0,0,0,2.49-3c11.18-13.49,24.06-24.89,40.54-31.39,6.65-2.62,13.77-4.06,20.67-6,.13,1,.07,1.25-.11,1.39a7.3,7.3,0,0,1-1.3.82,41.87,41.87,0,0,0-15.14,12.32c-5.39,6.95-9.12,14.59-9,23.65a6,6,0,0,0,.47,1.55,5.76,5.76,0,0,0,1.52-.65c2.25-1.88,4.35-4,6.7-5.7,11.37-8.41,23.72-13.17,38.22-10.58,12,2.14,20,9.19,25.35,19.67,4.15,8.13,5.3,17.06,6.36,26,.44,3.68.48,7.4.7,11.1l-.79.11c-.2-.23-.42-.46-.62-.71-4.81-6-9.25-12.3-14.49-17.86-11.22-11.9-25.34-16.45-41.22-13.07s-28.55,11.31-34.65,28.11a21,21,0,0,0,3-.65c3.05-1.19,6.07-2.46,9.09-3.71,14.3-5.91,29-7.65,44.07-3.68,13.69,3.61,25.22,10.29,31.3,23.93,1.31,3,2.39,6,3.57,9.17l-.54.12-.57.14h0c-1,.29-2.1.57-3.15.84l-2,.49-.52.12c-2.82.69-5.64,1.37-8.4,2.17.1.16,24.13,36.57,46.56,0h0l0,0-3.54-1.21c-1.92-.6-3.89-1.13-5.89-1.6l-.2,0c-.93-.21-1.87-.42-2.82-.6s-1.91-.35-2.88-.5l-.24,0-1.33-.16c1.86-6.44,4.13-12.37,8.61-17.28,10.91-12,24.82-16.89,40.65-17.53,11.39-.46,22,2.29,32.35,6.83,2.8,1.23,5.66,2.34,8.8,3.63a7,7,0,0,0-.15-2.16c-1.5-3.09-2.69-6.43-4.71-9.14-10.94-14.66-31.65-21.26-49.37-16.54-10.95,2.91-18.85,9.76-25.88,18-3.23,3.8-6.34,7.71-9.74,11.86-.11-.85-.19-1.27-.21-1.69a68.52,68.52,0,0,1,3.21-24.5c1.85-5.69,3.54-11.93,7.16-16.43,9.19-11.44,21.79-15.67,36.31-13.35,11.31,1.8,20.52,7.77,28.82,15.36.88.81,1.9,1.45,3.4,2.57,0-2.6.31-4.42-.05-6.11-3.09-14.46-11.37-25.07-24.22-32.24a15.18,15.18,0,0,1-1.53-1.14,1.48,1.48,0,0,1,1.28-.29c.43.09.85.19,1.27.25a82.92,82.92,0,0,1,44.83,22c5.69,5.38,10.64,11.55,16,17.31a13.62,13.62,0,0,0,2.47,1.69c.42-1,1.22-2,1.19-2.9-.12-4-.07-8-.86-11.84-3.3-16.22-12.06-29.16-24.63-39.68a9.76,9.76,0,0,0-1.62-.9c.78-.61,1-.7,1.1-.65.65.24,1.28.5,1.92.78,17.35,7.46,32,18.66,44.67,32.53a190.5,190.5,0,0,1,22.34,30.15c.57.93,1.68,1.53,3,2.67,1.58-6.15.87-11.51.25-16.76-2.1-18-11.22-32.48-23.35-45.74.64,0,.92-.08,1.11,0,2,1,4,1.94,6,3,14.29,7.82,26.13,18.66,36.86,30.73,11.08,12.47,20.54,26,25.33,42.28.16.55,1,.9,1.54,1.35.27-.56.79-1.13.76-1.67C467.45,238.42,467.51,232.07,466.53,225.88Z"/><path class="cls-1" d="M269.87,293.42l0,0h0Z"/><path class="cls-1" d="M318.32,355.43a79.64,79.64,0,0,0-20.75-43.5,71.34,71.34,0,0,0-27.66-18.49c-22.43,36.56-46.46.15-46.56,0l-7.2,2.57a69.58,69.58,0,0,0-30.85,27.21c-8.71,13.92-13.19,28.88-13,44.8,17.5,14.37,56.59,44.83,73.65,44.83,16.31,0,54.09-27.79,73.33-42.81A85.25,85.25,0,0,0,318.32,355.43Zm-71.69,22c-16.46,0-47.43-34.46-47.43-34.46s28.87,19.15,46.53,19.15,45.82-19.15,45.82-19.15S263.09,377.4,246.63,377.4Z"/></svg>