<svg id="Layer_1" data-name="Layer 1" xmlns="http://www.w3.org/2000/svg" viewBox="0 0 521.56 503.84"><defs><style>.cls-1{fill:#1c1b1c;}</style></defs><path class="cls-1" d="M109.12,189.2c-1.7-3.1-3.43-6.19-5.09-9.31-5.06-9.55-10.15-19.08-15.11-28.68C83,139.72,77,128.24,68,118.78c-4.08-4.31-9.35-7.07-15.77-6.54-2.67.22-4.85,1.14-6.16,3.47s-.06,4.21,1.19,6.06a14.31,14.31,0,0,0,1.46,1.74c3.65,3.84,2.9,7.51-2.19,9.28-7.66,2.67-14.64.92-20.68-4.24C18,121.85,15.63,109.14,20.29,99,25.58,87.4,34.16,79.55,46.87,77c10.42-2.08,20,.36,28.59,6.5,9.19,6.6,14.63,16,18.85,26.26,2.15,5.21,4,10.53,6.06,15.82.21-.14.47-.23.47-.33.29-12.91.93-25.86-1.75-38.61-1.53-7.23-3.4-14.43-8.35-20.33a20.33,20.33,0,0,0-15.86-7.7c-5.57-.1-8.12-3.29-6.79-8.73,2.65-10.86,10.45-16.39,20.65-19,17.15-4.3,28.52,6,33.57,21.61.28.87.55,1.74,1,3.08a55.93,55.93,0,0,1,11.66-15.45c13-12.57,30.73-10.12,42.12-.41,7.29,6.21,9.59,18.49,5.28,27.23-1,2-2.78,2.55-4.06.9-4.51-5.8-16.59-5.74-22-1.79a126.87,126.87,0,0,0-14.61,12.15C128,91.69,121.76,108.92,117.36,127a14.11,14.11,0,0,0-.17,4.92c1-2.66,2-5.36,3.13-8,5.34-12.53,14.05-21.9,26.74-27,10-4.06,27.33-.56,30.92,14.79,1.33,5.66-.13,11.18-3.34,16-1.27,1.91-3.55,3-5.76,1.53-8.66-5.57-16-1.77-23.08,3.19-9,6.37-12.56,16-14.24,26.34-2.17,13.38-1,26.45,5.84,38.36,3.48,6.06,8.09,11.47,12.21,17.15.17.23.59.28.63.3-1.31-3.72-3.17-7.4-3.86-11.28-1.08-6.15-1-12.41,3.29-17.64,3.08-3.79,7.25-5.11,10.53-3.73s6.3,6.3,5.93,10.53a47.75,47.75,0,0,0,7.44,30.11c4.73,7.52,10.53,14.39,16.1,21.35,2,2.45,2.59,4.47,1.17,7.43-2.22,4.64-4.33,9.25-8.19,12.89-1.78,1.67-3.05,1.43-4.9.31-6-3.64-11.95-7.43-18.2-10.59-10.83-5.46-22.26-9.53-34.51-9.55-6.65,0-13.39,1.22-19.94,2.63-4.8,1-8.24,4.59-10.64,8.91-2.13,3.82-1.34,8.13,2.05,11.68,1.23,1.29,2.72,2.73,1.39,4.38a6.7,6.7,0,0,1-4.36,2.36c-5.45.22-11.07.84-15.92-2.78-6.69-5-9.66-11.48-9-19.94.89-11.11,7-18.79,15.92-24.24,4-2.43,9-3.49,13.74-4.07a74,74,0,0,1,16.23.07c3.94.38,7.78,1.87,11.64,2.86a1.4,1.4,0,0,0-.44-.85c-7.36-5.54-14.52-11.37-22.19-16.44a198.42,198.42,0,0,0-22-12.54,36.93,36.93,0,0,0-25.59-3c-8.07,2-10.68,10.71-9.59,15.66.71,3.21,2.43,4.54,5.61,5.19,1.23.25,3,1.15,3.25,2.11a4.82,4.82,0,0,1-1.16,3.95c-6.19,6.24-18.79,8.12-28.14,1.82-20.13-13.55-16.8-39.91-2.75-51.8,11.17-9.46,23.6-11.74,37.49-9.94,12.67,1.65,22.88,8.37,32.64,15.84,4.8,3.67,9,8.12,13.5,12.21.47.43,1,.84,1.45,1.26Z"/><path class="cls-1" d="M394.85,226.79c1.7-.52,3.25-1,4.82-1.47,10.49-2.84,21.13-3.65,31.37.28,10.81,4.13,20.83,15.88,21.1,29.12.24,12-9,20.68-20.68,20a21.53,21.53,0,0,1-5.87-.74c-3.18-1.15-3.6-4.18-1.18-6.52,3.93-3.81,3.91-9.23.19-13.29-6.18-6.75-14.12-9.28-22.91-9.91-14.52-1-27.79,3.26-40.42,9.86-6.38,3.34-12.57,7.07-18.74,10.8-2.57,1.56-4.11-.56-4.91-1.73a96.3,96.3,0,0,1-7.47-13c-.52-1.1.25-3.39,1.17-4.52,7.86-9.7,15.46-19.58,19.83-31.41a100.55,100.55,0,0,0,4.11-15.92c.56-2.91-.14-6.05.2-9,.39-3.42,1.67-6.43,5.61-7.37s7.11.21,9.92,3.23c5.15,5.53,4.19,12.16,3.53,18.63-.3,2.94-1.71,5.77-2.66,8.64a7,7,0,0,0-.64,3.39c1.8-2.3,3.62-4.59,5.41-6.9,5.93-7.64,11.29-15.68,12.73-25.45,2.13-14.48,2.08-28.9-5.4-42.12-4.35-7.69-11.29-12.46-19.91-14.52-4.1-1-7.84.87-11.57,2.27-3.3,1.24-4.58,1-6.42-2-4.07-6.58-5.14-13.44-1.4-20.53s10.07-9.89,17.69-10.63c11.9-1.16,20.53,4.82,28.23,12.79a46.77,46.77,0,0,1,11.79,20.83c.11.42.41.79,1.23,1-.42-2.46-.71-4.95-1.28-7.36-4.16-17.41-10.82-33.58-23.38-46.78-5.93-6.24-12.48-11.36-21.53-12.2-5.51-.51-10.79-.75-14.8,4.13-1.18,1.44-3,.7-3.67-1.17-6.13-17.8,3.39-29.33,18.46-33.94,12.86-3.94,24-.25,32.68,10.11,3.06,3.65,5.57,7.76,8.39,11.73,1.07-2.87,2-5.9,3.31-8.81,6.19-14.21,21.3-20.1,35.54-13.88,7.57,3.31,14,7.89,15.81,16.58a15.19,15.19,0,0,1-.62,7c-.62,2.11-2.73,2.66-4.88,2.58-8.7-.35-14.4,4.4-18.74,11.26-3.28,5.2-4.67,11.11-6.46,16.93-3.24,10.52-1.42,21.24-2,31.86A23.7,23.7,0,0,0,421,126a15.42,15.42,0,0,0,.69-1.56c4.19-12.78,9.2-25.16,18.17-35.47C449.69,77.72,468,73.36,482,78.84c14.7,5.78,24.58,23.31,21.23,37.69-2.4,10.33-10.6,17.47-21.2,17.89a20,20,0,0,1-8.49-1.92c-3.71-1.64-4-4.87-1.23-7.72a13.22,13.22,0,0,0,2-2.34c3-5-.07-10.39-5.9-10.42a19.21,19.21,0,0,0-14.05,5.68c-5.5,5.29-9.54,11.59-13.36,18-4,6.72-8.09,13.46-11.16,20.61a176.44,176.44,0,0,1-17.28,31.35c-.31.45-.21,1.18-.31,1.78l.66.25c1.28-1.35,2.49-2.76,3.84-4a108,108,0,0,1,36.95-23,45,45,0,0,1,30.95-.36C498.34,167,507.26,177,509.7,191.45c2.41,14.26-4,26.24-16.71,32.89-8.3,4.34-16.8,3.46-24.16-2.84a5.36,5.36,0,0,1-1.83-4c.15-1,1.92-2.17,3.2-2.6,4.6-1.52,5.44-2.34,5.1-7.09-.53-7.39-3.21-11.57-10.27-14-9.06-3.08-17.33-.89-25.32,2.86-13.64,6.38-26,15-37.94,24.06-2.26,1.72-4.56,3.38-6.83,5.09C394.84,225.89,394.9,226.17,394.85,226.79Z"/><path class="cls-1" d="M245.93,53.46c-.66-3.59-1.52-7.16-2-10.78a50.37,50.37,0,0,1,5.61-30.29c.23-.41.49-.81.74-1.22,5.29-8.48,13.7-9.16,19.33-1a43.69,43.69,0,0,1,7.73,31.08c-.47,3.72-1.39,7.38-2.25,11.85.77-1.16,1.18-1.69,1.51-2.27C281.33,42.66,287.32,36,297,34a17,17,0,0,1,13.59,2.77,9,9,0,0,1,4,9.17c-.56,3.59-3.53,4.9-6.63,5.85-3.7,1.12-7.64,1.76-11,3.48a44.59,44.59,0,0,0-18.7,17.86,19.43,19.43,0,0,1-1.69,2.64c-2.4,3-5,5.24-9.36,4.78-5.94-.64-11.93-.78-17.89-1.27-3.42-.29-5.42-2.71-7.45-5.2-4.05-5-8.18-9.95-12.55-14.67-3.5-3.8-8.22-5.68-13.12-7.07-.91-.25-1.79-.58-2.68-.9-4.92-1.81-6.61-3.84-6.48-7.78s3.57-8.16,7.37-9.2c7.68-2.1,14.5-.27,20.42,4.84,4.27,3.68,8.09,7.77,9.92,13.31a4.56,4.56,0,0,0,.77,1.08Z"/><path class="cls-1" d="M246.66,407.38c.37,1.26,1,2.13.75,2.71-4,11-3.83,22.77-6.14,34.1-4,19.54-14.7,34.14-31.79,44-4.51,2.61-9.75,4-14.72,5.75a3.82,3.82,0,0,1-5.07-2c-1.07-2.27.07-3.94,1.74-5.49,3.88-3.59,8-7,11.43-11,7.06-8.42,10.4-18.71,12.88-29.16,2.81-11.87,8.7-21.5,18.36-28.91C238.17,414.29,242.11,411,246.66,407.38Z"/><path class="cls-1" d="M303.92,406.93c2.73,6.85,2.78,13.73,2,20.64a67.78,67.78,0,0,0,7,38.87,66.38,66.38,0,0,0,17.88,21.82A3.21,3.21,0,0,1,329.6,494a8.56,8.56,0,0,1-3.93.15c-15.38-3-26.67-11.78-34.86-24.89A52.79,52.79,0,0,1,283.52,450c-1.45-8.5,1.59-15.28,7.1-21.59S301.75,415.68,303.92,406.93Z"/></svg>