<svg id="Layer_1" data-name="Layer 1" xmlns="http://www.w3.org/2000/svg" viewBox="0 0 595.28 566.93"><defs><style>.cls-1{fill:#233565;}</style></defs><path class="cls-1" d="M146,220.75c-1.7-3.11-3.43-6.19-5.09-9.32-5.06-9.55-10.16-19.08-15.12-28.68-5.94-11.49-12-23-20.92-32.43-4.08-4.31-9.35-7.06-15.77-6.53-2.68.22-4.86,1.13-6.16,3.46s-.06,4.22,1.19,6.06a14.41,14.41,0,0,0,1.46,1.75c3.65,3.84,2.9,7.5-2.19,9.27-7.66,2.67-14.65.93-20.68-4.24-7.82-6.69-10.21-19.4-5.55-29.58,5.28-11.57,13.87-19.42,26.58-22,10.42-2.09,20,.35,28.59,6.5,9.19,6.6,14.63,16,18.84,26.25,2.15,5.22,4.05,10.53,6.07,15.82.21-.14.47-.23.47-.33.29-12.91.93-25.86-1.76-38.6-1.52-7.24-3.39-14.43-8.34-20.33a20.3,20.3,0,0,0-15.86-7.7c-5.57-.1-8.12-3.29-6.79-8.73,2.65-10.86,10.44-16.39,20.64-19,17.16-4.3,28.53,5.94,33.57,21.6.28.87.56,1.74,1,3.08A55.89,55.89,0,0,1,171.8,71.71c13-12.57,30.73-10.12,42.12-.41,7.29,6.22,9.59,18.5,5.28,27.23-1,2-2.78,2.56-4.06.91-4.51-5.8-16.6-5.74-22-1.79a124.94,124.94,0,0,0-14.61,12.14c-13.62,13.44-19.88,30.68-24.27,48.77a13.89,13.89,0,0,0-.17,4.92c1-2.66,2-5.35,3.13-8,5.34-12.52,14-21.9,26.73-27,10-4,27.34-.55,30.93,14.8,1.33,5.66-.13,11.17-3.34,16-1.28,1.91-3.55,3-5.77,1.53-8.65-5.58-16-1.77-23.07,3.19-9,6.36-12.56,16-14.24,26.34-2.17,13.38-1,26.44,5.84,38.36,3.48,6,8.08,11.46,12.21,17.15.16.23.58.28.63.3-1.32-3.72-3.17-7.4-3.86-11.28-1.08-6.15-1-12.42,3.28-17.64,3.08-3.79,7.26-5.12,10.54-3.74s6.3,6.31,5.92,10.53a47.87,47.87,0,0,0,7.45,30.12c4.73,7.52,10.53,14.39,16.1,21.35,2,2.45,2.59,4.47,1.17,7.42-2.22,4.65-4.33,9.26-8.19,12.89-1.78,1.67-3,1.44-4.9.32-6-3.64-12-7.43-18.21-10.59-10.82-5.47-22.25-9.54-34.5-9.55-6.66,0-13.4,1.22-19.94,2.62-4.8,1-8.25,4.6-10.65,8.91-2.12,3.82-1.33,8.13,2.06,11.69,1.23,1.29,2.72,2.73,1.39,4.37A6.75,6.75,0,0,1,130.4,306c-5.46.22-11.07.83-15.92-2.78-6.69-5-9.66-11.49-9-19.94.88-11.11,7-18.79,15.92-24.25,4-2.42,9-3.48,13.73-4.07a74.64,74.64,0,0,1,16.23.07c4,.38,7.79,1.88,11.64,2.87a1.32,1.32,0,0,0-.43-.86c-7.36-5.53-14.53-11.36-22.19-16.43a196.84,196.84,0,0,0-22-12.54,37,37,0,0,0-25.6-3c-8.06,2-10.68,10.72-9.58,15.66.71,3.21,2.42,4.54,5.6,5.19,1.24.26,3,1.16,3.26,2.12a4.81,4.81,0,0,1-1.17,4c-6.18,6.24-18.79,8.11-28.14,1.82C42.69,240.2,46,213.83,60.07,201.94c11.17-9.46,23.6-11.74,37.48-9.93,12.68,1.65,22.89,8.37,32.65,15.84,4.8,3.67,9,8.11,13.5,12.2.47.43,1,.84,1.45,1.26Z"/><path class="cls-1" d="M431.71,258.34c1.7-.52,3.25-1,4.82-1.47,10.48-2.85,21.13-3.65,31.37.27,10.81,4.14,20.83,15.88,21.09,29.13.25,12-9,20.68-20.67,20a21.1,21.1,0,0,1-5.87-.75c-3.18-1.14-3.6-4.17-1.18-6.52,3.93-3.8,3.9-9.22.19-13.28-6.18-6.75-14.12-9.29-22.91-9.91-14.52-1-27.79,3.26-40.42,9.86-6.39,3.34-12.57,7.07-18.74,10.8-2.57,1.55-4.11-.57-4.91-1.73a97.54,97.54,0,0,1-7.47-13c-.52-1.1.25-3.39,1.17-4.53,7.86-9.69,15.46-19.57,19.83-31.4a100.83,100.83,0,0,0,4.11-15.92c.56-2.92-.15-6.06.19-9,.39-3.41,1.68-6.42,5.62-7.37s7.11.22,9.92,3.23c5.15,5.53,4.19,12.16,3.52,18.63-.3,2.94-1.7,5.78-2.65,8.64a6.93,6.93,0,0,0-.64,3.39c1.8-2.3,3.62-4.59,5.41-6.9,5.93-7.64,11.29-15.68,12.73-25.44,2.13-14.48,2.08-28.9-5.4-42.12-4.36-7.7-11.3-12.46-19.91-14.52-4.11-1-7.85.87-11.57,2.26-3.31,1.24-4.58,1-6.42-2-4.07-6.57-5.14-13.43-1.4-20.52s10.07-9.89,17.68-10.63c11.9-1.17,20.54,4.82,28.24,12.79a46.79,46.79,0,0,1,11.79,20.82c.11.43.41.8,1.23,1-.42-2.45-.71-4.94-1.29-7.36C435,137.35,428.36,121.17,415.8,108c-5.93-6.23-12.48-11.36-21.53-12.2-5.51-.51-10.79-.74-14.8,4.14-1.18,1.43-3,.7-3.68-1.17-6.12-17.8,3.4-29.33,18.46-33.94,12.87-3.94,24-.25,32.69,10.11,3.05,3.65,5.57,7.75,8.38,11.73,1.08-2.87,2.05-5.91,3.32-8.81,6.19-14.21,21.3-20.11,35.53-13.88,7.58,3.31,14,7.89,15.81,16.58a15.19,15.19,0,0,1-.62,7c-.61,2.11-2.72,2.66-4.87,2.57-8.71-.34-14.4,4.41-18.74,11.27-3.28,5.19-4.67,11.11-6.46,16.92-3.24,10.53-1.43,21.25-2,31.86a23.75,23.75,0,0,0,.64,7.39c.23-.52.51-1,.69-1.57,4.19-12.78,9.2-25.15,18.17-35.46,9.8-11.26,28.14-15.63,42.06-10.15,14.7,5.79,24.57,23.32,21.23,37.69-2.4,10.33-10.6,17.48-21.2,17.9a20,20,0,0,1-8.49-1.92c-3.71-1.65-4-4.87-1.23-7.72a13.7,13.7,0,0,0,2-2.35c3-5-.07-10.38-5.9-10.42a19.25,19.25,0,0,0-14.05,5.68c-5.5,5.29-9.54,11.59-13.36,18-4,6.72-8.09,13.46-11.16,20.61a176.18,176.18,0,0,1-17.28,31.36,4.51,4.51,0,0,0-.31,1.77l.66.25c1.27-1.35,2.49-2.76,3.84-4a108.1,108.1,0,0,1,37-23,44.93,44.93,0,0,1,30.94-.36c13.72,4.72,22.64,14.63,25.08,29.14,2.41,14.25-4,26.24-16.71,32.89-8.3,4.33-16.8,3.46-24.17-2.85a5.34,5.34,0,0,1-1.82-4c.15-1,1.92-2.18,3.2-2.6,4.6-1.53,5.44-2.35,5.1-7.09-.53-7.39-3.21-11.58-10.28-14-9.05-3.09-17.32-.89-25.31,2.85-13.65,6.39-26,15-37.94,24.07-2.26,1.71-4.56,3.38-6.83,5.09C431.7,257.44,431.76,257.72,431.71,258.34Z"/><path class="cls-1" d="M282.78,85c-.66-3.59-1.51-7.16-1.94-10.78a50.27,50.27,0,0,1,5.61-30.28c.22-.42.49-.82.74-1.22,5.28-8.49,13.7-9.16,19.33-1a43.81,43.81,0,0,1,7.73,31.08c-.47,3.72-1.39,7.38-2.26,11.85.78-1.15,1.18-1.68,1.51-2.26,4.68-8.18,10.68-14.81,20.39-16.85a17,17,0,0,1,13.58,2.77,9,9,0,0,1,4,9.16c-.56,3.6-3.53,4.9-6.64,5.85-3.69,1.12-7.64,1.77-11,3.49a44.59,44.59,0,0,0-18.7,17.86,21.92,21.92,0,0,1-1.69,2.64c-2.4,3-5,5.24-9.36,4.77-5.94-.64-11.93-.77-17.89-1.27-3.42-.28-5.42-2.7-7.45-5.2-4.06-5-8.18-10-12.55-14.67-3.5-3.79-8.22-5.68-13.12-7.06-.91-.26-1.79-.59-2.68-.91-4.92-1.8-6.61-3.84-6.48-7.78s3.56-8.16,7.37-9.2c7.68-2.09,14.5-.26,20.42,4.85,4.27,3.67,8.09,7.77,9.92,13.31a4.32,4.32,0,0,0,.77,1.07Z"/><path class="cls-1" d="M283.52,438.93c.37,1.25,1,2.12.75,2.71-4,11-3.83,22.77-6.14,34.09-4,19.55-14.7,34.14-31.79,44-4.51,2.6-9.75,4-14.72,5.74a3.8,3.8,0,0,1-5.07-2c-1.07-2.28.07-3.94,1.74-5.49,3.88-3.6,8.05-7,11.43-11,7.06-8.41,10.4-18.7,12.88-29.16,2.81-11.86,8.7-21.5,18.36-28.9C275,445.84,279,442.57,283.52,438.93Z"/><path class="cls-1" d="M340.78,438.47c2.73,6.85,2.77,13.73,2,20.64a67.77,67.77,0,0,0,7,38.87,66.42,66.42,0,0,0,17.88,21.83,3.22,3.22,0,0,1-1.21,5.74,8.69,8.69,0,0,1-3.93.14c-15.38-3-26.67-11.78-34.86-24.88a52.68,52.68,0,0,1-7.29-19.26c-1.45-8.5,1.59-15.29,7.1-21.59S338.61,447.23,340.78,438.47Z"/></svg>