<svg id="Layer_2" data-name="Layer 2" xmlns="http://www.w3.org/2000/svg" viewBox="0 0 595.28 566.93"><defs><style>.cls-1{fill:#094e92;}.cls-2{fill:#c19560;}</style></defs><path class="cls-1" d="M155.31,481.9c-19.85,4.54-38.62,10.51-55.89,20.25C91.31,506.72,84,512.66,76.29,518c-.84.59-1.54,1.37-2.36,2-2.15,1.67-3.35,1.22-3.71-1.53a24.44,24.44,0,0,1-.09-5.06A94,94,0,0,1,91,461c8.83-10.92,20.5-17.12,34.25-19.14,23.12-3.4,45.29.38,66.58,9.79,5.68,2.51,11.37,5,17.46,7-4.94-4.52-9.87-9.07-14.83-13.57-14.24-12.9-30.68-22.4-47.77-30.87-24.9-12.35-45.93-29.65-63.9-50.67-9.49-11.1-18.16-22.92-27.39-34.25-3-3.62-6.56-6.7-9.78-10.11a13.48,13.48,0,0,1-1.59-2.72,12.55,12.55,0,0,1,2.75-.88C67.23,314.06,86,319.17,103.19,330c7.17,4.51,14.2,9.24,21.36,13.91-2.28-4.13-4.46-8.53-7-12.66A422.43,422.43,0,0,0,69.17,267.5c-5.65-6.08-12.41-11.14-18.67-16.65a13.93,13.93,0,0,1-2-1.54c-.65-.83-1.51-1.93-1.37-2.77.1-.62,1.61-1.34,2.55-1.44A82.92,82.92,0,0,1,84.86,249c25.12,8.4,43.49,25.15,56.85,47.39,6.46,10.76,11.18,22.58,16.68,33.93a3.26,3.26,0,0,0,1.25,1.6c-.19-1-.36-2-.58-3-2.35-10.67-4.32-21.45-7.15-32a137.86,137.86,0,0,0-29-54.27c-4.14-4.83-8.76-9.24-13.08-13.91a8.13,8.13,0,0,1-1.07-2.55,6.78,6.78,0,0,1,2.54-.32c42.34,12.25,73.77,38,93.41,77.35,7.34,14.7,9.77,30.91,9.19,47.51-.53,15.41-4.94,30-8.24,44.87-4.91,22.16-1.05,42.37,16.09,58.57,8.52,8.05,17.51,15.6,26.14,23.53a139.46,139.46,0,0,1,27.54,35c.94,1.67,3.33,4,1,5.67s-3.49-1.38-4.73-2.72a105.92,105.92,0,0,0-49.18-30.69c-10.07-2.95-20.14-2.91-30,1.3a23.69,23.69,0,0,0-10.71,8.35,12.5,12.5,0,0,0,.67,14.67c3.36,4.26,8,5.46,13.33,3.67a20.53,20.53,0,0,1,4.4-.5c-.62,1.43-.91,3.17-1.92,4.24-14.17,15.07-36.68,14.47-49.15-4.51-5.68-8.66-3.71-20.87,3.81-28.14C153.61,483.44,154.23,482.89,155.31,481.9Zm18.17-77.19.92-.43c-.12-.53-.19-1.08-.36-1.6-2.55-7.42-5.17-14.81-7.66-22.25-9.31-27.9-21.59-54.22-40.76-76.89-1.92-2.28-4-4.44-6-6.66,1.79,3.64,4,6.85,6,10.25,10.87,19.12,20.47,38.86,29.5,58.91C161,379.05,167.35,391.83,173.48,404.71Zm2.16-104.4c.39,4.46.68,8.93,1.17,13.39.95,8.55,2.31,17.07,2.94,25.65,1,14,1.49,28.07,2.42,42.09.38,5.61,1.38,11.17,2.09,16.76l1.17-.13C187.07,365,187.27,332.14,175.64,300.31ZM96.35,349.08c21,19.7,43.34,37.93,65.34,56.53C144.39,381.59,121.83,363.65,96.35,349.08ZM174.47,467.5c-16.1-10.14-54.46-3.57-68.94,11.85C127.72,470,150.71,467.18,174.47,467.5Z"/><path class="cls-1" d="M436.14,332.77c2.29-5.29,4.6-10.57,6.85-15.87,8.8-20.77,21.55-38.67,39.57-52.35,18.31-13.9,38.89-21.47,62.26-19.73a14.46,14.46,0,0,1,3.66,1.3c-.66,1.15-1.07,2.64-2,3.39C538,256.09,529.79,263,523,271.32q-14.12,17.15-27.61,34.79c-6.12,8-11.84,16.4-17.4,24.85a70.47,70.47,0,0,0-6.46,13.45c2.36-1.86,4.65-3.82,7.1-5.56,14.51-10.31,29.68-19.46,47.63-22.15,7.63-1.15,15.49-.77,23.25-1a2.94,2.94,0,0,1,1.83.83,4.91,4.91,0,0,1-1,2.38c-6.22,7-12.67,13.82-18.7,21-5.84,7-11,14.49-16.91,21.4-20.51,24-44.29,43.8-73.37,56.88-20.63,9.27-37.85,23.4-53.75,39.25-.46.46-.87,1-1.3,1.47,0,0,.05.13,0,.07,7.77-3.36,15.45-6.94,23.33-10a121.1,121.1,0,0,1,49.81-8.1c19,.78,35.28,7.59,47.25,23.23a95.5,95.5,0,0,1,14.55,28.3c2.68,8,4.35,16.28,3.95,24.82a37.28,37.28,0,0,1-.85,4.41C500,499.86,471.48,488.88,441,482.27l-.86,1a10.63,10.63,0,0,1,2.41,1.35c7.69,7.41,9.16,20.61,2.65,29.09-13.85,18-35.77,17.59-49.44,2.23a36.32,36.32,0,0,1-2.31-3.48,17.08,17.08,0,0,1,3.64-.26c1.65.27,3.22,1,4.86,1.25a11.14,11.14,0,0,0,11.74-5.92c2.61-4.85,2.18-9.84-1.36-13.86-5.5-6.23-12.74-9-20.72-10.19-12.37-1.79-23.4,2.42-34.21,7.7A108.6,108.6,0,0,0,325,515a19.43,19.43,0,0,1-3,2.91,8,8,0,0,1-2.67.63c-.13-.95-.68-2.11-.32-2.8,1.86-3.67,3.79-7.33,6-10.79,9.61-15,22.1-27.36,35.92-38.52,8.7-7,16.85-14.7,22.56-24.52,6.93-11.91,9.7-24.76,7.27-38.37-2.17-12.22-5.14-24.3-7.44-36.5-6.13-32.46,1.42-61.66,21.51-87.72,15.87-20.59,35.24-36.79,59.44-46.74,6.2-2.56,12.66-4.48,19-6.57,1-.32,2.22,0,3.34.07-.51,1.08-.76,2.42-1.55,3.2-14.48,14.21-25.76,30.7-34.73,48.81-6.61,13.37-9.63,27.84-12.43,42.36-.77,4-1.51,8.05-2.26,12.07Zm42.67-37.15c-1,.84-1.51,1.19-1.93,1.61A167.94,167.94,0,0,0,453.47,327c-12.3,19.93-20.92,41.53-28.57,63.55-1.75,5-3.4,10.13-5.09,15.19a2.11,2.11,0,0,0,1.4-1.13c4.11-8,8.41-15.87,12.26-24,12.06-25.34,23.89-50.79,38.17-75C473.59,302.35,476.12,299.37,478.81,295.62ZM410,397.89c4.13-16,3.42-32.36,4.73-48.55s3.26-32.44,4.93-48.66l-.92-.08C408,332.31,408,365,410,397.89Zm23.29,7.92c9.93-6.54,63.75-53.25,65.59-56.93C478.65,358.83,440.07,392.31,433.25,405.81Zm57.43,73.59c-10-9-26.45-16-40.43-16.66A84.37,84.37,0,0,0,419.78,467c12.05.88,24,1.35,35.81,2.72S478.85,474.73,490.68,479.4Z"/><path class="cls-2" d="M428.3,138.45c-1.19-6.8-2.9-13.56-3.47-20.41-1.31-15.83-1.1-31.69,7.2-45.88,3.15-5.4,7.9-10,12.45-14.41,12.87-12.5,28.68-17.83,46.41-18.15C509.3,39.26,535,54,538.41,79.51c1.65,12.19-.24,23-7,33.15-9.06,13.63-27.8,19.27-41.91,12.25-7.45-3.7-12.81-9.48-12.61-18.39.14-6,3.22-10.86,8.46-14.1a6.79,6.79,0,0,1,2.32-.94c2.19-.42,2.7.47,2.21,2.68a36.13,36.13,0,0,0-1.27,9c.15,3.66,3.08,6.23,6.68,6.93,11.8,2.28,19.26-6.79,20.39-16.82,1.72-15.33-13.25-28.45-29.62-28.13-19.14.37-37.85,14.35-42.65,36.22-3,13.78-1.65,27.32.83,41,1.47,8.08,2.91,16.3,2.92,24.46,0,7.46-1.88,14.94-2.84,21.69,3.17-3.58,6.9-7.83,10.66-12a75.2,75.2,0,0,1,42.06-24.33c20-4,38.84,2.91,48.13,21.8,5.77,11.72,6,23.77-2.57,34.67-8.36,10.67-25.16,12-34.27,3.13-4.29-4.19-5.17-9.14-3.9-14.7.12-.53.72-1.29,1.14-1.32a3,3,0,0,1,1.84.81c.39.33.5,1,.77,1.47,3.9,6.94,11.11,8,16.94,2.58,6.31-5.92,5.21-16.5-2.28-22.07-5.74-4.27-12.29-5.42-19.19-4.6-14.27,1.71-26.05,8.89-37.08,17.49-11.79,9.19-21.35,20.48-30.41,32.28-3.12,4.07-7,7.6-10.57,11.28-.6.6-1.74.68-2.62,1a8.53,8.53,0,0,1-.35-2.82c1.67-7.09,3.72-14.09,5.15-21.22,3-14.88.58-29.26-4.89-43.2-6.65-17-18.09-30-33-40.25a56.18,56.18,0,0,1-5.21-3.82,3.5,3.5,0,0,1-1.19-2.53c.06-.54,1.32-1.22,2.13-1.39a34.77,34.77,0,0,1,18.78,1.39c7.59,2.62,14.33,6.39,19.56,12.62,1.19,1.42,2.55,2.7,3.83,4Z"/><path class="cls-2" d="M166.87,138.87c3.94-3.69,7.22-7.36,11.09-10.26,9.2-6.88,19.51-10.2,31.11-8.06,1,.19,2.73,1.08,2.73,1.63a4.85,4.85,0,0,1-1.59,3.32c-2.32,1.87-5,3.31-7.38,5.12-20.58,15.52-33.27,35.8-36.34,61.58A76,76,0,0,0,170,224.93c.9,2.75,1.79,5.51,2.49,8.31a8,8,0,0,1-.34,2.81c-.88-.35-2.05-.45-2.6-1.09-5.68-6.61-11.49-13.11-16.81-20-12.36-16-27.13-29-45.81-37.13-8.38-3.65-17.17-5.58-26.26-3-6.68,1.88-12.08,5.59-14.18,12.72-2,6.93,2.82,15,9.84,16.45,3.41.71,8.18-1.78,10.63-5.57a12.75,12.75,0,0,1,1-1.69c.52-.55,1.5-1.47,1.77-1.32a3.57,3.57,0,0,1,1.6,2c1.9,8.22-2.1,15.35-10.3,18.51-14,5.41-29.86-3.15-33.47-18.42C43.88,181.92,50,169.64,61.78,160s25.6-10.76,39.9-7c15.3,4.06,28.5,11.71,39,23.76,3.43,3.94,6.88,7.86,10.47,12-.77-4.52-1.55-8.87-2.25-13.24-1.58-9.77-.56-19.4,1.42-29,2.26-10.93,4.15-21.9,3.18-33.16-1.14-13.25-4-25.78-14.23-35.33-9.3-8.67-20.07-13.53-33.08-12.66-12.06.8-23.06,9.28-25.78,20.08-2.55,10.14,2.37,21.1,11.2,23.9a19.7,19.7,0,0,0,9.32.36c5.07-1,7.46-6.12,6-11.79-.31-1.27-1-2.45-1.26-3.71a3,3,0,0,1,.22-2.34,2.74,2.74,0,0,1,2.3-.2c4.89,1.48,10,7.94,10.31,13,.68,9.72-5.35,18.31-15.27,21.55-13.48,4.4-25,.16-34.92-8.86s-13-20.69-11.61-33.72c.87-8,2.61-15.81,7.59-22.32C76,46.08,91,38.22,110.76,39.89c13.29,1.13,25.32,5.25,35.52,13.7a126.07,126.07,0,0,1,15.31,15.68c5.12,6,6.57,13.71,8.1,21.25,2.93,14.47.76,28.71-1.89,42.94C167.49,135.1,167.23,136.75,166.87,138.87Z"/><path class="cls-2" d="M304,343.42c-.62-10.5-1.16-20.7-1.88-30.89-.14-2.07.49-2.7,2.44-2.61,15,.68,30,1.29,45,2,3.32.15,3.55.83,3,3.71-1.39,7.35-3.15,14.7-3.62,22.12-.84,13.47-.84,27-1.23,40.49-.14,5.06-.33,10.12-.6,15.17a2.74,2.74,0,0,1-1,2c-9.57,4.52-16.2,12.32-22.64,20.26-8.78,10.85-15.22,23.14-21.38,35.59a20.26,20.26,0,0,1-1.37,2.76,14.71,14.71,0,0,1-2.05,2.05c-.55-1-1.63-2-1.58-3,.23-3.91.86-7.8,1.23-11.72.76-8.2,1.69-16.41,2.13-24.63C301.7,392.23,302.82,367.69,304,343.42Z"/><path class="cls-2" d="M238.1,367.85c8.26.34,16.38.7,24.51,1,8,.3,15.94.53,23.9.82,2.73.1,3,.55,1.9,3-4.14,9.07-5.75,18.77-7.2,28.5-2.59,17.46-2.22,35-.46,52.46a181.84,181.84,0,0,0,8.15,38.68,29.74,29.74,0,0,1,1.25,5.17,2.35,2.35,0,0,1-1,2,2.43,2.43,0,0,1-2-.92c-10.7-14.43-23.71-26.51-37.82-37.51-5.54-4.33-11.13-8.74-14.66-15-4.24-7.51-4.21-15.64-2.45-23.77,1.51-6.94,3.91-13.69,5.19-20.67,2-10.82,2.59-21.76.68-32.72A6.54,6.54,0,0,1,238.1,367.85Z"/><path class="cls-2" d="M357.29,205.41c-1,4.16-2.3,7.9-2.82,11.75-1,7.05-1.69,14.14-2.12,21.24-1.13,18.64-1.91,37.29-.71,56,.21,3.22,1.16,6.38,1.79,9.7l-52-2.34c.44-2.47,1-4.89,1.28-7.35,1-10,2.31-19.93,2.67-29.93.49-14.05.51-28.13.15-42.19-.15-5.62-1.71-11.24-2.91-16.8-.64-3-.44-3.63,2.62-3.46q24.45,1.34,48.88,2.76A21.94,21.94,0,0,1,357.29,205.41Z"/><path class="cls-2" d="M241.55,262.57c4.86-.4,9.49-.85,14.13-1.15,11.61-.74,23.22-1.38,34.82-2.14,2.52-.17,3.1.49,2.78,3.18-1.22,10.32-2.42,20.66-3,31-.74,13.58-1.22,27.18-1.17,40.77,0,8.21,1.24,16.41,2,24.61.29,3,0,3.54-3,3.43-15.74-.58-31.49-1.2-47.24-1.76-1.8-.06-2.46-.4-2-2.47,1.54-7.42,3.34-14.83,4.12-22.33,1-10.15,1.5-20.39,1.71-30.59.18-9.08-.08-18.19-.63-27.25C243.84,273,242.53,268.16,241.55,262.57Z"/><path class="cls-2" d="M240.48,254.55A314.47,314.47,0,0,0,234,159.49l53.24-6.85c-.38,5.2-1.13,9.76-1,14.29.54,15.64,1.45,31.27,2.11,46.9a176.12,176.12,0,0,0,4.5,33.35c.91,3.81.43,4-3.48,4.2C273.28,252.36,257.21,253.46,240.48,254.55Z"/><path class="cls-2" d="M358.54,197.07l-55.47-3.43c.7-3.31,1.71-6.43,2-9.62,1-11.31,2-22.58,5-33.59,7.81-28.59,24.43-50.1,51.08-63.43,5.76-2.88,11.9-5,17.9-7.41a6.63,6.63,0,0,1,2.57.09c0,.77.16,1.7-.2,2.29-10.68,17.78-15.8,37.53-20.12,57.51-3,13.67-4.93,27.52-4.58,41.56.1,4.28.88,8.54,1.37,12.81C358.17,194.84,358.35,195.83,358.54,197.07Zm-11.77-81.14a11.72,11.72,0,0,0-1.47,1c-14.91,14.45-25.47,31.35-29.09,52.08-.55,3.16-.52,6.42-.76,9.63l.77,0C323.37,156.34,333.91,135.63,346.77,115.93Z"/><path class="cls-2" d="M286.54,144.61l-54.85,7.1c.19-1.82.59-3.9.62-6,.26-22.74-2-45.09-10.89-66.33-2.77-6.65-5.72-13.23-8.49-19.88a10.65,10.65,0,0,1-.29-3.13,14.53,14.53,0,0,1,2.89.19,134.94,134.94,0,0,1,45.82,22.53c13.92,10.54,20.54,24.34,21.45,41.36.23,4.12.16,8.29.79,12.34S285.55,140.76,286.54,144.61Z"/><path class="cls-2" d="M76.17,391.65c14,.78,26,6.09,35.22,17,3.88,4.57,7.5,9.35,11.14,14.11.51.68.43,1.82.62,2.75-.94,0-2,.32-2.79-.06-10.18-5.2-21.1-7.52-32.39-8.14-8.32-.46-16.32.7-22.64,6.9-7.38,7.24-5.88,17.28,3.28,22.1,1.55.82,3.35,1.15,5,1.89a3.54,3.54,0,0,1,1.89,1.75c.14.47-.7,1.49-1.34,1.9a18.46,18.46,0,0,1-12.35,2.8c-16.17-1.86-23.51-15.82-21.84-29.56,1.3-10.72,5.46-19.76,14.3-26.29C60.68,394,68.05,391.91,76.17,391.65Z"/><path class="cls-1" d="M187.5,208.3c-.37-12.38,3.66-23.21,11.17-32.86a30,30,0,0,1,2.53-2.64c1.79-1.8,3.48-1.76,5.32.08,9.3,9.34,15.12,20.46,15.29,33.68.11,8.56-1.17,17.18-2.33,25.7-1.74,12.72-2.25,25.35.54,38a37.32,37.32,0,0,1,.69,7.24c0,.77-.79,1.56-1.23,2.33-.73-.46-1.84-.76-2.14-1.42-7.46-16.17-19.41-29.9-25.46-46.81A78,78,0,0,1,188.59,220C187.87,216.19,187.84,212.21,187.5,208.3Z"/><path class="cls-2" d="M555.59,427.91c0,13-6.85,22.71-18.28,25.88a19.44,19.44,0,0,1-15.68-2c-.77-.45-1.18-1.5-1.75-2.27a19.1,19.1,0,0,1,2.24-1.46,57.07,57.07,0,0,0,5.82-2.69c8.9-5.59,9.22-16.47.79-22.71-6.47-4.78-13.94-5.87-21.61-5.47a80.18,80.18,0,0,0-31.53,8.18c-.79.39-1.9.15-2.86.21.12-.94-.1-2.1.38-2.77,6.5-9.1,13.09-18.19,22.9-24.08,10.85-6.51,22.56-9.21,35-5.5C545.7,397.7,555.57,411.94,555.59,427.91Z"/><path class="cls-1" d="M407.83,212.53c-.3,9.92-4.25,20.52-9.82,30.5-5.11,9.16-10.75,18-16.11,27.06-1.33,2.25-2.38,4.68-3.73,6.92a13.1,13.1,0,0,1-2.38,2.32c-.33-1.22-1.07-2.49-.92-3.65.43-3.43,1.18-6.82,1.86-10.21,1.83-9.28.6-18.49-.39-27.74s-2.48-18.46-2.32-27.67c.27-15.13,7.05-27.72,17.73-38.3,1.81-1.8,2.81-1.32,4.11.54C404.18,184.13,407.93,196.05,407.83,212.53Z"/><path class="cls-2" d="M365.51,407a10.4,10.4,0,0,1-1.41,2.76c-11.77,11.89-18.62,26.75-25.64,41.58-6.24,13.17-12.43,26.44-19.75,39-4.61,7.93-11.25,14.68-17,22a43.43,43.43,0,0,1-3,3.72,12.75,12.75,0,0,1-2.67,1.62c-.41-.94-1.21-1.9-1.18-2.82a145.35,145.35,0,0,1,4.44-31c5.07-19.79,13.49-37.88,27.45-53,9.76-10.58,20.91-19.31,34.87-23.83a27.82,27.82,0,0,1,3.17-.65Z"/></svg>