<svg id="Layer_2" data-name="Layer 2" xmlns="http://www.w3.org/2000/svg" viewBox="0 0 566.93 566.93"><defs><style>.cls-1{fill:#094e92;}.cls-2{fill:#c19560;}</style></defs><path class="cls-1" d="M171.11,375.07c-11.28.18-22.14,1.26-32.62,4.55-4.92,1.55-9.58,3.92-14.35,5.94-.53.22-1,.56-1.51.81-1.36.66-2,.28-1.83-1.26a13,13,0,0,1,.53-2.75,52,52,0,0,1,17.34-26,29.05,29.05,0,0,1,20.76-6.44c12.92.81,24.5,5.41,35,13a102.8,102.8,0,0,0,8.66,5.8c-2.16-3-4.31-6.05-6.49-9.06-6.23-8.62-14.05-15.66-22.34-22.21a111.94,111.94,0,0,1-28.8-34.8c-3.87-7.11-7.21-14.51-10.92-21.71-1.18-2.3-2.78-4.39-4.13-6.6a7,7,0,0,1-.55-1.66,6.71,6.71,0,0,1,1.59-.16,50.06,50.06,0,0,1,28.9,14.27c3.37,3.27,6.63,6.64,10,10-.76-2.51-1.44-5.14-2.36-7.68A234.07,234.07,0,0,0,149.05,249c-2.36-3.94-5.44-7.46-8.2-11.16-.27-.38-.7-.66-.9-1.07s-.59-1.22-.42-1.66,1-.54,1.55-.48a45.81,45.81,0,0,1,18.61,6.14c12.64,7.44,20.68,18.62,25.36,32.21,2.27,6.58,3.47,13.52,5.15,20.3a1.71,1.71,0,0,0,.49,1c0-.56,0-1.13,0-1.69-.05-6.06.12-12.12-.2-18.16a76.47,76.47,0,0,0-9.47-32.74c-1.69-3.09-3.69-6-5.5-9a4.77,4.77,0,0,1-.28-1.51,4.1,4.1,0,0,1,1.42.12c21.53,11.5,35.61,29.06,41.73,52.65,2.29,8.82,1.74,17.88-.47,26.8-2.06,8.3-6.13,15.7-9.63,23.38-5.2,11.44-5.43,22.84,2,33.59,3.69,5.34,11.47,15.75,11.47,15.75a37.75,37.75,0,0,1-.55,5.3,41.92,41.92,0,0,1-1.75,4.47s-7.74-6.31-12.29-8.75a24,24,0,0,0-16.38-2.74,13.13,13.13,0,0,0-6.76,3.3,6.91,6.91,0,0,0-1.33,8,6.23,6.23,0,0,0,6.81,3.52,11.38,11.38,0,0,1,2.44.23,8.18,8.18,0,0,1-1.53,2.08c-9.41,6.53-21.54,3.62-26.12-8.09-2.08-5.34.39-11.74,5.3-14.82Zm18.71-39.74.55-.13a6.91,6.91,0,0,0,0-.91c-.53-4.31-1.1-8.62-1.59-12.94-1.85-16.19-5.48-31.86-13.26-46.35-.78-1.45-1.64-2.86-2.46-4.29.55,2.18,1.41,4.18,2.06,6.24,3.7,11.61,6.63,23.41,9.22,35.31C186,320,188,327.64,189.82,335.33ZM203,279c-.31,2.47-.66,4.93-.91,7.39-.47,4.75-.71,9.52-1.35,14.24-1,7.72-2.42,15.39-3.52,23.09-.44,3.09-.54,6.22-.79,9.33l.64.06C201.75,315.39,205.63,297.58,203,279Zm-48.57,17.32c9.13,13.1,19.12,25.54,28.91,38.15C176.71,319.45,166.55,307.14,154.42,296.31Zm28.73,73.16c-7.57-7.35-29.11-8.19-38.72-1.5C157.52,365.45,170.31,366.57,183.15,369.47Z"/><path class="cls-1" d="M378.88,157.74c1.34-3.09,2.69-6.17,4-9.27,5.14-12.13,12.58-22.59,23.1-30.58,10.7-8.12,22.72-12.54,36.37-11.52a8.07,8.07,0,0,1,2.14.76,6.59,6.59,0,0,1-1.2,2,83.58,83.58,0,0,0-13.7,12.74q-8.25,10-16.13,20.32c-3.58,4.69-6.91,9.58-10.16,14.51a41,41,0,0,0-3.77,7.86c1.38-1.09,2.71-2.23,4.14-3.25,8.48-6,17.34-11.37,27.82-12.94,4.46-.67,9.05-.45,13.58-.59a1.74,1.74,0,0,1,1.07.49,2.86,2.86,0,0,1-.6,1.39c-3.63,4.1-7.4,8.07-10.92,12.26s-6.43,8.46-9.88,12.5c-12,14-25.87,25.59-42.85,33.22-12,5.42-22.11,13.67-31.4,22.93-.27.27-.51.57-.75.86,0,0,0,.07,0,0,4.53-2,9-4.05,13.62-5.86a70.9,70.9,0,0,1,29.1-4.73c11.12.46,20.6,4.44,27.59,13.57a55.78,55.78,0,0,1,8.5,16.53,39.94,39.94,0,0,1,2.31,14.5,22.63,22.63,0,0,1-.5,2.57c-14.23-12.69-30.85-19.1-48.65-23l-.5.57a6.42,6.42,0,0,1,1.41.79c4.49,4.33,5.35,12,1.55,17-8.1,10.53-20.9,10.27-28.88,1.3a20.65,20.65,0,0,1-1.35-2,9.68,9.68,0,0,1,2.13-.15c1,.16,1.88.6,2.84.72a6.48,6.48,0,0,0,6.85-3.45,6.78,6.78,0,0,0-.79-8.1c-3.21-3.63-7.44-5.27-12.11-5.95-7.22-1-13.66,1.41-20,4.5.12-4-.25-10.13.64-13.34,5.08-4.1,11.22-9.69,14.55-15.43a32.23,32.23,0,0,0,4.25-22.41c-1.27-7.13-3-14.19-4.35-21.31-3.58-19,.83-36,12.57-51.24,9.26-12,20.58-21.49,34.71-27.3,3.62-1.49,7.4-2.62,11.12-3.84a5.85,5.85,0,0,1,1.95.05,6.43,6.43,0,0,1-.9,1.86,104,104,0,0,0-20.28,28.51c-3.87,7.81-5.63,16.26-7.26,24.74-.46,2.35-.89,4.7-1.33,7.05ZM403.81,136c-.59.49-.89.69-1.13.94A98.21,98.21,0,0,0,389,154.38c-7.18,11.64-12.21,24.25-16.68,37.12-1,2.94-2,5.91-3,8.87a1.21,1.21,0,0,0,.82-.66c2.4-4.66,4.91-9.27,7.16-14,7.05-14.8,14-29.67,22.3-43.8C400.76,140,402.23,138.23,403.81,136Zm-40.22,59.73c2.42-9.33,2-18.9,2.77-28.35s1.9-18.95,2.88-28.42l-.54-.06C362.43,157.47,362.42,176.58,363.59,195.77Zm13.6,4.63c5.8-3.82,37.24-31.1,38.32-33.25C403.71,173,381.18,192.51,377.19,200.4Zm33.55,43a41.52,41.52,0,0,0-23.61-9.73,49.29,49.29,0,0,0-17.8,2.5c7,.51,14,.79,20.92,1.59S403.83,240.66,410.74,243.38Z"/><path class="cls-2" d="M285,336.21c-.57-9.59-1.06-18.9-1.71-28.2-.14-1.89.44-2.46,2.22-2.38,13.68.61,27.37,1.17,41.06,1.81,3,.14,3.24.75,2.74,3.39-1.26,6.7-2.87,13.41-3.3,20.19-.77,12.3-.77,24.65-1.12,37-.14,4.62-.31,9.24-.55,13.86a2.49,2.49,0,0,1-.95,1.85c-8.73,4.13-14.79,11.24-20.67,18.5-8,9.9-13.89,21.13-19.52,32.49a18.59,18.59,0,0,1-1.25,2.53,15,15,0,0,1-1.87,1.87c-.51-.91-1.49-1.84-1.44-2.71.21-3.58.79-7.13,1.12-10.7.7-7.5,1.54-15,1.94-22.5C282.92,380.78,283.94,358.37,285,336.21Z"/><path class="cls-2" d="M224.85,358.52c7.54.31,15,.64,22.38.92s14.55.49,21.82.75c2.49.09,2.77.5,1.73,2.77-3.78,8.28-5.25,17.14-6.57,26-2.36,15.93-2,31.94-.42,47.9a167,167,0,0,0,7.44,35.32,26.4,26.4,0,0,1,1.14,4.72,2.1,2.1,0,0,1-.92,1.8c-.46.18-1.47-.33-1.84-.83-9.77-13.18-21.65-24.21-34.54-34.26-5.06-3.95-10.16-8-13.38-13.69-3.88-6.85-3.85-14.28-2.24-21.69,1.38-6.34,3.57-12.51,4.74-18.88a84.26,84.26,0,0,0,.62-29.88A4.68,4.68,0,0,1,224.85,358.52Z"/><path class="cls-2" d="M334.75,207.72c-.94,3.79-2.1,7.21-2.57,10.73-.88,6.43-1.55,12.91-1.94,19.39-1,17-1.75,34-.65,51.09a75.74,75.74,0,0,0,1.63,8.86l-47.46-2.14c.4-2.26.94-4.47,1.17-6.71.89-9.1,2.11-18.2,2.43-27.33.44-12.83.46-25.69.13-38.53-.13-5.13-1.56-10.26-2.65-15.33-.58-2.72-.4-3.32,2.4-3.16q22.31,1.2,44.62,2.52A19,19,0,0,1,334.75,207.72Z"/><path class="cls-2" d="M228,262.39c4.43-.36,8.66-.77,12.9-1.05,10.6-.67,21.2-1.26,31.79-1.95,2.31-.15,2.83.44,2.54,2.9-1.12,9.43-2.2,18.87-2.72,28.34-.69,12.39-1.12,24.82-1.07,37.23,0,7.49,1.13,15,1.85,22.46.27,2.74,0,3.24-2.69,3.14-14.38-.53-28.75-1.1-43.13-1.61-1.64-.06-2.25-.36-1.86-2.26,1.41-6.77,3-13.53,3.76-20.39,1-9.27,1.38-18.61,1.57-27.93.16-8.29-.08-16.6-.58-24.88C230.09,271.92,228.89,267.5,228,262.39Z"/><path class="cls-2" d="M228.09,252.59a287.41,287.41,0,0,0-6-86.81l48.61-6.25c-.34,4.75-1,8.91-.89,13.05.49,14.28,1.33,28.55,1.93,42.83a161.15,161.15,0,0,0,4.11,30.45c.83,3.48.39,3.62-3.17,3.83C258,250.59,243.36,251.59,228.09,252.59Z"/><path class="cls-2" d="M335.89,200.11,285.24,197a74.25,74.25,0,0,0,1.81-8.79c.91-10.32,1.81-20.61,4.56-30.67,7.13-26.1,22.3-45.74,46.64-57.91,5.26-2.63,10.86-4.59,16.34-6.77a6.28,6.28,0,0,1,2.35.08c-.05.7.14,1.55-.18,2.09-9.75,16.24-14.43,34.27-18.37,52.52-2.71,12.48-4.5,25.12-4.19,37.95.1,3.9.81,7.79,1.25,11.69C335.55,198.07,335.72,199,335.89,200.11ZM325.14,126a9.91,9.91,0,0,0-1.33.94c-13.62,13.19-23.26,28.63-26.57,47.56-.5,2.88-.48,5.86-.7,8.79l.71,0C303.77,162.91,313.4,144,325.14,126Z"/><path class="cls-2" d="M270.15,152.2l-50.09,6.49c.18-1.67.54-3.57.57-5.46.23-20.77-1.86-41.18-9.95-60.58-2.53-6.07-5.22-12.07-7.75-18.14a9.94,9.94,0,0,1-.27-2.86,12.84,12.84,0,0,1,2.65.17,123.14,123.14,0,0,1,41.83,20.57c12.72,9.62,18.76,22.22,19.6,37.77a111.23,111.23,0,0,0,.72,11.27A110.77,110.77,0,0,0,270.15,152.2Z"/><path class="cls-2" d="M341.19,394.23a9.15,9.15,0,0,1-1.3,2.53c-10.74,10.85-17,24.42-23.41,38-5.7,12-11.34,24.14-18,35.63-4.22,7.24-10.28,13.41-15.52,20.06a37.46,37.46,0,0,1-2.73,3.39,11.19,11.19,0,0,1-2.43,1.48c-.38-.86-1.1-1.73-1.08-2.58a132.35,132.35,0,0,1,4.06-28.34c4.62-18.08,12.32-34.6,25.06-48.42,8.91-9.66,19.1-17.63,31.84-21.76a25.24,25.24,0,0,1,2.9-.59Z"/></svg>