<svg width="140" height="170" viewBox="0 0 140 170" fill="none" xmlns="http://www.w3.org/2000/svg">
<path d="M69.9106 73.6722C69.7006 73.6994 69.6228 73.5557 69.5217 73.4586C65.8273 69.963 61.6895 67.0499 57.6528 63.9971C55.6189 62.4435 55.6073 62.4745 57.5867 60.9675C60.983 58.3782 64.3676 55.7888 67.7406 53.1995C68.4445 52.6557 69.1017 52.0576 69.7667 51.4672C70.2256 51.0788 70.6184 51.1099 71.0773 51.4944C72.6328 52.7917 74.1612 54.0889 75.7439 55.3318C78.3728 57.3981 81.0134 59.4567 83.8173 61.286C83.9884 61.4026 84.1712 61.5035 84.3384 61.6278C85.0423 62.1561 85.0423 62.5872 84.3034 63.061C81.5267 64.8244 78.9367 66.8518 76.2884 68.7939C74.3439 70.2115 72.52 71.7535 70.6456 73.2527C70.4301 73.4388 70.1805 73.5813 69.9106 73.6722Z" fill="#BE986A"/>
<path d="M70.3889 118.906C70.1817 118.848 69.9867 118.753 69.8134 118.626C66.0761 115.713 62.4245 112.691 58.6017 109.891C57.9367 109.405 57.1745 109.052 56.5872 108.45C55.7667 107.599 55.7667 107.191 56.7195 106.57C61.0711 103.735 64.9872 100.332 69.0122 97.0774C69.6617 96.5492 70.1789 96.3938 70.7972 97.0385C73.1617 99.4311 75.985 101.253 78.6217 103.307C80.2822 104.601 81.97 105.855 83.6461 107.121C84.5017 107.77 84.4784 107.968 83.6461 108.628C80.0022 111.46 76.2572 114.159 72.7572 117.173C72.2705 117.606 71.8108 118.067 71.3806 118.556C71.2751 118.713 71.1216 118.832 70.9429 118.895C70.7642 118.958 70.5698 118.962 70.3889 118.906Z" fill="#BE986A"/>
<path d="M90.3039 143.282C86.33 141.427 82.62 139.054 79.2712 136.224C75.5534 133.012 72.6251 129.338 71.2717 124.541C71.1412 124.018 70.8726 123.539 70.4939 123.155C69.7162 122.432 69.2184 122.292 68.8062 123.392C66.64 129.171 62.7278 133.673 58.2595 137.763C55.6228 140.186 52.5195 141.918 49.5328 143.826C48.8095 144.288 48.7784 144.645 49.4978 145.099C49.8867 145.352 50.3262 145.558 50.7306 145.806C58.5084 150.568 65.3412 156.223 68.6195 165.153C68.7034 165.399 68.8519 165.619 69.0495 165.789C69.2471 165.959 69.4867 166.073 69.7434 166.12C69.9167 166.125 70.0878 166.08 70.2362 165.991C70.3845 165.901 70.5038 165.771 70.5795 165.615C70.7832 165.256 70.9625 164.883 71.1162 164.5C72.3412 161.781 73.3989 158.954 75.4367 156.693C78.1365 153.692 81.2722 151.113 84.7389 149.042C86.503 148.023 88.3351 147.126 90.2223 146.358C90.9378 146.051 91.8284 145.667 91.8673 144.777C91.9062 143.888 91.0001 143.612 90.3039 143.282ZM79.8973 145.224C78.0656 146.478 76.1678 147.636 74.5228 149.147C72.8778 150.658 71.6062 152.417 70.2878 154.169C69.7239 154.918 69.51 154.945 69.0512 154.141C67.3945 151.298 65.0534 149.092 62.5178 147.073C61.5265 146.327 60.4665 145.676 59.3523 145.131C58.5045 144.684 58.5162 144.431 59.3523 143.965C63.2723 141.767 66.3678 138.66 69.0862 135.164C69.8406 134.189 70.2256 134.166 70.8595 135.187C73.0878 138.772 76.1678 141.437 79.8039 143.526C80.1539 143.728 80.5817 143.86 80.5817 144.183C80.584 144.405 80.5202 144.623 80.3984 144.809C80.2765 144.995 80.1021 145.141 79.8973 145.228V145.224Z" fill="#BE986A"/>
<path d="M90.72 23.7897C86.8116 22.2904 83.3311 20.0338 80.0683 17.4859C77.1011 15.1826 74.3866 12.6503 72.6133 9.25174C71.9133 7.90787 71.4272 6.48631 70.7894 5.12302C70.5444 4.59479 70.3344 3.85683 69.6811 3.86459C69.0277 3.87236 68.7905 4.61033 68.5727 5.19681C67.6969 7.61535 66.4747 9.89435 64.9444 11.9628C62.0597 15.7014 58.5621 18.9254 54.6 21.4981C52.9238 22.6167 51.17 23.5993 49.4822 24.6907C48.8016 25.1335 48.7783 25.7084 49.4433 26.1511C49.9917 26.5017 50.5679 26.807 51.1661 27.0639C52.0351 27.4305 52.8715 27.8697 53.6666 28.3767C57.3171 30.7812 60.6422 33.6452 63.56 36.8982C65.7996 39.2758 67.4755 42.1257 68.4639 45.2373C68.6121 45.746 68.8128 46.238 69.0627 46.7054C69.5022 47.5055 70.0311 47.5638 70.6611 46.8919C70.9041 46.6346 71.1014 46.3377 71.2444 46.0141C71.575 45.2373 71.8861 44.4604 72.1466 43.6836C72.8778 41.3267 74.1161 39.1579 75.775 37.3294C79.326 33.454 83.55 30.2524 88.2427 27.8795C89.1955 27.4018 90.1094 26.858 91.0311 26.3259C91.2902 26.1948 91.5124 26.001 91.6775 25.7622C91.8425 25.5235 91.9452 25.2473 91.9761 24.9587C91.9216 24.2286 91.2916 24.011 90.72 23.7897ZM80.0061 26.4696C76.2922 28.3456 73.675 31.3713 71.2755 34.6261C71.0305 34.9601 70.77 35.2786 70.4977 35.5971C70.4382 35.6802 70.3609 35.7491 70.2714 35.7988C70.182 35.8485 70.0826 35.8778 69.9805 35.8845C69.5343 35.6978 69.1737 35.3515 68.9694 34.9135C67.3278 32.3656 65.2162 30.1526 62.7472 28.3922C61.771 27.6769 60.7293 27.0553 59.6361 26.5357C59.2472 26.3531 58.7183 26.1939 58.6989 25.6889C58.6794 25.184 59.22 25.118 59.5661 24.9121C63.35 22.6827 66.5661 19.8435 68.8372 16.0566C68.9305 15.9051 69.02 15.7497 69.125 15.606C69.6111 14.9341 69.9727 14.9185 70.3811 15.6332C71.6037 17.66 73.1229 19.4928 74.8883 21.0708C76.4439 22.5196 78.2327 23.6032 79.9905 24.7568C81.06 25.487 81.0911 25.922 80.0061 26.4696Z" fill="#BE986A"/>
</svg>
