<svg width="70" height="105" viewBox="0 0 70 105" fill="none" xmlns="http://www.w3.org/2000/svg">
<path d="M64.9207 56.7916C63.8949 55.214 62.9542 53.7024 61.7984 52.337C59.9563 50.1687 57.8687 48.2204 55.5775 46.5312C50.0335 42.4464 43.6234 39.6864 36.8413 38.4639C32.8156 37.7155 28.6974 37.5994 24.6357 38.1196C18.1855 38.9308 12.3451 41.2678 7.32718 45.4747C6.08507 46.4923 4.9459 47.6289 3.92598 48.8681C3.86319 48.9767 3.77347 49.0674 3.66544 49.1314C3.55741 49.1954 3.43469 49.2306 3.30908 49.2337C3.36045 48.1277 3.54131 47.0316 3.84798 45.9676C5.02977 41.3998 7.157 37.3768 10.674 34.1555C13.9646 31.1188 18.0717 29.106 22.492 28.3638C24.7826 27.9471 27.1183 27.8345 29.4385 28.029C32.9017 28.3583 36.3 29.1785 39.5311 30.465C44.0889 32.2393 48.318 34.7602 52.0439 37.9239C55.8789 41.1664 59.1793 44.99 61.8244 49.2549C63.1862 51.3717 64.2308 53.6756 64.9254 56.0936C65.0134 56.3183 65.0117 56.5681 64.9207 56.7916Z" fill="#1C1B1C"/>
<path d="M65.6345 41.9751C65.1003 40.5461 64.6678 39.0793 64.0721 37.6715C62.6868 34.3825 61.0888 31.1867 59.2882 28.1044C57.5616 25.1219 55.5916 22.2864 53.3982 19.6267C49.8528 15.3584 45.8181 11.6089 41.013 8.73197C37.7485 6.74323 34.1418 5.37743 30.3768 4.70421C31.8579 3.86041 33.4567 3.24129 35.1205 2.86719C39.2698 1.91276 43.6085 2.19232 47.6003 3.67133C50.5589 4.77871 53.1925 6.60769 55.2607 8.99137C59.4537 13.6912 61.6424 19.3437 63.1976 25.3028C64.2412 29.3877 64.9698 33.5463 65.3768 37.7422C65.521 39.1453 65.7125 40.5437 65.8803 41.9421L65.6345 41.9751Z" fill="#1C1B1C"/>
<path d="M17.8569 69.2434C22.7448 65.8524 27.81 62.5957 33.4282 60.6266C39.0465 58.6576 45.3218 58.0586 50.9448 60.0159C56.5678 61.9732 61.3635 66.7815 62.3066 72.6486C63.1622 77.9781 60.9002 83.2415 59.7397 88.5144C58.5792 93.7873 58.9904 100.263 63.486 103.265C59.4679 103.411 56.6812 100.855 54.4405 97.5391C52.1999 94.2235 51.1173 90.2854 49.9757 86.4557C48.8341 82.626 47.5436 78.7115 44.9838 75.6317C41.7126 71.6959 36.6711 69.5523 31.6036 68.7812C26.536 68.0101 22.9623 68.7788 17.8569 69.2434Z" fill="#1C1B1C"/>
</svg>
