<svg id="Layer_1" data-name="Layer 1" xmlns="http://www.w3.org/2000/svg" viewBox="0 0 296.16 445.26"><defs><style>.cls-1{fill:#233565;}</style></defs><path class="cls-1" d="M274.67,240.83c-4.34-6.69-8.32-13.1-13.21-18.89a156.16,156.16,0,0,0-26.32-24.62,190.43,190.43,0,0,0-79.27-34.21,166.31,166.31,0,0,0-51.64-1.46C76.94,165.09,52.23,175,31,192.84a104.09,104.09,0,0,0-14.39,14.39A3.1,3.1,0,0,1,14,208.78a60.2,60.2,0,0,1,2.28-13.85c5-19.37,14-36.43,28.88-50.09a97.45,97.45,0,0,1,50-24.56,111.71,111.71,0,0,1,29.39-1.42,154.84,154.84,0,0,1,42.7,10.33,186,186,0,0,1,52.94,31.63,203,203,0,0,1,41.38,48.05,109.59,109.59,0,0,1,13.12,29A4,4,0,0,1,274.67,240.83Z"/><path class="cls-1" d="M277.69,178c-2.26-6.06-4.09-12.28-6.61-18.25a349.38,349.38,0,0,0-20.24-40.57,265.9,265.9,0,0,0-24.92-35.95c-15-18.1-32.07-34-52.4-46.2a130.54,130.54,0,0,0-45-17.08,72.71,72.71,0,0,1,20.07-7.79,92.18,92.18,0,0,1,52.8,3.41A80.06,80.06,0,0,1,233.8,38.13c17.74,19.93,27,43.9,33.58,69.17a350.11,350.11,0,0,1,9.22,52.75c.61,5.95,1.42,11.88,2.13,17.81Z"/><path class="cls-1" d="M75.55,293.63c20.68-14.38,42.11-28.19,65.88-36.54s50.32-10.89,74.11-2.59,44.08,28.69,48.07,53.57c3.62,22.6-5.95,44.92-10.86,67.28s-3.17,49.82,15.85,62.55c-17,.62-28.79-10.22-38.27-24.28s-14.06-30.76-18.89-47-10.29-32.84-21.12-45.9c-13.84-16.69-35.17-25.78-56.61-29.05S97.15,291.66,75.55,293.63Z"/></svg>