<svg width="70" height="84" viewBox="0 0 70 84" fill="none" xmlns="http://www.w3.org/2000/svg">
<path d="M40.8502 33.6362C41.7076 33.9488 42.5821 34.2127 43.4693 34.4266C47.2835 35.2001 50.9724 34.894 54.4541 33.0217C56.9734 31.656 59.0953 29.6601 60.6127 27.229C62.1675 24.8659 63.2039 22.2001 63.6535 19.4073C64.4269 14.3615 63.5643 9.58079 61.2777 5.03621C61.1187 4.70987 60.8996 4.4164 60.632 4.17115C60.3335 3.96419 59.9981 3.81616 59.6441 3.735C54.7047 2.51572 49.852 2.74223 45.1077 4.61934C42.4855 5.67914 40.1179 7.28311 38.1612 9.32536C36.1251 11.3471 34.6489 13.8629 33.8772 16.6266C32.8291 20.4386 33.3519 24.0964 34.9542 27.6507C35.3614 28.467 35.8134 29.2602 36.3084 30.0266C36.8842 30.9736 39.7876 33.2892 40.8502 33.6362ZM59.1261 12.8651C59.1261 12.8651 56.919 24.9278 45.1897 30.3471C45.1897 30.3471 49.8159 25.5856 52.8711 21.7543C55.9263 17.923 59.1261 12.8651 59.1261 12.8651ZM37.9347 24.5615C40.6068 11.9205 51.8711 7.07958 51.8711 7.07958C51.8711 7.07958 47.6546 11.3254 44.5993 15.1591C41.5441 18.9928 37.9347 24.5615 37.9347 24.5615Z" fill="#1C1B1C"/>
<path d="M34.6964 76.2219C35.1931 75.4558 35.6452 74.6617 36.0505 73.8435C37.6552 70.299 38.178 66.6339 37.1299 62.8195C36.3568 60.0585 34.8807 57.5453 32.8459 55.5255C30.8885 53.4834 28.5211 51.8788 25.8994 50.817C21.1551 48.9399 16.3024 48.7158 11.363 49.9327C11.0043 50.0094 10.6639 50.1551 10.3607 50.3616C10.0916 50.6065 9.87235 50.9011 9.71494 51.2291C7.42835 55.7737 6.56575 60.5544 7.33679 65.5978C7.78834 68.3934 8.82715 71.0617 10.3848 73.4267C11.9009 75.8598 14.022 77.8581 16.541 79.2267C20.0251 81.099 23.714 81.3953 27.5282 80.6315C28.4157 80.4187 29.2902 80.1548 30.1473 79.8411C31.2098 79.4966 34.1133 77.1809 34.6964 76.2219ZM18.1264 67.952C21.1792 71.7833 25.8054 76.5423 25.8054 76.5423C14.0785 71.1231 11.869 59.0628 11.869 59.0628C11.869 59.0628 15.0712 64.1303 18.1264 67.952ZM26.3981 61.3568C23.3429 57.5255 19.1263 53.2773 19.1263 53.2773C19.1263 53.2773 30.3906 58.1158 33.0627 70.7568C33.0627 70.7664 29.4509 65.1978 26.3981 61.3664V61.3568Z" fill="#1C1B1C"/>
</svg>
