<svg id="Layer_1" data-name="Layer 1" xmlns="http://www.w3.org/2000/svg" viewBox="0 0 472.97 481.49"><defs><style>.cls-1{fill:#9ac552;}</style></defs><path class="cls-1" d="M338.19,470.24a16.71,16.71,0,0,0-2.36-4.06c-6.26-9.63-14.72-17.06-23.75-24C297.39,431,282.67,419.75,271,405.15a72.51,72.51,0,0,1-16.19-40.52c-1-12.47,1.17-24.58,4.56-36.53,2-7,5.3-13.27,9-19.44,1.71-2.87.93-4.2-2.39-4.29A28.28,28.28,0,0,0,248.56,310c-11.91,8.5-16.76,20.67-17.29,34.86-.44,11.77,2.68,22.83,7,33.64.41,1,1.74,7.12,1.74,7.12-4.67-1.66-13.31-5.95-22.67-10.88a1.15,1.15,0,0,1,.14.17c-6-2.88-11.62-6.12-17.39-9-9.09-4.59-18.5-8.51-28.87-8.7-17.54-.33-30.89,7.62-40.81,21.72a16.39,16.39,0,0,0-3.11,12.52c1.33-.53,2.56-.9,3.68-1.47a62.58,62.58,0,0,1,20.74-6.16,96.59,96.59,0,0,1,29.29,1c24.53,4.43,46.79,14.44,67.81,27.51a30.81,30.81,0,0,1,3.27,2.7,15.43,15.43,0,0,1-4.61-1.11A145.09,145.09,0,0,0,213,406.41c-7.86-.62-15.67-.69-23.06,2.15-17.53,6.74-28.63,18.95-31,38.12a15.19,15.19,0,0,0,.31,3.33,16.09,16.09,0,0,0,3.43-1.34c3.46-2.37,6.71-5.06,10.25-7.3C184,434.32,196,429.12,209,427.19a101.78,101.78,0,0,1,37.08,1.64c1,.22,2,.5,3,.75-2.28.75-4.47.92-6.57,1.44-18.24,4.55-30.13,18.83-32.71,37.48-.22,1.58.14,3.24.27,5.57a114.93,114.93,0,0,1,20.29-16c17.75-11,36.75-14.42,57.11-9.51,9.81,2.36,18.48,7.28,27,12.51,6.86,4.2,13.8,8.26,20.74,12.31a8.28,8.28,0,0,0,2.6.5C337.94,472.68,338.51,471.33,338.19,470.24Z"/><path class="cls-1" d="M317.57,295.19Z"/><path class="cls-1" d="M134.79,11.26a16.61,16.61,0,0,0,2.35,4.05c6.26,9.64,14.72,17.07,23.75,24C175.59,50.52,190.3,61.74,202,76.34a72.49,72.49,0,0,1,16.18,40.52c1,12.47-1.17,24.58-4.55,36.53-2,7-5.31,13.28-9,19.45-1.72,2.86-.93,4.19,2.38,4.28a28.2,28.2,0,0,0,17.42-5.64c11.91-8.51,16.77-20.68,17.3-34.87.44-11.76-2.68-22.83-7-33.64-.41-1-1.75-7.11-1.75-7.11,4.67,1.65,13.31,5.94,22.68,10.88l-.15-.18c6,2.88,11.62,6.12,17.39,9,9.1,4.59,18.51,8.51,28.87,8.7,17.55.33,30.9-7.62,40.82-21.71a16.41,16.41,0,0,0,3.1-12.52c-1.33.52-2.55.89-3.68,1.46a62.36,62.36,0,0,1-20.73,6.16,97,97,0,0,1-29.3-1c-24.52-4.44-46.79-14.44-67.8-27.51a31,31,0,0,1-3.27-2.7,15.2,15.2,0,0,1,4.61,1.1A144.91,144.91,0,0,0,260,75.08c7.86.63,15.67.69,23.06-2.15,17.54-6.74,28.64-19,31-38.12a15.17,15.17,0,0,0-.3-3.33,16.12,16.12,0,0,0-3.43,1.35c-3.47,2.36-6.72,5.05-10.26,7.3C289,47.17,277,52.37,264,54.3a101.3,101.3,0,0,1-37.07-1.64c-1-.22-2-.5-3-.75,2.28-.75,4.47-.91,6.57-1.44,18.25-4.54,30.14-18.83,32.71-37.47.22-1.59-.14-3.25-.26-5.58a114.63,114.63,0,0,1-20.3,16c-17.75,11-36.75,14.42-57.11,9.51-9.81-2.36-18.48-7.28-27-12.5-6.85-4.21-13.79-8.27-20.74-12.31a8.22,8.22,0,0,0-2.59-.51C135,8.81,134.47,10.16,134.79,11.26Z"/><path class="cls-1" d="M251.67,200.17h0Z"/><path class="cls-1" d="M282.86,248.46h0a54.36,54.36,0,0,0-.61-9.16,50.25,50.25,0,0,0-13.1-27.45,44.91,44.91,0,0,0-17.45-11.67c-14.16,23.07-29.32.1-29.39,0l-4.54,1.62A44,44,0,0,0,198.3,219a51.3,51.3,0,0,0-8.19,28.21h0v.06h0a52.44,52.44,0,0,0,.38,5.69c1.5,12.19,7,22.6,15.45,31.41a82.16,82.16,0,0,0,29.94,19.43,2.66,2.66,0,0,0,1.82-.09c11.06-4.75,21.41-10.61,29.66-19.58,9.56-10.38,15.19-22.11,15.5-35.58h0v-.06ZM236.4,261.81c-10.34,0-39.18-14-39.18-14s24.67,6.89,39.27,6.89,39.09-6.89,39.09-6.89S246.74,261.81,236.4,261.81Z"/></svg>