<svg width="95" height="97" viewBox="0 0 95 97" fill="none" xmlns="http://www.w3.org/2000/svg">
<path d="M67.9282 94.7336C67.8094 94.4399 67.6498 94.1645 67.4542 93.9156C66.1968 91.9756 64.4976 90.4788 62.6838 89.0806C59.7332 86.8283 56.7766 84.5619 54.4325 81.6207C52.5386 79.2991 51.4033 76.4489 51.1806 73.4576C50.9798 70.9454 51.4157 68.5057 52.0966 66.0983C52.4983 64.6881 53.1611 63.425 53.9043 62.182C54.2478 61.6038 54.0911 61.3359 53.4242 61.3177C52.1648 61.2962 50.934 61.6952 49.9253 62.4519C47.5331 64.1643 46.5589 66.6161 46.4524 69.4748C46.3641 71.8459 46.9907 74.074 47.8584 76.2518C47.9408 76.4533 48.2079 77.6862 48.2079 77.6862C47.2699 77.3518 45.5345 76.4875 43.6545 75.4943C43.6649 75.5048 43.6743 75.5163 43.6826 75.5286C42.4775 74.9484 41.3486 74.2956 40.1897 73.7154C38.3639 72.7908 36.4738 72.001 34.3909 71.9628C30.8678 71.8963 28.1864 73.4979 26.1939 76.3384C25.925 76.6946 25.7311 77.1018 25.6237 77.5353C25.5163 77.9689 25.4978 78.4197 25.5692 78.8607C25.8363 78.7539 26.0834 78.6794 26.3084 78.5645C27.6146 77.9114 29.0243 77.4915 30.4742 77.3236C32.434 77.0902 34.4179 77.1581 36.3573 77.525C41.2844 78.4175 45.7555 80.4341 49.9775 83.0671C50.2086 83.2331 50.4281 83.4148 50.6343 83.6111C50.316 83.5848 50.0037 83.5094 49.7084 83.3874C47.4698 82.6024 45.1441 82.0943 42.7828 81.8745C41.204 81.7496 39.6353 81.7355 38.151 82.3076C34.6299 83.6655 32.4004 86.1253 31.9244 89.9872C31.9204 90.2124 31.9413 90.4374 31.9866 90.6581C32.2258 90.5948 32.457 90.5042 32.6756 90.3881C33.3705 89.9107 34.0233 89.3687 34.7344 88.9175C36.9579 87.4972 39.3682 86.4496 41.9793 86.0608C44.4611 85.7121 46.9857 85.8241 49.4272 86.3912C49.628 86.4355 49.8289 86.4919 50.0297 86.5423C49.5718 86.6934 49.1319 86.7276 48.7101 86.8324C45.0464 87.749 42.6582 90.6258 42.14 94.383C42.0958 94.7013 42.1681 95.0357 42.1942 95.5051C43.4276 94.2805 44.7947 93.1992 46.2697 92.2818C49.8349 90.0658 53.6512 89.3768 57.7407 90.3659C59.7111 90.8414 61.4525 91.8326 63.1639 92.8862C64.5417 93.7323 65.9357 94.5502 67.3297 95.3661C67.4972 95.4276 67.6736 95.4616 67.8519 95.4669C67.878 95.2251 67.9925 94.9531 67.9282 94.7336Z" fill="#CE433A"/>
<path d="M27.0736 2.26823C27.1917 2.56119 27.3507 2.83588 27.5456 3.08413C28.803 5.02619 30.5023 6.52302 32.316 7.91912C35.2686 10.1775 38.2233 12.4378 40.5733 15.3791C42.4667 17.7008 43.6014 20.551 43.8232 23.5422C44.024 26.0544 43.5882 28.494 42.9093 30.9014C42.5076 32.3117 41.8427 33.5768 41.1016 34.8198C40.7561 35.396 40.9148 35.6639 41.5796 35.682C42.8395 35.7042 44.0707 35.3044 45.0785 34.5458C47.4708 32.8314 48.4469 30.3797 48.5534 27.521C48.6418 25.1518 48.0151 22.9217 47.1474 20.7439C47.065 20.5425 46.7959 19.3116 46.7959 19.3116C47.7339 19.644 49.4693 20.5082 51.3514 21.5034L51.3212 21.4672C52.5264 22.0474 53.6552 22.7001 54.8142 23.2803C56.642 24.205 58.532 24.9947 60.6129 25.033C64.138 25.0995 66.8195 23.4979 68.812 20.6593C69.0802 20.3029 69.2737 19.8956 69.3807 19.4621C69.4878 19.0286 69.5061 18.5779 69.4346 18.1371C69.1675 18.2418 68.9225 18.3164 68.6955 18.4312C67.3902 19.0849 65.9811 19.5049 64.5317 19.6722C62.5711 19.9045 60.5867 19.8365 58.6465 19.4707C53.7215 18.5763 49.2484 16.5617 45.0283 13.9286C44.7973 13.7626 44.5778 13.5808 44.3715 13.3847C44.6898 13.4095 45.0023 13.4843 45.2975 13.6063C47.5357 14.3938 49.8615 14.9039 52.2231 15.1253C53.8018 15.2522 55.3705 15.2643 56.8549 14.6921C60.3779 13.3343 62.6075 10.8644 63.0815 7.01256C63.0861 6.7874 63.0659 6.56242 63.0212 6.34171C62.782 6.40564 62.5508 6.4969 62.3323 6.61368C61.6353 7.08912 60.9825 7.63104 60.2715 8.08432C58.048 9.50258 55.6377 10.5502 53.0265 10.939C50.5455 11.2896 48.0212 11.1776 45.5807 10.6086C45.3798 10.5643 45.179 10.5079 44.9781 10.4575C45.4361 10.3064 45.876 10.2742 46.2978 10.1674C49.9634 9.25278 52.3516 6.37394 52.8678 2.61876C52.912 2.29845 52.8397 1.96403 52.8156 1.49463C51.582 2.71982 50.2141 3.80113 48.7382 4.71796C45.173 6.93399 41.3566 7.62298 37.2672 6.63382C35.2967 6.15838 33.5553 5.16721 31.844 4.1156C30.4681 3.26746 29.0742 2.44954 27.6782 1.63565C27.5114 1.57352 27.3358 1.53882 27.158 1.53291C27.1158 1.77466 27.0093 2.04662 27.0736 2.26823Z" fill="#CE433A"/>
<path d="M56.8147 50.054C56.8259 49.4365 56.7849 48.8192 56.6922 48.2087C56.4058 46.137 55.4866 44.2051 54.061 42.6787C53.0942 41.6283 51.8931 40.8226 50.556 40.3276C47.7118 44.9753 44.6668 40.3478 44.6528 40.3276L43.7409 40.654C42.1193 41.3879 40.7563 42.5956 39.8302 44.1191C38.7412 45.8121 38.1694 47.7875 38.1851 49.8022V49.8143C38.1898 50.1975 38.2153 50.5802 38.2615 50.9606C38.5627 53.4164 39.6675 55.5135 41.3647 57.2884C43.0591 59.0194 45.1121 60.3557 47.3784 61.2027C47.4986 61.24 47.6281 61.2336 47.744 61.1846C49.9655 60.2277 52.0444 59.0471 53.7014 57.24C55.6216 55.1489 56.7525 52.7858 56.8147 50.0722V50.0601V50.054ZM47.4829 52.7435C45.406 52.7435 39.6132 49.9231 39.6132 49.9231C39.6132 49.9231 44.5684 51.3111 47.5009 51.3111C50.4335 51.3111 55.3525 49.9231 55.3525 49.9231C55.3525 49.9231 49.5597 52.7435 47.4829 52.7435Z" fill="#CE433A"/>
</svg>
