<svg id="Layer_2" data-name="Layer 2" xmlns="http://www.w3.org/2000/svg" viewBox="0 0 566.93 566.93"><defs><style>.cls-1{fill:#114b7f;}.cls-2{fill:#263e8b;}.cls-3{fill:#273e8b;}.cls-4{fill:#293c8c;}.cls-5{fill:#263f8c;}.cls-6{fill:#c39238;}</style></defs><path class="cls-1" d="M373.39,417.37q-1.54,6.6-3.11,13.21c-.48,2-1.19,2.41-2.91,1.31-13.26-8.55-28.25-12.16-43.4-15.41a198.7,198.7,0,0,0-49-4,203.87,203.87,0,0,0-41.09,6c-9.45,2.3-18.83,4.81-27.59,9.2a50.39,50.39,0,0,0-6.68,4.06c-1.36,1-2.33.89-2.75-.93q-1.48-6.51-3-13c.74-1.92,2.35-3.08,3.89-4.25a82.24,82.24,0,0,1,22.64-11.79,169.89,169.89,0,0,1,39.48-8.48A218.45,218.45,0,0,1,288.81,392c22.07.65,43.75,3.66,64.4,12A77.54,77.54,0,0,1,371,414.44,7,7,0,0,1,373.39,417.37Z"/><path class="cls-1" d="M396.25,348.13A136.58,136.58,0,0,0,399,321.39a129.85,129.85,0,0,0-2.67-26.2c-.43-2.13-1.36-4.25-.94-6.52a174.85,174.85,0,0,0-9.16-28.55c-13.51-32.81-33.76-61.13-57.84-86.91-13-14-27.55-26.21-42.61-37.88-1.72-1.34-2.76-1.07-4.26.07A361.68,361.68,0,0,0,250,162.12a304,304,0,0,0-30.34,33.4c-14.92,19.18-28.13,39.38-37.7,61.82a171.87,171.87,0,0,0-13.73,54.5,139.21,139.21,0,0,0,1.2,30.45,154.14,154.14,0,0,0,12.43,41.95c3.22,7.12,8.82,13.19,9.62,21.39,1.17,0,1.92-.76,2.72-1.41a57.37,57.37,0,0,1,13.48-8,159,159,0,0,1,36.18-10.54,199.59,199.59,0,0,1,28.33-3.22c.8,0,2.07.42,2.13-1.16-.11-.06-.23,0-.31-.11.29,0-.06-.08.22,0a6,6,0,0,0,2.41.37,268.51,268.51,0,0,1,29.75.95,32.76,32.76,0,0,1,7,1c.59.73,1.46.69,2.26.8A195.59,195.59,0,0,1,346.44,391c9.86,3.07,19.36,6.87,27.46,13.52.51.41,1,1,1.78.67.73-2.32.59-4.86,1.9-7.06a148.59,148.59,0,0,0,18.7-47.82A4.36,4.36,0,0,1,396.25,348.13Zm-96.91.45c-6.33,6-11.92,12.59-15.74,20.77-4.3-10.36-12.17-17.55-20.28-24.6-7.63-6.64-13.13-14.67-14.75-24.94,0-.14-.1-.28-.13-.43-.88-4.3,0-5.06,4.32-4.38,7.77,1.23,13.74,5.52,19.1,10.91a34.72,34.72,0,0,0,2.9,3.06c1-2,.23-3.46-.17-5-1.84-6.83-4.32-13.5-5.33-20.54-2.76-19.1.25-37.06,11-53.36,3.25-4.94,3.54-4.83,6.85.11A70.74,70.74,0,0,1,298.3,281.5c1.57,12.86-.27,25.31-4.34,37.52-.88,2.6-1.43,5.32-2.12,8-.12.47-.61,1,0,1.4s1-.15,1.4-.46c1.2-1,2.39-2,3.49-3.16,4.87-5,10.43-8.69,17.46-9.77.3-.05.59-.14.89-.18,3.27-.41,4.43.66,3.75,3.86-1.43,6.69-3.8,13-8.09,18.46C307.42,341.43,303.25,344.87,299.34,348.58Zm85.5-23.41a128.32,128.32,0,0,1-3.77,28.34,21.56,21.56,0,0,0-.67,3.74,3.33,3.33,0,0,1-.75,2.42c-2.41,7-4.8,14-8.16,20.68-.84,1.67-1.59,2.08-3.4,1.16-14.26-7.28-29.55-10.9-45.34-12.78-4.85-.58-9.7-1.17-15.05-1.46a67.91,67.91,0,0,0,10.53-8.13c8.13-7.76,13.07-17,13.88-28.42a110.41,110.41,0,0,0,.1-13c-.31-6.6.7-13,4.2-18.71a6.31,6.31,0,0,1,1.46-2.45c1.29-1.66,1.16-2.11-.95-2.66a34.33,34.33,0,0,0-20.26,2.54,3.86,3.86,0,0,1-1.71.46l-4.27,2.26c1-1.73,1.75-3.13,2.58-4.49,4.33-7.07,5-14.76,3.68-22.71-2.15-12.68-8.21-23.73-14.86-34.47a219,219,0,0,0-15.64-22.4c-2.3-2.85-2.77-3-5.07-.13-10.35,12.71-19.63,26.12-26.29,41.19a1.27,1.27,0,0,0-.05.44c-1.25,3.82-3,7.46-3.74,11.45-1.53,7.76-2.57,15.46,1.21,22.93a4.11,4.11,0,0,1,.45,1.72c1,2,2,4.06,3.2,6.41-3.8-2.19-7.14-4.43-11.15-5.2a66.26,66.26,0,0,0-14.55-.69,2.39,2.39,0,0,0-2.31,1.11c-.44,1,.29,1.62.89,2.32,4.43,5.11,5.91,11.27,6.19,17.81.22,5.16-.42,10.29-.05,15.48,1,13.61,7,24.32,17.71,32.55,2,1.54,4.09,2.92,6.46,4.61-3,.25-5.69.46-8.37.72-18,1.78-35.44,5.64-51.74,13.73-1.79.89-2.71.53-3.55-1-1.77-2.44-2.59-5.33-3.77-8a118.77,118.77,0,0,1-7.21-23.7,23,23,0,0,1-.82-6.13,124.26,124.26,0,0,1-1.15-27.78A152.92,152.92,0,0,1,191.37,275c8.95-25.38,22.56-48.08,39.12-69.19,12.84-16.37,28.24-30.12,43.51-44,2.71-2.47,5.57-4.79,8.23-7.31,1.15-1.09,1.85-.88,2.9.05,7.58,6.69,15.09,13.45,22.46,20.37a280.37,280.37,0,0,1,21.86,22.29c16.69,19.6,30.84,40.83,41.46,64.34a12.86,12.86,0,0,0,.65,1.14c2.19,3.69,3.49,7.77,4.93,11.77a147.51,147.51,0,0,1,7,26.62,73.81,73.81,0,0,1,1.36,13.35C384.76,318,384.92,321.58,384.84,325.17Z"/><path class="cls-2" d="M183.88,342.67a140.16,140.16,0,0,0,11.8,37.87c-1.11-.73-1.25-1.13-2.32-3.61a143.82,143.82,0,0,1-8.16-24.06c-.71-3-1.19-6-1.67-9A1.28,1.28,0,0,1,183.88,342.67Z"/><path class="cls-3" d="M253,292.7c-3.66-6.55-3.87-13.55-2.7-20.73A49.35,49.35,0,0,1,255,256.6c.28,1.68-.68,3-1.27,4.46-2.31,5.59-3.13,11.5-3.59,17.44a22.3,22.3,0,0,0,2.25,11.31C252.84,290.68,253.59,291.6,253,292.7Z"/><path class="cls-4" d="M313.41,383.26c-12.91-1.33-25.84-2.29-38.83-1.8l-2.39-.21c8.36-.05,16.72-.79,25.06.07,4.15.43,8.32.63,12.48,1a18.52,18.52,0,0,1,4,.53C314.4,383,313.5,383.08,313.41,383.26Z"/><path class="cls-5" d="M315,296.91c6.64-3.72,13.85-4.17,21.22-3.62a7.35,7.35,0,0,1,2.11.69c1.08.44,1.27,1.13.48,2.07s-1.57,2-2.35,3c-.62-1.2.59-1.7,1-2.41,1.11-1.79,1.06-2.07-1.06-2.51a32,32,0,0,0-12,.19,28.45,28.45,0,0,0-7.82,2.55C316.05,297.11,315.51,297.44,315,296.91Z"/><path class="cls-6" d="M354.17,254.29a9.22,9.22,0,0,1-9.48,9.18,9.49,9.49,0,0,1,.06-19A9.39,9.39,0,0,1,354.17,254.29Z"/><path class="cls-6" d="M319.49,206.68a9.6,9.6,0,0,1,9.74,9.3c.13,4.93-4.49,9.61-9.55,9.68s-9.53-4.45-9.64-9.57C309.94,211.17,314.34,206.79,319.49,206.68Z"/><path class="cls-6" d="M257,216.28a9.28,9.28,0,0,1-9.56,9.39,9.53,9.53,0,0,1,.2-19.06A9.5,9.5,0,0,1,257,216.28Z"/><path class="cls-6" d="M360.71,305.34a9.21,9.21,0,0,1-9.42-9.48,9.34,9.34,0,0,1,9.3-9.43,9.75,9.75,0,0,1,9.67,9.65A9.54,9.54,0,0,1,360.71,305.34Z"/><path class="cls-6" d="M283.64,192.94a9.7,9.7,0,0,1-9.42-9.69c.06-4.9,4.65-9.32,9.64-9.3a9.8,9.8,0,0,1,9.44,9.66A9.42,9.42,0,0,1,283.64,192.94Z"/><path class="cls-6" d="M206.71,331.41A9.45,9.45,0,1,1,207,350.3a9.38,9.38,0,0,1-9.52-9.46A9.27,9.27,0,0,1,206.71,331.41Z"/><path class="cls-6" d="M202.43,287.32c3.18-2,8.46-.66,10.94,2.19a9.12,9.12,0,0,1,1.27,10.89c-1.84,1.78-3.39,3.8-6.21,4.36a9.34,9.34,0,0,1-10.61-5.29,9.1,9.1,0,0,1,3.38-11.2A4.19,4.19,0,0,0,202.43,287.32Z"/><path class="cls-6" d="M231.57,254.49a1.48,1.48,0,0,1-.29,1.43c-1,2-1.83,4.07-3.61,5.53-4.22,3.08-9,2.6-12.58-1.26-3.21-3.47-3.15-8.69.14-12.49a2.27,2.27,0,0,0,1.15-.66c5.76-5.18,14.06-.8,14.8,5.73A3.21,3.21,0,0,0,231.57,254.49Z"/><path class="cls-6" d="M354.78,348.15c-4.74-3.25-4.88-11.34.23-14.79,2.54-1.12,5.05-2.26,8-1.35,3.41,1.07,5.7,3.16,6.44,6.75a8.9,8.9,0,0,1-3.86,9.61,8.42,8.42,0,0,1-8.95.63A9.42,9.42,0,0,0,354.78,348.15Z"/></svg>