<svg id="Layer_2" data-name="Layer 2" xmlns="http://www.w3.org/2000/svg" viewBox="0 0 566.93 566.93"><defs><style>.cls-1{fill:#c39238;}.cls-2{fill:#114b7f;}</style></defs><path class="cls-1" d="M155.25,249.6c-6.8-3-13.69-5.06-21.19-5-22.78.23-39.13,22.54-32.4,44.27,2.91,9.4,8.55,16.52,17.62,20.44,8.17,3.53,20.4,2.7,26.34-6.7,3.1-4.92,2.26-11.66-1.89-14.57-2.31-1.62-2.95-1.34-3.27,1.4-.75,6.41-8.37,9.82-14.35,6.41-10-5.68-10.28-18.83-.48-26.45,6.22-4.83,13.4-5.53,20.8-3.88,17.09,3.8,29.33,14.7,39.85,27.9,4.05,5.08,7.56,10.58,9.36,16.94,2,6.89,1.79,13.56-3,19.37-3.24,3.91-7.36,6.2-12.69,5.43-3.43-.5-5.53-2.47-6.47-6.3A8.92,8.92,0,0,0,182.1,330a9.93,9.93,0,0,0,6.2-5.78c3.69-8.51-.72-14.44-6.48-16.95-7.41-3.24-14.36-2.19-20.34,3.21-6.27,5.66-8.31,13-6.39,21.09,2.21,9.31,8.8,14.68,17.5,17.58,15.26,5.07,32.63-.19,41.37-17,4-7.76,4.89-16.28,4.56-25-.27-6.88-.82-13.75,0-20.65,1.47-11.59,8.32-20.76,20.76-22.22,2.62-.3,1.59-1.68.71-2.75-4.42-5.4-10.32-7.61-17.11-7.54-11.46.13-20.7,7.44-24.1,18.76a41.35,41.35,0,0,0-1.51,11.53c-6.16-12.58-14.63-23.1-22.9-33.76-5.61-7.23-10.87-14.65-14.23-23.27-7.13-18.28.83-39.74,17.72-47.51A28.41,28.41,0,0,1,214,191.19c4.06,7.08,3.4,18.09-1.44,24-3.53,4.33-7.63,5.35-13.1,3.09,3.74-1.7,5.52-4.76,6.15-8.46,1.24-7.16-5.17-12.89-13.14-11.89-8.68,1.09-14.88,9.7-13.45,19.07,1.36,8.94,6.72,14.5,15.09,17.72,13.43,5.17,31.52.33,40-17.34,7.81-16.24,3.19-36.82-9.92-48.9-14.94-13.78-32.52-18.68-52.25-12-11.37,3.85-19.9,11.77-26.06,21.88-8.73,14.31-11.35,29.65-5.85,45.86a69.31,69.31,0,0,0,12.14,21.62C153.19,247.13,154.23,248.36,155.25,249.6Z"/><path class="cls-1" d="M411.67,249.6c6.81-3,13.7-5.06,21.2-5,22.78.23,39.13,22.54,32.4,44.27-2.91,9.4-8.55,16.52-17.62,20.44-8.17,3.53-20.4,2.7-26.34-6.7-3.1-4.92-2.26-11.66,1.89-14.57,2.31-1.62,2.95-1.34,3.27,1.4.75,6.41,8.36,9.82,14.35,6.41,10-5.68,10.28-18.83.48-26.45-6.22-4.83-13.4-5.53-20.8-3.88-17.09,3.8-29.33,14.7-39.85,27.9-4,5.08-7.56,10.58-9.36,16.94-2,6.89-1.79,13.56,3,19.37,3.25,3.91,7.37,6.2,12.7,5.43,3.43-.5,5.53-2.47,6.47-6.3a8.92,8.92,0,0,1-8.64,1.11,9.93,9.93,0,0,1-6.2-5.78c-3.7-8.51.72-14.44,6.47-16.95,7.42-3.24,14.37-2.19,20.35,3.21,6.27,5.66,8.31,13,6.39,21.09-2.21,9.31-8.8,14.68-17.5,17.58-15.26,5.07-32.63-.19-41.37-17-4-7.76-4.89-16.28-4.56-25,.27-6.88.82-13.75-.06-20.65-1.46-11.59-8.31-20.76-20.75-22.22-2.62-.3-1.59-1.68-.71-2.75,4.42-5.4,10.32-7.61,17.11-7.54,11.46.13,20.7,7.44,24.1,18.76a41.35,41.35,0,0,1,1.51,11.53c6.16-12.58,14.63-23.1,22.9-33.76,5.61-7.23,10.87-14.65,14.23-23.27,7.13-18.28-.83-39.74-17.72-47.51a28.41,28.41,0,0,0-36.08,11.48c-4.06,7.08-3.4,18.09,1.44,24,3.53,4.33,7.63,5.35,13.1,3.09-3.74-1.7-5.52-4.76-6.16-8.46C360.09,202.7,366.5,197,374.47,198c8.68,1.09,14.88,9.7,13.45,19.07-1.36,8.94-6.72,14.5-15.09,17.72-13.43,5.17-31.52.33-40-17.34-7.81-16.24-3.19-36.82,9.92-48.9,14.94-13.78,32.52-18.68,52.24-12,11.38,3.85,19.9,11.77,26.07,21.88,8.73,14.31,11.35,29.65,5.85,45.86a69.31,69.31,0,0,1-12.14,21.62C413.74,247.13,412.7,248.36,411.67,249.6Z"/><path class="cls-1" d="M277.64,321.79A229,229,0,0,0,278,407c1.08,5.47,8.92,5.43,9.85-.07,3.38-19.95,6.32-51.74-.36-85.12C286.39,316.39,278.65,316.36,277.64,321.79Z"/><path class="cls-1" d="M282.92,445.52s-24.8-10.24-31.2-18.77S232,415,233.25,423.69s38.09,54,49.4,54Z"/><path class="cls-1" d="M282.92,445.52s24.26-10.24,30.65-18.77,19.8-13.37,18.51-4.62-38.13,55.6-49.43,55.6Z"/><path class="cls-2" d="M321.4,144.45c-.36.05-.71.16-1.07.21C311.73,146,305,150.53,299,156.6c-1.34,1.37-2.79,2.63-4.26,3.86-.45.38-1.09.91-1.71.56-.78-.44-.17-1.13,0-1.71.84-3.25,1.52-6.57,2.58-9.75,5-14.91,7.22-30.11,5.31-45.81-1.68-13.76-6-26.6-13.7-38.18-4-6-4.38-6.17-8.36-.13-13.1,19.9-16.77,41.83-13.41,65.15,1.24,8.6,4.27,16.74,6.51,25.08.49,1.82,1.43,3.67.22,6A41.37,41.37,0,0,1,268.6,158c-6.54-6.58-13.83-11.82-23.33-13.32-5.27-.83-6.34.09-5.27,5.35,0,.18.14.34.17.52,2,12.54,8.68,22.34,18,30.45,9.9,8.61,19.5,17.39,24.75,30,4.67-10,11.5-18,19.23-25.36,4.77-4.53,9.86-8.73,13.95-14,5.23-6.68,8.14-14.37,9.88-22.54C326.82,145.26,325.4,144,321.4,144.45Z"/><path class="cls-2" d="M376.25,371.83a12.25,12.25,0,0,0-3.59-1.16c-12.55-.95-24.82-.18-36.13,6.15h0l-7.27,3.85c1.68-2.94,3-5.33,4.39-7.64,7.38-12,8.55-25.14,6.27-38.68-3.65-21.59-14-40.39-25.29-58.68A373.74,373.74,0,0,0,288,237.52c-3.9-4.85-4.7-5.05-8.63-.22-17.62,21.64-33.42,44.47-44.76,70.13a2.64,2.64,0,0,0-.09.76h0c-4.35,8.21-6.64,17.06-8.13,26.16-2,12.23-1.63,24.15,4.58,35.31h0c1.73,3.45,3.45,6.9,5.45,10.91-6.45-3.72-12.15-7.54-19-8.85-8.2-1.56-16.49-1.43-24.78-1.18-1.46,0-3.21.32-3.92,1.89s.49,2.77,1.52,3.95c7.54,8.7,10,19.2,10.53,30.33.38,8.78-.71,17.52-.09,26.35,1.65,23.19,12,41.41,30.17,55.44,3.38,2.61,7,5,11,7.83A98.42,98.42,0,0,0,283.22,506c22.45,0,41-9.31,41-9.31a114.49,114.49,0,0,0,17.93-13.85c13.86-13.21,22.27-29,23.65-48.39a187.85,187.85,0,0,0,.16-22.13c-.52-11.23,1.19-22,7.15-31.86,1.34-1.69,2.64-3.4,4-5.05S378.1,372.59,376.25,371.83ZM343.19,413.9c-2.42,11.4-6.48,22.13-13.78,31.44-5.7,7.29-12.79,13.15-19.45,19.47-10.78,10.23-20.3,21.43-26.82,35.37-7.32-17.65-20.71-29.89-34.51-41.9-13-11.31-22.37-25-25.12-42.46,0-.25-.18-.48-.23-.73-1.49-7.33,0-8.62,7.35-7.46,13.25,2.09,23.41,9.4,32.53,18.57,1.67,1.68,3,3.68,4.95,5.21,1.69-3.31.38-5.88-.31-8.42-3.12-11.64-7.35-23-9.07-35-4.69-32.52.43-63.11,18.7-90.86,5.54-8.42,6-8.23,11.66.19,10.79,16.15,16.75,34.05,19.1,53.24,2.67,21.89-.46,43.09-7.4,63.88-1.49,4.44-2.43,9.06-3.6,13.61-.2.79-1.05,1.77.05,2.38.85.48,1.75-.26,2.37-.78,2.05-1.73,4.08-3.48,5.95-5.39,8.29-8.46,17.75-14.8,29.74-16.64.5-.08,1-.24,1.5-.3C342.37,406.64,344.35,408.46,343.19,413.9Z"/></svg>