<svg id="Layer_2" data-name="Layer 2" xmlns="http://www.w3.org/2000/svg" viewBox="0 0 566.93 566.93"><defs><style>.cls-1{fill:#c19560;}.cls-2{fill:#094e92;}</style></defs><path class="cls-1" d="M409.91,437.05c-8-11.65-11.94-24.51-10.5-38.65,1.69-16.79,8.44-31.87,17.41-45.83S438.23,328,452.2,319.2c2.86-1.81,2.84-2.12-.16-3.79-8-4.44-16.39-4.7-25.1-3.06-14.07,2.65-24.68,10-30.81,23.07a94.36,94.36,0,0,0-8.4,33.74c-.42,6.1-.07,12.25-.07,18.38l-1.06.1c-.27-.77-.59-1.53-.79-2.32A132.8,132.8,0,0,1,382,349.49c.24-11.49.84-23,1.7-34.44.61-8.22,1.81-16.4,3-24.56.5-3.59,0-4.36-3.58-3.54-7.77,1.78-12.73,7-15.93,13.89-5.85,12.54-5.3,25.79-3.7,39.1a32.6,32.6,0,0,1,0,3.83,79.41,79.41,0,0,1-5.21-7.51c-8.09-11.76-18-21.1-32.72-23.65-7.86-1.36-15.67-1.81-23,2.16-2.83,1.53-2.8,1.79-.46,3.93,13.06,11.91,25.94,24,39.19,35.71a138.26,138.26,0,0,1,29.89,36.33c.78,1.39,1.36,2.89,2,4.35l-.72.36a3.19,3.19,0,0,1-.63-.51,66.31,66.31,0,0,0-32-24.09c-17.39-6.32-34.05-5.74-49.28,6a3.12,3.12,0,0,0-1.2,2.44,3.37,3.37,0,0,0,2.06,2c13.46,3.61,26.73,7.68,39.36,13.72,23.36,11.16,45.23,24.44,63.11,43.52.76.81,21.7,12.52,26.76,14.31C420.55,452.83,412.16,440.34,409.91,437.05Z"/><path class="cls-2" d="M112.72,384.19a17.62,17.62,0,0,1,2.55-4.4c6.78-10.44,16-18.5,25.74-26,15.93-12.18,31.89-24.34,44.54-40.17a78.61,78.61,0,0,0,17.55-43.92c1-13.52-1.28-26.64-4.95-39.59-2.14-7.56-5.75-14.4-9.75-21.08-1.86-3.11-1-4.55,2.59-4.65a30.6,30.6,0,0,1,18.88,6.12c12.91,9.22,18.17,22.41,18.75,37.79.47,12.76-2.91,24.75-7.56,36.47-.45,1.12-1.89,7.71-1.89,7.71,5.06-1.79,14.43-6.44,24.58-11.79l-.16.18c6.52-3.12,12.6-6.63,18.85-9.79,9.86-5,20.06-9.22,31.3-9.43,19-.35,33.48,8.27,44.24,23.55a17.75,17.75,0,0,1,3.36,13.57c-1.44-.57-2.76-1-4-1.59a67.71,67.71,0,0,0-22.48-6.68,105.1,105.1,0,0,0-31.76,1.09c-26.58,4.81-50.71,15.65-73.49,29.82a32.65,32.65,0,0,0-3.55,2.93,16.66,16.66,0,0,0,5-1.2c12.16-4.05,24.51-7.12,37.36-8.14,8.51-.68,17-.75,25,2.33,19,7.31,31.05,20.54,33.62,41.32a17.14,17.14,0,0,1-.33,3.61A16.84,16.84,0,0,1,303,360.8c-3.76-2.56-7.28-5.48-11.12-7.91-12-7.64-25-13.27-39.13-15.37a110.36,110.36,0,0,0-40.19,1.78c-1.08.24-2.14.54-3.21.82,2.47.81,4.84,1,7.12,1.55,19.78,4.93,32.67,20.42,35.46,40.63.23,1.71-.15,3.52-.29,6a124.41,124.41,0,0,0-22-17.3c-19.24-11.92-39.84-15.63-61.9-10.31-10.64,2.56-20,7.9-29.27,13.56-7.43,4.55-15,8.95-22.49,13.34a8.61,8.61,0,0,1-2.81.55C113,386.83,112.37,385.37,112.72,384.19Z"/><path class="cls-1" d="M238.89,264.5c8-11.66,11.94-24.51,10.5-38.66C247.7,209.06,241,194,232,180s-21.41-24.55-35.38-33.38c-2.86-1.81-2.84-2.11.16-3.79,8-4.44,16.39-4.7,25.1-3,14.07,2.65,24.68,10,30.81,23.07a94.31,94.31,0,0,1,8.4,33.73c.42,6.1.07,12.26.07,18.38l1.06.1c.27-.77.59-1.52.79-2.31a132.83,132.83,0,0,0,3.84-35.84c-.24-11.48-.84-23-1.7-34.44-.61-8.21-1.81-16.39-3-24.55-.5-3.59,0-4.36,3.58-3.54,7.77,1.78,12.73,7,15.93,13.89,5.85,12.54,5.3,25.79,3.7,39.1a32.6,32.6,0,0,0,0,3.83,80.71,80.71,0,0,0,5.21-7.51c8.09-11.77,18-21.1,32.72-23.65,7.85-1.36,15.67-1.82,23,2.15,2.83,1.53,2.8,1.79.45,3.93-13,11.91-25.93,24-39.18,35.72a138.37,138.37,0,0,0-29.89,36.32c-.78,1.4-1.36,2.9-2,4.35l.72.37a3.19,3.19,0,0,0,.63-.51,66.25,66.25,0,0,1,32-24.09c17.39-6.33,34.05-5.75,49.28,6a3.12,3.12,0,0,1,1.2,2.44,3.39,3.39,0,0,1-2.06,2c-13.46,3.61-26.73,7.68-39.36,13.71C294.76,233.61,272.89,246.88,255,266c-.76.81-21.7,12.52-26.76,14.31C228.25,280.28,236.64,267.79,238.89,264.5Z"/></svg>