<svg id="Layer_2" data-name="Layer 2" xmlns="http://www.w3.org/2000/svg" viewBox="0 0 595.28 566.93"><defs><style>.cls-1{fill:#c19560;}.cls-2{fill:#094e92;}.cls-3{fill:#fff;}</style></defs><path class="cls-1" d="M489.06,110.26c7.71-1.68,11.37-6.33,12.84-13.07.83-3.77-.16-7-3.59-8.83-8.4-4.52-15.15-4.4-22.39,2-8.35,7.45-12.73,16.77-13.5,28.13-.69,10.27,1.88,19.07,8.74,26.69,1.45,1.61,2.74,3.38,4.25,5.27,1.88-3.19,3.39-5.86,5-8.45a21.61,21.61,0,0,1,2.56-3.26c3.69-3.92,6.62-3.39,8.56,1.59,1.66,4.25,2.88,8.7,4.84,12.79,5.83,12.16,15.75,19.34,28.66,22.62l3,.74c-1.32,1-2,1.87-2.86,2.13-11.9,3.66-22.76.37-33.4-4.9a104.76,104.76,0,0,1-25.38-17.33c-7.73-7.27-14.58-15.44-17.65-25.82-4.69-15.86-3.43-31.35,6.43-45,8.32-11.51,20-18.18,34.37-20,10.37-1.29,19.43,1,26.83,8.45,10.93,11.08,10.73,28.77-.43,38.39-4.16,3.58-9.08,6.13-14.67,5.29-3.44-.52-6.73-2.38-9.93-4C490.37,113.38,490,111.82,489.06,110.26Z"/><path class="cls-1" d="M118.27,150.73c1.5-1.61,2.66-2.84,3.79-4.09,6.69-7.42,10.5-16,10.06-26.13-.57-13.1-5.64-24.12-16.34-32.08-5.46-4.06-11.47-4.37-17.59-1.39-3.72,1.81-6.22,4.83-6,8.95.26,4.43,1.68,8.72,6,11.17a37.8,37.8,0,0,0,5,2.17c2,.78,2.32,1.83.92,3.46-3.54,4.12-11.43,6.18-16.63,4.43-8.7-2.93-14.31-8.77-16.59-17.67C67.1,84.92,79.18,67.4,94.21,65.75c23.13-2.53,47.48,11.63,52.72,38.35,3.18,16.25-.35,31.56-11,44-13.18,15.43-29.72,26.54-49.87,31.25a31.57,31.57,0,0,1-16.4-.15c-.82-.24-1.47-1.07-2.19-1.63a7.83,7.83,0,0,1,2.1-1.43c14.64-4.1,24.7-13.29,30.35-27.33,1.28-3.19,2.2-6.54,3.44-9.74s3.29-3.75,6-1.67a21.47,21.47,0,0,1,7.52,10C117.28,148.35,117.68,149.26,118.27,150.73Z"/><path class="cls-2" d="M309.38,138.82c1.05-20.44,5.09-40,18.25-56.45C339.14,68,353.87,58.82,372.45,56.81c6.47-.7,13-.57,19.56-.75a19.22,19.22,0,0,1,3.33.58c-1.12,1.15-1.69,2.14-2.55,2.57-9.86,4.84-18.46,11.48-26.64,18.65-19.36,17-36.17,36.35-52.32,56.32a33.14,33.14,0,0,0-2.29,3.44c-.42.7-.72,1.48-1.08,2.23Z"/><path class="cls-2" d="M199.61,57a27.11,27.11,0,0,1,4.76-1.11c15.12-.52,29.87,1.11,43.25,8.9,16.89,9.84,27.17,24.79,32.85,43.25a110.23,110.23,0,0,1,4.67,26.4,15.68,15.68,0,0,1,.06,4.42,13.87,13.87,0,0,1-1.83-1.57c-15.3-19-30.86-37.77-48.7-54.49-9.84-9.22-20.22-17.82-32.34-24C201.65,58.39,201,57.9,199.61,57Z"/><path class="cls-1" d="M302.91,201.07c7.94-34.25,28.46-58.63,59.36-74.63a88,88,0,0,1,36.37-10c8.21-.4,16.4-.35,24.29,2.58a2.43,2.43,0,0,0,2.18-.51c.31-.34.08-1.57-.31-2.1-9.78-13.09-23.25-19.49-39.18-20.67-15-1.12-27.81,4.84-39.34,13.89-14.95,11.74-25.53,27.05-35,43.26-2.61,4.48-5.31,8.91-8,13.36l-.72-.16a10.3,10.3,0,0,1-.87-2.84c-.08-5.26,0-10.53,0-15.79a144,144,0,0,1,5.39-39.34c2.35-8.35,4.52-16.9,5.34-25.5,1.6-16.82-4.05-31.93-13.18-45.85-1.3-2-2.37-2-3.65.06s-2.19,3.91-3.27,5.87c-9,16.21-12.65,33.26-8.13,51.59,2,8.27,4.38,16.48,6.17,24.8,3.2,14.82,2.88,29.88,2.63,44.92a17.33,17.33,0,0,1-.56,2.75c-.8-1.07-1.3-1.66-1.7-2.3-1.56-2.49-3.11-5-4.61-7.5-10.75-18-22-35.65-39-48.61-9-6.87-19.16-11.39-30.48-12.54-15-1.53-28,3.54-39.53,12.89a55.92,55.92,0,0,0-6.91,7.34c-.54.64-.44,1.84-.63,2.78a12.89,12.89,0,0,0,2.63,0c1.09-.18,2.12-.71,3.21-1a74,74,0,0,1,35.88.93c32.86,8.85,56.84,28.8,72.27,59,4.39,8.61,8,17.58,9.15,27.29.39,3.37,5.14,23.26,5.14,23.26S301.93,205.29,302.91,201.07Z"/><path class="cls-2" d="M282.27,527.9a16.24,16.24,0,0,0-2.33-4c-6.17-9.5-14.51-16.83-23.42-23.64-14.49-11.09-29-22.15-40.52-36.55a71.51,71.51,0,0,1-16-40c-.95-12.3,1.16-24.24,4.49-36,1.95-6.87,5.24-13.09,8.88-19.17,1.69-2.83.91-4.14-2.36-4.23a27.86,27.86,0,0,0-17.18,5.56c-11.74,8.39-16.53,20.4-17.05,34.39-.44,11.6,2.64,22.52,6.87,33.18.41,1,1.72,7,1.72,7-4.6-1.63-13.12-5.86-22.36-10.73l.15.17c-5.94-2.83-11.47-6-17.16-8.9-9-4.53-18.25-8.39-28.47-8.58-17.3-.32-30.47,7.51-40.25,21.42a16.12,16.12,0,0,0-3.06,12.34c1.31-.51,2.51-.88,3.62-1.44a61.76,61.76,0,0,1,20.45-6.08,95.32,95.32,0,0,1,28.9,1c24.18,4.37,46.14,14.24,66.86,27.13a29.05,29.05,0,0,1,3.23,2.66,15.34,15.34,0,0,1-4.54-1.09,143.22,143.22,0,0,0-34-7.41c-7.74-.61-15.45-.68-22.74,2.12-17.29,6.65-28.24,18.69-30.58,37.6a15.35,15.35,0,0,0,.3,3.28,16,16,0,0,0,3.38-1.32c3.42-2.33,6.63-5,10.12-7.2,11-6.95,22.78-12.08,35.6-14a100.27,100.27,0,0,1,36.56,1.61c1,.22,2,.5,2.93.74-2.25.74-4.41.9-6.48,1.42-18,4.49-29.72,18.57-32.26,37-.22,1.56.14,3.2.26,5.5a113.22,113.22,0,0,1,20-15.74c17.5-10.85,36.24-14.22,56.32-9.38,9.67,2.33,18.22,7.18,26.63,12.34C265.6,523,272.44,527,279.29,531a8,8,0,0,0,2.56.49C282,530.31,282.58,529,282.27,527.9Z"/><path class="cls-1" d="M167.47,419c-7.26-10.61-10.86-22.3-9.56-35.18,1.55-15.26,7.68-29,15.85-41.68s19.48-22.34,32.18-30.37c2.61-1.65,2.59-1.93-.14-3.45-7.23-4-14.91-4.28-22.84-2.78-12.8,2.41-22.45,9.07-28,21a85.69,85.69,0,0,0-7.63,30.69c-.39,5.55-.07,11.15-.07,16.73l-1,.09c-.24-.7-.54-1.39-.72-2.11a121.44,121.44,0,0,1-3.49-32.6c.22-10.45.77-20.91,1.55-31.34.56-7.47,1.64-14.91,2.69-22.34.46-3.27,0-4-3.26-3.22-7.07,1.62-11.57,6.38-14.49,12.64-5.32,11.41-4.82,23.47-3.36,35.57a31.24,31.24,0,0,1,0,3.49,73.17,73.17,0,0,1-4.74-6.84c-7.35-10.7-16.36-19.19-29.77-21.52-7.14-1.23-14.25-1.64-21,2-2.58,1.39-2.55,1.63-.41,3.57,11.88,10.84,23.59,21.87,35.65,32.5a125.9,125.9,0,0,1,27.19,33.05c.71,1.27,1.24,2.63,1.85,3.95l-.66.34a2.6,2.6,0,0,1-.57-.47,60.28,60.28,0,0,0-29.14-21.91c-15.82-5.76-31-5.23-44.84,5.42a2.84,2.84,0,0,0-1.09,2.22,3,3,0,0,0,1.88,1.84c12.24,3.29,24.31,7,35.8,12.48,21.26,10.16,41.16,22.24,57.43,39.6.69.74,19.74,11.39,24.34,13C177.15,433.36,169.52,422,167.47,419Z"/><path class="cls-2" d="M313,527.9a16.52,16.52,0,0,1,2.32-4c6.17-9.5,14.52-16.83,23.42-23.64,14.5-11.09,29-22.15,40.53-36.55a71.51,71.51,0,0,0,16-40c.94-12.3-1.16-24.24-4.5-36-1.94-6.87-5.23-13.09-8.87-19.17-1.69-2.83-.92-4.14,2.35-4.23a27.86,27.86,0,0,1,17.18,5.56c11.75,8.39,16.54,20.4,17.06,34.39.43,11.6-2.65,22.52-6.88,33.18-.4,1-1.72,7-1.72,7,4.61-1.63,13.13-5.86,22.36-10.73a1.15,1.15,0,0,1-.14.17c5.94-2.83,11.46-6,17.15-8.9,9-4.53,18.25-8.39,28.48-8.58,17.3-.32,30.46,7.51,40.25,21.42A16.17,16.17,0,0,1,521,450.18c-1.31-.51-2.52-.88-3.63-1.44a61.62,61.62,0,0,0-20.45-6.08,95.26,95.26,0,0,0-28.89,1c-24.19,4.37-46.14,14.24-66.87,27.13a30,30,0,0,0-3.23,2.66,15.41,15.41,0,0,0,4.55-1.09,143,143,0,0,1,34-7.41c7.75-.61,15.46-.68,22.74,2.12,17.3,6.65,28.25,18.69,30.59,37.6a15.35,15.35,0,0,1-.3,3.28,16.24,16.24,0,0,1-3.39-1.32c-3.42-2.33-6.62-5-10.11-7.2-11-6.95-22.78-12.08-35.6-14a100.32,100.32,0,0,0-36.57,1.61c-1,.22-2,.5-2.92.74,2.25.74,4.41.9,6.48,1.42,18,4.49,29.72,18.57,32.26,37a33,33,0,0,1-.27,5.5,112.81,112.81,0,0,0-20-15.74c-17.51-10.85-36.25-14.22-56.32-9.38-9.68,2.33-18.23,7.18-26.63,12.34C329.68,523,322.83,527,316,531a8,8,0,0,1-2.56.49C313.25,530.31,312.7,529,313,527.9Z"/><path class="cls-1" d="M427.81,419c7.26-10.61,10.85-22.3,9.55-35.18-1.54-15.26-7.68-29-15.84-41.68S402,319.81,389.33,311.78c-2.6-1.65-2.59-1.93.14-3.45,7.24-4,14.91-4.28,22.84-2.78,12.8,2.41,22.46,9.07,28,21A85.69,85.69,0,0,1,448,357.23c.38,5.55.07,11.15.07,16.73l1,.09c.25-.7.54-1.39.72-2.11a121,121,0,0,0,3.5-32.6c-.23-10.45-.77-20.91-1.55-31.34-.56-7.47-1.65-14.91-2.69-22.34-.46-3.27,0-4,3.25-3.22,7.07,1.62,11.58,6.38,14.5,12.64,5.32,11.41,4.81,23.47,3.36,35.57a29,29,0,0,0,0,3.49,71.31,71.31,0,0,0,4.74-6.84c7.36-10.7,16.36-19.19,29.77-21.52,7.15-1.23,14.26-1.64,21,2,2.58,1.39,2.55,1.63.42,3.57-11.88,10.84-23.59,21.87-35.66,32.5a125.86,125.86,0,0,0-27.18,33.05c-.71,1.27-1.24,2.63-1.86,3.95l.67.34a2.54,2.54,0,0,0,.56-.47,60.26,60.26,0,0,1,29.15-21.91c15.82-5.76,31-5.23,44.83,5.42a2.82,2.82,0,0,1,1.1,2.22,3,3,0,0,1-1.88,1.84c-12.25,3.29-24.32,7-35.81,12.48-21.25,10.16-41.15,22.24-57.42,39.6-.69.74-19.74,11.39-24.35,13C418.12,433.36,425.76,422,427.81,419Z"/><path class="cls-1" d="M248.73,466.62c13.41,13.92,29.49,23.82,47.43,30.78a4.21,4.21,0,0,0,2.9-.14c17.51-7.52,33.91-16.81,47-31,15.17-16.47,24.1-35.09,24.55-56.48-19.23,15-57,42.81-73.32,42.81-17.07,0-56.16-30.46-73.65-44.84a80.85,80.85,0,0,0,.6,9.12C226.62,436.16,235.27,452.66,248.73,466.62Z"/><path class="cls-3" d="M321.15,323.73h0l0,0Z"/><path class="cls-2" d="M517.85,256.21c-2.79-17.44-10-33.08-20.5-47.22-11.75-15.89-26.2-28.59-44.3-36.93a104.19,104.19,0,0,0-35.85-9.18,102.62,102.62,0,0,0-35.68,3c-17.3,4.76-31.83,14.28-45.06,26.07-9.39,8.36-16.5,18.57-23.5,28.87-3.65,5.37-15.07,29.26-15.07,29.26S285,226.3,281.58,220.76c-7.87-12.63-17.11-24-28.6-33.61q-34.87-29-79.93-24.05c-19.17,2.12-36.8,8.8-52,20.64-23.06,18-38.16,41.24-44.46,70a68.74,68.74,0,0,0-1.07,23.19C89.41,241.63,113.7,216,147,198.73c.17.53.07.85-.14,1-8.13,7.31-13.68,16.39-18,26.3a67.63,67.63,0,0,0-5.54,32.77c.06.79.79,1.53,1.21,2.29a9.38,9.38,0,0,0,2-1.6c5.6-7.76,10.86-15.79,16.77-23.32,11.15-14.21,24.34-26.19,40.36-34.8,4-2.13,8.07-4,12.11-6-4.1,4.89-8.57,9.23-12.38,14.08-9,11.5-14.58,24.39-14,39.37a11.57,11.57,0,0,0,.86,2.74,14.54,14.54,0,0,0,2.71-1.6,27.76,27.76,0,0,0,2.5-3c11.18-13.48,24-24.88,40.54-31.38,6.64-2.62,13.76-4.06,20.66-6,.13,1,.07,1.25-.1,1.39a7.76,7.76,0,0,1-1.31.82,41.87,41.87,0,0,0-15.14,12.32c-5.38,7-9.11,14.59-9,23.65a5.61,5.61,0,0,0,.46,1.55,5.62,5.62,0,0,0,1.52-.65c2.26-1.88,4.35-4,6.7-5.7,11.37-8.41,23.72-13.17,38.22-10.58,12,2.14,20,9.19,25.35,19.67,4.16,8.13,5.3,17.06,6.36,26,.44,3.67.48,7.4.71,11.1l-.79.11c-.21-.23-.43-.46-.63-.71-4.8-6-9.25-12.3-14.49-17.86-11.21-11.9-25.34-16.45-41.22-13.07s-28.54,11.3-34.65,28.11a20.71,20.71,0,0,0,3-.65c3-1.2,6.07-2.46,9.1-3.71,14.29-5.92,29-7.65,44.06-3.68,13.69,3.61,25.23,10.29,31.3,23.93,1.32,3,2.39,6,3.57,9.17l-.53.12-.57.14h0q-1.56.43-3.15.84l-2,.49-.52.12c-2.81.69-5.64,1.37-8.4,2.17.1.16,24.13,36.57,46.56,0h0l0,0-3.54-1.21q-2.88-.9-5.88-1.6l-.2,0c-.94-.21-1.88-.42-2.83-.6s-1.91-.35-2.88-.5l-.24,0-1.33-.16c1.86-6.44,4.14-12.37,8.61-17.28,10.91-12,24.82-16.9,40.65-17.53,11.39-.46,22,2.29,32.36,6.83,2.8,1.23,5.65,2.34,8.79,3.63a7.08,7.08,0,0,0-.14-2.16c-1.51-3.09-2.7-6.43-4.72-9.14-10.94-14.66-31.65-21.26-49.37-16.55-10.95,2.92-18.84,9.77-25.87,18.06-3.23,3.8-6.35,7.71-9.75,11.86-.11-.85-.19-1.27-.21-1.69a68.75,68.75,0,0,1,3.21-24.5c1.85-5.69,3.55-11.93,7.16-16.43,9.19-11.44,21.8-15.68,36.32-13.36,11.3,1.81,20.52,7.78,28.81,15.37.88.81,1.91,1.45,3.4,2.57,0-2.6.31-4.42-.05-6.11-3.09-14.46-11.36-25.08-24.21-32.24a15.3,15.3,0,0,1-1.54-1.14,1.5,1.5,0,0,1,1.29-.29c.42.09.84.18,1.26.25a82.92,82.92,0,0,1,44.83,22c5.69,5.38,10.64,11.55,16,17.31a13,13,0,0,0,2.46,1.68c.42-1,1.23-1.94,1.2-2.89-.13-4-.08-8-.87-11.84-3.3-16.22-12.05-29.16-24.62-39.68a9.86,9.86,0,0,0-1.63-.9c.78-.61,1-.7,1.11-.65.64.24,1.28.5,1.91.78,17.35,7.46,32,18.66,44.67,32.53a190.56,190.56,0,0,1,22.35,30.15c.56.93,1.67,1.53,3,2.67,1.58-6.15.87-11.51.26-16.76-2.11-18-11.22-32.48-23.35-45.74.63,0,.91-.09,1.1,0,2,1,4,1.94,6,3,14.3,7.82,26.13,18.66,36.86,30.73,11.08,12.47,20.54,26,25.33,42.28.16.55,1,.9,1.54,1.35.27-.56.79-1.13.76-1.67C518.77,268.75,518.84,262.4,517.85,256.21Z"/><path class="cls-2" d="M321.19,323.75l0,0h0Z"/><path class="cls-2" d="M369.65,385.76a79.65,79.65,0,0,0-20.76-43.5,71.27,71.27,0,0,0-27.66-18.49c-22.43,36.56-46.46.15-46.56,0l-7.2,2.57a69.63,69.63,0,0,0-30.85,27.21c-8.7,13.92-13.19,28.88-13,44.8,17.49,14.37,56.58,44.83,73.65,44.83,16.3,0,54.09-27.79,73.32-42.81A86.24,86.24,0,0,0,369.65,385.76Zm-71.7,22c-16.46,0-47.43-34.46-47.43-34.46s28.88,19.15,46.54,19.15,45.81-19.15,45.81-19.15S314.41,407.73,298,407.73Z"/></svg>