<svg width="85" height="103" viewBox="0 0 85 103" fill="none" xmlns="http://www.w3.org/2000/svg">
<path d="M42.4457 44.6367C42.3182 44.6532 42.271 44.5661 42.2096 44.5073C39.9665 42.3893 37.4543 40.6244 35.0035 38.7747C33.7686 37.8334 33.7615 37.8522 34.9633 36.9392C37.0254 35.3703 39.0803 33.8015 41.1282 32.2327C41.5556 31.9032 41.9546 31.5408 42.3583 31.1831C42.637 30.9478 42.8754 30.9666 43.154 31.1996C44.0985 31.9856 45.0264 32.7716 45.9874 33.5246C47.5835 34.7765 49.1867 36.0238 50.889 37.1321C50.9929 37.2027 51.1039 37.2639 51.2054 37.3392C51.6328 37.6593 51.6328 37.9205 51.1842 38.2076C49.4983 39.276 47.9258 40.5044 46.3179 41.681C45.1374 42.5399 44.03 43.4742 42.892 44.3826C42.7611 44.4953 42.6096 44.5816 42.4457 44.6367Z" fill="#BE986A"/>
<path d="M42.7361 72.0428C42.6103 72.0079 42.4919 71.9505 42.3866 71.8734C40.1176 70.1085 37.9005 68.2776 35.5795 66.5809C35.1758 66.2868 34.713 66.0726 34.3565 65.7079C33.8583 65.1925 33.8583 64.9454 34.4368 64.5689C37.0788 62.851 39.4565 60.7895 41.9002 58.8175C42.2945 58.4975 42.6086 58.4033 42.984 58.794C44.4195 60.2436 46.1337 61.3473 47.7345 62.5921C48.7427 63.3758 49.7675 64.1359 50.7851 64.903C51.3045 65.296 51.2904 65.416 50.7851 65.8161C48.5727 67.5316 46.299 69.1671 44.174 70.9933C43.8785 71.2553 43.5993 71.535 43.3382 71.831C43.2741 71.9263 43.1809 71.9984 43.0724 72.0366C42.9639 72.0748 42.8459 72.077 42.7361 72.0428Z" fill="#BE986A"/>
<path d="M54.8273 86.8119C52.4146 85.6882 50.1621 84.2503 48.1288 82.536C45.8716 80.5899 44.0937 78.3637 43.272 75.4574C43.1928 75.1404 43.0297 74.8503 42.7998 74.6173C42.3276 74.1796 42.0254 74.0949 41.7751 74.7609C40.4599 78.2625 38.0847 80.9899 35.3718 83.4679C33.7709 84.9364 31.8868 85.9859 30.0734 87.1414C29.6343 87.4214 29.6154 87.6379 30.0522 87.9132C30.2883 88.0662 30.5551 88.1909 30.8006 88.3415C35.5229 91.2266 39.6713 94.653 41.6618 100.063C41.7127 100.213 41.8029 100.346 41.9228 100.449C42.0428 100.552 42.1883 100.621 42.3441 100.649C42.4493 100.652 42.5532 100.625 42.6433 100.571C42.7334 100.517 42.8058 100.438 42.8518 100.343C42.9754 100.126 43.0843 99.9 43.1776 99.6678C43.9213 98.0205 44.5636 96.3073 45.8008 94.9377C47.4399 93.1194 49.3437 91.5566 51.4486 90.3018C52.5196 89.6844 53.632 89.1411 54.7777 88.6757C55.2122 88.4898 55.7529 88.2568 55.7765 87.7179C55.8001 87.179 55.2499 87.0119 54.8273 86.8119ZM48.509 87.9885C47.3969 88.7487 46.2447 89.4499 45.2459 90.3653C44.2472 91.2808 43.4751 92.3468 42.6747 93.4081C42.3323 93.8623 42.2024 93.8788 41.9238 93.3916C40.918 91.669 39.4966 90.3324 37.9572 89.1087C37.3553 88.6568 36.7117 88.2628 36.0352 87.9321C35.5205 87.6614 35.5276 87.5085 36.0352 87.2261C38.4152 85.8941 40.2947 84.0115 41.9451 81.8936C42.4031 81.3029 42.6369 81.2888 43.0218 81.9077C44.3747 84.0798 46.2447 85.6941 48.4523 86.9602C48.6648 87.0825 48.9245 87.1626 48.9245 87.3579C48.9259 87.4925 48.8872 87.6246 48.8132 87.7373C48.7392 87.85 48.6333 87.9383 48.509 87.9909V87.9885Z" fill="#BE986A"/>
<path d="M55.08 14.4137C52.7071 13.5054 50.5939 12.1381 48.6129 10.5944C46.8114 9.19891 45.1634 7.66458 44.0867 5.60547C43.6617 4.79125 43.3666 3.92995 42.9793 3.10396C42.8306 2.78391 42.7031 2.33679 42.3064 2.3415C41.9098 2.3462 41.7657 2.79332 41.6335 3.14867C41.1017 4.61401 40.3597 5.99482 39.4306 7.24805C37.6792 9.51323 35.5556 11.4666 33.15 13.0253C32.1324 13.7031 31.0675 14.2984 30.0428 14.9597C29.6296 15.228 29.6154 15.5763 30.0192 15.8445C30.3522 16.0569 30.702 16.2419 31.0652 16.3975C31.5928 16.6197 32.1006 16.8858 32.5834 17.1929C34.7997 18.6498 36.8185 20.3851 38.59 22.356C39.9498 23.7965 40.9673 25.5232 41.5674 27.4085C41.6574 27.7167 41.7793 28.0148 41.931 28.298C42.1978 28.7828 42.5189 28.8181 42.9014 28.411C43.049 28.2551 43.1688 28.0752 43.2556 27.8791C43.4563 27.4085 43.6452 26.9378 43.8034 26.4672C44.2473 25.0391 44.9991 23.7251 46.0063 22.6172C48.1623 20.2692 50.7268 18.3294 53.576 16.8917C54.1545 16.6023 54.7093 16.2728 55.2689 15.9504C55.4263 15.871 55.5612 15.7536 55.6614 15.6089C55.7616 15.4642 55.8239 15.2969 55.8427 15.1221C55.8096 14.6797 55.4271 14.5479 55.08 14.4137ZM48.5752 16.0375C46.3203 17.1741 44.7313 19.0073 43.2745 20.9793C43.1257 21.1817 42.9675 21.3747 42.8023 21.5677C42.7661 21.618 42.7192 21.6598 42.6649 21.6899C42.6106 21.72 42.5502 21.7377 42.4882 21.7418C42.2173 21.6287 41.9984 21.4189 41.8743 21.1535C40.8776 19.6098 39.5956 18.2689 38.0966 17.2024C37.5039 16.7689 36.8714 16.3923 36.2077 16.0775C35.9716 15.9669 35.6505 15.8704 35.6386 15.5645C35.6268 15.2586 35.955 15.2186 36.1652 15.0938C38.4625 13.7431 40.4152 12.0228 41.7941 9.72839C41.8507 9.63662 41.905 9.54249 41.9688 9.45541C42.2639 9.0483 42.4835 9.03889 42.7314 9.47189C43.4737 10.6999 44.3961 11.8104 45.468 12.7665C46.4124 13.6442 47.4985 14.3008 48.5657 14.9997C49.215 15.4421 49.2339 15.7057 48.5752 16.0375Z" fill="#BE986A"/>
</svg>
