<svg width="80" height="97" viewBox="0 0 80 97" fill="none" xmlns="http://www.w3.org/2000/svg">
<path d="M39.9488 42.0365C39.8288 42.052 39.7844 41.97 39.7266 41.9146C37.6155 39.9201 35.2511 38.2579 32.9444 36.516C31.7822 35.6295 31.7755 35.6473 32.9066 34.7874C34.8474 33.3099 36.7814 31.8325 38.7088 30.355C39.1111 30.0448 39.4866 29.7035 39.8666 29.3666C40.1288 29.145 40.3533 29.1627 40.6155 29.3821C41.5044 30.1223 42.3777 30.8625 43.2822 31.5717C44.7844 32.7507 46.2933 33.9253 47.8955 34.9691C47.9933 35.0356 48.0977 35.0932 48.1933 35.1641C48.5955 35.4655 48.5955 35.7115 48.1733 35.9819C46.5866 36.988 45.1066 38.1449 43.5933 39.253C42.4822 40.0619 41.44 40.9417 40.3688 41.7972C40.2457 41.9033 40.1031 41.9846 39.9488 42.0365Z" fill="#BE986A"/>
<path d="M40.2222 67.8461C40.1038 67.8132 39.9924 67.7591 39.8933 67.6866C37.7578 66.0244 35.6711 64.3003 33.4867 62.7024C33.1067 62.4254 32.6711 62.2237 32.3355 61.8802C31.8667 61.3948 31.8667 61.1621 32.4111 60.8076C34.8978 59.1897 37.1356 57.2484 39.4356 55.3912C39.8067 55.0898 40.1022 55.0012 40.4555 55.369C41.8067 56.7342 43.42 57.7736 44.9267 58.946C45.8755 59.684 46.84 60.3998 47.7978 61.1222C48.2867 61.4923 48.2733 61.6054 47.7978 61.9821C45.7155 63.5977 43.5755 65.138 41.5755 66.8577C41.2974 67.1044 41.0347 67.3679 40.7889 67.6467C40.7286 67.7364 40.6409 67.8043 40.5388 67.8403C40.4366 67.8762 40.3256 67.8783 40.2222 67.8461Z" fill="#BE986A"/>
<path d="M51.6022 81.7549C49.3314 80.6967 47.2114 79.3426 45.2978 77.7281C43.1733 75.8954 41.5 73.7989 40.7267 71.0619C40.6521 70.7633 40.4986 70.4901 40.2822 70.2707C39.8378 69.8585 39.5533 69.7787 39.3178 70.4059C38.08 73.7036 35.8444 76.2721 33.2911 78.6058C31.7844 79.9886 30.0111 80.9771 28.3044 82.0652C27.8911 82.3289 27.8733 82.5328 28.2844 82.7921C28.5067 82.9362 28.7578 83.0536 28.9889 83.1955C33.4333 85.9125 37.3378 89.1393 39.2111 94.2343C39.2591 94.375 39.3439 94.5004 39.4568 94.5974C39.5698 94.6945 39.7067 94.7596 39.8533 94.7861C39.9523 94.7892 40.0501 94.7636 40.1349 94.7125C40.2197 94.6614 40.2878 94.5869 40.3311 94.498C40.4475 94.2931 40.55 94.0806 40.6378 93.8619C41.3378 92.3106 41.9422 90.6972 43.1067 89.4074C44.6494 87.695 46.4412 86.2233 48.4222 85.0415C49.4303 84.4601 50.4772 83.9485 51.5555 83.5102C51.9644 83.3351 52.4733 83.1157 52.4955 82.6082C52.5178 82.1007 52 81.9433 51.6022 81.7549ZM45.6555 82.863C44.6089 83.5789 43.5244 84.2393 42.5844 85.1014C41.6444 85.9635 40.9178 86.9674 40.1644 87.9669C39.8422 88.3946 39.72 88.4101 39.4578 87.9514C38.5111 86.3291 37.1733 85.0704 35.7244 83.9179C35.158 83.4924 34.5523 83.1214 33.9155 82.8098C33.4311 82.555 33.4378 82.4109 33.9155 82.145C36.1555 80.8906 37.9244 79.1177 39.4778 77.1231C39.9089 76.5669 40.1289 76.5536 40.4911 77.1364C41.7644 79.182 43.5244 80.7023 45.6022 81.8946C45.8022 82.0098 46.0467 82.0852 46.0467 82.2691C46.048 82.3959 46.0115 82.5203 45.9419 82.6264C45.8723 82.7325 45.7726 82.8157 45.6555 82.8653V82.863Z" fill="#BE986A"/>
<path d="M51.84 13.5741C49.6067 12.7187 47.6178 11.4311 45.7533 9.97726C44.0578 8.66306 42.5067 7.21811 41.4933 5.27895C41.0933 4.51216 40.8156 3.70103 40.4511 2.92316C40.3111 2.62175 40.1911 2.20068 39.8178 2.20511C39.4444 2.20955 39.3089 2.63062 39.1844 2.96526C38.684 4.34525 37.9856 5.64562 37.1111 6.82585C35.4627 8.95907 33.4641 10.7986 31.2 12.2666C30.2422 12.9048 29.24 13.4655 28.2756 14.0883C27.8867 14.3409 27.8733 14.6689 28.2533 14.9216C28.5667 15.1216 28.896 15.2958 29.2378 15.4424C29.7343 15.6516 30.2123 15.9021 30.6667 16.1914C32.7526 17.5634 34.6527 19.1976 36.32 21.0537C37.5998 22.4103 38.5575 24.0364 39.1222 25.8119C39.2069 26.1022 39.3216 26.3829 39.4644 26.6496C39.7156 27.1061 40.0178 27.1394 40.3778 26.756C40.5167 26.6091 40.6294 26.4398 40.7111 26.2551C40.9 25.8119 41.0778 25.3686 41.2267 24.9254C41.6445 23.5805 42.3521 22.3431 43.3 21.2997C45.3292 19.0885 47.7429 17.2617 50.4244 15.9078C50.9689 15.6352 51.4911 15.3249 52.0178 15.0213C52.1659 14.9465 52.2928 14.8359 52.3872 14.6997C52.4815 14.5634 52.5401 14.4058 52.5578 14.2412C52.5267 13.8245 52.1667 13.7004 51.84 13.5741ZM45.7178 15.1033C43.5955 16.1737 42.1 17.9001 40.7289 19.7573C40.5889 19.9479 40.44 20.1296 40.2844 20.3113C40.2504 20.3587 40.2062 20.398 40.1551 20.4264C40.104 20.4548 40.0472 20.4715 39.9889 20.4753C39.7339 20.3687 39.5279 20.1712 39.4111 19.9213C38.473 18.4675 37.2664 17.2047 35.8556 16.2003C35.2977 15.7921 34.7025 15.4374 34.0778 15.141C33.8556 15.0368 33.5533 14.9459 33.5422 14.6578C33.5311 14.3697 33.84 14.3321 34.0378 14.2146C36.2 12.9425 38.0378 11.3225 39.3356 9.1617C39.3889 9.07527 39.44 8.98663 39.5 8.90463C39.7778 8.52123 39.9844 8.51236 40.2178 8.92014C40.9164 10.0766 41.7845 11.1224 42.7933 12.0228C43.6822 12.8494 44.7044 13.4677 45.7089 14.1259C46.32 14.5426 46.3378 14.7908 45.7178 15.1033Z" fill="#BE986A"/>
</svg>
