<svg id="Layer_1" data-name="Layer 1" xmlns="http://www.w3.org/2000/svg" viewBox="0 0 360 437.69"><defs><style>.cls-1{fill:#be986a;}</style></defs><path class="cls-1" d="M179.77,189.68c-.54.07-.74-.3-1-.55-9.5-9-20.14-16.5-30.52-24.36-5.23-4-5.26-3.92-.17-7.8q13.1-10,26.11-20c1.81-1.4,3.5-2.94,5.21-4.46,1.18-1,2.19-.92,3.37.07,4,3.34,7.93,6.68,12,9.88,6.76,5.32,13.55,10.62,20.76,15.33.44.3.91.56,1.34.88,1.81,1.36,1.81,2.47-.09,3.69-7.14,4.54-13.8,9.76-20.61,14.76-5,3.65-9.69,7.62-14.51,11.48A5.65,5.65,0,0,1,179.77,189.68Z"/><path class="cls-1" d="M181,306.14a4.58,4.58,0,0,1-1.48-.72c-9.61-7.5-19-15.28-28.83-22.49-1.71-1.25-3.67-2.16-5.18-3.71-2.11-2.19-2.11-3.24.34-4.84,11.19-7.3,21.26-16.06,31.61-24.44,1.67-1.36,3-1.76,4.59-.1,6.08,6.16,13.34,10.85,20.12,16.14,4.27,3.33,8.61,6.56,12.92,9.82,2.2,1.67,2.14,2.18,0,3.88-9.37,7.29-19,14.24-28,22a41,41,0,0,0-3.54,3.56A2.26,2.26,0,0,1,181,306.14Z"/><path class="cls-1" d="M232.21,368.9a127.51,127.51,0,0,1-28.37-18.17c-9.56-8.27-17.09-17.73-20.57-30.08a7.77,7.77,0,0,0-2-3.57c-2-1.86-3.28-2.22-4.34.61-5.57,14.88-15.63,26.47-27.12,37-6.78,6.24-14.76,10.7-22.44,15.61-1.86,1.19-1.94,2.11-.09,3.28,1,.65,2.13,1.18,3.17,1.82,20,12.26,37.57,26.82,46,49.81a3.76,3.76,0,0,0,2.89,2.49,2.31,2.31,0,0,0,2.15-1.3,23.7,23.7,0,0,0,1.38-2.87c3.15-7,5.87-14.28,11.11-20.1a103.76,103.76,0,0,1,23.92-19.7A114.42,114.42,0,0,1,232,376.82c1.84-.79,4.13-1.78,4.23-4.07S234,369.75,232.21,368.9Zm-26.76,5c-4.71,3.23-9.59,6.21-13.82,10.1s-7.5,8.42-10.89,12.93c-1.45,1.93-2,2-3.18-.07-4.26-7.32-10.28-13-16.8-18.2a50.48,50.48,0,0,0-8.14-5c-2.18-1.15-2.15-1.8,0-3C162.7,365,170.66,357,177.65,348c1.94-2.51,2.93-2.57,4.56.06,5.73,9.23,13.65,16.09,23,21.47.9.52,2,.86,2,1.69A2.89,2.89,0,0,1,205.45,373.91Z"/><path class="cls-1" d="M233.28,61.25c-10.05-3.86-19-9.67-27.39-16.23-7.63-5.93-14.61-12.45-19.17-21.2-1.8-3.46-3.05-7.12-4.69-10.63-.63-1.36-1.17-3.26-2.85-3.24s-2.29,1.92-2.85,3.43A68.54,68.54,0,0,1,167,30.8,107.68,107.68,0,0,1,140.4,55.35c-4.31,2.88-8.82,5.41-13.16,8.22-1.75,1.14-1.81,2.62-.1,3.76a30.76,30.76,0,0,0,4.43,2.35A43.16,43.16,0,0,1,138,73.06,130.94,130.94,0,0,1,163.44,95a56.08,56.08,0,0,1,12.61,21.47,19.73,19.73,0,0,0,1.54,3.78c1.13,2.06,2.49,2.21,4.11.48a8,8,0,0,0,1.5-2.26c.85-2,1.65-4,2.32-6a43.57,43.57,0,0,1,9.33-16.36,112.09,112.09,0,0,1,32.06-24.33c2.45-1.23,4.8-2.63,7.17-4a4.48,4.48,0,0,0,2.43-3.52C236.37,62.38,234.75,61.82,233.28,61.25Zm-27.55,6.9c-9.55,4.83-16.28,12.62-22.45,21-.63.86-1.3,1.68-2,2.5a1.78,1.78,0,0,1-1.33.74,5,5,0,0,1-2.6-2.5,61.56,61.56,0,0,0-16-16.79,49.42,49.42,0,0,0-8-4.78c-1-.47-2.36-.88-2.41-2.18s1.34-1.47,2.23-2c9.73-5.74,18-13.05,23.84-22.8.24-.39.47-.79.74-1.16,1.25-1.73,2.18-1.77,3.23.07a61.11,61.11,0,0,0,11.59,14c4,3.73,8.6,6.52,13.12,9.49C208.44,65.62,208.52,66.74,205.73,68.15Z"/></svg>