<svg width="85" height="103" viewBox="0 0 85 103" fill="none" xmlns="http://www.w3.org/2000/svg">
<path d="M42.4457 44.6367C42.3182 44.6532 42.271 44.5661 42.2096 44.5073C39.9665 42.3893 37.4543 40.6244 35.0035 38.7747C33.7686 37.8334 33.7615 37.8522 34.9633 36.9392C37.0254 35.3703 39.0803 33.8015 41.1282 32.2327C41.5556 31.9032 41.9546 31.5408 42.3583 31.1831C42.637 30.9478 42.8754 30.9666 43.154 31.1996C44.0985 31.9856 45.0264 32.7716 45.9874 33.5246C47.5835 34.7765 49.1867 36.0238 50.889 37.1321C50.9929 37.2027 51.1039 37.2639 51.2054 37.3392C51.6328 37.6593 51.6328 37.9205 51.1842 38.2076C49.4983 39.276 47.9258 40.5044 46.3179 41.681C45.1374 42.5399 44.03 43.4742 42.892 44.3826C42.7611 44.4953 42.6096 44.5816 42.4457 44.6367Z" fill="#233565"/>
<path d="M42.7361 72.0428C42.6103 72.0078 42.4919 71.9504 42.3867 71.8734C40.1177 70.1084 37.9006 68.2776 35.5796 66.5809C35.1758 66.2867 34.7131 66.0726 34.3565 65.7078C33.8583 65.1925 33.8584 64.9454 34.4368 64.5688C37.0789 62.851 39.4565 60.7895 41.9003 58.8175C42.2946 58.4974 42.6086 58.4033 42.984 58.7939C44.4196 60.2435 46.1338 61.3472 47.7346 62.5921C48.7428 63.3757 49.7675 64.1358 50.7852 64.903C51.3046 65.296 51.2904 65.416 50.7852 65.8161C48.5728 67.5316 46.299 69.1671 44.174 70.9933C43.8785 71.2552 43.5994 71.535 43.3382 71.831C43.2742 71.9263 43.181 71.9984 43.0725 72.0366C42.964 72.0747 42.846 72.0769 42.7361 72.0428Z" fill="#233565"/>
<path d="M54.8274 86.8119C52.4146 85.6882 50.1621 84.2503 48.1289 82.536C45.8717 80.5899 44.0938 78.3637 43.2721 75.4574C43.1928 75.1403 43.0298 74.8502 42.7999 74.6173C42.3276 74.1796 42.0254 74.0949 41.7751 74.7608C40.46 78.2625 38.0847 80.9899 35.3718 83.4679C33.771 84.9364 31.8868 85.9859 30.0735 87.1414C29.6343 87.4214 29.6154 87.6379 30.0522 87.9132C30.2883 88.0662 30.5551 88.1909 30.8007 88.3415C35.5229 91.2266 39.6714 94.653 41.6618 100.063C41.7128 100.213 41.8029 100.346 41.9229 100.449C42.0429 100.552 42.1883 100.621 42.3442 100.649C42.4494 100.652 42.5533 100.625 42.6434 100.571C42.7334 100.517 42.8058 100.438 42.8518 100.343C42.9755 100.126 43.0843 99.8999 43.1776 99.6678C43.9214 98.0205 44.5636 96.3073 45.8008 94.9377C47.44 93.1194 49.3438 91.5566 51.4486 90.3018C52.5197 89.6844 53.632 89.1411 54.7778 88.6757C55.2122 88.4898 55.7529 88.2568 55.7765 87.7179C55.8001 87.179 55.25 87.0119 54.8274 86.8119ZM48.509 87.9885C47.3969 88.7486 46.2447 89.4499 45.246 90.3653C44.2472 91.2807 43.4751 92.3468 42.6747 93.4081C42.3324 93.8623 42.2025 93.8787 41.9239 93.3916C40.9181 91.669 39.4967 90.3324 37.9572 89.1087C37.3553 88.6568 36.7118 88.2628 36.0353 87.9321C35.5206 87.6614 35.5276 87.5085 36.0353 87.2261C38.4153 85.8941 40.2947 84.0115 41.9451 81.8936C42.4032 81.3029 42.637 81.2888 43.0218 81.9077C44.3747 84.0798 46.2447 85.6941 48.4524 86.9602C48.6649 87.0825 48.9246 87.1625 48.9246 87.3579C48.926 87.4925 48.8873 87.6246 48.8133 87.7373C48.7393 87.85 48.6334 87.9382 48.509 87.9909V87.9885Z" fill="#233565"/>
<path d="M55.08 14.4137C52.7071 13.5054 50.5939 12.1381 48.6129 10.5944C46.8114 9.19891 45.1633 7.66458 44.0866 5.60547C43.6616 4.79124 43.3665 3.92995 42.9793 3.10395C42.8305 2.78391 42.703 2.33679 42.3064 2.3415C41.9097 2.3462 41.7657 2.79332 41.6334 3.14867C41.1017 4.61401 40.3597 5.99482 39.4305 7.24805C37.6791 9.51323 35.5556 11.4666 33.15 13.0253C32.1323 13.7031 31.0675 14.2984 30.0427 14.9597C29.6296 15.228 29.6154 15.5763 30.0191 15.8445C30.3521 16.0569 30.7019 16.2419 31.0651 16.3975C31.5927 16.6197 32.1006 16.8858 32.5833 17.1929C34.7997 18.6498 36.8185 20.3851 38.59 22.356C39.9498 23.7965 40.9673 25.5232 41.5673 27.4085C41.6574 27.7167 41.7792 28.0148 41.9309 28.298C42.1978 28.7828 42.5189 28.8181 42.9014 28.411C43.0489 28.2551 43.1687 28.0752 43.2555 27.8791C43.4562 27.4085 43.6451 26.9378 43.8033 26.4672C44.2472 25.0391 44.9991 23.7251 46.0062 22.6172C48.1622 20.2692 50.7268 18.3294 53.5759 16.8917C54.1544 16.6023 54.7093 16.2728 55.2689 15.9504C55.4262 15.871 55.5611 15.7536 55.6613 15.6089C55.7615 15.4642 55.8239 15.2969 55.8426 15.1221C55.8096 14.6797 55.4271 14.5479 55.08 14.4137ZM48.5751 16.0375C46.3202 17.1741 44.7312 19.0073 43.2744 20.9793C43.1257 21.1817 42.9675 21.3747 42.8022 21.5677C42.766 21.618 42.7191 21.6598 42.6648 21.6899C42.6105 21.72 42.5502 21.7377 42.4882 21.7418C42.2172 21.6287 41.9983 21.4189 41.8743 21.1535C40.8776 19.6098 39.5956 18.2689 38.0965 17.2024C37.5038 16.7689 36.8714 16.3923 36.2076 16.0775C35.9715 15.9669 35.6504 15.8704 35.6386 15.5645C35.6268 15.2586 35.955 15.2186 36.1651 15.0938C38.4625 13.7431 40.4151 12.0228 41.794 9.72839C41.8507 9.63662 41.905 9.54248 41.9687 9.45541C42.2639 9.0483 42.4834 9.03889 42.7314 9.47189C43.4737 10.6999 44.396 11.8104 45.4679 12.7665C46.4123 13.6442 47.4984 14.3008 48.5657 14.9997C49.215 15.4421 49.2339 15.7057 48.5751 16.0375Z" fill="#233565"/>
</svg>
