<svg width="90" height="109" viewBox="0 0 90 109" fill="none" xmlns="http://www.w3.org/2000/svg">
<path d="M44.9425 47.237C44.8075 47.2544 44.7575 47.1623 44.6925 47.1C42.3175 44.8587 39.6574 42.9909 37.0624 41.0335C35.7549 40.0374 35.7474 40.0573 37.0199 39.091C39.2033 37.4308 41.3791 35.7706 43.5474 34.1104C43.9999 33.7617 44.4224 33.3782 44.8499 32.9997C45.1449 32.7506 45.3975 32.7705 45.6925 33.0171C46.6925 33.8489 47.675 34.6806 48.6925 35.4776C50.3825 36.8024 52.0799 38.1223 53.8824 39.2953C53.9924 39.37 54.1099 39.4347 54.2174 39.5144C54.6699 39.8531 54.6699 40.1295 54.1949 40.4333C52.4099 41.564 50.7449 42.8639 49.0424 44.1091C47.7924 45.0181 46.62 46.0067 45.415 46.968C45.2764 47.0873 45.116 47.1787 44.9425 47.237Z" fill="#E9BAD2"/>
<path d="M45.25 76.2394C45.1168 76.2024 44.9915 76.1416 44.88 76.0601C42.4775 74.1924 40.13 72.2549 37.6725 70.4593C37.245 70.148 36.755 69.9214 36.3775 69.5354C35.85 68.99 35.85 68.7285 36.4625 68.3301C39.26 66.5121 41.7775 64.3306 44.365 62.2437C44.7825 61.905 45.115 61.8054 45.5125 62.2188C47.0325 63.7528 48.8475 64.9208 50.5425 66.2382C51.61 67.0675 52.695 67.8718 53.7725 68.6837C54.3225 69.0996 54.3075 69.2266 53.7725 69.65C51.43 71.4654 49.0225 73.1962 46.7725 75.1287C46.4596 75.406 46.1641 75.702 45.8875 76.0153C45.8197 76.1161 45.721 76.1924 45.6062 76.2328C45.4913 76.2732 45.3664 76.2755 45.25 76.2394Z" fill="#E9BAD2"/>
<path d="M58.0525 91.8689C55.4979 90.6797 53.1129 89.1581 50.96 87.3439C48.57 85.2844 46.6875 82.9285 45.8175 79.853C45.7336 79.5174 45.5609 79.2104 45.3175 78.9639C44.8175 78.5007 44.4975 78.4111 44.2325 79.1158C42.84 82.8215 40.325 85.7078 37.4525 88.3301C35.7575 89.8841 33.7625 90.9948 31.8425 92.2175C31.3775 92.5139 31.3575 92.743 31.82 93.0344C32.07 93.1962 32.3525 93.3282 32.6125 93.4876C37.6125 96.5408 42.005 100.167 44.1125 105.892C44.1665 106.05 44.2619 106.191 44.389 106.3C44.516 106.409 44.67 106.482 44.835 106.512C44.9464 106.516 45.0564 106.487 45.1518 106.429C45.2472 106.372 45.3238 106.288 45.3725 106.188C45.5035 105.958 45.6187 105.719 45.7175 105.474C46.505 103.73 47.185 101.917 48.495 100.468C50.2306 98.5438 52.2464 96.89 54.475 95.5621C55.6091 94.9087 56.7869 94.3338 58 93.8412C58.46 93.6445 59.0325 93.398 59.0575 92.8277C59.0825 92.2574 58.5 92.0806 58.0525 91.8689ZM51.3625 93.1141C50.185 93.9184 48.965 94.6606 47.9075 95.6293C46.85 96.5981 46.0325 97.7262 45.185 98.8493C44.8225 99.33 44.685 99.3474 44.39 98.8319C43.325 97.009 41.82 95.5944 40.19 94.2995C39.5527 93.8213 38.8713 93.4043 38.155 93.0543C37.61 92.7679 37.6175 92.606 38.155 92.3072C40.675 90.8977 42.665 88.9054 44.4125 86.6641C44.8975 86.039 45.145 86.024 45.5525 86.679C46.985 88.9776 48.965 90.686 51.3025 92.0258C51.5275 92.1553 51.8025 92.24 51.8025 92.4466C51.804 92.5892 51.763 92.7289 51.6847 92.8482C51.6063 92.9674 51.4942 93.0608 51.3625 93.1166V93.1141Z" fill="#E9BAD2"/>
<path d="M58.3199 15.2533C55.8074 14.292 53.5699 12.8451 51.4724 11.2115C49.5649 9.73469 47.8199 8.11099 46.6799 5.93193C46.2299 5.07027 45.9174 4.15881 45.5074 3.28469C45.3499 2.94601 45.2149 2.47284 44.7949 2.47782C44.3749 2.4828 44.2224 2.95597 44.0824 3.33201C43.5194 4.88272 42.7337 6.34396 41.7499 7.6702C39.8955 10.0673 37.6471 12.1345 35.0999 13.784C34.0224 14.5012 32.8949 15.1313 31.8099 15.8311C31.3724 16.115 31.3574 16.4835 31.7849 16.7674C32.1375 16.9922 32.5079 17.1879 32.8925 17.3527C33.4511 17.5877 33.9888 17.8693 34.4999 18.1944C36.8467 19.7361 38.9843 21.5725 40.86 23.6582C42.2997 25.1826 43.3771 27.0099 44.0125 29.005C44.1078 29.3312 44.2368 29.6467 44.3974 29.9463C44.6799 30.4594 45.0199 30.4967 45.4249 30.0659C45.5812 29.9009 45.708 29.7106 45.7999 29.5031C46.0124 29.005 46.2125 28.5069 46.38 28.0089C46.85 26.4976 47.6461 25.1071 48.7125 23.9347C50.9953 21.4498 53.7107 19.3971 56.7274 17.8756C57.3399 17.5693 57.9274 17.2207 58.5199 16.8795C58.6866 16.7954 58.8294 16.6712 58.9355 16.5181C59.0416 16.365 59.1076 16.1879 59.1274 16.0029C59.0924 15.5347 58.6874 15.3953 58.3199 15.2533ZM51.4324 16.9716C49.0449 18.1745 47.3624 20.1145 45.8199 22.2014C45.6624 22.4155 45.4949 22.6197 45.3199 22.824C45.2817 22.8773 45.232 22.9214 45.1745 22.9533C45.117 22.9852 45.0531 23.0039 44.9874 23.0082C44.7006 22.8885 44.4688 22.6665 44.3375 22.3857C43.2821 20.752 41.9247 19.3331 40.3375 18.2044C39.7099 17.7457 39.0403 17.3471 38.3375 17.014C38.0875 16.8969 37.7474 16.7948 37.7349 16.4711C37.7224 16.1473 38.0699 16.105 38.2924 15.973C40.7249 14.5436 42.7924 12.7231 44.2524 10.295C44.3124 10.1979 44.3699 10.0983 44.4374 10.0061C44.7499 9.57531 44.9824 9.56535 45.2449 10.0236C46.0309 11.3231 47.0076 12.4983 48.1425 13.5101C49.1425 14.439 50.2924 15.1338 51.4224 15.8734C52.1099 16.3416 52.1299 16.6205 51.4324 16.9716Z" fill="#E9BAD2"/>
</svg>
